M48
; DRILL file {KiCad 8.0.8} date 2025-01-30T15:16:33-0500
; FORMAT={-:-/ absolute / metric / decimal}
; #@! TF.CreationDate,2025-01-30T15:16:33-05:00
; #@! TF.GenerationSoftware,Kicad,Pcbnew,8.0.8
; #@! TF.FileFunction,Plated,1,4,PTH
FMAT,2
METRIC
; #@! TA.AperFunction,Plated,PTH,ViaDrill
T1C0.200
; #@! TA.AperFunction,Plated,PTH,ComponentDrill
T2C0.200
; #@! TA.AperFunction,Plated,PTH,ViaDrill
T3C0.400
; #@! TA.AperFunction,Plated,PTH,ComponentDrill
T4C0.500
; #@! TA.AperFunction,Plated,PTH,ComponentDrill
T5C0.950
; #@! TA.AperFunction,Plated,PTH,ComponentDrill
T6C1.000
; #@! TA.AperFunction,Plated,PTH,ComponentDrill
T7C1.100
; #@! TA.AperFunction,Plated,PTH,ComponentDrill
T8C1.200
%
G90
G05
T1
X157.62Y-122.5
T2
X161.1Y-63.2
X161.1Y-64.6
X161.8Y-62.5
X161.8Y-63.9
X161.8Y-65.3
X162.475Y-63.2
X162.475Y-64.6
X163.2Y-62.5
X163.2Y-63.9
X163.2Y-65.3
X163.9Y-63.2
X163.9Y-64.6
T3
X104.0Y-92.5
X107.5Y-100.0
X108.162Y-62.967
X111.0Y-91.205
X113.0Y-99.205
X113.362Y-79.642
X113.75Y-61.5
X116.5Y-73.5
X118.5Y-65.5
X124.0Y-66.0
X127.5Y-62.25
X127.75Y-60.0
X136.0Y-78.0
X136.0Y-88.0
X136.06Y-122.06
X138.62Y-111.5
X140.0Y-125.5
X140.62Y-114.7
X141.12Y-102.0
X141.62Y-106.0
X142.0Y-80.0
X143.62Y-120.7
X144.62Y-105.0
X145.08Y-71.42
X145.5Y-74.5
X146.12Y-113.5
X146.5Y-80.0
X147.12Y-105.0
X148.0Y-125.0
X148.035Y-113.383
X149.5Y-75.5
X149.62Y-104.5
X150.75Y-106.0
X151.25Y-84.75
X151.25Y-119.5
X151.62Y-97.0
X152.1Y-58.1
X152.6Y-75.6
X153.0Y-107.0
X154.25Y-84.0
X155.5Y-77.3
X155.62Y-108.3
X156.62Y-100.0
X157.5Y-82.5
X158.5Y-111.5
X158.5Y-141.25
X159.0Y-71.5
X162.12Y-107.0
X163.25Y-123.75
X163.5Y-134.75
X164.0Y-100.0
X164.5Y-105.5
X166.25Y-94.0
X166.62Y-117.1
X171.5Y-91.0
X171.75Y-134.0
X172.5Y-87.25
X173.25Y-141.5
X173.78Y-98.64
X174.25Y-94.5
X174.5Y-123.25
X174.602Y-110.948
X175.5Y-120.5
X177.25Y-135.0
X177.25Y-137.75
X179.25Y-138.25
X185.5Y-143.75
X185.7Y-90.412
X185.75Y-139.25
X191.0Y-94.0
T5
X103.0Y-55.5
X105.5Y-55.5
X105.5Y-68.5
X105.5Y-71.0
X105.5Y-73.5
X105.5Y-76.0
X108.0Y-55.5
X110.5Y-55.5
X119.95Y-55.332
X122.45Y-55.332
X124.95Y-55.332
X127.45Y-55.332
X129.95Y-55.332
X132.45Y-55.332
X195.968Y-80.5
X195.968Y-83.0
X195.968Y-85.5
X195.968Y-88.0
X195.968Y-98.75
X195.968Y-101.25
X195.968Y-103.75
X195.968Y-106.25
T6
X117.0Y-87.125
X117.0Y-89.665
X117.0Y-92.205
X117.0Y-94.745
X117.0Y-97.285
X117.0Y-99.825
X117.0Y-102.365
X117.0Y-104.905
T7
X106.5Y-109.96
X106.5Y-112.5
X106.5Y-115.04
T8
X106.02Y-138.5
X109.83Y-138.5
X113.64Y-138.5
X117.45Y-138.5
X121.26Y-138.5
X125.07Y-138.5
X128.88Y-138.5
X132.69Y-138.5
X136.5Y-138.5
X140.31Y-138.5
X144.12Y-138.5
X147.93Y-138.5
X151.74Y-138.5
T4
X176.8Y-141.75G85X177.5Y-141.75
G05
X179.4Y-143.9G85X180.5Y-143.9
G05
X182.4Y-141.75G85X183.1Y-141.75
G05
M30
