G04 #@! TF.GenerationSoftware,KiCad,Pcbnew,8.0.8*
G04 #@! TF.CreationDate,2025-01-30T15:15:15-05:00*
G04 #@! TF.ProjectId,FORWARD-PCB,464f5257-4152-4442-9d50-43422e6b6963,rev?*
G04 #@! TF.SameCoordinates,Original*
G04 #@! TF.FileFunction,Copper,L1,Top*
G04 #@! TF.FilePolarity,Positive*
%FSLAX46Y46*%
G04 Gerber Fmt 4.6, Leading zero omitted, Abs format (unit mm)*
G04 Created by KiCad (PCBNEW 8.0.8) date 2025-01-30 15:15:15*
%MOMM*%
%LPD*%
G01*
G04 APERTURE LIST*
G04 Aperture macros list*
%AMRoundRect*
0 Rectangle with rounded corners*
0 $1 Rounding radius*
0 $2 $3 $4 $5 $6 $7 $8 $9 X,Y pos of 4 corners*
0 Add a 4 corners polygon primitive as box body*
4,1,4,$2,$3,$4,$5,$6,$7,$8,$9,$2,$3,0*
0 Add four circle primitives for the rounded corners*
1,1,$1+$1,$2,$3*
1,1,$1+$1,$4,$5*
1,1,$1+$1,$6,$7*
1,1,$1+$1,$8,$9*
0 Add four rect primitives between the rounded corners*
20,1,$1+$1,$2,$3,$4,$5,0*
20,1,$1+$1,$4,$5,$6,$7,0*
20,1,$1+$1,$6,$7,$8,$9,0*
20,1,$1+$1,$8,$9,$2,$3,0*%
G04 Aperture macros list end*
G04 #@! TA.AperFunction,ComponentPad*
%ADD10RoundRect,0.250000X0.725000X-0.600000X0.725000X0.600000X-0.725000X0.600000X-0.725000X-0.600000X0*%
G04 #@! TD*
G04 #@! TA.AperFunction,ComponentPad*
%ADD11O,1.950000X1.700000*%
G04 #@! TD*
G04 #@! TA.AperFunction,SMDPad,CuDef*
%ADD12R,0.450000X1.500000*%
G04 #@! TD*
G04 #@! TA.AperFunction,HeatsinkPad*
%ADD13O,1.800000X1.100000*%
G04 #@! TD*
G04 #@! TA.AperFunction,HeatsinkPad*
%ADD14O,2.200000X1.100000*%
G04 #@! TD*
G04 #@! TA.AperFunction,SMDPad,CuDef*
%ADD15RoundRect,0.250000X0.262500X0.450000X-0.262500X0.450000X-0.262500X-0.450000X0.262500X-0.450000X0*%
G04 #@! TD*
G04 #@! TA.AperFunction,SMDPad,CuDef*
%ADD16RoundRect,0.250000X-0.450000X0.262500X-0.450000X-0.262500X0.450000X-0.262500X0.450000X0.262500X0*%
G04 #@! TD*
G04 #@! TA.AperFunction,SMDPad,CuDef*
%ADD17R,1.000000X1.000000*%
G04 #@! TD*
G04 #@! TA.AperFunction,ComponentPad*
%ADD18RoundRect,0.250000X-0.600000X-0.725000X0.600000X-0.725000X0.600000X0.725000X-0.600000X0.725000X0*%
G04 #@! TD*
G04 #@! TA.AperFunction,ComponentPad*
%ADD19O,1.700000X1.950000*%
G04 #@! TD*
G04 #@! TA.AperFunction,SMDPad,CuDef*
%ADD20R,0.600000X0.800000*%
G04 #@! TD*
G04 #@! TA.AperFunction,SMDPad,CuDef*
%ADD21RoundRect,0.250000X-0.250000X-0.475000X0.250000X-0.475000X0.250000X0.475000X-0.250000X0.475000X0*%
G04 #@! TD*
G04 #@! TA.AperFunction,SMDPad,CuDef*
%ADD22RoundRect,0.250000X-0.475000X0.250000X-0.475000X-0.250000X0.475000X-0.250000X0.475000X0.250000X0*%
G04 #@! TD*
G04 #@! TA.AperFunction,SMDPad,CuDef*
%ADD23R,1.250000X1.000000*%
G04 #@! TD*
G04 #@! TA.AperFunction,ComponentPad*
%ADD24R,1.700000X1.700000*%
G04 #@! TD*
G04 #@! TA.AperFunction,ComponentPad*
%ADD25O,1.700000X1.700000*%
G04 #@! TD*
G04 #@! TA.AperFunction,SMDPad,CuDef*
%ADD26RoundRect,0.243750X-0.456250X0.243750X-0.456250X-0.243750X0.456250X-0.243750X0.456250X0.243750X0*%
G04 #@! TD*
G04 #@! TA.AperFunction,SMDPad,CuDef*
%ADD27RoundRect,0.250000X-0.262500X-0.450000X0.262500X-0.450000X0.262500X0.450000X-0.262500X0.450000X0*%
G04 #@! TD*
G04 #@! TA.AperFunction,ComponentPad*
%ADD28RoundRect,0.250000X-0.725000X0.600000X-0.725000X-0.600000X0.725000X-0.600000X0.725000X0.600000X0*%
G04 #@! TD*
G04 #@! TA.AperFunction,SMDPad,CuDef*
%ADD29R,0.800000X0.600000*%
G04 #@! TD*
G04 #@! TA.AperFunction,ComponentPad*
%ADD30RoundRect,0.250000X-0.650000X-1.550000X0.650000X-1.550000X0.650000X1.550000X-0.650000X1.550000X0*%
G04 #@! TD*
G04 #@! TA.AperFunction,ComponentPad*
%ADD31O,1.800000X3.600000*%
G04 #@! TD*
G04 #@! TA.AperFunction,ComponentPad*
%ADD32R,2.200000X2.200000*%
G04 #@! TD*
G04 #@! TA.AperFunction,ComponentPad*
%ADD33C,2.200000*%
G04 #@! TD*
G04 #@! TA.AperFunction,SMDPad,CuDef*
%ADD34RoundRect,0.250000X0.250000X0.475000X-0.250000X0.475000X-0.250000X-0.475000X0.250000X-0.475000X0*%
G04 #@! TD*
G04 #@! TA.AperFunction,SMDPad,CuDef*
%ADD35R,0.480000X0.400000*%
G04 #@! TD*
G04 #@! TA.AperFunction,SMDPad,CuDef*
%ADD36R,1.500000X0.900000*%
G04 #@! TD*
G04 #@! TA.AperFunction,SMDPad,CuDef*
%ADD37R,0.900000X1.500000*%
G04 #@! TD*
G04 #@! TA.AperFunction,SMDPad,CuDef*
%ADD38R,0.900000X0.900000*%
G04 #@! TD*
G04 #@! TA.AperFunction,HeatsinkPad*
%ADD39C,0.600000*%
G04 #@! TD*
G04 #@! TA.AperFunction,HeatsinkPad*
%ADD40R,3.800000X3.800000*%
G04 #@! TD*
G04 #@! TA.AperFunction,SMDPad,CuDef*
%ADD41R,0.460000X1.040000*%
G04 #@! TD*
G04 #@! TA.AperFunction,SMDPad,CuDef*
%ADD42R,0.400000X0.480000*%
G04 #@! TD*
G04 #@! TA.AperFunction,SMDPad,CuDef*
%ADD43RoundRect,0.062500X-0.337500X-0.062500X0.337500X-0.062500X0.337500X0.062500X-0.337500X0.062500X0*%
G04 #@! TD*
G04 #@! TA.AperFunction,SMDPad,CuDef*
%ADD44RoundRect,0.062500X-0.062500X-0.337500X0.062500X-0.337500X0.062500X0.337500X-0.062500X0.337500X0*%
G04 #@! TD*
G04 #@! TA.AperFunction,HeatsinkPad*
%ADD45R,3.350000X3.350000*%
G04 #@! TD*
G04 #@! TA.AperFunction,SMDPad,CuDef*
%ADD46RoundRect,0.250000X0.450000X-0.262500X0.450000X0.262500X-0.450000X0.262500X-0.450000X-0.262500X0*%
G04 #@! TD*
G04 #@! TA.AperFunction,ViaPad*
%ADD47C,0.800000*%
G04 #@! TD*
G04 #@! TA.AperFunction,ViaPad*
%ADD48C,0.400000*%
G04 #@! TD*
G04 #@! TA.AperFunction,Conductor*
%ADD49C,0.838200*%
G04 #@! TD*
G04 #@! TA.AperFunction,Conductor*
%ADD50C,0.250000*%
G04 #@! TD*
G04 #@! TA.AperFunction,Conductor*
%ADD51C,0.402000*%
G04 #@! TD*
G04 #@! TA.AperFunction,Conductor*
%ADD52C,0.400000*%
G04 #@! TD*
G04 #@! TA.AperFunction,Conductor*
%ADD53C,0.700000*%
G04 #@! TD*
G04 #@! TA.AperFunction,Conductor*
%ADD54C,0.200000*%
G04 #@! TD*
G04 #@! TA.AperFunction,Conductor*
%ADD55C,0.360000*%
G04 #@! TD*
G04 #@! TA.AperFunction,Conductor*
%ADD56C,0.605000*%
G04 #@! TD*
G04 APERTURE END LIST*
D10*
X105500000Y-76000000D03*
D11*
X105500000Y-73500000D03*
X105500000Y-71000000D03*
X105500000Y-68500000D03*
D12*
X178650000Y-142000000D03*
X179300000Y-142000000D03*
X179950000Y-142000000D03*
X180600000Y-142000000D03*
X181250000Y-142000000D03*
D13*
X177150000Y-141750000D03*
D14*
X179950000Y-143900000D03*
D13*
X182750000Y-141750000D03*
D15*
X107912500Y-91205000D03*
X106087500Y-91205000D03*
D16*
X187600000Y-76675000D03*
X187600000Y-78500000D03*
D17*
X146750000Y-101250000D03*
D18*
X119950000Y-55332500D03*
D19*
X122450000Y-55332500D03*
X124950000Y-55332500D03*
X127450000Y-55332500D03*
X129950000Y-55332500D03*
X132450000Y-55332500D03*
D20*
X167619740Y-106490000D03*
X165719740Y-106490000D03*
X166669740Y-108510000D03*
D21*
X172050000Y-120500000D03*
X173950000Y-120500000D03*
D22*
X166619740Y-113600000D03*
X166619740Y-115500000D03*
D23*
X186875000Y-141250000D03*
X194625000Y-141250000D03*
D24*
X117000000Y-87125000D03*
D25*
X117000000Y-89665000D03*
X117000000Y-92205000D03*
X117000000Y-94745000D03*
X117000000Y-97285000D03*
X117000000Y-99825000D03*
X117000000Y-102365000D03*
X117000000Y-104905000D03*
D16*
X153750000Y-121087500D03*
X153750000Y-122912500D03*
D26*
X174250000Y-100312500D03*
X174250000Y-102187500D03*
D16*
X117062500Y-77175000D03*
X117062500Y-79000000D03*
D21*
X141719740Y-108000000D03*
X143619740Y-108000000D03*
D27*
X152837500Y-86750000D03*
X154662500Y-86750000D03*
D16*
X162119740Y-103587500D03*
X162119740Y-105412500D03*
D27*
X146675000Y-122000000D03*
X148500000Y-122000000D03*
D28*
X195967500Y-80500000D03*
D11*
X195967500Y-83000000D03*
X195967500Y-85500000D03*
X195967500Y-88000000D03*
D21*
X146119740Y-108000000D03*
X148019740Y-108000000D03*
D29*
X167599740Y-101560000D03*
X167599740Y-103460000D03*
X169619740Y-102510000D03*
D27*
X165707240Y-97000000D03*
X167532240Y-97000000D03*
D23*
X160625000Y-141250000D03*
X168375000Y-141250000D03*
D15*
X188412500Y-72000000D03*
X186587500Y-72000000D03*
D30*
X106020000Y-138500000D03*
D31*
X109830000Y-138500000D03*
X113640000Y-138500000D03*
X117450000Y-138500000D03*
X121260000Y-138500000D03*
X125070000Y-138500000D03*
X128880000Y-138500000D03*
X132690000Y-138500000D03*
X136500000Y-138500000D03*
X140310000Y-138500000D03*
X144120000Y-138500000D03*
X147930000Y-138500000D03*
X151740000Y-138500000D03*
D27*
X104587500Y-61000000D03*
X106412500Y-61000000D03*
D15*
X172532240Y-113500000D03*
X170707240Y-113500000D03*
D21*
X150050000Y-77500000D03*
X151950000Y-77500000D03*
D32*
X106500000Y-109960000D03*
D33*
X106500000Y-112500000D03*
X106500000Y-115040000D03*
D16*
X169000000Y-84087500D03*
X169000000Y-85912500D03*
X172500000Y-80087500D03*
X172500000Y-81912500D03*
D34*
X143700000Y-123500000D03*
X141800000Y-123500000D03*
D35*
X161119740Y-122500000D03*
X159799740Y-122500000D03*
D36*
X155250000Y-56180000D03*
X155250000Y-57450000D03*
X155250000Y-58720000D03*
X155250000Y-59990000D03*
X155250000Y-61260000D03*
X155250000Y-62530000D03*
X155250000Y-63800000D03*
X155250000Y-65070000D03*
X155250000Y-66340000D03*
X155250000Y-67610000D03*
X155250000Y-68880000D03*
X155250000Y-70150000D03*
X155250000Y-71420000D03*
X155250000Y-72690000D03*
D37*
X158290000Y-73940000D03*
X159560000Y-73940000D03*
X160830000Y-73940000D03*
X162100000Y-73940000D03*
X163370000Y-73940000D03*
X164640000Y-73940000D03*
X165910000Y-73940000D03*
X167180000Y-73940000D03*
X168450000Y-73940000D03*
X169720000Y-73940000D03*
D36*
X172750000Y-72690000D03*
X172750000Y-71420000D03*
X172750000Y-70150000D03*
X172750000Y-68880000D03*
X172750000Y-67610000D03*
X172750000Y-66340000D03*
X172750000Y-65070000D03*
X172750000Y-63800000D03*
X172750000Y-62530000D03*
X172750000Y-61260000D03*
X172750000Y-59990000D03*
X172750000Y-58720000D03*
X172750000Y-57450000D03*
X172750000Y-56180000D03*
D38*
X161100000Y-62500000D03*
D39*
X161100000Y-63200000D03*
D38*
X161100000Y-63900000D03*
D39*
X161100000Y-64600000D03*
D38*
X161100000Y-65300000D03*
D39*
X161800000Y-62500000D03*
X161800000Y-63900000D03*
X161800000Y-65300000D03*
X162475000Y-63200000D03*
X162475000Y-64600000D03*
D38*
X162500000Y-62500000D03*
X162500000Y-63900000D03*
D40*
X162500000Y-63900000D03*
D38*
X162500000Y-65300000D03*
D39*
X163200000Y-62500000D03*
X163200000Y-63900000D03*
X163200000Y-65300000D03*
D38*
X163900000Y-62500000D03*
D39*
X163900000Y-63200000D03*
D38*
X163900000Y-63900000D03*
D39*
X163900000Y-64600000D03*
D38*
X163900000Y-65300000D03*
D15*
X154532240Y-103500000D03*
X152707240Y-103500000D03*
D16*
X110412500Y-61087500D03*
X110412500Y-62912500D03*
D41*
X143750000Y-88690000D03*
X143750000Y-86310000D03*
D42*
X173250000Y-138590000D03*
X173250000Y-139910000D03*
D35*
X140939740Y-112500000D03*
X139619740Y-112500000D03*
D27*
X111087500Y-76500000D03*
X112912500Y-76500000D03*
D18*
X103000000Y-55500000D03*
D19*
X105500000Y-55500000D03*
X108000000Y-55500000D03*
X110500000Y-55500000D03*
D34*
X145950000Y-77500000D03*
X144050000Y-77500000D03*
D16*
X183700000Y-88587500D03*
X183700000Y-90412500D03*
D43*
X151049740Y-111000000D03*
X151049740Y-111500000D03*
X151049740Y-112000000D03*
X151049740Y-112500000D03*
X151049740Y-113000000D03*
X151049740Y-113500000D03*
X151049740Y-114000000D03*
D44*
X151999740Y-114950000D03*
X152499740Y-114950000D03*
X152999740Y-114950000D03*
X153499740Y-114950000D03*
X153999740Y-114950000D03*
X154499740Y-114950000D03*
X154999740Y-114950000D03*
D43*
X155949740Y-114000000D03*
X155949740Y-113500000D03*
X155949740Y-113000000D03*
X155949740Y-112500000D03*
X155949740Y-112000000D03*
X155949740Y-111500000D03*
X155949740Y-111000000D03*
D44*
X154999740Y-110050000D03*
X154499740Y-110050000D03*
X153999740Y-110050000D03*
X153499740Y-110050000D03*
X152999740Y-110050000D03*
X152499740Y-110050000D03*
X151999740Y-110050000D03*
D45*
X153499740Y-112500000D03*
D46*
X145619740Y-117412500D03*
X145619740Y-115587500D03*
D16*
X110500000Y-98292500D03*
X110500000Y-100117500D03*
D28*
X195967500Y-98750000D03*
D11*
X195967500Y-101250000D03*
X195967500Y-103750000D03*
X195967500Y-106250000D03*
D21*
X148050000Y-86500000D03*
X149950000Y-86500000D03*
D15*
X187412500Y-87500000D03*
X185587500Y-87500000D03*
D47*
X142000000Y-80000000D03*
X143619740Y-120700000D03*
X152600000Y-75600000D03*
X166619740Y-117100000D03*
X185750000Y-139250000D03*
X147119740Y-105000000D03*
X158500000Y-141250000D03*
X138619740Y-111500000D03*
X158500000Y-111500000D03*
X185700000Y-90412500D03*
X151250000Y-119500000D03*
X185500000Y-143750000D03*
X175500000Y-120500000D03*
D48*
X157619740Y-122500000D03*
D47*
X151250000Y-84750000D03*
X159000000Y-71500000D03*
X144619740Y-105000000D03*
X140000000Y-125500000D03*
X108162500Y-62967500D03*
X173250000Y-141500000D03*
X113362500Y-79642500D03*
X174500000Y-123250000D03*
X156619740Y-100000000D03*
X155500000Y-77300000D03*
X177250000Y-135000000D03*
X174602455Y-110948427D03*
X146500000Y-80000000D03*
X107500000Y-100000000D03*
X149500000Y-75500000D03*
X104000000Y-92500000D03*
X152100000Y-58100000D03*
X154250000Y-84000000D03*
X141619740Y-106000000D03*
X191000000Y-94000000D03*
X140619740Y-114700000D03*
X166250000Y-94000000D03*
X136059870Y-122059870D03*
X141119740Y-102000000D03*
X163250000Y-123750000D03*
X171750000Y-134000000D03*
X148035435Y-113382684D03*
X177250000Y-137750000D03*
X179250000Y-138250000D03*
X146119740Y-113500000D03*
X136000000Y-78000000D03*
X113000000Y-99205000D03*
X124000000Y-66000000D03*
X145500000Y-74500000D03*
X136000000Y-88000000D03*
X111000000Y-91205000D03*
X145080000Y-71420000D03*
X164500000Y-105500000D03*
X155619740Y-108300000D03*
X162119740Y-107000000D03*
X164000000Y-100000000D03*
X149619740Y-104500000D03*
X151619740Y-97000000D03*
X113750000Y-61500000D03*
X127750000Y-60000000D03*
X171500000Y-91000000D03*
X153000000Y-107000000D03*
X172500000Y-87250000D03*
X150750000Y-106000000D03*
X163500000Y-134750000D03*
X148000000Y-125000000D03*
X127500000Y-62250000D03*
X118500000Y-65500000D03*
X116500000Y-73500000D03*
X157500000Y-82500000D03*
X173779980Y-98640228D03*
X174250000Y-94500000D03*
D49*
X151250000Y-120536020D02*
X153626480Y-122912500D01*
X158500000Y-141250000D02*
X160625000Y-141250000D01*
D50*
X153500000Y-112500000D02*
X153499740Y-112500000D01*
X181250000Y-142000000D02*
X181250000Y-142500000D01*
D49*
X158290000Y-72210000D02*
X159000000Y-71500000D01*
D51*
X173250000Y-139910000D02*
X173250000Y-141500000D01*
D50*
X157550000Y-110550000D02*
X155450000Y-110550000D01*
D49*
X117062500Y-79000000D02*
X114005000Y-79000000D01*
X175500000Y-120500000D02*
X173920000Y-120500000D01*
X158290000Y-73940000D02*
X158290000Y-72210000D01*
X153626480Y-122912500D02*
X153750000Y-122912500D01*
X151250000Y-85200000D02*
X151250000Y-84750000D01*
X144050000Y-77500000D02*
X142000000Y-79550000D01*
X144619740Y-105000000D02*
X143619740Y-106000000D01*
X151950000Y-76250000D02*
X151950000Y-77500000D01*
X142000000Y-79550000D02*
X142000000Y-80000000D01*
X152600000Y-75600000D02*
X151950000Y-76250000D01*
X166619740Y-117100000D02*
X166619740Y-115500000D01*
D52*
X143619740Y-108000000D02*
X143619740Y-108500000D01*
D50*
X182250000Y-143500000D02*
X182500000Y-143750000D01*
D49*
X155250000Y-56180000D02*
X156838200Y-56180000D01*
D50*
X155450000Y-110550000D02*
X153500000Y-112500000D01*
D49*
X193000000Y-88000000D02*
X195967500Y-88000000D01*
X170220000Y-56180000D02*
X163900000Y-62500000D01*
D50*
X151049740Y-112000000D02*
X152999740Y-112000000D01*
D52*
X138619740Y-111500000D02*
X139619740Y-112500000D01*
D49*
X186875000Y-140375000D02*
X185750000Y-139250000D01*
D50*
X149869740Y-109850000D02*
X148019740Y-108000000D01*
D49*
X187600000Y-82600000D02*
X193000000Y-88000000D01*
X143619740Y-106000000D02*
X143619740Y-108000000D01*
X186875000Y-141250000D02*
X186875000Y-140375000D01*
X145619740Y-117412500D02*
X145619740Y-118700000D01*
X183700000Y-90412500D02*
X185700000Y-90412500D01*
X108217500Y-62912500D02*
X108162500Y-62967500D01*
X147119740Y-105000000D02*
X148019740Y-105900000D01*
X172750000Y-56180000D02*
X170220000Y-56180000D01*
X148019740Y-105900000D02*
X148019740Y-108000000D01*
X145619740Y-118700000D02*
X143619740Y-120700000D01*
X140000000Y-125500000D02*
X140000000Y-125300000D01*
X110412500Y-62912500D02*
X108217500Y-62912500D01*
D50*
X182500000Y-143750000D02*
X185500000Y-143750000D01*
X158500000Y-111500000D02*
X157550000Y-110550000D01*
X152999740Y-112000000D02*
X153499740Y-112500000D01*
X149869740Y-111269740D02*
X149869740Y-109850000D01*
D49*
X140000000Y-125300000D02*
X141800000Y-123500000D01*
X149950000Y-86500000D02*
X151250000Y-85200000D01*
X187600000Y-78500000D02*
X187600000Y-82600000D01*
X161100000Y-60441800D02*
X161100000Y-62500000D01*
D51*
X159799740Y-122500000D02*
X157619740Y-122500000D01*
D49*
X151250000Y-119500000D02*
X151250000Y-120536020D01*
X114005000Y-79000000D02*
X113362500Y-79642500D01*
D50*
X151049740Y-112000000D02*
X150600000Y-112000000D01*
X150600000Y-112000000D02*
X149869740Y-111269740D01*
X181250000Y-142500000D02*
X182250000Y-143500000D01*
D49*
X156838200Y-56180000D02*
X161100000Y-60441800D01*
X170707240Y-113500000D02*
X170707240Y-119157240D01*
X166719740Y-113500000D02*
X166719740Y-108560000D01*
X166719740Y-113500000D02*
X166619740Y-113600000D01*
D50*
X166719740Y-113500000D02*
X166669740Y-113550000D01*
D49*
X177250000Y-135000000D02*
X179000000Y-136750000D01*
D50*
X161139740Y-108500000D02*
X161619740Y-108500000D01*
D49*
X161139740Y-108500000D02*
X161119740Y-108500000D01*
X172050000Y-120800000D02*
X174500000Y-123250000D01*
D53*
X163119740Y-108500000D02*
X161619740Y-108500000D01*
D49*
X166719740Y-108560000D02*
X166669740Y-108510000D01*
D50*
X161129740Y-108510000D02*
X161139740Y-108500000D01*
X166669740Y-108510000D02*
X164629740Y-108510000D01*
D49*
X161119740Y-108500000D02*
X156619740Y-104000000D01*
D50*
X164629740Y-108510000D02*
X164619740Y-108500000D01*
D49*
X170707240Y-119157240D02*
X172050000Y-120500000D01*
X179000000Y-136750000D02*
X190125000Y-136750000D01*
X161619740Y-108500000D02*
X161139740Y-108500000D01*
D50*
X166669740Y-113550000D02*
X166619740Y-113600000D01*
D49*
X170707240Y-113500000D02*
X166719740Y-113500000D01*
D52*
X164619740Y-108500000D02*
X163119740Y-108500000D01*
D49*
X172050000Y-120500000D02*
X172050000Y-120800000D01*
D50*
X170707740Y-113500000D02*
X170707240Y-113500000D01*
D49*
X155500000Y-77300000D02*
X155500000Y-75800000D01*
X156619740Y-104000000D02*
X156619740Y-100000000D01*
X156900000Y-74400000D02*
X156900000Y-59201800D01*
X155500000Y-75800000D02*
X156900000Y-74400000D01*
X156418200Y-58720000D02*
X155250000Y-58720000D01*
X156900000Y-59201800D02*
X156418200Y-58720000D01*
X190125000Y-136750000D02*
X194625000Y-141250000D01*
X183500000Y-130000000D02*
X189500000Y-124000000D01*
X189500000Y-105000000D02*
X179000000Y-94500000D01*
X175380000Y-68880000D02*
X172750000Y-68880000D01*
X179000000Y-94500000D02*
X179000000Y-72500000D01*
X179000000Y-72500000D02*
X175380000Y-68880000D01*
X189500000Y-124000000D02*
X189500000Y-105000000D01*
X144120000Y-138500000D02*
X152620000Y-130000000D01*
X152620000Y-130000000D02*
X183500000Y-130000000D01*
X172532240Y-113500000D02*
X172532240Y-113087500D01*
X152750000Y-57450000D02*
X152100000Y-58100000D01*
X150050000Y-76050000D02*
X150050000Y-77500000D01*
X152837500Y-85412500D02*
X154250000Y-84000000D01*
X107617500Y-100117500D02*
X110500000Y-100117500D01*
X107500000Y-100000000D02*
X107617500Y-100117500D01*
X152837500Y-86750000D02*
X152837500Y-85412500D01*
X172532240Y-113087500D02*
X174619740Y-111000000D01*
X105295000Y-91205000D02*
X106087500Y-91205000D01*
X104000000Y-92500000D02*
X105295000Y-91205000D01*
X145950000Y-77500000D02*
X145950000Y-79450000D01*
X155250000Y-57450000D02*
X152750000Y-57450000D01*
X145950000Y-79450000D02*
X146500000Y-80000000D01*
X149500000Y-75500000D02*
X150050000Y-76050000D01*
D50*
X151049740Y-113500000D02*
X151049740Y-114000000D01*
D51*
X147095000Y-89655000D02*
X143750000Y-86310000D01*
D50*
X140819740Y-114500000D02*
X140619740Y-114700000D01*
D51*
X144770100Y-123025000D02*
X147475000Y-123025000D01*
D52*
X137619740Y-109880260D02*
X137619740Y-112500000D01*
D49*
X193000000Y-94000000D02*
X191000000Y-94000000D01*
X141719740Y-106100000D02*
X141619740Y-106000000D01*
X194300000Y-92900000D02*
X194300000Y-95300000D01*
D50*
X151049740Y-114000000D02*
X150549740Y-114500000D01*
D49*
X141719740Y-108000000D02*
X141719740Y-109100000D01*
X166250000Y-94000000D02*
X151440000Y-94000000D01*
X103000000Y-55500000D02*
X107000000Y-51500000D01*
X195967500Y-80500000D02*
X196900000Y-80500000D01*
D50*
X140619740Y-114700000D02*
X140419740Y-114700000D01*
D51*
X147475000Y-123025000D02*
X148500000Y-122000000D01*
D50*
X150549740Y-114500000D02*
X140819740Y-114500000D01*
D49*
X141119740Y-90250000D02*
X141119740Y-102000000D01*
D52*
X141719740Y-108000000D02*
X139500000Y-108000000D01*
D49*
X195967500Y-96967500D02*
X195967500Y-98750000D01*
X151440000Y-94000000D02*
X147095000Y-89655000D01*
X141719740Y-108000000D02*
X141719740Y-106100000D01*
X197900000Y-89300000D02*
X194300000Y-92900000D01*
X196900000Y-80500000D02*
X197900000Y-81500000D01*
X197900000Y-81500000D02*
X197900000Y-89300000D01*
X146119740Y-109000000D02*
X146119740Y-108000000D01*
X142619740Y-110000000D02*
X145119740Y-110000000D01*
D52*
X139819740Y-114700000D02*
X140419740Y-114700000D01*
D49*
X120950000Y-52500000D02*
X129617500Y-52500000D01*
X194300000Y-95300000D02*
X194500000Y-95500000D01*
D51*
X136059870Y-122059870D02*
X136450000Y-122450000D01*
D49*
X107000000Y-51500000D02*
X119950000Y-51500000D01*
D51*
X136450000Y-122450000D02*
X144195100Y-122450000D01*
X143750000Y-86310000D02*
X141119740Y-88940260D01*
X144195100Y-122450000D02*
X144770100Y-123025000D01*
D49*
X141719740Y-109100000D02*
X142619740Y-110000000D01*
X194300000Y-95300000D02*
X193000000Y-94000000D01*
X119950000Y-51500000D02*
X120950000Y-52500000D01*
X194500000Y-95500000D02*
X195967500Y-96967500D01*
D52*
X137619740Y-112500000D02*
X139819740Y-114700000D01*
D49*
X145119740Y-110000000D02*
X146119740Y-109000000D01*
D51*
X141119740Y-88940260D02*
X141119740Y-90250000D01*
D49*
X129617500Y-52500000D02*
X132450000Y-55332500D01*
D52*
X139500000Y-108000000D02*
X137619740Y-109880260D01*
D49*
X172750000Y-143750000D02*
X171750000Y-142750000D01*
X162369740Y-123750000D02*
X161119740Y-122500000D01*
D51*
X143750000Y-92018260D02*
X143750000Y-88690000D01*
X144365870Y-92634130D02*
X143750000Y-92018260D01*
D49*
X154531740Y-105412000D02*
X161119740Y-112000000D01*
X161119740Y-112000000D02*
X161119740Y-122500000D01*
X152425740Y-100694000D02*
X154531740Y-102800000D01*
X147306000Y-100694000D02*
X152425740Y-100694000D01*
X152425740Y-100694000D02*
X144365870Y-92634130D01*
D50*
X172750000Y-143750000D02*
X176900000Y-143750000D01*
D49*
X171750000Y-142750000D02*
X171750000Y-134000000D01*
X146750000Y-101250000D02*
X147306000Y-100694000D01*
X163250000Y-123750000D02*
X162369740Y-123750000D01*
X154531740Y-102800000D02*
X154531740Y-105412000D01*
D50*
X176900000Y-143750000D02*
X178650000Y-142000000D01*
D54*
X148419740Y-113000000D02*
X151049740Y-113000000D01*
X179300000Y-139800000D02*
X179300000Y-142000000D01*
X177250000Y-137750000D02*
X179300000Y-139800000D01*
X173250000Y-138590000D02*
X176410000Y-138590000D01*
X148019740Y-113400000D02*
X148419740Y-113000000D01*
X176410000Y-138590000D02*
X177250000Y-137750000D01*
X146119740Y-113000000D02*
X146619740Y-112500000D01*
X140939740Y-112500000D02*
X151049740Y-112500000D01*
X179950000Y-140550000D02*
X179950000Y-142000000D01*
X181250000Y-139250000D02*
X179950000Y-140550000D01*
X146619740Y-112500000D02*
X151049740Y-112500000D01*
X146119740Y-113400000D02*
X146119740Y-113500000D01*
X179250000Y-138250000D02*
X180250000Y-138250000D01*
X180250000Y-138250000D02*
X181250000Y-139250000D01*
X146119740Y-113500000D02*
X146119740Y-113000000D01*
D49*
X113000000Y-99205000D02*
X112087500Y-98292500D01*
X155250000Y-72690000D02*
X148310000Y-72690000D01*
X124000000Y-58782500D02*
X127450000Y-55332500D01*
X124000000Y-66000000D02*
X124000000Y-58782500D01*
X112087500Y-98292500D02*
X110500000Y-98292500D01*
X148310000Y-72690000D02*
X146500000Y-74500000D01*
X136000000Y-88000000D02*
X136000000Y-78000000D01*
X146500000Y-74500000D02*
X145500000Y-74500000D01*
X155250000Y-71420000D02*
X145080000Y-71420000D01*
X111000000Y-91205000D02*
X107912500Y-91205000D01*
D52*
X162119740Y-105412500D02*
X163087500Y-105412500D01*
X164000000Y-104500000D02*
X166500000Y-104500000D01*
X163087500Y-105412500D02*
X164000000Y-104500000D01*
D50*
X167619740Y-106490000D02*
X167619740Y-106390000D01*
D52*
X166500000Y-104500000D02*
X167619740Y-105619740D01*
X167619740Y-105619740D02*
X167619740Y-106490000D01*
D49*
X164000000Y-98707240D02*
X165707240Y-97000000D01*
D51*
X165719740Y-106490000D02*
X165719740Y-105969740D01*
X165250000Y-105500000D02*
X164500000Y-105500000D01*
D50*
X155619740Y-108300000D02*
X155299740Y-108300000D01*
X164629740Y-106490000D02*
X165719740Y-106490000D01*
D52*
X162619740Y-107500000D02*
X162119740Y-107000000D01*
X163619740Y-107500000D02*
X162619740Y-107500000D01*
D49*
X164000000Y-100000000D02*
X164000000Y-98707240D01*
D51*
X165719740Y-105969740D02*
X165250000Y-105500000D01*
D50*
X155299740Y-108300000D02*
X153999740Y-109600000D01*
X153999740Y-109600000D02*
X153999740Y-110050000D01*
X163619740Y-107500000D02*
X164629740Y-106490000D01*
X167599740Y-97068000D02*
X167531740Y-97000000D01*
X167599740Y-101560000D02*
X167599740Y-97068000D01*
X151183344Y-108500000D02*
X151999740Y-109316396D01*
X151999740Y-109316396D02*
X151999740Y-110050000D01*
X162247740Y-103460000D02*
X162119740Y-103588000D01*
D49*
X162119740Y-103587500D02*
X155532240Y-97000000D01*
D55*
X150619740Y-108500000D02*
X151183344Y-108500000D01*
D51*
X149619740Y-107500000D02*
X150619740Y-108500000D01*
D52*
X167599740Y-103460000D02*
X162247740Y-103460000D01*
D56*
X149619740Y-104500000D02*
X149619740Y-107000000D01*
D49*
X155532240Y-97000000D02*
X151619740Y-97000000D01*
D51*
X149619740Y-107000000D02*
X149619740Y-107500000D01*
D49*
X108000000Y-55500000D02*
X107000000Y-56500000D01*
X104587500Y-59912500D02*
X104587500Y-61000000D01*
X107000000Y-56500000D02*
X107000000Y-57500000D01*
X107000000Y-57500000D02*
X104587500Y-59912500D01*
X140990000Y-59990000D02*
X139500000Y-58500000D01*
X106500000Y-61087500D02*
X106412500Y-61000000D01*
X155250000Y-59990000D02*
X140990000Y-59990000D01*
X113337500Y-61087500D02*
X113750000Y-61500000D01*
X129250000Y-58500000D02*
X139500000Y-58500000D01*
X110412500Y-61087500D02*
X113337500Y-61087500D01*
X110412500Y-61087500D02*
X106500000Y-61087500D01*
X127750000Y-60000000D02*
X129250000Y-58500000D01*
X195077150Y-103750000D02*
X187412500Y-96085350D01*
X195967500Y-103750000D02*
X195077150Y-103750000D01*
X187412500Y-96085350D02*
X187412500Y-87500000D01*
X185588000Y-85587500D02*
X185587500Y-85588000D01*
X178500000Y-66000000D02*
X177570000Y-65070000D01*
X183500000Y-83500000D02*
X185588000Y-85587500D01*
X177570000Y-65070000D02*
X172750000Y-65070000D01*
X183500000Y-83500000D02*
X183500000Y-71000000D01*
X183500000Y-71000000D02*
X178500000Y-66000000D01*
X185587500Y-85588000D02*
X185587500Y-87500000D01*
X184787500Y-87500000D02*
X183700000Y-88587500D01*
X185587500Y-87500000D02*
X184787500Y-87500000D01*
X195967500Y-85500000D02*
X190900000Y-80432500D01*
X190900000Y-74487500D02*
X188412500Y-72000000D01*
X190900000Y-80432500D02*
X190900000Y-74487500D01*
X178220000Y-58720000D02*
X179000000Y-59500000D01*
X186588000Y-75662500D02*
X187600000Y-76675000D01*
X179000500Y-59500000D02*
X186588000Y-67087500D01*
X172750000Y-58720000D02*
X178220000Y-58720000D01*
X186588000Y-67087500D02*
X186588000Y-75662500D01*
X179000000Y-59500000D02*
X179000500Y-59500000D01*
D50*
X153499740Y-114950000D02*
X153499740Y-120837240D01*
X153499740Y-120837240D02*
X153750000Y-121087500D01*
X137094740Y-107525000D02*
X137094740Y-112717462D01*
X152707740Y-103500000D02*
X152707240Y-103500000D01*
X137094740Y-112717462D02*
X139964778Y-115587500D01*
X150800000Y-114950000D02*
X151999740Y-114950000D01*
D51*
X141119740Y-103500000D02*
X152707240Y-103500000D01*
D50*
X150162500Y-115587500D02*
X150800000Y-114950000D01*
X139964778Y-115587500D02*
X145619740Y-115587500D01*
X141119740Y-103500000D02*
X137094740Y-107525000D01*
X145619740Y-115587500D02*
X150162500Y-115587500D01*
X170500000Y-82587500D02*
X169000000Y-84087500D01*
X172750000Y-59990000D02*
X171750000Y-59990000D01*
X170500000Y-61240000D02*
X170500000Y-82587500D01*
X171750000Y-59990000D02*
X170500000Y-61240000D01*
X153000000Y-107000000D02*
X153499740Y-107499740D01*
X153499740Y-107499740D02*
X153499740Y-110050000D01*
D49*
X169000000Y-87250000D02*
X169000000Y-85912500D01*
X171500000Y-91000000D02*
X171500000Y-89750000D01*
X171500000Y-89750000D02*
X169000000Y-87250000D01*
D50*
X172750000Y-61260000D02*
X171750000Y-61260000D01*
X171475000Y-79062500D02*
X172500000Y-80087500D01*
X171750000Y-61260000D02*
X171475000Y-61535000D01*
X171475000Y-61535000D02*
X171475000Y-79062500D01*
X150750000Y-107266656D02*
X152999740Y-109516396D01*
X150750000Y-106000000D02*
X150750000Y-107266656D01*
X152999740Y-109516396D02*
X152999740Y-110050000D01*
D49*
X172500000Y-81912500D02*
X172500000Y-87250000D01*
X155250000Y-62530000D02*
X130470000Y-62530000D01*
X130470000Y-62530000D02*
X125500000Y-67500000D01*
X123000000Y-67500000D02*
X113500000Y-58000000D01*
X125500000Y-67500000D02*
X123000000Y-67500000D01*
X108000000Y-53000000D02*
X112000000Y-53000000D01*
X113500000Y-58000000D02*
X113500000Y-54500000D01*
X105500000Y-55500000D02*
X108000000Y-53000000D01*
X113500000Y-54500000D02*
X112000000Y-53000000D01*
X189461800Y-96307500D02*
X189461800Y-86461800D01*
X194404300Y-101250000D02*
X189461800Y-96307500D01*
X185000000Y-70000000D02*
X179500000Y-64500000D01*
X177530000Y-62530000D02*
X172750000Y-62530000D01*
X195967500Y-101250000D02*
X194404300Y-101250000D01*
X189461800Y-86461800D02*
X185000000Y-82000000D01*
X185000000Y-82000000D02*
X185000000Y-70000000D01*
X179500000Y-64500000D02*
X177530000Y-62530000D01*
X172750000Y-57450000D02*
X178950000Y-57450000D01*
X190500000Y-69000000D02*
X184500000Y-63000000D01*
X192300000Y-79900000D02*
X192300000Y-72800000D01*
X195967500Y-83000000D02*
X195400000Y-83000000D01*
X195400000Y-83000000D02*
X192300000Y-79900000D01*
X178950000Y-57450000D02*
X185250000Y-63750000D01*
X190500000Y-71000000D02*
X190500000Y-69000000D01*
X192300000Y-72800000D02*
X190500000Y-71000000D01*
X174650000Y-70150000D02*
X172750000Y-70150000D01*
X188000000Y-123436474D02*
X188000000Y-106000000D01*
X150060000Y-128750000D02*
X182686474Y-128750000D01*
X140310000Y-138500000D02*
X150060000Y-128750000D01*
X177500000Y-73000000D02*
X174650000Y-70150000D01*
X177500000Y-95500000D02*
X177500000Y-73000000D01*
X188000000Y-106000000D02*
X177500000Y-95500000D01*
X182686474Y-128750000D02*
X188000000Y-123436474D01*
X182000000Y-71500000D02*
X176840000Y-66340000D01*
X182000000Y-93000000D02*
X182000000Y-71500000D01*
X193000000Y-125250000D02*
X193000000Y-104000000D01*
X185750000Y-132500000D02*
X193000000Y-125250000D01*
X176840000Y-66340000D02*
X172750000Y-66340000D01*
X157076400Y-138500000D02*
X163076400Y-132500000D01*
X193000000Y-104000000D02*
X182000000Y-93000000D01*
X151740000Y-138500000D02*
X157076400Y-138500000D01*
X163076400Y-132500000D02*
X185750000Y-132500000D01*
X176110000Y-67610000D02*
X172750000Y-67610000D01*
X180500000Y-93500000D02*
X180500000Y-72000000D01*
X155391800Y-131038200D02*
X184461800Y-131038200D01*
X191500000Y-104500000D02*
X180500000Y-93500000D01*
X147930000Y-138500000D02*
X155391800Y-131038200D01*
X191500000Y-124000000D02*
X191500000Y-104500000D01*
X180500000Y-72000000D02*
X176110000Y-67610000D01*
X184461800Y-131038200D02*
X191500000Y-124000000D01*
X125070000Y-138500000D02*
X125070000Y-120930000D01*
X134000000Y-77500000D02*
X141350000Y-70150000D01*
X134000000Y-112000000D02*
X134000000Y-77500000D01*
X125070000Y-120930000D02*
X134000000Y-112000000D01*
X141350000Y-70150000D02*
X155250000Y-70150000D01*
X155250000Y-65070000D02*
X132930000Y-65070000D01*
X122000000Y-108000000D02*
X109830000Y-120170000D01*
X109830000Y-120170000D02*
X109830000Y-138500000D01*
X132930000Y-65070000D02*
X122000000Y-76000000D01*
X122000000Y-76000000D02*
X122000000Y-108000000D01*
D50*
X146675000Y-122000000D02*
X152499740Y-116175260D01*
X152499740Y-116175260D02*
X152499740Y-114950000D01*
D49*
X131000000Y-111000000D02*
X131000000Y-76500000D01*
X131000000Y-76500000D02*
X138620000Y-68880000D01*
X121260000Y-120740000D02*
X131000000Y-111000000D01*
X138620000Y-68880000D02*
X155250000Y-68880000D01*
X121260000Y-138500000D02*
X121260000Y-120740000D01*
X155250000Y-63800000D02*
X131700000Y-63800000D01*
X120000000Y-75500000D02*
X120000000Y-106500000D01*
X120000000Y-106500000D02*
X106020000Y-120480000D01*
X131700000Y-63800000D02*
X120000000Y-75500000D01*
X106020000Y-120480000D02*
X106020000Y-138500000D01*
X136000000Y-91000000D02*
X139000000Y-88000000D01*
X151500000Y-83000000D02*
X159560000Y-74940000D01*
X128880000Y-120620000D02*
X136000000Y-113500000D01*
X128880000Y-138500000D02*
X128880000Y-120620000D01*
X142000000Y-83000000D02*
X151500000Y-83000000D01*
X139000000Y-88000000D02*
X139000000Y-86000000D01*
X159560000Y-74940000D02*
X159560000Y-73940000D01*
X139000000Y-86000000D02*
X142000000Y-83000000D01*
X136000000Y-113500000D02*
X136000000Y-91000000D01*
X113640000Y-138500000D02*
X113640000Y-120860000D01*
X134660000Y-66340000D02*
X155250000Y-66340000D01*
X124500000Y-110000000D02*
X124500000Y-76500000D01*
X113640000Y-120860000D02*
X124500000Y-110000000D01*
X124500000Y-76500000D02*
X134660000Y-66340000D01*
X176000000Y-73501800D02*
X173918200Y-71420000D01*
X181750000Y-127500000D02*
X186500000Y-122750000D01*
X176000000Y-96000000D02*
X176000000Y-73501800D01*
X136500000Y-138500000D02*
X147500000Y-127500000D01*
X173918200Y-71420000D02*
X172750000Y-71420000D01*
X186500000Y-122750000D02*
X186500000Y-106500000D01*
X147500000Y-127500000D02*
X181750000Y-127500000D01*
X186500000Y-106500000D02*
X176000000Y-96000000D01*
X136390000Y-67610000D02*
X155250000Y-67610000D01*
X117450000Y-120550000D02*
X127500000Y-110500000D01*
X117450000Y-138500000D02*
X117450000Y-120550000D01*
X127500000Y-76500000D02*
X136390000Y-67610000D01*
X127500000Y-110500000D02*
X127500000Y-76500000D01*
X148050000Y-86500000D02*
X148050000Y-87225000D01*
X154662500Y-86873520D02*
X154662500Y-86750000D01*
X175437500Y-102187500D02*
X179500000Y-106250000D01*
X163500000Y-134750000D02*
X168250000Y-139500000D01*
X169559870Y-94940130D02*
X161369740Y-86750000D01*
X174250000Y-102187500D02*
X175437500Y-102187500D01*
X148050000Y-87225000D02*
X149825000Y-89000000D01*
X145200000Y-125000000D02*
X180250000Y-125000000D01*
X179500000Y-106250000D02*
X172750000Y-106250000D01*
X180250000Y-125000000D02*
X183500000Y-121750000D01*
X172750000Y-106250000D02*
X169619740Y-103119740D01*
X143700000Y-123500000D02*
X145200000Y-125000000D01*
X183500000Y-110250000D02*
X179500000Y-106250000D01*
X152536020Y-89000000D02*
X154662500Y-86873520D01*
X169619740Y-103119740D02*
X169619740Y-102510000D01*
X169619740Y-95000000D02*
X169559870Y-94940130D01*
X168250000Y-139500000D02*
X168250000Y-141125000D01*
X169619740Y-102510000D02*
X169619740Y-95000000D01*
X183500000Y-121750000D02*
X183500000Y-110250000D01*
X149825000Y-89000000D02*
X152536020Y-89000000D01*
X161369740Y-86750000D02*
X154662500Y-86750000D01*
X181000000Y-126250000D02*
X185250000Y-122000000D01*
X132690000Y-138500000D02*
X144940000Y-126250000D01*
X169720000Y-77280000D02*
X169720000Y-73940000D01*
X166000000Y-81000000D02*
X169720000Y-77280000D01*
X166000000Y-88250000D02*
X166000000Y-81000000D01*
X185250000Y-107500000D02*
X166000000Y-88250000D01*
X144940000Y-126250000D02*
X181000000Y-126250000D01*
X185250000Y-122000000D02*
X185250000Y-107500000D01*
X105500000Y-79000000D02*
X103905900Y-77405900D01*
X103905900Y-72594100D02*
X105500000Y-71000000D01*
X108587500Y-79000000D02*
X105500000Y-79000000D01*
X111087500Y-76500000D02*
X108587500Y-79000000D01*
X103905900Y-77405900D02*
X103905900Y-72594100D01*
X139260000Y-61260000D02*
X138500000Y-60500000D01*
X155250000Y-61260000D02*
X139260000Y-61260000D01*
X116387500Y-76500000D02*
X117062500Y-77175000D01*
X118500000Y-75737500D02*
X118500000Y-65500000D01*
X129250000Y-60500000D02*
X138500000Y-60500000D01*
X112912500Y-76500000D02*
X116387500Y-76500000D01*
X117062500Y-77175000D02*
X118500000Y-75737500D01*
X127500000Y-62250000D02*
X129250000Y-60500000D01*
X158500000Y-82500000D02*
X157500000Y-82500000D01*
X161500000Y-79500000D02*
X158500000Y-82500000D01*
X167478000Y-76500000D02*
X162500000Y-76500000D01*
X168450000Y-75528200D02*
X167478000Y-76500000D01*
X168450000Y-73940000D02*
X168450000Y-75528200D01*
X116500000Y-73500000D02*
X105500000Y-73500000D01*
X162500000Y-76500000D02*
X161500000Y-77500000D01*
X161500000Y-77500000D02*
X161500000Y-79500000D01*
X174250000Y-100312500D02*
X173750000Y-99812500D01*
X174250000Y-74190000D02*
X172750000Y-72690000D01*
X173750000Y-99812500D02*
X173750000Y-98750000D01*
X174250000Y-94500000D02*
X174250000Y-74190000D01*
M02*
