G04 #@! TF.GenerationSoftware,KiCad,Pcbnew,8.0.8*
G04 #@! TF.CreationDate,2025-01-30T15:15:15-05:00*
G04 #@! TF.ProjectId,FORWARD-PCB,464f5257-4152-4442-9d50-43422e6b6963,rev?*
G04 #@! TF.SameCoordinates,Original*
G04 #@! TF.FileFunction,Legend,Top*
G04 #@! TF.FilePolarity,Positive*
%FSLAX46Y46*%
G04 Gerber Fmt 4.6, Leading zero omitted, Abs format (unit mm)*
G04 Created by KiCad (PCBNEW 8.0.8) date 2025-01-30 15:15:15*
%MOMM*%
%LPD*%
G01*
G04 APERTURE LIST*
G04 Aperture macros list*
%AMRoundRect*
0 Rectangle with rounded corners*
0 $1 Rounding radius*
0 $2 $3 $4 $5 $6 $7 $8 $9 X,Y pos of 4 corners*
0 Add a 4 corners polygon primitive as box body*
4,1,4,$2,$3,$4,$5,$6,$7,$8,$9,$2,$3,0*
0 Add four circle primitives for the rounded corners*
1,1,$1+$1,$2,$3*
1,1,$1+$1,$4,$5*
1,1,$1+$1,$6,$7*
1,1,$1+$1,$8,$9*
0 Add four rect primitives between the rounded corners*
20,1,$1+$1,$2,$3,$4,$5,0*
20,1,$1+$1,$4,$5,$6,$7,0*
20,1,$1+$1,$6,$7,$8,$9,0*
20,1,$1+$1,$8,$9,$2,$3,0*%
G04 Aperture macros list end*
%ADD10C,0.150000*%
%ADD11C,0.080000*%
%ADD12C,0.120000*%
%ADD13C,0.127000*%
%ADD14C,0.200000*%
%ADD15C,0.000000*%
%ADD16RoundRect,0.250000X0.725000X-0.600000X0.725000X0.600000X-0.725000X0.600000X-0.725000X-0.600000X0*%
%ADD17O,1.950000X1.700000*%
%ADD18R,0.450000X1.500000*%
%ADD19O,1.800000X1.100000*%
%ADD20O,2.200000X1.100000*%
%ADD21RoundRect,0.250000X0.262500X0.450000X-0.262500X0.450000X-0.262500X-0.450000X0.262500X-0.450000X0*%
%ADD22RoundRect,0.250000X-0.450000X0.262500X-0.450000X-0.262500X0.450000X-0.262500X0.450000X0.262500X0*%
%ADD23R,1.000000X1.000000*%
%ADD24RoundRect,0.250000X-0.600000X-0.725000X0.600000X-0.725000X0.600000X0.725000X-0.600000X0.725000X0*%
%ADD25O,1.700000X1.950000*%
%ADD26RoundRect,0.102000X-0.300000X0.400000X-0.300000X-0.400000X0.300000X-0.400000X0.300000X0.400000X0*%
%ADD27RoundRect,0.250000X-0.250000X-0.475000X0.250000X-0.475000X0.250000X0.475000X-0.250000X0.475000X0*%
%ADD28RoundRect,0.250000X-0.475000X0.250000X-0.475000X-0.250000X0.475000X-0.250000X0.475000X0.250000X0*%
%ADD29R,1.250000X1.000000*%
%ADD30R,1.700000X1.700000*%
%ADD31O,1.700000X1.700000*%
%ADD32RoundRect,0.243750X-0.456250X0.243750X-0.456250X-0.243750X0.456250X-0.243750X0.456250X0.243750X0*%
%ADD33RoundRect,0.250000X-0.262500X-0.450000X0.262500X-0.450000X0.262500X0.450000X-0.262500X0.450000X0*%
%ADD34RoundRect,0.250000X-0.725000X0.600000X-0.725000X-0.600000X0.725000X-0.600000X0.725000X0.600000X0*%
%ADD35RoundRect,0.102000X-0.400000X-0.300000X0.400000X-0.300000X0.400000X0.300000X-0.400000X0.300000X0*%
%ADD36RoundRect,0.250000X-0.650000X-1.550000X0.650000X-1.550000X0.650000X1.550000X-0.650000X1.550000X0*%
%ADD37O,1.800000X3.600000*%
%ADD38C,1.100000*%
%ADD39R,2.200000X2.200000*%
%ADD40C,2.200000*%
%ADD41RoundRect,0.250000X0.250000X0.475000X-0.250000X0.475000X-0.250000X-0.475000X0.250000X-0.475000X0*%
%ADD42RoundRect,0.102000X0.240000X0.200000X-0.240000X0.200000X-0.240000X-0.200000X0.240000X-0.200000X0*%
%ADD43R,1.500000X0.900000*%
%ADD44R,0.900000X1.500000*%
%ADD45C,0.600000*%
%ADD46R,3.800000X3.800000*%
%ADD47RoundRect,0.102000X-0.230000X0.520000X-0.230000X-0.520000X0.230000X-0.520000X0.230000X0.520000X0*%
%ADD48RoundRect,0.102000X-0.200000X0.240000X-0.200000X-0.240000X0.200000X-0.240000X0.200000X0.240000X0*%
%ADD49RoundRect,0.062500X-0.337500X-0.062500X0.337500X-0.062500X0.337500X0.062500X-0.337500X0.062500X0*%
%ADD50RoundRect,0.062500X-0.062500X-0.337500X0.062500X-0.337500X0.062500X0.337500X-0.062500X0.337500X0*%
%ADD51R,3.350000X3.350000*%
%ADD52RoundRect,0.250000X0.450000X-0.262500X0.450000X0.262500X-0.450000X0.262500X-0.450000X-0.262500X0*%
G04 APERTURE END LIST*
D10*
X108907200Y-70761904D02*
X108954819Y-70619047D01*
X108954819Y-70619047D02*
X108954819Y-70380952D01*
X108954819Y-70380952D02*
X108907200Y-70285714D01*
X108907200Y-70285714D02*
X108859580Y-70238095D01*
X108859580Y-70238095D02*
X108764342Y-70190476D01*
X108764342Y-70190476D02*
X108669104Y-70190476D01*
X108669104Y-70190476D02*
X108573866Y-70238095D01*
X108573866Y-70238095D02*
X108526247Y-70285714D01*
X108526247Y-70285714D02*
X108478628Y-70380952D01*
X108478628Y-70380952D02*
X108431009Y-70571428D01*
X108431009Y-70571428D02*
X108383390Y-70666666D01*
X108383390Y-70666666D02*
X108335771Y-70714285D01*
X108335771Y-70714285D02*
X108240533Y-70761904D01*
X108240533Y-70761904D02*
X108145295Y-70761904D01*
X108145295Y-70761904D02*
X108050057Y-70714285D01*
X108050057Y-70714285D02*
X108002438Y-70666666D01*
X108002438Y-70666666D02*
X107954819Y-70571428D01*
X107954819Y-70571428D02*
X107954819Y-70333333D01*
X107954819Y-70333333D02*
X108002438Y-70190476D01*
X108050057Y-69809523D02*
X108002438Y-69761904D01*
X108002438Y-69761904D02*
X107954819Y-69666666D01*
X107954819Y-69666666D02*
X107954819Y-69428571D01*
X107954819Y-69428571D02*
X108002438Y-69333333D01*
X108002438Y-69333333D02*
X108050057Y-69285714D01*
X108050057Y-69285714D02*
X108145295Y-69238095D01*
X108145295Y-69238095D02*
X108240533Y-69238095D01*
X108240533Y-69238095D02*
X108383390Y-69285714D01*
X108383390Y-69285714D02*
X108954819Y-69857142D01*
X108954819Y-69857142D02*
X108954819Y-69238095D01*
X105357142Y-89704819D02*
X105023809Y-89228628D01*
X104785714Y-89704819D02*
X104785714Y-88704819D01*
X104785714Y-88704819D02*
X105166666Y-88704819D01*
X105166666Y-88704819D02*
X105261904Y-88752438D01*
X105261904Y-88752438D02*
X105309523Y-88800057D01*
X105309523Y-88800057D02*
X105357142Y-88895295D01*
X105357142Y-88895295D02*
X105357142Y-89038152D01*
X105357142Y-89038152D02*
X105309523Y-89133390D01*
X105309523Y-89133390D02*
X105261904Y-89181009D01*
X105261904Y-89181009D02*
X105166666Y-89228628D01*
X105166666Y-89228628D02*
X104785714Y-89228628D01*
X106309523Y-89704819D02*
X105738095Y-89704819D01*
X106023809Y-89704819D02*
X106023809Y-88704819D01*
X106023809Y-88704819D02*
X105928571Y-88847676D01*
X105928571Y-88847676D02*
X105833333Y-88942914D01*
X105833333Y-88942914D02*
X105738095Y-88990533D01*
X107214285Y-88704819D02*
X106738095Y-88704819D01*
X106738095Y-88704819D02*
X106690476Y-89181009D01*
X106690476Y-89181009D02*
X106738095Y-89133390D01*
X106738095Y-89133390D02*
X106833333Y-89085771D01*
X106833333Y-89085771D02*
X107071428Y-89085771D01*
X107071428Y-89085771D02*
X107166666Y-89133390D01*
X107166666Y-89133390D02*
X107214285Y-89181009D01*
X107214285Y-89181009D02*
X107261904Y-89276247D01*
X107261904Y-89276247D02*
X107261904Y-89514342D01*
X107261904Y-89514342D02*
X107214285Y-89609580D01*
X107214285Y-89609580D02*
X107166666Y-89657200D01*
X107166666Y-89657200D02*
X107071428Y-89704819D01*
X107071428Y-89704819D02*
X106833333Y-89704819D01*
X106833333Y-89704819D02*
X106738095Y-89657200D01*
X106738095Y-89657200D02*
X106690476Y-89609580D01*
X189704819Y-77754166D02*
X189228628Y-78087499D01*
X189704819Y-78325594D02*
X188704819Y-78325594D01*
X188704819Y-78325594D02*
X188704819Y-77944642D01*
X188704819Y-77944642D02*
X188752438Y-77849404D01*
X188752438Y-77849404D02*
X188800057Y-77801785D01*
X188800057Y-77801785D02*
X188895295Y-77754166D01*
X188895295Y-77754166D02*
X189038152Y-77754166D01*
X189038152Y-77754166D02*
X189133390Y-77801785D01*
X189133390Y-77801785D02*
X189181009Y-77849404D01*
X189181009Y-77849404D02*
X189228628Y-77944642D01*
X189228628Y-77944642D02*
X189228628Y-78325594D01*
X189133390Y-77182737D02*
X189085771Y-77277975D01*
X189085771Y-77277975D02*
X189038152Y-77325594D01*
X189038152Y-77325594D02*
X188942914Y-77373213D01*
X188942914Y-77373213D02*
X188895295Y-77373213D01*
X188895295Y-77373213D02*
X188800057Y-77325594D01*
X188800057Y-77325594D02*
X188752438Y-77277975D01*
X188752438Y-77277975D02*
X188704819Y-77182737D01*
X188704819Y-77182737D02*
X188704819Y-76992261D01*
X188704819Y-76992261D02*
X188752438Y-76897023D01*
X188752438Y-76897023D02*
X188800057Y-76849404D01*
X188800057Y-76849404D02*
X188895295Y-76801785D01*
X188895295Y-76801785D02*
X188942914Y-76801785D01*
X188942914Y-76801785D02*
X189038152Y-76849404D01*
X189038152Y-76849404D02*
X189085771Y-76897023D01*
X189085771Y-76897023D02*
X189133390Y-76992261D01*
X189133390Y-76992261D02*
X189133390Y-77182737D01*
X189133390Y-77182737D02*
X189181009Y-77277975D01*
X189181009Y-77277975D02*
X189228628Y-77325594D01*
X189228628Y-77325594D02*
X189323866Y-77373213D01*
X189323866Y-77373213D02*
X189514342Y-77373213D01*
X189514342Y-77373213D02*
X189609580Y-77325594D01*
X189609580Y-77325594D02*
X189657200Y-77277975D01*
X189657200Y-77277975D02*
X189704819Y-77182737D01*
X189704819Y-77182737D02*
X189704819Y-76992261D01*
X189704819Y-76992261D02*
X189657200Y-76897023D01*
X189657200Y-76897023D02*
X189609580Y-76849404D01*
X189609580Y-76849404D02*
X189514342Y-76801785D01*
X189514342Y-76801785D02*
X189323866Y-76801785D01*
X189323866Y-76801785D02*
X189228628Y-76849404D01*
X189228628Y-76849404D02*
X189181009Y-76897023D01*
X189181009Y-76897023D02*
X189133390Y-76992261D01*
X145488095Y-99256819D02*
X146059523Y-99256819D01*
X145773809Y-100256819D02*
X145773809Y-99256819D01*
X146392857Y-100256819D02*
X146392857Y-99256819D01*
X146392857Y-99256819D02*
X146773809Y-99256819D01*
X146773809Y-99256819D02*
X146869047Y-99304438D01*
X146869047Y-99304438D02*
X146916666Y-99352057D01*
X146916666Y-99352057D02*
X146964285Y-99447295D01*
X146964285Y-99447295D02*
X146964285Y-99590152D01*
X146964285Y-99590152D02*
X146916666Y-99685390D01*
X146916666Y-99685390D02*
X146869047Y-99733009D01*
X146869047Y-99733009D02*
X146773809Y-99780628D01*
X146773809Y-99780628D02*
X146392857Y-99780628D01*
X147821428Y-99590152D02*
X147821428Y-100256819D01*
X147583333Y-99209200D02*
X147345238Y-99923485D01*
X147345238Y-99923485D02*
X147964285Y-99923485D01*
X123333333Y-58954819D02*
X122857143Y-58954819D01*
X122857143Y-58954819D02*
X122857143Y-57954819D01*
X124190476Y-58954819D02*
X123619048Y-58954819D01*
X123904762Y-58954819D02*
X123904762Y-57954819D01*
X123904762Y-57954819D02*
X123809524Y-58097676D01*
X123809524Y-58097676D02*
X123714286Y-58192914D01*
X123714286Y-58192914D02*
X123619048Y-58240533D01*
X170554797Y-109110238D02*
X170507178Y-109205476D01*
X170507178Y-109205476D02*
X170411940Y-109300714D01*
X170411940Y-109300714D02*
X170269082Y-109443571D01*
X170269082Y-109443571D02*
X170221463Y-109538809D01*
X170221463Y-109538809D02*
X170221463Y-109634047D01*
X170459559Y-109586428D02*
X170411940Y-109681666D01*
X170411940Y-109681666D02*
X170316701Y-109776904D01*
X170316701Y-109776904D02*
X170126225Y-109824523D01*
X170126225Y-109824523D02*
X169792892Y-109824523D01*
X169792892Y-109824523D02*
X169602416Y-109776904D01*
X169602416Y-109776904D02*
X169507178Y-109681666D01*
X169507178Y-109681666D02*
X169459559Y-109586428D01*
X169459559Y-109586428D02*
X169459559Y-109395952D01*
X169459559Y-109395952D02*
X169507178Y-109300714D01*
X169507178Y-109300714D02*
X169602416Y-109205476D01*
X169602416Y-109205476D02*
X169792892Y-109157857D01*
X169792892Y-109157857D02*
X170126225Y-109157857D01*
X170126225Y-109157857D02*
X170316701Y-109205476D01*
X170316701Y-109205476D02*
X170411940Y-109300714D01*
X170411940Y-109300714D02*
X170459559Y-109395952D01*
X170459559Y-109395952D02*
X170459559Y-109586428D01*
X170459559Y-108205476D02*
X170459559Y-108776904D01*
X170459559Y-108491190D02*
X169459559Y-108491190D01*
X169459559Y-108491190D02*
X169602416Y-108586428D01*
X169602416Y-108586428D02*
X169697654Y-108681666D01*
X169697654Y-108681666D02*
X169745273Y-108776904D01*
X172833333Y-119179580D02*
X172785714Y-119227200D01*
X172785714Y-119227200D02*
X172642857Y-119274819D01*
X172642857Y-119274819D02*
X172547619Y-119274819D01*
X172547619Y-119274819D02*
X172404762Y-119227200D01*
X172404762Y-119227200D02*
X172309524Y-119131961D01*
X172309524Y-119131961D02*
X172261905Y-119036723D01*
X172261905Y-119036723D02*
X172214286Y-118846247D01*
X172214286Y-118846247D02*
X172214286Y-118703390D01*
X172214286Y-118703390D02*
X172261905Y-118512914D01*
X172261905Y-118512914D02*
X172309524Y-118417676D01*
X172309524Y-118417676D02*
X172404762Y-118322438D01*
X172404762Y-118322438D02*
X172547619Y-118274819D01*
X172547619Y-118274819D02*
X172642857Y-118274819D01*
X172642857Y-118274819D02*
X172785714Y-118322438D01*
X172785714Y-118322438D02*
X172833333Y-118370057D01*
X173214286Y-118370057D02*
X173261905Y-118322438D01*
X173261905Y-118322438D02*
X173357143Y-118274819D01*
X173357143Y-118274819D02*
X173595238Y-118274819D01*
X173595238Y-118274819D02*
X173690476Y-118322438D01*
X173690476Y-118322438D02*
X173738095Y-118370057D01*
X173738095Y-118370057D02*
X173785714Y-118465295D01*
X173785714Y-118465295D02*
X173785714Y-118560533D01*
X173785714Y-118560533D02*
X173738095Y-118703390D01*
X173738095Y-118703390D02*
X173166667Y-119274819D01*
X173166667Y-119274819D02*
X173785714Y-119274819D01*
X168659320Y-115192857D02*
X168706940Y-115240476D01*
X168706940Y-115240476D02*
X168754559Y-115383333D01*
X168754559Y-115383333D02*
X168754559Y-115478571D01*
X168754559Y-115478571D02*
X168706940Y-115621428D01*
X168706940Y-115621428D02*
X168611701Y-115716666D01*
X168611701Y-115716666D02*
X168516463Y-115764285D01*
X168516463Y-115764285D02*
X168325987Y-115811904D01*
X168325987Y-115811904D02*
X168183130Y-115811904D01*
X168183130Y-115811904D02*
X167992654Y-115764285D01*
X167992654Y-115764285D02*
X167897416Y-115716666D01*
X167897416Y-115716666D02*
X167802178Y-115621428D01*
X167802178Y-115621428D02*
X167754559Y-115478571D01*
X167754559Y-115478571D02*
X167754559Y-115383333D01*
X167754559Y-115383333D02*
X167802178Y-115240476D01*
X167802178Y-115240476D02*
X167849797Y-115192857D01*
X168754559Y-114240476D02*
X168754559Y-114811904D01*
X168754559Y-114526190D02*
X167754559Y-114526190D01*
X167754559Y-114526190D02*
X167897416Y-114621428D01*
X167897416Y-114621428D02*
X167992654Y-114716666D01*
X167992654Y-114716666D02*
X168040273Y-114811904D01*
X167754559Y-113621428D02*
X167754559Y-113526190D01*
X167754559Y-113526190D02*
X167802178Y-113430952D01*
X167802178Y-113430952D02*
X167849797Y-113383333D01*
X167849797Y-113383333D02*
X167945035Y-113335714D01*
X167945035Y-113335714D02*
X168135511Y-113288095D01*
X168135511Y-113288095D02*
X168373606Y-113288095D01*
X168373606Y-113288095D02*
X168564082Y-113335714D01*
X168564082Y-113335714D02*
X168659320Y-113383333D01*
X168659320Y-113383333D02*
X168706940Y-113430952D01*
X168706940Y-113430952D02*
X168754559Y-113526190D01*
X168754559Y-113526190D02*
X168754559Y-113621428D01*
X168754559Y-113621428D02*
X168706940Y-113716666D01*
X168706940Y-113716666D02*
X168659320Y-113764285D01*
X168659320Y-113764285D02*
X168564082Y-113811904D01*
X168564082Y-113811904D02*
X168373606Y-113859523D01*
X168373606Y-113859523D02*
X168135511Y-113859523D01*
X168135511Y-113859523D02*
X167945035Y-113811904D01*
X167945035Y-113811904D02*
X167849797Y-113764285D01*
X167849797Y-113764285D02*
X167802178Y-113716666D01*
X167802178Y-113716666D02*
X167754559Y-113621428D01*
X187154761Y-138181009D02*
X187297618Y-138228628D01*
X187297618Y-138228628D02*
X187345237Y-138276247D01*
X187345237Y-138276247D02*
X187392856Y-138371485D01*
X187392856Y-138371485D02*
X187392856Y-138514342D01*
X187392856Y-138514342D02*
X187345237Y-138609580D01*
X187345237Y-138609580D02*
X187297618Y-138657200D01*
X187297618Y-138657200D02*
X187202380Y-138704819D01*
X187202380Y-138704819D02*
X186821428Y-138704819D01*
X186821428Y-138704819D02*
X186821428Y-137704819D01*
X186821428Y-137704819D02*
X187154761Y-137704819D01*
X187154761Y-137704819D02*
X187249999Y-137752438D01*
X187249999Y-137752438D02*
X187297618Y-137800057D01*
X187297618Y-137800057D02*
X187345237Y-137895295D01*
X187345237Y-137895295D02*
X187345237Y-137990533D01*
X187345237Y-137990533D02*
X187297618Y-138085771D01*
X187297618Y-138085771D02*
X187249999Y-138133390D01*
X187249999Y-138133390D02*
X187154761Y-138181009D01*
X187154761Y-138181009D02*
X186821428Y-138181009D01*
X187964285Y-138704819D02*
X187869047Y-138657200D01*
X187869047Y-138657200D02*
X187821428Y-138609580D01*
X187821428Y-138609580D02*
X187773809Y-138514342D01*
X187773809Y-138514342D02*
X187773809Y-138228628D01*
X187773809Y-138228628D02*
X187821428Y-138133390D01*
X187821428Y-138133390D02*
X187869047Y-138085771D01*
X187869047Y-138085771D02*
X187964285Y-138038152D01*
X187964285Y-138038152D02*
X188107142Y-138038152D01*
X188107142Y-138038152D02*
X188202380Y-138085771D01*
X188202380Y-138085771D02*
X188249999Y-138133390D01*
X188249999Y-138133390D02*
X188297618Y-138228628D01*
X188297618Y-138228628D02*
X188297618Y-138514342D01*
X188297618Y-138514342D02*
X188249999Y-138609580D01*
X188249999Y-138609580D02*
X188202380Y-138657200D01*
X188202380Y-138657200D02*
X188107142Y-138704819D01*
X188107142Y-138704819D02*
X187964285Y-138704819D01*
X188869047Y-138704819D02*
X188773809Y-138657200D01*
X188773809Y-138657200D02*
X188726190Y-138609580D01*
X188726190Y-138609580D02*
X188678571Y-138514342D01*
X188678571Y-138514342D02*
X188678571Y-138228628D01*
X188678571Y-138228628D02*
X188726190Y-138133390D01*
X188726190Y-138133390D02*
X188773809Y-138085771D01*
X188773809Y-138085771D02*
X188869047Y-138038152D01*
X188869047Y-138038152D02*
X189011904Y-138038152D01*
X189011904Y-138038152D02*
X189107142Y-138085771D01*
X189107142Y-138085771D02*
X189154761Y-138133390D01*
X189154761Y-138133390D02*
X189202380Y-138228628D01*
X189202380Y-138228628D02*
X189202380Y-138514342D01*
X189202380Y-138514342D02*
X189154761Y-138609580D01*
X189154761Y-138609580D02*
X189107142Y-138657200D01*
X189107142Y-138657200D02*
X189011904Y-138704819D01*
X189011904Y-138704819D02*
X188869047Y-138704819D01*
X189488095Y-138038152D02*
X189869047Y-138038152D01*
X189630952Y-137704819D02*
X189630952Y-138561961D01*
X189630952Y-138561961D02*
X189678571Y-138657200D01*
X189678571Y-138657200D02*
X189773809Y-138704819D01*
X189773809Y-138704819D02*
X189869047Y-138704819D01*
X190726190Y-138704819D02*
X190154762Y-138704819D01*
X190440476Y-138704819D02*
X190440476Y-137704819D01*
X190440476Y-137704819D02*
X190345238Y-137847676D01*
X190345238Y-137847676D02*
X190250000Y-137942914D01*
X190250000Y-137942914D02*
X190154762Y-137990533D01*
X116666666Y-83809819D02*
X116666666Y-84524104D01*
X116666666Y-84524104D02*
X116619047Y-84666961D01*
X116619047Y-84666961D02*
X116523809Y-84762200D01*
X116523809Y-84762200D02*
X116380952Y-84809819D01*
X116380952Y-84809819D02*
X116285714Y-84809819D01*
X117571428Y-84143152D02*
X117571428Y-84809819D01*
X117333333Y-83762200D02*
X117095238Y-84476485D01*
X117095238Y-84476485D02*
X117714285Y-84476485D01*
X155954819Y-122392857D02*
X155478628Y-122726190D01*
X155954819Y-122964285D02*
X154954819Y-122964285D01*
X154954819Y-122964285D02*
X154954819Y-122583333D01*
X154954819Y-122583333D02*
X155002438Y-122488095D01*
X155002438Y-122488095D02*
X155050057Y-122440476D01*
X155050057Y-122440476D02*
X155145295Y-122392857D01*
X155145295Y-122392857D02*
X155288152Y-122392857D01*
X155288152Y-122392857D02*
X155383390Y-122440476D01*
X155383390Y-122440476D02*
X155431009Y-122488095D01*
X155431009Y-122488095D02*
X155478628Y-122583333D01*
X155478628Y-122583333D02*
X155478628Y-122964285D01*
X155954819Y-121440476D02*
X155954819Y-122011904D01*
X155954819Y-121726190D02*
X154954819Y-121726190D01*
X154954819Y-121726190D02*
X155097676Y-121821428D01*
X155097676Y-121821428D02*
X155192914Y-121916666D01*
X155192914Y-121916666D02*
X155240533Y-122011904D01*
X155954819Y-120488095D02*
X155954819Y-121059523D01*
X155954819Y-120773809D02*
X154954819Y-120773809D01*
X154954819Y-120773809D02*
X155097676Y-120869047D01*
X155097676Y-120869047D02*
X155192914Y-120964285D01*
X155192914Y-120964285D02*
X155240533Y-121059523D01*
X176454819Y-101488094D02*
X175454819Y-101488094D01*
X175454819Y-101488094D02*
X175454819Y-101249999D01*
X175454819Y-101249999D02*
X175502438Y-101107142D01*
X175502438Y-101107142D02*
X175597676Y-101011904D01*
X175597676Y-101011904D02*
X175692914Y-100964285D01*
X175692914Y-100964285D02*
X175883390Y-100916666D01*
X175883390Y-100916666D02*
X176026247Y-100916666D01*
X176026247Y-100916666D02*
X176216723Y-100964285D01*
X176216723Y-100964285D02*
X176311961Y-101011904D01*
X176311961Y-101011904D02*
X176407200Y-101107142D01*
X176407200Y-101107142D02*
X176454819Y-101249999D01*
X176454819Y-101249999D02*
X176454819Y-101488094D01*
X175788152Y-100059523D02*
X176454819Y-100059523D01*
X175407200Y-100297618D02*
X176121485Y-100535713D01*
X176121485Y-100535713D02*
X176121485Y-99916666D01*
X119167319Y-78254166D02*
X118691128Y-78587499D01*
X119167319Y-78825594D02*
X118167319Y-78825594D01*
X118167319Y-78825594D02*
X118167319Y-78444642D01*
X118167319Y-78444642D02*
X118214938Y-78349404D01*
X118214938Y-78349404D02*
X118262557Y-78301785D01*
X118262557Y-78301785D02*
X118357795Y-78254166D01*
X118357795Y-78254166D02*
X118500652Y-78254166D01*
X118500652Y-78254166D02*
X118595890Y-78301785D01*
X118595890Y-78301785D02*
X118643509Y-78349404D01*
X118643509Y-78349404D02*
X118691128Y-78444642D01*
X118691128Y-78444642D02*
X118691128Y-78825594D01*
X118500652Y-77397023D02*
X119167319Y-77397023D01*
X118119700Y-77635118D02*
X118833985Y-77873213D01*
X118833985Y-77873213D02*
X118833985Y-77254166D01*
X139953073Y-110359580D02*
X139905454Y-110407200D01*
X139905454Y-110407200D02*
X139762597Y-110454819D01*
X139762597Y-110454819D02*
X139667359Y-110454819D01*
X139667359Y-110454819D02*
X139524502Y-110407200D01*
X139524502Y-110407200D02*
X139429264Y-110311961D01*
X139429264Y-110311961D02*
X139381645Y-110216723D01*
X139381645Y-110216723D02*
X139334026Y-110026247D01*
X139334026Y-110026247D02*
X139334026Y-109883390D01*
X139334026Y-109883390D02*
X139381645Y-109692914D01*
X139381645Y-109692914D02*
X139429264Y-109597676D01*
X139429264Y-109597676D02*
X139524502Y-109502438D01*
X139524502Y-109502438D02*
X139667359Y-109454819D01*
X139667359Y-109454819D02*
X139762597Y-109454819D01*
X139762597Y-109454819D02*
X139905454Y-109502438D01*
X139905454Y-109502438D02*
X139953073Y-109550057D01*
X140286407Y-109454819D02*
X140905454Y-109454819D01*
X140905454Y-109454819D02*
X140572121Y-109835771D01*
X140572121Y-109835771D02*
X140714978Y-109835771D01*
X140714978Y-109835771D02*
X140810216Y-109883390D01*
X140810216Y-109883390D02*
X140857835Y-109931009D01*
X140857835Y-109931009D02*
X140905454Y-110026247D01*
X140905454Y-110026247D02*
X140905454Y-110264342D01*
X140905454Y-110264342D02*
X140857835Y-110359580D01*
X140857835Y-110359580D02*
X140810216Y-110407200D01*
X140810216Y-110407200D02*
X140714978Y-110454819D01*
X140714978Y-110454819D02*
X140429264Y-110454819D01*
X140429264Y-110454819D02*
X140334026Y-110407200D01*
X140334026Y-110407200D02*
X140286407Y-110359580D01*
X156704819Y-87142857D02*
X156228628Y-87476190D01*
X156704819Y-87714285D02*
X155704819Y-87714285D01*
X155704819Y-87714285D02*
X155704819Y-87333333D01*
X155704819Y-87333333D02*
X155752438Y-87238095D01*
X155752438Y-87238095D02*
X155800057Y-87190476D01*
X155800057Y-87190476D02*
X155895295Y-87142857D01*
X155895295Y-87142857D02*
X156038152Y-87142857D01*
X156038152Y-87142857D02*
X156133390Y-87190476D01*
X156133390Y-87190476D02*
X156181009Y-87238095D01*
X156181009Y-87238095D02*
X156228628Y-87333333D01*
X156228628Y-87333333D02*
X156228628Y-87714285D01*
X155800057Y-86761904D02*
X155752438Y-86714285D01*
X155752438Y-86714285D02*
X155704819Y-86619047D01*
X155704819Y-86619047D02*
X155704819Y-86380952D01*
X155704819Y-86380952D02*
X155752438Y-86285714D01*
X155752438Y-86285714D02*
X155800057Y-86238095D01*
X155800057Y-86238095D02*
X155895295Y-86190476D01*
X155895295Y-86190476D02*
X155990533Y-86190476D01*
X155990533Y-86190476D02*
X156133390Y-86238095D01*
X156133390Y-86238095D02*
X156704819Y-86809523D01*
X156704819Y-86809523D02*
X156704819Y-86190476D01*
X155704819Y-85571428D02*
X155704819Y-85476190D01*
X155704819Y-85476190D02*
X155752438Y-85380952D01*
X155752438Y-85380952D02*
X155800057Y-85333333D01*
X155800057Y-85333333D02*
X155895295Y-85285714D01*
X155895295Y-85285714D02*
X156085771Y-85238095D01*
X156085771Y-85238095D02*
X156323866Y-85238095D01*
X156323866Y-85238095D02*
X156514342Y-85285714D01*
X156514342Y-85285714D02*
X156609580Y-85333333D01*
X156609580Y-85333333D02*
X156657200Y-85380952D01*
X156657200Y-85380952D02*
X156704819Y-85476190D01*
X156704819Y-85476190D02*
X156704819Y-85571428D01*
X156704819Y-85571428D02*
X156657200Y-85666666D01*
X156657200Y-85666666D02*
X156609580Y-85714285D01*
X156609580Y-85714285D02*
X156514342Y-85761904D01*
X156514342Y-85761904D02*
X156323866Y-85809523D01*
X156323866Y-85809523D02*
X156085771Y-85809523D01*
X156085771Y-85809523D02*
X155895295Y-85761904D01*
X155895295Y-85761904D02*
X155800057Y-85714285D01*
X155800057Y-85714285D02*
X155752438Y-85666666D01*
X155752438Y-85666666D02*
X155704819Y-85571428D01*
X164224559Y-104666666D02*
X163748368Y-104999999D01*
X164224559Y-105238094D02*
X163224559Y-105238094D01*
X163224559Y-105238094D02*
X163224559Y-104857142D01*
X163224559Y-104857142D02*
X163272178Y-104761904D01*
X163272178Y-104761904D02*
X163319797Y-104714285D01*
X163319797Y-104714285D02*
X163415035Y-104666666D01*
X163415035Y-104666666D02*
X163557892Y-104666666D01*
X163557892Y-104666666D02*
X163653130Y-104714285D01*
X163653130Y-104714285D02*
X163700749Y-104761904D01*
X163700749Y-104761904D02*
X163748368Y-104857142D01*
X163748368Y-104857142D02*
X163748368Y-105238094D01*
X164224559Y-104190475D02*
X164224559Y-103999999D01*
X164224559Y-103999999D02*
X164176940Y-103904761D01*
X164176940Y-103904761D02*
X164129320Y-103857142D01*
X164129320Y-103857142D02*
X163986463Y-103761904D01*
X163986463Y-103761904D02*
X163795987Y-103714285D01*
X163795987Y-103714285D02*
X163415035Y-103714285D01*
X163415035Y-103714285D02*
X163319797Y-103761904D01*
X163319797Y-103761904D02*
X163272178Y-103809523D01*
X163272178Y-103809523D02*
X163224559Y-103904761D01*
X163224559Y-103904761D02*
X163224559Y-104095237D01*
X163224559Y-104095237D02*
X163272178Y-104190475D01*
X163272178Y-104190475D02*
X163319797Y-104238094D01*
X163319797Y-104238094D02*
X163415035Y-104285713D01*
X163415035Y-104285713D02*
X163653130Y-104285713D01*
X163653130Y-104285713D02*
X163748368Y-104238094D01*
X163748368Y-104238094D02*
X163795987Y-104190475D01*
X163795987Y-104190475D02*
X163843606Y-104095237D01*
X163843606Y-104095237D02*
X163843606Y-103904761D01*
X163843606Y-103904761D02*
X163795987Y-103809523D01*
X163795987Y-103809523D02*
X163748368Y-103761904D01*
X163748368Y-103761904D02*
X163653130Y-103714285D01*
X150542319Y-122642857D02*
X150066128Y-122976190D01*
X150542319Y-123214285D02*
X149542319Y-123214285D01*
X149542319Y-123214285D02*
X149542319Y-122833333D01*
X149542319Y-122833333D02*
X149589938Y-122738095D01*
X149589938Y-122738095D02*
X149637557Y-122690476D01*
X149637557Y-122690476D02*
X149732795Y-122642857D01*
X149732795Y-122642857D02*
X149875652Y-122642857D01*
X149875652Y-122642857D02*
X149970890Y-122690476D01*
X149970890Y-122690476D02*
X150018509Y-122738095D01*
X150018509Y-122738095D02*
X150066128Y-122833333D01*
X150066128Y-122833333D02*
X150066128Y-123214285D01*
X150542319Y-121690476D02*
X150542319Y-122261904D01*
X150542319Y-121976190D02*
X149542319Y-121976190D01*
X149542319Y-121976190D02*
X149685176Y-122071428D01*
X149685176Y-122071428D02*
X149780414Y-122166666D01*
X149780414Y-122166666D02*
X149828033Y-122261904D01*
X149875652Y-120833333D02*
X150542319Y-120833333D01*
X149494700Y-121071428D02*
X150208985Y-121309523D01*
X150208985Y-121309523D02*
X150208985Y-120690476D01*
X197107200Y-77061904D02*
X197154819Y-76919047D01*
X197154819Y-76919047D02*
X197154819Y-76680952D01*
X197154819Y-76680952D02*
X197107200Y-76585714D01*
X197107200Y-76585714D02*
X197059580Y-76538095D01*
X197059580Y-76538095D02*
X196964342Y-76490476D01*
X196964342Y-76490476D02*
X196869104Y-76490476D01*
X196869104Y-76490476D02*
X196773866Y-76538095D01*
X196773866Y-76538095D02*
X196726247Y-76585714D01*
X196726247Y-76585714D02*
X196678628Y-76680952D01*
X196678628Y-76680952D02*
X196631009Y-76871428D01*
X196631009Y-76871428D02*
X196583390Y-76966666D01*
X196583390Y-76966666D02*
X196535771Y-77014285D01*
X196535771Y-77014285D02*
X196440533Y-77061904D01*
X196440533Y-77061904D02*
X196345295Y-77061904D01*
X196345295Y-77061904D02*
X196250057Y-77014285D01*
X196250057Y-77014285D02*
X196202438Y-76966666D01*
X196202438Y-76966666D02*
X196154819Y-76871428D01*
X196154819Y-76871428D02*
X196154819Y-76633333D01*
X196154819Y-76633333D02*
X196202438Y-76490476D01*
X196488152Y-75633333D02*
X197154819Y-75633333D01*
X196107200Y-75871428D02*
X196821485Y-76109523D01*
X196821485Y-76109523D02*
X196821485Y-75490476D01*
X147453073Y-110259580D02*
X147405454Y-110307200D01*
X147405454Y-110307200D02*
X147262597Y-110354819D01*
X147262597Y-110354819D02*
X147167359Y-110354819D01*
X147167359Y-110354819D02*
X147024502Y-110307200D01*
X147024502Y-110307200D02*
X146929264Y-110211961D01*
X146929264Y-110211961D02*
X146881645Y-110116723D01*
X146881645Y-110116723D02*
X146834026Y-109926247D01*
X146834026Y-109926247D02*
X146834026Y-109783390D01*
X146834026Y-109783390D02*
X146881645Y-109592914D01*
X146881645Y-109592914D02*
X146929264Y-109497676D01*
X146929264Y-109497676D02*
X147024502Y-109402438D01*
X147024502Y-109402438D02*
X147167359Y-109354819D01*
X147167359Y-109354819D02*
X147262597Y-109354819D01*
X147262597Y-109354819D02*
X147405454Y-109402438D01*
X147405454Y-109402438D02*
X147453073Y-109450057D01*
X148357835Y-109354819D02*
X147881645Y-109354819D01*
X147881645Y-109354819D02*
X147834026Y-109831009D01*
X147834026Y-109831009D02*
X147881645Y-109783390D01*
X147881645Y-109783390D02*
X147976883Y-109735771D01*
X147976883Y-109735771D02*
X148214978Y-109735771D01*
X148214978Y-109735771D02*
X148310216Y-109783390D01*
X148310216Y-109783390D02*
X148357835Y-109831009D01*
X148357835Y-109831009D02*
X148405454Y-109926247D01*
X148405454Y-109926247D02*
X148405454Y-110164342D01*
X148405454Y-110164342D02*
X148357835Y-110259580D01*
X148357835Y-110259580D02*
X148310216Y-110307200D01*
X148310216Y-110307200D02*
X148214978Y-110354819D01*
X148214978Y-110354819D02*
X147976883Y-110354819D01*
X147976883Y-110354819D02*
X147881645Y-110307200D01*
X147881645Y-110307200D02*
X147834026Y-110259580D01*
X170029501Y-99725057D02*
X169934263Y-99677438D01*
X169934263Y-99677438D02*
X169839025Y-99582200D01*
X169839025Y-99582200D02*
X169696168Y-99439342D01*
X169696168Y-99439342D02*
X169600930Y-99391723D01*
X169600930Y-99391723D02*
X169505692Y-99391723D01*
X169553311Y-99629819D02*
X169458073Y-99582200D01*
X169458073Y-99582200D02*
X169362835Y-99486961D01*
X169362835Y-99486961D02*
X169315216Y-99296485D01*
X169315216Y-99296485D02*
X169315216Y-98963152D01*
X169315216Y-98963152D02*
X169362835Y-98772676D01*
X169362835Y-98772676D02*
X169458073Y-98677438D01*
X169458073Y-98677438D02*
X169553311Y-98629819D01*
X169553311Y-98629819D02*
X169743787Y-98629819D01*
X169743787Y-98629819D02*
X169839025Y-98677438D01*
X169839025Y-98677438D02*
X169934263Y-98772676D01*
X169934263Y-98772676D02*
X169981882Y-98963152D01*
X169981882Y-98963152D02*
X169981882Y-99296485D01*
X169981882Y-99296485D02*
X169934263Y-99486961D01*
X169934263Y-99486961D02*
X169839025Y-99582200D01*
X169839025Y-99582200D02*
X169743787Y-99629819D01*
X169743787Y-99629819D02*
X169553311Y-99629819D01*
X170362835Y-98725057D02*
X170410454Y-98677438D01*
X170410454Y-98677438D02*
X170505692Y-98629819D01*
X170505692Y-98629819D02*
X170743787Y-98629819D01*
X170743787Y-98629819D02*
X170839025Y-98677438D01*
X170839025Y-98677438D02*
X170886644Y-98725057D01*
X170886644Y-98725057D02*
X170934263Y-98820295D01*
X170934263Y-98820295D02*
X170934263Y-98915533D01*
X170934263Y-98915533D02*
X170886644Y-99058390D01*
X170886644Y-99058390D02*
X170315216Y-99629819D01*
X170315216Y-99629819D02*
X170934263Y-99629819D01*
X165976882Y-95804819D02*
X165643549Y-95328628D01*
X165405454Y-95804819D02*
X165405454Y-94804819D01*
X165405454Y-94804819D02*
X165786406Y-94804819D01*
X165786406Y-94804819D02*
X165881644Y-94852438D01*
X165881644Y-94852438D02*
X165929263Y-94900057D01*
X165929263Y-94900057D02*
X165976882Y-94995295D01*
X165976882Y-94995295D02*
X165976882Y-95138152D01*
X165976882Y-95138152D02*
X165929263Y-95233390D01*
X165929263Y-95233390D02*
X165881644Y-95281009D01*
X165881644Y-95281009D02*
X165786406Y-95328628D01*
X165786406Y-95328628D02*
X165405454Y-95328628D01*
X166929263Y-95804819D02*
X166357835Y-95804819D01*
X166643549Y-95804819D02*
X166643549Y-94804819D01*
X166643549Y-94804819D02*
X166548311Y-94947676D01*
X166548311Y-94947676D02*
X166453073Y-95042914D01*
X166453073Y-95042914D02*
X166357835Y-95090533D01*
X167548311Y-94804819D02*
X167643549Y-94804819D01*
X167643549Y-94804819D02*
X167738787Y-94852438D01*
X167738787Y-94852438D02*
X167786406Y-94900057D01*
X167786406Y-94900057D02*
X167834025Y-94995295D01*
X167834025Y-94995295D02*
X167881644Y-95185771D01*
X167881644Y-95185771D02*
X167881644Y-95423866D01*
X167881644Y-95423866D02*
X167834025Y-95614342D01*
X167834025Y-95614342D02*
X167786406Y-95709580D01*
X167786406Y-95709580D02*
X167738787Y-95757200D01*
X167738787Y-95757200D02*
X167643549Y-95804819D01*
X167643549Y-95804819D02*
X167548311Y-95804819D01*
X167548311Y-95804819D02*
X167453073Y-95757200D01*
X167453073Y-95757200D02*
X167405454Y-95709580D01*
X167405454Y-95709580D02*
X167357835Y-95614342D01*
X167357835Y-95614342D02*
X167310216Y-95423866D01*
X167310216Y-95423866D02*
X167310216Y-95185771D01*
X167310216Y-95185771D02*
X167357835Y-94995295D01*
X167357835Y-94995295D02*
X167405454Y-94900057D01*
X167405454Y-94900057D02*
X167453073Y-94852438D01*
X167453073Y-94852438D02*
X167548311Y-94804819D01*
X161535713Y-138704819D02*
X161202380Y-138228628D01*
X160964285Y-138704819D02*
X160964285Y-137704819D01*
X160964285Y-137704819D02*
X161345237Y-137704819D01*
X161345237Y-137704819D02*
X161440475Y-137752438D01*
X161440475Y-137752438D02*
X161488094Y-137800057D01*
X161488094Y-137800057D02*
X161535713Y-137895295D01*
X161535713Y-137895295D02*
X161535713Y-138038152D01*
X161535713Y-138038152D02*
X161488094Y-138133390D01*
X161488094Y-138133390D02*
X161440475Y-138181009D01*
X161440475Y-138181009D02*
X161345237Y-138228628D01*
X161345237Y-138228628D02*
X160964285Y-138228628D01*
X162345237Y-138657200D02*
X162249999Y-138704819D01*
X162249999Y-138704819D02*
X162059523Y-138704819D01*
X162059523Y-138704819D02*
X161964285Y-138657200D01*
X161964285Y-138657200D02*
X161916666Y-138561961D01*
X161916666Y-138561961D02*
X161916666Y-138181009D01*
X161916666Y-138181009D02*
X161964285Y-138085771D01*
X161964285Y-138085771D02*
X162059523Y-138038152D01*
X162059523Y-138038152D02*
X162249999Y-138038152D01*
X162249999Y-138038152D02*
X162345237Y-138085771D01*
X162345237Y-138085771D02*
X162392856Y-138181009D01*
X162392856Y-138181009D02*
X162392856Y-138276247D01*
X162392856Y-138276247D02*
X161916666Y-138371485D01*
X162773809Y-138657200D02*
X162869047Y-138704819D01*
X162869047Y-138704819D02*
X163059523Y-138704819D01*
X163059523Y-138704819D02*
X163154761Y-138657200D01*
X163154761Y-138657200D02*
X163202380Y-138561961D01*
X163202380Y-138561961D02*
X163202380Y-138514342D01*
X163202380Y-138514342D02*
X163154761Y-138419104D01*
X163154761Y-138419104D02*
X163059523Y-138371485D01*
X163059523Y-138371485D02*
X162916666Y-138371485D01*
X162916666Y-138371485D02*
X162821428Y-138323866D01*
X162821428Y-138323866D02*
X162773809Y-138228628D01*
X162773809Y-138228628D02*
X162773809Y-138181009D01*
X162773809Y-138181009D02*
X162821428Y-138085771D01*
X162821428Y-138085771D02*
X162916666Y-138038152D01*
X162916666Y-138038152D02*
X163059523Y-138038152D01*
X163059523Y-138038152D02*
X163154761Y-138085771D01*
X164011904Y-138657200D02*
X163916666Y-138704819D01*
X163916666Y-138704819D02*
X163726190Y-138704819D01*
X163726190Y-138704819D02*
X163630952Y-138657200D01*
X163630952Y-138657200D02*
X163583333Y-138561961D01*
X163583333Y-138561961D02*
X163583333Y-138181009D01*
X163583333Y-138181009D02*
X163630952Y-138085771D01*
X163630952Y-138085771D02*
X163726190Y-138038152D01*
X163726190Y-138038152D02*
X163916666Y-138038152D01*
X163916666Y-138038152D02*
X164011904Y-138085771D01*
X164011904Y-138085771D02*
X164059523Y-138181009D01*
X164059523Y-138181009D02*
X164059523Y-138276247D01*
X164059523Y-138276247D02*
X163583333Y-138371485D01*
X164345238Y-138038152D02*
X164726190Y-138038152D01*
X164488095Y-137704819D02*
X164488095Y-138561961D01*
X164488095Y-138561961D02*
X164535714Y-138657200D01*
X164535714Y-138657200D02*
X164630952Y-138704819D01*
X164630952Y-138704819D02*
X164726190Y-138704819D01*
X165583333Y-138704819D02*
X165011905Y-138704819D01*
X165297619Y-138704819D02*
X165297619Y-137704819D01*
X165297619Y-137704819D02*
X165202381Y-137847676D01*
X165202381Y-137847676D02*
X165107143Y-137942914D01*
X165107143Y-137942914D02*
X165011905Y-137990533D01*
X187833333Y-74104819D02*
X187500000Y-73628628D01*
X187261905Y-74104819D02*
X187261905Y-73104819D01*
X187261905Y-73104819D02*
X187642857Y-73104819D01*
X187642857Y-73104819D02*
X187738095Y-73152438D01*
X187738095Y-73152438D02*
X187785714Y-73200057D01*
X187785714Y-73200057D02*
X187833333Y-73295295D01*
X187833333Y-73295295D02*
X187833333Y-73438152D01*
X187833333Y-73438152D02*
X187785714Y-73533390D01*
X187785714Y-73533390D02*
X187738095Y-73581009D01*
X187738095Y-73581009D02*
X187642857Y-73628628D01*
X187642857Y-73628628D02*
X187261905Y-73628628D01*
X188166667Y-73104819D02*
X188833333Y-73104819D01*
X188833333Y-73104819D02*
X188404762Y-74104819D01*
X130786666Y-134454819D02*
X130786666Y-135169104D01*
X130786666Y-135169104D02*
X130739047Y-135311961D01*
X130739047Y-135311961D02*
X130643809Y-135407200D01*
X130643809Y-135407200D02*
X130500952Y-135454819D01*
X130500952Y-135454819D02*
X130405714Y-135454819D01*
X131167619Y-134454819D02*
X131786666Y-134454819D01*
X131786666Y-134454819D02*
X131453333Y-134835771D01*
X131453333Y-134835771D02*
X131596190Y-134835771D01*
X131596190Y-134835771D02*
X131691428Y-134883390D01*
X131691428Y-134883390D02*
X131739047Y-134931009D01*
X131739047Y-134931009D02*
X131786666Y-135026247D01*
X131786666Y-135026247D02*
X131786666Y-135264342D01*
X131786666Y-135264342D02*
X131739047Y-135359580D01*
X131739047Y-135359580D02*
X131691428Y-135407200D01*
X131691428Y-135407200D02*
X131596190Y-135454819D01*
X131596190Y-135454819D02*
X131310476Y-135454819D01*
X131310476Y-135454819D02*
X131215238Y-135407200D01*
X131215238Y-135407200D02*
X131167619Y-135359580D01*
X107333333Y-59804819D02*
X107000000Y-59328628D01*
X106761905Y-59804819D02*
X106761905Y-58804819D01*
X106761905Y-58804819D02*
X107142857Y-58804819D01*
X107142857Y-58804819D02*
X107238095Y-58852438D01*
X107238095Y-58852438D02*
X107285714Y-58900057D01*
X107285714Y-58900057D02*
X107333333Y-58995295D01*
X107333333Y-58995295D02*
X107333333Y-59138152D01*
X107333333Y-59138152D02*
X107285714Y-59233390D01*
X107285714Y-59233390D02*
X107238095Y-59281009D01*
X107238095Y-59281009D02*
X107142857Y-59328628D01*
X107142857Y-59328628D02*
X106761905Y-59328628D01*
X108285714Y-59804819D02*
X107714286Y-59804819D01*
X108000000Y-59804819D02*
X108000000Y-58804819D01*
X108000000Y-58804819D02*
X107904762Y-58947676D01*
X107904762Y-58947676D02*
X107809524Y-59042914D01*
X107809524Y-59042914D02*
X107714286Y-59090533D01*
X170976882Y-115604819D02*
X170643549Y-115128628D01*
X170405454Y-115604819D02*
X170405454Y-114604819D01*
X170405454Y-114604819D02*
X170786406Y-114604819D01*
X170786406Y-114604819D02*
X170881644Y-114652438D01*
X170881644Y-114652438D02*
X170929263Y-114700057D01*
X170929263Y-114700057D02*
X170976882Y-114795295D01*
X170976882Y-114795295D02*
X170976882Y-114938152D01*
X170976882Y-114938152D02*
X170929263Y-115033390D01*
X170929263Y-115033390D02*
X170881644Y-115081009D01*
X170881644Y-115081009D02*
X170786406Y-115128628D01*
X170786406Y-115128628D02*
X170405454Y-115128628D01*
X171929263Y-115604819D02*
X171357835Y-115604819D01*
X171643549Y-115604819D02*
X171643549Y-114604819D01*
X171643549Y-114604819D02*
X171548311Y-114747676D01*
X171548311Y-114747676D02*
X171453073Y-114842914D01*
X171453073Y-114842914D02*
X171357835Y-114890533D01*
X172500692Y-115033390D02*
X172405454Y-114985771D01*
X172405454Y-114985771D02*
X172357835Y-114938152D01*
X172357835Y-114938152D02*
X172310216Y-114842914D01*
X172310216Y-114842914D02*
X172310216Y-114795295D01*
X172310216Y-114795295D02*
X172357835Y-114700057D01*
X172357835Y-114700057D02*
X172405454Y-114652438D01*
X172405454Y-114652438D02*
X172500692Y-114604819D01*
X172500692Y-114604819D02*
X172691168Y-114604819D01*
X172691168Y-114604819D02*
X172786406Y-114652438D01*
X172786406Y-114652438D02*
X172834025Y-114700057D01*
X172834025Y-114700057D02*
X172881644Y-114795295D01*
X172881644Y-114795295D02*
X172881644Y-114842914D01*
X172881644Y-114842914D02*
X172834025Y-114938152D01*
X172834025Y-114938152D02*
X172786406Y-114985771D01*
X172786406Y-114985771D02*
X172691168Y-115033390D01*
X172691168Y-115033390D02*
X172500692Y-115033390D01*
X172500692Y-115033390D02*
X172405454Y-115081009D01*
X172405454Y-115081009D02*
X172357835Y-115128628D01*
X172357835Y-115128628D02*
X172310216Y-115223866D01*
X172310216Y-115223866D02*
X172310216Y-115414342D01*
X172310216Y-115414342D02*
X172357835Y-115509580D01*
X172357835Y-115509580D02*
X172405454Y-115557200D01*
X172405454Y-115557200D02*
X172500692Y-115604819D01*
X172500692Y-115604819D02*
X172691168Y-115604819D01*
X172691168Y-115604819D02*
X172786406Y-115557200D01*
X172786406Y-115557200D02*
X172834025Y-115509580D01*
X172834025Y-115509580D02*
X172881644Y-115414342D01*
X172881644Y-115414342D02*
X172881644Y-115223866D01*
X172881644Y-115223866D02*
X172834025Y-115128628D01*
X172834025Y-115128628D02*
X172786406Y-115081009D01*
X172786406Y-115081009D02*
X172691168Y-115033390D01*
X150333333Y-80859580D02*
X150285714Y-80907200D01*
X150285714Y-80907200D02*
X150142857Y-80954819D01*
X150142857Y-80954819D02*
X150047619Y-80954819D01*
X150047619Y-80954819D02*
X149904762Y-80907200D01*
X149904762Y-80907200D02*
X149809524Y-80811961D01*
X149809524Y-80811961D02*
X149761905Y-80716723D01*
X149761905Y-80716723D02*
X149714286Y-80526247D01*
X149714286Y-80526247D02*
X149714286Y-80383390D01*
X149714286Y-80383390D02*
X149761905Y-80192914D01*
X149761905Y-80192914D02*
X149809524Y-80097676D01*
X149809524Y-80097676D02*
X149904762Y-80002438D01*
X149904762Y-80002438D02*
X150047619Y-79954819D01*
X150047619Y-79954819D02*
X150142857Y-79954819D01*
X150142857Y-79954819D02*
X150285714Y-80002438D01*
X150285714Y-80002438D02*
X150333333Y-80050057D01*
X150904762Y-80383390D02*
X150809524Y-80335771D01*
X150809524Y-80335771D02*
X150761905Y-80288152D01*
X150761905Y-80288152D02*
X150714286Y-80192914D01*
X150714286Y-80192914D02*
X150714286Y-80145295D01*
X150714286Y-80145295D02*
X150761905Y-80050057D01*
X150761905Y-80050057D02*
X150809524Y-80002438D01*
X150809524Y-80002438D02*
X150904762Y-79954819D01*
X150904762Y-79954819D02*
X151095238Y-79954819D01*
X151095238Y-79954819D02*
X151190476Y-80002438D01*
X151190476Y-80002438D02*
X151238095Y-80050057D01*
X151238095Y-80050057D02*
X151285714Y-80145295D01*
X151285714Y-80145295D02*
X151285714Y-80192914D01*
X151285714Y-80192914D02*
X151238095Y-80288152D01*
X151238095Y-80288152D02*
X151190476Y-80335771D01*
X151190476Y-80335771D02*
X151095238Y-80383390D01*
X151095238Y-80383390D02*
X150904762Y-80383390D01*
X150904762Y-80383390D02*
X150809524Y-80431009D01*
X150809524Y-80431009D02*
X150761905Y-80478628D01*
X150761905Y-80478628D02*
X150714286Y-80573866D01*
X150714286Y-80573866D02*
X150714286Y-80764342D01*
X150714286Y-80764342D02*
X150761905Y-80859580D01*
X150761905Y-80859580D02*
X150809524Y-80907200D01*
X150809524Y-80907200D02*
X150904762Y-80954819D01*
X150904762Y-80954819D02*
X151095238Y-80954819D01*
X151095238Y-80954819D02*
X151190476Y-80907200D01*
X151190476Y-80907200D02*
X151238095Y-80859580D01*
X151238095Y-80859580D02*
X151285714Y-80764342D01*
X151285714Y-80764342D02*
X151285714Y-80573866D01*
X151285714Y-80573866D02*
X151238095Y-80478628D01*
X151238095Y-80478628D02*
X151190476Y-80431009D01*
X151190476Y-80431009D02*
X151095238Y-80383390D01*
X105704819Y-107583333D02*
X106419104Y-107583333D01*
X106419104Y-107583333D02*
X106561961Y-107630952D01*
X106561961Y-107630952D02*
X106657200Y-107726190D01*
X106657200Y-107726190D02*
X106704819Y-107869047D01*
X106704819Y-107869047D02*
X106704819Y-107964285D01*
X105704819Y-106630952D02*
X105704819Y-107107142D01*
X105704819Y-107107142D02*
X106181009Y-107154761D01*
X106181009Y-107154761D02*
X106133390Y-107107142D01*
X106133390Y-107107142D02*
X106085771Y-107011904D01*
X106085771Y-107011904D02*
X106085771Y-106773809D01*
X106085771Y-106773809D02*
X106133390Y-106678571D01*
X106133390Y-106678571D02*
X106181009Y-106630952D01*
X106181009Y-106630952D02*
X106276247Y-106583333D01*
X106276247Y-106583333D02*
X106514342Y-106583333D01*
X106514342Y-106583333D02*
X106609580Y-106630952D01*
X106609580Y-106630952D02*
X106657200Y-106678571D01*
X106657200Y-106678571D02*
X106704819Y-106773809D01*
X106704819Y-106773809D02*
X106704819Y-107011904D01*
X106704819Y-107011904D02*
X106657200Y-107107142D01*
X106657200Y-107107142D02*
X106609580Y-107154761D01*
X171104819Y-85642857D02*
X170628628Y-85976190D01*
X171104819Y-86214285D02*
X170104819Y-86214285D01*
X170104819Y-86214285D02*
X170104819Y-85833333D01*
X170104819Y-85833333D02*
X170152438Y-85738095D01*
X170152438Y-85738095D02*
X170200057Y-85690476D01*
X170200057Y-85690476D02*
X170295295Y-85642857D01*
X170295295Y-85642857D02*
X170438152Y-85642857D01*
X170438152Y-85642857D02*
X170533390Y-85690476D01*
X170533390Y-85690476D02*
X170581009Y-85738095D01*
X170581009Y-85738095D02*
X170628628Y-85833333D01*
X170628628Y-85833333D02*
X170628628Y-86214285D01*
X171104819Y-84690476D02*
X171104819Y-85261904D01*
X171104819Y-84976190D02*
X170104819Y-84976190D01*
X170104819Y-84976190D02*
X170247676Y-85071428D01*
X170247676Y-85071428D02*
X170342914Y-85166666D01*
X170342914Y-85166666D02*
X170390533Y-85261904D01*
X170104819Y-83833333D02*
X170104819Y-84023809D01*
X170104819Y-84023809D02*
X170152438Y-84119047D01*
X170152438Y-84119047D02*
X170200057Y-84166666D01*
X170200057Y-84166666D02*
X170342914Y-84261904D01*
X170342914Y-84261904D02*
X170533390Y-84309523D01*
X170533390Y-84309523D02*
X170914342Y-84309523D01*
X170914342Y-84309523D02*
X171009580Y-84261904D01*
X171009580Y-84261904D02*
X171057200Y-84214285D01*
X171057200Y-84214285D02*
X171104819Y-84119047D01*
X171104819Y-84119047D02*
X171104819Y-83928571D01*
X171104819Y-83928571D02*
X171057200Y-83833333D01*
X171057200Y-83833333D02*
X171009580Y-83785714D01*
X171009580Y-83785714D02*
X170914342Y-83738095D01*
X170914342Y-83738095D02*
X170676247Y-83738095D01*
X170676247Y-83738095D02*
X170581009Y-83785714D01*
X170581009Y-83785714D02*
X170533390Y-83833333D01*
X170533390Y-83833333D02*
X170485771Y-83928571D01*
X170485771Y-83928571D02*
X170485771Y-84119047D01*
X170485771Y-84119047D02*
X170533390Y-84214285D01*
X170533390Y-84214285D02*
X170581009Y-84261904D01*
X170581009Y-84261904D02*
X170676247Y-84309523D01*
X174604819Y-81642857D02*
X174128628Y-81976190D01*
X174604819Y-82214285D02*
X173604819Y-82214285D01*
X173604819Y-82214285D02*
X173604819Y-81833333D01*
X173604819Y-81833333D02*
X173652438Y-81738095D01*
X173652438Y-81738095D02*
X173700057Y-81690476D01*
X173700057Y-81690476D02*
X173795295Y-81642857D01*
X173795295Y-81642857D02*
X173938152Y-81642857D01*
X173938152Y-81642857D02*
X174033390Y-81690476D01*
X174033390Y-81690476D02*
X174081009Y-81738095D01*
X174081009Y-81738095D02*
X174128628Y-81833333D01*
X174128628Y-81833333D02*
X174128628Y-82214285D01*
X174604819Y-80690476D02*
X174604819Y-81261904D01*
X174604819Y-80976190D02*
X173604819Y-80976190D01*
X173604819Y-80976190D02*
X173747676Y-81071428D01*
X173747676Y-81071428D02*
X173842914Y-81166666D01*
X173842914Y-81166666D02*
X173890533Y-81261904D01*
X173604819Y-80357142D02*
X173604819Y-79690476D01*
X173604819Y-79690476D02*
X174604819Y-80119047D01*
X142383333Y-125559580D02*
X142335714Y-125607200D01*
X142335714Y-125607200D02*
X142192857Y-125654819D01*
X142192857Y-125654819D02*
X142097619Y-125654819D01*
X142097619Y-125654819D02*
X141954762Y-125607200D01*
X141954762Y-125607200D02*
X141859524Y-125511961D01*
X141859524Y-125511961D02*
X141811905Y-125416723D01*
X141811905Y-125416723D02*
X141764286Y-125226247D01*
X141764286Y-125226247D02*
X141764286Y-125083390D01*
X141764286Y-125083390D02*
X141811905Y-124892914D01*
X141811905Y-124892914D02*
X141859524Y-124797676D01*
X141859524Y-124797676D02*
X141954762Y-124702438D01*
X141954762Y-124702438D02*
X142097619Y-124654819D01*
X142097619Y-124654819D02*
X142192857Y-124654819D01*
X142192857Y-124654819D02*
X142335714Y-124702438D01*
X142335714Y-124702438D02*
X142383333Y-124750057D01*
X143335714Y-125654819D02*
X142764286Y-125654819D01*
X143050000Y-125654819D02*
X143050000Y-124654819D01*
X143050000Y-124654819D02*
X142954762Y-124797676D01*
X142954762Y-124797676D02*
X142859524Y-124892914D01*
X142859524Y-124892914D02*
X142764286Y-124940533D01*
D11*
X159883549Y-123643878D02*
X159883549Y-123323878D01*
X159883549Y-123323878D02*
X159959739Y-123323878D01*
X159959739Y-123323878D02*
X160005454Y-123339116D01*
X160005454Y-123339116D02*
X160035930Y-123369592D01*
X160035930Y-123369592D02*
X160051168Y-123400068D01*
X160051168Y-123400068D02*
X160066406Y-123461020D01*
X160066406Y-123461020D02*
X160066406Y-123506735D01*
X160066406Y-123506735D02*
X160051168Y-123567687D01*
X160051168Y-123567687D02*
X160035930Y-123598163D01*
X160035930Y-123598163D02*
X160005454Y-123628640D01*
X160005454Y-123628640D02*
X159959739Y-123643878D01*
X159959739Y-123643878D02*
X159883549Y-123643878D01*
X160355930Y-123323878D02*
X160203549Y-123323878D01*
X160203549Y-123323878D02*
X160188311Y-123476259D01*
X160188311Y-123476259D02*
X160203549Y-123461020D01*
X160203549Y-123461020D02*
X160234025Y-123445782D01*
X160234025Y-123445782D02*
X160310216Y-123445782D01*
X160310216Y-123445782D02*
X160340692Y-123461020D01*
X160340692Y-123461020D02*
X160355930Y-123476259D01*
X160355930Y-123476259D02*
X160371168Y-123506735D01*
X160371168Y-123506735D02*
X160371168Y-123582925D01*
X160371168Y-123582925D02*
X160355930Y-123613401D01*
X160355930Y-123613401D02*
X160340692Y-123628640D01*
X160340692Y-123628640D02*
X160310216Y-123643878D01*
X160310216Y-123643878D02*
X160234025Y-123643878D01*
X160234025Y-123643878D02*
X160203549Y-123628640D01*
X160203549Y-123628640D02*
X160188311Y-123613401D01*
D10*
X152844819Y-73621904D02*
X153654342Y-73621904D01*
X153654342Y-73621904D02*
X153749580Y-73574285D01*
X153749580Y-73574285D02*
X153797200Y-73526666D01*
X153797200Y-73526666D02*
X153844819Y-73431428D01*
X153844819Y-73431428D02*
X153844819Y-73240952D01*
X153844819Y-73240952D02*
X153797200Y-73145714D01*
X153797200Y-73145714D02*
X153749580Y-73098095D01*
X153749580Y-73098095D02*
X153654342Y-73050476D01*
X153654342Y-73050476D02*
X152844819Y-73050476D01*
X152844819Y-72098095D02*
X152844819Y-72574285D01*
X152844819Y-72574285D02*
X153321009Y-72621904D01*
X153321009Y-72621904D02*
X153273390Y-72574285D01*
X153273390Y-72574285D02*
X153225771Y-72479047D01*
X153225771Y-72479047D02*
X153225771Y-72240952D01*
X153225771Y-72240952D02*
X153273390Y-72145714D01*
X153273390Y-72145714D02*
X153321009Y-72098095D01*
X153321009Y-72098095D02*
X153416247Y-72050476D01*
X153416247Y-72050476D02*
X153654342Y-72050476D01*
X153654342Y-72050476D02*
X153749580Y-72098095D01*
X153749580Y-72098095D02*
X153797200Y-72145714D01*
X153797200Y-72145714D02*
X153844819Y-72240952D01*
X153844819Y-72240952D02*
X153844819Y-72479047D01*
X153844819Y-72479047D02*
X153797200Y-72574285D01*
X153797200Y-72574285D02*
X153749580Y-72621904D01*
X152976882Y-105604819D02*
X152643549Y-105128628D01*
X152405454Y-105604819D02*
X152405454Y-104604819D01*
X152405454Y-104604819D02*
X152786406Y-104604819D01*
X152786406Y-104604819D02*
X152881644Y-104652438D01*
X152881644Y-104652438D02*
X152929263Y-104700057D01*
X152929263Y-104700057D02*
X152976882Y-104795295D01*
X152976882Y-104795295D02*
X152976882Y-104938152D01*
X152976882Y-104938152D02*
X152929263Y-105033390D01*
X152929263Y-105033390D02*
X152881644Y-105081009D01*
X152881644Y-105081009D02*
X152786406Y-105128628D01*
X152786406Y-105128628D02*
X152405454Y-105128628D01*
X153929263Y-105604819D02*
X153357835Y-105604819D01*
X153643549Y-105604819D02*
X153643549Y-104604819D01*
X153643549Y-104604819D02*
X153548311Y-104747676D01*
X153548311Y-104747676D02*
X153453073Y-104842914D01*
X153453073Y-104842914D02*
X153357835Y-104890533D01*
X154310216Y-104700057D02*
X154357835Y-104652438D01*
X154357835Y-104652438D02*
X154453073Y-104604819D01*
X154453073Y-104604819D02*
X154691168Y-104604819D01*
X154691168Y-104604819D02*
X154786406Y-104652438D01*
X154786406Y-104652438D02*
X154834025Y-104700057D01*
X154834025Y-104700057D02*
X154881644Y-104795295D01*
X154881644Y-104795295D02*
X154881644Y-104890533D01*
X154881644Y-104890533D02*
X154834025Y-105033390D01*
X154834025Y-105033390D02*
X154262597Y-105604819D01*
X154262597Y-105604819D02*
X154881644Y-105604819D01*
X112517319Y-62916666D02*
X112041128Y-63249999D01*
X112517319Y-63488094D02*
X111517319Y-63488094D01*
X111517319Y-63488094D02*
X111517319Y-63107142D01*
X111517319Y-63107142D02*
X111564938Y-63011904D01*
X111564938Y-63011904D02*
X111612557Y-62964285D01*
X111612557Y-62964285D02*
X111707795Y-62916666D01*
X111707795Y-62916666D02*
X111850652Y-62916666D01*
X111850652Y-62916666D02*
X111945890Y-62964285D01*
X111945890Y-62964285D02*
X111993509Y-63011904D01*
X111993509Y-63011904D02*
X112041128Y-63107142D01*
X112041128Y-63107142D02*
X112041128Y-63488094D01*
X111612557Y-62535713D02*
X111564938Y-62488094D01*
X111564938Y-62488094D02*
X111517319Y-62392856D01*
X111517319Y-62392856D02*
X111517319Y-62154761D01*
X111517319Y-62154761D02*
X111564938Y-62059523D01*
X111564938Y-62059523D02*
X111612557Y-62011904D01*
X111612557Y-62011904D02*
X111707795Y-61964285D01*
X111707795Y-61964285D02*
X111803033Y-61964285D01*
X111803033Y-61964285D02*
X111945890Y-62011904D01*
X111945890Y-62011904D02*
X112517319Y-62583332D01*
X112517319Y-62583332D02*
X112517319Y-61964285D01*
X141777618Y-86538276D02*
X141777618Y-85898276D01*
X141777618Y-85898276D02*
X141929999Y-85898276D01*
X141929999Y-85898276D02*
X142021428Y-85928752D01*
X142021428Y-85928752D02*
X142082380Y-85989704D01*
X142082380Y-85989704D02*
X142112857Y-86050657D01*
X142112857Y-86050657D02*
X142143333Y-86172561D01*
X142143333Y-86172561D02*
X142143333Y-86263990D01*
X142143333Y-86263990D02*
X142112857Y-86385895D01*
X142112857Y-86385895D02*
X142082380Y-86446847D01*
X142082380Y-86446847D02*
X142021428Y-86507800D01*
X142021428Y-86507800D02*
X141929999Y-86538276D01*
X141929999Y-86538276D02*
X141777618Y-86538276D01*
X142752857Y-86538276D02*
X142387142Y-86538276D01*
X142569999Y-86538276D02*
X142569999Y-85898276D01*
X142569999Y-85898276D02*
X142509047Y-85989704D01*
X142509047Y-85989704D02*
X142448095Y-86050657D01*
X142448095Y-86050657D02*
X142387142Y-86081133D01*
D11*
X174393878Y-139986190D02*
X174073878Y-139986190D01*
X174073878Y-139986190D02*
X174073878Y-139910000D01*
X174073878Y-139910000D02*
X174089116Y-139864285D01*
X174089116Y-139864285D02*
X174119592Y-139833809D01*
X174119592Y-139833809D02*
X174150068Y-139818571D01*
X174150068Y-139818571D02*
X174211020Y-139803333D01*
X174211020Y-139803333D02*
X174256735Y-139803333D01*
X174256735Y-139803333D02*
X174317687Y-139818571D01*
X174317687Y-139818571D02*
X174348163Y-139833809D01*
X174348163Y-139833809D02*
X174378640Y-139864285D01*
X174378640Y-139864285D02*
X174393878Y-139910000D01*
X174393878Y-139910000D02*
X174393878Y-139986190D01*
X174104354Y-139681428D02*
X174089116Y-139666190D01*
X174089116Y-139666190D02*
X174073878Y-139635714D01*
X174073878Y-139635714D02*
X174073878Y-139559523D01*
X174073878Y-139559523D02*
X174089116Y-139529047D01*
X174089116Y-139529047D02*
X174104354Y-139513809D01*
X174104354Y-139513809D02*
X174134830Y-139498571D01*
X174134830Y-139498571D02*
X174165306Y-139498571D01*
X174165306Y-139498571D02*
X174211020Y-139513809D01*
X174211020Y-139513809D02*
X174393878Y-139696666D01*
X174393878Y-139696666D02*
X174393878Y-139498571D01*
X140043549Y-111643878D02*
X140043549Y-111323878D01*
X140043549Y-111323878D02*
X140119739Y-111323878D01*
X140119739Y-111323878D02*
X140165454Y-111339116D01*
X140165454Y-111339116D02*
X140195930Y-111369592D01*
X140195930Y-111369592D02*
X140211168Y-111400068D01*
X140211168Y-111400068D02*
X140226406Y-111461020D01*
X140226406Y-111461020D02*
X140226406Y-111506735D01*
X140226406Y-111506735D02*
X140211168Y-111567687D01*
X140211168Y-111567687D02*
X140195930Y-111598163D01*
X140195930Y-111598163D02*
X140165454Y-111628640D01*
X140165454Y-111628640D02*
X140119739Y-111643878D01*
X140119739Y-111643878D02*
X140043549Y-111643878D01*
X140333073Y-111323878D02*
X140531168Y-111323878D01*
X140531168Y-111323878D02*
X140424501Y-111445782D01*
X140424501Y-111445782D02*
X140470216Y-111445782D01*
X140470216Y-111445782D02*
X140500692Y-111461020D01*
X140500692Y-111461020D02*
X140515930Y-111476259D01*
X140515930Y-111476259D02*
X140531168Y-111506735D01*
X140531168Y-111506735D02*
X140531168Y-111582925D01*
X140531168Y-111582925D02*
X140515930Y-111613401D01*
X140515930Y-111613401D02*
X140500692Y-111628640D01*
X140500692Y-111628640D02*
X140470216Y-111643878D01*
X140470216Y-111643878D02*
X140378787Y-111643878D01*
X140378787Y-111643878D02*
X140348311Y-111628640D01*
X140348311Y-111628640D02*
X140333073Y-111613401D01*
D10*
X110333333Y-75304819D02*
X110000000Y-74828628D01*
X109761905Y-75304819D02*
X109761905Y-74304819D01*
X109761905Y-74304819D02*
X110142857Y-74304819D01*
X110142857Y-74304819D02*
X110238095Y-74352438D01*
X110238095Y-74352438D02*
X110285714Y-74400057D01*
X110285714Y-74400057D02*
X110333333Y-74495295D01*
X110333333Y-74495295D02*
X110333333Y-74638152D01*
X110333333Y-74638152D02*
X110285714Y-74733390D01*
X110285714Y-74733390D02*
X110238095Y-74781009D01*
X110238095Y-74781009D02*
X110142857Y-74828628D01*
X110142857Y-74828628D02*
X109761905Y-74828628D01*
X110666667Y-74304819D02*
X111285714Y-74304819D01*
X111285714Y-74304819D02*
X110952381Y-74685771D01*
X110952381Y-74685771D02*
X111095238Y-74685771D01*
X111095238Y-74685771D02*
X111190476Y-74733390D01*
X111190476Y-74733390D02*
X111238095Y-74781009D01*
X111238095Y-74781009D02*
X111285714Y-74876247D01*
X111285714Y-74876247D02*
X111285714Y-75114342D01*
X111285714Y-75114342D02*
X111238095Y-75209580D01*
X111238095Y-75209580D02*
X111190476Y-75257200D01*
X111190476Y-75257200D02*
X111095238Y-75304819D01*
X111095238Y-75304819D02*
X110809524Y-75304819D01*
X110809524Y-75304819D02*
X110714286Y-75257200D01*
X110714286Y-75257200D02*
X110666667Y-75209580D01*
X111238095Y-58907200D02*
X111380952Y-58954819D01*
X111380952Y-58954819D02*
X111619047Y-58954819D01*
X111619047Y-58954819D02*
X111714285Y-58907200D01*
X111714285Y-58907200D02*
X111761904Y-58859580D01*
X111761904Y-58859580D02*
X111809523Y-58764342D01*
X111809523Y-58764342D02*
X111809523Y-58669104D01*
X111809523Y-58669104D02*
X111761904Y-58573866D01*
X111761904Y-58573866D02*
X111714285Y-58526247D01*
X111714285Y-58526247D02*
X111619047Y-58478628D01*
X111619047Y-58478628D02*
X111428571Y-58431009D01*
X111428571Y-58431009D02*
X111333333Y-58383390D01*
X111333333Y-58383390D02*
X111285714Y-58335771D01*
X111285714Y-58335771D02*
X111238095Y-58240533D01*
X111238095Y-58240533D02*
X111238095Y-58145295D01*
X111238095Y-58145295D02*
X111285714Y-58050057D01*
X111285714Y-58050057D02*
X111333333Y-58002438D01*
X111333333Y-58002438D02*
X111428571Y-57954819D01*
X111428571Y-57954819D02*
X111666666Y-57954819D01*
X111666666Y-57954819D02*
X111809523Y-58002438D01*
X112761904Y-58954819D02*
X112190476Y-58954819D01*
X112476190Y-58954819D02*
X112476190Y-57954819D01*
X112476190Y-57954819D02*
X112380952Y-58097676D01*
X112380952Y-58097676D02*
X112285714Y-58192914D01*
X112285714Y-58192914D02*
X112190476Y-58240533D01*
X143333333Y-80859580D02*
X143285714Y-80907200D01*
X143285714Y-80907200D02*
X143142857Y-80954819D01*
X143142857Y-80954819D02*
X143047619Y-80954819D01*
X143047619Y-80954819D02*
X142904762Y-80907200D01*
X142904762Y-80907200D02*
X142809524Y-80811961D01*
X142809524Y-80811961D02*
X142761905Y-80716723D01*
X142761905Y-80716723D02*
X142714286Y-80526247D01*
X142714286Y-80526247D02*
X142714286Y-80383390D01*
X142714286Y-80383390D02*
X142761905Y-80192914D01*
X142761905Y-80192914D02*
X142809524Y-80097676D01*
X142809524Y-80097676D02*
X142904762Y-80002438D01*
X142904762Y-80002438D02*
X143047619Y-79954819D01*
X143047619Y-79954819D02*
X143142857Y-79954819D01*
X143142857Y-79954819D02*
X143285714Y-80002438D01*
X143285714Y-80002438D02*
X143333333Y-80050057D01*
X143809524Y-80954819D02*
X144000000Y-80954819D01*
X144000000Y-80954819D02*
X144095238Y-80907200D01*
X144095238Y-80907200D02*
X144142857Y-80859580D01*
X144142857Y-80859580D02*
X144238095Y-80716723D01*
X144238095Y-80716723D02*
X144285714Y-80526247D01*
X144285714Y-80526247D02*
X144285714Y-80145295D01*
X144285714Y-80145295D02*
X144238095Y-80050057D01*
X144238095Y-80050057D02*
X144190476Y-80002438D01*
X144190476Y-80002438D02*
X144095238Y-79954819D01*
X144095238Y-79954819D02*
X143904762Y-79954819D01*
X143904762Y-79954819D02*
X143809524Y-80002438D01*
X143809524Y-80002438D02*
X143761905Y-80050057D01*
X143761905Y-80050057D02*
X143714286Y-80145295D01*
X143714286Y-80145295D02*
X143714286Y-80383390D01*
X143714286Y-80383390D02*
X143761905Y-80478628D01*
X143761905Y-80478628D02*
X143809524Y-80526247D01*
X143809524Y-80526247D02*
X143904762Y-80573866D01*
X143904762Y-80573866D02*
X144095238Y-80573866D01*
X144095238Y-80573866D02*
X144190476Y-80526247D01*
X144190476Y-80526247D02*
X144238095Y-80478628D01*
X144238095Y-80478628D02*
X144285714Y-80383390D01*
X183583333Y-92454819D02*
X183250000Y-91978628D01*
X183011905Y-92454819D02*
X183011905Y-91454819D01*
X183011905Y-91454819D02*
X183392857Y-91454819D01*
X183392857Y-91454819D02*
X183488095Y-91502438D01*
X183488095Y-91502438D02*
X183535714Y-91550057D01*
X183535714Y-91550057D02*
X183583333Y-91645295D01*
X183583333Y-91645295D02*
X183583333Y-91788152D01*
X183583333Y-91788152D02*
X183535714Y-91883390D01*
X183535714Y-91883390D02*
X183488095Y-91931009D01*
X183488095Y-91931009D02*
X183392857Y-91978628D01*
X183392857Y-91978628D02*
X183011905Y-91978628D01*
X184440476Y-91454819D02*
X184250000Y-91454819D01*
X184250000Y-91454819D02*
X184154762Y-91502438D01*
X184154762Y-91502438D02*
X184107143Y-91550057D01*
X184107143Y-91550057D02*
X184011905Y-91692914D01*
X184011905Y-91692914D02*
X183964286Y-91883390D01*
X183964286Y-91883390D02*
X183964286Y-92264342D01*
X183964286Y-92264342D02*
X184011905Y-92359580D01*
X184011905Y-92359580D02*
X184059524Y-92407200D01*
X184059524Y-92407200D02*
X184154762Y-92454819D01*
X184154762Y-92454819D02*
X184345238Y-92454819D01*
X184345238Y-92454819D02*
X184440476Y-92407200D01*
X184440476Y-92407200D02*
X184488095Y-92359580D01*
X184488095Y-92359580D02*
X184535714Y-92264342D01*
X184535714Y-92264342D02*
X184535714Y-92026247D01*
X184535714Y-92026247D02*
X184488095Y-91931009D01*
X184488095Y-91931009D02*
X184440476Y-91883390D01*
X184440476Y-91883390D02*
X184345238Y-91835771D01*
X184345238Y-91835771D02*
X184154762Y-91835771D01*
X184154762Y-91835771D02*
X184059524Y-91883390D01*
X184059524Y-91883390D02*
X184011905Y-91931009D01*
X184011905Y-91931009D02*
X183964286Y-92026247D01*
X152737835Y-108154819D02*
X152737835Y-108964342D01*
X152737835Y-108964342D02*
X152785454Y-109059580D01*
X152785454Y-109059580D02*
X152833073Y-109107200D01*
X152833073Y-109107200D02*
X152928311Y-109154819D01*
X152928311Y-109154819D02*
X153118787Y-109154819D01*
X153118787Y-109154819D02*
X153214025Y-109107200D01*
X153214025Y-109107200D02*
X153261644Y-109059580D01*
X153261644Y-109059580D02*
X153309263Y-108964342D01*
X153309263Y-108964342D02*
X153309263Y-108154819D01*
X153737835Y-108250057D02*
X153785454Y-108202438D01*
X153785454Y-108202438D02*
X153880692Y-108154819D01*
X153880692Y-108154819D02*
X154118787Y-108154819D01*
X154118787Y-108154819D02*
X154214025Y-108202438D01*
X154214025Y-108202438D02*
X154261644Y-108250057D01*
X154261644Y-108250057D02*
X154309263Y-108345295D01*
X154309263Y-108345295D02*
X154309263Y-108440533D01*
X154309263Y-108440533D02*
X154261644Y-108583390D01*
X154261644Y-108583390D02*
X153690216Y-109154819D01*
X153690216Y-109154819D02*
X154309263Y-109154819D01*
X144204819Y-117892857D02*
X143728628Y-118226190D01*
X144204819Y-118464285D02*
X143204819Y-118464285D01*
X143204819Y-118464285D02*
X143204819Y-118083333D01*
X143204819Y-118083333D02*
X143252438Y-117988095D01*
X143252438Y-117988095D02*
X143300057Y-117940476D01*
X143300057Y-117940476D02*
X143395295Y-117892857D01*
X143395295Y-117892857D02*
X143538152Y-117892857D01*
X143538152Y-117892857D02*
X143633390Y-117940476D01*
X143633390Y-117940476D02*
X143681009Y-117988095D01*
X143681009Y-117988095D02*
X143728628Y-118083333D01*
X143728628Y-118083333D02*
X143728628Y-118464285D01*
X144204819Y-116940476D02*
X144204819Y-117511904D01*
X144204819Y-117226190D02*
X143204819Y-117226190D01*
X143204819Y-117226190D02*
X143347676Y-117321428D01*
X143347676Y-117321428D02*
X143442914Y-117416666D01*
X143442914Y-117416666D02*
X143490533Y-117511904D01*
X143204819Y-116607142D02*
X143204819Y-115988095D01*
X143204819Y-115988095D02*
X143585771Y-116321428D01*
X143585771Y-116321428D02*
X143585771Y-116178571D01*
X143585771Y-116178571D02*
X143633390Y-116083333D01*
X143633390Y-116083333D02*
X143681009Y-116035714D01*
X143681009Y-116035714D02*
X143776247Y-115988095D01*
X143776247Y-115988095D02*
X144014342Y-115988095D01*
X144014342Y-115988095D02*
X144109580Y-116035714D01*
X144109580Y-116035714D02*
X144157200Y-116083333D01*
X144157200Y-116083333D02*
X144204819Y-116178571D01*
X144204819Y-116178571D02*
X144204819Y-116464285D01*
X144204819Y-116464285D02*
X144157200Y-116559523D01*
X144157200Y-116559523D02*
X144109580Y-116607142D01*
X109857142Y-97204819D02*
X109523809Y-96728628D01*
X109285714Y-97204819D02*
X109285714Y-96204819D01*
X109285714Y-96204819D02*
X109666666Y-96204819D01*
X109666666Y-96204819D02*
X109761904Y-96252438D01*
X109761904Y-96252438D02*
X109809523Y-96300057D01*
X109809523Y-96300057D02*
X109857142Y-96395295D01*
X109857142Y-96395295D02*
X109857142Y-96538152D01*
X109857142Y-96538152D02*
X109809523Y-96633390D01*
X109809523Y-96633390D02*
X109761904Y-96681009D01*
X109761904Y-96681009D02*
X109666666Y-96728628D01*
X109666666Y-96728628D02*
X109285714Y-96728628D01*
X110809523Y-97204819D02*
X110238095Y-97204819D01*
X110523809Y-97204819D02*
X110523809Y-96204819D01*
X110523809Y-96204819D02*
X110428571Y-96347676D01*
X110428571Y-96347676D02*
X110333333Y-96442914D01*
X110333333Y-96442914D02*
X110238095Y-96490533D01*
X111285714Y-97204819D02*
X111476190Y-97204819D01*
X111476190Y-97204819D02*
X111571428Y-97157200D01*
X111571428Y-97157200D02*
X111619047Y-97109580D01*
X111619047Y-97109580D02*
X111714285Y-96966723D01*
X111714285Y-96966723D02*
X111761904Y-96776247D01*
X111761904Y-96776247D02*
X111761904Y-96395295D01*
X111761904Y-96395295D02*
X111714285Y-96300057D01*
X111714285Y-96300057D02*
X111666666Y-96252438D01*
X111666666Y-96252438D02*
X111571428Y-96204819D01*
X111571428Y-96204819D02*
X111380952Y-96204819D01*
X111380952Y-96204819D02*
X111285714Y-96252438D01*
X111285714Y-96252438D02*
X111238095Y-96300057D01*
X111238095Y-96300057D02*
X111190476Y-96395295D01*
X111190476Y-96395295D02*
X111190476Y-96633390D01*
X111190476Y-96633390D02*
X111238095Y-96728628D01*
X111238095Y-96728628D02*
X111285714Y-96776247D01*
X111285714Y-96776247D02*
X111380952Y-96823866D01*
X111380952Y-96823866D02*
X111571428Y-96823866D01*
X111571428Y-96823866D02*
X111666666Y-96776247D01*
X111666666Y-96776247D02*
X111714285Y-96728628D01*
X111714285Y-96728628D02*
X111761904Y-96633390D01*
X197307200Y-95261904D02*
X197354819Y-95119047D01*
X197354819Y-95119047D02*
X197354819Y-94880952D01*
X197354819Y-94880952D02*
X197307200Y-94785714D01*
X197307200Y-94785714D02*
X197259580Y-94738095D01*
X197259580Y-94738095D02*
X197164342Y-94690476D01*
X197164342Y-94690476D02*
X197069104Y-94690476D01*
X197069104Y-94690476D02*
X196973866Y-94738095D01*
X196973866Y-94738095D02*
X196926247Y-94785714D01*
X196926247Y-94785714D02*
X196878628Y-94880952D01*
X196878628Y-94880952D02*
X196831009Y-95071428D01*
X196831009Y-95071428D02*
X196783390Y-95166666D01*
X196783390Y-95166666D02*
X196735771Y-95214285D01*
X196735771Y-95214285D02*
X196640533Y-95261904D01*
X196640533Y-95261904D02*
X196545295Y-95261904D01*
X196545295Y-95261904D02*
X196450057Y-95214285D01*
X196450057Y-95214285D02*
X196402438Y-95166666D01*
X196402438Y-95166666D02*
X196354819Y-95071428D01*
X196354819Y-95071428D02*
X196354819Y-94833333D01*
X196354819Y-94833333D02*
X196402438Y-94690476D01*
X196354819Y-94357142D02*
X196354819Y-93738095D01*
X196354819Y-93738095D02*
X196735771Y-94071428D01*
X196735771Y-94071428D02*
X196735771Y-93928571D01*
X196735771Y-93928571D02*
X196783390Y-93833333D01*
X196783390Y-93833333D02*
X196831009Y-93785714D01*
X196831009Y-93785714D02*
X196926247Y-93738095D01*
X196926247Y-93738095D02*
X197164342Y-93738095D01*
X197164342Y-93738095D02*
X197259580Y-93785714D01*
X197259580Y-93785714D02*
X197307200Y-93833333D01*
X197307200Y-93833333D02*
X197354819Y-93928571D01*
X197354819Y-93928571D02*
X197354819Y-94214285D01*
X197354819Y-94214285D02*
X197307200Y-94309523D01*
X197307200Y-94309523D02*
X197259580Y-94357142D01*
X148833333Y-85179580D02*
X148785714Y-85227200D01*
X148785714Y-85227200D02*
X148642857Y-85274819D01*
X148642857Y-85274819D02*
X148547619Y-85274819D01*
X148547619Y-85274819D02*
X148404762Y-85227200D01*
X148404762Y-85227200D02*
X148309524Y-85131961D01*
X148309524Y-85131961D02*
X148261905Y-85036723D01*
X148261905Y-85036723D02*
X148214286Y-84846247D01*
X148214286Y-84846247D02*
X148214286Y-84703390D01*
X148214286Y-84703390D02*
X148261905Y-84512914D01*
X148261905Y-84512914D02*
X148309524Y-84417676D01*
X148309524Y-84417676D02*
X148404762Y-84322438D01*
X148404762Y-84322438D02*
X148547619Y-84274819D01*
X148547619Y-84274819D02*
X148642857Y-84274819D01*
X148642857Y-84274819D02*
X148785714Y-84322438D01*
X148785714Y-84322438D02*
X148833333Y-84370057D01*
X149690476Y-84608152D02*
X149690476Y-85274819D01*
X149452381Y-84227200D02*
X149214286Y-84941485D01*
X149214286Y-84941485D02*
X149833333Y-84941485D01*
X186933333Y-86354819D02*
X186600000Y-85878628D01*
X186361905Y-86354819D02*
X186361905Y-85354819D01*
X186361905Y-85354819D02*
X186742857Y-85354819D01*
X186742857Y-85354819D02*
X186838095Y-85402438D01*
X186838095Y-85402438D02*
X186885714Y-85450057D01*
X186885714Y-85450057D02*
X186933333Y-85545295D01*
X186933333Y-85545295D02*
X186933333Y-85688152D01*
X186933333Y-85688152D02*
X186885714Y-85783390D01*
X186885714Y-85783390D02*
X186838095Y-85831009D01*
X186838095Y-85831009D02*
X186742857Y-85878628D01*
X186742857Y-85878628D02*
X186361905Y-85878628D01*
X187838095Y-85354819D02*
X187361905Y-85354819D01*
X187361905Y-85354819D02*
X187314286Y-85831009D01*
X187314286Y-85831009D02*
X187361905Y-85783390D01*
X187361905Y-85783390D02*
X187457143Y-85735771D01*
X187457143Y-85735771D02*
X187695238Y-85735771D01*
X187695238Y-85735771D02*
X187790476Y-85783390D01*
X187790476Y-85783390D02*
X187838095Y-85831009D01*
X187838095Y-85831009D02*
X187885714Y-85926247D01*
X187885714Y-85926247D02*
X187885714Y-86164342D01*
X187885714Y-86164342D02*
X187838095Y-86259580D01*
X187838095Y-86259580D02*
X187790476Y-86307200D01*
X187790476Y-86307200D02*
X187695238Y-86354819D01*
X187695238Y-86354819D02*
X187457143Y-86354819D01*
X187457143Y-86354819D02*
X187361905Y-86307200D01*
X187361905Y-86307200D02*
X187314286Y-86259580D01*
D12*
X98690000Y-65890000D02*
X107110000Y-65890000D01*
X98690000Y-78610000D02*
X98690000Y-65890000D01*
X99910000Y-65890000D02*
X99910000Y-67110000D01*
X99910000Y-67110000D02*
X104910000Y-67110000D01*
X99910000Y-77390000D02*
X104910000Y-77390000D01*
X99910000Y-78610000D02*
X99910000Y-77390000D01*
X100410000Y-68500000D02*
X100490000Y-68180000D01*
X100410000Y-71000000D02*
X100490000Y-70680000D01*
X100410000Y-73500000D02*
X100490000Y-73180000D01*
X100410000Y-76000000D02*
X100490000Y-75680000D01*
X100490000Y-68180000D02*
X103910000Y-68180000D01*
X100490000Y-68820000D02*
X100410000Y-68500000D01*
X100490000Y-70680000D02*
X103910000Y-70680000D01*
X100490000Y-71320000D02*
X100410000Y-71000000D01*
X100490000Y-73180000D02*
X103910000Y-73180000D01*
X100490000Y-73820000D02*
X100410000Y-73500000D01*
X100490000Y-75680000D02*
X103910000Y-75680000D01*
X100490000Y-76320000D02*
X100410000Y-76000000D01*
X103910000Y-68180000D02*
X103910000Y-68500000D01*
X103910000Y-68500000D02*
X103910000Y-68820000D01*
X103910000Y-68820000D02*
X100490000Y-68820000D01*
X103910000Y-70680000D02*
X103910000Y-71000000D01*
X103910000Y-71000000D02*
X103910000Y-71320000D01*
X103910000Y-71320000D02*
X100490000Y-71320000D01*
X103910000Y-73180000D02*
X103910000Y-73500000D01*
X103910000Y-73500000D02*
X103910000Y-73820000D01*
X103910000Y-73820000D02*
X100490000Y-73820000D01*
X103910000Y-75680000D02*
X103910000Y-76000000D01*
X103910000Y-76000000D02*
X103910000Y-76320000D01*
X103910000Y-76320000D02*
X100490000Y-76320000D01*
X103910000Y-77390000D02*
X103910000Y-67110000D01*
X104910000Y-67110000D02*
X104910000Y-65890000D01*
X104910000Y-69830000D02*
X104910000Y-69670000D01*
X104910000Y-72330000D02*
X104910000Y-72170000D01*
X104910000Y-74830000D02*
X104910000Y-74670000D01*
X104910000Y-77390000D02*
X104910000Y-78610000D01*
X104910000Y-77390000D02*
X107110000Y-77390000D01*
X107000000Y-76000000D02*
X107600000Y-76300000D01*
X107110000Y-65890000D02*
X107110000Y-67110000D01*
X107110000Y-67110000D02*
X104910000Y-67110000D01*
X107110000Y-77390000D02*
X107110000Y-78610000D01*
X107110000Y-78610000D02*
X98690000Y-78610000D01*
X107600000Y-75700000D02*
X107000000Y-76000000D01*
X107600000Y-76300000D02*
X107600000Y-75700000D01*
X175640000Y-141040000D02*
X175640000Y-144960000D01*
X175640000Y-144960000D02*
X177910000Y-144960000D01*
X177910000Y-144130000D02*
X177910000Y-144960000D01*
X177910000Y-144130000D02*
X178740000Y-144130000D01*
X177950000Y-141040000D02*
X175640000Y-141040000D01*
X178250000Y-141000000D02*
X178850000Y-141000000D01*
X178250000Y-141750000D02*
X178250000Y-141000000D01*
X181950000Y-141040000D02*
X184260000Y-141040000D01*
X181990000Y-144130000D02*
X181160000Y-144130000D01*
X181990000Y-144130000D02*
X181990000Y-144960000D01*
X184260000Y-141040000D02*
X184260000Y-144960000D01*
X184260000Y-144960000D02*
X181990000Y-144960000D01*
X107227064Y-90470000D02*
X106772936Y-90470000D01*
X107227064Y-91940000D02*
X106772936Y-91940000D01*
X186865000Y-77360436D02*
X186865000Y-77814564D01*
X188335000Y-77360436D02*
X188335000Y-77814564D01*
X146050000Y-100550000D02*
X147450000Y-100550000D01*
X146050000Y-101950000D02*
X146050000Y-100550000D01*
X147450000Y-100550000D02*
X147450000Y-101950000D01*
X147450000Y-101950000D02*
X146050000Y-101950000D01*
X117340000Y-48522500D02*
X135060000Y-48522500D01*
X117340000Y-49742500D02*
X118560000Y-49742500D01*
X117340000Y-56942500D02*
X117340000Y-48522500D01*
X118560000Y-49742500D02*
X118560000Y-54742500D01*
X118560000Y-53742500D02*
X133840000Y-53742500D01*
X118560000Y-54742500D02*
X117340000Y-54742500D01*
X118560000Y-54742500D02*
X118560000Y-56942500D01*
X118560000Y-56942500D02*
X117340000Y-56942500D01*
X119630000Y-50322500D02*
X119950000Y-50242500D01*
X119630000Y-53742500D02*
X119630000Y-50322500D01*
X119650000Y-57432500D02*
X120250000Y-57432500D01*
X119950000Y-50242500D02*
X120270000Y-50322500D01*
X119950000Y-53742500D02*
X119630000Y-53742500D01*
X119950000Y-56832500D02*
X119650000Y-57432500D01*
X120250000Y-57432500D02*
X119950000Y-56832500D01*
X120270000Y-50322500D02*
X120270000Y-53742500D01*
X120270000Y-53742500D02*
X119950000Y-53742500D01*
X121120000Y-54742500D02*
X121280000Y-54742500D01*
X122130000Y-50322500D02*
X122450000Y-50242500D01*
X122130000Y-53742500D02*
X122130000Y-50322500D01*
X122450000Y-50242500D02*
X122770000Y-50322500D01*
X122450000Y-53742500D02*
X122130000Y-53742500D01*
X122770000Y-50322500D02*
X122770000Y-53742500D01*
X122770000Y-53742500D02*
X122450000Y-53742500D01*
X123620000Y-54742500D02*
X123780000Y-54742500D01*
X124630000Y-50322500D02*
X124950000Y-50242500D01*
X124630000Y-53742500D02*
X124630000Y-50322500D01*
X124950000Y-50242500D02*
X125270000Y-50322500D01*
X124950000Y-53742500D02*
X124630000Y-53742500D01*
X125270000Y-50322500D02*
X125270000Y-53742500D01*
X125270000Y-53742500D02*
X124950000Y-53742500D01*
X126120000Y-54742500D02*
X126280000Y-54742500D01*
X127130000Y-50322500D02*
X127450000Y-50242500D01*
X127130000Y-53742500D02*
X127130000Y-50322500D01*
X127450000Y-50242500D02*
X127770000Y-50322500D01*
X127450000Y-53742500D02*
X127130000Y-53742500D01*
X127770000Y-50322500D02*
X127770000Y-53742500D01*
X127770000Y-53742500D02*
X127450000Y-53742500D01*
X128620000Y-54742500D02*
X128780000Y-54742500D01*
X129630000Y-50322500D02*
X129950000Y-50242500D01*
X129630000Y-53742500D02*
X129630000Y-50322500D01*
X129950000Y-50242500D02*
X130270000Y-50322500D01*
X129950000Y-53742500D02*
X129630000Y-53742500D01*
X130270000Y-50322500D02*
X130270000Y-53742500D01*
X130270000Y-53742500D02*
X129950000Y-53742500D01*
X131120000Y-54742500D02*
X131280000Y-54742500D01*
X132130000Y-50322500D02*
X132450000Y-50242500D01*
X132130000Y-53742500D02*
X132130000Y-50322500D01*
X132450000Y-50242500D02*
X132770000Y-50322500D01*
X132450000Y-53742500D02*
X132130000Y-53742500D01*
X132770000Y-50322500D02*
X132770000Y-53742500D01*
X132770000Y-53742500D02*
X132450000Y-53742500D01*
X133840000Y-49742500D02*
X133840000Y-54742500D01*
X133840000Y-54742500D02*
X135060000Y-54742500D01*
X133840000Y-56942500D02*
X133840000Y-54742500D01*
X135060000Y-48522500D02*
X135060000Y-56942500D01*
X135060000Y-49742500D02*
X133840000Y-49742500D01*
X135060000Y-56942500D02*
X133840000Y-56942500D01*
D13*
X165219740Y-108150000D02*
X165219740Y-107210000D01*
X165219740Y-108150000D02*
X166049740Y-108150000D01*
X167289740Y-108150000D02*
X168119740Y-108150000D01*
X168119740Y-107210000D02*
X168119740Y-108150000D01*
D14*
X169019740Y-106490000D02*
G75*
G02*
X168819740Y-106490000I-100000J0D01*
G01*
X168819740Y-106490000D02*
G75*
G02*
X169019740Y-106490000I100000J0D01*
G01*
D12*
X172738748Y-119765000D02*
X173261252Y-119765000D01*
X172738748Y-121235000D02*
X173261252Y-121235000D01*
X165884740Y-114288748D02*
X165884740Y-114811252D01*
X167354740Y-114288748D02*
X167354740Y-114811252D01*
X187550000Y-139250000D02*
X187550000Y-140450000D01*
X187550000Y-142050000D02*
X187550000Y-143250000D01*
X187550000Y-143250000D02*
X193950000Y-143250000D01*
X193950000Y-139250000D02*
X187550000Y-139250000D01*
X193950000Y-140450000D02*
X193950000Y-139250000D01*
X193950000Y-143250000D02*
X193950000Y-142050000D01*
X115670000Y-88395000D02*
X115670000Y-106235000D01*
X115670000Y-88395000D02*
X118330000Y-88395000D01*
X115670000Y-106235000D02*
X118330000Y-106235000D01*
X117000000Y-85795000D02*
X118330000Y-85795000D01*
X118330000Y-85795000D02*
X118330000Y-87125000D01*
X118330000Y-88395000D02*
X118330000Y-106235000D01*
X153015000Y-121772936D02*
X153015000Y-122227064D01*
X154485000Y-121772936D02*
X154485000Y-122227064D01*
X173290000Y-99565000D02*
X173290000Y-102250000D01*
X175210000Y-99565000D02*
X173290000Y-99565000D01*
X175210000Y-102250000D02*
X175210000Y-99565000D01*
X116327500Y-77860436D02*
X116327500Y-78314564D01*
X117797500Y-77860436D02*
X117797500Y-78314564D01*
X142408488Y-107265000D02*
X142930992Y-107265000D01*
X142408488Y-108735000D02*
X142930992Y-108735000D01*
X153522936Y-86015000D02*
X153977064Y-86015000D01*
X153522936Y-87485000D02*
X153977064Y-87485000D01*
X161384740Y-104272936D02*
X161384740Y-104727064D01*
X162854740Y-104272936D02*
X162854740Y-104727064D01*
X147360436Y-121265000D02*
X147814564Y-121265000D01*
X147360436Y-122735000D02*
X147814564Y-122735000D01*
X193867500Y-80200000D02*
X193867500Y-80800000D01*
X193867500Y-80800000D02*
X194467500Y-80500000D01*
X194357500Y-77890000D02*
X202777500Y-77890000D01*
X194357500Y-79110000D02*
X194357500Y-77890000D01*
X194357500Y-89390000D02*
X196557500Y-89390000D01*
X194357500Y-90610000D02*
X194357500Y-89390000D01*
X194467500Y-80500000D02*
X193867500Y-80200000D01*
X196557500Y-79110000D02*
X194357500Y-79110000D01*
X196557500Y-79110000D02*
X196557500Y-77890000D01*
X196557500Y-81670000D02*
X196557500Y-81830000D01*
X196557500Y-84170000D02*
X196557500Y-84330000D01*
X196557500Y-86670000D02*
X196557500Y-86830000D01*
X196557500Y-89390000D02*
X196557500Y-90610000D01*
X197557500Y-79110000D02*
X197557500Y-89390000D01*
X197557500Y-80180000D02*
X200977500Y-80180000D01*
X197557500Y-80500000D02*
X197557500Y-80180000D01*
X197557500Y-80820000D02*
X197557500Y-80500000D01*
X197557500Y-82680000D02*
X200977500Y-82680000D01*
X197557500Y-83000000D02*
X197557500Y-82680000D01*
X197557500Y-83320000D02*
X197557500Y-83000000D01*
X197557500Y-85180000D02*
X200977500Y-85180000D01*
X197557500Y-85500000D02*
X197557500Y-85180000D01*
X197557500Y-85820000D02*
X197557500Y-85500000D01*
X197557500Y-87680000D02*
X200977500Y-87680000D01*
X197557500Y-88000000D02*
X197557500Y-87680000D01*
X197557500Y-88320000D02*
X197557500Y-88000000D01*
X200977500Y-80180000D02*
X201057500Y-80500000D01*
X200977500Y-80820000D02*
X197557500Y-80820000D01*
X200977500Y-82680000D02*
X201057500Y-83000000D01*
X200977500Y-83320000D02*
X197557500Y-83320000D01*
X200977500Y-85180000D02*
X201057500Y-85500000D01*
X200977500Y-85820000D02*
X197557500Y-85820000D01*
X200977500Y-87680000D02*
X201057500Y-88000000D01*
X200977500Y-88320000D02*
X197557500Y-88320000D01*
X201057500Y-80500000D02*
X200977500Y-80820000D01*
X201057500Y-83000000D02*
X200977500Y-83320000D01*
X201057500Y-85500000D02*
X200977500Y-85820000D01*
X201057500Y-88000000D02*
X200977500Y-88320000D01*
X201557500Y-77890000D02*
X201557500Y-79110000D01*
X201557500Y-79110000D02*
X196557500Y-79110000D01*
X201557500Y-89390000D02*
X196557500Y-89390000D01*
X201557500Y-90610000D02*
X201557500Y-89390000D01*
X202777500Y-77890000D02*
X202777500Y-90610000D01*
X202777500Y-90610000D02*
X194357500Y-90610000D01*
X146808488Y-107265000D02*
X147330992Y-107265000D01*
X146808488Y-108735000D02*
X147330992Y-108735000D01*
D13*
X168319740Y-101060000D02*
X169259740Y-101060000D01*
X169259740Y-101890000D02*
X169259740Y-101060000D01*
X169259740Y-103960000D02*
X168319740Y-103960000D01*
X169259740Y-103960000D02*
X169259740Y-103130000D01*
D14*
X167699740Y-100260000D02*
G75*
G02*
X167499740Y-100260000I-100000J0D01*
G01*
X167499740Y-100260000D02*
G75*
G02*
X167699740Y-100260000I100000J0D01*
G01*
D12*
X166392676Y-96265000D02*
X166846804Y-96265000D01*
X166392676Y-97735000D02*
X166846804Y-97735000D01*
X161300000Y-139250000D02*
X161300000Y-140450000D01*
X161300000Y-142050000D02*
X161300000Y-143250000D01*
X161300000Y-143250000D02*
X167700000Y-143250000D01*
X167700000Y-139250000D02*
X161300000Y-139250000D01*
X167700000Y-140450000D02*
X167700000Y-139250000D01*
X167700000Y-143250000D02*
X167700000Y-142050000D01*
X187727064Y-71265000D02*
X187272936Y-71265000D01*
X187727064Y-72735000D02*
X187272936Y-72735000D01*
X103310000Y-137190000D02*
X103310000Y-146610000D01*
X103310000Y-137190000D02*
X104970000Y-137190000D01*
X103310000Y-143300000D02*
X154450000Y-143300000D01*
X103310000Y-146610000D02*
X154450000Y-146610000D01*
X105720000Y-135900000D02*
X106320000Y-135900000D01*
X106020000Y-136500000D02*
X105720000Y-135900000D01*
X106320000Y-135900000D02*
X106020000Y-136500000D01*
X107070000Y-137190000D02*
X108780000Y-137190000D01*
X110880000Y-137190000D02*
X112590000Y-137190000D01*
X114690000Y-137190000D02*
X116400000Y-137190000D01*
X118500000Y-137190000D02*
X120210000Y-137190000D01*
X122310000Y-137190000D02*
X124020000Y-137190000D01*
X126120000Y-137190000D02*
X127830000Y-137190000D01*
X129930000Y-137190000D02*
X131640000Y-137190000D01*
X133740000Y-137190000D02*
X135450000Y-137190000D01*
X137550000Y-137190000D02*
X139260000Y-137190000D01*
X141360000Y-137190000D02*
X143070000Y-137190000D01*
X145170000Y-137190000D02*
X146880000Y-137190000D01*
X148980000Y-137190000D02*
X150690000Y-137190000D01*
X154450000Y-137190000D02*
X152790000Y-137190000D01*
X154450000Y-146610000D02*
X154450000Y-137190000D01*
X105272936Y-60265000D02*
X105727064Y-60265000D01*
X105272936Y-61735000D02*
X105727064Y-61735000D01*
D15*
G36*
X190419177Y-62211699D02*
G01*
X190464709Y-62216391D01*
X190471971Y-62217550D01*
X190572235Y-62240711D01*
X190666773Y-62274764D01*
X190754995Y-62319203D01*
X190836310Y-62373520D01*
X190910128Y-62437208D01*
X190975856Y-62509759D01*
X191032906Y-62590667D01*
X191080686Y-62679424D01*
X191117347Y-62771733D01*
X191132244Y-62822726D01*
X191142690Y-62874450D01*
X191149010Y-62929750D01*
X191151531Y-62991475D01*
X191150594Y-63061991D01*
X191148062Y-63115243D01*
X191143973Y-63159661D01*
X191137679Y-63198884D01*
X191128529Y-63236548D01*
X191115874Y-63276290D01*
X191108787Y-63296027D01*
X191074098Y-63378125D01*
X191033017Y-63452093D01*
X190983589Y-63520981D01*
X190923859Y-63587841D01*
X190917844Y-63593930D01*
X190841838Y-63662093D01*
X190760987Y-63718732D01*
X190675303Y-63763843D01*
X190584792Y-63797422D01*
X190489464Y-63819464D01*
X190445853Y-63825522D01*
X190401001Y-63830100D01*
X190363741Y-63832603D01*
X190329627Y-63833022D01*
X190294215Y-63831346D01*
X190253059Y-63827563D01*
X190229969Y-63824997D01*
X190142105Y-63808810D01*
X190055162Y-63781084D01*
X189970676Y-63742767D01*
X189890185Y-63694810D01*
X189815225Y-63638159D01*
X189747335Y-63573765D01*
X189688051Y-63502576D01*
X189672950Y-63481181D01*
X189621715Y-63396045D01*
X189582464Y-63308839D01*
X189554849Y-63218419D01*
X189538521Y-63123640D01*
X189533128Y-63023357D01*
X189533128Y-63022965D01*
X189536357Y-62938340D01*
X189546578Y-62860937D01*
X189564591Y-62787115D01*
X189591197Y-62713234D01*
X189611089Y-62668481D01*
X189659023Y-62581215D01*
X189716437Y-62501925D01*
X189782921Y-62430939D01*
X189858067Y-62368579D01*
X189941467Y-62315171D01*
X190032713Y-62271038D01*
X190131396Y-62236507D01*
X190166384Y-62227057D01*
X190207573Y-62219205D01*
X190257263Y-62213624D01*
X190311638Y-62210434D01*
X190366881Y-62209752D01*
X190419177Y-62211699D01*
G37*
G36*
X195570444Y-62211699D02*
G01*
X195615976Y-62216391D01*
X195623239Y-62217550D01*
X195723503Y-62240711D01*
X195818041Y-62274764D01*
X195906263Y-62319203D01*
X195987578Y-62373520D01*
X196061395Y-62437208D01*
X196127124Y-62509759D01*
X196184174Y-62590667D01*
X196231953Y-62679424D01*
X196268615Y-62771733D01*
X196283512Y-62822726D01*
X196293958Y-62874450D01*
X196300278Y-62929750D01*
X196302798Y-62991475D01*
X196301862Y-63061991D01*
X196299329Y-63115243D01*
X196295241Y-63159661D01*
X196288946Y-63198884D01*
X196279797Y-63236548D01*
X196267142Y-63276290D01*
X196260054Y-63296027D01*
X196225366Y-63378125D01*
X196184285Y-63452093D01*
X196134857Y-63520981D01*
X196075126Y-63587841D01*
X196069112Y-63593930D01*
X195993105Y-63662093D01*
X195912255Y-63718732D01*
X195826570Y-63763843D01*
X195736059Y-63797422D01*
X195640731Y-63819464D01*
X195597121Y-63825522D01*
X195552268Y-63830100D01*
X195515008Y-63832603D01*
X195480895Y-63833022D01*
X195445482Y-63831346D01*
X195404327Y-63827563D01*
X195381237Y-63824997D01*
X195293373Y-63808810D01*
X195206429Y-63781084D01*
X195121943Y-63742767D01*
X195041452Y-63694810D01*
X194966493Y-63638159D01*
X194898603Y-63573765D01*
X194839319Y-63502576D01*
X194824217Y-63481181D01*
X194772982Y-63396045D01*
X194733732Y-63308839D01*
X194706117Y-63218419D01*
X194689788Y-63123640D01*
X194684396Y-63023357D01*
X194684396Y-63022965D01*
X194687625Y-62938340D01*
X194697845Y-62860937D01*
X194715858Y-62787115D01*
X194742464Y-62713234D01*
X194762356Y-62668481D01*
X194810291Y-62581215D01*
X194867704Y-62501925D01*
X194934188Y-62430939D01*
X195009334Y-62368579D01*
X195092734Y-62315171D01*
X195183980Y-62271038D01*
X195282664Y-62236507D01*
X195317651Y-62227057D01*
X195358841Y-62219205D01*
X195408531Y-62213624D01*
X195462905Y-62210434D01*
X195518148Y-62209752D01*
X195570444Y-62211699D01*
G37*
G36*
X194217357Y-56449645D02*
G01*
X194235055Y-56455183D01*
X194247783Y-56459983D01*
X194254831Y-56459955D01*
X194261802Y-56460601D01*
X194273897Y-56466861D01*
X194274103Y-56466995D01*
X194287065Y-56473310D01*
X194295791Y-56473831D01*
X194304211Y-56474798D01*
X194316595Y-56482065D01*
X194317109Y-56482465D01*
X194328743Y-56489975D01*
X194335763Y-56491519D01*
X194335939Y-56491374D01*
X194342517Y-56492524D01*
X194357211Y-56498127D01*
X194377088Y-56506789D01*
X194399211Y-56517119D01*
X194420645Y-56527722D01*
X194438455Y-56537207D01*
X194449706Y-56544179D01*
X194452047Y-56546468D01*
X194459231Y-56550801D01*
X194464003Y-56551351D01*
X194474376Y-56554505D01*
X194490005Y-56562457D01*
X194507304Y-56572944D01*
X194522686Y-56583702D01*
X194532564Y-56592465D01*
X194534359Y-56595764D01*
X194539610Y-56600289D01*
X194547082Y-56601364D01*
X194566172Y-56606737D01*
X194589627Y-56622229D01*
X194612664Y-56643434D01*
X194626905Y-56655858D01*
X194639423Y-56663111D01*
X194643012Y-56663879D01*
X194651909Y-56668113D01*
X194666686Y-56679421D01*
X194684723Y-56695709D01*
X194692393Y-56703282D01*
X194711266Y-56721608D01*
X194728079Y-56736518D01*
X194740088Y-56745630D01*
X194742816Y-56747074D01*
X194753942Y-56756402D01*
X194757611Y-56763935D01*
X194763801Y-56774077D01*
X194769301Y-56776407D01*
X194778361Y-56781383D01*
X194785193Y-56790473D01*
X194795775Y-56804992D01*
X194804167Y-56812708D01*
X194813335Y-56821770D01*
X194815678Y-56827315D01*
X194819874Y-56834484D01*
X194830975Y-56847598D01*
X194846754Y-56864064D01*
X194850062Y-56867323D01*
X194866547Y-56884607D01*
X194878718Y-56899634D01*
X194884311Y-56909559D01*
X194884445Y-56910542D01*
X194889329Y-56919004D01*
X194893822Y-56920192D01*
X194901387Y-56925589D01*
X194903200Y-56935152D01*
X194906728Y-56948132D01*
X194912671Y-56953746D01*
X194921906Y-56961964D01*
X194928145Y-56973170D01*
X194934681Y-56984836D01*
X194940554Y-56988959D01*
X194945867Y-56994158D01*
X194946961Y-57000697D01*
X194951501Y-57014509D01*
X194956338Y-57020217D01*
X194963690Y-57032236D01*
X194965715Y-57043526D01*
X194970961Y-57059630D01*
X194981344Y-57071346D01*
X194992409Y-57083468D01*
X194996973Y-57095209D01*
X195000826Y-57107374D01*
X195010323Y-57122521D01*
X195012602Y-57125353D01*
X195022875Y-57140648D01*
X195028074Y-57154430D01*
X195028231Y-57156375D01*
X195032925Y-57176125D01*
X195046553Y-57202261D01*
X195050060Y-57207763D01*
X195055360Y-57219781D01*
X195061890Y-57239845D01*
X195068516Y-57263724D01*
X195074108Y-57287185D01*
X195077531Y-57305996D01*
X195078078Y-57312476D01*
X195080334Y-57323462D01*
X195083881Y-57326542D01*
X195087508Y-57332206D01*
X195091259Y-57346931D01*
X195093872Y-57364051D01*
X195097016Y-57383809D01*
X195100806Y-57397399D01*
X195103863Y-57401560D01*
X195108094Y-57406917D01*
X195109501Y-57417274D01*
X195112638Y-57434901D01*
X195117256Y-57445406D01*
X195121811Y-57458612D01*
X195117704Y-57469525D01*
X195113558Y-57481003D01*
X195117763Y-57488597D01*
X195120281Y-57497270D01*
X195122319Y-57516416D01*
X195123880Y-57544015D01*
X195124973Y-57578048D01*
X195125602Y-57616493D01*
X195125775Y-57657330D01*
X195125497Y-57698539D01*
X195124774Y-57738101D01*
X195123614Y-57773993D01*
X195122020Y-57804198D01*
X195120001Y-57826693D01*
X195117562Y-57839460D01*
X195116690Y-57841165D01*
X195110893Y-57854216D01*
X195108264Y-57872113D01*
X195108250Y-57873400D01*
X195106973Y-57888913D01*
X195103843Y-57898047D01*
X195103278Y-57898540D01*
X195100442Y-57905796D01*
X195097331Y-57922333D01*
X195094510Y-57944957D01*
X195093875Y-57951661D01*
X195091334Y-57974872D01*
X195088493Y-57992365D01*
X195085862Y-58001191D01*
X195085209Y-58001708D01*
X195082197Y-58004815D01*
X195077973Y-58015155D01*
X195072024Y-58034255D01*
X195063835Y-58063644D01*
X195061576Y-58072038D01*
X195056351Y-58081306D01*
X195052815Y-58082978D01*
X195048178Y-58088286D01*
X195046764Y-58097044D01*
X195043473Y-58113168D01*
X195037608Y-58126739D01*
X195030774Y-58143266D01*
X195028452Y-58155913D01*
X195026383Y-58167606D01*
X195023542Y-58171542D01*
X195018354Y-58177919D01*
X195010145Y-58192000D01*
X195004419Y-58203179D01*
X194995294Y-58220518D01*
X194987656Y-58232716D01*
X194984689Y-58236005D01*
X194981632Y-58243938D01*
X194982416Y-58250844D01*
X194980773Y-58264170D01*
X194975350Y-58272499D01*
X194966235Y-58284966D01*
X194957024Y-58302404D01*
X194955817Y-58305191D01*
X194945047Y-58324473D01*
X194930156Y-58344008D01*
X194926349Y-58348084D01*
X194912261Y-58365196D01*
X194897155Y-58387805D01*
X194888124Y-58403788D01*
X194876133Y-58424185D01*
X194863634Y-58440896D01*
X194855303Y-58448780D01*
X194844502Y-58458885D01*
X194840684Y-58467592D01*
X194836137Y-58475798D01*
X194832311Y-58476825D01*
X194823802Y-58481936D01*
X194816816Y-58492454D01*
X194808427Y-58504009D01*
X194800183Y-58508083D01*
X194792248Y-58513223D01*
X194790672Y-58519496D01*
X194785768Y-58532123D01*
X194773757Y-58546076D01*
X194758687Y-58557039D01*
X194753163Y-58559468D01*
X194740082Y-58559988D01*
X194729952Y-58557561D01*
X194715401Y-58548057D01*
X194708131Y-58539628D01*
X194700290Y-58529751D01*
X194695577Y-58526837D01*
X194689198Y-58522706D01*
X194676852Y-58511872D01*
X194661207Y-58496676D01*
X194661135Y-58496603D01*
X194644290Y-58480567D01*
X194629461Y-58468200D01*
X194620318Y-58462416D01*
X194611092Y-58456090D01*
X194609377Y-58452015D01*
X194604567Y-58445830D01*
X194602679Y-58445567D01*
X194593266Y-58441469D01*
X194583169Y-58432586D01*
X194578136Y-58424037D01*
X194578120Y-58423687D01*
X194573758Y-58415770D01*
X194564451Y-58406677D01*
X194555862Y-58401847D01*
X194555322Y-58401807D01*
X194548119Y-58397557D01*
X194537715Y-58387334D01*
X194537684Y-58387298D01*
X194523201Y-58373937D01*
X194505525Y-58361452D01*
X194504664Y-58360944D01*
X194491451Y-58351667D01*
X194484609Y-58343791D01*
X194484347Y-58342595D01*
X194479208Y-58335860D01*
X194466725Y-58328304D01*
X194465592Y-58327790D01*
X194452709Y-58320024D01*
X194446868Y-58312428D01*
X194446837Y-58311983D01*
X194441902Y-58304216D01*
X194429712Y-58294588D01*
X194426520Y-58292634D01*
X194409957Y-58281500D01*
X194396900Y-58270285D01*
X194396092Y-58269406D01*
X194385875Y-58260563D01*
X194379629Y-58258021D01*
X194373174Y-58252793D01*
X194369886Y-58245054D01*
X194361531Y-58232960D01*
X194353528Y-58228696D01*
X194342973Y-58220556D01*
X194339935Y-58205752D01*
X194344162Y-58187416D01*
X194355400Y-58168679D01*
X194358698Y-58164909D01*
X194371287Y-58152870D01*
X194381011Y-58146062D01*
X194383027Y-58145494D01*
X194388997Y-58140188D01*
X194393141Y-58129865D01*
X194399010Y-58118135D01*
X194405644Y-58114236D01*
X194413703Y-58108951D01*
X194417866Y-58100170D01*
X194424392Y-58086050D01*
X194435584Y-58069969D01*
X194437299Y-58067940D01*
X194447598Y-58053997D01*
X194452898Y-58042729D01*
X194453089Y-58041175D01*
X194458130Y-58031621D01*
X194462466Y-58028975D01*
X194469972Y-58020550D01*
X194471844Y-58011595D01*
X194476000Y-57996635D01*
X194483582Y-57985215D01*
X194494273Y-57970427D01*
X194499632Y-57959030D01*
X194505243Y-57948368D01*
X194509774Y-57945444D01*
X194513628Y-57939947D01*
X194515554Y-57926431D01*
X194515604Y-57923564D01*
X194517175Y-57909102D01*
X194521035Y-57901873D01*
X194521856Y-57901684D01*
X194526534Y-57896328D01*
X194528107Y-57885859D01*
X194531418Y-57872545D01*
X194537485Y-57866435D01*
X194544566Y-57857493D01*
X194546862Y-57841625D01*
X194548075Y-57827425D01*
X194551046Y-57820536D01*
X194551551Y-57820414D01*
X194555557Y-57815092D01*
X194557140Y-57806348D01*
X194559911Y-57765694D01*
X194562400Y-57735739D01*
X194564819Y-57714688D01*
X194567381Y-57700744D01*
X194570298Y-57692114D01*
X194570769Y-57691185D01*
X194574243Y-57677152D01*
X194575365Y-57656003D01*
X194574250Y-57632878D01*
X194571015Y-57612920D01*
X194568847Y-57606219D01*
X194568706Y-57591990D01*
X194572330Y-57585425D01*
X194576822Y-57575542D01*
X194573786Y-57571438D01*
X194569240Y-57563284D01*
X194564811Y-57546958D01*
X194562662Y-57534413D01*
X194559152Y-57515308D01*
X194554988Y-57501836D01*
X194552528Y-57498097D01*
X194548419Y-57489916D01*
X194546862Y-57476579D01*
X194544991Y-57462348D01*
X194540899Y-57454877D01*
X194537046Y-57447118D01*
X194533187Y-57430802D01*
X194530775Y-57414407D01*
X194527160Y-57391802D01*
X194522151Y-57379316D01*
X194515704Y-57374769D01*
X194506505Y-57366361D01*
X194500406Y-57348520D01*
X194495694Y-57330187D01*
X194487801Y-57315648D01*
X194473802Y-57300084D01*
X194467155Y-57293724D01*
X194457149Y-57282069D01*
X194453089Y-57272945D01*
X194448068Y-57264311D01*
X194443712Y-57261766D01*
X194435399Y-57253660D01*
X194434334Y-57249039D01*
X194430298Y-57239408D01*
X194420041Y-57225249D01*
X194413210Y-57217512D01*
X194396849Y-57198900D01*
X194381552Y-57179518D01*
X194377702Y-57174122D01*
X194362087Y-57156799D01*
X194343136Y-57142478D01*
X194341151Y-57141375D01*
X194327721Y-57133786D01*
X194315642Y-57125452D01*
X194301881Y-57113968D01*
X194283405Y-57096931D01*
X194274920Y-57088885D01*
X194257237Y-57075285D01*
X194235153Y-57062383D01*
X194227159Y-57058645D01*
X194209607Y-57050259D01*
X194197233Y-57042706D01*
X194194139Y-57039762D01*
X194185689Y-57035769D01*
X194181579Y-57036545D01*
X194171546Y-57035709D01*
X194168897Y-57033129D01*
X194160516Y-57026315D01*
X194144810Y-57017651D01*
X194126318Y-57009242D01*
X194109577Y-57003191D01*
X194100589Y-57001462D01*
X194089799Y-56997784D01*
X194087374Y-56995211D01*
X194078782Y-56990423D01*
X194067804Y-56988959D01*
X194051821Y-56985344D01*
X194042720Y-56979582D01*
X194029177Y-56972098D01*
X194018161Y-56970204D01*
X194008687Y-56968924D01*
X194004262Y-56962834D01*
X194003014Y-56948557D01*
X194002978Y-56942838D01*
X194004947Y-56923352D01*
X194010023Y-56910064D01*
X194011676Y-56908253D01*
X194019438Y-56896902D01*
X194023800Y-56884045D01*
X194029981Y-56855540D01*
X194035060Y-56837482D01*
X194039635Y-56827930D01*
X194041815Y-56825805D01*
X194046572Y-56817592D01*
X194050535Y-56802559D01*
X194050824Y-56800799D01*
X194054548Y-56785921D01*
X194059283Y-56777733D01*
X194059845Y-56777436D01*
X194062770Y-56771451D01*
X194061868Y-56769346D01*
X194062162Y-56760205D01*
X194067261Y-56749471D01*
X194075242Y-56733085D01*
X194080799Y-56715362D01*
X194085458Y-56701621D01*
X194090866Y-56695200D01*
X194091365Y-56695137D01*
X194094545Y-56691236D01*
X194093424Y-56688558D01*
X194093247Y-56679147D01*
X194097239Y-56660893D01*
X194104536Y-56636402D01*
X194114277Y-56608280D01*
X194125597Y-56579129D01*
X194137634Y-56551555D01*
X194141432Y-56543622D01*
X194146045Y-56527890D01*
X194146764Y-56520094D01*
X194149384Y-56503697D01*
X194152001Y-56496566D01*
X194163369Y-56473265D01*
X194171298Y-56458959D01*
X194177846Y-56451416D01*
X194185070Y-56448398D01*
X194195027Y-56447672D01*
X194197053Y-56447617D01*
X194217357Y-56449645D01*
G37*
G36*
X194494729Y-55452567D02*
G01*
X194502716Y-55456205D01*
X194503101Y-55457332D01*
X194508427Y-55462117D01*
X194517965Y-55463584D01*
X194533091Y-55467508D01*
X194540971Y-55473396D01*
X194552782Y-55480196D01*
X194560601Y-55480204D01*
X194574274Y-55481514D01*
X194580158Y-55485269D01*
X194590765Y-55490762D01*
X194608783Y-55495752D01*
X194620038Y-55497714D01*
X194641345Y-55502629D01*
X194659101Y-55510114D01*
X194664736Y-55514094D01*
X194679933Y-55523206D01*
X194693065Y-55526099D01*
X194708985Y-55529777D01*
X194717886Y-55535476D01*
X194731796Y-55543349D01*
X194740433Y-55544854D01*
X194756357Y-55548860D01*
X194775959Y-55559089D01*
X194794144Y-55572853D01*
X194794941Y-55573601D01*
X194805640Y-55579114D01*
X194822686Y-55583809D01*
X194826689Y-55584525D01*
X194847207Y-55590806D01*
X194869142Y-55601820D01*
X194875558Y-55606056D01*
X194896968Y-55619958D01*
X194921368Y-55633746D01*
X194929420Y-55637800D01*
X194949625Y-55648326D01*
X194967297Y-55658882D01*
X194973181Y-55662993D01*
X194989469Y-55673489D01*
X195007913Y-55682885D01*
X195021386Y-55689920D01*
X195028071Y-55695755D01*
X195028231Y-55696417D01*
X195033247Y-55700734D01*
X195036670Y-55701142D01*
X195046512Y-55704512D01*
X195061798Y-55713051D01*
X195069792Y-55718334D01*
X195095430Y-55735526D01*
X195113520Y-55745903D01*
X195126171Y-55750591D01*
X195131296Y-55751154D01*
X195139666Y-55754738D01*
X195140758Y-55757852D01*
X195146167Y-55768521D01*
X195160586Y-55781388D01*
X195181309Y-55794294D01*
X195194434Y-55800637D01*
X195207081Y-55808631D01*
X195222517Y-55821530D01*
X195226773Y-55825628D01*
X195239999Y-55837474D01*
X195250275Y-55844283D01*
X195252585Y-55844927D01*
X195260483Y-55849801D01*
X195265330Y-55856573D01*
X195275397Y-55867208D01*
X195290251Y-55875960D01*
X195306974Y-55886345D01*
X195318766Y-55898698D01*
X195327858Y-55909590D01*
X195334810Y-55913694D01*
X195342537Y-55917843D01*
X195354965Y-55928348D01*
X195361449Y-55934722D01*
X195376530Y-55949254D01*
X195397107Y-55967818D01*
X195418941Y-55986597D01*
X195420728Y-55988088D01*
X195438866Y-56004061D01*
X195452494Y-56017735D01*
X195459273Y-56026710D01*
X195459626Y-56028013D01*
X195464602Y-56035956D01*
X195476700Y-56045262D01*
X195478381Y-56046249D01*
X195491072Y-56056049D01*
X195497032Y-56065729D01*
X195497096Y-56066566D01*
X195499571Y-56075086D01*
X195501785Y-56076242D01*
X195510516Y-56080405D01*
X195522675Y-56090254D01*
X195534070Y-56101855D01*
X195540511Y-56111277D01*
X195540857Y-56112908D01*
X195545906Y-56119190D01*
X195550234Y-56119995D01*
X195558551Y-56123515D01*
X195559611Y-56126520D01*
X195563533Y-56135060D01*
X195573178Y-56147618D01*
X195575240Y-56149899D01*
X195585522Y-56162230D01*
X195590716Y-56170892D01*
X195590869Y-56171757D01*
X195595163Y-56178463D01*
X195605911Y-56190096D01*
X195619909Y-56203642D01*
X195633956Y-56216087D01*
X195644849Y-56224416D01*
X195648696Y-56226193D01*
X195652830Y-56231373D01*
X195653384Y-56235921D01*
X195657388Y-56246673D01*
X195667208Y-56260415D01*
X195669013Y-56262427D01*
X195679385Y-56275660D01*
X195684522Y-56286227D01*
X195684642Y-56287356D01*
X195689673Y-56296435D01*
X195694019Y-56299029D01*
X195701883Y-56307544D01*
X195703397Y-56314658D01*
X195707682Y-56326391D01*
X195712774Y-56330287D01*
X195721082Y-56338128D01*
X195722151Y-56342541D01*
X195726959Y-56352352D01*
X195734654Y-56359004D01*
X195744472Y-56368148D01*
X195747157Y-56374686D01*
X195751176Y-56381989D01*
X195753564Y-56382560D01*
X195760675Y-56387634D01*
X195766052Y-56396626D01*
X195774427Y-56413419D01*
X195779963Y-56422829D01*
X195799317Y-56454029D01*
X195817798Y-56485922D01*
X195832873Y-56514066D01*
X195838050Y-56524711D01*
X195846210Y-56540389D01*
X195852924Y-56549934D01*
X195854996Y-56551280D01*
X195858581Y-56556678D01*
X195859685Y-56566311D01*
X195863177Y-56579276D01*
X195869062Y-56584870D01*
X195876462Y-56593266D01*
X195878440Y-56602811D01*
X195884083Y-56617378D01*
X195892302Y-56623324D01*
X195904867Y-56635627D01*
X195911001Y-56653140D01*
X195917589Y-56672679D01*
X195927245Y-56688955D01*
X195928396Y-56690265D01*
X195937792Y-56706037D01*
X195940955Y-56720556D01*
X195944255Y-56736071D01*
X195950332Y-56745149D01*
X195958357Y-56757492D01*
X195959710Y-56764669D01*
X195962126Y-56774410D01*
X195965156Y-56776407D01*
X195969038Y-56782003D01*
X195972900Y-56796276D01*
X195974632Y-56806785D01*
X195979872Y-56828959D01*
X195988050Y-56845185D01*
X195990548Y-56847920D01*
X195999128Y-56861486D01*
X196005482Y-56882425D01*
X196006664Y-56889428D01*
X196010172Y-56907908D01*
X196014390Y-56920669D01*
X196016559Y-56923680D01*
X196020668Y-56931861D01*
X196022225Y-56945198D01*
X196024047Y-56959394D01*
X196028039Y-56966808D01*
X196031972Y-56974556D01*
X196035937Y-56990697D01*
X196038147Y-57004769D01*
X196041443Y-57024320D01*
X196045383Y-57038272D01*
X196047962Y-57042549D01*
X196052266Y-57050799D01*
X196053483Y-57060852D01*
X196055612Y-57073780D01*
X196059149Y-57079244D01*
X196063114Y-57086964D01*
X196067150Y-57102965D01*
X196069226Y-57115560D01*
X196072581Y-57135312D01*
X196076353Y-57150052D01*
X196078404Y-57154625D01*
X196082959Y-57164921D01*
X196086796Y-57179631D01*
X196093035Y-57209840D01*
X196099267Y-57236462D01*
X196104826Y-57256921D01*
X196109049Y-57268643D01*
X196110174Y-57270278D01*
X196112422Y-57277561D01*
X196114855Y-57294149D01*
X196117038Y-57316859D01*
X196117554Y-57324011D01*
X196120173Y-57349658D01*
X196124053Y-57371810D01*
X196128443Y-57386390D01*
X196129348Y-57388089D01*
X196134491Y-57401470D01*
X196130453Y-57413261D01*
X196126695Y-57426228D01*
X196129386Y-57431202D01*
X196133127Y-57440464D01*
X196136335Y-57457950D01*
X196137902Y-57474202D01*
X196139921Y-57497765D01*
X196142668Y-57518889D01*
X196144532Y-57528605D01*
X196144797Y-57549955D01*
X196140877Y-57561213D01*
X196136036Y-57574221D01*
X196139384Y-57583931D01*
X196140827Y-57585768D01*
X196145619Y-57595839D01*
X196141004Y-57604735D01*
X196136761Y-57616284D01*
X196139485Y-57621927D01*
X196141878Y-57630682D01*
X196143805Y-57648732D01*
X196145245Y-57673562D01*
X196146180Y-57702656D01*
X196146591Y-57733500D01*
X196146459Y-57763578D01*
X196145765Y-57790375D01*
X196144490Y-57811376D01*
X196142614Y-57824065D01*
X196141037Y-57826665D01*
X196137427Y-57832282D01*
X196135154Y-57846620D01*
X196134753Y-57857402D01*
X196133194Y-57877792D01*
X196128983Y-57889987D01*
X196126938Y-57891785D01*
X196122341Y-57895891D01*
X196126938Y-57899079D01*
X196132493Y-57906524D01*
X196134613Y-57918393D01*
X196133048Y-57929047D01*
X196128448Y-57932941D01*
X196126216Y-57937236D01*
X196130011Y-57945635D01*
X196134571Y-57956856D01*
X196130666Y-57962827D01*
X196126553Y-57970981D01*
X196122909Y-57987851D01*
X196120678Y-58007960D01*
X196118494Y-58031859D01*
X196115631Y-58052787D01*
X196113219Y-58064224D01*
X196108858Y-58082367D01*
X196103668Y-58109544D01*
X196098248Y-58142365D01*
X196093291Y-58176751D01*
X196089549Y-58195787D01*
X196084605Y-58210205D01*
X196082725Y-58213328D01*
X196075766Y-58226801D01*
X196074474Y-58232083D01*
X196070103Y-58261952D01*
X196066646Y-58281495D01*
X196063646Y-58292812D01*
X196060644Y-58298002D01*
X196059960Y-58298517D01*
X196056898Y-58306453D01*
X196057681Y-58313359D01*
X196056061Y-58326760D01*
X196050842Y-58334787D01*
X196042817Y-58346204D01*
X196040889Y-58352911D01*
X196038516Y-58365365D01*
X196032779Y-58383961D01*
X196025496Y-58403629D01*
X196018483Y-58419295D01*
X196015179Y-58424644D01*
X196012931Y-58433245D01*
X196015737Y-58436044D01*
X196018044Y-58443882D01*
X196012915Y-58453620D01*
X196005605Y-58467443D01*
X196003331Y-58476653D01*
X195999582Y-58488110D01*
X195990967Y-58501831D01*
X195982129Y-58516889D01*
X195978565Y-58529963D01*
X195975585Y-58544407D01*
X195969049Y-58560373D01*
X195962448Y-58575615D01*
X195959710Y-58587066D01*
X195956550Y-58597270D01*
X195948540Y-58613111D01*
X195943514Y-58621508D01*
X195931444Y-58644165D01*
X195920820Y-58669842D01*
X195918266Y-58677648D01*
X195912299Y-58694981D01*
X195906923Y-58706025D01*
X195904625Y-58708132D01*
X195899158Y-58713145D01*
X195890918Y-58725724D01*
X195887691Y-58731575D01*
X195878030Y-58748398D01*
X195869303Y-58761187D01*
X195867515Y-58763279D01*
X195860689Y-58774907D01*
X195859685Y-58780194D01*
X195856312Y-58790251D01*
X195847588Y-58806715D01*
X195835606Y-58825949D01*
X195823827Y-58842540D01*
X195817989Y-58851867D01*
X195809608Y-58867004D01*
X195807682Y-58870672D01*
X195790510Y-58902945D01*
X195777443Y-58925594D01*
X195767437Y-58940390D01*
X195764010Y-58944559D01*
X195755265Y-58958881D01*
X195752455Y-58967571D01*
X195745338Y-58979778D01*
X195736370Y-58986164D01*
X195724764Y-58996536D01*
X195718718Y-59009607D01*
X195714191Y-59022122D01*
X195709151Y-59026960D01*
X195704064Y-59032040D01*
X195703397Y-59036472D01*
X195698263Y-59045843D01*
X195687768Y-59053104D01*
X195676182Y-59062114D01*
X195672139Y-59071509D01*
X195671306Y-59077186D01*
X195667930Y-59084082D01*
X195660697Y-59093848D01*
X195648292Y-59108135D01*
X195629402Y-59128593D01*
X195611772Y-59147303D01*
X195600256Y-59160369D01*
X195594376Y-59168879D01*
X195594537Y-59170746D01*
X195594128Y-59174313D01*
X195586371Y-59182952D01*
X195585796Y-59183492D01*
X195575984Y-59194513D01*
X195572114Y-59202402D01*
X195566944Y-59208937D01*
X195556486Y-59214507D01*
X195543802Y-59223958D01*
X195540857Y-59233106D01*
X195537136Y-59243326D01*
X195531820Y-59245764D01*
X195522947Y-59250874D01*
X195514581Y-59262880D01*
X195503132Y-59278198D01*
X195489189Y-59281288D01*
X195475095Y-59274276D01*
X195461047Y-59266800D01*
X195451772Y-59264718D01*
X195442504Y-59260636D01*
X195440832Y-59256198D01*
X195435844Y-59247448D01*
X195425203Y-59239513D01*
X195413842Y-59231655D01*
X195409574Y-59225507D01*
X195404897Y-59215796D01*
X195394684Y-59206138D01*
X195385015Y-59202004D01*
X195379075Y-59196947D01*
X195378317Y-59192626D01*
X195372938Y-59185051D01*
X195363672Y-59183249D01*
X195350296Y-59178559D01*
X195338333Y-59163324D01*
X195337103Y-59161097D01*
X195326023Y-59145918D01*
X195313662Y-59136329D01*
X195311113Y-59135414D01*
X195299600Y-59127928D01*
X195297047Y-59120175D01*
X195291380Y-59109215D01*
X195281418Y-59104546D01*
X195269693Y-59098899D01*
X195265789Y-59092682D01*
X195260590Y-59084994D01*
X195248031Y-59077389D01*
X195247525Y-59077176D01*
X195232505Y-59068076D01*
X195214959Y-59053493D01*
X195206638Y-59045160D01*
X195192884Y-59031422D01*
X195181999Y-59022552D01*
X195178015Y-59020709D01*
X195173036Y-59015506D01*
X195172016Y-59008987D01*
X195166320Y-58998200D01*
X195154824Y-58993521D01*
X195139664Y-58985764D01*
X195124504Y-58971197D01*
X195122004Y-58967906D01*
X195110921Y-58954384D01*
X195101791Y-58946595D01*
X195099617Y-58945863D01*
X195092157Y-58940762D01*
X195083988Y-58929039D01*
X195078721Y-58916521D01*
X195080857Y-58910697D01*
X195082931Y-58909763D01*
X195090081Y-58902070D01*
X195090746Y-58898283D01*
X195094293Y-58890304D01*
X195096997Y-58889427D01*
X195102923Y-58884560D01*
X195103249Y-58882293D01*
X195107415Y-58874373D01*
X195118210Y-58861170D01*
X195129818Y-58849035D01*
X195174918Y-58800503D01*
X195208923Y-58754621D01*
X195213515Y-58747204D01*
X195224380Y-58731786D01*
X195234228Y-58722199D01*
X195238068Y-58720635D01*
X195245153Y-58715385D01*
X195254571Y-58701806D01*
X195261882Y-58687814D01*
X195272338Y-58667720D01*
X195282931Y-58651191D01*
X195288635Y-58644494D01*
X195306562Y-58625996D01*
X195315184Y-58611906D01*
X195315801Y-58608371D01*
X195319843Y-58602083D01*
X195321271Y-58601856D01*
X195326136Y-58596444D01*
X195330441Y-58583332D01*
X195330617Y-58582479D01*
X195337415Y-58564387D01*
X195348825Y-58546119D01*
X195350153Y-58544490D01*
X195360334Y-58530240D01*
X195365609Y-58518655D01*
X195365814Y-58516980D01*
X195368819Y-58508966D01*
X195371116Y-58508083D01*
X195376667Y-58502908D01*
X195384427Y-58489875D01*
X195387710Y-58483041D01*
X195396598Y-58465894D01*
X195405163Y-58453311D01*
X195407414Y-58451017D01*
X195414624Y-58439177D01*
X195415826Y-58431997D01*
X195418469Y-58419144D01*
X195425110Y-58401149D01*
X195428329Y-58394079D01*
X195435943Y-58376273D01*
X195440374Y-58361952D01*
X195440832Y-58358371D01*
X195444841Y-58347491D01*
X195454670Y-58333682D01*
X195456461Y-58331686D01*
X195467029Y-58316510D01*
X195472061Y-58301856D01*
X195472128Y-58300492D01*
X195475058Y-58284562D01*
X195481506Y-58268247D01*
X195488083Y-58253331D01*
X195490844Y-58242490D01*
X195490844Y-58242443D01*
X195495224Y-58232134D01*
X195500222Y-58226764D01*
X195506766Y-58214769D01*
X195509573Y-58195107D01*
X195509599Y-58192865D01*
X195510999Y-58175036D01*
X195514492Y-58162477D01*
X195515846Y-58160501D01*
X195519993Y-58150722D01*
X195522741Y-58133910D01*
X195523126Y-58127905D01*
X195525642Y-58109796D01*
X195530661Y-58096776D01*
X195532508Y-58094628D01*
X195539138Y-58083269D01*
X195540857Y-58072835D01*
X195542687Y-58061452D01*
X195545959Y-58057972D01*
X195548702Y-58052082D01*
X195552356Y-58035740D01*
X195556604Y-58010935D01*
X195561131Y-57979658D01*
X195565622Y-57943899D01*
X195569142Y-57911779D01*
X195572378Y-57897463D01*
X195577010Y-57889898D01*
X195579400Y-57882322D01*
X195581452Y-57864080D01*
X195583159Y-57837006D01*
X195584514Y-57802933D01*
X195585511Y-57763693D01*
X195586143Y-57721120D01*
X195586404Y-57677046D01*
X195586287Y-57633306D01*
X195585787Y-57591732D01*
X195584896Y-57554156D01*
X195583608Y-57522413D01*
X195581917Y-57498335D01*
X195579816Y-57483755D01*
X195578449Y-57480413D01*
X195574984Y-57471065D01*
X195572683Y-57453581D01*
X195572114Y-57438188D01*
X195571201Y-57418145D01*
X195568841Y-57403652D01*
X195566448Y-57398797D01*
X195562245Y-57390621D01*
X195558195Y-57373579D01*
X195554847Y-57351299D01*
X195552751Y-57327412D01*
X195552431Y-57306225D01*
X195551672Y-57291166D01*
X195548737Y-57283172D01*
X195547747Y-57282781D01*
X195543059Y-57277335D01*
X195539030Y-57264062D01*
X195538739Y-57262464D01*
X195533763Y-57236507D01*
X195527946Y-57210697D01*
X195522109Y-57188239D01*
X195517071Y-57172336D01*
X195514190Y-57166509D01*
X195510516Y-57157151D01*
X195509599Y-57147778D01*
X195505572Y-57132155D01*
X195500222Y-57124260D01*
X195492455Y-57112320D01*
X195490844Y-57105428D01*
X195487475Y-57094772D01*
X195485030Y-57092380D01*
X195481094Y-57084630D01*
X195477130Y-57068494D01*
X195474933Y-57054502D01*
X195471796Y-57035732D01*
X195468198Y-57023278D01*
X195465830Y-57020217D01*
X195459700Y-57014876D01*
X195452339Y-57001713D01*
X195445617Y-56985019D01*
X195441409Y-56969083D01*
X195440832Y-56962949D01*
X195436186Y-56948316D01*
X195429106Y-56940883D01*
X195420076Y-56930034D01*
X195413617Y-56913283D01*
X195413194Y-56911247D01*
X195409378Y-56896648D01*
X195405316Y-56889149D01*
X195404602Y-56888886D01*
X195398769Y-56883574D01*
X195392053Y-56870965D01*
X195386607Y-56855889D01*
X195384568Y-56843927D01*
X195380292Y-56834494D01*
X195375191Y-56832671D01*
X195367634Y-56827261D01*
X195365814Y-56817495D01*
X195360745Y-56802067D01*
X195350185Y-56790027D01*
X195339156Y-56778351D01*
X195334556Y-56767515D01*
X195334556Y-56767496D01*
X195329887Y-56756678D01*
X195325743Y-56753878D01*
X195317535Y-56745695D01*
X195313121Y-56735319D01*
X195308097Y-56723825D01*
X195303179Y-56720143D01*
X195298222Y-56714897D01*
X195297047Y-56707444D01*
X195293229Y-56695528D01*
X195288242Y-56691365D01*
X195279774Y-56683574D01*
X195271854Y-56669681D01*
X195265493Y-56657006D01*
X195260476Y-56651391D01*
X195260305Y-56651376D01*
X195255326Y-56646290D01*
X195248628Y-56633943D01*
X195248168Y-56632918D01*
X195238814Y-56618725D01*
X195227887Y-56610616D01*
X195217752Y-56601493D01*
X195215777Y-56591565D01*
X195212514Y-56579408D01*
X195206619Y-56576357D01*
X195196669Y-56571394D01*
X195190774Y-56563862D01*
X195182741Y-56552296D01*
X195168681Y-56535291D01*
X195150539Y-56514882D01*
X195130261Y-56493105D01*
X195109794Y-56471994D01*
X195091083Y-56453585D01*
X195076074Y-56439915D01*
X195066713Y-56433017D01*
X195065261Y-56432572D01*
X195059974Y-56427582D01*
X195059488Y-56424251D01*
X195054500Y-56415501D01*
X195043859Y-56407566D01*
X195032438Y-56398798D01*
X195028231Y-56390881D01*
X195024488Y-56383263D01*
X195021979Y-56382560D01*
X195016433Y-56377496D01*
X195015727Y-56373182D01*
X195010654Y-56365113D01*
X195005419Y-56363805D01*
X194995229Y-56359570D01*
X194981091Y-56348826D01*
X194973860Y-56341925D01*
X194959619Y-56329060D01*
X194947546Y-56321193D01*
X194943534Y-56320044D01*
X194935520Y-56315030D01*
X194934457Y-56310616D01*
X194929146Y-56302699D01*
X194915810Y-56294038D01*
X194909451Y-56291183D01*
X194894107Y-56283290D01*
X194885282Y-56275356D01*
X194884445Y-56272900D01*
X194879230Y-56264653D01*
X194871308Y-56260453D01*
X194859529Y-56253851D01*
X194843517Y-56241424D01*
X194833045Y-56231900D01*
X194818817Y-56218568D01*
X194808427Y-56209712D01*
X194804929Y-56207517D01*
X194796184Y-56204716D01*
X194781418Y-56197916D01*
X194765352Y-56189515D01*
X194752703Y-56181915D01*
X194749079Y-56179110D01*
X194739899Y-56172689D01*
X194723374Y-56163112D01*
X194706881Y-56154408D01*
X194688674Y-56144427D01*
X194676020Y-56136021D01*
X194671893Y-56131476D01*
X194666688Y-56127123D01*
X194660265Y-56126247D01*
X194648462Y-56121559D01*
X194636901Y-56110618D01*
X194622007Y-56098122D01*
X194604170Y-56094989D01*
X194587904Y-56092546D01*
X194570213Y-56086473D01*
X194555279Y-56078655D01*
X194547287Y-56070975D01*
X194546862Y-56069184D01*
X194541352Y-56065535D01*
X194527575Y-56061687D01*
X194521856Y-56060606D01*
X194506235Y-56056818D01*
X194497510Y-56052474D01*
X194496850Y-56051175D01*
X194491421Y-56046574D01*
X194478186Y-56042312D01*
X194476532Y-56041970D01*
X194457454Y-56036577D01*
X194435819Y-56028265D01*
X194431209Y-56026174D01*
X194409539Y-56016874D01*
X194385259Y-56007831D01*
X194362294Y-56000360D01*
X194344569Y-55995779D01*
X194338178Y-55994964D01*
X194327312Y-55992325D01*
X194311821Y-55985894D01*
X194310264Y-55985129D01*
X194295131Y-55974015D01*
X194290549Y-55960123D01*
X194292201Y-55948587D01*
X194295238Y-55944951D01*
X194298174Y-55939309D01*
X194300687Y-55924819D01*
X194301764Y-55912130D01*
X194304693Y-55890154D01*
X194310073Y-55875420D01*
X194312704Y-55872370D01*
X194319644Y-55861226D01*
X194321807Y-55848927D01*
X194323843Y-55836767D01*
X194328058Y-55832424D01*
X194332488Y-55827002D01*
X194334310Y-55814116D01*
X194337379Y-55797498D01*
X194343631Y-55786487D01*
X194348639Y-55778271D01*
X194346628Y-55775057D01*
X194344712Y-55769000D01*
X194347550Y-55757559D01*
X194353132Y-55745863D01*
X194359445Y-55739042D01*
X194360879Y-55738700D01*
X194364390Y-55733296D01*
X194365567Y-55722826D01*
X194369069Y-55709431D01*
X194375469Y-55703202D01*
X194381631Y-55698864D01*
X194377434Y-55694497D01*
X194372908Y-55687363D01*
X194376121Y-55681301D01*
X194380995Y-55670340D01*
X194385509Y-55652446D01*
X194386905Y-55644230D01*
X194391853Y-55623965D01*
X194399315Y-55607386D01*
X194402284Y-55603408D01*
X194409783Y-55590143D01*
X194415921Y-55570345D01*
X194417753Y-55560295D01*
X194421323Y-55542057D01*
X194425738Y-55529850D01*
X194428169Y-55527141D01*
X194432636Y-55520090D01*
X194434334Y-55507330D01*
X194437505Y-55489310D01*
X194445144Y-55470612D01*
X194445275Y-55470381D01*
X194455171Y-55457085D01*
X194467810Y-55451803D01*
X194479658Y-55451120D01*
X194494729Y-55452567D01*
G37*
G36*
X191384590Y-52167443D02*
G01*
X191427158Y-52168871D01*
X191463629Y-52171259D01*
X191490963Y-52174607D01*
X191492986Y-52174977D01*
X191520895Y-52180954D01*
X191554128Y-52189030D01*
X191586072Y-52197589D01*
X191589884Y-52198681D01*
X191615683Y-52206049D01*
X191638300Y-52212338D01*
X191653991Y-52216513D01*
X191657181Y-52217290D01*
X191669727Y-52222009D01*
X191674742Y-52226033D01*
X191683285Y-52231018D01*
X191687614Y-52231538D01*
X191696759Y-52234285D01*
X191714301Y-52241661D01*
X191737626Y-52252375D01*
X191764121Y-52265132D01*
X191791171Y-52278639D01*
X191816162Y-52291603D01*
X191836481Y-52302729D01*
X191849515Y-52310725D01*
X191852449Y-52313108D01*
X191859239Y-52317982D01*
X191873203Y-52326716D01*
X191883707Y-52332960D01*
X191902664Y-52344480D01*
X191918890Y-52355100D01*
X191924342Y-52359030D01*
X191934577Y-52366911D01*
X191951882Y-52380221D01*
X191973409Y-52396771D01*
X191986857Y-52407106D01*
X192009284Y-52425553D01*
X192037169Y-52450333D01*
X192068510Y-52479480D01*
X192101302Y-52511022D01*
X192133541Y-52542991D01*
X192163225Y-52573418D01*
X192188348Y-52600333D01*
X192206908Y-52621767D01*
X192212152Y-52628511D01*
X192223536Y-52643610D01*
X192231919Y-52654120D01*
X192234227Y-52656643D01*
X192239211Y-52663002D01*
X192249140Y-52677029D01*
X192262066Y-52695957D01*
X192265051Y-52700404D01*
X192278364Y-52720025D01*
X192289097Y-52735339D01*
X192295303Y-52743582D01*
X192295859Y-52744164D01*
X192301989Y-52752162D01*
X192313075Y-52769244D01*
X192328004Y-52793561D01*
X192345666Y-52823265D01*
X192364951Y-52856508D01*
X192384747Y-52891440D01*
X192389775Y-52900453D01*
X192402166Y-52923591D01*
X192418033Y-52954437D01*
X192435770Y-52989740D01*
X192453769Y-53026246D01*
X192470424Y-53060704D01*
X192484127Y-53089862D01*
X192491699Y-53106754D01*
X192505031Y-53137655D01*
X192514534Y-53159544D01*
X192521303Y-53174903D01*
X192526433Y-53186212D01*
X192531018Y-53195954D01*
X192531423Y-53196799D01*
X192537497Y-53211011D01*
X192540116Y-53220180D01*
X192540118Y-53220310D01*
X192542505Y-53228810D01*
X192548541Y-53244113D01*
X192552065Y-53252170D01*
X192560587Y-53272934D01*
X192572213Y-53304008D01*
X192586397Y-53343744D01*
X192602597Y-53390492D01*
X192620267Y-53442604D01*
X192638864Y-53498431D01*
X192657842Y-53556325D01*
X192676657Y-53614636D01*
X192694765Y-53671716D01*
X192711622Y-53725916D01*
X192726683Y-53775587D01*
X192739403Y-53819081D01*
X192740392Y-53822555D01*
X192746004Y-53842287D01*
X192751966Y-53863190D01*
X192758179Y-53885029D01*
X192764597Y-53907719D01*
X192764821Y-53908513D01*
X192771345Y-53931672D01*
X192777907Y-53954966D01*
X192778029Y-53955400D01*
X192784227Y-53977230D01*
X192790242Y-53998160D01*
X192790532Y-53999161D01*
X192800818Y-54034928D01*
X192808339Y-54061948D01*
X192813981Y-54083431D01*
X192815186Y-54088245D01*
X192820983Y-54110641D01*
X192826842Y-54132006D01*
X192833597Y-54156221D01*
X192841646Y-54185824D01*
X192849956Y-54216936D01*
X192857496Y-54245677D01*
X192863234Y-54268169D01*
X192865089Y-54275791D01*
X192869671Y-54294089D01*
X192876034Y-54318126D01*
X192880712Y-54335181D01*
X192886650Y-54356923D01*
X192894725Y-54387128D01*
X192904114Y-54422656D01*
X192913999Y-54460370D01*
X192923557Y-54497131D01*
X192931969Y-54529799D01*
X192938412Y-54555237D01*
X192940800Y-54564925D01*
X192946504Y-54588159D01*
X192952353Y-54611492D01*
X192952434Y-54611812D01*
X192958010Y-54633945D01*
X192964013Y-54658074D01*
X192964937Y-54661824D01*
X192970748Y-54685238D01*
X192976587Y-54708475D01*
X192977440Y-54711836D01*
X192982871Y-54733488D01*
X192988880Y-54757868D01*
X192990229Y-54763411D01*
X192998680Y-54797904D01*
X193006370Y-54828644D01*
X193011299Y-54847807D01*
X193014226Y-54859522D01*
X193019449Y-54880978D01*
X193026387Y-54909751D01*
X193034461Y-54943415D01*
X193043088Y-54979543D01*
X193051689Y-55015711D01*
X193059683Y-55049493D01*
X193065911Y-55075988D01*
X193073200Y-55106943D01*
X193079389Y-55132621D01*
X193085785Y-55158333D01*
X193093691Y-55189385D01*
X193096276Y-55199456D01*
X193099649Y-55212934D01*
X193103873Y-55230531D01*
X193109364Y-55254038D01*
X193116537Y-55285246D01*
X193125811Y-55325946D01*
X193131510Y-55351056D01*
X193137318Y-55376101D01*
X193142988Y-55399633D01*
X193146518Y-55413571D01*
X193150923Y-55431067D01*
X193156747Y-55455306D01*
X193162309Y-55479212D01*
X193169195Y-55509287D01*
X193176686Y-55541903D01*
X193181685Y-55563608D01*
X193188367Y-55592610D01*
X193195534Y-55623784D01*
X193199656Y-55641752D01*
X193206045Y-55669539D01*
X193213299Y-55700941D01*
X193217695Y-55719897D01*
X193223494Y-55745154D01*
X193230697Y-55776969D01*
X193238027Y-55809689D01*
X193240300Y-55819921D01*
X193246688Y-55848439D01*
X193252722Y-55874824D01*
X193257463Y-55894997D01*
X193258983Y-55901191D01*
X193264719Y-55924852D01*
X193272079Y-55956945D01*
X193281460Y-55999205D01*
X193283614Y-56009030D01*
X193296039Y-56065426D01*
X193306152Y-56110452D01*
X193314152Y-56144986D01*
X193320242Y-56169906D01*
X193321890Y-56176259D01*
X193326082Y-56193395D01*
X193331602Y-56217658D01*
X193337285Y-56243926D01*
X193337516Y-56245026D01*
X193341658Y-56264650D01*
X193346085Y-56285325D01*
X193351221Y-56308990D01*
X193357492Y-56337585D01*
X193365321Y-56373046D01*
X193375133Y-56417313D01*
X193384076Y-56457578D01*
X193391772Y-56492211D01*
X193400437Y-56531203D01*
X193408327Y-56566710D01*
X193409082Y-56570106D01*
X193416675Y-56604269D01*
X193425303Y-56643091D01*
X193433291Y-56679024D01*
X193434441Y-56684196D01*
X193440759Y-56712421D01*
X193446683Y-56738551D01*
X193451264Y-56758412D01*
X193452565Y-56763904D01*
X193457014Y-56782971D01*
X193462476Y-56807167D01*
X193465346Y-56820167D01*
X193470624Y-56844145D01*
X193475701Y-56866925D01*
X193477849Y-56876431D01*
X193482136Y-56895494D01*
X193487497Y-56919684D01*
X193490352Y-56932695D01*
X193495683Y-56956678D01*
X193500892Y-56979461D01*
X193503133Y-56988959D01*
X193506829Y-57004781D01*
X193512294Y-57028736D01*
X193518602Y-57056749D01*
X193521610Y-57070229D01*
X193527993Y-57098741D01*
X193533972Y-57125122D01*
X193538619Y-57145295D01*
X193540087Y-57151499D01*
X193544535Y-57170567D01*
X193549998Y-57194762D01*
X193552867Y-57207763D01*
X193558145Y-57231740D01*
X193563222Y-57254520D01*
X193565371Y-57264027D01*
X193569657Y-57283090D01*
X193575018Y-57307280D01*
X193577874Y-57320290D01*
X193583204Y-57344273D01*
X193588413Y-57367056D01*
X193590654Y-57376554D01*
X193594351Y-57392376D01*
X193599816Y-57416331D01*
X193606123Y-57444344D01*
X193609131Y-57457824D01*
X193615514Y-57486336D01*
X193621493Y-57512717D01*
X193626141Y-57532890D01*
X193627608Y-57539094D01*
X193632057Y-57558162D01*
X193637519Y-57582358D01*
X193640389Y-57595358D01*
X193645667Y-57619336D01*
X193650744Y-57642116D01*
X193652892Y-57651622D01*
X193657179Y-57670685D01*
X193662540Y-57694875D01*
X193665395Y-57707886D01*
X193670726Y-57731869D01*
X193675935Y-57754652D01*
X193678176Y-57764150D01*
X193681872Y-57779972D01*
X193687338Y-57803927D01*
X193693645Y-57831939D01*
X193696653Y-57845420D01*
X193703036Y-57873932D01*
X193709015Y-57900312D01*
X193713662Y-57920485D01*
X193715130Y-57926690D01*
X193719578Y-57945757D01*
X193725041Y-57969953D01*
X193727911Y-57982954D01*
X193733189Y-58006931D01*
X193738265Y-58029711D01*
X193740414Y-58039217D01*
X193744700Y-58058280D01*
X193750061Y-58082470D01*
X193752917Y-58095481D01*
X193758247Y-58119464D01*
X193763456Y-58142247D01*
X193765697Y-58151745D01*
X193769394Y-58167567D01*
X193774859Y-58191522D01*
X193781167Y-58219535D01*
X193784174Y-58233015D01*
X193790557Y-58261527D01*
X193796536Y-58287908D01*
X193801184Y-58308081D01*
X193802651Y-58314285D01*
X193807100Y-58333353D01*
X193812562Y-58357549D01*
X193815432Y-58370549D01*
X193820710Y-58394527D01*
X193825787Y-58417306D01*
X193827935Y-58426813D01*
X193832222Y-58445876D01*
X193837583Y-58470066D01*
X193840438Y-58483077D01*
X193845769Y-58507060D01*
X193850978Y-58529843D01*
X193853219Y-58539340D01*
X193856915Y-58555162D01*
X193862381Y-58579117D01*
X193868688Y-58607130D01*
X193871696Y-58620610D01*
X193878079Y-58649123D01*
X193884058Y-58675503D01*
X193888706Y-58695676D01*
X193890173Y-58701880D01*
X193894621Y-58720948D01*
X193900084Y-58745144D01*
X193902954Y-58758144D01*
X193908232Y-58782122D01*
X193913308Y-58804902D01*
X193915457Y-58814408D01*
X193919743Y-58833471D01*
X193925104Y-58857661D01*
X193927960Y-58870672D01*
X193933269Y-58894653D01*
X193938424Y-58917434D01*
X193940628Y-58926936D01*
X193944311Y-58942741D01*
X193949839Y-58966670D01*
X193956275Y-58994656D01*
X193959381Y-59008206D01*
X193965936Y-59036697D01*
X193972058Y-59063063D01*
X193976800Y-59083237D01*
X193978296Y-59089476D01*
X193983166Y-59109994D01*
X193988645Y-59133724D01*
X193989951Y-59139488D01*
X193993265Y-59153399D01*
X193999168Y-59177359D01*
X194007143Y-59209307D01*
X194016675Y-59247182D01*
X194027247Y-59288921D01*
X194034563Y-59317657D01*
X194045448Y-59360373D01*
X194055567Y-59400170D01*
X194064424Y-59435089D01*
X194071522Y-59463167D01*
X194076364Y-59482442D01*
X194078126Y-59489574D01*
X194083014Y-59508942D01*
X194089526Y-59533087D01*
X194098485Y-59565023D01*
X194102814Y-59580222D01*
X194107391Y-59596633D01*
X194113584Y-59619319D01*
X194118208Y-59636485D01*
X194124525Y-59659353D01*
X194130422Y-59679480D01*
X194133654Y-59689624D01*
X194138926Y-59706070D01*
X194144969Y-59726515D01*
X194146022Y-59730259D01*
X194152514Y-59752578D01*
X194161691Y-59782749D01*
X194172911Y-59818789D01*
X194185535Y-59858715D01*
X194198919Y-59900544D01*
X194212424Y-59942294D01*
X194225407Y-59981981D01*
X194237228Y-60017624D01*
X194247245Y-60047240D01*
X194254817Y-60068845D01*
X194259251Y-60080345D01*
X194264455Y-60093504D01*
X194271354Y-60112978D01*
X194275058Y-60124105D01*
X194282722Y-60146404D01*
X194290478Y-60166974D01*
X194293450Y-60174118D01*
X194299848Y-60189406D01*
X194308770Y-60211639D01*
X194318311Y-60236066D01*
X194318530Y-60236633D01*
X194328187Y-60261374D01*
X194337390Y-60284339D01*
X194344162Y-60300595D01*
X194344213Y-60300711D01*
X194352903Y-60320711D01*
X194362300Y-60342406D01*
X194363193Y-60344472D01*
X194372284Y-60364486D01*
X194385028Y-60391173D01*
X194400264Y-60422237D01*
X194416825Y-60455384D01*
X194433550Y-60488317D01*
X194449273Y-60518742D01*
X194462832Y-60544363D01*
X194473061Y-60562885D01*
X194478117Y-60571121D01*
X194486542Y-60584009D01*
X194490546Y-60592213D01*
X194490598Y-60592655D01*
X194493834Y-60598913D01*
X194502336Y-60612733D01*
X194514300Y-60631371D01*
X194527917Y-60652079D01*
X194541383Y-60672110D01*
X194552890Y-60688720D01*
X194560632Y-60699160D01*
X194560703Y-60699247D01*
X194566582Y-60706879D01*
X194577831Y-60721831D01*
X194592394Y-60741366D01*
X194598250Y-60749259D01*
X194660670Y-60825844D01*
X194733033Y-60900952D01*
X194770454Y-60935586D01*
X194787418Y-60949843D01*
X194809397Y-60967104D01*
X194833818Y-60985490D01*
X194858106Y-61003125D01*
X194879689Y-61018132D01*
X194895992Y-61028632D01*
X194903200Y-61032418D01*
X194913381Y-61037864D01*
X194915703Y-61040013D01*
X194922208Y-61044116D01*
X194937238Y-61052093D01*
X194957974Y-61062566D01*
X194981597Y-61074154D01*
X195005285Y-61085477D01*
X195026220Y-61095158D01*
X195041581Y-61101815D01*
X195043859Y-61102709D01*
X195135149Y-61131479D01*
X195229548Y-61150025D01*
X195324595Y-61158077D01*
X195417833Y-61155364D01*
X195466383Y-61149356D01*
X195508434Y-61142316D01*
X195543115Y-61135548D01*
X195575479Y-61127904D01*
X195610578Y-61118237D01*
X195634210Y-61111242D01*
X195655399Y-61103146D01*
X195683857Y-61089899D01*
X195716382Y-61073184D01*
X195749775Y-61054682D01*
X195780832Y-61036076D01*
X195796109Y-61026172D01*
X195826837Y-61003344D01*
X195860496Y-60974727D01*
X195894760Y-60942655D01*
X195927299Y-60909464D01*
X195955787Y-60877488D01*
X195977895Y-60849064D01*
X195987307Y-60834372D01*
X195994104Y-60824172D01*
X195996878Y-60821152D01*
X196004908Y-60811203D01*
X196016862Y-60792072D01*
X196031586Y-60766005D01*
X196047927Y-60735247D01*
X196064732Y-60702041D01*
X196080846Y-60668633D01*
X196095116Y-60637266D01*
X196106388Y-60610186D01*
X196109335Y-60602348D01*
X196116085Y-60584055D01*
X196121867Y-60568929D01*
X196122250Y-60567965D01*
X196133777Y-60536004D01*
X196146671Y-60495097D01*
X196159975Y-60448584D01*
X196172734Y-60399806D01*
X196183953Y-60352287D01*
X196190379Y-60320663D01*
X196197792Y-60279926D01*
X196205645Y-60233371D01*
X196213391Y-60184294D01*
X196220480Y-60135989D01*
X196223188Y-60116291D01*
X196230953Y-60058464D01*
X196348913Y-60058464D01*
X196466873Y-60058464D01*
X196463916Y-60347598D01*
X196463169Y-60408307D01*
X196462212Y-60466608D01*
X196461087Y-60521009D01*
X196459835Y-60570019D01*
X196458497Y-60612145D01*
X196457115Y-60645897D01*
X196455730Y-60669783D01*
X196454690Y-60680492D01*
X196447691Y-60728939D01*
X196441738Y-60768974D01*
X196436193Y-60804578D01*
X196430423Y-60839729D01*
X196423793Y-60878407D01*
X196416271Y-60921177D01*
X196409983Y-60953743D01*
X196400803Y-60996660D01*
X196391039Y-61039956D01*
X196382163Y-61076129D01*
X196371309Y-61116429D01*
X196359235Y-61158405D01*
X196346701Y-61199606D01*
X196334465Y-61237580D01*
X196323286Y-61269877D01*
X196313923Y-61294046D01*
X196309296Y-61303998D01*
X196304421Y-61316214D01*
X196303544Y-61321258D01*
X196300937Y-61330519D01*
X196293802Y-61348423D01*
X196283170Y-61372816D01*
X196270071Y-61401547D01*
X196255536Y-61432460D01*
X196240596Y-61463403D01*
X196226280Y-61492223D01*
X196213620Y-61516765D01*
X196203645Y-61534877D01*
X196197387Y-61544404D01*
X196196338Y-61545288D01*
X196191102Y-61552430D01*
X196191017Y-61553565D01*
X196187740Y-61560302D01*
X196178964Y-61574937D01*
X196166272Y-61595063D01*
X196151245Y-61618273D01*
X196135466Y-61642161D01*
X196120517Y-61664320D01*
X196107979Y-61682343D01*
X196099435Y-61693823D01*
X196097144Y-61696367D01*
X196091614Y-61703078D01*
X196082145Y-61716111D01*
X196078489Y-61721373D01*
X196068409Y-61735645D01*
X196061278Y-61745013D01*
X196060036Y-61746380D01*
X196054599Y-61752557D01*
X196043824Y-61765561D01*
X196031602Y-61780644D01*
X196013970Y-61801203D01*
X195990501Y-61826623D01*
X195963561Y-61854537D01*
X195935514Y-61882580D01*
X195908728Y-61908386D01*
X195885568Y-61929589D01*
X195868503Y-61943747D01*
X195853601Y-61955119D01*
X195843287Y-61963459D01*
X195840930Y-61965652D01*
X195833432Y-61971818D01*
X195818657Y-61982270D01*
X195799468Y-61995152D01*
X195778731Y-62008609D01*
X195759309Y-62020787D01*
X195744067Y-62029831D01*
X195735869Y-62033886D01*
X195735458Y-62033950D01*
X195727750Y-62037945D01*
X195727361Y-62038666D01*
X195720490Y-62044181D01*
X195704524Y-62053204D01*
X195681961Y-62064567D01*
X195655302Y-62077100D01*
X195627044Y-62089635D01*
X195599689Y-62101002D01*
X195575735Y-62110033D01*
X195572114Y-62111274D01*
X195545677Y-62120063D01*
X195522613Y-62127251D01*
X195501301Y-62132994D01*
X195480118Y-62137448D01*
X195457442Y-62140769D01*
X195431649Y-62143113D01*
X195401117Y-62144637D01*
X195364223Y-62145497D01*
X195319345Y-62145848D01*
X195264860Y-62145847D01*
X195214329Y-62145701D01*
X195153742Y-62145467D01*
X195104186Y-62145155D01*
X195064186Y-62144690D01*
X195032271Y-62143992D01*
X195006968Y-62142984D01*
X194986802Y-62141590D01*
X194970303Y-62139730D01*
X194955995Y-62137328D01*
X194942408Y-62134305D01*
X194928206Y-62130623D01*
X194877706Y-62116349D01*
X194832006Y-62102104D01*
X194793875Y-62088782D01*
X194773267Y-62080528D01*
X194745668Y-62068096D01*
X194713324Y-62052793D01*
X194678810Y-62035917D01*
X194644695Y-62018765D01*
X194613553Y-62002636D01*
X194587957Y-61988827D01*
X194570477Y-61978636D01*
X194567616Y-61976765D01*
X194551294Y-61966470D01*
X194538704Y-61960028D01*
X194534796Y-61958932D01*
X194528371Y-61954962D01*
X194528107Y-61953439D01*
X194522944Y-61947525D01*
X194510409Y-61940624D01*
X194509353Y-61940177D01*
X194496490Y-61933749D01*
X194490633Y-61928650D01*
X194490598Y-61928392D01*
X194485756Y-61923030D01*
X194473471Y-61913995D01*
X194465592Y-61908920D01*
X194450865Y-61899180D01*
X194441879Y-61892010D01*
X194440586Y-61890165D01*
X194435759Y-61885230D01*
X194423521Y-61876482D01*
X194415826Y-61871563D01*
X194401024Y-61860422D01*
X194380151Y-61842100D01*
X194355407Y-61818792D01*
X194328993Y-61792694D01*
X194303110Y-61765999D01*
X194279958Y-61740904D01*
X194261738Y-61719602D01*
X194255850Y-61711996D01*
X194243493Y-61695665D01*
X194233213Y-61682809D01*
X194230006Y-61679139D01*
X194221841Y-61666560D01*
X194218645Y-61658821D01*
X194213354Y-61648747D01*
X194209616Y-61646355D01*
X194203997Y-61641199D01*
X194197231Y-61628680D01*
X194196776Y-61627600D01*
X194190134Y-61614724D01*
X194184535Y-61608878D01*
X194184244Y-61608846D01*
X194178565Y-61603768D01*
X194175901Y-61597906D01*
X194170775Y-61586715D01*
X194161330Y-61569393D01*
X194153249Y-61555708D01*
X194144060Y-61539489D01*
X194130758Y-61514510D01*
X194114612Y-61483300D01*
X194096888Y-61448385D01*
X194078854Y-61412292D01*
X194061779Y-61377548D01*
X194046930Y-61346681D01*
X194035575Y-61322216D01*
X194031725Y-61313461D01*
X194022647Y-61292156D01*
X194013842Y-61271482D01*
X194013083Y-61269700D01*
X194005192Y-61251458D01*
X193995335Y-61229048D01*
X193991203Y-61219756D01*
X193983642Y-61201671D01*
X193978853Y-61187999D01*
X193977972Y-61183741D01*
X193975568Y-61174577D01*
X193969495Y-61158826D01*
X193966025Y-61150852D01*
X193958157Y-61131679D01*
X193947228Y-61102624D01*
X193933932Y-61065731D01*
X193918961Y-61023047D01*
X193903006Y-60976614D01*
X193886758Y-60928480D01*
X193870911Y-60880687D01*
X193856155Y-60835282D01*
X193843183Y-60794310D01*
X193832687Y-60759814D01*
X193826981Y-60739882D01*
X193821082Y-60718812D01*
X193815432Y-60699247D01*
X193809825Y-60679983D01*
X193803702Y-60658539D01*
X193803282Y-60657049D01*
X193797106Y-60635222D01*
X193791145Y-60614293D01*
X193790858Y-60613288D01*
X193786405Y-60597327D01*
X193780030Y-60573977D01*
X193773015Y-60547933D01*
X193772103Y-60544521D01*
X193763708Y-60513093D01*
X193754494Y-60478626D01*
X193747036Y-60450748D01*
X193740524Y-60426248D01*
X193734853Y-60404614D01*
X193731195Y-60390318D01*
X193731066Y-60389796D01*
X193726773Y-60372595D01*
X193721735Y-60352757D01*
X193721614Y-60352287D01*
X193717279Y-60334753D01*
X193710986Y-60308513D01*
X193703555Y-60277050D01*
X193695803Y-60243847D01*
X193688549Y-60212391D01*
X193683414Y-60189747D01*
X193678114Y-60166679D01*
X193672801Y-60144410D01*
X193671647Y-60139734D01*
X193666710Y-60119199D01*
X193661252Y-60095454D01*
X193659976Y-60089722D01*
X193654480Y-60064963D01*
X193648513Y-60038277D01*
X193647078Y-60031895D01*
X193641522Y-60007059D01*
X193635920Y-59981760D01*
X193634575Y-59975631D01*
X193623339Y-59925172D01*
X193614284Y-59886448D01*
X193608802Y-59864667D01*
X193604610Y-59847531D01*
X193599090Y-59823267D01*
X193593407Y-59797000D01*
X193593176Y-59795900D01*
X193579003Y-59729608D01*
X193562738Y-59655745D01*
X193546406Y-59583347D01*
X193539905Y-59554858D01*
X193533889Y-59528493D01*
X193529287Y-59508319D01*
X193527862Y-59502077D01*
X193523575Y-59483014D01*
X193518214Y-59458824D01*
X193515358Y-59445814D01*
X193510080Y-59421836D01*
X193505004Y-59399056D01*
X193502855Y-59389550D01*
X193498569Y-59370487D01*
X193493207Y-59346297D01*
X193490352Y-59333286D01*
X193485074Y-59309308D01*
X193479998Y-59286528D01*
X193477849Y-59277022D01*
X193473562Y-59257959D01*
X193468201Y-59233769D01*
X193465346Y-59220758D01*
X193460068Y-59196780D01*
X193454991Y-59174001D01*
X193452843Y-59164494D01*
X193448556Y-59145431D01*
X193443195Y-59121241D01*
X193440340Y-59108230D01*
X193435062Y-59084253D01*
X193429985Y-59061473D01*
X193427837Y-59051967D01*
X193423550Y-59032904D01*
X193418189Y-59008714D01*
X193415334Y-58995703D01*
X193410003Y-58971720D01*
X193404794Y-58948937D01*
X193402553Y-58939439D01*
X193398784Y-58923343D01*
X193393156Y-58898608D01*
X193385482Y-58864398D01*
X193375574Y-58819874D01*
X193363245Y-58764197D01*
X193359490Y-58747204D01*
X193352190Y-58714393D01*
X193343677Y-58676472D01*
X193335541Y-58640518D01*
X193333854Y-58633114D01*
X193327353Y-58604624D01*
X193321337Y-58578259D01*
X193316734Y-58558085D01*
X193315310Y-58551844D01*
X193311023Y-58532781D01*
X193305661Y-58508591D01*
X193302806Y-58495580D01*
X193297528Y-58471602D01*
X193292451Y-58448822D01*
X193290303Y-58439316D01*
X193286016Y-58420253D01*
X193280655Y-58396063D01*
X193277800Y-58383052D01*
X193272522Y-58359074D01*
X193267445Y-58336295D01*
X193265297Y-58326788D01*
X193261010Y-58307725D01*
X193255649Y-58283535D01*
X193252794Y-58270524D01*
X193247516Y-58246547D01*
X193242439Y-58223767D01*
X193240291Y-58214260D01*
X193236004Y-58195198D01*
X193230643Y-58171008D01*
X193227787Y-58157997D01*
X193222510Y-58134019D01*
X193217433Y-58111239D01*
X193215284Y-58101733D01*
X193210998Y-58082670D01*
X193205637Y-58058480D01*
X193202781Y-58045469D01*
X193197451Y-58021486D01*
X193192242Y-57998703D01*
X193190001Y-57989205D01*
X193186272Y-57973247D01*
X193180800Y-57949256D01*
X193174532Y-57921406D01*
X193171877Y-57909498D01*
X193164082Y-57874436D01*
X193155294Y-57834908D01*
X193147233Y-57798653D01*
X193146165Y-57793845D01*
X193139847Y-57765620D01*
X193133923Y-57739490D01*
X193129342Y-57719629D01*
X193128040Y-57714137D01*
X193123592Y-57695070D01*
X193118129Y-57670874D01*
X193115260Y-57657874D01*
X193109982Y-57633896D01*
X193104905Y-57611116D01*
X193102757Y-57601610D01*
X193098470Y-57582547D01*
X193093109Y-57558357D01*
X193090254Y-57545346D01*
X193084976Y-57521368D01*
X193079899Y-57498588D01*
X193077751Y-57489082D01*
X193073333Y-57469333D01*
X193068067Y-57445286D01*
X193066051Y-57435944D01*
X193061028Y-57413691D01*
X193056091Y-57393584D01*
X193054324Y-57387032D01*
X193049307Y-57369377D01*
X193037551Y-57396409D01*
X193028053Y-57418090D01*
X193016710Y-57443770D01*
X193010463Y-57457824D01*
X193000568Y-57480164D01*
X192991507Y-57500865D01*
X192987156Y-57510962D01*
X192979742Y-57528113D01*
X192970207Y-57549820D01*
X192965950Y-57559412D01*
X192954790Y-57584461D01*
X192942896Y-57611156D01*
X192939489Y-57618801D01*
X192929983Y-57640308D01*
X192921225Y-57660396D01*
X192918284Y-57667251D01*
X192911325Y-57683260D01*
X192901633Y-57705130D01*
X192894005Y-57722137D01*
X192885559Y-57741242D01*
X192879667Y-57755309D01*
X192877701Y-57760929D01*
X192875286Y-57767501D01*
X192868920Y-57782335D01*
X192859929Y-57802357D01*
X192858947Y-57804504D01*
X192845719Y-57833363D01*
X192831070Y-57865320D01*
X192821438Y-57886335D01*
X192812258Y-57906704D01*
X192805574Y-57922189D01*
X192802709Y-57929716D01*
X192802683Y-57929911D01*
X192800309Y-57936550D01*
X192794117Y-57951234D01*
X192786379Y-57968702D01*
X192776242Y-57991342D01*
X192766997Y-58012281D01*
X192762101Y-58023589D01*
X192754687Y-58040739D01*
X192745152Y-58062446D01*
X192740895Y-58072038D01*
X192729734Y-58097087D01*
X192717840Y-58123782D01*
X192714434Y-58131428D01*
X192704925Y-58152935D01*
X192696159Y-58173023D01*
X192693213Y-58179877D01*
X192685800Y-58197038D01*
X192676288Y-58218757D01*
X192672060Y-58228326D01*
X192660952Y-58253388D01*
X192649114Y-58280091D01*
X192645735Y-58287716D01*
X192636261Y-58309234D01*
X192627517Y-58329329D01*
X192624582Y-58336165D01*
X192617159Y-58353317D01*
X192607618Y-58375024D01*
X192603361Y-58384615D01*
X192592200Y-58409664D01*
X192580306Y-58436359D01*
X192576900Y-58444005D01*
X192567394Y-58465511D01*
X192558636Y-58485599D01*
X192555694Y-58492454D01*
X192548735Y-58508463D01*
X192539044Y-58530334D01*
X192531416Y-58547340D01*
X192522970Y-58566445D01*
X192517078Y-58580512D01*
X192515112Y-58586132D01*
X192512696Y-58592704D01*
X192506331Y-58607538D01*
X192497340Y-58627560D01*
X192496358Y-58629707D01*
X192483129Y-58658566D01*
X192468481Y-58690523D01*
X192458848Y-58711538D01*
X192449669Y-58731907D01*
X192442985Y-58747392D01*
X192440119Y-58754919D01*
X192440094Y-58755114D01*
X192437720Y-58761753D01*
X192431528Y-58776437D01*
X192423790Y-58793905D01*
X192413653Y-58816546D01*
X192404408Y-58837484D01*
X192399511Y-58848792D01*
X192392098Y-58865942D01*
X192382562Y-58887649D01*
X192378306Y-58897241D01*
X192367145Y-58922290D01*
X192355251Y-58948986D01*
X192351845Y-58956631D01*
X192342335Y-58978138D01*
X192333570Y-58998226D01*
X192330624Y-59005080D01*
X192323338Y-59021934D01*
X192313785Y-59043728D01*
X192308759Y-59055092D01*
X192292859Y-59090940D01*
X192281098Y-59117531D01*
X192272524Y-59137028D01*
X192266187Y-59151593D01*
X192261992Y-59161369D01*
X192254570Y-59178520D01*
X192245029Y-59200227D01*
X192240772Y-59209818D01*
X192229611Y-59234867D01*
X192217717Y-59261562D01*
X192214311Y-59269208D01*
X192204805Y-59290714D01*
X192196047Y-59310802D01*
X192193105Y-59317657D01*
X192186146Y-59333666D01*
X192176455Y-59355537D01*
X192168826Y-59372543D01*
X192160381Y-59391648D01*
X192154489Y-59405715D01*
X192152523Y-59411335D01*
X192150107Y-59417907D01*
X192143742Y-59432741D01*
X192134751Y-59452763D01*
X192133768Y-59454910D01*
X192120540Y-59483769D01*
X192105892Y-59515726D01*
X192096259Y-59536742D01*
X192087080Y-59557110D01*
X192080396Y-59572595D01*
X192077530Y-59580122D01*
X192077504Y-59580317D01*
X192075130Y-59586956D01*
X192068939Y-59601640D01*
X192061201Y-59619108D01*
X192051064Y-59641749D01*
X192041819Y-59662687D01*
X192036922Y-59673995D01*
X192029509Y-59691145D01*
X192019973Y-59712852D01*
X192015716Y-59722444D01*
X192004556Y-59747494D01*
X191992662Y-59774189D01*
X191989255Y-59781834D01*
X191979746Y-59803341D01*
X191970981Y-59823429D01*
X191968035Y-59830283D01*
X191960749Y-59847137D01*
X191951195Y-59868932D01*
X191946170Y-59880295D01*
X191930270Y-59916143D01*
X191918509Y-59942734D01*
X191909935Y-59962231D01*
X191903597Y-59976796D01*
X191899403Y-59986572D01*
X191891980Y-60003723D01*
X191882439Y-60025430D01*
X191878183Y-60035021D01*
X191867022Y-60060070D01*
X191855128Y-60086766D01*
X191851722Y-60094411D01*
X191842216Y-60115917D01*
X191833458Y-60136006D01*
X191830516Y-60142860D01*
X191823557Y-60158869D01*
X191813865Y-60180740D01*
X191806237Y-60197746D01*
X191797792Y-60216851D01*
X191791900Y-60230918D01*
X191789934Y-60236538D01*
X191787518Y-60243110D01*
X191781153Y-60257944D01*
X191772162Y-60277966D01*
X191771179Y-60280113D01*
X191757951Y-60308972D01*
X191743303Y-60340929D01*
X191733670Y-60361945D01*
X191724491Y-60382313D01*
X191717807Y-60397798D01*
X191714941Y-60405325D01*
X191714915Y-60405520D01*
X191712541Y-60412159D01*
X191706349Y-60426843D01*
X191698612Y-60444311D01*
X191688474Y-60466952D01*
X191679229Y-60487890D01*
X191674333Y-60499198D01*
X191667044Y-60516039D01*
X191657460Y-60537818D01*
X191652393Y-60549210D01*
X191641427Y-60573803D01*
X191630047Y-60599398D01*
X191625967Y-60608600D01*
X191616502Y-60629747D01*
X191604693Y-60655832D01*
X191595444Y-60676084D01*
X191586449Y-60696038D01*
X191579979Y-60711069D01*
X191577385Y-60718032D01*
X191577381Y-60718097D01*
X191575007Y-60724736D01*
X191568815Y-60739420D01*
X191561078Y-60756888D01*
X191550941Y-60779529D01*
X191541696Y-60800467D01*
X191536799Y-60811775D01*
X191529385Y-60828925D01*
X191519850Y-60850632D01*
X191515593Y-60860224D01*
X191504433Y-60885273D01*
X191492539Y-60911969D01*
X191489132Y-60919614D01*
X191479626Y-60941120D01*
X191470868Y-60961209D01*
X191467927Y-60968063D01*
X191460968Y-60984072D01*
X191451276Y-61005943D01*
X191443648Y-61022949D01*
X191435202Y-61042054D01*
X191429310Y-61056121D01*
X191427344Y-61061741D01*
X191424929Y-61068327D01*
X191418585Y-61083103D01*
X191409662Y-61102924D01*
X191409282Y-61103753D01*
X191394638Y-61135894D01*
X191378541Y-61171604D01*
X191362428Y-61207665D01*
X191347731Y-61240858D01*
X191335886Y-61267964D01*
X191330460Y-61280640D01*
X191309278Y-61330213D01*
X191289803Y-61374413D01*
X191278838Y-61399006D01*
X191267458Y-61424601D01*
X191263378Y-61433803D01*
X191253912Y-61454951D01*
X191242104Y-61481035D01*
X191232855Y-61501287D01*
X191223859Y-61521241D01*
X191217389Y-61536272D01*
X191214796Y-61543235D01*
X191214792Y-61543300D01*
X191212418Y-61549939D01*
X191206226Y-61564623D01*
X191198489Y-61582091D01*
X191188351Y-61604732D01*
X191179106Y-61625670D01*
X191174210Y-61636978D01*
X191166796Y-61654128D01*
X191157261Y-61675835D01*
X191153004Y-61685427D01*
X191141843Y-61710477D01*
X191129949Y-61737172D01*
X191126543Y-61744817D01*
X191117037Y-61766323D01*
X191108279Y-61786412D01*
X191105338Y-61793266D01*
X191098378Y-61809275D01*
X191088687Y-61831146D01*
X191081059Y-61848152D01*
X191072613Y-61867257D01*
X191066721Y-61881325D01*
X191064755Y-61886944D01*
X191062340Y-61893530D01*
X191055995Y-61908306D01*
X191047073Y-61928127D01*
X191046693Y-61928956D01*
X191024407Y-61977798D01*
X191006605Y-62017427D01*
X190993711Y-62046901D01*
X190991907Y-62051142D01*
X190983317Y-62071460D01*
X190317613Y-62071460D01*
X190227525Y-62071429D01*
X190141027Y-62071341D01*
X190058930Y-62071198D01*
X189982045Y-62071006D01*
X189911182Y-62070768D01*
X189847153Y-62070488D01*
X189790769Y-62070170D01*
X189742840Y-62069818D01*
X189704179Y-62069436D01*
X189675596Y-62069028D01*
X189657902Y-62068599D01*
X189651908Y-62068156D01*
X189654383Y-62061330D01*
X189660953Y-62046154D01*
X189670334Y-62025569D01*
X189673069Y-62019707D01*
X189686589Y-61990732D01*
X189701166Y-61959290D01*
X189712847Y-61933926D01*
X189720882Y-61916434D01*
X189729404Y-61897999D01*
X189739280Y-61876761D01*
X189751378Y-61850863D01*
X189766565Y-61818444D01*
X189785709Y-61777647D01*
X189798924Y-61749505D01*
X189812680Y-61720092D01*
X189827243Y-61688752D01*
X189839726Y-61661702D01*
X189841030Y-61658858D01*
X189853382Y-61632009D01*
X189867900Y-61600613D01*
X189881451Y-61571449D01*
X189881503Y-61571337D01*
X189894738Y-61542895D01*
X189908680Y-61512857D01*
X189920375Y-61487585D01*
X189920672Y-61486941D01*
X189931932Y-61462627D01*
X189945770Y-61432856D01*
X189959459Y-61403495D01*
X189961364Y-61399419D01*
X189986193Y-61346280D01*
X190006490Y-61302784D01*
X190023033Y-61267255D01*
X190036605Y-61238020D01*
X190045806Y-61218125D01*
X190057383Y-61193104D01*
X190071300Y-61163118D01*
X190084601Y-61134531D01*
X190084975Y-61133729D01*
X190098514Y-61104589D01*
X190113035Y-61073189D01*
X190125404Y-61046305D01*
X190125448Y-61046207D01*
X190137627Y-61019779D01*
X190152134Y-60988522D01*
X190165962Y-60958914D01*
X190166802Y-60957123D01*
X190181381Y-60926059D01*
X190197728Y-60891226D01*
X190212278Y-60860224D01*
X190225950Y-60830963D01*
X190240506Y-60799613D01*
X190252939Y-60772651D01*
X190253632Y-60771140D01*
X190265983Y-60744290D01*
X190280502Y-60712895D01*
X190294052Y-60683731D01*
X190294105Y-60683618D01*
X190307340Y-60655177D01*
X190321281Y-60625139D01*
X190332977Y-60599866D01*
X190333274Y-60599222D01*
X190344689Y-60574566D01*
X190358569Y-60544688D01*
X190372080Y-60515691D01*
X190373214Y-60513264D01*
X190387728Y-60482184D01*
X190404003Y-60447337D01*
X190418468Y-60416365D01*
X190431801Y-60387759D01*
X190445766Y-60357706D01*
X190457529Y-60332309D01*
X190458407Y-60330406D01*
X190469985Y-60305385D01*
X190483901Y-60275400D01*
X190497203Y-60246812D01*
X190497577Y-60246010D01*
X190511116Y-60216871D01*
X190525637Y-60185470D01*
X190538005Y-60158586D01*
X190538050Y-60158489D01*
X190550228Y-60132061D01*
X190564735Y-60100804D01*
X190578563Y-60071196D01*
X190579404Y-60069404D01*
X190593982Y-60038340D01*
X190610330Y-60003508D01*
X190624879Y-59972506D01*
X190638552Y-59943245D01*
X190653108Y-59911895D01*
X190665540Y-59884933D01*
X190666233Y-59883421D01*
X190678585Y-59856572D01*
X190693103Y-59825177D01*
X190706654Y-59796012D01*
X190706706Y-59795900D01*
X190719941Y-59767459D01*
X190733883Y-59737420D01*
X190745578Y-59712148D01*
X190745876Y-59711504D01*
X190757290Y-59686847D01*
X190771171Y-59656970D01*
X190784682Y-59627973D01*
X190785815Y-59625545D01*
X190800330Y-59594466D01*
X190816605Y-59559618D01*
X190831069Y-59528646D01*
X190844402Y-59500040D01*
X190858368Y-59469988D01*
X190870130Y-59444591D01*
X190871009Y-59442688D01*
X190882586Y-59417667D01*
X190896503Y-59387681D01*
X190909804Y-59359094D01*
X190910178Y-59358292D01*
X190923718Y-59329152D01*
X190938238Y-59297752D01*
X190950607Y-59270868D01*
X190950651Y-59270770D01*
X190962830Y-59244343D01*
X190977337Y-59213085D01*
X190991165Y-59183477D01*
X190992005Y-59181686D01*
X191014467Y-59133771D01*
X191037558Y-59084416D01*
X191060207Y-59035920D01*
X191081341Y-58990580D01*
X191099890Y-58950696D01*
X191114780Y-58918567D01*
X191121012Y-58905055D01*
X191147281Y-58848031D01*
X191169944Y-58799025D01*
X191190558Y-58754672D01*
X191198417Y-58737827D01*
X191212931Y-58706748D01*
X191229206Y-58671900D01*
X191243671Y-58640928D01*
X191257004Y-58612322D01*
X191270969Y-58582269D01*
X191282732Y-58556872D01*
X191283610Y-58554969D01*
X191294866Y-58530647D01*
X191308688Y-58500867D01*
X191322351Y-58471501D01*
X191324240Y-58467448D01*
X191347488Y-58417572D01*
X191366280Y-58377224D01*
X191381454Y-58344603D01*
X191393846Y-58317910D01*
X191404293Y-58295345D01*
X191408539Y-58286153D01*
X191420301Y-58260731D01*
X191434415Y-58230350D01*
X191451660Y-58193335D01*
X191472816Y-58148010D01*
X191492980Y-58104859D01*
X191506554Y-58075753D01*
X191520828Y-58045035D01*
X191532995Y-58018749D01*
X191534367Y-58015774D01*
X191547389Y-57987522D01*
X191561750Y-57956363D01*
X191570383Y-57937630D01*
X191582197Y-57912082D01*
X191596391Y-57881506D01*
X191610044Y-57852195D01*
X191611018Y-57850108D01*
X191625533Y-57819029D01*
X191641808Y-57784182D01*
X191656272Y-57753210D01*
X191669605Y-57724604D01*
X191683571Y-57694551D01*
X191695333Y-57669154D01*
X191696212Y-57667251D01*
X191707623Y-57642587D01*
X191721490Y-57612702D01*
X191734978Y-57583701D01*
X191736100Y-57581292D01*
X191750585Y-57550206D01*
X191766826Y-57515352D01*
X191781252Y-57484393D01*
X191794563Y-57455780D01*
X191808513Y-57425721D01*
X191820269Y-57400322D01*
X191821140Y-57398435D01*
X191832399Y-57374120D01*
X191846237Y-57344350D01*
X191859927Y-57314989D01*
X191861832Y-57310913D01*
X191886661Y-57257774D01*
X191906957Y-57214278D01*
X191923501Y-57178749D01*
X191937072Y-57149514D01*
X191946273Y-57129619D01*
X191957851Y-57104598D01*
X191971767Y-57074612D01*
X191985069Y-57046025D01*
X191985443Y-57045223D01*
X191998982Y-57016083D01*
X192013503Y-56984683D01*
X192025871Y-56957799D01*
X192025916Y-56957701D01*
X192038095Y-56931273D01*
X192052602Y-56900016D01*
X192066430Y-56870408D01*
X192067270Y-56868617D01*
X192081849Y-56837553D01*
X192098196Y-56802720D01*
X192112745Y-56771718D01*
X192126418Y-56742457D01*
X192140974Y-56711107D01*
X192153406Y-56684145D01*
X192154099Y-56682634D01*
X192166451Y-56655784D01*
X192180969Y-56624389D01*
X192194520Y-56595225D01*
X192194572Y-56595112D01*
X192207807Y-56566671D01*
X192221749Y-56536633D01*
X192233444Y-56511360D01*
X192233742Y-56510716D01*
X192245156Y-56486060D01*
X192259037Y-56456182D01*
X192272548Y-56427185D01*
X192273681Y-56424758D01*
X192288196Y-56393678D01*
X192304471Y-56358831D01*
X192318935Y-56327859D01*
X192332268Y-56299253D01*
X192346234Y-56269200D01*
X192357996Y-56243803D01*
X192358875Y-56241900D01*
X192370452Y-56216879D01*
X192384369Y-56186894D01*
X192397671Y-56158306D01*
X192398044Y-56157504D01*
X192411584Y-56128365D01*
X192426104Y-56096964D01*
X192438473Y-56070080D01*
X192438517Y-56069983D01*
X192450524Y-56043934D01*
X192464980Y-56012796D01*
X192478999Y-55982786D01*
X192480618Y-55979336D01*
X192494089Y-55950568D01*
X192508112Y-55920494D01*
X192519957Y-55894971D01*
X192521415Y-55891814D01*
X192565043Y-55797852D01*
X192607710Y-55707036D01*
X192613459Y-55694891D01*
X192641598Y-55635501D01*
X192634006Y-55594866D01*
X192629151Y-55569720D01*
X192624335Y-55546124D01*
X192621318Y-55532351D01*
X192617039Y-55513254D01*
X192611828Y-55489025D01*
X192609122Y-55476087D01*
X192603902Y-55451185D01*
X192598648Y-55426692D01*
X192596452Y-55416697D01*
X192592603Y-55399352D01*
X192587022Y-55374111D01*
X192580661Y-55345291D01*
X192577798Y-55332301D01*
X192566861Y-55283146D01*
X192555369Y-55232362D01*
X192544043Y-55183071D01*
X192533602Y-55138391D01*
X192524765Y-55101445D01*
X192521583Y-55088491D01*
X192512550Y-55052247D01*
X192505540Y-55024354D01*
X192499595Y-55001021D01*
X192496358Y-54988467D01*
X192490519Y-54965521D01*
X192485027Y-54943321D01*
X192483854Y-54938454D01*
X192479689Y-54921436D01*
X192474548Y-54901381D01*
X192467759Y-54875740D01*
X192458652Y-54841964D01*
X192452597Y-54819675D01*
X192442622Y-54783056D01*
X192435330Y-54756389D01*
X192430131Y-54737561D01*
X192426436Y-54724457D01*
X192423657Y-54714961D01*
X192421264Y-54707148D01*
X192417188Y-54693593D01*
X192410959Y-54672326D01*
X192403837Y-54647661D01*
X192402970Y-54644632D01*
X192394106Y-54614808D01*
X192382663Y-54578076D01*
X192369158Y-54535949D01*
X192354109Y-54489936D01*
X192338031Y-54441548D01*
X192321442Y-54392295D01*
X192304859Y-54343689D01*
X192288799Y-54297240D01*
X192273777Y-54254458D01*
X192260313Y-54216854D01*
X192248921Y-54185940D01*
X192240119Y-54163224D01*
X192234425Y-54150219D01*
X192233023Y-54147947D01*
X192227784Y-54136483D01*
X192227541Y-54133813D01*
X192225125Y-54123696D01*
X192218958Y-54106922D01*
X192214311Y-54095992D01*
X192204591Y-54074034D01*
X192195447Y-54053073D01*
X192192430Y-54046047D01*
X192183906Y-54026027D01*
X192174660Y-54004316D01*
X192173796Y-54002287D01*
X192160389Y-53972273D01*
X192143633Y-53937032D01*
X192124449Y-53898285D01*
X192103758Y-53857754D01*
X192082480Y-53817160D01*
X192061537Y-53778224D01*
X192041848Y-53742670D01*
X192024335Y-53712217D01*
X192009919Y-53688588D01*
X191999520Y-53673504D01*
X191995747Y-53669392D01*
X191990187Y-53662010D01*
X191983822Y-53651031D01*
X191975809Y-53637166D01*
X191970276Y-53629151D01*
X191964206Y-53621334D01*
X191952784Y-53606231D01*
X191938095Y-53586608D01*
X191932242Y-53578745D01*
X191911203Y-53550728D01*
X191893698Y-53528405D01*
X191877076Y-53508734D01*
X191858688Y-53488671D01*
X191835881Y-53465175D01*
X191815044Y-53444232D01*
X191784802Y-53414312D01*
X191760793Y-53391440D01*
X191740693Y-53373551D01*
X191722178Y-53358577D01*
X191702923Y-53344451D01*
X191702401Y-53344084D01*
X191688185Y-53333808D01*
X191678816Y-53326546D01*
X191677406Y-53325256D01*
X191665652Y-53315835D01*
X191645029Y-53302702D01*
X191618077Y-53287261D01*
X191587337Y-53270917D01*
X191555348Y-53255073D01*
X191527369Y-53242307D01*
X191452615Y-53215538D01*
X191371606Y-53196640D01*
X191288260Y-53186211D01*
X191206490Y-53184849D01*
X191168916Y-53187594D01*
X191134672Y-53191390D01*
X191107252Y-53195032D01*
X191082011Y-53199316D01*
X191054308Y-53205038D01*
X191019500Y-53212992D01*
X191016306Y-53213741D01*
X190973221Y-53225934D01*
X190924828Y-53243114D01*
X190874074Y-53263930D01*
X190823904Y-53287031D01*
X190777267Y-53311068D01*
X190737107Y-53334687D01*
X190708418Y-53354887D01*
X190699098Y-53362047D01*
X190682881Y-53374254D01*
X190662927Y-53389133D01*
X190658505Y-53392413D01*
X190635545Y-53410756D01*
X190608375Y-53434517D01*
X190579287Y-53461466D01*
X190550574Y-53489375D01*
X190524530Y-53516012D01*
X190503446Y-53539148D01*
X190489617Y-53556553D01*
X190489405Y-53556864D01*
X190479335Y-53571177D01*
X190472050Y-53580540D01*
X190470748Y-53581871D01*
X190463886Y-53589863D01*
X190453751Y-53604150D01*
X190442740Y-53621007D01*
X190433253Y-53636706D01*
X190427689Y-53647519D01*
X190427098Y-53649680D01*
X190422752Y-53657472D01*
X190421832Y-53657931D01*
X190417296Y-53664070D01*
X190408701Y-53679269D01*
X190397195Y-53701224D01*
X190383930Y-53727630D01*
X190370055Y-53756181D01*
X190356721Y-53784573D01*
X190345077Y-53810501D01*
X190341250Y-53819429D01*
X190333785Y-53839007D01*
X190324058Y-53867096D01*
X190313197Y-53900177D01*
X190302330Y-53934725D01*
X190292584Y-53967218D01*
X190285089Y-53994135D01*
X190284197Y-53997598D01*
X190273674Y-54042235D01*
X190263293Y-54092034D01*
X190253466Y-54144446D01*
X190244604Y-54196926D01*
X190237119Y-54246927D01*
X190231420Y-54291901D01*
X190227921Y-54329302D01*
X190226980Y-54352014D01*
X190226165Y-54376542D01*
X190224182Y-54400244D01*
X190223037Y-54408637D01*
X190219162Y-54432080D01*
X190091823Y-54432080D01*
X189964485Y-54432080D01*
X189964476Y-54352373D01*
X189965961Y-54278169D01*
X189970229Y-54194637D01*
X189976971Y-54104565D01*
X189985880Y-54010740D01*
X189996649Y-53915949D01*
X190008970Y-53822981D01*
X190022535Y-53734621D01*
X190037038Y-53653659D01*
X190046700Y-53606877D01*
X190054664Y-53570703D01*
X190060709Y-53543547D01*
X190065587Y-53522213D01*
X190070047Y-53503504D01*
X190074841Y-53484224D01*
X190080719Y-53461177D01*
X190083038Y-53452151D01*
X190090885Y-53423063D01*
X190100858Y-53388227D01*
X190112135Y-53350296D01*
X190123894Y-53311922D01*
X190135315Y-53275761D01*
X190145576Y-53244464D01*
X190153854Y-53220687D01*
X190158044Y-53209904D01*
X190162860Y-53198029D01*
X190170518Y-53178522D01*
X190179426Y-53155438D01*
X190180114Y-53153640D01*
X190189833Y-53128566D01*
X190199206Y-53104962D01*
X190206177Y-53087999D01*
X190213340Y-53072034D01*
X190224011Y-53049274D01*
X190237120Y-53021898D01*
X190251595Y-52992080D01*
X190266367Y-52961998D01*
X190280365Y-52933828D01*
X190292518Y-52909745D01*
X190301756Y-52891926D01*
X190307008Y-52882548D01*
X190307656Y-52881698D01*
X190312577Y-52874791D01*
X190320971Y-52860595D01*
X190326565Y-52850441D01*
X190335420Y-52835319D01*
X190349474Y-52812880D01*
X190367294Y-52785265D01*
X190387445Y-52754619D01*
X190408494Y-52723085D01*
X190429005Y-52692807D01*
X190447546Y-52665928D01*
X190462682Y-52644591D01*
X190472978Y-52630940D01*
X190475053Y-52628506D01*
X190485727Y-52615839D01*
X190499296Y-52598498D01*
X190504913Y-52590997D01*
X190517436Y-52575859D01*
X190537152Y-52554201D01*
X190562082Y-52527998D01*
X190590248Y-52499229D01*
X190619673Y-52469872D01*
X190648378Y-52441903D01*
X190674385Y-52417300D01*
X190695716Y-52398041D01*
X190708418Y-52387557D01*
X190724364Y-52375338D01*
X190735912Y-52366208D01*
X190739675Y-52362982D01*
X190748964Y-52355283D01*
X190763978Y-52344698D01*
X190781028Y-52333602D01*
X190796426Y-52324370D01*
X190806482Y-52319376D01*
X190807901Y-52319060D01*
X190814409Y-52315296D01*
X190814694Y-52313791D01*
X190819966Y-52309280D01*
X190834162Y-52300761D01*
X190854844Y-52289457D01*
X190879579Y-52276589D01*
X190905933Y-52263379D01*
X190931470Y-52251048D01*
X190953755Y-52240818D01*
X190970354Y-52233910D01*
X190978617Y-52231538D01*
X190990752Y-52228066D01*
X190993175Y-52226374D01*
X191003883Y-52220965D01*
X191024494Y-52213796D01*
X191052642Y-52205497D01*
X191085959Y-52196702D01*
X191122075Y-52188040D01*
X191158624Y-52180143D01*
X191186660Y-52174787D01*
X191214127Y-52171381D01*
X191250693Y-52168946D01*
X191293318Y-52167479D01*
X191338963Y-52166979D01*
X191384590Y-52167443D01*
G37*
D12*
X171846804Y-112765000D02*
X171392676Y-112765000D01*
X171846804Y-114235000D02*
X171392676Y-114235000D01*
X150738748Y-76765000D02*
X151261252Y-76765000D01*
X150738748Y-78235000D02*
X151261252Y-78235000D01*
X103100000Y-108160000D02*
X103100000Y-108660000D01*
X103340000Y-108400000D02*
X103340000Y-109170000D01*
X103340000Y-110750000D02*
X103340000Y-111710000D01*
X103340000Y-113290000D02*
X103340000Y-114250000D01*
X103340000Y-115830000D02*
X103340000Y-116600000D01*
X103840000Y-108160000D02*
X103100000Y-108160000D01*
X103900000Y-108400000D02*
X103900000Y-109170000D01*
X103900000Y-110750000D02*
X103900000Y-111710000D01*
X103900000Y-113290000D02*
X103900000Y-114250000D01*
X103900000Y-115830000D02*
X103900000Y-116600000D01*
X109200000Y-108400000D02*
X109200000Y-116600000D01*
X109660000Y-108400000D02*
X103340000Y-108400000D01*
X109660000Y-108400000D02*
X109660000Y-116600000D01*
X109660000Y-116600000D02*
X103340000Y-116600000D01*
X168265000Y-84772936D02*
X168265000Y-85227064D01*
X169735000Y-84772936D02*
X169735000Y-85227064D01*
X171765000Y-80772936D02*
X171765000Y-81227064D01*
X173235000Y-80772936D02*
X173235000Y-81227064D01*
X143011252Y-122765000D02*
X142488748Y-122765000D01*
X143011252Y-124235000D02*
X142488748Y-124235000D01*
D13*
X159859740Y-121980000D02*
X161059740Y-121980000D01*
X161059740Y-123020000D02*
X159859740Y-123020000D01*
D14*
X162059740Y-122500000D02*
G75*
G02*
X161859740Y-122500000I-100000J0D01*
G01*
X161859740Y-122500000D02*
G75*
G02*
X162059740Y-122500000I100000J0D01*
G01*
D12*
X154880000Y-48570000D02*
X154880000Y-54730000D01*
X154880000Y-48570000D02*
X173120000Y-48570000D01*
X154880000Y-73530000D02*
X154880000Y-74310000D01*
X154880000Y-74310000D02*
X155880000Y-74310000D01*
X173120000Y-48570000D02*
X173120000Y-54985000D01*
X173120000Y-73530000D02*
X173120000Y-74310000D01*
X173120000Y-74310000D02*
X172120000Y-74310000D01*
X154875000Y-55455000D02*
X154375000Y-55455000D01*
X154875000Y-54955000D01*
X154875000Y-55455000D01*
G36*
X154875000Y-55455000D02*
G01*
X154375000Y-55455000D01*
X154875000Y-54955000D01*
X154875000Y-55455000D01*
G37*
X153846804Y-102765000D02*
X153392676Y-102765000D01*
X153846804Y-104235000D02*
X153392676Y-104235000D01*
X109677500Y-61772936D02*
X109677500Y-62227064D01*
X111147500Y-61772936D02*
X111147500Y-62227064D01*
D13*
X143100000Y-86650000D02*
X143100000Y-88350000D01*
X144400000Y-88350000D02*
X144400000Y-86650000D01*
D14*
X143850000Y-85300000D02*
G75*
G02*
X143650000Y-85300000I-100000J0D01*
G01*
X143650000Y-85300000D02*
G75*
G02*
X143850000Y-85300000I100000J0D01*
G01*
D13*
X172730000Y-139850000D02*
X172730000Y-138650000D01*
X173770000Y-138650000D02*
X173770000Y-139850000D01*
D14*
X173350000Y-137750000D02*
G75*
G02*
X173150000Y-137750000I-100000J0D01*
G01*
X173150000Y-137750000D02*
G75*
G02*
X173350000Y-137750000I100000J0D01*
G01*
D13*
X139679740Y-111980000D02*
X140879740Y-111980000D01*
X140879740Y-113020000D02*
X139679740Y-113020000D01*
D14*
X141879740Y-112500000D02*
G75*
G02*
X141679740Y-112500000I-100000J0D01*
G01*
X141679740Y-112500000D02*
G75*
G02*
X141879740Y-112500000I100000J0D01*
G01*
D12*
X111772936Y-75765000D02*
X112227064Y-75765000D01*
X111772936Y-77235000D02*
X112227064Y-77235000D01*
X100390000Y-48690000D02*
X113110000Y-48690000D01*
X100390000Y-49910000D02*
X101610000Y-49910000D01*
X100390000Y-57110000D02*
X100390000Y-48690000D01*
X101610000Y-49910000D02*
X101610000Y-54910000D01*
X101610000Y-53910000D02*
X111890000Y-53910000D01*
X101610000Y-54910000D02*
X100390000Y-54910000D01*
X101610000Y-54910000D02*
X101610000Y-57110000D01*
X101610000Y-57110000D02*
X100390000Y-57110000D01*
X102680000Y-50490000D02*
X103000000Y-50410000D01*
X102680000Y-53910000D02*
X102680000Y-50490000D01*
X102700000Y-57600000D02*
X103300000Y-57600000D01*
X103000000Y-50410000D02*
X103320000Y-50490000D01*
X103000000Y-53910000D02*
X102680000Y-53910000D01*
X103000000Y-57000000D02*
X102700000Y-57600000D01*
X103300000Y-57600000D02*
X103000000Y-57000000D01*
X103320000Y-50490000D02*
X103320000Y-53910000D01*
X103320000Y-53910000D02*
X103000000Y-53910000D01*
X104170000Y-54910000D02*
X104330000Y-54910000D01*
X105180000Y-50490000D02*
X105500000Y-50410000D01*
X105180000Y-53910000D02*
X105180000Y-50490000D01*
X105500000Y-50410000D02*
X105820000Y-50490000D01*
X105500000Y-53910000D02*
X105180000Y-53910000D01*
X105820000Y-50490000D02*
X105820000Y-53910000D01*
X105820000Y-53910000D02*
X105500000Y-53910000D01*
X106670000Y-54910000D02*
X106830000Y-54910000D01*
X107680000Y-50490000D02*
X108000000Y-50410000D01*
X107680000Y-53910000D02*
X107680000Y-50490000D01*
X108000000Y-50410000D02*
X108320000Y-50490000D01*
X108000000Y-53910000D02*
X107680000Y-53910000D01*
X108320000Y-50490000D02*
X108320000Y-53910000D01*
X108320000Y-53910000D02*
X108000000Y-53910000D01*
X109170000Y-54910000D02*
X109330000Y-54910000D01*
X110180000Y-50490000D02*
X110500000Y-50410000D01*
X110180000Y-53910000D02*
X110180000Y-50490000D01*
X110500000Y-50410000D02*
X110820000Y-50490000D01*
X110500000Y-53910000D02*
X110180000Y-53910000D01*
X110820000Y-50490000D02*
X110820000Y-53910000D01*
X110820000Y-53910000D02*
X110500000Y-53910000D01*
X111890000Y-49910000D02*
X111890000Y-54910000D01*
X111890000Y-54910000D02*
X113110000Y-54910000D01*
X111890000Y-57110000D02*
X111890000Y-54910000D01*
X113110000Y-48690000D02*
X113110000Y-57110000D01*
X113110000Y-49910000D02*
X111890000Y-49910000D01*
X113110000Y-57110000D02*
X111890000Y-57110000D01*
X145261252Y-76765000D02*
X144738748Y-76765000D01*
X145261252Y-78235000D02*
X144738748Y-78235000D01*
X182965000Y-89272936D02*
X182965000Y-89727064D01*
X184435000Y-89272936D02*
X184435000Y-89727064D01*
X150889740Y-110615000D02*
X150889740Y-110130000D01*
X150889740Y-115110000D02*
X150889740Y-114385000D01*
X151614740Y-109890000D02*
X151189740Y-109890000D01*
X151614740Y-115110000D02*
X150889740Y-115110000D01*
X155384740Y-109890000D02*
X156109740Y-109890000D01*
X155384740Y-115110000D02*
X156109740Y-115110000D01*
X156109740Y-109890000D02*
X156109740Y-110615000D01*
X156109740Y-115110000D02*
X156109740Y-114385000D01*
X150889740Y-109890000D02*
X150649740Y-109560000D01*
X151129740Y-109560000D01*
X150889740Y-109890000D01*
G36*
X150889740Y-109890000D02*
G01*
X150649740Y-109560000D01*
X151129740Y-109560000D01*
X150889740Y-109890000D01*
G37*
X144884740Y-116727064D02*
X144884740Y-116272936D01*
X146354740Y-116727064D02*
X146354740Y-116272936D01*
X109765000Y-98977936D02*
X109765000Y-99432064D01*
X111235000Y-98977936D02*
X111235000Y-99432064D01*
X193867500Y-98450000D02*
X193867500Y-99050000D01*
X193867500Y-99050000D02*
X194467500Y-98750000D01*
X194357500Y-96140000D02*
X202777500Y-96140000D01*
X194357500Y-97360000D02*
X194357500Y-96140000D01*
X194357500Y-107640000D02*
X196557500Y-107640000D01*
X194357500Y-108860000D02*
X194357500Y-107640000D01*
X194467500Y-98750000D02*
X193867500Y-98450000D01*
X196557500Y-97360000D02*
X194357500Y-97360000D01*
X196557500Y-97360000D02*
X196557500Y-96140000D01*
X196557500Y-99920000D02*
X196557500Y-100080000D01*
X196557500Y-102420000D02*
X196557500Y-102580000D01*
X196557500Y-104920000D02*
X196557500Y-105080000D01*
X196557500Y-107640000D02*
X196557500Y-108860000D01*
X197557500Y-97360000D02*
X197557500Y-107640000D01*
X197557500Y-98430000D02*
X200977500Y-98430000D01*
X197557500Y-98750000D02*
X197557500Y-98430000D01*
X197557500Y-99070000D02*
X197557500Y-98750000D01*
X197557500Y-100930000D02*
X200977500Y-100930000D01*
X197557500Y-101250000D02*
X197557500Y-100930000D01*
X197557500Y-101570000D02*
X197557500Y-101250000D01*
X197557500Y-103430000D02*
X200977500Y-103430000D01*
X197557500Y-103750000D02*
X197557500Y-103430000D01*
X197557500Y-104070000D02*
X197557500Y-103750000D01*
X197557500Y-105930000D02*
X200977500Y-105930000D01*
X197557500Y-106250000D02*
X197557500Y-105930000D01*
X197557500Y-106570000D02*
X197557500Y-106250000D01*
X200977500Y-98430000D02*
X201057500Y-98750000D01*
X200977500Y-99070000D02*
X197557500Y-99070000D01*
X200977500Y-100930000D02*
X201057500Y-101250000D01*
X200977500Y-101570000D02*
X197557500Y-101570000D01*
X200977500Y-103430000D02*
X201057500Y-103750000D01*
X200977500Y-104070000D02*
X197557500Y-104070000D01*
X200977500Y-105930000D02*
X201057500Y-106250000D01*
X200977500Y-106570000D02*
X197557500Y-106570000D01*
X201057500Y-98750000D02*
X200977500Y-99070000D01*
X201057500Y-101250000D02*
X200977500Y-101570000D01*
X201057500Y-103750000D02*
X200977500Y-104070000D01*
X201057500Y-106250000D02*
X200977500Y-106570000D01*
X201557500Y-96140000D02*
X201557500Y-97360000D01*
X201557500Y-97360000D02*
X196557500Y-97360000D01*
X201557500Y-107640000D02*
X196557500Y-107640000D01*
X201557500Y-108860000D02*
X201557500Y-107640000D01*
X202777500Y-96140000D02*
X202777500Y-108860000D01*
X202777500Y-108860000D02*
X194357500Y-108860000D01*
X148738748Y-85765000D02*
X149261252Y-85765000D01*
X148738748Y-87235000D02*
X149261252Y-87235000D01*
X186727064Y-86765000D02*
X186272936Y-86765000D01*
X186727064Y-88235000D02*
X186272936Y-88235000D01*
%LPC*%
D16*
X105500000Y-76000000D03*
D17*
X105500000Y-73500000D03*
X105500000Y-71000000D03*
X105500000Y-68500000D03*
D18*
X178650000Y-142000000D03*
X179300000Y-142000000D03*
X179950000Y-142000000D03*
X180600000Y-142000000D03*
X181250000Y-142000000D03*
D19*
X177150000Y-141750000D03*
D20*
X179950000Y-143900000D03*
D19*
X182750000Y-141750000D03*
D21*
X107912500Y-91205000D03*
X106087500Y-91205000D03*
D22*
X187600000Y-76675000D03*
X187600000Y-78500000D03*
D23*
X146750000Y-101250000D03*
D24*
X119950000Y-55332500D03*
D25*
X122450000Y-55332500D03*
X124950000Y-55332500D03*
X127450000Y-55332500D03*
X129950000Y-55332500D03*
X132450000Y-55332500D03*
D26*
X167619740Y-106490000D03*
X165719740Y-106490000D03*
X166669740Y-108510000D03*
D27*
X172050000Y-120500000D03*
X173950000Y-120500000D03*
D28*
X166619740Y-113600000D03*
X166619740Y-115500000D03*
D29*
X186875000Y-141250000D03*
X194625000Y-141250000D03*
D30*
X117000000Y-87125000D03*
D31*
X117000000Y-89665000D03*
X117000000Y-92205000D03*
X117000000Y-94745000D03*
X117000000Y-97285000D03*
X117000000Y-99825000D03*
X117000000Y-102365000D03*
X117000000Y-104905000D03*
D22*
X153750000Y-121087500D03*
X153750000Y-122912500D03*
D32*
X174250000Y-100312500D03*
X174250000Y-102187500D03*
D22*
X117062500Y-77175000D03*
X117062500Y-79000000D03*
D27*
X141719740Y-108000000D03*
X143619740Y-108000000D03*
D33*
X152837500Y-86750000D03*
X154662500Y-86750000D03*
D22*
X162119740Y-103587500D03*
X162119740Y-105412500D03*
D33*
X146675000Y-122000000D03*
X148500000Y-122000000D03*
D34*
X195967500Y-80500000D03*
D17*
X195967500Y-83000000D03*
X195967500Y-85500000D03*
X195967500Y-88000000D03*
D27*
X146119740Y-108000000D03*
X148019740Y-108000000D03*
D35*
X167599740Y-101560000D03*
X167599740Y-103460000D03*
X169619740Y-102510000D03*
D33*
X165707240Y-97000000D03*
X167532240Y-97000000D03*
D29*
X160625000Y-141250000D03*
X168375000Y-141250000D03*
D21*
X188412500Y-72000000D03*
X186587500Y-72000000D03*
D36*
X106020000Y-138500000D03*
D37*
X109830000Y-138500000D03*
X113640000Y-138500000D03*
X117450000Y-138500000D03*
X121260000Y-138500000D03*
X125070000Y-138500000D03*
X128880000Y-138500000D03*
X132690000Y-138500000D03*
X136500000Y-138500000D03*
X140310000Y-138500000D03*
X144120000Y-138500000D03*
X147930000Y-138500000D03*
X151740000Y-138500000D03*
D33*
X104587500Y-61000000D03*
X106412500Y-61000000D03*
D21*
X172532240Y-113500000D03*
X170707240Y-113500000D03*
D27*
X150050000Y-77500000D03*
X151950000Y-77500000D03*
D38*
X103960000Y-109960000D03*
X103960000Y-112500000D03*
X103960000Y-115040000D03*
D39*
X106500000Y-109960000D03*
D40*
X106500000Y-112500000D03*
X106500000Y-115040000D03*
D22*
X169000000Y-84087500D03*
X169000000Y-85912500D03*
X172500000Y-80087500D03*
X172500000Y-81912500D03*
D41*
X143700000Y-123500000D03*
X141800000Y-123500000D03*
D42*
X161119740Y-122500000D03*
X159799740Y-122500000D03*
D43*
X155250000Y-56180000D03*
X155250000Y-57450000D03*
X155250000Y-58720000D03*
X155250000Y-59990000D03*
X155250000Y-61260000D03*
X155250000Y-62530000D03*
X155250000Y-63800000D03*
X155250000Y-65070000D03*
X155250000Y-66340000D03*
X155250000Y-67610000D03*
X155250000Y-68880000D03*
X155250000Y-70150000D03*
X155250000Y-71420000D03*
X155250000Y-72690000D03*
D44*
X158290000Y-73940000D03*
X159560000Y-73940000D03*
X160830000Y-73940000D03*
X162100000Y-73940000D03*
X163370000Y-73940000D03*
X164640000Y-73940000D03*
X165910000Y-73940000D03*
X167180000Y-73940000D03*
X168450000Y-73940000D03*
X169720000Y-73940000D03*
D43*
X172750000Y-72690000D03*
X172750000Y-71420000D03*
X172750000Y-70150000D03*
X172750000Y-68880000D03*
X172750000Y-67610000D03*
X172750000Y-66340000D03*
X172750000Y-65070000D03*
X172750000Y-63800000D03*
X172750000Y-62530000D03*
X172750000Y-61260000D03*
X172750000Y-59990000D03*
X172750000Y-58720000D03*
X172750000Y-57450000D03*
X172750000Y-56180000D03*
D45*
X161100000Y-63200000D03*
X161100000Y-64600000D03*
X161800000Y-62500000D03*
X161800000Y-63900000D03*
X161800000Y-65300000D03*
X162475000Y-63200000D03*
X162475000Y-64600000D03*
D46*
X162500000Y-63900000D03*
D45*
X163200000Y-62500000D03*
X163200000Y-63900000D03*
X163200000Y-65300000D03*
X163900000Y-63200000D03*
X163900000Y-64600000D03*
D21*
X154532240Y-103500000D03*
X152707240Y-103500000D03*
D22*
X110412500Y-61087500D03*
X110412500Y-62912500D03*
D47*
X143750000Y-88690000D03*
X143750000Y-86310000D03*
D48*
X173250000Y-138590000D03*
X173250000Y-139910000D03*
D42*
X140939740Y-112500000D03*
X139619740Y-112500000D03*
D33*
X111087500Y-76500000D03*
X112912500Y-76500000D03*
D24*
X103000000Y-55500000D03*
D25*
X105500000Y-55500000D03*
X108000000Y-55500000D03*
X110500000Y-55500000D03*
D41*
X145950000Y-77500000D03*
X144050000Y-77500000D03*
D22*
X183700000Y-88587500D03*
X183700000Y-90412500D03*
D49*
X151049740Y-111000000D03*
X151049740Y-111500000D03*
X151049740Y-112000000D03*
X151049740Y-112500000D03*
X151049740Y-113000000D03*
X151049740Y-113500000D03*
X151049740Y-114000000D03*
D50*
X151999740Y-114950000D03*
X152499740Y-114950000D03*
X152999740Y-114950000D03*
X153499740Y-114950000D03*
X153999740Y-114950000D03*
X154499740Y-114950000D03*
X154999740Y-114950000D03*
D49*
X155949740Y-114000000D03*
X155949740Y-113500000D03*
X155949740Y-113000000D03*
X155949740Y-112500000D03*
X155949740Y-112000000D03*
X155949740Y-111500000D03*
X155949740Y-111000000D03*
D50*
X154999740Y-110050000D03*
X154499740Y-110050000D03*
X153999740Y-110050000D03*
X153499740Y-110050000D03*
X152999740Y-110050000D03*
X152499740Y-110050000D03*
X151999740Y-110050000D03*
D51*
X153499740Y-112500000D03*
D52*
X145619740Y-117412500D03*
X145619740Y-115587500D03*
D22*
X110500000Y-98292500D03*
X110500000Y-100117500D03*
D34*
X195967500Y-98750000D03*
D17*
X195967500Y-101250000D03*
X195967500Y-103750000D03*
X195967500Y-106250000D03*
D27*
X148050000Y-86500000D03*
X149950000Y-86500000D03*
D21*
X187412500Y-87500000D03*
X185587500Y-87500000D03*
%LPD*%
M02*
