G04 #@! TF.GenerationSoftware,KiCad,Pcbnew,8.0.8*
G04 #@! TF.CreationDate,2025-01-30T15:15:15-05:00*
G04 #@! TF.ProjectId,FORWARD-PCB,464f5257-4152-4442-9d50-43422e6b6963,rev?*
G04 #@! TF.SameCoordinates,Original*
G04 #@! TF.FileFunction,Paste,Top*
G04 #@! TF.FilePolarity,Positive*
%FSLAX46Y46*%
G04 Gerber Fmt 4.6, Leading zero omitted, Abs format (unit mm)*
G04 Created by KiCad (PCBNEW 8.0.8) date 2025-01-30 15:15:15*
%MOMM*%
%LPD*%
G01*
G04 APERTURE LIST*
G04 Aperture macros list*
%AMRoundRect*
0 Rectangle with rounded corners*
0 $1 Rounding radius*
0 $2 $3 $4 $5 $6 $7 $8 $9 X,Y pos of 4 corners*
0 Add a 4 corners polygon primitive as box body*
4,1,4,$2,$3,$4,$5,$6,$7,$8,$9,$2,$3,0*
0 Add four circle primitives for the rounded corners*
1,1,$1+$1,$2,$3*
1,1,$1+$1,$4,$5*
1,1,$1+$1,$6,$7*
1,1,$1+$1,$8,$9*
0 Add four rect primitives between the rounded corners*
20,1,$1+$1,$2,$3,$4,$5,0*
20,1,$1+$1,$4,$5,$6,$7,0*
20,1,$1+$1,$6,$7,$8,$9,0*
20,1,$1+$1,$8,$9,$2,$3,0*%
G04 Aperture macros list end*
%ADD10R,0.450000X1.500000*%
%ADD11RoundRect,0.250000X0.262500X0.450000X-0.262500X0.450000X-0.262500X-0.450000X0.262500X-0.450000X0*%
%ADD12RoundRect,0.250000X-0.450000X0.262500X-0.450000X-0.262500X0.450000X-0.262500X0.450000X0.262500X0*%
%ADD13R,0.600000X0.800000*%
%ADD14RoundRect,0.250000X-0.250000X-0.475000X0.250000X-0.475000X0.250000X0.475000X-0.250000X0.475000X0*%
%ADD15RoundRect,0.250000X-0.475000X0.250000X-0.475000X-0.250000X0.475000X-0.250000X0.475000X0.250000X0*%
%ADD16R,1.250000X1.000000*%
%ADD17RoundRect,0.243750X-0.456250X0.243750X-0.456250X-0.243750X0.456250X-0.243750X0.456250X0.243750X0*%
%ADD18RoundRect,0.250000X-0.262500X-0.450000X0.262500X-0.450000X0.262500X0.450000X-0.262500X0.450000X0*%
%ADD19R,0.800000X0.600000*%
%ADD20RoundRect,0.250000X0.250000X0.475000X-0.250000X0.475000X-0.250000X-0.475000X0.250000X-0.475000X0*%
%ADD21R,0.480000X0.400000*%
%ADD22R,1.500000X0.900000*%
%ADD23R,0.900000X1.500000*%
%ADD24R,0.900000X0.900000*%
%ADD25R,0.460000X1.040000*%
%ADD26R,0.400000X0.480000*%
%ADD27RoundRect,0.225000X-0.225000X-0.225000X0.225000X-0.225000X0.225000X0.225000X-0.225000X0.225000X0*%
%ADD28RoundRect,0.062500X-0.337500X-0.062500X0.337500X-0.062500X0.337500X0.062500X-0.337500X0.062500X0*%
%ADD29RoundRect,0.062500X-0.062500X-0.337500X0.062500X-0.337500X0.062500X0.337500X-0.062500X0.337500X0*%
%ADD30RoundRect,0.250000X0.450000X-0.262500X0.450000X0.262500X-0.450000X0.262500X-0.450000X-0.262500X0*%
G04 APERTURE END LIST*
D10*
X178650000Y-142000000D03*
X179300000Y-142000000D03*
X179950000Y-142000000D03*
X180600000Y-142000000D03*
X181250000Y-142000000D03*
D11*
X107912500Y-91205000D03*
X106087500Y-91205000D03*
D12*
X187600000Y-76675000D03*
X187600000Y-78500000D03*
D13*
X167619740Y-106490000D03*
X165719740Y-106490000D03*
X166669740Y-108510000D03*
D14*
X172050000Y-120500000D03*
X173950000Y-120500000D03*
D15*
X166619740Y-113600000D03*
X166619740Y-115500000D03*
D16*
X186875000Y-141250000D03*
X194625000Y-141250000D03*
D12*
X153750000Y-121087500D03*
X153750000Y-122912500D03*
D17*
X174250000Y-100312500D03*
X174250000Y-102187500D03*
D12*
X117062500Y-77175000D03*
X117062500Y-79000000D03*
D14*
X141719740Y-108000000D03*
X143619740Y-108000000D03*
D18*
X152837500Y-86750000D03*
X154662500Y-86750000D03*
D12*
X162119740Y-103587500D03*
X162119740Y-105412500D03*
D18*
X146675000Y-122000000D03*
X148500000Y-122000000D03*
D14*
X146119740Y-108000000D03*
X148019740Y-108000000D03*
D19*
X167599740Y-101560000D03*
X167599740Y-103460000D03*
X169619740Y-102510000D03*
D18*
X165707240Y-97000000D03*
X167532240Y-97000000D03*
D16*
X160625000Y-141250000D03*
X168375000Y-141250000D03*
D11*
X188412500Y-72000000D03*
X186587500Y-72000000D03*
D18*
X104587500Y-61000000D03*
X106412500Y-61000000D03*
D11*
X172532240Y-113500000D03*
X170707240Y-113500000D03*
D14*
X150050000Y-77500000D03*
X151950000Y-77500000D03*
D12*
X169000000Y-84087500D03*
X169000000Y-85912500D03*
X172500000Y-80087500D03*
X172500000Y-81912500D03*
D20*
X143700000Y-123500000D03*
X141800000Y-123500000D03*
D21*
X161119740Y-122500000D03*
X159799740Y-122500000D03*
D22*
X155250000Y-56180000D03*
X155250000Y-57450000D03*
X155250000Y-58720000D03*
X155250000Y-59990000D03*
X155250000Y-61260000D03*
X155250000Y-62530000D03*
X155250000Y-63800000D03*
X155250000Y-65070000D03*
X155250000Y-66340000D03*
X155250000Y-67610000D03*
X155250000Y-68880000D03*
X155250000Y-70150000D03*
X155250000Y-71420000D03*
X155250000Y-72690000D03*
D23*
X158290000Y-73940000D03*
X159560000Y-73940000D03*
X160830000Y-73940000D03*
X162100000Y-73940000D03*
X163370000Y-73940000D03*
X164640000Y-73940000D03*
X165910000Y-73940000D03*
X167180000Y-73940000D03*
X168450000Y-73940000D03*
X169720000Y-73940000D03*
D22*
X172750000Y-72690000D03*
X172750000Y-71420000D03*
X172750000Y-70150000D03*
X172750000Y-68880000D03*
X172750000Y-67610000D03*
X172750000Y-66340000D03*
X172750000Y-65070000D03*
X172750000Y-63800000D03*
X172750000Y-62530000D03*
X172750000Y-61260000D03*
X172750000Y-59990000D03*
X172750000Y-58720000D03*
X172750000Y-57450000D03*
X172750000Y-56180000D03*
D24*
X161100000Y-62500000D03*
X161100000Y-63900000D03*
X161100000Y-65300000D03*
X162500000Y-62500000D03*
X162500000Y-63900000D03*
X162500000Y-65300000D03*
X163900000Y-62500000D03*
X163900000Y-63900000D03*
X163900000Y-65300000D03*
D11*
X154532240Y-103500000D03*
X152707240Y-103500000D03*
D12*
X110412500Y-61087500D03*
X110412500Y-62912500D03*
D25*
X143750000Y-88690000D03*
X143750000Y-86310000D03*
D26*
X173250000Y-138590000D03*
X173250000Y-139910000D03*
D21*
X140939740Y-112500000D03*
X139619740Y-112500000D03*
D18*
X111087500Y-76500000D03*
X112912500Y-76500000D03*
D20*
X145950000Y-77500000D03*
X144050000Y-77500000D03*
D12*
X183700000Y-88587500D03*
X183700000Y-90412500D03*
D27*
X152379740Y-111380000D03*
X152379740Y-112500000D03*
X152379740Y-113620000D03*
X153499740Y-111380000D03*
X153499740Y-112500000D03*
X153499740Y-113620000D03*
X154619740Y-111380000D03*
X154619740Y-112500000D03*
X154619740Y-113620000D03*
D28*
X151049740Y-111000000D03*
X151049740Y-111500000D03*
X151049740Y-112000000D03*
X151049740Y-112500000D03*
X151049740Y-113000000D03*
X151049740Y-113500000D03*
X151049740Y-114000000D03*
D29*
X151999740Y-114950000D03*
X152499740Y-114950000D03*
X152999740Y-114950000D03*
X153499740Y-114950000D03*
X153999740Y-114950000D03*
X154499740Y-114950000D03*
X154999740Y-114950000D03*
D28*
X155949740Y-114000000D03*
X155949740Y-113500000D03*
X155949740Y-113000000D03*
X155949740Y-112500000D03*
X155949740Y-112000000D03*
X155949740Y-111500000D03*
X155949740Y-111000000D03*
D29*
X154999740Y-110050000D03*
X154499740Y-110050000D03*
X153999740Y-110050000D03*
X153499740Y-110050000D03*
X152999740Y-110050000D03*
X152499740Y-110050000D03*
X151999740Y-110050000D03*
D30*
X145619740Y-117412500D03*
X145619740Y-115587500D03*
D12*
X110500000Y-98292500D03*
X110500000Y-100117500D03*
D14*
X148050000Y-86500000D03*
X149950000Y-86500000D03*
D11*
X187412500Y-87500000D03*
X185587500Y-87500000D03*
M02*
