G04 #@! TF.GenerationSoftware,KiCad,Pcbnew,8.0.8*
G04 #@! TF.CreationDate,2025-01-30T15:17:16-05:00*
G04 #@! TF.ProjectId,FORWARD-PCB,464f5257-4152-4442-9d50-43422e6b6963,rev?*
G04 #@! TF.SameCoordinates,Original*
G04 #@! TF.FileFunction,Copper,L2,Inr*
G04 #@! TF.FilePolarity,Positive*
%FSLAX46Y46*%
G04 Gerber Fmt 4.6, Leading zero omitted, Abs format (unit mm)*
G04 Created by KiCad (PCBNEW 8.0.8) date 2025-01-30 15:17:16*
%MOMM*%
%LPD*%
G01*
G04 APERTURE LIST*
G04 Aperture macros list*
%AMRoundRect*
0 Rectangle with rounded corners*
0 $1 Rounding radius*
0 $2 $3 $4 $5 $6 $7 $8 $9 X,Y pos of 4 corners*
0 Add a 4 corners polygon primitive as box body*
4,1,4,$2,$3,$4,$5,$6,$7,$8,$9,$2,$3,0*
0 Add four circle primitives for the rounded corners*
1,1,$1+$1,$2,$3*
1,1,$1+$1,$4,$5*
1,1,$1+$1,$6,$7*
1,1,$1+$1,$8,$9*
0 Add four rect primitives between the rounded corners*
20,1,$1+$1,$2,$3,$4,$5,0*
20,1,$1+$1,$4,$5,$6,$7,0*
20,1,$1+$1,$6,$7,$8,$9,0*
20,1,$1+$1,$8,$9,$2,$3,0*%
G04 Aperture macros list end*
G04 #@! TA.AperFunction,ComponentPad*
%ADD10RoundRect,0.250000X0.725000X-0.600000X0.725000X0.600000X-0.725000X0.600000X-0.725000X-0.600000X0*%
G04 #@! TD*
G04 #@! TA.AperFunction,ComponentPad*
%ADD11O,1.950000X1.700000*%
G04 #@! TD*
G04 #@! TA.AperFunction,HeatsinkPad*
%ADD12O,1.800000X1.100000*%
G04 #@! TD*
G04 #@! TA.AperFunction,HeatsinkPad*
%ADD13O,2.200000X1.100000*%
G04 #@! TD*
G04 #@! TA.AperFunction,ComponentPad*
%ADD14RoundRect,0.250000X-0.600000X-0.725000X0.600000X-0.725000X0.600000X0.725000X-0.600000X0.725000X0*%
G04 #@! TD*
G04 #@! TA.AperFunction,ComponentPad*
%ADD15O,1.700000X1.950000*%
G04 #@! TD*
G04 #@! TA.AperFunction,ComponentPad*
%ADD16R,1.700000X1.700000*%
G04 #@! TD*
G04 #@! TA.AperFunction,ComponentPad*
%ADD17O,1.700000X1.700000*%
G04 #@! TD*
G04 #@! TA.AperFunction,ComponentPad*
%ADD18RoundRect,0.250000X-0.725000X0.600000X-0.725000X-0.600000X0.725000X-0.600000X0.725000X0.600000X0*%
G04 #@! TD*
G04 #@! TA.AperFunction,ComponentPad*
%ADD19RoundRect,0.250000X-0.650000X-1.550000X0.650000X-1.550000X0.650000X1.550000X-0.650000X1.550000X0*%
G04 #@! TD*
G04 #@! TA.AperFunction,ComponentPad*
%ADD20O,1.800000X3.600000*%
G04 #@! TD*
G04 #@! TA.AperFunction,ComponentPad*
%ADD21R,2.200000X2.200000*%
G04 #@! TD*
G04 #@! TA.AperFunction,ComponentPad*
%ADD22C,2.200000*%
G04 #@! TD*
G04 #@! TA.AperFunction,HeatsinkPad*
%ADD23C,0.600000*%
G04 #@! TD*
G04 #@! TA.AperFunction,ViaPad*
%ADD24C,0.800000*%
G04 #@! TD*
G04 #@! TA.AperFunction,ViaPad*
%ADD25C,0.400000*%
G04 #@! TD*
G04 APERTURE END LIST*
D10*
X105500000Y-76000000D03*
D11*
X105500000Y-73500000D03*
X105500000Y-71000000D03*
X105500000Y-68500000D03*
D12*
X177150000Y-141750000D03*
D13*
X179950000Y-143900000D03*
D12*
X182750000Y-141750000D03*
D14*
X119950000Y-55332500D03*
D15*
X122450000Y-55332500D03*
X124950000Y-55332500D03*
X127450000Y-55332500D03*
X129950000Y-55332500D03*
X132450000Y-55332500D03*
D16*
X117000000Y-87125000D03*
D17*
X117000000Y-89665000D03*
X117000000Y-92205000D03*
X117000000Y-94745000D03*
X117000000Y-97285000D03*
X117000000Y-99825000D03*
X117000000Y-102365000D03*
X117000000Y-104905000D03*
D18*
X195967500Y-80500000D03*
D11*
X195967500Y-83000000D03*
X195967500Y-85500000D03*
X195967500Y-88000000D03*
D19*
X106020000Y-138500000D03*
D20*
X109830000Y-138500000D03*
X113640000Y-138500000D03*
X117450000Y-138500000D03*
X121260000Y-138500000D03*
X125070000Y-138500000D03*
X128880000Y-138500000D03*
X132690000Y-138500000D03*
X136500000Y-138500000D03*
X140310000Y-138500000D03*
X144120000Y-138500000D03*
X147930000Y-138500000D03*
X151740000Y-138500000D03*
D21*
X106500000Y-109960000D03*
D22*
X106500000Y-112500000D03*
X106500000Y-115040000D03*
D23*
X161100000Y-63200000D03*
X161100000Y-64600000D03*
X161800000Y-62500000D03*
X161800000Y-63900000D03*
X161800000Y-65300000D03*
X162475000Y-63200000D03*
X162475000Y-64600000D03*
X163200000Y-62500000D03*
X163200000Y-63900000D03*
X163200000Y-65300000D03*
X163900000Y-63200000D03*
X163900000Y-64600000D03*
D14*
X103000000Y-55500000D03*
D15*
X105500000Y-55500000D03*
X108000000Y-55500000D03*
X110500000Y-55500000D03*
D18*
X195967500Y-98750000D03*
D11*
X195967500Y-101250000D03*
X195967500Y-103750000D03*
X195967500Y-106250000D03*
D24*
X142000000Y-80000000D03*
X143619740Y-120700000D03*
X152600000Y-75600000D03*
X166619740Y-117100000D03*
X185750000Y-139250000D03*
X147119740Y-105000000D03*
X158500000Y-141250000D03*
X138619740Y-111500000D03*
X158500000Y-111500000D03*
X185700000Y-90412500D03*
X151250000Y-119500000D03*
X185500000Y-143750000D03*
X175500000Y-120500000D03*
D25*
X157619740Y-122500000D03*
D24*
X151250000Y-84750000D03*
X159000000Y-71500000D03*
X144619740Y-105000000D03*
X140000000Y-125500000D03*
X108162500Y-62967500D03*
X173250000Y-141500000D03*
X113362500Y-79642500D03*
X154250000Y-84000000D03*
X124000000Y-66000000D03*
G04 #@! TA.AperFunction,Conductor*
G36*
X124507370Y-55149157D02*
G01*
X124475000Y-55269965D01*
X124475000Y-55395035D01*
X124507370Y-55515843D01*
X124545854Y-55582500D01*
X122854146Y-55582500D01*
X122892630Y-55515843D01*
X122925000Y-55395035D01*
X122925000Y-55269965D01*
X122892630Y-55149157D01*
X122854146Y-55082500D01*
X124545854Y-55082500D01*
X124507370Y-55149157D01*
G37*
G04 #@! TD.AperFunction*
G04 #@! TA.AperFunction,Conductor*
G36*
X139943039Y-50519685D02*
G01*
X139988794Y-50572489D01*
X140000000Y-50624000D01*
X140000000Y-54880000D01*
X188000000Y-54880000D01*
X188000000Y-50624000D01*
X188019685Y-50556961D01*
X188072489Y-50511206D01*
X188124000Y-50500000D01*
X198376000Y-50500000D01*
X198443039Y-50519685D01*
X198488794Y-50572489D01*
X198500000Y-50624000D01*
X198500000Y-144876000D01*
X198480315Y-144943039D01*
X198427511Y-144988794D01*
X198376000Y-145000000D01*
X181152459Y-145000000D01*
X181085420Y-144980315D01*
X181039665Y-144927511D01*
X181029721Y-144858353D01*
X181058746Y-144794797D01*
X181083568Y-144772898D01*
X181169335Y-144715589D01*
X181169339Y-144715586D01*
X181315586Y-144569339D01*
X181315589Y-144569335D01*
X181430494Y-144397368D01*
X181430499Y-144397358D01*
X181509648Y-144206276D01*
X181509649Y-144206274D01*
X181520843Y-144150000D01*
X180549728Y-144150000D01*
X180641614Y-144111940D01*
X180711940Y-144041614D01*
X180750000Y-143949728D01*
X180750000Y-143850272D01*
X180711940Y-143758386D01*
X180641614Y-143688060D01*
X180549728Y-143650000D01*
X181520843Y-143650000D01*
X181509649Y-143593725D01*
X181509648Y-143593723D01*
X181430499Y-143402641D01*
X181430494Y-143402631D01*
X181315589Y-143230664D01*
X181315586Y-143230660D01*
X181169339Y-143084413D01*
X181169335Y-143084410D01*
X180997368Y-142969505D01*
X180997358Y-142969500D01*
X180806274Y-142890350D01*
X180806266Y-142890348D01*
X180603420Y-142850000D01*
X180200000Y-142850000D01*
X180200000Y-143650000D01*
X179700000Y-143650000D01*
X179700000Y-142850000D01*
X179296579Y-142850000D01*
X179093733Y-142890348D01*
X179093725Y-142890350D01*
X178902641Y-142969500D01*
X178902631Y-142969505D01*
X178730664Y-143084410D01*
X178730660Y-143084413D01*
X178584413Y-143230660D01*
X178584410Y-143230664D01*
X178469505Y-143402631D01*
X178469500Y-143402641D01*
X178390351Y-143593723D01*
X178390350Y-143593725D01*
X178379157Y-143650000D01*
X179350272Y-143650000D01*
X179258386Y-143688060D01*
X179188060Y-143758386D01*
X179150000Y-143850272D01*
X179150000Y-143949728D01*
X179188060Y-144041614D01*
X179258386Y-144111940D01*
X179350272Y-144150000D01*
X178379157Y-144150000D01*
X178390350Y-144206274D01*
X178390351Y-144206276D01*
X178469500Y-144397358D01*
X178469505Y-144397368D01*
X178584410Y-144569335D01*
X178584413Y-144569339D01*
X178730660Y-144715586D01*
X178730664Y-144715589D01*
X178816432Y-144772898D01*
X178861237Y-144826510D01*
X178869944Y-144895835D01*
X178839789Y-144958863D01*
X178780346Y-144995582D01*
X178747541Y-145000000D01*
X102624000Y-145000000D01*
X102556961Y-144980315D01*
X102511206Y-144927511D01*
X102500000Y-144876000D01*
X102500000Y-141500000D01*
X175779157Y-141500000D01*
X176750272Y-141500000D01*
X176658386Y-141538060D01*
X176588060Y-141608386D01*
X176550000Y-141700272D01*
X176550000Y-141799728D01*
X176588060Y-141891614D01*
X176658386Y-141961940D01*
X176750272Y-142000000D01*
X175779157Y-142000000D01*
X175790350Y-142056274D01*
X175790351Y-142056276D01*
X175869500Y-142247358D01*
X175869505Y-142247368D01*
X175984410Y-142419335D01*
X175984413Y-142419339D01*
X176130660Y-142565586D01*
X176130664Y-142565589D01*
X176302631Y-142680494D01*
X176302641Y-142680499D01*
X176493725Y-142759649D01*
X176493733Y-142759651D01*
X176696579Y-142799999D01*
X176696583Y-142800000D01*
X176900000Y-142800000D01*
X176900000Y-142000000D01*
X177400000Y-142000000D01*
X177400000Y-142800000D01*
X177603417Y-142800000D01*
X177603420Y-142799999D01*
X177806266Y-142759651D01*
X177806274Y-142759649D01*
X177997358Y-142680499D01*
X177997368Y-142680494D01*
X178169335Y-142565589D01*
X178169339Y-142565586D01*
X178315586Y-142419339D01*
X178315589Y-142419335D01*
X178430494Y-142247368D01*
X178430499Y-142247358D01*
X178509648Y-142056276D01*
X178509649Y-142056274D01*
X178520843Y-142000000D01*
X177549728Y-142000000D01*
X177641614Y-141961940D01*
X177711940Y-141891614D01*
X177750000Y-141799728D01*
X177750000Y-141700272D01*
X177711940Y-141608386D01*
X177641614Y-141538060D01*
X177549728Y-141500000D01*
X178520843Y-141500000D01*
X181379157Y-141500000D01*
X182350272Y-141500000D01*
X182258386Y-141538060D01*
X182188060Y-141608386D01*
X182150000Y-141700272D01*
X182150000Y-141799728D01*
X182188060Y-141891614D01*
X182258386Y-141961940D01*
X182350272Y-142000000D01*
X181379157Y-142000000D01*
X181390350Y-142056274D01*
X181390351Y-142056276D01*
X181469500Y-142247358D01*
X181469505Y-142247368D01*
X181584410Y-142419335D01*
X181584413Y-142419339D01*
X181730660Y-142565586D01*
X181730664Y-142565589D01*
X181902631Y-142680494D01*
X181902641Y-142680499D01*
X182093725Y-142759649D01*
X182093733Y-142759651D01*
X182296579Y-142799999D01*
X182296583Y-142800000D01*
X182500000Y-142800000D01*
X182500000Y-142000000D01*
X183000000Y-142000000D01*
X183000000Y-142800000D01*
X183203417Y-142800000D01*
X183203420Y-142799999D01*
X183406266Y-142759651D01*
X183406274Y-142759649D01*
X183597358Y-142680499D01*
X183597368Y-142680494D01*
X183769335Y-142565589D01*
X183769339Y-142565586D01*
X183915586Y-142419339D01*
X183915589Y-142419335D01*
X184030494Y-142247368D01*
X184030499Y-142247358D01*
X184109648Y-142056276D01*
X184109649Y-142056274D01*
X184120843Y-142000000D01*
X183149728Y-142000000D01*
X183241614Y-141961940D01*
X183311940Y-141891614D01*
X183350000Y-141799728D01*
X183350000Y-141700272D01*
X183311940Y-141608386D01*
X183241614Y-141538060D01*
X183149728Y-141500000D01*
X184120843Y-141500000D01*
X184109649Y-141443725D01*
X184109648Y-141443723D01*
X184030499Y-141252641D01*
X184030494Y-141252631D01*
X183915589Y-141080664D01*
X183915586Y-141080660D01*
X183769339Y-140934413D01*
X183769335Y-140934410D01*
X183597368Y-140819505D01*
X183597358Y-140819500D01*
X183406274Y-140740350D01*
X183406266Y-140740348D01*
X183203420Y-140700000D01*
X183000000Y-140700000D01*
X183000000Y-141500000D01*
X182500000Y-141500000D01*
X182500000Y-140700000D01*
X182296579Y-140700000D01*
X182093733Y-140740348D01*
X182093725Y-140740350D01*
X181902641Y-140819500D01*
X181902631Y-140819505D01*
X181730664Y-140934410D01*
X181730660Y-140934413D01*
X181584413Y-141080660D01*
X181584410Y-141080664D01*
X181469505Y-141252631D01*
X181469500Y-141252641D01*
X181390351Y-141443723D01*
X181390350Y-141443725D01*
X181379157Y-141500000D01*
X178520843Y-141500000D01*
X178509649Y-141443725D01*
X178509648Y-141443723D01*
X178430499Y-141252641D01*
X178430494Y-141252631D01*
X178315589Y-141080664D01*
X178315586Y-141080660D01*
X178169339Y-140934413D01*
X178169335Y-140934410D01*
X177997368Y-140819505D01*
X177997358Y-140819500D01*
X177806274Y-140740350D01*
X177806266Y-140740348D01*
X177603420Y-140700000D01*
X177400000Y-140700000D01*
X177400000Y-141500000D01*
X176900000Y-141500000D01*
X176900000Y-140700000D01*
X176696579Y-140700000D01*
X176493733Y-140740348D01*
X176493725Y-140740350D01*
X176302641Y-140819500D01*
X176302631Y-140819505D01*
X176130664Y-140934410D01*
X176130660Y-140934413D01*
X175984413Y-141080660D01*
X175984410Y-141080664D01*
X175869505Y-141252631D01*
X175869500Y-141252641D01*
X175790351Y-141443723D01*
X175790350Y-141443725D01*
X175779157Y-141500000D01*
X102500000Y-141500000D01*
X102500000Y-136899983D01*
X104619500Y-136899983D01*
X104619500Y-140100001D01*
X104619501Y-140100018D01*
X104630000Y-140202796D01*
X104630001Y-140202799D01*
X104666308Y-140312365D01*
X104685186Y-140369334D01*
X104777288Y-140518656D01*
X104901344Y-140642712D01*
X105050666Y-140734814D01*
X105217203Y-140789999D01*
X105319991Y-140800500D01*
X106720008Y-140800499D01*
X106822797Y-140789999D01*
X106989334Y-140734814D01*
X107138656Y-140642712D01*
X107262712Y-140518656D01*
X107354814Y-140369334D01*
X107409999Y-140202797D01*
X107420500Y-140100009D01*
X107420499Y-137489778D01*
X108429500Y-137489778D01*
X108429500Y-139510221D01*
X108463985Y-139727952D01*
X108532103Y-139937603D01*
X108532104Y-139937606D01*
X108600122Y-140071096D01*
X108614854Y-140100009D01*
X108632187Y-140134025D01*
X108761752Y-140312358D01*
X108761756Y-140312363D01*
X108917636Y-140468243D01*
X108917641Y-140468247D01*
X109073192Y-140581260D01*
X109095978Y-140597815D01*
X109224375Y-140663237D01*
X109292393Y-140697895D01*
X109292396Y-140697896D01*
X109397221Y-140731955D01*
X109502049Y-140766015D01*
X109719778Y-140800500D01*
X109719779Y-140800500D01*
X109940221Y-140800500D01*
X109940222Y-140800500D01*
X110157951Y-140766015D01*
X110367606Y-140697895D01*
X110564022Y-140597815D01*
X110742365Y-140468242D01*
X110898242Y-140312365D01*
X111027815Y-140134022D01*
X111127895Y-139937606D01*
X111196015Y-139727951D01*
X111230500Y-139510222D01*
X111230500Y-137489778D01*
X112239500Y-137489778D01*
X112239500Y-139510221D01*
X112273985Y-139727952D01*
X112342103Y-139937603D01*
X112342104Y-139937606D01*
X112410122Y-140071096D01*
X112424854Y-140100009D01*
X112442187Y-140134025D01*
X112571752Y-140312358D01*
X112571756Y-140312363D01*
X112727636Y-140468243D01*
X112727641Y-140468247D01*
X112883192Y-140581260D01*
X112905978Y-140597815D01*
X113034375Y-140663237D01*
X113102393Y-140697895D01*
X113102396Y-140697896D01*
X113207221Y-140731955D01*
X113312049Y-140766015D01*
X113529778Y-140800500D01*
X113529779Y-140800500D01*
X113750221Y-140800500D01*
X113750222Y-140800500D01*
X113967951Y-140766015D01*
X114177606Y-140697895D01*
X114374022Y-140597815D01*
X114552365Y-140468242D01*
X114708242Y-140312365D01*
X114837815Y-140134022D01*
X114937895Y-139937606D01*
X115006015Y-139727951D01*
X115040500Y-139510222D01*
X115040500Y-137489778D01*
X116049500Y-137489778D01*
X116049500Y-139510221D01*
X116083985Y-139727952D01*
X116152103Y-139937603D01*
X116152104Y-139937606D01*
X116220122Y-140071096D01*
X116234854Y-140100009D01*
X116252187Y-140134025D01*
X116381752Y-140312358D01*
X116381756Y-140312363D01*
X116537636Y-140468243D01*
X116537641Y-140468247D01*
X116693192Y-140581260D01*
X116715978Y-140597815D01*
X116844375Y-140663237D01*
X116912393Y-140697895D01*
X116912396Y-140697896D01*
X117017221Y-140731955D01*
X117122049Y-140766015D01*
X117339778Y-140800500D01*
X117339779Y-140800500D01*
X117560221Y-140800500D01*
X117560222Y-140800500D01*
X117777951Y-140766015D01*
X117987606Y-140697895D01*
X118184022Y-140597815D01*
X118362365Y-140468242D01*
X118518242Y-140312365D01*
X118647815Y-140134022D01*
X118747895Y-139937606D01*
X118816015Y-139727951D01*
X118850500Y-139510222D01*
X118850500Y-137489778D01*
X119859500Y-137489778D01*
X119859500Y-139510221D01*
X119893985Y-139727952D01*
X119962103Y-139937603D01*
X119962104Y-139937606D01*
X120030122Y-140071096D01*
X120044854Y-140100009D01*
X120062187Y-140134025D01*
X120191752Y-140312358D01*
X120191756Y-140312363D01*
X120347636Y-140468243D01*
X120347641Y-140468247D01*
X120503192Y-140581260D01*
X120525978Y-140597815D01*
X120654375Y-140663237D01*
X120722393Y-140697895D01*
X120722396Y-140697896D01*
X120827221Y-140731955D01*
X120932049Y-140766015D01*
X121149778Y-140800500D01*
X121149779Y-140800500D01*
X121370221Y-140800500D01*
X121370222Y-140800500D01*
X121587951Y-140766015D01*
X121797606Y-140697895D01*
X121994022Y-140597815D01*
X122172365Y-140468242D01*
X122328242Y-140312365D01*
X122457815Y-140134022D01*
X122557895Y-139937606D01*
X122626015Y-139727951D01*
X122660500Y-139510222D01*
X122660500Y-137489778D01*
X123669500Y-137489778D01*
X123669500Y-139510221D01*
X123703985Y-139727952D01*
X123772103Y-139937603D01*
X123772104Y-139937606D01*
X123840122Y-140071096D01*
X123854854Y-140100009D01*
X123872187Y-140134025D01*
X124001752Y-140312358D01*
X124001756Y-140312363D01*
X124157636Y-140468243D01*
X124157641Y-140468247D01*
X124313192Y-140581260D01*
X124335978Y-140597815D01*
X124464375Y-140663237D01*
X124532393Y-140697895D01*
X124532396Y-140697896D01*
X124637221Y-140731955D01*
X124742049Y-140766015D01*
X124959778Y-140800500D01*
X124959779Y-140800500D01*
X125180221Y-140800500D01*
X125180222Y-140800500D01*
X125397951Y-140766015D01*
X125607606Y-140697895D01*
X125804022Y-140597815D01*
X125982365Y-140468242D01*
X126138242Y-140312365D01*
X126267815Y-140134022D01*
X126367895Y-139937606D01*
X126436015Y-139727951D01*
X126470500Y-139510222D01*
X126470500Y-137489778D01*
X127479500Y-137489778D01*
X127479500Y-139510221D01*
X127513985Y-139727952D01*
X127582103Y-139937603D01*
X127582104Y-139937606D01*
X127650122Y-140071096D01*
X127664854Y-140100009D01*
X127682187Y-140134025D01*
X127811752Y-140312358D01*
X127811756Y-140312363D01*
X127967636Y-140468243D01*
X127967641Y-140468247D01*
X128123192Y-140581260D01*
X128145978Y-140597815D01*
X128274375Y-140663237D01*
X128342393Y-140697895D01*
X128342396Y-140697896D01*
X128447221Y-140731955D01*
X128552049Y-140766015D01*
X128769778Y-140800500D01*
X128769779Y-140800500D01*
X128990221Y-140800500D01*
X128990222Y-140800500D01*
X129207951Y-140766015D01*
X129417606Y-140697895D01*
X129614022Y-140597815D01*
X129792365Y-140468242D01*
X129948242Y-140312365D01*
X130077815Y-140134022D01*
X130177895Y-139937606D01*
X130246015Y-139727951D01*
X130280500Y-139510222D01*
X130280500Y-137489778D01*
X131289500Y-137489778D01*
X131289500Y-139510221D01*
X131323985Y-139727952D01*
X131392103Y-139937603D01*
X131392104Y-139937606D01*
X131460122Y-140071096D01*
X131474854Y-140100009D01*
X131492187Y-140134025D01*
X131621752Y-140312358D01*
X131621756Y-140312363D01*
X131777636Y-140468243D01*
X131777641Y-140468247D01*
X131933192Y-140581260D01*
X131955978Y-140597815D01*
X132084375Y-140663237D01*
X132152393Y-140697895D01*
X132152396Y-140697896D01*
X132257221Y-140731955D01*
X132362049Y-140766015D01*
X132579778Y-140800500D01*
X132579779Y-140800500D01*
X132800221Y-140800500D01*
X132800222Y-140800500D01*
X133017951Y-140766015D01*
X133227606Y-140697895D01*
X133424022Y-140597815D01*
X133602365Y-140468242D01*
X133758242Y-140312365D01*
X133887815Y-140134022D01*
X133987895Y-139937606D01*
X134056015Y-139727951D01*
X134090500Y-139510222D01*
X134090500Y-137489778D01*
X135099500Y-137489778D01*
X135099500Y-139510221D01*
X135133985Y-139727952D01*
X135202103Y-139937603D01*
X135202104Y-139937606D01*
X135270122Y-140071096D01*
X135284854Y-140100009D01*
X135302187Y-140134025D01*
X135431752Y-140312358D01*
X135431756Y-140312363D01*
X135587636Y-140468243D01*
X135587641Y-140468247D01*
X135743192Y-140581260D01*
X135765978Y-140597815D01*
X135894375Y-140663237D01*
X135962393Y-140697895D01*
X135962396Y-140697896D01*
X136067221Y-140731955D01*
X136172049Y-140766015D01*
X136389778Y-140800500D01*
X136389779Y-140800500D01*
X136610221Y-140800500D01*
X136610222Y-140800500D01*
X136827951Y-140766015D01*
X137037606Y-140697895D01*
X137234022Y-140597815D01*
X137412365Y-140468242D01*
X137568242Y-140312365D01*
X137697815Y-140134022D01*
X137797895Y-139937606D01*
X137866015Y-139727951D01*
X137900500Y-139510222D01*
X137900500Y-137489778D01*
X138909500Y-137489778D01*
X138909500Y-139510221D01*
X138943985Y-139727952D01*
X139012103Y-139937603D01*
X139012104Y-139937606D01*
X139080122Y-140071096D01*
X139094854Y-140100009D01*
X139112187Y-140134025D01*
X139241752Y-140312358D01*
X139241756Y-140312363D01*
X139397636Y-140468243D01*
X139397641Y-140468247D01*
X139553192Y-140581260D01*
X139575978Y-140597815D01*
X139704375Y-140663237D01*
X139772393Y-140697895D01*
X139772396Y-140697896D01*
X139877221Y-140731955D01*
X139982049Y-140766015D01*
X140199778Y-140800500D01*
X140199779Y-140800500D01*
X140420221Y-140800500D01*
X140420222Y-140800500D01*
X140637951Y-140766015D01*
X140847606Y-140697895D01*
X141044022Y-140597815D01*
X141222365Y-140468242D01*
X141378242Y-140312365D01*
X141507815Y-140134022D01*
X141607895Y-139937606D01*
X141676015Y-139727951D01*
X141710500Y-139510222D01*
X141710500Y-137489778D01*
X142719500Y-137489778D01*
X142719500Y-139510221D01*
X142753985Y-139727952D01*
X142822103Y-139937603D01*
X142822104Y-139937606D01*
X142890122Y-140071096D01*
X142904854Y-140100009D01*
X142922187Y-140134025D01*
X143051752Y-140312358D01*
X143051756Y-140312363D01*
X143207636Y-140468243D01*
X143207641Y-140468247D01*
X143363192Y-140581260D01*
X143385978Y-140597815D01*
X143514375Y-140663237D01*
X143582393Y-140697895D01*
X143582396Y-140697896D01*
X143687221Y-140731955D01*
X143792049Y-140766015D01*
X144009778Y-140800500D01*
X144009779Y-140800500D01*
X144230221Y-140800500D01*
X144230222Y-140800500D01*
X144447951Y-140766015D01*
X144657606Y-140697895D01*
X144854022Y-140597815D01*
X145032365Y-140468242D01*
X145188242Y-140312365D01*
X145317815Y-140134022D01*
X145417895Y-139937606D01*
X145486015Y-139727951D01*
X145520500Y-139510222D01*
X145520500Y-137489778D01*
X146529500Y-137489778D01*
X146529500Y-139510221D01*
X146563985Y-139727952D01*
X146632103Y-139937603D01*
X146632104Y-139937606D01*
X146700122Y-140071096D01*
X146714854Y-140100009D01*
X146732187Y-140134025D01*
X146861752Y-140312358D01*
X146861756Y-140312363D01*
X147017636Y-140468243D01*
X147017641Y-140468247D01*
X147173192Y-140581260D01*
X147195978Y-140597815D01*
X147324375Y-140663237D01*
X147392393Y-140697895D01*
X147392396Y-140697896D01*
X147497221Y-140731955D01*
X147602049Y-140766015D01*
X147819778Y-140800500D01*
X147819779Y-140800500D01*
X148040221Y-140800500D01*
X148040222Y-140800500D01*
X148257951Y-140766015D01*
X148467606Y-140697895D01*
X148664022Y-140597815D01*
X148842365Y-140468242D01*
X148998242Y-140312365D01*
X149127815Y-140134022D01*
X149227895Y-139937606D01*
X149296015Y-139727951D01*
X149330500Y-139510222D01*
X149330500Y-137489778D01*
X150339500Y-137489778D01*
X150339500Y-139510221D01*
X150373985Y-139727952D01*
X150442103Y-139937603D01*
X150442104Y-139937606D01*
X150510122Y-140071096D01*
X150524854Y-140100009D01*
X150542187Y-140134025D01*
X150671752Y-140312358D01*
X150671756Y-140312363D01*
X150827636Y-140468243D01*
X150827641Y-140468247D01*
X150983192Y-140581260D01*
X151005978Y-140597815D01*
X151134375Y-140663237D01*
X151202393Y-140697895D01*
X151202396Y-140697896D01*
X151307221Y-140731955D01*
X151412049Y-140766015D01*
X151629778Y-140800500D01*
X151629779Y-140800500D01*
X151850221Y-140800500D01*
X151850222Y-140800500D01*
X152067951Y-140766015D01*
X152277606Y-140697895D01*
X152474022Y-140597815D01*
X152652365Y-140468242D01*
X152808242Y-140312365D01*
X152937815Y-140134022D01*
X153037895Y-139937606D01*
X153106015Y-139727951D01*
X153140500Y-139510222D01*
X153140500Y-137750000D01*
X176544355Y-137750000D01*
X176564859Y-137918869D01*
X176564860Y-137918874D01*
X176625182Y-138077931D01*
X176687475Y-138168177D01*
X176721817Y-138217929D01*
X176827505Y-138311560D01*
X176849150Y-138330736D01*
X176999773Y-138409789D01*
X176999775Y-138409790D01*
X177164944Y-138450500D01*
X177335056Y-138450500D01*
X177500225Y-138409790D01*
X177579692Y-138368081D01*
X177650849Y-138330736D01*
X177650850Y-138330734D01*
X177650852Y-138330734D01*
X177741982Y-138250000D01*
X178544355Y-138250000D01*
X178564859Y-138418869D01*
X178564860Y-138418874D01*
X178625182Y-138577931D01*
X178687475Y-138668177D01*
X178721817Y-138717929D01*
X178827505Y-138811560D01*
X178849150Y-138830736D01*
X178999773Y-138909789D01*
X178999775Y-138909790D01*
X179164944Y-138950500D01*
X179335056Y-138950500D01*
X179500225Y-138909790D01*
X179579692Y-138868081D01*
X179650849Y-138830736D01*
X179650850Y-138830734D01*
X179650852Y-138830734D01*
X179778183Y-138717929D01*
X179874818Y-138577930D01*
X179935140Y-138418872D01*
X179955645Y-138250000D01*
X179935140Y-138081128D01*
X179874818Y-137922070D01*
X179872608Y-137918869D01*
X179840476Y-137872318D01*
X179778183Y-137782071D01*
X179650852Y-137669266D01*
X179650849Y-137669263D01*
X179500226Y-137590210D01*
X179335056Y-137549500D01*
X179164944Y-137549500D01*
X178999773Y-137590210D01*
X178849150Y-137669263D01*
X178721816Y-137782072D01*
X178625182Y-137922068D01*
X178564860Y-138081125D01*
X178564859Y-138081130D01*
X178544355Y-138250000D01*
X177741982Y-138250000D01*
X177778183Y-138217929D01*
X177874818Y-138077930D01*
X177935140Y-137918872D01*
X177955645Y-137750000D01*
X177935140Y-137581128D01*
X177874818Y-137422070D01*
X177778183Y-137282071D01*
X177650852Y-137169266D01*
X177650849Y-137169263D01*
X177500226Y-137090210D01*
X177335056Y-137049500D01*
X177164944Y-137049500D01*
X176999773Y-137090210D01*
X176849150Y-137169263D01*
X176721816Y-137282072D01*
X176625182Y-137422068D01*
X176564860Y-137581125D01*
X176564859Y-137581130D01*
X176544355Y-137750000D01*
X153140500Y-137750000D01*
X153140500Y-137489778D01*
X153106015Y-137272049D01*
X153037895Y-137062394D01*
X153037895Y-137062393D01*
X152955149Y-136899998D01*
X152937815Y-136865978D01*
X152887848Y-136797204D01*
X152808247Y-136687641D01*
X152808243Y-136687636D01*
X152652363Y-136531756D01*
X152652358Y-136531752D01*
X152474025Y-136402187D01*
X152474024Y-136402186D01*
X152474022Y-136402185D01*
X152385908Y-136357288D01*
X152277606Y-136302104D01*
X152277603Y-136302103D01*
X152067952Y-136233985D01*
X151916516Y-136210000D01*
X151850222Y-136199500D01*
X151629778Y-136199500D01*
X151563484Y-136210000D01*
X151412047Y-136233985D01*
X151202396Y-136302103D01*
X151202393Y-136302104D01*
X151005974Y-136402187D01*
X150827641Y-136531752D01*
X150827636Y-136531756D01*
X150671756Y-136687636D01*
X150671752Y-136687641D01*
X150542187Y-136865974D01*
X150442104Y-137062393D01*
X150442103Y-137062396D01*
X150373985Y-137272047D01*
X150339500Y-137489778D01*
X149330500Y-137489778D01*
X149296015Y-137272049D01*
X149227895Y-137062394D01*
X149227895Y-137062393D01*
X149145149Y-136899998D01*
X149127815Y-136865978D01*
X149077848Y-136797204D01*
X148998247Y-136687641D01*
X148998243Y-136687636D01*
X148842363Y-136531756D01*
X148842358Y-136531752D01*
X148664025Y-136402187D01*
X148664024Y-136402186D01*
X148664022Y-136402185D01*
X148575908Y-136357288D01*
X148467606Y-136302104D01*
X148467603Y-136302103D01*
X148257952Y-136233985D01*
X148106516Y-136210000D01*
X148040222Y-136199500D01*
X147819778Y-136199500D01*
X147753484Y-136210000D01*
X147602047Y-136233985D01*
X147392396Y-136302103D01*
X147392393Y-136302104D01*
X147195974Y-136402187D01*
X147017641Y-136531752D01*
X147017636Y-136531756D01*
X146861756Y-136687636D01*
X146861752Y-136687641D01*
X146732187Y-136865974D01*
X146632104Y-137062393D01*
X146632103Y-137062396D01*
X146563985Y-137272047D01*
X146529500Y-137489778D01*
X145520500Y-137489778D01*
X145486015Y-137272049D01*
X145417895Y-137062394D01*
X145417895Y-137062393D01*
X145335149Y-136899998D01*
X145317815Y-136865978D01*
X145267848Y-136797204D01*
X145188247Y-136687641D01*
X145188243Y-136687636D01*
X145032363Y-136531756D01*
X145032358Y-136531752D01*
X144854025Y-136402187D01*
X144854024Y-136402186D01*
X144854022Y-136402185D01*
X144765908Y-136357288D01*
X144657606Y-136302104D01*
X144657603Y-136302103D01*
X144447952Y-136233985D01*
X144296516Y-136210000D01*
X144230222Y-136199500D01*
X144009778Y-136199500D01*
X143943484Y-136210000D01*
X143792047Y-136233985D01*
X143582396Y-136302103D01*
X143582393Y-136302104D01*
X143385974Y-136402187D01*
X143207641Y-136531752D01*
X143207636Y-136531756D01*
X143051756Y-136687636D01*
X143051752Y-136687641D01*
X142922187Y-136865974D01*
X142822104Y-137062393D01*
X142822103Y-137062396D01*
X142753985Y-137272047D01*
X142719500Y-137489778D01*
X141710500Y-137489778D01*
X141676015Y-137272049D01*
X141607895Y-137062394D01*
X141607895Y-137062393D01*
X141525149Y-136899998D01*
X141507815Y-136865978D01*
X141457848Y-136797204D01*
X141378247Y-136687641D01*
X141378243Y-136687636D01*
X141222363Y-136531756D01*
X141222358Y-136531752D01*
X141044025Y-136402187D01*
X141044024Y-136402186D01*
X141044022Y-136402185D01*
X140955908Y-136357288D01*
X140847606Y-136302104D01*
X140847603Y-136302103D01*
X140637952Y-136233985D01*
X140486516Y-136210000D01*
X140420222Y-136199500D01*
X140199778Y-136199500D01*
X140133484Y-136210000D01*
X139982047Y-136233985D01*
X139772396Y-136302103D01*
X139772393Y-136302104D01*
X139575974Y-136402187D01*
X139397641Y-136531752D01*
X139397636Y-136531756D01*
X139241756Y-136687636D01*
X139241752Y-136687641D01*
X139112187Y-136865974D01*
X139012104Y-137062393D01*
X139012103Y-137062396D01*
X138943985Y-137272047D01*
X138909500Y-137489778D01*
X137900500Y-137489778D01*
X137866015Y-137272049D01*
X137797895Y-137062394D01*
X137797895Y-137062393D01*
X137715149Y-136899998D01*
X137697815Y-136865978D01*
X137647848Y-136797204D01*
X137568247Y-136687641D01*
X137568243Y-136687636D01*
X137412363Y-136531756D01*
X137412358Y-136531752D01*
X137234025Y-136402187D01*
X137234024Y-136402186D01*
X137234022Y-136402185D01*
X137145908Y-136357288D01*
X137037606Y-136302104D01*
X137037603Y-136302103D01*
X136827952Y-136233985D01*
X136676516Y-136210000D01*
X136610222Y-136199500D01*
X136389778Y-136199500D01*
X136323484Y-136210000D01*
X136172047Y-136233985D01*
X135962396Y-136302103D01*
X135962393Y-136302104D01*
X135765974Y-136402187D01*
X135587641Y-136531752D01*
X135587636Y-136531756D01*
X135431756Y-136687636D01*
X135431752Y-136687641D01*
X135302187Y-136865974D01*
X135202104Y-137062393D01*
X135202103Y-137062396D01*
X135133985Y-137272047D01*
X135099500Y-137489778D01*
X134090500Y-137489778D01*
X134056015Y-137272049D01*
X133987895Y-137062394D01*
X133987895Y-137062393D01*
X133905149Y-136899998D01*
X133887815Y-136865978D01*
X133837848Y-136797204D01*
X133758247Y-136687641D01*
X133758243Y-136687636D01*
X133602363Y-136531756D01*
X133602358Y-136531752D01*
X133424025Y-136402187D01*
X133424024Y-136402186D01*
X133424022Y-136402185D01*
X133335908Y-136357288D01*
X133227606Y-136302104D01*
X133227603Y-136302103D01*
X133017952Y-136233985D01*
X132866516Y-136210000D01*
X132800222Y-136199500D01*
X132579778Y-136199500D01*
X132513484Y-136210000D01*
X132362047Y-136233985D01*
X132152396Y-136302103D01*
X132152393Y-136302104D01*
X131955974Y-136402187D01*
X131777641Y-136531752D01*
X131777636Y-136531756D01*
X131621756Y-136687636D01*
X131621752Y-136687641D01*
X131492187Y-136865974D01*
X131392104Y-137062393D01*
X131392103Y-137062396D01*
X131323985Y-137272047D01*
X131289500Y-137489778D01*
X130280500Y-137489778D01*
X130246015Y-137272049D01*
X130177895Y-137062394D01*
X130177895Y-137062393D01*
X130095149Y-136899998D01*
X130077815Y-136865978D01*
X130027848Y-136797204D01*
X129948247Y-136687641D01*
X129948243Y-136687636D01*
X129792363Y-136531756D01*
X129792358Y-136531752D01*
X129614025Y-136402187D01*
X129614024Y-136402186D01*
X129614022Y-136402185D01*
X129525908Y-136357288D01*
X129417606Y-136302104D01*
X129417603Y-136302103D01*
X129207952Y-136233985D01*
X129056516Y-136210000D01*
X128990222Y-136199500D01*
X128769778Y-136199500D01*
X128703484Y-136210000D01*
X128552047Y-136233985D01*
X128342396Y-136302103D01*
X128342393Y-136302104D01*
X128145974Y-136402187D01*
X127967641Y-136531752D01*
X127967636Y-136531756D01*
X127811756Y-136687636D01*
X127811752Y-136687641D01*
X127682187Y-136865974D01*
X127582104Y-137062393D01*
X127582103Y-137062396D01*
X127513985Y-137272047D01*
X127479500Y-137489778D01*
X126470500Y-137489778D01*
X126436015Y-137272049D01*
X126367895Y-137062394D01*
X126367895Y-137062393D01*
X126285149Y-136899998D01*
X126267815Y-136865978D01*
X126217848Y-136797204D01*
X126138247Y-136687641D01*
X126138243Y-136687636D01*
X125982363Y-136531756D01*
X125982358Y-136531752D01*
X125804025Y-136402187D01*
X125804024Y-136402186D01*
X125804022Y-136402185D01*
X125715908Y-136357288D01*
X125607606Y-136302104D01*
X125607603Y-136302103D01*
X125397952Y-136233985D01*
X125246516Y-136210000D01*
X125180222Y-136199500D01*
X124959778Y-136199500D01*
X124893484Y-136210000D01*
X124742047Y-136233985D01*
X124532396Y-136302103D01*
X124532393Y-136302104D01*
X124335974Y-136402187D01*
X124157641Y-136531752D01*
X124157636Y-136531756D01*
X124001756Y-136687636D01*
X124001752Y-136687641D01*
X123872187Y-136865974D01*
X123772104Y-137062393D01*
X123772103Y-137062396D01*
X123703985Y-137272047D01*
X123669500Y-137489778D01*
X122660500Y-137489778D01*
X122626015Y-137272049D01*
X122557895Y-137062394D01*
X122557895Y-137062393D01*
X122475149Y-136899998D01*
X122457815Y-136865978D01*
X122407848Y-136797204D01*
X122328247Y-136687641D01*
X122328243Y-136687636D01*
X122172363Y-136531756D01*
X122172358Y-136531752D01*
X121994025Y-136402187D01*
X121994024Y-136402186D01*
X121994022Y-136402185D01*
X121905908Y-136357288D01*
X121797606Y-136302104D01*
X121797603Y-136302103D01*
X121587952Y-136233985D01*
X121436516Y-136210000D01*
X121370222Y-136199500D01*
X121149778Y-136199500D01*
X121083484Y-136210000D01*
X120932047Y-136233985D01*
X120722396Y-136302103D01*
X120722393Y-136302104D01*
X120525974Y-136402187D01*
X120347641Y-136531752D01*
X120347636Y-136531756D01*
X120191756Y-136687636D01*
X120191752Y-136687641D01*
X120062187Y-136865974D01*
X119962104Y-137062393D01*
X119962103Y-137062396D01*
X119893985Y-137272047D01*
X119859500Y-137489778D01*
X118850500Y-137489778D01*
X118816015Y-137272049D01*
X118747895Y-137062394D01*
X118747895Y-137062393D01*
X118665149Y-136899998D01*
X118647815Y-136865978D01*
X118597848Y-136797204D01*
X118518247Y-136687641D01*
X118518243Y-136687636D01*
X118362363Y-136531756D01*
X118362358Y-136531752D01*
X118184025Y-136402187D01*
X118184024Y-136402186D01*
X118184022Y-136402185D01*
X118095908Y-136357288D01*
X117987606Y-136302104D01*
X117987603Y-136302103D01*
X117777952Y-136233985D01*
X117626516Y-136210000D01*
X117560222Y-136199500D01*
X117339778Y-136199500D01*
X117273484Y-136210000D01*
X117122047Y-136233985D01*
X116912396Y-136302103D01*
X116912393Y-136302104D01*
X116715974Y-136402187D01*
X116537641Y-136531752D01*
X116537636Y-136531756D01*
X116381756Y-136687636D01*
X116381752Y-136687641D01*
X116252187Y-136865974D01*
X116152104Y-137062393D01*
X116152103Y-137062396D01*
X116083985Y-137272047D01*
X116049500Y-137489778D01*
X115040500Y-137489778D01*
X115006015Y-137272049D01*
X114937895Y-137062394D01*
X114937895Y-137062393D01*
X114855149Y-136899998D01*
X114837815Y-136865978D01*
X114787848Y-136797204D01*
X114708247Y-136687641D01*
X114708243Y-136687636D01*
X114552363Y-136531756D01*
X114552358Y-136531752D01*
X114374025Y-136402187D01*
X114374024Y-136402186D01*
X114374022Y-136402185D01*
X114285908Y-136357288D01*
X114177606Y-136302104D01*
X114177603Y-136302103D01*
X113967952Y-136233985D01*
X113816516Y-136210000D01*
X113750222Y-136199500D01*
X113529778Y-136199500D01*
X113463484Y-136210000D01*
X113312047Y-136233985D01*
X113102396Y-136302103D01*
X113102393Y-136302104D01*
X112905974Y-136402187D01*
X112727641Y-136531752D01*
X112727636Y-136531756D01*
X112571756Y-136687636D01*
X112571752Y-136687641D01*
X112442187Y-136865974D01*
X112342104Y-137062393D01*
X112342103Y-137062396D01*
X112273985Y-137272047D01*
X112239500Y-137489778D01*
X111230500Y-137489778D01*
X111196015Y-137272049D01*
X111127895Y-137062394D01*
X111127895Y-137062393D01*
X111045149Y-136899998D01*
X111027815Y-136865978D01*
X110977848Y-136797204D01*
X110898247Y-136687641D01*
X110898243Y-136687636D01*
X110742363Y-136531756D01*
X110742358Y-136531752D01*
X110564025Y-136402187D01*
X110564024Y-136402186D01*
X110564022Y-136402185D01*
X110475908Y-136357288D01*
X110367606Y-136302104D01*
X110367603Y-136302103D01*
X110157952Y-136233985D01*
X110006516Y-136210000D01*
X109940222Y-136199500D01*
X109719778Y-136199500D01*
X109653484Y-136210000D01*
X109502047Y-136233985D01*
X109292396Y-136302103D01*
X109292393Y-136302104D01*
X109095974Y-136402187D01*
X108917641Y-136531752D01*
X108917636Y-136531756D01*
X108761756Y-136687636D01*
X108761752Y-136687641D01*
X108632187Y-136865974D01*
X108532104Y-137062393D01*
X108532103Y-137062396D01*
X108463985Y-137272047D01*
X108429500Y-137489778D01*
X107420499Y-137489778D01*
X107420499Y-136899992D01*
X107417024Y-136865978D01*
X107409999Y-136797203D01*
X107409998Y-136797200D01*
X107354814Y-136630666D01*
X107262712Y-136481344D01*
X107138656Y-136357288D01*
X106989334Y-136265186D01*
X106822797Y-136210001D01*
X106822795Y-136210000D01*
X106720010Y-136199500D01*
X105319998Y-136199500D01*
X105319981Y-136199501D01*
X105217203Y-136210000D01*
X105217200Y-136210001D01*
X105050668Y-136265185D01*
X105050663Y-136265187D01*
X104901342Y-136357289D01*
X104777289Y-136481342D01*
X104685187Y-136630663D01*
X104685186Y-136630666D01*
X104630001Y-136797203D01*
X104630001Y-136797204D01*
X104630000Y-136797204D01*
X104619500Y-136899983D01*
X102500000Y-136899983D01*
X102500000Y-134750000D01*
X162794355Y-134750000D01*
X162814859Y-134918869D01*
X162814860Y-134918874D01*
X162875182Y-135077931D01*
X162937475Y-135168177D01*
X162971817Y-135217929D01*
X163077505Y-135311560D01*
X163099150Y-135330736D01*
X163249773Y-135409789D01*
X163249775Y-135409790D01*
X163414944Y-135450500D01*
X163585056Y-135450500D01*
X163750225Y-135409790D01*
X163829692Y-135368081D01*
X163900849Y-135330736D01*
X163900850Y-135330734D01*
X163900852Y-135330734D01*
X164028183Y-135217929D01*
X164124818Y-135077930D01*
X164154373Y-135000000D01*
X176544355Y-135000000D01*
X176564859Y-135168869D01*
X176564860Y-135168874D01*
X176625182Y-135327931D01*
X176681686Y-135409789D01*
X176721817Y-135467929D01*
X176827505Y-135561560D01*
X176849150Y-135580736D01*
X176999773Y-135659789D01*
X176999775Y-135659790D01*
X177164944Y-135700500D01*
X177335056Y-135700500D01*
X177500225Y-135659790D01*
X177579692Y-135618081D01*
X177650849Y-135580736D01*
X177650850Y-135580734D01*
X177650852Y-135580734D01*
X177778183Y-135467929D01*
X177874818Y-135327930D01*
X177935140Y-135168872D01*
X177955645Y-135000000D01*
X177935140Y-134831128D01*
X177874818Y-134672070D01*
X177778183Y-134532071D01*
X177650852Y-134419266D01*
X177650849Y-134419263D01*
X177500226Y-134340210D01*
X177335056Y-134299500D01*
X177164944Y-134299500D01*
X176999773Y-134340210D01*
X176849150Y-134419263D01*
X176721816Y-134532072D01*
X176625182Y-134672068D01*
X176564860Y-134831125D01*
X176564859Y-134831130D01*
X176544355Y-135000000D01*
X164154373Y-135000000D01*
X164185140Y-134918872D01*
X164205645Y-134750000D01*
X164185140Y-134581128D01*
X164124818Y-134422070D01*
X164122880Y-134419263D01*
X164090476Y-134372318D01*
X164028183Y-134282071D01*
X163900852Y-134169266D01*
X163900849Y-134169263D01*
X163750226Y-134090210D01*
X163585056Y-134049500D01*
X163414944Y-134049500D01*
X163249773Y-134090210D01*
X163099150Y-134169263D01*
X162971816Y-134282072D01*
X162875182Y-134422068D01*
X162814860Y-134581125D01*
X162814859Y-134581130D01*
X162794355Y-134750000D01*
X102500000Y-134750000D01*
X102500000Y-134000000D01*
X171044355Y-134000000D01*
X171064859Y-134168869D01*
X171064860Y-134168874D01*
X171125182Y-134327931D01*
X171133658Y-134340210D01*
X171221817Y-134467929D01*
X171294219Y-134532071D01*
X171349150Y-134580736D01*
X171499773Y-134659789D01*
X171499775Y-134659790D01*
X171664944Y-134700500D01*
X171835056Y-134700500D01*
X172000225Y-134659790D01*
X172079692Y-134618081D01*
X172150849Y-134580736D01*
X172150850Y-134580734D01*
X172150852Y-134580734D01*
X172278183Y-134467929D01*
X172374818Y-134327930D01*
X172435140Y-134168872D01*
X172455645Y-134000000D01*
X172435140Y-133831128D01*
X172374818Y-133672070D01*
X172278183Y-133532071D01*
X172150852Y-133419266D01*
X172150849Y-133419263D01*
X172000226Y-133340210D01*
X171835056Y-133299500D01*
X171664944Y-133299500D01*
X171499773Y-133340210D01*
X171349150Y-133419263D01*
X171221816Y-133532072D01*
X171125182Y-133672068D01*
X171064860Y-133831125D01*
X171064859Y-133831130D01*
X171044355Y-134000000D01*
X102500000Y-134000000D01*
X102500000Y-125000000D01*
X147294355Y-125000000D01*
X147314859Y-125168869D01*
X147314860Y-125168874D01*
X147375182Y-125327931D01*
X147437475Y-125418177D01*
X147471817Y-125467929D01*
X147577505Y-125561560D01*
X147599150Y-125580736D01*
X147749773Y-125659789D01*
X147749775Y-125659790D01*
X147914944Y-125700500D01*
X148085056Y-125700500D01*
X148250225Y-125659790D01*
X148329692Y-125618081D01*
X148400849Y-125580736D01*
X148400850Y-125580734D01*
X148400852Y-125580734D01*
X148528183Y-125467929D01*
X148624818Y-125327930D01*
X148685140Y-125168872D01*
X148705645Y-125000000D01*
X148685140Y-124831128D01*
X148624818Y-124672070D01*
X148528183Y-124532071D01*
X148400852Y-124419266D01*
X148400849Y-124419263D01*
X148250226Y-124340210D01*
X148085056Y-124299500D01*
X147914944Y-124299500D01*
X147749773Y-124340210D01*
X147599150Y-124419263D01*
X147471816Y-124532072D01*
X147375182Y-124672068D01*
X147314860Y-124831125D01*
X147314859Y-124831130D01*
X147294355Y-125000000D01*
X102500000Y-125000000D01*
X102500000Y-123750000D01*
X162544355Y-123750000D01*
X162564859Y-123918869D01*
X162564860Y-123918874D01*
X162625182Y-124077931D01*
X162687475Y-124168177D01*
X162721817Y-124217929D01*
X162813892Y-124299500D01*
X162849150Y-124330736D01*
X162999773Y-124409789D01*
X162999775Y-124409790D01*
X163164944Y-124450500D01*
X163335056Y-124450500D01*
X163500225Y-124409790D01*
X163579692Y-124368081D01*
X163650849Y-124330736D01*
X163650850Y-124330734D01*
X163650852Y-124330734D01*
X163778183Y-124217929D01*
X163874818Y-124077930D01*
X163935140Y-123918872D01*
X163955645Y-123750000D01*
X163935140Y-123581128D01*
X163874818Y-123422070D01*
X163872608Y-123418869D01*
X163840476Y-123372318D01*
X163778183Y-123282071D01*
X163741982Y-123250000D01*
X173794355Y-123250000D01*
X173814859Y-123418869D01*
X173814860Y-123418874D01*
X173875182Y-123577931D01*
X173937475Y-123668177D01*
X173971817Y-123717929D01*
X174077505Y-123811560D01*
X174099150Y-123830736D01*
X174249773Y-123909789D01*
X174249775Y-123909790D01*
X174414944Y-123950500D01*
X174585056Y-123950500D01*
X174750225Y-123909790D01*
X174829692Y-123868081D01*
X174900849Y-123830736D01*
X174900850Y-123830734D01*
X174900852Y-123830734D01*
X175028183Y-123717929D01*
X175124818Y-123577930D01*
X175185140Y-123418872D01*
X175205645Y-123250000D01*
X175185140Y-123081128D01*
X175124818Y-122922070D01*
X175028183Y-122782071D01*
X174900852Y-122669266D01*
X174900849Y-122669263D01*
X174750226Y-122590210D01*
X174585056Y-122549500D01*
X174414944Y-122549500D01*
X174249773Y-122590210D01*
X174099150Y-122669263D01*
X173971816Y-122782072D01*
X173875182Y-122922068D01*
X173814860Y-123081125D01*
X173814859Y-123081130D01*
X173794355Y-123250000D01*
X163741982Y-123250000D01*
X163650852Y-123169266D01*
X163650849Y-123169263D01*
X163500226Y-123090210D01*
X163335056Y-123049500D01*
X163164944Y-123049500D01*
X162999773Y-123090210D01*
X162849150Y-123169263D01*
X162721816Y-123282072D01*
X162625182Y-123422068D01*
X162564860Y-123581125D01*
X162564859Y-123581130D01*
X162544355Y-123750000D01*
X102500000Y-123750000D01*
X102500000Y-122059870D01*
X135354225Y-122059870D01*
X135374729Y-122228739D01*
X135374730Y-122228744D01*
X135435052Y-122387801D01*
X135497345Y-122478047D01*
X135531687Y-122527799D01*
X135602135Y-122590210D01*
X135659020Y-122640606D01*
X135809643Y-122719659D01*
X135809645Y-122719660D01*
X135974814Y-122760370D01*
X136144926Y-122760370D01*
X136310095Y-122719660D01*
X136406112Y-122669266D01*
X136460719Y-122640606D01*
X136460720Y-122640604D01*
X136460722Y-122640604D01*
X136588053Y-122527799D01*
X136684688Y-122387800D01*
X136745010Y-122228742D01*
X136765515Y-122059870D01*
X136745010Y-121890998D01*
X136684688Y-121731940D01*
X136588053Y-121591941D01*
X136460722Y-121479136D01*
X136460719Y-121479133D01*
X136310096Y-121400080D01*
X136144926Y-121359370D01*
X135974814Y-121359370D01*
X135809643Y-121400080D01*
X135659020Y-121479133D01*
X135531686Y-121591942D01*
X135435052Y-121731938D01*
X135374730Y-121890995D01*
X135374729Y-121891000D01*
X135354225Y-122059870D01*
X102500000Y-122059870D01*
X102500000Y-109881153D01*
X103159500Y-109881153D01*
X103159500Y-110038846D01*
X103190261Y-110193489D01*
X103190264Y-110193501D01*
X103250602Y-110339172D01*
X103250609Y-110339185D01*
X103338210Y-110470288D01*
X103338213Y-110470292D01*
X103449707Y-110581786D01*
X103449711Y-110581789D01*
X103580814Y-110669390D01*
X103580827Y-110669397D01*
X103726498Y-110729735D01*
X103726503Y-110729737D01*
X103881153Y-110760499D01*
X103881156Y-110760500D01*
X103881158Y-110760500D01*
X104038844Y-110760500D01*
X104038845Y-110760499D01*
X104193497Y-110729737D01*
X104339179Y-110669394D01*
X104470289Y-110581789D01*
X104581789Y-110470289D01*
X104669394Y-110339179D01*
X104669394Y-110339178D01*
X104672398Y-110334683D01*
X104726010Y-110289878D01*
X104795335Y-110281171D01*
X104858362Y-110311325D01*
X104895082Y-110370768D01*
X104899500Y-110403574D01*
X104899500Y-111107870D01*
X104899501Y-111107876D01*
X104905908Y-111167483D01*
X104956202Y-111302328D01*
X104956206Y-111302335D01*
X105042452Y-111417544D01*
X105042455Y-111417547D01*
X105119104Y-111474927D01*
X105160975Y-111530861D01*
X105165959Y-111600552D01*
X105150520Y-111638983D01*
X105069533Y-111771140D01*
X104973126Y-112003889D01*
X104932997Y-112171043D01*
X104898206Y-112231635D01*
X104836180Y-112263799D01*
X104766611Y-112257323D01*
X104711587Y-112214263D01*
X104697862Y-112189548D01*
X104669397Y-112120827D01*
X104669390Y-112120814D01*
X104581789Y-111989711D01*
X104581786Y-111989707D01*
X104470292Y-111878213D01*
X104470288Y-111878210D01*
X104339185Y-111790609D01*
X104339172Y-111790602D01*
X104193501Y-111730264D01*
X104193489Y-111730261D01*
X104038845Y-111699500D01*
X104038842Y-111699500D01*
X103881158Y-111699500D01*
X103881155Y-111699500D01*
X103726510Y-111730261D01*
X103726498Y-111730264D01*
X103580827Y-111790602D01*
X103580814Y-111790609D01*
X103449711Y-111878210D01*
X103449707Y-111878213D01*
X103338213Y-111989707D01*
X103338210Y-111989711D01*
X103250609Y-112120814D01*
X103250602Y-112120827D01*
X103190264Y-112266498D01*
X103190261Y-112266510D01*
X103159500Y-112421153D01*
X103159500Y-112578846D01*
X103190261Y-112733489D01*
X103190264Y-112733501D01*
X103250602Y-112879172D01*
X103250609Y-112879185D01*
X103338210Y-113010288D01*
X103338213Y-113010292D01*
X103449707Y-113121786D01*
X103449711Y-113121789D01*
X103580814Y-113209390D01*
X103580827Y-113209397D01*
X103726498Y-113269735D01*
X103726503Y-113269737D01*
X103881153Y-113300499D01*
X103881156Y-113300500D01*
X103881158Y-113300500D01*
X104038844Y-113300500D01*
X104038845Y-113300499D01*
X104193497Y-113269737D01*
X104339179Y-113209394D01*
X104470289Y-113121789D01*
X104581789Y-113010289D01*
X104669394Y-112879179D01*
X104669395Y-112879176D01*
X104669397Y-112879173D01*
X104697862Y-112810451D01*
X104741702Y-112756047D01*
X104807996Y-112733982D01*
X104875696Y-112751261D01*
X104923307Y-112802398D01*
X104932997Y-112828956D01*
X104973126Y-112996110D01*
X105069533Y-113228859D01*
X105201160Y-113443653D01*
X105201161Y-113443656D01*
X105201164Y-113443659D01*
X105364776Y-113635224D01*
X105556341Y-113798836D01*
X105688586Y-113879876D01*
X105711472Y-113897919D01*
X106329765Y-114516212D01*
X106287708Y-114527482D01*
X106162292Y-114599890D01*
X106059890Y-114702292D01*
X105987482Y-114827708D01*
X105976212Y-114869765D01*
X105202266Y-114095818D01*
X105201567Y-114096637D01*
X105069980Y-114311368D01*
X104973603Y-114544043D01*
X104933322Y-114711829D01*
X104898531Y-114772421D01*
X104836505Y-114804585D01*
X104766936Y-114798109D01*
X104711912Y-114755049D01*
X104698189Y-114730341D01*
X104669394Y-114660821D01*
X104669392Y-114660818D01*
X104669390Y-114660814D01*
X104581789Y-114529711D01*
X104581786Y-114529707D01*
X104470292Y-114418213D01*
X104470288Y-114418210D01*
X104339185Y-114330609D01*
X104339172Y-114330602D01*
X104193501Y-114270264D01*
X104193489Y-114270261D01*
X104038845Y-114239500D01*
X104038842Y-114239500D01*
X103881158Y-114239500D01*
X103881155Y-114239500D01*
X103726510Y-114270261D01*
X103726498Y-114270264D01*
X103580827Y-114330602D01*
X103580814Y-114330609D01*
X103449711Y-114418210D01*
X103449707Y-114418213D01*
X103338213Y-114529707D01*
X103338210Y-114529711D01*
X103250609Y-114660814D01*
X103250602Y-114660827D01*
X103190264Y-114806498D01*
X103190261Y-114806510D01*
X103159500Y-114961153D01*
X103159500Y-115118846D01*
X103190261Y-115273489D01*
X103190264Y-115273501D01*
X103250602Y-115419172D01*
X103250609Y-115419185D01*
X103338210Y-115550288D01*
X103338213Y-115550292D01*
X103449707Y-115661786D01*
X103449711Y-115661789D01*
X103580814Y-115749390D01*
X103580827Y-115749397D01*
X103726498Y-115809735D01*
X103726503Y-115809737D01*
X103881153Y-115840499D01*
X103881156Y-115840500D01*
X103881158Y-115840500D01*
X104038844Y-115840500D01*
X104038845Y-115840499D01*
X104193497Y-115809737D01*
X104339179Y-115749394D01*
X104470289Y-115661789D01*
X104581789Y-115550289D01*
X104669394Y-115419179D01*
X104698188Y-115349663D01*
X104742027Y-115295262D01*
X104808320Y-115273196D01*
X104876020Y-115290474D01*
X104923631Y-115341611D01*
X104933322Y-115368170D01*
X104973603Y-115535956D01*
X105069980Y-115768631D01*
X105201568Y-115983362D01*
X105202266Y-115984179D01*
X105976212Y-115210233D01*
X105987482Y-115252292D01*
X106059890Y-115377708D01*
X106162292Y-115480110D01*
X106287708Y-115552518D01*
X106329765Y-115563787D01*
X105555819Y-116337732D01*
X105555819Y-116337733D01*
X105556634Y-116338429D01*
X105771368Y-116470019D01*
X106004043Y-116566396D01*
X106248927Y-116625187D01*
X106500000Y-116644947D01*
X106751072Y-116625187D01*
X106995956Y-116566396D01*
X107228631Y-116470019D01*
X107443361Y-116338432D01*
X107443363Y-116338430D01*
X107444180Y-116337732D01*
X106670234Y-115563787D01*
X106712292Y-115552518D01*
X106837708Y-115480110D01*
X106940110Y-115377708D01*
X107012518Y-115252292D01*
X107023787Y-115210234D01*
X107797732Y-115984180D01*
X107798430Y-115983363D01*
X107798432Y-115983361D01*
X107930019Y-115768631D01*
X108026396Y-115535956D01*
X108085187Y-115291072D01*
X108104947Y-115040000D01*
X108085187Y-114788927D01*
X108063838Y-114700000D01*
X139914095Y-114700000D01*
X139934599Y-114868869D01*
X139934600Y-114868874D01*
X139994922Y-115027931D01*
X140003253Y-115040000D01*
X140091557Y-115167929D01*
X140197245Y-115261560D01*
X140218890Y-115280736D01*
X140369513Y-115359789D01*
X140369515Y-115359790D01*
X140534684Y-115400500D01*
X140704796Y-115400500D01*
X140869965Y-115359790D01*
X141000895Y-115291072D01*
X141020589Y-115280736D01*
X141020590Y-115280734D01*
X141020592Y-115280734D01*
X141147923Y-115167929D01*
X141244558Y-115027930D01*
X141304880Y-114868872D01*
X141325385Y-114700000D01*
X141304880Y-114531128D01*
X141244558Y-114372070D01*
X141147923Y-114232071D01*
X141020592Y-114119266D01*
X141020589Y-114119263D01*
X140869966Y-114040210D01*
X140704796Y-113999500D01*
X140534684Y-113999500D01*
X140369513Y-114040210D01*
X140218890Y-114119263D01*
X140091556Y-114232072D01*
X139994922Y-114372068D01*
X139934600Y-114531125D01*
X139934599Y-114531130D01*
X139914095Y-114700000D01*
X108063838Y-114700000D01*
X108026396Y-114544043D01*
X107930019Y-114311368D01*
X107798429Y-114096634D01*
X107797733Y-114095819D01*
X107797732Y-114095819D01*
X107023787Y-114869764D01*
X107012518Y-114827708D01*
X106940110Y-114702292D01*
X106837708Y-114599890D01*
X106712292Y-114527482D01*
X106670232Y-114516212D01*
X107288526Y-113897919D01*
X107311408Y-113879879D01*
X107443659Y-113798836D01*
X107635224Y-113635224D01*
X107750716Y-113500000D01*
X145414095Y-113500000D01*
X145434599Y-113668869D01*
X145434600Y-113668874D01*
X145494922Y-113827931D01*
X145510579Y-113850613D01*
X145591557Y-113967929D01*
X145673146Y-114040210D01*
X145718890Y-114080736D01*
X145869513Y-114159789D01*
X145869515Y-114159790D01*
X146034684Y-114200500D01*
X146204796Y-114200500D01*
X146369965Y-114159790D01*
X146490292Y-114096637D01*
X146520589Y-114080736D01*
X146520590Y-114080734D01*
X146520592Y-114080734D01*
X146647923Y-113967929D01*
X146744558Y-113827930D01*
X146804880Y-113668872D01*
X146825385Y-113500000D01*
X146811140Y-113382684D01*
X147329790Y-113382684D01*
X147350294Y-113551553D01*
X147350295Y-113551558D01*
X147410617Y-113710615D01*
X147471512Y-113798835D01*
X147507252Y-113850613D01*
X147560650Y-113897919D01*
X147634585Y-113963420D01*
X147755485Y-114026873D01*
X147785210Y-114042474D01*
X147950379Y-114083184D01*
X148120491Y-114083184D01*
X148285660Y-114042474D01*
X148367539Y-113999500D01*
X148436284Y-113963420D01*
X148436285Y-113963418D01*
X148436287Y-113963418D01*
X148563618Y-113850613D01*
X148660253Y-113710614D01*
X148720575Y-113551556D01*
X148741080Y-113382684D01*
X148720575Y-113213812D01*
X148718899Y-113209394D01*
X148685676Y-113121789D01*
X148660253Y-113054754D01*
X148563618Y-112914755D01*
X148436287Y-112801950D01*
X148436284Y-112801947D01*
X148285661Y-112722894D01*
X148120491Y-112682184D01*
X147950379Y-112682184D01*
X147785208Y-112722894D01*
X147634585Y-112801947D01*
X147507251Y-112914756D01*
X147410617Y-113054752D01*
X147350295Y-113213809D01*
X147350294Y-113213814D01*
X147329790Y-113382684D01*
X146811140Y-113382684D01*
X146804880Y-113331128D01*
X146793264Y-113300500D01*
X146744557Y-113172068D01*
X146663580Y-113054754D01*
X146647923Y-113032071D01*
X146520592Y-112919266D01*
X146520589Y-112919263D01*
X146369966Y-112840210D01*
X146204796Y-112799500D01*
X146034684Y-112799500D01*
X145869513Y-112840210D01*
X145718890Y-112919263D01*
X145591556Y-113032072D01*
X145494922Y-113172068D01*
X145434600Y-113331125D01*
X145434599Y-113331130D01*
X145414095Y-113500000D01*
X107750716Y-113500000D01*
X107798836Y-113443659D01*
X107930466Y-113228859D01*
X108026873Y-112996111D01*
X108085683Y-112751148D01*
X108105449Y-112500000D01*
X108085683Y-112248852D01*
X108026873Y-112003889D01*
X107930466Y-111771141D01*
X107930466Y-111771140D01*
X107849479Y-111638983D01*
X107831234Y-111571538D01*
X107852350Y-111504935D01*
X107880891Y-111474929D01*
X107957546Y-111417546D01*
X108043796Y-111302331D01*
X108094091Y-111167483D01*
X108100500Y-111107873D01*
X108100500Y-110948427D01*
X173896810Y-110948427D01*
X173917314Y-111117296D01*
X173917315Y-111117301D01*
X173977637Y-111276358D01*
X173995568Y-111302335D01*
X174074272Y-111416356D01*
X174172972Y-111503796D01*
X174201605Y-111529163D01*
X174352228Y-111608216D01*
X174352230Y-111608217D01*
X174517399Y-111648927D01*
X174687511Y-111648927D01*
X174852680Y-111608217D01*
X174932147Y-111566508D01*
X175003304Y-111529163D01*
X175003305Y-111529161D01*
X175003307Y-111529161D01*
X175130638Y-111416356D01*
X175227273Y-111276357D01*
X175287595Y-111117299D01*
X175308100Y-110948427D01*
X175287595Y-110779555D01*
X175280368Y-110760500D01*
X175227272Y-110620495D01*
X175192931Y-110570745D01*
X175130638Y-110480498D01*
X175003307Y-110367693D01*
X175003304Y-110367690D01*
X174852681Y-110288637D01*
X174687511Y-110247927D01*
X174517399Y-110247927D01*
X174352228Y-110288637D01*
X174201605Y-110367690D01*
X174074271Y-110480499D01*
X173977637Y-110620495D01*
X173917315Y-110779552D01*
X173917314Y-110779557D01*
X173896810Y-110948427D01*
X108100500Y-110948427D01*
X108100499Y-108812128D01*
X108094091Y-108752517D01*
X108047623Y-108627931D01*
X108043797Y-108617671D01*
X108043793Y-108617664D01*
X107957547Y-108502455D01*
X107957544Y-108502452D01*
X107842335Y-108416206D01*
X107842328Y-108416202D01*
X107707482Y-108365908D01*
X107707483Y-108365908D01*
X107647883Y-108359501D01*
X107647881Y-108359500D01*
X107647873Y-108359500D01*
X107647864Y-108359500D01*
X105352129Y-108359500D01*
X105352123Y-108359501D01*
X105292516Y-108365908D01*
X105157671Y-108416202D01*
X105157664Y-108416206D01*
X105042455Y-108502452D01*
X105042452Y-108502455D01*
X104956206Y-108617664D01*
X104956202Y-108617671D01*
X104905908Y-108752517D01*
X104899501Y-108812116D01*
X104899501Y-108812123D01*
X104899500Y-108812135D01*
X104899500Y-109516425D01*
X104879815Y-109583464D01*
X104827011Y-109629219D01*
X104757853Y-109639163D01*
X104694297Y-109610138D01*
X104672398Y-109585316D01*
X104581789Y-109449711D01*
X104581786Y-109449707D01*
X104470292Y-109338213D01*
X104470288Y-109338210D01*
X104339185Y-109250609D01*
X104339172Y-109250602D01*
X104193501Y-109190264D01*
X104193489Y-109190261D01*
X104038845Y-109159500D01*
X104038842Y-109159500D01*
X103881158Y-109159500D01*
X103881155Y-109159500D01*
X103726510Y-109190261D01*
X103726498Y-109190264D01*
X103580827Y-109250602D01*
X103580814Y-109250609D01*
X103449711Y-109338210D01*
X103449707Y-109338213D01*
X103338213Y-109449707D01*
X103338210Y-109449711D01*
X103250609Y-109580814D01*
X103250602Y-109580827D01*
X103190264Y-109726498D01*
X103190261Y-109726510D01*
X103159500Y-109881153D01*
X102500000Y-109881153D01*
X102500000Y-108300000D01*
X154914095Y-108300000D01*
X154934599Y-108468869D01*
X154934600Y-108468874D01*
X154994922Y-108627931D01*
X155057215Y-108718177D01*
X155091557Y-108767929D01*
X155197245Y-108861560D01*
X155218890Y-108880736D01*
X155369513Y-108959789D01*
X155369515Y-108959790D01*
X155534684Y-109000500D01*
X155704796Y-109000500D01*
X155869965Y-108959790D01*
X155949432Y-108918081D01*
X156020589Y-108880736D01*
X156020590Y-108880734D01*
X156020592Y-108880734D01*
X156147923Y-108767929D01*
X156244558Y-108627930D01*
X156304880Y-108468872D01*
X156325385Y-108300000D01*
X156304880Y-108131128D01*
X156244558Y-107972070D01*
X156147923Y-107832071D01*
X156020592Y-107719266D01*
X156020589Y-107719263D01*
X155869966Y-107640210D01*
X155704796Y-107599500D01*
X155534684Y-107599500D01*
X155369513Y-107640210D01*
X155218890Y-107719263D01*
X155091556Y-107832072D01*
X154994922Y-107972068D01*
X154934600Y-108131125D01*
X154934599Y-108131130D01*
X154914095Y-108300000D01*
X102500000Y-108300000D01*
X102500000Y-107000000D01*
X152294355Y-107000000D01*
X152314859Y-107168869D01*
X152314860Y-107168874D01*
X152375182Y-107327931D01*
X152428118Y-107404620D01*
X152471817Y-107467929D01*
X152577505Y-107561560D01*
X152599150Y-107580736D01*
X152749773Y-107659789D01*
X152749775Y-107659790D01*
X152914944Y-107700500D01*
X153085056Y-107700500D01*
X153250225Y-107659790D01*
X153369807Y-107597028D01*
X153400849Y-107580736D01*
X153400850Y-107580734D01*
X153400852Y-107580734D01*
X153528183Y-107467929D01*
X153624818Y-107327930D01*
X153685140Y-107168872D01*
X153705645Y-107000000D01*
X161414095Y-107000000D01*
X161434599Y-107168869D01*
X161434600Y-107168874D01*
X161494922Y-107327931D01*
X161547858Y-107404620D01*
X161591557Y-107467929D01*
X161697245Y-107561560D01*
X161718890Y-107580736D01*
X161869513Y-107659789D01*
X161869515Y-107659790D01*
X162034684Y-107700500D01*
X162204796Y-107700500D01*
X162369965Y-107659790D01*
X162489547Y-107597028D01*
X162520589Y-107580736D01*
X162520590Y-107580734D01*
X162520592Y-107580734D01*
X162647923Y-107467929D01*
X162744558Y-107327930D01*
X162804880Y-107168872D01*
X162825385Y-107000000D01*
X162804880Y-106831128D01*
X162744558Y-106672070D01*
X162647923Y-106532071D01*
X162520592Y-106419266D01*
X162520589Y-106419263D01*
X162369966Y-106340210D01*
X162204796Y-106299500D01*
X162034684Y-106299500D01*
X161869513Y-106340210D01*
X161718890Y-106419263D01*
X161591556Y-106532072D01*
X161494922Y-106672068D01*
X161434600Y-106831125D01*
X161434599Y-106831130D01*
X161414095Y-107000000D01*
X153705645Y-107000000D01*
X153685140Y-106831128D01*
X153624818Y-106672070D01*
X153528183Y-106532071D01*
X153400852Y-106419266D01*
X153400849Y-106419263D01*
X153250226Y-106340210D01*
X153085056Y-106299500D01*
X152914944Y-106299500D01*
X152749773Y-106340210D01*
X152599150Y-106419263D01*
X152471816Y-106532072D01*
X152375182Y-106672068D01*
X152314860Y-106831125D01*
X152314859Y-106831130D01*
X152294355Y-107000000D01*
X102500000Y-107000000D01*
X102500000Y-100000000D01*
X106794355Y-100000000D01*
X106814859Y-100168869D01*
X106814860Y-100168874D01*
X106875182Y-100327931D01*
X106904368Y-100370213D01*
X106971817Y-100467929D01*
X107055628Y-100542179D01*
X107099150Y-100580736D01*
X107249773Y-100659789D01*
X107249775Y-100659790D01*
X107414944Y-100700500D01*
X107585056Y-100700500D01*
X107750225Y-100659790D01*
X107829692Y-100618081D01*
X107900849Y-100580736D01*
X107900850Y-100580734D01*
X107900852Y-100580734D01*
X108028183Y-100467929D01*
X108124818Y-100327930D01*
X108185140Y-100168872D01*
X108205645Y-100000000D01*
X108185140Y-99831128D01*
X108180410Y-99818657D01*
X108124817Y-99672068D01*
X108067883Y-99589586D01*
X108028183Y-99532071D01*
X107900852Y-99419266D01*
X107900849Y-99419263D01*
X107750226Y-99340210D01*
X107585056Y-99299500D01*
X107414944Y-99299500D01*
X107249773Y-99340210D01*
X107099150Y-99419263D01*
X106971816Y-99532072D01*
X106875182Y-99672068D01*
X106814860Y-99831125D01*
X106814859Y-99831130D01*
X106794355Y-100000000D01*
X102500000Y-100000000D01*
X102500000Y-99205000D01*
X112294355Y-99205000D01*
X112314859Y-99373869D01*
X112314860Y-99373874D01*
X112375182Y-99532931D01*
X112414289Y-99589586D01*
X112471817Y-99672929D01*
X112577505Y-99766560D01*
X112599150Y-99785736D01*
X112749773Y-99864789D01*
X112749775Y-99864790D01*
X112914944Y-99905500D01*
X113085056Y-99905500D01*
X113250225Y-99864790D01*
X113338125Y-99818656D01*
X113400849Y-99785736D01*
X113400850Y-99785734D01*
X113400852Y-99785734D01*
X113528183Y-99672929D01*
X113624818Y-99532930D01*
X113685140Y-99373872D01*
X113705645Y-99205000D01*
X113685140Y-99036128D01*
X113624818Y-98877070D01*
X113528183Y-98737071D01*
X113430989Y-98650965D01*
X113400849Y-98624263D01*
X113250226Y-98545210D01*
X113085056Y-98504500D01*
X112914944Y-98504500D01*
X112749773Y-98545210D01*
X112599150Y-98624263D01*
X112471816Y-98737072D01*
X112375182Y-98877068D01*
X112314860Y-99036125D01*
X112314859Y-99036130D01*
X112294355Y-99205000D01*
X102500000Y-99205000D01*
X102500000Y-92500000D01*
X103294355Y-92500000D01*
X103314859Y-92668869D01*
X103314860Y-92668874D01*
X103375182Y-92827931D01*
X103437475Y-92918177D01*
X103471817Y-92967929D01*
X103577505Y-93061560D01*
X103599150Y-93080736D01*
X103749773Y-93159789D01*
X103749775Y-93159790D01*
X103914944Y-93200500D01*
X104085056Y-93200500D01*
X104250225Y-93159790D01*
X104329692Y-93118081D01*
X104400849Y-93080736D01*
X104400850Y-93080734D01*
X104400852Y-93080734D01*
X104528183Y-92967929D01*
X104624818Y-92827930D01*
X104685140Y-92668872D01*
X104705645Y-92500000D01*
X104685140Y-92331128D01*
X104637306Y-92204999D01*
X115644341Y-92204999D01*
X115644341Y-92205000D01*
X115664936Y-92440403D01*
X115664938Y-92440413D01*
X115726094Y-92668655D01*
X115726096Y-92668659D01*
X115726097Y-92668663D01*
X115800365Y-92827930D01*
X115825965Y-92882830D01*
X115825967Y-92882834D01*
X115961501Y-93076395D01*
X115961506Y-93076402D01*
X116128597Y-93243493D01*
X116128603Y-93243498D01*
X116314158Y-93373425D01*
X116357783Y-93428002D01*
X116364977Y-93497500D01*
X116333454Y-93559855D01*
X116314158Y-93576575D01*
X116128597Y-93706505D01*
X115961505Y-93873597D01*
X115825965Y-94067169D01*
X115825964Y-94067171D01*
X115726098Y-94281335D01*
X115726094Y-94281344D01*
X115664938Y-94509586D01*
X115664936Y-94509596D01*
X115644341Y-94744999D01*
X115644341Y-94745000D01*
X115664936Y-94980403D01*
X115664938Y-94980413D01*
X115726094Y-95208655D01*
X115726096Y-95208659D01*
X115726097Y-95208663D01*
X115825965Y-95422830D01*
X115825967Y-95422834D01*
X115961501Y-95616395D01*
X115961506Y-95616402D01*
X116128597Y-95783493D01*
X116128603Y-95783498D01*
X116314158Y-95913425D01*
X116357783Y-95968002D01*
X116364977Y-96037500D01*
X116333454Y-96099855D01*
X116314158Y-96116575D01*
X116128597Y-96246505D01*
X115961505Y-96413597D01*
X115825965Y-96607169D01*
X115825964Y-96607171D01*
X115726098Y-96821335D01*
X115726094Y-96821344D01*
X115664938Y-97049586D01*
X115664936Y-97049596D01*
X115644341Y-97284999D01*
X115644341Y-97285000D01*
X115664936Y-97520403D01*
X115664938Y-97520413D01*
X115726094Y-97748655D01*
X115726096Y-97748659D01*
X115726097Y-97748663D01*
X115764336Y-97830666D01*
X115825965Y-97962830D01*
X115825967Y-97962834D01*
X115961501Y-98156395D01*
X115961506Y-98156402D01*
X116128597Y-98323493D01*
X116128603Y-98323498D01*
X116314158Y-98453425D01*
X116357783Y-98508002D01*
X116364977Y-98577500D01*
X116333454Y-98639855D01*
X116314158Y-98656575D01*
X116128597Y-98786505D01*
X115961505Y-98953597D01*
X115825965Y-99147169D01*
X115825964Y-99147171D01*
X115726098Y-99361335D01*
X115726094Y-99361344D01*
X115664938Y-99589586D01*
X115664936Y-99589596D01*
X115644341Y-99824999D01*
X115644341Y-99825000D01*
X115664936Y-100060403D01*
X115664938Y-100060413D01*
X115726094Y-100288655D01*
X115726096Y-100288659D01*
X115726097Y-100288663D01*
X115809690Y-100467929D01*
X115825965Y-100502830D01*
X115825967Y-100502834D01*
X115961501Y-100696395D01*
X115961506Y-100696402D01*
X116128597Y-100863493D01*
X116128603Y-100863498D01*
X116314158Y-100993425D01*
X116357783Y-101048002D01*
X116364977Y-101117500D01*
X116333454Y-101179855D01*
X116314158Y-101196575D01*
X116128597Y-101326505D01*
X115961505Y-101493597D01*
X115825965Y-101687169D01*
X115825964Y-101687171D01*
X115726098Y-101901335D01*
X115726094Y-101901344D01*
X115664938Y-102129586D01*
X115664936Y-102129596D01*
X115644341Y-102364999D01*
X115644341Y-102365000D01*
X115664936Y-102600403D01*
X115664938Y-102600413D01*
X115726094Y-102828655D01*
X115726096Y-102828659D01*
X115726097Y-102828663D01*
X115825661Y-103042179D01*
X115825965Y-103042830D01*
X115825967Y-103042834D01*
X115961501Y-103236395D01*
X115961506Y-103236402D01*
X116128597Y-103403493D01*
X116128603Y-103403498D01*
X116314158Y-103533425D01*
X116357783Y-103588002D01*
X116364977Y-103657500D01*
X116333454Y-103719855D01*
X116314158Y-103736575D01*
X116128597Y-103866505D01*
X115961505Y-104033597D01*
X115825965Y-104227169D01*
X115825964Y-104227171D01*
X115726098Y-104441335D01*
X115726094Y-104441344D01*
X115664938Y-104669586D01*
X115664936Y-104669596D01*
X115644341Y-104904999D01*
X115644341Y-104905000D01*
X115664936Y-105140403D01*
X115664938Y-105140413D01*
X115726094Y-105368655D01*
X115726096Y-105368659D01*
X115726097Y-105368663D01*
X115749694Y-105419266D01*
X115825965Y-105582830D01*
X115825967Y-105582834D01*
X115930262Y-105731782D01*
X115961505Y-105776401D01*
X116128599Y-105943495D01*
X116225384Y-106011265D01*
X116322165Y-106079032D01*
X116322167Y-106079033D01*
X116322170Y-106079035D01*
X116536337Y-106178903D01*
X116764592Y-106240063D01*
X116952918Y-106256539D01*
X116999999Y-106260659D01*
X117000000Y-106260659D01*
X117000001Y-106260659D01*
X117039234Y-106257226D01*
X117235408Y-106240063D01*
X117463663Y-106178903D01*
X117677830Y-106079035D01*
X117790704Y-106000000D01*
X140914095Y-106000000D01*
X140934599Y-106168869D01*
X140934600Y-106168874D01*
X140994922Y-106327931D01*
X141003398Y-106340210D01*
X141091557Y-106467929D01*
X141163959Y-106532071D01*
X141218890Y-106580736D01*
X141369513Y-106659789D01*
X141369515Y-106659790D01*
X141534684Y-106700500D01*
X141704796Y-106700500D01*
X141869965Y-106659790D01*
X141949432Y-106618081D01*
X142020589Y-106580736D01*
X142020590Y-106580734D01*
X142020592Y-106580734D01*
X142147923Y-106467929D01*
X142244558Y-106327930D01*
X142304880Y-106168872D01*
X142325385Y-106000000D01*
X150044355Y-106000000D01*
X150064859Y-106168869D01*
X150064860Y-106168874D01*
X150125182Y-106327931D01*
X150133658Y-106340210D01*
X150221817Y-106467929D01*
X150294219Y-106532071D01*
X150349150Y-106580736D01*
X150499773Y-106659789D01*
X150499775Y-106659790D01*
X150664944Y-106700500D01*
X150835056Y-106700500D01*
X151000225Y-106659790D01*
X151079692Y-106618081D01*
X151150849Y-106580736D01*
X151150850Y-106580734D01*
X151150852Y-106580734D01*
X151278183Y-106467929D01*
X151374818Y-106327930D01*
X151435140Y-106168872D01*
X151455645Y-106000000D01*
X151435140Y-105831128D01*
X151374818Y-105672070D01*
X151372608Y-105668869D01*
X151313222Y-105582834D01*
X151278183Y-105532071D01*
X151241982Y-105500000D01*
X163794355Y-105500000D01*
X163814859Y-105668869D01*
X163814860Y-105668874D01*
X163875182Y-105827931D01*
X163904155Y-105869905D01*
X163971817Y-105967929D01*
X164077505Y-106061560D01*
X164099150Y-106080736D01*
X164249773Y-106159789D01*
X164249775Y-106159790D01*
X164414944Y-106200500D01*
X164585056Y-106200500D01*
X164750225Y-106159790D01*
X164829692Y-106118081D01*
X164900849Y-106080736D01*
X164900850Y-106080734D01*
X164900852Y-106080734D01*
X165028183Y-105967929D01*
X165124818Y-105827930D01*
X165185140Y-105668872D01*
X165205645Y-105500000D01*
X165185140Y-105331128D01*
X165124818Y-105172070D01*
X165028183Y-105032071D01*
X164900852Y-104919266D01*
X164900849Y-104919263D01*
X164750226Y-104840210D01*
X164585056Y-104799500D01*
X164414944Y-104799500D01*
X164249773Y-104840210D01*
X164099150Y-104919263D01*
X163971816Y-105032072D01*
X163875182Y-105172068D01*
X163814860Y-105331125D01*
X163814859Y-105331130D01*
X163794355Y-105500000D01*
X151241982Y-105500000D01*
X151150852Y-105419266D01*
X151150849Y-105419263D01*
X151000226Y-105340210D01*
X150835056Y-105299500D01*
X150664944Y-105299500D01*
X150499773Y-105340210D01*
X150349150Y-105419263D01*
X150221816Y-105532072D01*
X150125182Y-105672068D01*
X150064860Y-105831125D01*
X150064859Y-105831130D01*
X150044355Y-106000000D01*
X142325385Y-106000000D01*
X142304880Y-105831128D01*
X142244558Y-105672070D01*
X142242348Y-105668869D01*
X142182962Y-105582834D01*
X142147923Y-105532071D01*
X142020592Y-105419266D01*
X142020589Y-105419263D01*
X141869966Y-105340210D01*
X141704796Y-105299500D01*
X141534684Y-105299500D01*
X141369513Y-105340210D01*
X141218890Y-105419263D01*
X141091556Y-105532072D01*
X140994922Y-105672068D01*
X140934600Y-105831125D01*
X140934599Y-105831130D01*
X140914095Y-106000000D01*
X117790704Y-106000000D01*
X117871401Y-105943495D01*
X118038495Y-105776401D01*
X118174035Y-105582830D01*
X118273903Y-105368663D01*
X118335063Y-105140408D01*
X118355659Y-104905000D01*
X118335063Y-104669592D01*
X118289622Y-104500000D01*
X148914095Y-104500000D01*
X148934599Y-104668869D01*
X148934600Y-104668874D01*
X148994922Y-104827931D01*
X149003398Y-104840210D01*
X149091557Y-104967929D01*
X149155903Y-105024934D01*
X149218890Y-105080736D01*
X149369513Y-105159789D01*
X149369515Y-105159790D01*
X149534684Y-105200500D01*
X149704796Y-105200500D01*
X149869965Y-105159790D01*
X149949432Y-105118081D01*
X150020589Y-105080736D01*
X150020590Y-105080734D01*
X150020592Y-105080734D01*
X150147923Y-104967929D01*
X150244558Y-104827930D01*
X150304880Y-104668872D01*
X150325385Y-104500000D01*
X150304880Y-104331128D01*
X150244558Y-104172070D01*
X150147923Y-104032071D01*
X150020592Y-103919266D01*
X150020589Y-103919263D01*
X149869966Y-103840210D01*
X149704796Y-103799500D01*
X149534684Y-103799500D01*
X149369513Y-103840210D01*
X149218890Y-103919263D01*
X149091556Y-104032072D01*
X148994922Y-104172068D01*
X148934600Y-104331125D01*
X148934599Y-104331130D01*
X148914095Y-104500000D01*
X118289622Y-104500000D01*
X118278320Y-104457820D01*
X118273905Y-104441344D01*
X118273904Y-104441343D01*
X118273903Y-104441337D01*
X118174035Y-104227171D01*
X118061353Y-104066243D01*
X118038494Y-104033597D01*
X117871402Y-103866506D01*
X117871396Y-103866501D01*
X117685842Y-103736575D01*
X117642217Y-103681998D01*
X117635023Y-103612500D01*
X117666546Y-103550145D01*
X117685842Y-103533425D01*
X117828182Y-103433757D01*
X117871401Y-103403495D01*
X118038495Y-103236401D01*
X118174035Y-103042830D01*
X118273903Y-102828663D01*
X118335063Y-102600408D01*
X118355659Y-102365000D01*
X118335063Y-102129592D01*
X118300339Y-102000000D01*
X140414095Y-102000000D01*
X140434599Y-102168869D01*
X140434600Y-102168874D01*
X140494922Y-102327931D01*
X140544448Y-102399681D01*
X140591557Y-102467929D01*
X140655554Y-102524625D01*
X140718890Y-102580736D01*
X140869513Y-102659789D01*
X140869515Y-102659790D01*
X141034684Y-102700500D01*
X141204796Y-102700500D01*
X141369965Y-102659790D01*
X141449432Y-102618081D01*
X141520589Y-102580736D01*
X141520590Y-102580734D01*
X141520592Y-102580734D01*
X141647923Y-102467929D01*
X141744558Y-102327930D01*
X141804880Y-102168872D01*
X141825385Y-102000000D01*
X141804880Y-101831128D01*
X141744558Y-101672070D01*
X141647923Y-101532071D01*
X141520592Y-101419266D01*
X141520589Y-101419263D01*
X141369966Y-101340210D01*
X141204796Y-101299500D01*
X141034684Y-101299500D01*
X140869513Y-101340210D01*
X140718890Y-101419263D01*
X140591556Y-101532072D01*
X140494922Y-101672068D01*
X140434600Y-101831125D01*
X140434599Y-101831130D01*
X140414095Y-102000000D01*
X118300339Y-102000000D01*
X118273903Y-101901337D01*
X118174035Y-101687171D01*
X118163462Y-101672070D01*
X118038494Y-101493597D01*
X117871402Y-101326506D01*
X117871396Y-101326501D01*
X117685842Y-101196575D01*
X117642217Y-101141998D01*
X117635023Y-101072500D01*
X117666546Y-101010145D01*
X117685842Y-100993425D01*
X117771052Y-100933760D01*
X117871401Y-100863495D01*
X118038495Y-100696401D01*
X118174035Y-100502830D01*
X118273903Y-100288663D01*
X118335063Y-100060408D01*
X118340348Y-100000000D01*
X155914095Y-100000000D01*
X155934599Y-100168869D01*
X155934600Y-100168874D01*
X155994922Y-100327931D01*
X156024108Y-100370213D01*
X156091557Y-100467929D01*
X156175368Y-100542179D01*
X156218890Y-100580736D01*
X156369513Y-100659789D01*
X156369515Y-100659790D01*
X156534684Y-100700500D01*
X156704796Y-100700500D01*
X156869965Y-100659790D01*
X156949432Y-100618081D01*
X157020589Y-100580736D01*
X157020590Y-100580734D01*
X157020592Y-100580734D01*
X157147923Y-100467929D01*
X157244558Y-100327930D01*
X157304880Y-100168872D01*
X157325385Y-100000000D01*
X163294355Y-100000000D01*
X163314859Y-100168869D01*
X163314860Y-100168874D01*
X163375182Y-100327931D01*
X163404368Y-100370213D01*
X163471817Y-100467929D01*
X163555628Y-100542179D01*
X163599150Y-100580736D01*
X163749773Y-100659789D01*
X163749775Y-100659790D01*
X163914944Y-100700500D01*
X164085056Y-100700500D01*
X164250225Y-100659790D01*
X164329692Y-100618081D01*
X164400849Y-100580736D01*
X164400850Y-100580734D01*
X164400852Y-100580734D01*
X164528183Y-100467929D01*
X164624818Y-100327930D01*
X164685140Y-100168872D01*
X164705645Y-100000000D01*
X164685140Y-99831128D01*
X164680410Y-99818657D01*
X164624817Y-99672068D01*
X164567883Y-99589586D01*
X164528183Y-99532071D01*
X164400852Y-99419266D01*
X164400849Y-99419263D01*
X164250226Y-99340210D01*
X164085056Y-99299500D01*
X163914944Y-99299500D01*
X163749773Y-99340210D01*
X163599150Y-99419263D01*
X163471816Y-99532072D01*
X163375182Y-99672068D01*
X163314860Y-99831125D01*
X163314859Y-99831130D01*
X163294355Y-100000000D01*
X157325385Y-100000000D01*
X157304880Y-99831128D01*
X157300150Y-99818657D01*
X157244557Y-99672068D01*
X157187623Y-99589586D01*
X157147923Y-99532071D01*
X157020592Y-99419266D01*
X157020589Y-99419263D01*
X156869966Y-99340210D01*
X156704796Y-99299500D01*
X156534684Y-99299500D01*
X156369513Y-99340210D01*
X156218890Y-99419263D01*
X156091556Y-99532072D01*
X155994922Y-99672068D01*
X155934600Y-99831125D01*
X155934599Y-99831130D01*
X155914095Y-100000000D01*
X118340348Y-100000000D01*
X118355659Y-99825000D01*
X118335063Y-99589592D01*
X118273903Y-99361337D01*
X118174035Y-99147171D01*
X118146718Y-99108157D01*
X118038494Y-98953597D01*
X117871402Y-98786506D01*
X117871396Y-98786501D01*
X117685842Y-98656575D01*
X117672775Y-98640228D01*
X173074335Y-98640228D01*
X173094839Y-98809097D01*
X173094840Y-98809102D01*
X173155162Y-98968159D01*
X173202080Y-99036130D01*
X173251797Y-99108157D01*
X173357485Y-99201788D01*
X173379130Y-99220964D01*
X173528768Y-99299500D01*
X173529755Y-99300018D01*
X173694924Y-99340728D01*
X173865036Y-99340728D01*
X174030205Y-99300018D01*
X174109672Y-99258309D01*
X174180829Y-99220964D01*
X174180830Y-99220962D01*
X174180832Y-99220962D01*
X174308163Y-99108157D01*
X174404798Y-98968158D01*
X174465120Y-98809100D01*
X174485625Y-98640228D01*
X174465120Y-98471356D01*
X174404798Y-98312298D01*
X174308163Y-98172299D01*
X174226535Y-98099983D01*
X194492000Y-98099983D01*
X194492000Y-99400001D01*
X194492001Y-99400018D01*
X194502500Y-99502796D01*
X194502501Y-99502799D01*
X194557685Y-99669331D01*
X194557687Y-99669336D01*
X194649789Y-99818657D01*
X194773844Y-99942712D01*
X194928620Y-100038178D01*
X194975345Y-100090126D01*
X194986568Y-100159088D01*
X194958724Y-100223171D01*
X194951206Y-100231398D01*
X194812389Y-100370215D01*
X194687451Y-100542179D01*
X194590944Y-100731585D01*
X194525253Y-100933760D01*
X194492000Y-101143713D01*
X194492000Y-101356286D01*
X194519841Y-101532071D01*
X194525254Y-101566243D01*
X194564545Y-101687169D01*
X194590944Y-101768414D01*
X194687451Y-101957820D01*
X194812390Y-102129786D01*
X194962709Y-102280105D01*
X194962714Y-102280109D01*
X195127293Y-102399682D01*
X195169959Y-102455011D01*
X195175938Y-102524625D01*
X195143333Y-102586420D01*
X195127293Y-102600318D01*
X194962714Y-102719890D01*
X194962709Y-102719894D01*
X194812390Y-102870213D01*
X194687451Y-103042179D01*
X194590944Y-103231585D01*
X194525253Y-103433760D01*
X194509468Y-103533425D01*
X194492000Y-103643713D01*
X194492000Y-103856287D01*
X194493619Y-103866506D01*
X194520083Y-104033599D01*
X194525254Y-104066243D01*
X194577542Y-104227169D01*
X194590944Y-104268414D01*
X194687451Y-104457820D01*
X194812390Y-104629786D01*
X194962709Y-104780105D01*
X194962714Y-104780109D01*
X195127718Y-104899991D01*
X195170384Y-104955320D01*
X195176363Y-105024934D01*
X195143758Y-105086729D01*
X195127718Y-105100627D01*
X194963040Y-105220272D01*
X194963035Y-105220276D01*
X194812776Y-105370535D01*
X194812772Y-105370540D01*
X194687879Y-105542442D01*
X194591404Y-105731782D01*
X194525742Y-105933870D01*
X194525742Y-105933873D01*
X194515269Y-106000000D01*
X195563354Y-106000000D01*
X195524870Y-106066657D01*
X195492500Y-106187465D01*
X195492500Y-106312535D01*
X195524870Y-106433343D01*
X195563354Y-106500000D01*
X194515269Y-106500000D01*
X194525742Y-106566126D01*
X194525742Y-106566129D01*
X194591404Y-106768217D01*
X194687879Y-106957557D01*
X194812772Y-107129459D01*
X194812776Y-107129464D01*
X194963035Y-107279723D01*
X194963040Y-107279727D01*
X195134942Y-107404620D01*
X195324282Y-107501095D01*
X195526372Y-107566757D01*
X195717500Y-107597029D01*
X195717500Y-106654145D01*
X195784157Y-106692630D01*
X195904965Y-106725000D01*
X196030035Y-106725000D01*
X196150843Y-106692630D01*
X196217500Y-106654145D01*
X196217500Y-107597028D01*
X196408627Y-107566757D01*
X196610717Y-107501095D01*
X196800057Y-107404620D01*
X196971959Y-107279727D01*
X196971964Y-107279723D01*
X197122223Y-107129464D01*
X197122227Y-107129459D01*
X197247120Y-106957557D01*
X197343595Y-106768217D01*
X197409257Y-106566129D01*
X197409257Y-106566126D01*
X197419731Y-106500000D01*
X196371646Y-106500000D01*
X196410130Y-106433343D01*
X196442500Y-106312535D01*
X196442500Y-106187465D01*
X196410130Y-106066657D01*
X196371646Y-106000000D01*
X197419731Y-106000000D01*
X197409257Y-105933873D01*
X197409257Y-105933870D01*
X197343595Y-105731782D01*
X197247120Y-105542442D01*
X197122227Y-105370540D01*
X197122223Y-105370535D01*
X196971964Y-105220276D01*
X196971959Y-105220272D01*
X196807281Y-105100627D01*
X196764615Y-105045297D01*
X196758636Y-104975684D01*
X196791241Y-104913889D01*
X196807276Y-104899994D01*
X196972292Y-104780104D01*
X197122604Y-104629792D01*
X197122606Y-104629788D01*
X197122609Y-104629786D01*
X197247548Y-104457820D01*
X197247547Y-104457820D01*
X197247551Y-104457816D01*
X197344057Y-104268412D01*
X197409746Y-104066243D01*
X197443000Y-103856287D01*
X197443000Y-103643713D01*
X197409746Y-103433757D01*
X197344057Y-103231588D01*
X197247551Y-103042184D01*
X197247549Y-103042181D01*
X197247548Y-103042179D01*
X197122609Y-102870213D01*
X196972292Y-102719896D01*
X196972284Y-102719890D01*
X196807704Y-102600316D01*
X196765040Y-102544989D01*
X196759061Y-102475376D01*
X196791666Y-102413580D01*
X196807699Y-102399686D01*
X196972292Y-102280104D01*
X197122604Y-102129792D01*
X197122606Y-102129788D01*
X197122609Y-102129786D01*
X197247548Y-101957820D01*
X197247547Y-101957820D01*
X197247551Y-101957816D01*
X197344057Y-101768412D01*
X197409746Y-101566243D01*
X197443000Y-101356287D01*
X197443000Y-101143713D01*
X197409746Y-100933757D01*
X197344057Y-100731588D01*
X197247551Y-100542184D01*
X197247549Y-100542181D01*
X197247548Y-100542179D01*
X197122609Y-100370213D01*
X196983794Y-100231398D01*
X196950309Y-100170075D01*
X196955293Y-100100383D01*
X196997165Y-100044450D01*
X197006379Y-100038178D01*
X197011831Y-100034814D01*
X197011834Y-100034814D01*
X197161156Y-99942712D01*
X197285212Y-99818656D01*
X197377314Y-99669334D01*
X197432499Y-99502797D01*
X197443000Y-99400009D01*
X197442999Y-98099992D01*
X197432499Y-97997203D01*
X197377314Y-97830666D01*
X197285212Y-97681344D01*
X197161156Y-97557288D01*
X197011834Y-97465186D01*
X196845297Y-97410001D01*
X196845295Y-97410000D01*
X196742510Y-97399500D01*
X195192498Y-97399500D01*
X195192481Y-97399501D01*
X195089703Y-97410000D01*
X195089700Y-97410001D01*
X194923168Y-97465185D01*
X194923163Y-97465187D01*
X194773842Y-97557289D01*
X194649789Y-97681342D01*
X194557687Y-97830663D01*
X194557686Y-97830666D01*
X194502501Y-97997203D01*
X194502501Y-97997204D01*
X194502500Y-97997204D01*
X194492000Y-98099983D01*
X174226535Y-98099983D01*
X174180832Y-98059494D01*
X174180829Y-98059491D01*
X174030206Y-97980438D01*
X173865036Y-97939728D01*
X173694924Y-97939728D01*
X173529753Y-97980438D01*
X173379130Y-98059491D01*
X173251796Y-98172300D01*
X173155162Y-98312296D01*
X173094840Y-98471353D01*
X173094839Y-98471358D01*
X173074335Y-98640228D01*
X117672775Y-98640228D01*
X117642217Y-98601998D01*
X117635023Y-98532500D01*
X117666546Y-98470145D01*
X117685842Y-98453425D01*
X117708026Y-98437891D01*
X117871401Y-98323495D01*
X118038495Y-98156401D01*
X118174035Y-97962830D01*
X118273903Y-97748663D01*
X118335063Y-97520408D01*
X118355659Y-97285000D01*
X118335063Y-97049592D01*
X118321775Y-97000000D01*
X150914095Y-97000000D01*
X150934599Y-97168869D01*
X150934600Y-97168874D01*
X150994922Y-97327931D01*
X151044324Y-97399501D01*
X151091557Y-97467929D01*
X151192423Y-97557288D01*
X151218890Y-97580736D01*
X151369513Y-97659789D01*
X151369515Y-97659790D01*
X151534684Y-97700500D01*
X151704796Y-97700500D01*
X151869965Y-97659790D01*
X151949432Y-97618081D01*
X152020589Y-97580736D01*
X152020590Y-97580734D01*
X152020592Y-97580734D01*
X152147923Y-97467929D01*
X152244558Y-97327930D01*
X152304880Y-97168872D01*
X152325385Y-97000000D01*
X152304880Y-96831128D01*
X152301169Y-96821344D01*
X152244557Y-96672068D01*
X152199760Y-96607169D01*
X152147923Y-96532071D01*
X152020592Y-96419266D01*
X152020589Y-96419263D01*
X151869966Y-96340210D01*
X151704796Y-96299500D01*
X151534684Y-96299500D01*
X151369513Y-96340210D01*
X151218890Y-96419263D01*
X151091556Y-96532072D01*
X150994922Y-96672068D01*
X150934600Y-96831125D01*
X150934599Y-96831130D01*
X150914095Y-97000000D01*
X118321775Y-97000000D01*
X118276527Y-96831130D01*
X118273905Y-96821344D01*
X118273904Y-96821343D01*
X118273903Y-96821337D01*
X118174035Y-96607171D01*
X118121451Y-96532072D01*
X118038494Y-96413597D01*
X117871402Y-96246506D01*
X117871396Y-96246501D01*
X117685842Y-96116575D01*
X117642217Y-96061998D01*
X117635023Y-95992500D01*
X117666546Y-95930145D01*
X117685842Y-95913425D01*
X117708026Y-95897891D01*
X117871401Y-95783495D01*
X118038495Y-95616401D01*
X118174035Y-95422830D01*
X118273903Y-95208663D01*
X118335063Y-94980408D01*
X118355659Y-94745000D01*
X118335063Y-94509592D01*
X118287244Y-94331128D01*
X118273905Y-94281344D01*
X118273904Y-94281343D01*
X118273903Y-94281337D01*
X118174035Y-94067171D01*
X118127002Y-94000000D01*
X165544355Y-94000000D01*
X165564859Y-94168869D01*
X165564860Y-94168874D01*
X165625182Y-94327931D01*
X165687475Y-94418177D01*
X165721817Y-94467929D01*
X165827505Y-94561560D01*
X165849150Y-94580736D01*
X165999773Y-94659789D01*
X165999775Y-94659790D01*
X166164944Y-94700500D01*
X166335056Y-94700500D01*
X166500225Y-94659790D01*
X166579692Y-94618081D01*
X166650849Y-94580736D01*
X166650850Y-94580734D01*
X166650852Y-94580734D01*
X166741982Y-94500000D01*
X173544355Y-94500000D01*
X173564859Y-94668869D01*
X173564860Y-94668874D01*
X173625182Y-94827931D01*
X173687475Y-94918177D01*
X173721817Y-94967929D01*
X173827505Y-95061560D01*
X173849150Y-95080736D01*
X173999773Y-95159789D01*
X173999775Y-95159790D01*
X174164944Y-95200500D01*
X174335056Y-95200500D01*
X174500225Y-95159790D01*
X174579692Y-95118081D01*
X174650849Y-95080736D01*
X174650850Y-95080734D01*
X174650852Y-95080734D01*
X174778183Y-94967929D01*
X174874818Y-94827930D01*
X174935140Y-94668872D01*
X174955645Y-94500000D01*
X174935140Y-94331128D01*
X174874818Y-94172070D01*
X174872608Y-94168869D01*
X174802411Y-94067171D01*
X174778183Y-94032071D01*
X174741982Y-94000000D01*
X190294355Y-94000000D01*
X190314859Y-94168869D01*
X190314860Y-94168874D01*
X190375182Y-94327931D01*
X190437475Y-94418177D01*
X190471817Y-94467929D01*
X190577505Y-94561560D01*
X190599150Y-94580736D01*
X190749773Y-94659789D01*
X190749775Y-94659790D01*
X190914944Y-94700500D01*
X191085056Y-94700500D01*
X191250225Y-94659790D01*
X191329692Y-94618081D01*
X191400849Y-94580736D01*
X191400850Y-94580734D01*
X191400852Y-94580734D01*
X191528183Y-94467929D01*
X191624818Y-94327930D01*
X191685140Y-94168872D01*
X191705645Y-94000000D01*
X191685140Y-93831128D01*
X191624818Y-93672070D01*
X191528183Y-93532071D01*
X191400852Y-93419266D01*
X191400849Y-93419263D01*
X191250226Y-93340210D01*
X191085056Y-93299500D01*
X190914944Y-93299500D01*
X190749773Y-93340210D01*
X190599150Y-93419263D01*
X190471816Y-93532072D01*
X190375182Y-93672068D01*
X190314860Y-93831125D01*
X190314859Y-93831130D01*
X190294355Y-94000000D01*
X174741982Y-94000000D01*
X174650852Y-93919266D01*
X174650849Y-93919263D01*
X174500226Y-93840210D01*
X174335056Y-93799500D01*
X174164944Y-93799500D01*
X173999773Y-93840210D01*
X173849150Y-93919263D01*
X173721816Y-94032072D01*
X173625182Y-94172068D01*
X173564860Y-94331125D01*
X173564859Y-94331130D01*
X173544355Y-94500000D01*
X166741982Y-94500000D01*
X166778183Y-94467929D01*
X166874818Y-94327930D01*
X166935140Y-94168872D01*
X166955645Y-94000000D01*
X166935140Y-93831128D01*
X166874818Y-93672070D01*
X166778183Y-93532071D01*
X166650852Y-93419266D01*
X166650849Y-93419263D01*
X166500226Y-93340210D01*
X166335056Y-93299500D01*
X166164944Y-93299500D01*
X165999773Y-93340210D01*
X165849150Y-93419263D01*
X165721816Y-93532072D01*
X165625182Y-93672068D01*
X165564860Y-93831125D01*
X165564859Y-93831130D01*
X165544355Y-94000000D01*
X118127002Y-94000000D01*
X118070472Y-93919266D01*
X118038494Y-93873597D01*
X117871402Y-93706506D01*
X117871396Y-93706501D01*
X117685842Y-93576575D01*
X117642217Y-93521998D01*
X117635023Y-93452500D01*
X117666546Y-93390145D01*
X117685842Y-93373425D01*
X117733278Y-93340210D01*
X117871401Y-93243495D01*
X118038495Y-93076401D01*
X118174035Y-92882830D01*
X118273903Y-92668663D01*
X118335063Y-92440408D01*
X118355659Y-92205000D01*
X118335063Y-91969592D01*
X118273903Y-91741337D01*
X118174035Y-91527171D01*
X118132554Y-91467929D01*
X118038494Y-91333597D01*
X117871402Y-91166506D01*
X117871401Y-91166505D01*
X117685405Y-91036269D01*
X117656415Y-91000000D01*
X170794355Y-91000000D01*
X170814859Y-91168869D01*
X170814860Y-91168874D01*
X170875182Y-91327931D01*
X170906895Y-91373874D01*
X170971817Y-91467929D01*
X171077505Y-91561560D01*
X171099150Y-91580736D01*
X171249773Y-91659789D01*
X171249775Y-91659790D01*
X171414944Y-91700500D01*
X171585056Y-91700500D01*
X171750225Y-91659790D01*
X171829692Y-91618081D01*
X171900849Y-91580736D01*
X171900850Y-91580734D01*
X171900852Y-91580734D01*
X172028183Y-91467929D01*
X172124818Y-91327930D01*
X172185140Y-91168872D01*
X172205645Y-91000000D01*
X172185140Y-90831128D01*
X172124818Y-90672070D01*
X172028183Y-90532071D01*
X171900852Y-90419266D01*
X171900849Y-90419263D01*
X171750226Y-90340210D01*
X171585056Y-90299500D01*
X171414944Y-90299500D01*
X171249773Y-90340210D01*
X171099150Y-90419263D01*
X170971816Y-90532072D01*
X170875182Y-90672068D01*
X170814860Y-90831125D01*
X170814859Y-90831130D01*
X170794355Y-91000000D01*
X117656415Y-91000000D01*
X117641781Y-90981692D01*
X117634588Y-90912193D01*
X117666110Y-90849839D01*
X117685405Y-90833119D01*
X117871082Y-90703105D01*
X118038105Y-90536082D01*
X118173600Y-90342578D01*
X118273429Y-90128492D01*
X118273432Y-90128486D01*
X118330636Y-89915000D01*
X117433012Y-89915000D01*
X117465925Y-89857993D01*
X117500000Y-89730826D01*
X117500000Y-89599174D01*
X117465925Y-89472007D01*
X117433012Y-89415000D01*
X118330636Y-89415000D01*
X118330635Y-89414999D01*
X118273432Y-89201513D01*
X118273429Y-89201507D01*
X118173600Y-88987422D01*
X118173599Y-88987420D01*
X118038113Y-88793926D01*
X118038108Y-88793920D01*
X117916053Y-88671865D01*
X117882568Y-88610542D01*
X117887552Y-88540850D01*
X117929424Y-88484917D01*
X117960400Y-88468002D01*
X118092331Y-88418796D01*
X118207546Y-88332546D01*
X118293796Y-88217331D01*
X118344091Y-88082483D01*
X118350500Y-88022873D01*
X118350500Y-88000000D01*
X135294355Y-88000000D01*
X135314859Y-88168869D01*
X135314860Y-88168874D01*
X135375182Y-88327931D01*
X135411189Y-88380095D01*
X135471817Y-88467929D01*
X135528581Y-88518217D01*
X135599150Y-88580736D01*
X135749773Y-88659789D01*
X135749775Y-88659790D01*
X135914944Y-88700500D01*
X136085056Y-88700500D01*
X136250225Y-88659790D01*
X136344058Y-88610542D01*
X136400849Y-88580736D01*
X136400850Y-88580734D01*
X136400852Y-88580734D01*
X136528183Y-88467929D01*
X136624818Y-88327930D01*
X136685140Y-88168872D01*
X136705645Y-88000000D01*
X136685140Y-87831128D01*
X136624818Y-87672070D01*
X136528183Y-87532071D01*
X136400852Y-87419266D01*
X136400849Y-87419263D01*
X136250226Y-87340210D01*
X136085056Y-87299500D01*
X135914944Y-87299500D01*
X135749773Y-87340210D01*
X135599150Y-87419263D01*
X135471816Y-87532072D01*
X135375182Y-87672068D01*
X135314860Y-87831125D01*
X135314859Y-87831130D01*
X135294355Y-88000000D01*
X118350500Y-88000000D01*
X118350500Y-87250000D01*
X171794355Y-87250000D01*
X171814859Y-87418869D01*
X171814860Y-87418874D01*
X171875182Y-87577931D01*
X171904155Y-87619905D01*
X171971817Y-87717929D01*
X172077505Y-87811560D01*
X172099150Y-87830736D01*
X172249773Y-87909789D01*
X172249775Y-87909790D01*
X172414944Y-87950500D01*
X172585056Y-87950500D01*
X172750225Y-87909790D01*
X172829692Y-87868081D01*
X172900849Y-87830736D01*
X172900850Y-87830734D01*
X172900852Y-87830734D01*
X173028183Y-87717929D01*
X173124818Y-87577930D01*
X173185140Y-87418872D01*
X173205645Y-87250000D01*
X173185140Y-87081128D01*
X173124818Y-86922070D01*
X173028183Y-86782071D01*
X172900852Y-86669266D01*
X172900849Y-86669263D01*
X172750226Y-86590210D01*
X172585056Y-86549500D01*
X172414944Y-86549500D01*
X172249773Y-86590210D01*
X172099150Y-86669263D01*
X171971816Y-86782072D01*
X171875182Y-86922068D01*
X171814860Y-87081125D01*
X171814859Y-87081130D01*
X171794355Y-87250000D01*
X118350500Y-87250000D01*
X118350499Y-86227128D01*
X118344091Y-86167517D01*
X118293796Y-86032669D01*
X118293795Y-86032668D01*
X118293793Y-86032664D01*
X118207547Y-85917455D01*
X118207544Y-85917452D01*
X118092335Y-85831206D01*
X118092328Y-85831202D01*
X117957482Y-85780908D01*
X117957483Y-85780908D01*
X117897883Y-85774501D01*
X117897881Y-85774500D01*
X117897873Y-85774500D01*
X117897864Y-85774500D01*
X116102129Y-85774500D01*
X116102123Y-85774501D01*
X116042516Y-85780908D01*
X115907671Y-85831202D01*
X115907664Y-85831206D01*
X115792455Y-85917452D01*
X115792452Y-85917455D01*
X115706206Y-86032664D01*
X115706202Y-86032671D01*
X115655908Y-86167517D01*
X115649501Y-86227116D01*
X115649501Y-86227123D01*
X115649500Y-86227135D01*
X115649500Y-88022870D01*
X115649501Y-88022876D01*
X115655908Y-88082483D01*
X115706202Y-88217328D01*
X115706206Y-88217335D01*
X115792452Y-88332544D01*
X115792455Y-88332547D01*
X115907664Y-88418793D01*
X115907671Y-88418797D01*
X115907674Y-88418798D01*
X116039598Y-88468002D01*
X116095531Y-88509873D01*
X116119949Y-88575337D01*
X116105098Y-88643610D01*
X116083947Y-88671865D01*
X115961886Y-88793926D01*
X115826400Y-88987420D01*
X115826399Y-88987422D01*
X115726570Y-89201507D01*
X115726567Y-89201513D01*
X115669364Y-89414999D01*
X115669364Y-89415000D01*
X116566988Y-89415000D01*
X116534075Y-89472007D01*
X116500000Y-89599174D01*
X116500000Y-89730826D01*
X116534075Y-89857993D01*
X116566988Y-89915000D01*
X115669364Y-89915000D01*
X115726567Y-90128486D01*
X115726570Y-90128492D01*
X115826399Y-90342578D01*
X115961894Y-90536082D01*
X116128917Y-90703105D01*
X116314595Y-90833119D01*
X116358219Y-90887696D01*
X116365412Y-90957195D01*
X116333890Y-91019549D01*
X116314595Y-91036269D01*
X116128594Y-91166508D01*
X115961505Y-91333597D01*
X115825965Y-91527169D01*
X115825964Y-91527171D01*
X115726098Y-91741335D01*
X115726094Y-91741344D01*
X115664938Y-91969586D01*
X115664936Y-91969596D01*
X115644341Y-92204999D01*
X104637306Y-92204999D01*
X104624818Y-92172070D01*
X104528183Y-92032071D01*
X104400852Y-91919266D01*
X104400849Y-91919263D01*
X104250226Y-91840210D01*
X104085056Y-91799500D01*
X103914944Y-91799500D01*
X103749773Y-91840210D01*
X103599150Y-91919263D01*
X103471816Y-92032072D01*
X103375182Y-92172068D01*
X103314860Y-92331125D01*
X103314859Y-92331130D01*
X103294355Y-92500000D01*
X102500000Y-92500000D01*
X102500000Y-91205000D01*
X110294355Y-91205000D01*
X110314859Y-91373869D01*
X110314860Y-91373874D01*
X110375182Y-91532931D01*
X110408179Y-91580734D01*
X110471817Y-91672929D01*
X110549032Y-91741335D01*
X110599150Y-91785736D01*
X110702942Y-91840210D01*
X110749775Y-91864790D01*
X110914944Y-91905500D01*
X111085056Y-91905500D01*
X111250225Y-91864790D01*
X111329692Y-91823081D01*
X111400849Y-91785736D01*
X111400850Y-91785734D01*
X111400852Y-91785734D01*
X111528183Y-91672929D01*
X111624818Y-91532930D01*
X111685140Y-91373872D01*
X111705645Y-91205000D01*
X111685140Y-91036128D01*
X111678852Y-91019549D01*
X111624817Y-90877068D01*
X111590476Y-90827318D01*
X111528183Y-90737071D01*
X111400852Y-90624266D01*
X111400849Y-90624263D01*
X111250226Y-90545210D01*
X111085056Y-90504500D01*
X110914944Y-90504500D01*
X110749773Y-90545210D01*
X110599150Y-90624263D01*
X110471816Y-90737072D01*
X110375182Y-90877068D01*
X110314860Y-91036125D01*
X110314859Y-91036130D01*
X110294355Y-91205000D01*
X102500000Y-91205000D01*
X102500000Y-84000000D01*
X153344540Y-84000000D01*
X153364326Y-84188256D01*
X153364327Y-84188259D01*
X153422818Y-84368277D01*
X153422821Y-84368284D01*
X153517467Y-84532216D01*
X153596696Y-84620208D01*
X153644129Y-84672888D01*
X153797265Y-84784148D01*
X153797270Y-84784151D01*
X153970192Y-84861142D01*
X153970197Y-84861144D01*
X154155354Y-84900500D01*
X154155355Y-84900500D01*
X154344644Y-84900500D01*
X154344646Y-84900500D01*
X154529803Y-84861144D01*
X154702730Y-84784151D01*
X154855871Y-84672888D01*
X154982533Y-84532216D01*
X155077179Y-84368284D01*
X155135674Y-84188256D01*
X155155460Y-84000000D01*
X155135674Y-83811744D01*
X155077179Y-83631716D01*
X154982533Y-83467784D01*
X154855871Y-83327112D01*
X154855870Y-83327111D01*
X154702734Y-83215851D01*
X154702729Y-83215848D01*
X154529807Y-83138857D01*
X154529802Y-83138855D01*
X154384001Y-83107865D01*
X154344646Y-83099500D01*
X154155354Y-83099500D01*
X154123428Y-83106286D01*
X153970197Y-83138855D01*
X153970192Y-83138857D01*
X153797270Y-83215848D01*
X153797265Y-83215851D01*
X153644129Y-83327111D01*
X153517466Y-83467785D01*
X153422821Y-83631715D01*
X153422818Y-83631722D01*
X153364327Y-83811740D01*
X153364326Y-83811744D01*
X153344540Y-84000000D01*
X102500000Y-84000000D01*
X102500000Y-82500000D01*
X156794355Y-82500000D01*
X156814859Y-82668869D01*
X156814860Y-82668874D01*
X156875182Y-82827931D01*
X156920589Y-82893713D01*
X156971817Y-82967929D01*
X157077505Y-83061560D01*
X157099150Y-83080736D01*
X157249773Y-83159789D01*
X157249775Y-83159790D01*
X157414944Y-83200500D01*
X157585056Y-83200500D01*
X157750225Y-83159790D01*
X157829692Y-83118081D01*
X157900849Y-83080736D01*
X157900850Y-83080734D01*
X157900852Y-83080734D01*
X158028183Y-82967929D01*
X158124818Y-82827930D01*
X158185140Y-82668872D01*
X158205645Y-82500000D01*
X158185140Y-82331128D01*
X158124818Y-82172070D01*
X158028183Y-82032071D01*
X157933316Y-81948026D01*
X157900849Y-81919263D01*
X157750226Y-81840210D01*
X157585056Y-81799500D01*
X157414944Y-81799500D01*
X157249773Y-81840210D01*
X157099150Y-81919263D01*
X156971816Y-82032072D01*
X156875182Y-82172068D01*
X156814860Y-82331125D01*
X156814859Y-82331130D01*
X156794355Y-82500000D01*
X102500000Y-82500000D01*
X102500000Y-80000000D01*
X145794355Y-80000000D01*
X145814859Y-80168869D01*
X145814860Y-80168874D01*
X145875182Y-80327931D01*
X145937475Y-80418177D01*
X145971817Y-80467929D01*
X146077505Y-80561560D01*
X146099150Y-80580736D01*
X146249773Y-80659789D01*
X146249775Y-80659790D01*
X146414944Y-80700500D01*
X146585056Y-80700500D01*
X146750225Y-80659790D01*
X146829692Y-80618081D01*
X146900849Y-80580736D01*
X146900850Y-80580734D01*
X146900852Y-80580734D01*
X147028183Y-80467929D01*
X147124818Y-80327930D01*
X147185140Y-80168872D01*
X147205645Y-80000000D01*
X147187429Y-79849983D01*
X194492000Y-79849983D01*
X194492000Y-81150001D01*
X194492001Y-81150018D01*
X194502500Y-81252796D01*
X194502501Y-81252799D01*
X194557685Y-81419331D01*
X194557687Y-81419336D01*
X194649789Y-81568657D01*
X194773844Y-81692712D01*
X194928620Y-81788178D01*
X194975345Y-81840126D01*
X194986568Y-81909088D01*
X194958724Y-81973171D01*
X194951206Y-81981398D01*
X194812389Y-82120215D01*
X194687451Y-82292179D01*
X194590944Y-82481585D01*
X194525253Y-82683760D01*
X194502419Y-82827930D01*
X194492000Y-82893713D01*
X194492000Y-83106287D01*
X194525254Y-83316243D01*
X194574493Y-83467785D01*
X194590944Y-83518414D01*
X194687451Y-83707820D01*
X194812390Y-83879786D01*
X194962709Y-84030105D01*
X194962714Y-84030109D01*
X195127293Y-84149682D01*
X195169959Y-84205011D01*
X195175938Y-84274625D01*
X195143333Y-84336420D01*
X195127293Y-84350318D01*
X194962714Y-84469890D01*
X194962709Y-84469894D01*
X194812390Y-84620213D01*
X194687451Y-84792179D01*
X194590944Y-84981585D01*
X194525253Y-85183760D01*
X194492000Y-85393713D01*
X194492000Y-85606286D01*
X194519657Y-85780909D01*
X194525254Y-85816243D01*
X194530114Y-85831202D01*
X194590944Y-86018414D01*
X194687451Y-86207820D01*
X194812390Y-86379786D01*
X194962709Y-86530105D01*
X194962714Y-86530109D01*
X195127718Y-86649991D01*
X195170384Y-86705320D01*
X195176363Y-86774934D01*
X195143758Y-86836729D01*
X195127718Y-86850627D01*
X194963040Y-86970272D01*
X194963035Y-86970276D01*
X194812776Y-87120535D01*
X194812772Y-87120540D01*
X194687879Y-87292442D01*
X194591404Y-87481782D01*
X194525742Y-87683870D01*
X194525742Y-87683873D01*
X194515269Y-87750000D01*
X195563354Y-87750000D01*
X195524870Y-87816657D01*
X195492500Y-87937465D01*
X195492500Y-88062535D01*
X195524870Y-88183343D01*
X195563354Y-88250000D01*
X194515269Y-88250000D01*
X194525742Y-88316126D01*
X194525742Y-88316129D01*
X194591404Y-88518217D01*
X194687879Y-88707557D01*
X194812772Y-88879459D01*
X194812776Y-88879464D01*
X194963035Y-89029723D01*
X194963040Y-89029727D01*
X195134942Y-89154620D01*
X195324282Y-89251095D01*
X195526372Y-89316757D01*
X195717500Y-89347029D01*
X195717500Y-88404145D01*
X195784157Y-88442630D01*
X195904965Y-88475000D01*
X196030035Y-88475000D01*
X196150843Y-88442630D01*
X196217500Y-88404145D01*
X196217500Y-89347028D01*
X196408627Y-89316757D01*
X196610717Y-89251095D01*
X196800057Y-89154620D01*
X196971959Y-89029727D01*
X196971964Y-89029723D01*
X197122223Y-88879464D01*
X197122227Y-88879459D01*
X197247120Y-88707557D01*
X197343595Y-88518217D01*
X197409257Y-88316129D01*
X197409257Y-88316126D01*
X197419731Y-88250000D01*
X196371646Y-88250000D01*
X196410130Y-88183343D01*
X196442500Y-88062535D01*
X196442500Y-87937465D01*
X196410130Y-87816657D01*
X196371646Y-87750000D01*
X197419731Y-87750000D01*
X197409257Y-87683873D01*
X197409257Y-87683870D01*
X197343595Y-87481782D01*
X197247120Y-87292442D01*
X197122227Y-87120540D01*
X197122223Y-87120535D01*
X196971964Y-86970276D01*
X196971959Y-86970272D01*
X196807281Y-86850627D01*
X196764615Y-86795297D01*
X196758636Y-86725684D01*
X196791241Y-86663889D01*
X196807276Y-86649994D01*
X196972292Y-86530104D01*
X197122604Y-86379792D01*
X197122606Y-86379788D01*
X197122609Y-86379786D01*
X197247548Y-86207820D01*
X197247547Y-86207820D01*
X197247551Y-86207816D01*
X197344057Y-86018412D01*
X197409746Y-85816243D01*
X197443000Y-85606287D01*
X197443000Y-85393713D01*
X197409746Y-85183757D01*
X197344057Y-84981588D01*
X197247551Y-84792184D01*
X197247549Y-84792181D01*
X197247548Y-84792179D01*
X197122609Y-84620213D01*
X196972292Y-84469896D01*
X196972284Y-84469890D01*
X196807704Y-84350316D01*
X196765040Y-84294989D01*
X196759061Y-84225376D01*
X196791666Y-84163580D01*
X196807699Y-84149686D01*
X196972292Y-84030104D01*
X197122604Y-83879792D01*
X197122606Y-83879788D01*
X197122609Y-83879786D01*
X197247548Y-83707820D01*
X197247547Y-83707820D01*
X197247551Y-83707816D01*
X197344057Y-83518412D01*
X197409746Y-83316243D01*
X197443000Y-83106287D01*
X197443000Y-82893713D01*
X197409746Y-82683757D01*
X197344057Y-82481588D01*
X197247551Y-82292184D01*
X197247549Y-82292181D01*
X197247548Y-82292179D01*
X197122609Y-82120213D01*
X196983794Y-81981398D01*
X196950309Y-81920075D01*
X196955293Y-81850383D01*
X196997165Y-81794450D01*
X197006379Y-81788178D01*
X197011831Y-81784814D01*
X197011834Y-81784814D01*
X197161156Y-81692712D01*
X197285212Y-81568656D01*
X197377314Y-81419334D01*
X197432499Y-81252797D01*
X197443000Y-81150009D01*
X197442999Y-79849992D01*
X197432499Y-79747203D01*
X197377314Y-79580666D01*
X197285212Y-79431344D01*
X197161156Y-79307288D01*
X197011834Y-79215186D01*
X196845297Y-79160001D01*
X196845295Y-79160000D01*
X196742510Y-79149500D01*
X195192498Y-79149500D01*
X195192481Y-79149501D01*
X195089703Y-79160000D01*
X195089700Y-79160001D01*
X194923168Y-79215185D01*
X194923163Y-79215187D01*
X194773842Y-79307289D01*
X194649789Y-79431342D01*
X194557687Y-79580663D01*
X194557686Y-79580666D01*
X194502501Y-79747203D01*
X194502501Y-79747204D01*
X194502500Y-79747204D01*
X194492000Y-79849983D01*
X147187429Y-79849983D01*
X147185140Y-79831128D01*
X147124818Y-79672070D01*
X147028183Y-79532071D01*
X146933316Y-79448026D01*
X146900849Y-79419263D01*
X146750226Y-79340210D01*
X146585056Y-79299500D01*
X146414944Y-79299500D01*
X146249773Y-79340210D01*
X146099150Y-79419263D01*
X145971816Y-79532072D01*
X145875182Y-79672068D01*
X145814860Y-79831125D01*
X145814859Y-79831130D01*
X145794355Y-80000000D01*
X102500000Y-80000000D01*
X102500000Y-78000000D01*
X135294355Y-78000000D01*
X135314859Y-78168869D01*
X135314860Y-78168874D01*
X135375182Y-78327931D01*
X135437475Y-78418177D01*
X135471817Y-78467929D01*
X135577505Y-78561560D01*
X135599150Y-78580736D01*
X135749773Y-78659789D01*
X135749775Y-78659790D01*
X135914944Y-78700500D01*
X136085056Y-78700500D01*
X136250225Y-78659790D01*
X136329692Y-78618081D01*
X136400849Y-78580736D01*
X136400850Y-78580734D01*
X136400852Y-78580734D01*
X136528183Y-78467929D01*
X136624818Y-78327930D01*
X136685140Y-78168872D01*
X136705645Y-78000000D01*
X136685140Y-77831128D01*
X136624818Y-77672070D01*
X136528183Y-77532071D01*
X136400852Y-77419266D01*
X136400849Y-77419263D01*
X136250226Y-77340210D01*
X136087085Y-77300000D01*
X154794355Y-77300000D01*
X154814859Y-77468869D01*
X154814860Y-77468874D01*
X154875182Y-77627931D01*
X154937475Y-77718177D01*
X154971817Y-77767929D01*
X155077505Y-77861560D01*
X155099150Y-77880736D01*
X155249773Y-77959789D01*
X155249775Y-77959790D01*
X155414944Y-78000500D01*
X155585056Y-78000500D01*
X155750225Y-77959790D01*
X155829692Y-77918081D01*
X155900849Y-77880736D01*
X155900850Y-77880734D01*
X155900852Y-77880734D01*
X156028183Y-77767929D01*
X156124818Y-77627930D01*
X156185140Y-77468872D01*
X156205645Y-77300000D01*
X156185140Y-77131128D01*
X156124818Y-76972070D01*
X156028183Y-76832071D01*
X155900852Y-76719266D01*
X155900849Y-76719263D01*
X155750226Y-76640210D01*
X155585056Y-76599500D01*
X155414944Y-76599500D01*
X155249773Y-76640210D01*
X155099150Y-76719263D01*
X154971816Y-76832072D01*
X154875182Y-76972068D01*
X154814860Y-77131125D01*
X154814859Y-77131130D01*
X154794355Y-77300000D01*
X136087085Y-77300000D01*
X136085056Y-77299500D01*
X135914944Y-77299500D01*
X135749773Y-77340210D01*
X135599150Y-77419263D01*
X135471816Y-77532072D01*
X135375182Y-77672068D01*
X135314860Y-77831125D01*
X135314859Y-77831130D01*
X135294355Y-78000000D01*
X102500000Y-78000000D01*
X102500000Y-70893713D01*
X104024500Y-70893713D01*
X104024500Y-71106286D01*
X104057753Y-71316239D01*
X104123444Y-71518414D01*
X104219951Y-71707820D01*
X104344890Y-71879786D01*
X104495209Y-72030105D01*
X104495214Y-72030109D01*
X104659793Y-72149682D01*
X104702459Y-72205011D01*
X104708438Y-72274625D01*
X104675833Y-72336420D01*
X104659793Y-72350318D01*
X104495214Y-72469890D01*
X104495209Y-72469894D01*
X104344890Y-72620213D01*
X104219951Y-72792179D01*
X104123444Y-72981585D01*
X104057753Y-73183760D01*
X104034412Y-73331130D01*
X104024500Y-73393713D01*
X104024500Y-73606287D01*
X104057754Y-73816243D01*
X104107039Y-73967927D01*
X104123444Y-74018414D01*
X104219951Y-74207820D01*
X104344890Y-74379786D01*
X104483705Y-74518601D01*
X104517190Y-74579924D01*
X104512206Y-74649616D01*
X104470334Y-74705549D01*
X104461121Y-74711821D01*
X104306342Y-74807289D01*
X104182289Y-74931342D01*
X104090187Y-75080663D01*
X104090185Y-75080668D01*
X104063967Y-75159789D01*
X104035001Y-75247203D01*
X104035001Y-75247204D01*
X104035000Y-75247204D01*
X104024500Y-75349983D01*
X104024500Y-76650001D01*
X104024501Y-76650018D01*
X104035000Y-76752796D01*
X104035001Y-76752799D01*
X104061270Y-76832071D01*
X104090186Y-76919334D01*
X104182288Y-77068656D01*
X104306344Y-77192712D01*
X104455666Y-77284814D01*
X104622203Y-77339999D01*
X104724991Y-77350500D01*
X106275008Y-77350499D01*
X106377797Y-77339999D01*
X106544334Y-77284814D01*
X106693656Y-77192712D01*
X106817712Y-77068656D01*
X106909814Y-76919334D01*
X106964999Y-76752797D01*
X106975500Y-76650009D01*
X106975499Y-75500000D01*
X148794355Y-75500000D01*
X148814859Y-75668869D01*
X148814860Y-75668874D01*
X148875182Y-75827931D01*
X148937475Y-75918177D01*
X148971817Y-75967929D01*
X149077505Y-76061560D01*
X149099150Y-76080736D01*
X149249773Y-76159789D01*
X149249775Y-76159790D01*
X149414944Y-76200500D01*
X149585056Y-76200500D01*
X149750225Y-76159790D01*
X149829692Y-76118081D01*
X149900849Y-76080736D01*
X149900850Y-76080734D01*
X149900852Y-76080734D01*
X150028183Y-75967929D01*
X150124818Y-75827930D01*
X150185140Y-75668872D01*
X150205645Y-75500000D01*
X150185140Y-75331128D01*
X150124818Y-75172070D01*
X150028183Y-75032071D01*
X149933316Y-74948026D01*
X149900849Y-74919263D01*
X149750226Y-74840210D01*
X149585056Y-74799500D01*
X149414944Y-74799500D01*
X149249773Y-74840210D01*
X149099150Y-74919263D01*
X148971816Y-75032072D01*
X148875182Y-75172068D01*
X148814860Y-75331125D01*
X148814859Y-75331130D01*
X148794355Y-75500000D01*
X106975499Y-75500000D01*
X106975499Y-75349992D01*
X106964999Y-75247203D01*
X106909814Y-75080666D01*
X106817712Y-74931344D01*
X106693656Y-74807288D01*
X106544334Y-74715186D01*
X106544333Y-74715185D01*
X106538878Y-74711821D01*
X106492154Y-74659873D01*
X106480931Y-74590910D01*
X106508775Y-74526828D01*
X106516272Y-74518623D01*
X106534895Y-74500000D01*
X144794355Y-74500000D01*
X144814859Y-74668869D01*
X144814860Y-74668874D01*
X144875182Y-74827931D01*
X144883658Y-74840210D01*
X144971817Y-74967929D01*
X145044219Y-75032071D01*
X145099150Y-75080736D01*
X145249773Y-75159789D01*
X145249775Y-75159790D01*
X145414944Y-75200500D01*
X145585056Y-75200500D01*
X145750225Y-75159790D01*
X145829692Y-75118081D01*
X145900849Y-75080736D01*
X145900850Y-75080734D01*
X145900852Y-75080734D01*
X146028183Y-74967929D01*
X146124818Y-74827930D01*
X146185140Y-74668872D01*
X146205645Y-74500000D01*
X146185140Y-74331128D01*
X146124818Y-74172070D01*
X146028183Y-74032071D01*
X145900852Y-73919266D01*
X145900849Y-73919263D01*
X145750226Y-73840210D01*
X145585056Y-73799500D01*
X145414944Y-73799500D01*
X145249773Y-73840210D01*
X145099150Y-73919263D01*
X144971816Y-74032072D01*
X144875182Y-74172068D01*
X144814860Y-74331125D01*
X144814859Y-74331130D01*
X144794355Y-74500000D01*
X106534895Y-74500000D01*
X106655104Y-74379792D01*
X106690463Y-74331125D01*
X106780048Y-74207820D01*
X106780047Y-74207820D01*
X106780051Y-74207816D01*
X106876557Y-74018412D01*
X106942246Y-73816243D01*
X106975500Y-73606287D01*
X106975500Y-73500000D01*
X115794355Y-73500000D01*
X115814859Y-73668869D01*
X115814860Y-73668874D01*
X115875182Y-73827931D01*
X115883658Y-73840210D01*
X115971817Y-73967929D01*
X116044219Y-74032071D01*
X116099150Y-74080736D01*
X116249773Y-74159789D01*
X116249775Y-74159790D01*
X116414944Y-74200500D01*
X116585056Y-74200500D01*
X116750225Y-74159790D01*
X116829692Y-74118081D01*
X116900849Y-74080736D01*
X116900850Y-74080734D01*
X116900852Y-74080734D01*
X117028183Y-73967929D01*
X117124818Y-73827930D01*
X117185140Y-73668872D01*
X117205645Y-73500000D01*
X117185140Y-73331128D01*
X117124818Y-73172070D01*
X117028183Y-73032071D01*
X116900852Y-72919266D01*
X116900849Y-72919263D01*
X116750226Y-72840210D01*
X116585056Y-72799500D01*
X116414944Y-72799500D01*
X116249773Y-72840210D01*
X116099150Y-72919263D01*
X115971816Y-73032072D01*
X115875182Y-73172068D01*
X115814860Y-73331125D01*
X115814859Y-73331130D01*
X115794355Y-73500000D01*
X106975500Y-73500000D01*
X106975500Y-73393713D01*
X106942246Y-73183757D01*
X106876557Y-72981588D01*
X106780051Y-72792184D01*
X106780049Y-72792181D01*
X106780048Y-72792179D01*
X106655109Y-72620213D01*
X106504792Y-72469896D01*
X106504784Y-72469890D01*
X106340204Y-72350316D01*
X106297540Y-72294989D01*
X106291561Y-72225376D01*
X106324166Y-72163580D01*
X106340199Y-72149686D01*
X106504792Y-72030104D01*
X106655104Y-71879792D01*
X106655106Y-71879788D01*
X106655109Y-71879786D01*
X106780048Y-71707820D01*
X106780047Y-71707820D01*
X106780051Y-71707816D01*
X106876557Y-71518412D01*
X106908533Y-71420000D01*
X144374355Y-71420000D01*
X144394859Y-71588869D01*
X144394860Y-71588874D01*
X144455182Y-71747931D01*
X144517475Y-71838177D01*
X144551817Y-71887929D01*
X144657505Y-71981560D01*
X144679150Y-72000736D01*
X144829773Y-72079789D01*
X144829775Y-72079790D01*
X144994944Y-72120500D01*
X145165056Y-72120500D01*
X145330225Y-72079790D01*
X145424895Y-72030103D01*
X145480849Y-72000736D01*
X145480850Y-72000734D01*
X145480852Y-72000734D01*
X145608183Y-71887929D01*
X145704818Y-71747930D01*
X145765140Y-71588872D01*
X145785645Y-71420000D01*
X145765140Y-71251128D01*
X145704818Y-71092070D01*
X145608183Y-70952071D01*
X145480852Y-70839266D01*
X145480849Y-70839263D01*
X145330226Y-70760210D01*
X145165056Y-70719500D01*
X144994944Y-70719500D01*
X144829773Y-70760210D01*
X144679150Y-70839263D01*
X144551816Y-70952072D01*
X144455182Y-71092068D01*
X144394860Y-71251125D01*
X144394859Y-71251130D01*
X144374355Y-71420000D01*
X106908533Y-71420000D01*
X106942246Y-71316243D01*
X106975500Y-71106287D01*
X106975500Y-70893713D01*
X106942246Y-70683757D01*
X106876557Y-70481588D01*
X106780051Y-70292184D01*
X106780049Y-70292181D01*
X106780048Y-70292179D01*
X106655109Y-70120213D01*
X106504790Y-69969894D01*
X106504785Y-69969890D01*
X106339781Y-69850008D01*
X106297115Y-69794678D01*
X106291136Y-69725065D01*
X106323741Y-69663270D01*
X106339781Y-69649371D01*
X106504466Y-69529721D01*
X106654723Y-69379464D01*
X106654727Y-69379459D01*
X106779620Y-69207557D01*
X106876095Y-69018217D01*
X106941757Y-68816129D01*
X106941757Y-68816126D01*
X106952231Y-68750000D01*
X105904146Y-68750000D01*
X105942630Y-68683343D01*
X105975000Y-68562535D01*
X105975000Y-68437465D01*
X105942630Y-68316657D01*
X105904146Y-68250000D01*
X106952231Y-68250000D01*
X106941757Y-68183873D01*
X106941757Y-68183870D01*
X106876095Y-67981782D01*
X106779620Y-67792442D01*
X106654727Y-67620540D01*
X106654723Y-67620535D01*
X106504464Y-67470276D01*
X106504459Y-67470272D01*
X106332557Y-67345379D01*
X106143217Y-67248904D01*
X105941128Y-67183242D01*
X105750000Y-67152969D01*
X105750000Y-68095854D01*
X105683343Y-68057370D01*
X105562535Y-68025000D01*
X105437465Y-68025000D01*
X105316657Y-68057370D01*
X105250000Y-68095854D01*
X105250000Y-67152969D01*
X105058872Y-67183242D01*
X105058869Y-67183242D01*
X104856782Y-67248904D01*
X104667442Y-67345379D01*
X104495540Y-67470272D01*
X104495535Y-67470276D01*
X104345276Y-67620535D01*
X104345272Y-67620540D01*
X104220379Y-67792442D01*
X104123904Y-67981782D01*
X104058242Y-68183870D01*
X104058242Y-68183873D01*
X104047769Y-68250000D01*
X105095854Y-68250000D01*
X105057370Y-68316657D01*
X105025000Y-68437465D01*
X105025000Y-68562535D01*
X105057370Y-68683343D01*
X105095854Y-68750000D01*
X104047769Y-68750000D01*
X104058242Y-68816126D01*
X104058242Y-68816129D01*
X104123904Y-69018217D01*
X104220379Y-69207557D01*
X104345272Y-69379459D01*
X104345276Y-69379464D01*
X104495535Y-69529723D01*
X104495540Y-69529727D01*
X104660218Y-69649372D01*
X104702884Y-69704701D01*
X104708863Y-69774315D01*
X104676258Y-69836110D01*
X104660218Y-69850008D01*
X104495214Y-69969890D01*
X104495209Y-69969894D01*
X104344890Y-70120213D01*
X104219951Y-70292179D01*
X104123444Y-70481585D01*
X104057753Y-70683760D01*
X104024500Y-70893713D01*
X102500000Y-70893713D01*
X102500000Y-65500000D01*
X117794355Y-65500000D01*
X117814859Y-65668869D01*
X117814860Y-65668874D01*
X117875182Y-65827931D01*
X117937475Y-65918177D01*
X117971817Y-65967929D01*
X118077505Y-66061560D01*
X118099150Y-66080736D01*
X118249773Y-66159789D01*
X118249775Y-66159790D01*
X118414944Y-66200500D01*
X118585056Y-66200500D01*
X118750225Y-66159790D01*
X118829692Y-66118081D01*
X118900849Y-66080736D01*
X118900850Y-66080734D01*
X118900852Y-66080734D01*
X118991982Y-66000000D01*
X123094540Y-66000000D01*
X123114326Y-66188256D01*
X123114327Y-66188259D01*
X123172818Y-66368277D01*
X123172821Y-66368284D01*
X123267467Y-66532216D01*
X123394129Y-66672888D01*
X123547265Y-66784148D01*
X123547270Y-66784151D01*
X123720192Y-66861142D01*
X123720197Y-66861144D01*
X123905354Y-66900500D01*
X123905355Y-66900500D01*
X124094644Y-66900500D01*
X124094646Y-66900500D01*
X124279803Y-66861144D01*
X124452730Y-66784151D01*
X124605871Y-66672888D01*
X124732533Y-66532216D01*
X124827179Y-66368284D01*
X124885674Y-66188256D01*
X124905460Y-66000000D01*
X124885674Y-65811744D01*
X124827179Y-65631716D01*
X124732533Y-65467784D01*
X124605871Y-65327112D01*
X124605870Y-65327111D01*
X124452734Y-65215851D01*
X124452729Y-65215848D01*
X124279807Y-65138857D01*
X124279802Y-65138855D01*
X124134001Y-65107865D01*
X124094646Y-65099500D01*
X123905354Y-65099500D01*
X123872897Y-65106398D01*
X123720197Y-65138855D01*
X123720192Y-65138857D01*
X123547270Y-65215848D01*
X123547265Y-65215851D01*
X123394129Y-65327111D01*
X123267466Y-65467785D01*
X123172821Y-65631715D01*
X123172818Y-65631722D01*
X123114327Y-65811740D01*
X123114326Y-65811744D01*
X123094540Y-66000000D01*
X118991982Y-66000000D01*
X119028183Y-65967929D01*
X119124818Y-65827930D01*
X119185140Y-65668872D01*
X119205645Y-65500000D01*
X119185140Y-65331128D01*
X119124818Y-65172070D01*
X119028183Y-65032071D01*
X118900852Y-64919266D01*
X118900849Y-64919263D01*
X118750226Y-64840210D01*
X118585056Y-64799500D01*
X118414944Y-64799500D01*
X118249773Y-64840210D01*
X118099150Y-64919263D01*
X117971816Y-65032072D01*
X117875182Y-65172068D01*
X117814860Y-65331125D01*
X117814859Y-65331130D01*
X117794355Y-65500000D01*
X102500000Y-65500000D01*
X102500000Y-62250000D01*
X126794355Y-62250000D01*
X126814859Y-62418869D01*
X126814860Y-62418874D01*
X126875182Y-62577931D01*
X126937475Y-62668177D01*
X126971817Y-62717929D01*
X127077505Y-62811560D01*
X127099150Y-62830736D01*
X127249773Y-62909789D01*
X127249775Y-62909790D01*
X127414944Y-62950500D01*
X127585056Y-62950500D01*
X127750225Y-62909790D01*
X127829692Y-62868081D01*
X127900849Y-62830736D01*
X127900850Y-62830734D01*
X127900852Y-62830734D01*
X128028183Y-62717929D01*
X128124818Y-62577930D01*
X128185140Y-62418872D01*
X128205645Y-62250000D01*
X128185140Y-62081128D01*
X128124818Y-61922070D01*
X128028183Y-61782071D01*
X127900852Y-61669266D01*
X127900849Y-61669263D01*
X127750226Y-61590210D01*
X127585056Y-61549500D01*
X127414944Y-61549500D01*
X127249773Y-61590210D01*
X127099150Y-61669263D01*
X126971816Y-61782072D01*
X126875182Y-61922068D01*
X126814860Y-62081125D01*
X126814859Y-62081130D01*
X126794355Y-62250000D01*
X102500000Y-62250000D01*
X102500000Y-61500000D01*
X113044355Y-61500000D01*
X113064859Y-61668869D01*
X113064860Y-61668874D01*
X113125182Y-61827931D01*
X113187475Y-61918177D01*
X113221817Y-61967929D01*
X113327505Y-62061560D01*
X113349150Y-62080736D01*
X113499773Y-62159789D01*
X113499775Y-62159790D01*
X113664944Y-62200500D01*
X113835056Y-62200500D01*
X114000225Y-62159790D01*
X114079692Y-62118081D01*
X114150849Y-62080736D01*
X114150850Y-62080734D01*
X114150852Y-62080734D01*
X114278183Y-61967929D01*
X114374818Y-61827930D01*
X114435140Y-61668872D01*
X114455645Y-61500000D01*
X114435140Y-61331128D01*
X114374818Y-61172070D01*
X114278183Y-61032071D01*
X114150852Y-60919266D01*
X114150849Y-60919263D01*
X114000226Y-60840210D01*
X113835056Y-60799500D01*
X113664944Y-60799500D01*
X113499773Y-60840210D01*
X113349150Y-60919263D01*
X113221816Y-61032072D01*
X113125182Y-61172068D01*
X113064860Y-61331125D01*
X113064859Y-61331130D01*
X113044355Y-61500000D01*
X102500000Y-61500000D01*
X102500000Y-60000000D01*
X127044355Y-60000000D01*
X127064859Y-60168869D01*
X127064860Y-60168874D01*
X127125182Y-60327931D01*
X127187475Y-60418177D01*
X127221817Y-60467929D01*
X127327505Y-60561560D01*
X127349150Y-60580736D01*
X127499773Y-60659789D01*
X127499775Y-60659790D01*
X127664944Y-60700500D01*
X127835056Y-60700500D01*
X128000225Y-60659790D01*
X128079692Y-60618081D01*
X128150849Y-60580736D01*
X128150850Y-60580734D01*
X128150852Y-60580734D01*
X128278183Y-60467929D01*
X128374818Y-60327930D01*
X128435140Y-60168872D01*
X128455645Y-60000000D01*
X128435140Y-59831128D01*
X128374818Y-59672070D01*
X128278183Y-59532071D01*
X128150852Y-59419266D01*
X128150849Y-59419263D01*
X128000226Y-59340210D01*
X127835056Y-59299500D01*
X127664944Y-59299500D01*
X127499773Y-59340210D01*
X127349150Y-59419263D01*
X127221816Y-59532072D01*
X127125182Y-59672068D01*
X127064860Y-59831125D01*
X127064859Y-59831130D01*
X127044355Y-60000000D01*
X102500000Y-60000000D01*
X102500000Y-58100000D01*
X151394355Y-58100000D01*
X151414859Y-58268869D01*
X151414860Y-58268874D01*
X151475182Y-58427931D01*
X151537475Y-58518177D01*
X151571817Y-58567929D01*
X151677505Y-58661560D01*
X151699150Y-58680736D01*
X151849773Y-58759789D01*
X151849775Y-58759790D01*
X152014944Y-58800500D01*
X152185056Y-58800500D01*
X152350225Y-58759790D01*
X152429692Y-58718081D01*
X152500849Y-58680736D01*
X152500850Y-58680734D01*
X152500852Y-58680734D01*
X152628183Y-58567929D01*
X152724818Y-58427930D01*
X152785140Y-58268872D01*
X152805645Y-58100000D01*
X152785140Y-57931128D01*
X152724818Y-57772070D01*
X152628183Y-57632071D01*
X152500852Y-57519266D01*
X152500849Y-57519263D01*
X152350226Y-57440210D01*
X152185056Y-57399500D01*
X152014944Y-57399500D01*
X151849773Y-57440210D01*
X151699150Y-57519263D01*
X151571816Y-57632072D01*
X151475182Y-57772068D01*
X151414860Y-57931125D01*
X151414859Y-57931130D01*
X151394355Y-58100000D01*
X102500000Y-58100000D01*
X102500000Y-57099499D01*
X102519685Y-57032460D01*
X102572489Y-56986705D01*
X102623996Y-56975499D01*
X103650008Y-56975499D01*
X103752797Y-56964999D01*
X103919334Y-56909814D01*
X104068656Y-56817712D01*
X104192712Y-56693656D01*
X104284814Y-56544334D01*
X104284814Y-56544331D01*
X104288178Y-56538879D01*
X104340126Y-56492154D01*
X104409088Y-56480931D01*
X104473170Y-56508774D01*
X104481398Y-56516294D01*
X104620213Y-56655109D01*
X104792179Y-56780048D01*
X104792181Y-56780049D01*
X104792184Y-56780051D01*
X104981588Y-56876557D01*
X105183757Y-56942246D01*
X105393713Y-56975500D01*
X105393714Y-56975500D01*
X105606286Y-56975500D01*
X105606287Y-56975500D01*
X105816243Y-56942246D01*
X106018412Y-56876557D01*
X106207816Y-56780051D01*
X106305532Y-56709057D01*
X106379786Y-56655109D01*
X106379788Y-56655106D01*
X106379792Y-56655104D01*
X106530104Y-56504792D01*
X106649683Y-56340204D01*
X106705011Y-56297540D01*
X106774624Y-56291561D01*
X106836420Y-56324166D01*
X106850313Y-56340199D01*
X106957134Y-56487227D01*
X106969896Y-56504792D01*
X107120213Y-56655109D01*
X107292179Y-56780048D01*
X107292181Y-56780049D01*
X107292184Y-56780051D01*
X107481588Y-56876557D01*
X107683757Y-56942246D01*
X107893713Y-56975500D01*
X107893714Y-56975500D01*
X108106286Y-56975500D01*
X108106287Y-56975500D01*
X108316243Y-56942246D01*
X108518412Y-56876557D01*
X108707816Y-56780051D01*
X108805532Y-56709057D01*
X108879786Y-56655109D01*
X108879788Y-56655106D01*
X108879792Y-56655104D01*
X109030104Y-56504792D01*
X109149991Y-56339779D01*
X109205320Y-56297115D01*
X109274933Y-56291136D01*
X109336729Y-56323741D01*
X109350627Y-56339781D01*
X109470272Y-56504459D01*
X109470276Y-56504464D01*
X109620535Y-56654723D01*
X109620540Y-56654727D01*
X109792442Y-56779620D01*
X109981782Y-56876095D01*
X110183871Y-56941757D01*
X110250000Y-56952231D01*
X110250000Y-55904145D01*
X110316657Y-55942630D01*
X110437465Y-55975000D01*
X110562535Y-55975000D01*
X110683343Y-55942630D01*
X110750000Y-55904145D01*
X110750000Y-56952230D01*
X110816126Y-56941757D01*
X110816129Y-56941757D01*
X111018217Y-56876095D01*
X111207557Y-56779620D01*
X111379459Y-56654727D01*
X111379464Y-56654723D01*
X111529723Y-56504464D01*
X111529727Y-56504459D01*
X111654620Y-56332557D01*
X111751095Y-56143217D01*
X111816757Y-55941130D01*
X111816757Y-55941127D01*
X111847030Y-55750000D01*
X110904146Y-55750000D01*
X110942630Y-55683343D01*
X110975000Y-55562535D01*
X110975000Y-55437465D01*
X110942630Y-55316657D01*
X110904146Y-55250000D01*
X111847030Y-55250000D01*
X111816757Y-55058872D01*
X111816757Y-55058869D01*
X111751095Y-54856782D01*
X111654620Y-54667442D01*
X111574731Y-54557483D01*
X118599500Y-54557483D01*
X118599500Y-56107501D01*
X118599501Y-56107518D01*
X118610000Y-56210296D01*
X118610001Y-56210299D01*
X118650514Y-56332557D01*
X118665186Y-56376834D01*
X118757288Y-56526156D01*
X118881344Y-56650212D01*
X119030666Y-56742314D01*
X119197203Y-56797499D01*
X119299991Y-56808000D01*
X120600008Y-56807999D01*
X120702797Y-56797499D01*
X120869334Y-56742314D01*
X121018656Y-56650212D01*
X121142712Y-56526156D01*
X121234814Y-56376834D01*
X121234814Y-56376831D01*
X121238448Y-56370941D01*
X121290395Y-56324216D01*
X121359358Y-56312993D01*
X121423440Y-56340836D01*
X121431668Y-56348356D01*
X121570535Y-56487223D01*
X121570540Y-56487227D01*
X121742442Y-56612120D01*
X121931782Y-56708595D01*
X122133871Y-56774257D01*
X122200000Y-56784731D01*
X122200000Y-55736645D01*
X122266657Y-55775130D01*
X122387465Y-55807500D01*
X122512535Y-55807500D01*
X122633343Y-55775130D01*
X122700000Y-55736645D01*
X122700000Y-56784730D01*
X122766126Y-56774257D01*
X122766129Y-56774257D01*
X122968217Y-56708595D01*
X123157557Y-56612120D01*
X123329459Y-56487227D01*
X123329464Y-56487223D01*
X123479727Y-56336960D01*
X123599682Y-56171855D01*
X123655011Y-56129189D01*
X123724625Y-56123210D01*
X123786420Y-56155815D01*
X123800318Y-56171855D01*
X123920272Y-56336960D01*
X124070535Y-56487223D01*
X124070540Y-56487227D01*
X124242442Y-56612120D01*
X124431782Y-56708595D01*
X124633871Y-56774257D01*
X124700000Y-56784731D01*
X124700000Y-55736645D01*
X124766657Y-55775130D01*
X124887465Y-55807500D01*
X125012535Y-55807500D01*
X125133343Y-55775130D01*
X125200000Y-55736645D01*
X125200000Y-56784730D01*
X125266126Y-56774257D01*
X125266129Y-56774257D01*
X125468217Y-56708595D01*
X125657557Y-56612120D01*
X125829459Y-56487227D01*
X125829464Y-56487223D01*
X125979721Y-56336966D01*
X126099371Y-56172281D01*
X126154701Y-56129615D01*
X126224314Y-56123636D01*
X126286110Y-56156241D01*
X126300008Y-56172281D01*
X126419890Y-56337285D01*
X126419894Y-56337290D01*
X126570213Y-56487609D01*
X126742179Y-56612548D01*
X126742181Y-56612549D01*
X126742184Y-56612551D01*
X126931588Y-56709057D01*
X127133757Y-56774746D01*
X127343713Y-56808000D01*
X127343714Y-56808000D01*
X127556286Y-56808000D01*
X127556287Y-56808000D01*
X127766243Y-56774746D01*
X127968412Y-56709057D01*
X128157816Y-56612551D01*
X128179789Y-56596586D01*
X128329786Y-56487609D01*
X128329788Y-56487606D01*
X128329792Y-56487604D01*
X128480104Y-56337292D01*
X128599683Y-56172704D01*
X128655011Y-56130040D01*
X128724624Y-56124061D01*
X128786420Y-56156666D01*
X128800313Y-56172699D01*
X128910396Y-56324216D01*
X128919896Y-56337292D01*
X129070213Y-56487609D01*
X129242179Y-56612548D01*
X129242181Y-56612549D01*
X129242184Y-56612551D01*
X129431588Y-56709057D01*
X129633757Y-56774746D01*
X129843713Y-56808000D01*
X129843714Y-56808000D01*
X130056286Y-56808000D01*
X130056287Y-56808000D01*
X130266243Y-56774746D01*
X130468412Y-56709057D01*
X130657816Y-56612551D01*
X130679789Y-56596586D01*
X130829786Y-56487609D01*
X130829788Y-56487606D01*
X130829792Y-56487604D01*
X130980104Y-56337292D01*
X131099683Y-56172704D01*
X131155011Y-56130040D01*
X131224624Y-56124061D01*
X131286420Y-56156666D01*
X131300313Y-56172699D01*
X131410396Y-56324216D01*
X131419896Y-56337292D01*
X131570213Y-56487609D01*
X131742179Y-56612548D01*
X131742181Y-56612549D01*
X131742184Y-56612551D01*
X131931588Y-56709057D01*
X132133757Y-56774746D01*
X132343713Y-56808000D01*
X132343714Y-56808000D01*
X132556286Y-56808000D01*
X132556287Y-56808000D01*
X132766243Y-56774746D01*
X132968412Y-56709057D01*
X133157816Y-56612551D01*
X133179789Y-56596586D01*
X133329786Y-56487609D01*
X133329788Y-56487606D01*
X133329792Y-56487604D01*
X133480104Y-56337292D01*
X133480106Y-56337288D01*
X133480109Y-56337286D01*
X133605048Y-56165320D01*
X133605047Y-56165320D01*
X133605051Y-56165316D01*
X133701557Y-55975912D01*
X133767246Y-55773743D01*
X133800500Y-55563787D01*
X133800500Y-55101213D01*
X133767246Y-54891257D01*
X133701557Y-54689088D01*
X133605051Y-54499684D01*
X133605049Y-54499681D01*
X133605048Y-54499679D01*
X133480109Y-54327713D01*
X133329786Y-54177390D01*
X133157820Y-54052451D01*
X132968414Y-53955944D01*
X132968413Y-53955943D01*
X132968412Y-53955943D01*
X132766243Y-53890254D01*
X132766241Y-53890253D01*
X132766240Y-53890253D01*
X132604957Y-53864708D01*
X132556287Y-53857000D01*
X132343713Y-53857000D01*
X132295042Y-53864708D01*
X132133760Y-53890253D01*
X131931585Y-53955944D01*
X131742179Y-54052451D01*
X131570213Y-54177390D01*
X131419894Y-54327709D01*
X131419890Y-54327714D01*
X131300318Y-54492293D01*
X131244989Y-54534959D01*
X131175375Y-54540938D01*
X131113580Y-54508333D01*
X131099682Y-54492293D01*
X130980109Y-54327714D01*
X130980105Y-54327709D01*
X130829786Y-54177390D01*
X130657820Y-54052451D01*
X130468414Y-53955944D01*
X130468413Y-53955943D01*
X130468412Y-53955943D01*
X130266243Y-53890254D01*
X130266241Y-53890253D01*
X130266240Y-53890253D01*
X130104957Y-53864708D01*
X130056287Y-53857000D01*
X129843713Y-53857000D01*
X129795042Y-53864708D01*
X129633760Y-53890253D01*
X129431585Y-53955944D01*
X129242179Y-54052451D01*
X129070213Y-54177390D01*
X128919894Y-54327709D01*
X128919890Y-54327714D01*
X128800318Y-54492293D01*
X128744989Y-54534959D01*
X128675375Y-54540938D01*
X128613580Y-54508333D01*
X128599682Y-54492293D01*
X128480109Y-54327714D01*
X128480105Y-54327709D01*
X128329786Y-54177390D01*
X128157820Y-54052451D01*
X127968414Y-53955944D01*
X127968413Y-53955943D01*
X127968412Y-53955943D01*
X127766243Y-53890254D01*
X127766241Y-53890253D01*
X127766240Y-53890253D01*
X127604957Y-53864708D01*
X127556287Y-53857000D01*
X127343713Y-53857000D01*
X127295042Y-53864708D01*
X127133760Y-53890253D01*
X126931585Y-53955944D01*
X126742179Y-54052451D01*
X126570213Y-54177390D01*
X126419894Y-54327709D01*
X126419890Y-54327714D01*
X126300008Y-54492718D01*
X126244678Y-54535384D01*
X126175065Y-54541363D01*
X126113270Y-54508757D01*
X126099372Y-54492718D01*
X125979727Y-54328040D01*
X125979723Y-54328035D01*
X125829464Y-54177776D01*
X125829459Y-54177772D01*
X125657557Y-54052879D01*
X125468215Y-53956403D01*
X125266124Y-53890741D01*
X125200000Y-53880268D01*
X125200000Y-54928354D01*
X125133343Y-54889870D01*
X125012535Y-54857500D01*
X124887465Y-54857500D01*
X124766657Y-54889870D01*
X124700000Y-54928354D01*
X124700000Y-53880268D01*
X124699999Y-53880268D01*
X124633875Y-53890741D01*
X124431784Y-53956403D01*
X124242442Y-54052879D01*
X124070540Y-54177772D01*
X124070535Y-54177776D01*
X123920276Y-54328035D01*
X123920272Y-54328040D01*
X123800318Y-54493144D01*
X123744988Y-54535810D01*
X123675375Y-54541789D01*
X123613580Y-54509184D01*
X123599682Y-54493144D01*
X123479727Y-54328040D01*
X123479723Y-54328035D01*
X123329464Y-54177776D01*
X123329459Y-54177772D01*
X123157557Y-54052879D01*
X122968215Y-53956403D01*
X122766124Y-53890741D01*
X122700000Y-53880268D01*
X122700000Y-54928354D01*
X122633343Y-54889870D01*
X122512535Y-54857500D01*
X122387465Y-54857500D01*
X122266657Y-54889870D01*
X122200000Y-54928354D01*
X122200000Y-53880268D01*
X122199999Y-53880268D01*
X122133875Y-53890741D01*
X121931784Y-53956403D01*
X121742442Y-54052879D01*
X121570541Y-54177771D01*
X121431668Y-54316644D01*
X121370345Y-54350128D01*
X121300653Y-54345144D01*
X121244720Y-54303272D01*
X121238448Y-54294058D01*
X121142712Y-54138844D01*
X121018657Y-54014789D01*
X121018656Y-54014788D01*
X120869334Y-53922686D01*
X120702797Y-53867501D01*
X120702795Y-53867500D01*
X120600010Y-53857000D01*
X119299998Y-53857000D01*
X119299981Y-53857001D01*
X119197203Y-53867500D01*
X119197200Y-53867501D01*
X119030668Y-53922685D01*
X119030663Y-53922687D01*
X118881342Y-54014789D01*
X118757289Y-54138842D01*
X118665187Y-54288163D01*
X118665185Y-54288168D01*
X118644654Y-54350128D01*
X118610001Y-54454703D01*
X118610001Y-54454704D01*
X118610000Y-54454704D01*
X118599500Y-54557483D01*
X111574731Y-54557483D01*
X111529727Y-54495540D01*
X111529723Y-54495535D01*
X111379464Y-54345276D01*
X111379459Y-54345272D01*
X111207557Y-54220379D01*
X111018215Y-54123903D01*
X110816124Y-54058241D01*
X110750000Y-54047768D01*
X110750000Y-55095854D01*
X110683343Y-55057370D01*
X110562535Y-55025000D01*
X110437465Y-55025000D01*
X110316657Y-55057370D01*
X110250000Y-55095854D01*
X110250000Y-54047768D01*
X110249999Y-54047768D01*
X110183875Y-54058241D01*
X109981784Y-54123903D01*
X109792442Y-54220379D01*
X109620540Y-54345272D01*
X109620535Y-54345276D01*
X109470276Y-54495535D01*
X109470272Y-54495540D01*
X109350627Y-54660218D01*
X109295297Y-54702884D01*
X109225684Y-54708863D01*
X109163889Y-54676257D01*
X109149991Y-54660218D01*
X109030109Y-54495214D01*
X109030105Y-54495209D01*
X108879786Y-54344890D01*
X108707820Y-54219951D01*
X108518414Y-54123444D01*
X108518413Y-54123443D01*
X108518412Y-54123443D01*
X108316243Y-54057754D01*
X108316241Y-54057753D01*
X108316240Y-54057753D01*
X108154957Y-54032208D01*
X108106287Y-54024500D01*
X107893713Y-54024500D01*
X107845042Y-54032208D01*
X107683760Y-54057753D01*
X107481585Y-54123444D01*
X107292179Y-54219951D01*
X107120213Y-54344890D01*
X106969894Y-54495209D01*
X106969890Y-54495214D01*
X106850318Y-54659793D01*
X106794989Y-54702459D01*
X106725375Y-54708438D01*
X106663580Y-54675833D01*
X106649682Y-54659793D01*
X106530109Y-54495214D01*
X106530105Y-54495209D01*
X106379786Y-54344890D01*
X106207820Y-54219951D01*
X106018414Y-54123444D01*
X106018413Y-54123443D01*
X106018412Y-54123443D01*
X105816243Y-54057754D01*
X105816241Y-54057753D01*
X105816240Y-54057753D01*
X105654957Y-54032208D01*
X105606287Y-54024500D01*
X105393713Y-54024500D01*
X105345042Y-54032208D01*
X105183760Y-54057753D01*
X104981585Y-54123444D01*
X104792179Y-54219951D01*
X104620215Y-54344889D01*
X104481398Y-54483706D01*
X104420075Y-54517190D01*
X104350383Y-54512206D01*
X104294450Y-54470334D01*
X104288178Y-54461120D01*
X104192712Y-54306344D01*
X104068657Y-54182289D01*
X104068656Y-54182288D01*
X103919334Y-54090186D01*
X103752797Y-54035001D01*
X103752795Y-54035000D01*
X103650016Y-54024500D01*
X102624000Y-54024500D01*
X102556961Y-54004815D01*
X102511206Y-53952011D01*
X102500000Y-53900500D01*
X102500000Y-50624000D01*
X102519685Y-50556961D01*
X102572489Y-50511206D01*
X102624000Y-50500000D01*
X139876000Y-50500000D01*
X139943039Y-50519685D01*
G37*
G04 #@! TD.AperFunction*
M02*
