G04 #@! TF.GenerationSoftware,KiCad,Pcbnew,8.0.8*
G04 #@! TF.CreationDate,2025-01-30T15:17:16-05:00*
G04 #@! TF.ProjectId,FORWARD-PCB,464f5257-4152-4442-9d50-43422e6b6963,rev?*
G04 #@! TF.SameCoordinates,Original*
G04 #@! TF.FileFunction,Copper,L3,Inr*
G04 #@! TF.FilePolarity,Positive*
%FSLAX46Y46*%
G04 Gerber Fmt 4.6, Leading zero omitted, Abs format (unit mm)*
G04 Created by KiCad (PCBNEW 8.0.8) date 2025-01-30 15:17:16*
%MOMM*%
%LPD*%
G01*
G04 APERTURE LIST*
G04 Aperture macros list*
%AMRoundRect*
0 Rectangle with rounded corners*
0 $1 Rounding radius*
0 $2 $3 $4 $5 $6 $7 $8 $9 X,Y pos of 4 corners*
0 Add a 4 corners polygon primitive as box body*
4,1,4,$2,$3,$4,$5,$6,$7,$8,$9,$2,$3,0*
0 Add four circle primitives for the rounded corners*
1,1,$1+$1,$2,$3*
1,1,$1+$1,$4,$5*
1,1,$1+$1,$6,$7*
1,1,$1+$1,$8,$9*
0 Add four rect primitives between the rounded corners*
20,1,$1+$1,$2,$3,$4,$5,0*
20,1,$1+$1,$4,$5,$6,$7,0*
20,1,$1+$1,$6,$7,$8,$9,0*
20,1,$1+$1,$8,$9,$2,$3,0*%
G04 Aperture macros list end*
G04 #@! TA.AperFunction,ComponentPad*
%ADD10RoundRect,0.250000X0.725000X-0.600000X0.725000X0.600000X-0.725000X0.600000X-0.725000X-0.600000X0*%
G04 #@! TD*
G04 #@! TA.AperFunction,ComponentPad*
%ADD11O,1.950000X1.700000*%
G04 #@! TD*
G04 #@! TA.AperFunction,HeatsinkPad*
%ADD12O,1.800000X1.100000*%
G04 #@! TD*
G04 #@! TA.AperFunction,HeatsinkPad*
%ADD13O,2.200000X1.100000*%
G04 #@! TD*
G04 #@! TA.AperFunction,ComponentPad*
%ADD14RoundRect,0.250000X-0.600000X-0.725000X0.600000X-0.725000X0.600000X0.725000X-0.600000X0.725000X0*%
G04 #@! TD*
G04 #@! TA.AperFunction,ComponentPad*
%ADD15O,1.700000X1.950000*%
G04 #@! TD*
G04 #@! TA.AperFunction,ComponentPad*
%ADD16R,1.700000X1.700000*%
G04 #@! TD*
G04 #@! TA.AperFunction,ComponentPad*
%ADD17O,1.700000X1.700000*%
G04 #@! TD*
G04 #@! TA.AperFunction,ComponentPad*
%ADD18RoundRect,0.250000X-0.725000X0.600000X-0.725000X-0.600000X0.725000X-0.600000X0.725000X0.600000X0*%
G04 #@! TD*
G04 #@! TA.AperFunction,ComponentPad*
%ADD19RoundRect,0.250000X-0.650000X-1.550000X0.650000X-1.550000X0.650000X1.550000X-0.650000X1.550000X0*%
G04 #@! TD*
G04 #@! TA.AperFunction,ComponentPad*
%ADD20O,1.800000X3.600000*%
G04 #@! TD*
G04 #@! TA.AperFunction,ComponentPad*
%ADD21R,2.200000X2.200000*%
G04 #@! TD*
G04 #@! TA.AperFunction,ComponentPad*
%ADD22C,2.200000*%
G04 #@! TD*
G04 #@! TA.AperFunction,HeatsinkPad*
%ADD23C,0.600000*%
G04 #@! TD*
G04 #@! TA.AperFunction,ViaPad*
%ADD24C,0.800000*%
G04 #@! TD*
G04 APERTURE END LIST*
D10*
X105500000Y-76000000D03*
D11*
X105500000Y-73500000D03*
X105500000Y-71000000D03*
X105500000Y-68500000D03*
D12*
X177150000Y-141750000D03*
D13*
X179950000Y-143900000D03*
D12*
X182750000Y-141750000D03*
D14*
X119950000Y-55332500D03*
D15*
X122450000Y-55332500D03*
X124950000Y-55332500D03*
X127450000Y-55332500D03*
X129950000Y-55332500D03*
X132450000Y-55332500D03*
D16*
X117000000Y-87125000D03*
D17*
X117000000Y-89665000D03*
X117000000Y-92205000D03*
X117000000Y-94745000D03*
X117000000Y-97285000D03*
X117000000Y-99825000D03*
X117000000Y-102365000D03*
X117000000Y-104905000D03*
D18*
X195967500Y-80500000D03*
D11*
X195967500Y-83000000D03*
X195967500Y-85500000D03*
X195967500Y-88000000D03*
D19*
X106020000Y-138500000D03*
D20*
X109830000Y-138500000D03*
X113640000Y-138500000D03*
X117450000Y-138500000D03*
X121260000Y-138500000D03*
X125070000Y-138500000D03*
X128880000Y-138500000D03*
X132690000Y-138500000D03*
X136500000Y-138500000D03*
X140310000Y-138500000D03*
X144120000Y-138500000D03*
X147930000Y-138500000D03*
X151740000Y-138500000D03*
D21*
X106500000Y-109960000D03*
D22*
X106500000Y-112500000D03*
X106500000Y-115040000D03*
D23*
X161100000Y-63200000D03*
X161100000Y-64600000D03*
X161800000Y-62500000D03*
X161800000Y-63900000D03*
X161800000Y-65300000D03*
X162475000Y-63200000D03*
X162475000Y-64600000D03*
X163200000Y-62500000D03*
X163200000Y-63900000D03*
X163200000Y-65300000D03*
X163900000Y-63200000D03*
X163900000Y-64600000D03*
D14*
X103000000Y-55500000D03*
D15*
X105500000Y-55500000D03*
X108000000Y-55500000D03*
X110500000Y-55500000D03*
D18*
X195967500Y-98750000D03*
D11*
X195967500Y-101250000D03*
X195967500Y-103750000D03*
X195967500Y-106250000D03*
D24*
X151250000Y-84750000D03*
X174602455Y-110948427D03*
X146500000Y-80000000D03*
X107500000Y-100000000D03*
X149500000Y-75500000D03*
X104000000Y-92500000D03*
X152100000Y-58100000D03*
X154250000Y-84000000D03*
X124000000Y-66000000D03*
G04 #@! TA.AperFunction,Conductor*
G36*
X139943039Y-50519685D02*
G01*
X139988794Y-50572489D01*
X140000000Y-50624000D01*
X140000000Y-54880000D01*
X188000000Y-54880000D01*
X188000000Y-50624000D01*
X188019685Y-50556961D01*
X188072489Y-50511206D01*
X188124000Y-50500000D01*
X198376000Y-50500000D01*
X198443039Y-50519685D01*
X198488794Y-50572489D01*
X198500000Y-50624000D01*
X198500000Y-144876000D01*
X198480315Y-144943039D01*
X198427511Y-144988794D01*
X198376000Y-145000000D01*
X181153357Y-145000000D01*
X181086318Y-144980315D01*
X181040563Y-144927511D01*
X181030619Y-144858353D01*
X181059644Y-144794797D01*
X181084465Y-144772898D01*
X181169655Y-144715977D01*
X181315977Y-144569655D01*
X181430941Y-144397598D01*
X181510130Y-144206420D01*
X181550500Y-144003465D01*
X181550500Y-143796535D01*
X181541244Y-143750000D01*
X184794355Y-143750000D01*
X184814859Y-143918869D01*
X184814860Y-143918874D01*
X184875182Y-144077931D01*
X184937475Y-144168177D01*
X184971817Y-144217929D01*
X185077505Y-144311560D01*
X185099150Y-144330736D01*
X185226545Y-144397598D01*
X185249775Y-144409790D01*
X185414944Y-144450500D01*
X185585056Y-144450500D01*
X185750225Y-144409790D01*
X185829692Y-144368081D01*
X185900849Y-144330736D01*
X185900850Y-144330734D01*
X185900852Y-144330734D01*
X186028183Y-144217929D01*
X186124818Y-144077930D01*
X186185140Y-143918872D01*
X186205645Y-143750000D01*
X186185140Y-143581128D01*
X186124818Y-143422070D01*
X186028183Y-143282071D01*
X185900852Y-143169266D01*
X185900849Y-143169263D01*
X185750226Y-143090210D01*
X185585056Y-143049500D01*
X185414944Y-143049500D01*
X185249773Y-143090210D01*
X185099150Y-143169263D01*
X184971816Y-143282072D01*
X184875182Y-143422068D01*
X184814860Y-143581125D01*
X184814859Y-143581130D01*
X184794355Y-143750000D01*
X181541244Y-143750000D01*
X181510130Y-143593580D01*
X181430941Y-143402402D01*
X181315977Y-143230345D01*
X181315975Y-143230342D01*
X181169657Y-143084024D01*
X181083626Y-143026541D01*
X180997598Y-142969059D01*
X180806420Y-142889870D01*
X180806412Y-142889868D01*
X180603469Y-142849500D01*
X180603465Y-142849500D01*
X179296535Y-142849500D01*
X179296530Y-142849500D01*
X179093587Y-142889868D01*
X179093579Y-142889870D01*
X178902403Y-142969058D01*
X178730342Y-143084024D01*
X178584024Y-143230342D01*
X178469058Y-143402403D01*
X178389870Y-143593579D01*
X178389868Y-143593587D01*
X178349500Y-143796530D01*
X178349500Y-144003469D01*
X178389868Y-144206412D01*
X178389870Y-144206420D01*
X178469059Y-144397598D01*
X178504407Y-144450500D01*
X178584024Y-144569657D01*
X178730342Y-144715975D01*
X178730345Y-144715977D01*
X178815533Y-144772897D01*
X178860339Y-144826509D01*
X178869046Y-144895834D01*
X178838892Y-144958862D01*
X178779449Y-144995582D01*
X178746643Y-145000000D01*
X102624000Y-145000000D01*
X102556961Y-144980315D01*
X102511206Y-144927511D01*
X102500000Y-144876000D01*
X102500000Y-141250000D01*
X157794355Y-141250000D01*
X157814859Y-141418869D01*
X157814860Y-141418874D01*
X157875182Y-141577931D01*
X157922533Y-141646530D01*
X157971817Y-141717929D01*
X158077505Y-141811560D01*
X158099150Y-141830736D01*
X158249773Y-141909789D01*
X158249775Y-141909790D01*
X158414944Y-141950500D01*
X158585056Y-141950500D01*
X158750225Y-141909790D01*
X158857535Y-141853469D01*
X158900849Y-141830736D01*
X158900850Y-141830734D01*
X158900852Y-141830734D01*
X159028183Y-141717929D01*
X159124818Y-141577930D01*
X159154373Y-141500000D01*
X172544355Y-141500000D01*
X172564859Y-141668869D01*
X172564860Y-141668874D01*
X172625182Y-141827931D01*
X172642808Y-141853466D01*
X172721817Y-141967929D01*
X172821694Y-142056412D01*
X172849150Y-142080736D01*
X172999773Y-142159789D01*
X172999775Y-142159790D01*
X173164944Y-142200500D01*
X173335056Y-142200500D01*
X173500225Y-142159790D01*
X173579692Y-142118081D01*
X173650849Y-142080736D01*
X173650850Y-142080734D01*
X173650852Y-142080734D01*
X173778183Y-141967929D01*
X173874818Y-141827930D01*
X173935140Y-141668872D01*
X173937853Y-141646530D01*
X175749500Y-141646530D01*
X175749500Y-141853469D01*
X175789868Y-142056412D01*
X175789870Y-142056420D01*
X175869058Y-142247596D01*
X175984024Y-142419657D01*
X176130342Y-142565975D01*
X176130345Y-142565977D01*
X176302402Y-142680941D01*
X176493580Y-142760130D01*
X176696530Y-142800499D01*
X176696534Y-142800500D01*
X176696535Y-142800500D01*
X177603466Y-142800500D01*
X177603467Y-142800499D01*
X177806420Y-142760130D01*
X177997598Y-142680941D01*
X178169655Y-142565977D01*
X178315977Y-142419655D01*
X178430941Y-142247598D01*
X178510130Y-142056420D01*
X178550500Y-141853465D01*
X178550500Y-141646535D01*
X178550499Y-141646530D01*
X181349500Y-141646530D01*
X181349500Y-141853469D01*
X181389868Y-142056412D01*
X181389870Y-142056420D01*
X181469058Y-142247596D01*
X181584024Y-142419657D01*
X181730342Y-142565975D01*
X181730345Y-142565977D01*
X181902402Y-142680941D01*
X182093580Y-142760130D01*
X182296530Y-142800499D01*
X182296534Y-142800500D01*
X182296535Y-142800500D01*
X183203466Y-142800500D01*
X183203467Y-142800499D01*
X183406420Y-142760130D01*
X183597598Y-142680941D01*
X183769655Y-142565977D01*
X183915977Y-142419655D01*
X184030941Y-142247598D01*
X184110130Y-142056420D01*
X184150500Y-141853465D01*
X184150500Y-141646535D01*
X184110130Y-141443580D01*
X184030941Y-141252402D01*
X183915977Y-141080345D01*
X183915975Y-141080342D01*
X183769657Y-140934024D01*
X183629253Y-140840210D01*
X183597598Y-140819059D01*
X183552790Y-140800499D01*
X183406420Y-140739870D01*
X183406412Y-140739868D01*
X183203469Y-140699500D01*
X183203465Y-140699500D01*
X182296535Y-140699500D01*
X182296530Y-140699500D01*
X182093587Y-140739868D01*
X182093579Y-140739870D01*
X181902403Y-140819058D01*
X181730342Y-140934024D01*
X181584024Y-141080342D01*
X181469058Y-141252403D01*
X181389870Y-141443579D01*
X181389868Y-141443587D01*
X181349500Y-141646530D01*
X178550499Y-141646530D01*
X178510130Y-141443580D01*
X178430941Y-141252402D01*
X178315977Y-141080345D01*
X178315975Y-141080342D01*
X178169657Y-140934024D01*
X178029253Y-140840210D01*
X177997598Y-140819059D01*
X177952790Y-140800499D01*
X177806420Y-140739870D01*
X177806412Y-140739868D01*
X177603469Y-140699500D01*
X177603465Y-140699500D01*
X176696535Y-140699500D01*
X176696530Y-140699500D01*
X176493587Y-140739868D01*
X176493579Y-140739870D01*
X176302403Y-140819058D01*
X176130342Y-140934024D01*
X175984024Y-141080342D01*
X175869058Y-141252403D01*
X175789870Y-141443579D01*
X175789868Y-141443587D01*
X175749500Y-141646530D01*
X173937853Y-141646530D01*
X173955645Y-141500000D01*
X173935140Y-141331128D01*
X173874818Y-141172070D01*
X173778183Y-141032071D01*
X173683316Y-140948026D01*
X173650849Y-140919263D01*
X173500226Y-140840210D01*
X173335056Y-140799500D01*
X173164944Y-140799500D01*
X172999773Y-140840210D01*
X172849150Y-140919263D01*
X172721816Y-141032072D01*
X172625182Y-141172068D01*
X172564860Y-141331125D01*
X172564859Y-141331130D01*
X172544355Y-141500000D01*
X159154373Y-141500000D01*
X159185140Y-141418872D01*
X159205645Y-141250000D01*
X159185140Y-141081128D01*
X159124818Y-140922070D01*
X159122880Y-140919263D01*
X159090476Y-140872318D01*
X159028183Y-140782071D01*
X158900852Y-140669266D01*
X158900849Y-140669263D01*
X158750226Y-140590210D01*
X158585056Y-140549500D01*
X158414944Y-140549500D01*
X158249773Y-140590210D01*
X158099150Y-140669263D01*
X157971816Y-140782072D01*
X157875182Y-140922068D01*
X157814860Y-141081125D01*
X157814859Y-141081130D01*
X157794355Y-141250000D01*
X102500000Y-141250000D01*
X102500000Y-136899983D01*
X104619500Y-136899983D01*
X104619500Y-140100001D01*
X104619501Y-140100018D01*
X104630000Y-140202796D01*
X104630001Y-140202799D01*
X104666308Y-140312365D01*
X104685186Y-140369334D01*
X104777288Y-140518656D01*
X104901344Y-140642712D01*
X105050666Y-140734814D01*
X105217203Y-140789999D01*
X105319991Y-140800500D01*
X106720008Y-140800499D01*
X106822797Y-140789999D01*
X106989334Y-140734814D01*
X107138656Y-140642712D01*
X107262712Y-140518656D01*
X107354814Y-140369334D01*
X107409999Y-140202797D01*
X107420500Y-140100009D01*
X107420499Y-137489778D01*
X108429500Y-137489778D01*
X108429500Y-139510221D01*
X108463985Y-139727952D01*
X108532103Y-139937603D01*
X108532104Y-139937606D01*
X108600122Y-140071096D01*
X108614854Y-140100009D01*
X108632187Y-140134025D01*
X108761752Y-140312358D01*
X108761756Y-140312363D01*
X108917636Y-140468243D01*
X108917641Y-140468247D01*
X109073192Y-140581260D01*
X109095978Y-140597815D01*
X109224375Y-140663237D01*
X109292393Y-140697895D01*
X109292396Y-140697896D01*
X109397221Y-140731955D01*
X109502049Y-140766015D01*
X109719778Y-140800500D01*
X109719779Y-140800500D01*
X109940221Y-140800500D01*
X109940222Y-140800500D01*
X110157951Y-140766015D01*
X110367606Y-140697895D01*
X110564022Y-140597815D01*
X110742365Y-140468242D01*
X110898242Y-140312365D01*
X111027815Y-140134022D01*
X111127895Y-139937606D01*
X111196015Y-139727951D01*
X111230500Y-139510222D01*
X111230500Y-137489778D01*
X112239500Y-137489778D01*
X112239500Y-139510221D01*
X112273985Y-139727952D01*
X112342103Y-139937603D01*
X112342104Y-139937606D01*
X112410122Y-140071096D01*
X112424854Y-140100009D01*
X112442187Y-140134025D01*
X112571752Y-140312358D01*
X112571756Y-140312363D01*
X112727636Y-140468243D01*
X112727641Y-140468247D01*
X112883192Y-140581260D01*
X112905978Y-140597815D01*
X113034375Y-140663237D01*
X113102393Y-140697895D01*
X113102396Y-140697896D01*
X113207221Y-140731955D01*
X113312049Y-140766015D01*
X113529778Y-140800500D01*
X113529779Y-140800500D01*
X113750221Y-140800500D01*
X113750222Y-140800500D01*
X113967951Y-140766015D01*
X114177606Y-140697895D01*
X114374022Y-140597815D01*
X114552365Y-140468242D01*
X114708242Y-140312365D01*
X114837815Y-140134022D01*
X114937895Y-139937606D01*
X115006015Y-139727951D01*
X115040500Y-139510222D01*
X115040500Y-137489778D01*
X116049500Y-137489778D01*
X116049500Y-139510221D01*
X116083985Y-139727952D01*
X116152103Y-139937603D01*
X116152104Y-139937606D01*
X116220122Y-140071096D01*
X116234854Y-140100009D01*
X116252187Y-140134025D01*
X116381752Y-140312358D01*
X116381756Y-140312363D01*
X116537636Y-140468243D01*
X116537641Y-140468247D01*
X116693192Y-140581260D01*
X116715978Y-140597815D01*
X116844375Y-140663237D01*
X116912393Y-140697895D01*
X116912396Y-140697896D01*
X117017221Y-140731955D01*
X117122049Y-140766015D01*
X117339778Y-140800500D01*
X117339779Y-140800500D01*
X117560221Y-140800500D01*
X117560222Y-140800500D01*
X117777951Y-140766015D01*
X117987606Y-140697895D01*
X118184022Y-140597815D01*
X118362365Y-140468242D01*
X118518242Y-140312365D01*
X118647815Y-140134022D01*
X118747895Y-139937606D01*
X118816015Y-139727951D01*
X118850500Y-139510222D01*
X118850500Y-137489778D01*
X119859500Y-137489778D01*
X119859500Y-139510221D01*
X119893985Y-139727952D01*
X119962103Y-139937603D01*
X119962104Y-139937606D01*
X120030122Y-140071096D01*
X120044854Y-140100009D01*
X120062187Y-140134025D01*
X120191752Y-140312358D01*
X120191756Y-140312363D01*
X120347636Y-140468243D01*
X120347641Y-140468247D01*
X120503192Y-140581260D01*
X120525978Y-140597815D01*
X120654375Y-140663237D01*
X120722393Y-140697895D01*
X120722396Y-140697896D01*
X120827221Y-140731955D01*
X120932049Y-140766015D01*
X121149778Y-140800500D01*
X121149779Y-140800500D01*
X121370221Y-140800500D01*
X121370222Y-140800500D01*
X121587951Y-140766015D01*
X121797606Y-140697895D01*
X121994022Y-140597815D01*
X122172365Y-140468242D01*
X122328242Y-140312365D01*
X122457815Y-140134022D01*
X122557895Y-139937606D01*
X122626015Y-139727951D01*
X122660500Y-139510222D01*
X122660500Y-137489778D01*
X123669500Y-137489778D01*
X123669500Y-139510221D01*
X123703985Y-139727952D01*
X123772103Y-139937603D01*
X123772104Y-139937606D01*
X123840122Y-140071096D01*
X123854854Y-140100009D01*
X123872187Y-140134025D01*
X124001752Y-140312358D01*
X124001756Y-140312363D01*
X124157636Y-140468243D01*
X124157641Y-140468247D01*
X124313192Y-140581260D01*
X124335978Y-140597815D01*
X124464375Y-140663237D01*
X124532393Y-140697895D01*
X124532396Y-140697896D01*
X124637221Y-140731955D01*
X124742049Y-140766015D01*
X124959778Y-140800500D01*
X124959779Y-140800500D01*
X125180221Y-140800500D01*
X125180222Y-140800500D01*
X125397951Y-140766015D01*
X125607606Y-140697895D01*
X125804022Y-140597815D01*
X125982365Y-140468242D01*
X126138242Y-140312365D01*
X126267815Y-140134022D01*
X126367895Y-139937606D01*
X126436015Y-139727951D01*
X126470500Y-139510222D01*
X126470500Y-137489778D01*
X127479500Y-137489778D01*
X127479500Y-139510221D01*
X127513985Y-139727952D01*
X127582103Y-139937603D01*
X127582104Y-139937606D01*
X127650122Y-140071096D01*
X127664854Y-140100009D01*
X127682187Y-140134025D01*
X127811752Y-140312358D01*
X127811756Y-140312363D01*
X127967636Y-140468243D01*
X127967641Y-140468247D01*
X128123192Y-140581260D01*
X128145978Y-140597815D01*
X128274375Y-140663237D01*
X128342393Y-140697895D01*
X128342396Y-140697896D01*
X128447221Y-140731955D01*
X128552049Y-140766015D01*
X128769778Y-140800500D01*
X128769779Y-140800500D01*
X128990221Y-140800500D01*
X128990222Y-140800500D01*
X129207951Y-140766015D01*
X129417606Y-140697895D01*
X129614022Y-140597815D01*
X129792365Y-140468242D01*
X129948242Y-140312365D01*
X130077815Y-140134022D01*
X130177895Y-139937606D01*
X130246015Y-139727951D01*
X130280500Y-139510222D01*
X130280500Y-137489778D01*
X131289500Y-137489778D01*
X131289500Y-139510221D01*
X131323985Y-139727952D01*
X131392103Y-139937603D01*
X131392104Y-139937606D01*
X131460122Y-140071096D01*
X131474854Y-140100009D01*
X131492187Y-140134025D01*
X131621752Y-140312358D01*
X131621756Y-140312363D01*
X131777636Y-140468243D01*
X131777641Y-140468247D01*
X131933192Y-140581260D01*
X131955978Y-140597815D01*
X132084375Y-140663237D01*
X132152393Y-140697895D01*
X132152396Y-140697896D01*
X132257221Y-140731955D01*
X132362049Y-140766015D01*
X132579778Y-140800500D01*
X132579779Y-140800500D01*
X132800221Y-140800500D01*
X132800222Y-140800500D01*
X133017951Y-140766015D01*
X133227606Y-140697895D01*
X133424022Y-140597815D01*
X133602365Y-140468242D01*
X133758242Y-140312365D01*
X133887815Y-140134022D01*
X133987895Y-139937606D01*
X134056015Y-139727951D01*
X134090500Y-139510222D01*
X134090500Y-137489778D01*
X135099500Y-137489778D01*
X135099500Y-139510221D01*
X135133985Y-139727952D01*
X135202103Y-139937603D01*
X135202104Y-139937606D01*
X135270122Y-140071096D01*
X135284854Y-140100009D01*
X135302187Y-140134025D01*
X135431752Y-140312358D01*
X135431756Y-140312363D01*
X135587636Y-140468243D01*
X135587641Y-140468247D01*
X135743192Y-140581260D01*
X135765978Y-140597815D01*
X135894375Y-140663237D01*
X135962393Y-140697895D01*
X135962396Y-140697896D01*
X136067221Y-140731955D01*
X136172049Y-140766015D01*
X136389778Y-140800500D01*
X136389779Y-140800500D01*
X136610221Y-140800500D01*
X136610222Y-140800500D01*
X136827951Y-140766015D01*
X137037606Y-140697895D01*
X137234022Y-140597815D01*
X137412365Y-140468242D01*
X137568242Y-140312365D01*
X137697815Y-140134022D01*
X137797895Y-139937606D01*
X137866015Y-139727951D01*
X137900500Y-139510222D01*
X137900500Y-137489778D01*
X138909500Y-137489778D01*
X138909500Y-139510221D01*
X138943985Y-139727952D01*
X139012103Y-139937603D01*
X139012104Y-139937606D01*
X139080122Y-140071096D01*
X139094854Y-140100009D01*
X139112187Y-140134025D01*
X139241752Y-140312358D01*
X139241756Y-140312363D01*
X139397636Y-140468243D01*
X139397641Y-140468247D01*
X139553192Y-140581260D01*
X139575978Y-140597815D01*
X139704375Y-140663237D01*
X139772393Y-140697895D01*
X139772396Y-140697896D01*
X139877221Y-140731955D01*
X139982049Y-140766015D01*
X140199778Y-140800500D01*
X140199779Y-140800500D01*
X140420221Y-140800500D01*
X140420222Y-140800500D01*
X140637951Y-140766015D01*
X140847606Y-140697895D01*
X141044022Y-140597815D01*
X141222365Y-140468242D01*
X141378242Y-140312365D01*
X141507815Y-140134022D01*
X141607895Y-139937606D01*
X141676015Y-139727951D01*
X141710500Y-139510222D01*
X141710500Y-137489778D01*
X142719500Y-137489778D01*
X142719500Y-139510221D01*
X142753985Y-139727952D01*
X142822103Y-139937603D01*
X142822104Y-139937606D01*
X142890122Y-140071096D01*
X142904854Y-140100009D01*
X142922187Y-140134025D01*
X143051752Y-140312358D01*
X143051756Y-140312363D01*
X143207636Y-140468243D01*
X143207641Y-140468247D01*
X143363192Y-140581260D01*
X143385978Y-140597815D01*
X143514375Y-140663237D01*
X143582393Y-140697895D01*
X143582396Y-140697896D01*
X143687221Y-140731955D01*
X143792049Y-140766015D01*
X144009778Y-140800500D01*
X144009779Y-140800500D01*
X144230221Y-140800500D01*
X144230222Y-140800500D01*
X144447951Y-140766015D01*
X144657606Y-140697895D01*
X144854022Y-140597815D01*
X145032365Y-140468242D01*
X145188242Y-140312365D01*
X145317815Y-140134022D01*
X145417895Y-139937606D01*
X145486015Y-139727951D01*
X145520500Y-139510222D01*
X145520500Y-137489778D01*
X146529500Y-137489778D01*
X146529500Y-139510221D01*
X146563985Y-139727952D01*
X146632103Y-139937603D01*
X146632104Y-139937606D01*
X146700122Y-140071096D01*
X146714854Y-140100009D01*
X146732187Y-140134025D01*
X146861752Y-140312358D01*
X146861756Y-140312363D01*
X147017636Y-140468243D01*
X147017641Y-140468247D01*
X147173192Y-140581260D01*
X147195978Y-140597815D01*
X147324375Y-140663237D01*
X147392393Y-140697895D01*
X147392396Y-140697896D01*
X147497221Y-140731955D01*
X147602049Y-140766015D01*
X147819778Y-140800500D01*
X147819779Y-140800500D01*
X148040221Y-140800500D01*
X148040222Y-140800500D01*
X148257951Y-140766015D01*
X148467606Y-140697895D01*
X148664022Y-140597815D01*
X148842365Y-140468242D01*
X148998242Y-140312365D01*
X149127815Y-140134022D01*
X149227895Y-139937606D01*
X149296015Y-139727951D01*
X149330500Y-139510222D01*
X149330500Y-137489778D01*
X150339500Y-137489778D01*
X150339500Y-139510221D01*
X150373985Y-139727952D01*
X150442103Y-139937603D01*
X150442104Y-139937606D01*
X150510122Y-140071096D01*
X150524854Y-140100009D01*
X150542187Y-140134025D01*
X150671752Y-140312358D01*
X150671756Y-140312363D01*
X150827636Y-140468243D01*
X150827641Y-140468247D01*
X150983192Y-140581260D01*
X151005978Y-140597815D01*
X151134375Y-140663237D01*
X151202393Y-140697895D01*
X151202396Y-140697896D01*
X151307221Y-140731955D01*
X151412049Y-140766015D01*
X151629778Y-140800500D01*
X151629779Y-140800500D01*
X151850221Y-140800500D01*
X151850222Y-140800500D01*
X152067951Y-140766015D01*
X152277606Y-140697895D01*
X152474022Y-140597815D01*
X152652365Y-140468242D01*
X152808242Y-140312365D01*
X152937815Y-140134022D01*
X153037895Y-139937606D01*
X153106015Y-139727951D01*
X153140500Y-139510222D01*
X153140500Y-139250000D01*
X185044355Y-139250000D01*
X185064859Y-139418869D01*
X185064860Y-139418874D01*
X185125182Y-139577931D01*
X185187475Y-139668177D01*
X185221817Y-139717929D01*
X185327505Y-139811560D01*
X185349150Y-139830736D01*
X185499773Y-139909789D01*
X185499775Y-139909790D01*
X185664944Y-139950500D01*
X185835056Y-139950500D01*
X186000225Y-139909790D01*
X186079692Y-139868081D01*
X186150849Y-139830736D01*
X186150850Y-139830734D01*
X186150852Y-139830734D01*
X186278183Y-139717929D01*
X186374818Y-139577930D01*
X186435140Y-139418872D01*
X186455645Y-139250000D01*
X186435140Y-139081128D01*
X186374818Y-138922070D01*
X186278183Y-138782071D01*
X186150852Y-138669266D01*
X186150849Y-138669263D01*
X186000226Y-138590210D01*
X185835056Y-138549500D01*
X185664944Y-138549500D01*
X185499773Y-138590210D01*
X185349150Y-138669263D01*
X185221816Y-138782072D01*
X185125182Y-138922068D01*
X185064860Y-139081125D01*
X185064859Y-139081130D01*
X185044355Y-139250000D01*
X153140500Y-139250000D01*
X153140500Y-137750000D01*
X176544355Y-137750000D01*
X176564859Y-137918869D01*
X176564860Y-137918874D01*
X176625182Y-138077931D01*
X176687475Y-138168177D01*
X176721817Y-138217929D01*
X176827505Y-138311560D01*
X176849150Y-138330736D01*
X176999773Y-138409789D01*
X176999775Y-138409790D01*
X177164944Y-138450500D01*
X177335056Y-138450500D01*
X177500225Y-138409790D01*
X177579692Y-138368081D01*
X177650849Y-138330736D01*
X177650850Y-138330734D01*
X177650852Y-138330734D01*
X177741982Y-138250000D01*
X178544355Y-138250000D01*
X178564859Y-138418869D01*
X178564860Y-138418874D01*
X178625182Y-138577931D01*
X178633658Y-138590210D01*
X178721817Y-138717929D01*
X178794219Y-138782071D01*
X178849150Y-138830736D01*
X178999773Y-138909789D01*
X178999775Y-138909790D01*
X179164944Y-138950500D01*
X179335056Y-138950500D01*
X179500225Y-138909790D01*
X179579692Y-138868081D01*
X179650849Y-138830736D01*
X179650850Y-138830734D01*
X179650852Y-138830734D01*
X179778183Y-138717929D01*
X179874818Y-138577930D01*
X179935140Y-138418872D01*
X179955645Y-138250000D01*
X179935140Y-138081128D01*
X179874818Y-137922070D01*
X179872608Y-137918869D01*
X179840476Y-137872318D01*
X179778183Y-137782071D01*
X179650852Y-137669266D01*
X179650849Y-137669263D01*
X179500226Y-137590210D01*
X179335056Y-137549500D01*
X179164944Y-137549500D01*
X178999773Y-137590210D01*
X178849150Y-137669263D01*
X178721816Y-137782072D01*
X178625182Y-137922068D01*
X178564860Y-138081125D01*
X178564859Y-138081130D01*
X178544355Y-138250000D01*
X177741982Y-138250000D01*
X177778183Y-138217929D01*
X177874818Y-138077930D01*
X177935140Y-137918872D01*
X177955645Y-137750000D01*
X177935140Y-137581128D01*
X177874818Y-137422070D01*
X177778183Y-137282071D01*
X177650852Y-137169266D01*
X177650849Y-137169263D01*
X177500226Y-137090210D01*
X177335056Y-137049500D01*
X177164944Y-137049500D01*
X176999773Y-137090210D01*
X176849150Y-137169263D01*
X176721816Y-137282072D01*
X176625182Y-137422068D01*
X176564860Y-137581125D01*
X176564859Y-137581130D01*
X176544355Y-137750000D01*
X153140500Y-137750000D01*
X153140500Y-137489778D01*
X153106015Y-137272049D01*
X153037895Y-137062394D01*
X153037895Y-137062393D01*
X152955149Y-136899998D01*
X152937815Y-136865978D01*
X152887848Y-136797204D01*
X152808247Y-136687641D01*
X152808243Y-136687636D01*
X152652363Y-136531756D01*
X152652358Y-136531752D01*
X152474025Y-136402187D01*
X152474024Y-136402186D01*
X152474022Y-136402185D01*
X152385908Y-136357288D01*
X152277606Y-136302104D01*
X152277603Y-136302103D01*
X152067952Y-136233985D01*
X151916516Y-136210000D01*
X151850222Y-136199500D01*
X151629778Y-136199500D01*
X151563484Y-136210000D01*
X151412047Y-136233985D01*
X151202396Y-136302103D01*
X151202393Y-136302104D01*
X151005974Y-136402187D01*
X150827641Y-136531752D01*
X150827636Y-136531756D01*
X150671756Y-136687636D01*
X150671752Y-136687641D01*
X150542187Y-136865974D01*
X150442104Y-137062393D01*
X150442103Y-137062396D01*
X150373985Y-137272047D01*
X150339500Y-137489778D01*
X149330500Y-137489778D01*
X149296015Y-137272049D01*
X149227895Y-137062394D01*
X149227895Y-137062393D01*
X149145149Y-136899998D01*
X149127815Y-136865978D01*
X149077848Y-136797204D01*
X148998247Y-136687641D01*
X148998243Y-136687636D01*
X148842363Y-136531756D01*
X148842358Y-136531752D01*
X148664025Y-136402187D01*
X148664024Y-136402186D01*
X148664022Y-136402185D01*
X148575908Y-136357288D01*
X148467606Y-136302104D01*
X148467603Y-136302103D01*
X148257952Y-136233985D01*
X148106516Y-136210000D01*
X148040222Y-136199500D01*
X147819778Y-136199500D01*
X147753484Y-136210000D01*
X147602047Y-136233985D01*
X147392396Y-136302103D01*
X147392393Y-136302104D01*
X147195974Y-136402187D01*
X147017641Y-136531752D01*
X147017636Y-136531756D01*
X146861756Y-136687636D01*
X146861752Y-136687641D01*
X146732187Y-136865974D01*
X146632104Y-137062393D01*
X146632103Y-137062396D01*
X146563985Y-137272047D01*
X146529500Y-137489778D01*
X145520500Y-137489778D01*
X145486015Y-137272049D01*
X145417895Y-137062394D01*
X145417895Y-137062393D01*
X145335149Y-136899998D01*
X145317815Y-136865978D01*
X145267848Y-136797204D01*
X145188247Y-136687641D01*
X145188243Y-136687636D01*
X145032363Y-136531756D01*
X145032358Y-136531752D01*
X144854025Y-136402187D01*
X144854024Y-136402186D01*
X144854022Y-136402185D01*
X144765908Y-136357288D01*
X144657606Y-136302104D01*
X144657603Y-136302103D01*
X144447952Y-136233985D01*
X144296516Y-136210000D01*
X144230222Y-136199500D01*
X144009778Y-136199500D01*
X143943484Y-136210000D01*
X143792047Y-136233985D01*
X143582396Y-136302103D01*
X143582393Y-136302104D01*
X143385974Y-136402187D01*
X143207641Y-136531752D01*
X143207636Y-136531756D01*
X143051756Y-136687636D01*
X143051752Y-136687641D01*
X142922187Y-136865974D01*
X142822104Y-137062393D01*
X142822103Y-137062396D01*
X142753985Y-137272047D01*
X142719500Y-137489778D01*
X141710500Y-137489778D01*
X141676015Y-137272049D01*
X141607895Y-137062394D01*
X141607895Y-137062393D01*
X141525149Y-136899998D01*
X141507815Y-136865978D01*
X141457848Y-136797204D01*
X141378247Y-136687641D01*
X141378243Y-136687636D01*
X141222363Y-136531756D01*
X141222358Y-136531752D01*
X141044025Y-136402187D01*
X141044024Y-136402186D01*
X141044022Y-136402185D01*
X140955908Y-136357288D01*
X140847606Y-136302104D01*
X140847603Y-136302103D01*
X140637952Y-136233985D01*
X140486516Y-136210000D01*
X140420222Y-136199500D01*
X140199778Y-136199500D01*
X140133484Y-136210000D01*
X139982047Y-136233985D01*
X139772396Y-136302103D01*
X139772393Y-136302104D01*
X139575974Y-136402187D01*
X139397641Y-136531752D01*
X139397636Y-136531756D01*
X139241756Y-136687636D01*
X139241752Y-136687641D01*
X139112187Y-136865974D01*
X139012104Y-137062393D01*
X139012103Y-137062396D01*
X138943985Y-137272047D01*
X138909500Y-137489778D01*
X137900500Y-137489778D01*
X137866015Y-137272049D01*
X137797895Y-137062394D01*
X137797895Y-137062393D01*
X137715149Y-136899998D01*
X137697815Y-136865978D01*
X137647848Y-136797204D01*
X137568247Y-136687641D01*
X137568243Y-136687636D01*
X137412363Y-136531756D01*
X137412358Y-136531752D01*
X137234025Y-136402187D01*
X137234024Y-136402186D01*
X137234022Y-136402185D01*
X137145908Y-136357288D01*
X137037606Y-136302104D01*
X137037603Y-136302103D01*
X136827952Y-136233985D01*
X136676516Y-136210000D01*
X136610222Y-136199500D01*
X136389778Y-136199500D01*
X136323484Y-136210000D01*
X136172047Y-136233985D01*
X135962396Y-136302103D01*
X135962393Y-136302104D01*
X135765974Y-136402187D01*
X135587641Y-136531752D01*
X135587636Y-136531756D01*
X135431756Y-136687636D01*
X135431752Y-136687641D01*
X135302187Y-136865974D01*
X135202104Y-137062393D01*
X135202103Y-137062396D01*
X135133985Y-137272047D01*
X135099500Y-137489778D01*
X134090500Y-137489778D01*
X134056015Y-137272049D01*
X133987895Y-137062394D01*
X133987895Y-137062393D01*
X133905149Y-136899998D01*
X133887815Y-136865978D01*
X133837848Y-136797204D01*
X133758247Y-136687641D01*
X133758243Y-136687636D01*
X133602363Y-136531756D01*
X133602358Y-136531752D01*
X133424025Y-136402187D01*
X133424024Y-136402186D01*
X133424022Y-136402185D01*
X133335908Y-136357288D01*
X133227606Y-136302104D01*
X133227603Y-136302103D01*
X133017952Y-136233985D01*
X132866516Y-136210000D01*
X132800222Y-136199500D01*
X132579778Y-136199500D01*
X132513484Y-136210000D01*
X132362047Y-136233985D01*
X132152396Y-136302103D01*
X132152393Y-136302104D01*
X131955974Y-136402187D01*
X131777641Y-136531752D01*
X131777636Y-136531756D01*
X131621756Y-136687636D01*
X131621752Y-136687641D01*
X131492187Y-136865974D01*
X131392104Y-137062393D01*
X131392103Y-137062396D01*
X131323985Y-137272047D01*
X131289500Y-137489778D01*
X130280500Y-137489778D01*
X130246015Y-137272049D01*
X130177895Y-137062394D01*
X130177895Y-137062393D01*
X130095149Y-136899998D01*
X130077815Y-136865978D01*
X130027848Y-136797204D01*
X129948247Y-136687641D01*
X129948243Y-136687636D01*
X129792363Y-136531756D01*
X129792358Y-136531752D01*
X129614025Y-136402187D01*
X129614024Y-136402186D01*
X129614022Y-136402185D01*
X129525908Y-136357288D01*
X129417606Y-136302104D01*
X129417603Y-136302103D01*
X129207952Y-136233985D01*
X129056516Y-136210000D01*
X128990222Y-136199500D01*
X128769778Y-136199500D01*
X128703484Y-136210000D01*
X128552047Y-136233985D01*
X128342396Y-136302103D01*
X128342393Y-136302104D01*
X128145974Y-136402187D01*
X127967641Y-136531752D01*
X127967636Y-136531756D01*
X127811756Y-136687636D01*
X127811752Y-136687641D01*
X127682187Y-136865974D01*
X127582104Y-137062393D01*
X127582103Y-137062396D01*
X127513985Y-137272047D01*
X127479500Y-137489778D01*
X126470500Y-137489778D01*
X126436015Y-137272049D01*
X126367895Y-137062394D01*
X126367895Y-137062393D01*
X126285149Y-136899998D01*
X126267815Y-136865978D01*
X126217848Y-136797204D01*
X126138247Y-136687641D01*
X126138243Y-136687636D01*
X125982363Y-136531756D01*
X125982358Y-136531752D01*
X125804025Y-136402187D01*
X125804024Y-136402186D01*
X125804022Y-136402185D01*
X125715908Y-136357288D01*
X125607606Y-136302104D01*
X125607603Y-136302103D01*
X125397952Y-136233985D01*
X125246516Y-136210000D01*
X125180222Y-136199500D01*
X124959778Y-136199500D01*
X124893484Y-136210000D01*
X124742047Y-136233985D01*
X124532396Y-136302103D01*
X124532393Y-136302104D01*
X124335974Y-136402187D01*
X124157641Y-136531752D01*
X124157636Y-136531756D01*
X124001756Y-136687636D01*
X124001752Y-136687641D01*
X123872187Y-136865974D01*
X123772104Y-137062393D01*
X123772103Y-137062396D01*
X123703985Y-137272047D01*
X123669500Y-137489778D01*
X122660500Y-137489778D01*
X122626015Y-137272049D01*
X122557895Y-137062394D01*
X122557895Y-137062393D01*
X122475149Y-136899998D01*
X122457815Y-136865978D01*
X122407848Y-136797204D01*
X122328247Y-136687641D01*
X122328243Y-136687636D01*
X122172363Y-136531756D01*
X122172358Y-136531752D01*
X121994025Y-136402187D01*
X121994024Y-136402186D01*
X121994022Y-136402185D01*
X121905908Y-136357288D01*
X121797606Y-136302104D01*
X121797603Y-136302103D01*
X121587952Y-136233985D01*
X121436516Y-136210000D01*
X121370222Y-136199500D01*
X121149778Y-136199500D01*
X121083484Y-136210000D01*
X120932047Y-136233985D01*
X120722396Y-136302103D01*
X120722393Y-136302104D01*
X120525974Y-136402187D01*
X120347641Y-136531752D01*
X120347636Y-136531756D01*
X120191756Y-136687636D01*
X120191752Y-136687641D01*
X120062187Y-136865974D01*
X119962104Y-137062393D01*
X119962103Y-137062396D01*
X119893985Y-137272047D01*
X119859500Y-137489778D01*
X118850500Y-137489778D01*
X118816015Y-137272049D01*
X118747895Y-137062394D01*
X118747895Y-137062393D01*
X118665149Y-136899998D01*
X118647815Y-136865978D01*
X118597848Y-136797204D01*
X118518247Y-136687641D01*
X118518243Y-136687636D01*
X118362363Y-136531756D01*
X118362358Y-136531752D01*
X118184025Y-136402187D01*
X118184024Y-136402186D01*
X118184022Y-136402185D01*
X118095908Y-136357288D01*
X117987606Y-136302104D01*
X117987603Y-136302103D01*
X117777952Y-136233985D01*
X117626516Y-136210000D01*
X117560222Y-136199500D01*
X117339778Y-136199500D01*
X117273484Y-136210000D01*
X117122047Y-136233985D01*
X116912396Y-136302103D01*
X116912393Y-136302104D01*
X116715974Y-136402187D01*
X116537641Y-136531752D01*
X116537636Y-136531756D01*
X116381756Y-136687636D01*
X116381752Y-136687641D01*
X116252187Y-136865974D01*
X116152104Y-137062393D01*
X116152103Y-137062396D01*
X116083985Y-137272047D01*
X116049500Y-137489778D01*
X115040500Y-137489778D01*
X115006015Y-137272049D01*
X114937895Y-137062394D01*
X114937895Y-137062393D01*
X114855149Y-136899998D01*
X114837815Y-136865978D01*
X114787848Y-136797204D01*
X114708247Y-136687641D01*
X114708243Y-136687636D01*
X114552363Y-136531756D01*
X114552358Y-136531752D01*
X114374025Y-136402187D01*
X114374024Y-136402186D01*
X114374022Y-136402185D01*
X114285908Y-136357288D01*
X114177606Y-136302104D01*
X114177603Y-136302103D01*
X113967952Y-136233985D01*
X113816516Y-136210000D01*
X113750222Y-136199500D01*
X113529778Y-136199500D01*
X113463484Y-136210000D01*
X113312047Y-136233985D01*
X113102396Y-136302103D01*
X113102393Y-136302104D01*
X112905974Y-136402187D01*
X112727641Y-136531752D01*
X112727636Y-136531756D01*
X112571756Y-136687636D01*
X112571752Y-136687641D01*
X112442187Y-136865974D01*
X112342104Y-137062393D01*
X112342103Y-137062396D01*
X112273985Y-137272047D01*
X112239500Y-137489778D01*
X111230500Y-137489778D01*
X111196015Y-137272049D01*
X111127895Y-137062394D01*
X111127895Y-137062393D01*
X111045149Y-136899998D01*
X111027815Y-136865978D01*
X110977848Y-136797204D01*
X110898247Y-136687641D01*
X110898243Y-136687636D01*
X110742363Y-136531756D01*
X110742358Y-136531752D01*
X110564025Y-136402187D01*
X110564024Y-136402186D01*
X110564022Y-136402185D01*
X110475908Y-136357288D01*
X110367606Y-136302104D01*
X110367603Y-136302103D01*
X110157952Y-136233985D01*
X110006516Y-136210000D01*
X109940222Y-136199500D01*
X109719778Y-136199500D01*
X109653484Y-136210000D01*
X109502047Y-136233985D01*
X109292396Y-136302103D01*
X109292393Y-136302104D01*
X109095974Y-136402187D01*
X108917641Y-136531752D01*
X108917636Y-136531756D01*
X108761756Y-136687636D01*
X108761752Y-136687641D01*
X108632187Y-136865974D01*
X108532104Y-137062393D01*
X108532103Y-137062396D01*
X108463985Y-137272047D01*
X108429500Y-137489778D01*
X107420499Y-137489778D01*
X107420499Y-136899992D01*
X107417024Y-136865978D01*
X107409999Y-136797203D01*
X107409998Y-136797200D01*
X107354814Y-136630666D01*
X107262712Y-136481344D01*
X107138656Y-136357288D01*
X106989334Y-136265186D01*
X106822797Y-136210001D01*
X106822795Y-136210000D01*
X106720010Y-136199500D01*
X105319998Y-136199500D01*
X105319981Y-136199501D01*
X105217203Y-136210000D01*
X105217200Y-136210001D01*
X105050668Y-136265185D01*
X105050663Y-136265187D01*
X104901342Y-136357289D01*
X104777289Y-136481342D01*
X104685187Y-136630663D01*
X104685186Y-136630666D01*
X104630001Y-136797203D01*
X104630001Y-136797204D01*
X104630000Y-136797204D01*
X104619500Y-136899983D01*
X102500000Y-136899983D01*
X102500000Y-134750000D01*
X162794355Y-134750000D01*
X162814859Y-134918869D01*
X162814860Y-134918874D01*
X162875182Y-135077931D01*
X162937475Y-135168177D01*
X162971817Y-135217929D01*
X163077505Y-135311560D01*
X163099150Y-135330736D01*
X163249773Y-135409789D01*
X163249775Y-135409790D01*
X163414944Y-135450500D01*
X163585056Y-135450500D01*
X163750225Y-135409790D01*
X163829692Y-135368081D01*
X163900849Y-135330736D01*
X163900850Y-135330734D01*
X163900852Y-135330734D01*
X164028183Y-135217929D01*
X164124818Y-135077930D01*
X164154373Y-135000000D01*
X176544355Y-135000000D01*
X176564859Y-135168869D01*
X176564860Y-135168874D01*
X176625182Y-135327931D01*
X176681686Y-135409789D01*
X176721817Y-135467929D01*
X176827505Y-135561560D01*
X176849150Y-135580736D01*
X176999773Y-135659789D01*
X176999775Y-135659790D01*
X177164944Y-135700500D01*
X177335056Y-135700500D01*
X177500225Y-135659790D01*
X177579692Y-135618081D01*
X177650849Y-135580736D01*
X177650850Y-135580734D01*
X177650852Y-135580734D01*
X177778183Y-135467929D01*
X177874818Y-135327930D01*
X177935140Y-135168872D01*
X177955645Y-135000000D01*
X177935140Y-134831128D01*
X177874818Y-134672070D01*
X177778183Y-134532071D01*
X177650852Y-134419266D01*
X177650849Y-134419263D01*
X177500226Y-134340210D01*
X177335056Y-134299500D01*
X177164944Y-134299500D01*
X176999773Y-134340210D01*
X176849150Y-134419263D01*
X176721816Y-134532072D01*
X176625182Y-134672068D01*
X176564860Y-134831125D01*
X176564859Y-134831130D01*
X176544355Y-135000000D01*
X164154373Y-135000000D01*
X164185140Y-134918872D01*
X164205645Y-134750000D01*
X164185140Y-134581128D01*
X164124818Y-134422070D01*
X164122880Y-134419263D01*
X164090476Y-134372318D01*
X164028183Y-134282071D01*
X163900852Y-134169266D01*
X163900849Y-134169263D01*
X163750226Y-134090210D01*
X163585056Y-134049500D01*
X163414944Y-134049500D01*
X163249773Y-134090210D01*
X163099150Y-134169263D01*
X162971816Y-134282072D01*
X162875182Y-134422068D01*
X162814860Y-134581125D01*
X162814859Y-134581130D01*
X162794355Y-134750000D01*
X102500000Y-134750000D01*
X102500000Y-134000000D01*
X171044355Y-134000000D01*
X171064859Y-134168869D01*
X171064860Y-134168874D01*
X171125182Y-134327931D01*
X171133658Y-134340210D01*
X171221817Y-134467929D01*
X171294219Y-134532071D01*
X171349150Y-134580736D01*
X171499773Y-134659789D01*
X171499775Y-134659790D01*
X171664944Y-134700500D01*
X171835056Y-134700500D01*
X172000225Y-134659790D01*
X172079692Y-134618081D01*
X172150849Y-134580736D01*
X172150850Y-134580734D01*
X172150852Y-134580734D01*
X172278183Y-134467929D01*
X172374818Y-134327930D01*
X172435140Y-134168872D01*
X172455645Y-134000000D01*
X172435140Y-133831128D01*
X172374818Y-133672070D01*
X172278183Y-133532071D01*
X172150852Y-133419266D01*
X172150849Y-133419263D01*
X172000226Y-133340210D01*
X171835056Y-133299500D01*
X171664944Y-133299500D01*
X171499773Y-133340210D01*
X171349150Y-133419263D01*
X171221816Y-133532072D01*
X171125182Y-133672068D01*
X171064860Y-133831125D01*
X171064859Y-133831130D01*
X171044355Y-134000000D01*
X102500000Y-134000000D01*
X102500000Y-125500000D01*
X139294355Y-125500000D01*
X139314859Y-125668869D01*
X139314860Y-125668874D01*
X139375182Y-125827931D01*
X139437475Y-125918177D01*
X139471817Y-125967929D01*
X139577505Y-126061560D01*
X139599150Y-126080736D01*
X139749773Y-126159789D01*
X139749775Y-126159790D01*
X139914944Y-126200500D01*
X140085056Y-126200500D01*
X140250225Y-126159790D01*
X140329692Y-126118081D01*
X140400849Y-126080736D01*
X140400850Y-126080734D01*
X140400852Y-126080734D01*
X140528183Y-125967929D01*
X140624818Y-125827930D01*
X140685140Y-125668872D01*
X140705645Y-125500000D01*
X140685140Y-125331128D01*
X140624818Y-125172070D01*
X140622608Y-125168869D01*
X140590476Y-125122318D01*
X140528183Y-125032071D01*
X140491982Y-125000000D01*
X147294355Y-125000000D01*
X147314859Y-125168869D01*
X147314860Y-125168874D01*
X147375182Y-125327931D01*
X147437475Y-125418177D01*
X147471817Y-125467929D01*
X147577505Y-125561560D01*
X147599150Y-125580736D01*
X147749773Y-125659789D01*
X147749775Y-125659790D01*
X147914944Y-125700500D01*
X148085056Y-125700500D01*
X148250225Y-125659790D01*
X148329692Y-125618081D01*
X148400849Y-125580736D01*
X148400850Y-125580734D01*
X148400852Y-125580734D01*
X148528183Y-125467929D01*
X148624818Y-125327930D01*
X148685140Y-125168872D01*
X148705645Y-125000000D01*
X148685140Y-124831128D01*
X148624818Y-124672070D01*
X148528183Y-124532071D01*
X148400852Y-124419266D01*
X148400849Y-124419263D01*
X148250226Y-124340210D01*
X148085056Y-124299500D01*
X147914944Y-124299500D01*
X147749773Y-124340210D01*
X147599150Y-124419263D01*
X147471816Y-124532072D01*
X147375182Y-124672068D01*
X147314860Y-124831125D01*
X147314859Y-124831130D01*
X147294355Y-125000000D01*
X140491982Y-125000000D01*
X140400852Y-124919266D01*
X140400849Y-124919263D01*
X140250226Y-124840210D01*
X140085056Y-124799500D01*
X139914944Y-124799500D01*
X139749773Y-124840210D01*
X139599150Y-124919263D01*
X139471816Y-125032072D01*
X139375182Y-125172068D01*
X139314860Y-125331125D01*
X139314859Y-125331130D01*
X139294355Y-125500000D01*
X102500000Y-125500000D01*
X102500000Y-123750000D01*
X162544355Y-123750000D01*
X162564859Y-123918869D01*
X162564860Y-123918874D01*
X162625182Y-124077931D01*
X162687475Y-124168177D01*
X162721817Y-124217929D01*
X162813892Y-124299500D01*
X162849150Y-124330736D01*
X162999773Y-124409789D01*
X162999775Y-124409790D01*
X163164944Y-124450500D01*
X163335056Y-124450500D01*
X163500225Y-124409790D01*
X163579692Y-124368081D01*
X163650849Y-124330736D01*
X163650850Y-124330734D01*
X163650852Y-124330734D01*
X163778183Y-124217929D01*
X163874818Y-124077930D01*
X163935140Y-123918872D01*
X163955645Y-123750000D01*
X163935140Y-123581128D01*
X163874818Y-123422070D01*
X163872608Y-123418869D01*
X163840476Y-123372318D01*
X163778183Y-123282071D01*
X163741982Y-123250000D01*
X173794355Y-123250000D01*
X173814859Y-123418869D01*
X173814860Y-123418874D01*
X173875182Y-123577931D01*
X173937475Y-123668177D01*
X173971817Y-123717929D01*
X174077505Y-123811560D01*
X174099150Y-123830736D01*
X174249773Y-123909789D01*
X174249775Y-123909790D01*
X174414944Y-123950500D01*
X174585056Y-123950500D01*
X174750225Y-123909790D01*
X174829692Y-123868081D01*
X174900849Y-123830736D01*
X174900850Y-123830734D01*
X174900852Y-123830734D01*
X175028183Y-123717929D01*
X175124818Y-123577930D01*
X175185140Y-123418872D01*
X175205645Y-123250000D01*
X175185140Y-123081128D01*
X175124818Y-122922070D01*
X175028183Y-122782071D01*
X174900852Y-122669266D01*
X174900849Y-122669263D01*
X174750226Y-122590210D01*
X174585056Y-122549500D01*
X174414944Y-122549500D01*
X174249773Y-122590210D01*
X174099150Y-122669263D01*
X173971816Y-122782072D01*
X173875182Y-122922068D01*
X173814860Y-123081125D01*
X173814859Y-123081130D01*
X173794355Y-123250000D01*
X163741982Y-123250000D01*
X163650852Y-123169266D01*
X163650849Y-123169263D01*
X163500226Y-123090210D01*
X163335056Y-123049500D01*
X163164944Y-123049500D01*
X162999773Y-123090210D01*
X162849150Y-123169263D01*
X162721816Y-123282072D01*
X162625182Y-123422068D01*
X162564860Y-123581125D01*
X162564859Y-123581130D01*
X162544355Y-123750000D01*
X102500000Y-123750000D01*
X102500000Y-122059870D01*
X135354225Y-122059870D01*
X135374729Y-122228739D01*
X135374730Y-122228744D01*
X135435052Y-122387801D01*
X135497345Y-122478047D01*
X135531687Y-122527799D01*
X135602135Y-122590210D01*
X135659020Y-122640606D01*
X135809643Y-122719659D01*
X135809645Y-122719660D01*
X135974814Y-122760370D01*
X136144926Y-122760370D01*
X136310095Y-122719660D01*
X136406112Y-122669266D01*
X136460719Y-122640606D01*
X136460720Y-122640604D01*
X136460722Y-122640604D01*
X136588053Y-122527799D01*
X136607243Y-122499998D01*
X157014058Y-122499998D01*
X157014058Y-122500001D01*
X157034695Y-122656760D01*
X157034696Y-122656762D01*
X157095204Y-122802841D01*
X157191458Y-122928282D01*
X157316899Y-123024536D01*
X157462978Y-123085044D01*
X157502218Y-123090210D01*
X157619739Y-123105682D01*
X157619740Y-123105682D01*
X157619741Y-123105682D01*
X157671994Y-123098802D01*
X157776502Y-123085044D01*
X157922581Y-123024536D01*
X158048022Y-122928282D01*
X158144276Y-122802841D01*
X158204784Y-122656762D01*
X158221762Y-122527799D01*
X158225422Y-122500001D01*
X158225422Y-122499998D01*
X158204784Y-122343239D01*
X158204784Y-122343238D01*
X158144276Y-122197159D01*
X158048022Y-122071718D01*
X157922581Y-121975464D01*
X157776502Y-121914956D01*
X157776500Y-121914955D01*
X157619741Y-121894318D01*
X157619739Y-121894318D01*
X157462979Y-121914955D01*
X157462977Y-121914956D01*
X157316900Y-121975463D01*
X157191458Y-122071718D01*
X157095203Y-122197160D01*
X157034696Y-122343237D01*
X157034695Y-122343239D01*
X157014058Y-122499998D01*
X136607243Y-122499998D01*
X136684688Y-122387800D01*
X136745010Y-122228742D01*
X136765515Y-122059870D01*
X136745010Y-121890998D01*
X136684688Y-121731940D01*
X136588053Y-121591941D01*
X136460722Y-121479136D01*
X136460719Y-121479133D01*
X136310096Y-121400080D01*
X136144926Y-121359370D01*
X135974814Y-121359370D01*
X135809643Y-121400080D01*
X135659020Y-121479133D01*
X135531686Y-121591942D01*
X135435052Y-121731938D01*
X135374730Y-121890995D01*
X135374729Y-121891000D01*
X135354225Y-122059870D01*
X102500000Y-122059870D01*
X102500000Y-120700000D01*
X142914095Y-120700000D01*
X142934599Y-120868869D01*
X142934600Y-120868874D01*
X142994922Y-121027931D01*
X143057215Y-121118177D01*
X143091557Y-121167929D01*
X143197245Y-121261560D01*
X143218890Y-121280736D01*
X143368715Y-121359370D01*
X143369515Y-121359790D01*
X143534684Y-121400500D01*
X143704796Y-121400500D01*
X143869965Y-121359790D01*
X143949432Y-121318081D01*
X144020589Y-121280736D01*
X144020590Y-121280734D01*
X144020592Y-121280734D01*
X144147923Y-121167929D01*
X144244558Y-121027930D01*
X144304880Y-120868872D01*
X144325385Y-120700000D01*
X144304880Y-120531128D01*
X144293075Y-120500000D01*
X174794355Y-120500000D01*
X174814859Y-120668869D01*
X174814860Y-120668874D01*
X174875182Y-120827931D01*
X174937475Y-120918177D01*
X174971817Y-120967929D01*
X175039546Y-121027931D01*
X175099150Y-121080736D01*
X175249773Y-121159789D01*
X175249775Y-121159790D01*
X175414944Y-121200500D01*
X175585056Y-121200500D01*
X175750225Y-121159790D01*
X175829692Y-121118081D01*
X175900849Y-121080736D01*
X175900850Y-121080734D01*
X175900852Y-121080734D01*
X176028183Y-120967929D01*
X176124818Y-120827930D01*
X176185140Y-120668872D01*
X176205645Y-120500000D01*
X176185140Y-120331128D01*
X176124818Y-120172070D01*
X176028183Y-120032071D01*
X175900852Y-119919266D01*
X175900849Y-119919263D01*
X175750226Y-119840210D01*
X175585056Y-119799500D01*
X175414944Y-119799500D01*
X175249773Y-119840210D01*
X175099150Y-119919263D01*
X174971816Y-120032072D01*
X174875182Y-120172068D01*
X174814860Y-120331125D01*
X174814859Y-120331130D01*
X174794355Y-120500000D01*
X144293075Y-120500000D01*
X144244558Y-120372070D01*
X144147923Y-120232071D01*
X144020592Y-120119266D01*
X144020589Y-120119263D01*
X143869966Y-120040210D01*
X143704796Y-119999500D01*
X143534684Y-119999500D01*
X143369513Y-120040210D01*
X143218890Y-120119263D01*
X143091556Y-120232072D01*
X142994922Y-120372068D01*
X142934600Y-120531125D01*
X142934599Y-120531130D01*
X142914095Y-120700000D01*
X102500000Y-120700000D01*
X102500000Y-119500000D01*
X150544355Y-119500000D01*
X150564859Y-119668869D01*
X150564860Y-119668874D01*
X150625182Y-119827931D01*
X150633658Y-119840210D01*
X150721817Y-119967929D01*
X150794219Y-120032071D01*
X150849150Y-120080736D01*
X150999773Y-120159789D01*
X150999775Y-120159790D01*
X151164944Y-120200500D01*
X151335056Y-120200500D01*
X151500225Y-120159790D01*
X151579692Y-120118081D01*
X151650849Y-120080736D01*
X151650850Y-120080734D01*
X151650852Y-120080734D01*
X151778183Y-119967929D01*
X151874818Y-119827930D01*
X151935140Y-119668872D01*
X151955645Y-119500000D01*
X151935140Y-119331128D01*
X151874818Y-119172070D01*
X151778183Y-119032071D01*
X151650852Y-118919266D01*
X151650849Y-118919263D01*
X151500226Y-118840210D01*
X151335056Y-118799500D01*
X151164944Y-118799500D01*
X150999773Y-118840210D01*
X150849150Y-118919263D01*
X150721816Y-119032072D01*
X150625182Y-119172068D01*
X150564860Y-119331125D01*
X150564859Y-119331130D01*
X150544355Y-119500000D01*
X102500000Y-119500000D01*
X102500000Y-117100000D01*
X165914095Y-117100000D01*
X165934599Y-117268869D01*
X165934600Y-117268874D01*
X165994922Y-117427931D01*
X166057215Y-117518177D01*
X166091557Y-117567929D01*
X166197245Y-117661560D01*
X166218890Y-117680736D01*
X166369513Y-117759789D01*
X166369515Y-117759790D01*
X166534684Y-117800500D01*
X166704796Y-117800500D01*
X166869965Y-117759790D01*
X166949432Y-117718081D01*
X167020589Y-117680736D01*
X167020590Y-117680734D01*
X167020592Y-117680734D01*
X167147923Y-117567929D01*
X167244558Y-117427930D01*
X167304880Y-117268872D01*
X167325385Y-117100000D01*
X167304880Y-116931128D01*
X167244558Y-116772070D01*
X167147923Y-116632071D01*
X167020592Y-116519266D01*
X167020589Y-116519263D01*
X166869966Y-116440210D01*
X166704796Y-116399500D01*
X166534684Y-116399500D01*
X166369513Y-116440210D01*
X166218890Y-116519263D01*
X166091556Y-116632072D01*
X165994922Y-116772068D01*
X165934600Y-116931125D01*
X165934599Y-116931130D01*
X165914095Y-117100000D01*
X102500000Y-117100000D01*
X102500000Y-109881153D01*
X103159500Y-109881153D01*
X103159500Y-110038846D01*
X103190261Y-110193489D01*
X103190264Y-110193501D01*
X103250602Y-110339172D01*
X103250609Y-110339185D01*
X103338210Y-110470288D01*
X103338213Y-110470292D01*
X103449707Y-110581786D01*
X103449711Y-110581789D01*
X103580814Y-110669390D01*
X103580827Y-110669397D01*
X103726498Y-110729735D01*
X103726503Y-110729737D01*
X103881153Y-110760499D01*
X103881156Y-110760500D01*
X103881158Y-110760500D01*
X104038844Y-110760500D01*
X104038845Y-110760499D01*
X104193497Y-110729737D01*
X104339179Y-110669394D01*
X104470289Y-110581789D01*
X104581789Y-110470289D01*
X104656595Y-110358334D01*
X104672779Y-110334114D01*
X104675145Y-110335695D01*
X104715530Y-110294526D01*
X104783657Y-110279019D01*
X104849353Y-110302805D01*
X104891760Y-110358334D01*
X104900000Y-110402782D01*
X104900000Y-111107844D01*
X104906401Y-111167372D01*
X104906403Y-111167379D01*
X104956645Y-111302086D01*
X104956649Y-111302093D01*
X105042809Y-111417187D01*
X105042812Y-111417190D01*
X105119366Y-111474499D01*
X105161237Y-111530433D01*
X105166221Y-111600124D01*
X105150783Y-111638555D01*
X105069531Y-111771145D01*
X104973126Y-112003889D01*
X104932997Y-112171043D01*
X104898206Y-112231635D01*
X104836180Y-112263799D01*
X104766611Y-112257323D01*
X104711587Y-112214263D01*
X104697862Y-112189548D01*
X104669397Y-112120827D01*
X104669390Y-112120814D01*
X104581789Y-111989711D01*
X104581786Y-111989707D01*
X104470292Y-111878213D01*
X104470288Y-111878210D01*
X104339185Y-111790609D01*
X104339172Y-111790602D01*
X104193501Y-111730264D01*
X104193489Y-111730261D01*
X104038845Y-111699500D01*
X104038842Y-111699500D01*
X103881158Y-111699500D01*
X103881155Y-111699500D01*
X103726510Y-111730261D01*
X103726498Y-111730264D01*
X103580827Y-111790602D01*
X103580814Y-111790609D01*
X103449711Y-111878210D01*
X103449707Y-111878213D01*
X103338213Y-111989707D01*
X103338210Y-111989711D01*
X103250609Y-112120814D01*
X103250602Y-112120827D01*
X103190264Y-112266498D01*
X103190261Y-112266510D01*
X103159500Y-112421153D01*
X103159500Y-112578846D01*
X103190261Y-112733489D01*
X103190264Y-112733501D01*
X103250602Y-112879172D01*
X103250609Y-112879185D01*
X103338210Y-113010288D01*
X103338213Y-113010292D01*
X103449707Y-113121786D01*
X103449711Y-113121789D01*
X103580814Y-113209390D01*
X103580827Y-113209397D01*
X103726498Y-113269735D01*
X103726503Y-113269737D01*
X103881153Y-113300499D01*
X103881156Y-113300500D01*
X103881158Y-113300500D01*
X104038844Y-113300500D01*
X104038845Y-113300499D01*
X104193497Y-113269737D01*
X104339179Y-113209394D01*
X104470289Y-113121789D01*
X104581789Y-113010289D01*
X104669394Y-112879179D01*
X104669395Y-112879176D01*
X104669397Y-112879173D01*
X104697862Y-112810451D01*
X104741702Y-112756047D01*
X104807996Y-112733982D01*
X104875696Y-112751261D01*
X104923307Y-112802398D01*
X104932997Y-112828956D01*
X104973126Y-112996110D01*
X105069533Y-113228859D01*
X105201160Y-113443653D01*
X105201161Y-113443656D01*
X105201164Y-113443659D01*
X105364776Y-113635224D01*
X105404169Y-113668869D01*
X105412179Y-113675710D01*
X105450372Y-113734217D01*
X105450870Y-113804085D01*
X105413516Y-113863131D01*
X105412179Y-113864290D01*
X105364776Y-113904776D01*
X105201161Y-114096343D01*
X105201160Y-114096346D01*
X105069533Y-114311140D01*
X104973126Y-114543889D01*
X104932997Y-114711043D01*
X104898206Y-114771635D01*
X104836180Y-114803799D01*
X104766611Y-114797323D01*
X104711587Y-114754263D01*
X104697862Y-114729548D01*
X104669397Y-114660827D01*
X104669390Y-114660814D01*
X104581789Y-114529711D01*
X104581786Y-114529707D01*
X104470292Y-114418213D01*
X104470288Y-114418210D01*
X104339185Y-114330609D01*
X104339172Y-114330602D01*
X104193501Y-114270264D01*
X104193489Y-114270261D01*
X104038845Y-114239500D01*
X104038842Y-114239500D01*
X103881158Y-114239500D01*
X103881155Y-114239500D01*
X103726510Y-114270261D01*
X103726498Y-114270264D01*
X103580827Y-114330602D01*
X103580814Y-114330609D01*
X103449711Y-114418210D01*
X103449707Y-114418213D01*
X103338213Y-114529707D01*
X103338210Y-114529711D01*
X103250609Y-114660814D01*
X103250602Y-114660827D01*
X103190264Y-114806498D01*
X103190261Y-114806510D01*
X103159500Y-114961153D01*
X103159500Y-115118846D01*
X103190261Y-115273489D01*
X103190264Y-115273501D01*
X103250602Y-115419172D01*
X103250609Y-115419185D01*
X103338210Y-115550288D01*
X103338213Y-115550292D01*
X103449707Y-115661786D01*
X103449711Y-115661789D01*
X103580814Y-115749390D01*
X103580827Y-115749397D01*
X103726498Y-115809735D01*
X103726503Y-115809737D01*
X103881153Y-115840499D01*
X103881156Y-115840500D01*
X103881158Y-115840500D01*
X104038844Y-115840500D01*
X104038845Y-115840499D01*
X104193497Y-115809737D01*
X104339179Y-115749394D01*
X104470289Y-115661789D01*
X104581789Y-115550289D01*
X104669394Y-115419179D01*
X104669395Y-115419176D01*
X104669397Y-115419173D01*
X104697862Y-115350451D01*
X104741702Y-115296047D01*
X104807996Y-115273982D01*
X104875696Y-115291261D01*
X104923307Y-115342398D01*
X104932997Y-115368956D01*
X104973126Y-115536110D01*
X105069533Y-115768859D01*
X105201160Y-115983653D01*
X105201161Y-115983656D01*
X105201164Y-115983659D01*
X105364776Y-116175224D01*
X105513066Y-116301875D01*
X105556343Y-116338838D01*
X105556346Y-116338839D01*
X105771140Y-116470466D01*
X105888955Y-116519266D01*
X106003889Y-116566873D01*
X106248852Y-116625683D01*
X106500000Y-116645449D01*
X106751148Y-116625683D01*
X106996111Y-116566873D01*
X107228859Y-116470466D01*
X107443659Y-116338836D01*
X107635224Y-116175224D01*
X107798836Y-115983659D01*
X107930466Y-115768859D01*
X108026873Y-115536111D01*
X108085683Y-115291148D01*
X108105449Y-115040000D01*
X108085683Y-114788852D01*
X108064352Y-114700000D01*
X139914095Y-114700000D01*
X139934599Y-114868869D01*
X139934600Y-114868874D01*
X139994922Y-115027931D01*
X140003253Y-115040000D01*
X140091557Y-115167929D01*
X140197245Y-115261560D01*
X140218890Y-115280736D01*
X140351721Y-115350451D01*
X140369515Y-115359790D01*
X140534684Y-115400500D01*
X140704796Y-115400500D01*
X140869965Y-115359790D01*
X141000535Y-115291261D01*
X141020589Y-115280736D01*
X141020590Y-115280734D01*
X141020592Y-115280734D01*
X141147923Y-115167929D01*
X141244558Y-115027930D01*
X141304880Y-114868872D01*
X141325385Y-114700000D01*
X141304880Y-114531128D01*
X141244558Y-114372070D01*
X141147923Y-114232071D01*
X141020592Y-114119266D01*
X141020589Y-114119263D01*
X140869966Y-114040210D01*
X140704796Y-113999500D01*
X140534684Y-113999500D01*
X140369513Y-114040210D01*
X140218890Y-114119263D01*
X140091556Y-114232072D01*
X139994922Y-114372068D01*
X139934600Y-114531125D01*
X139934599Y-114531130D01*
X139914095Y-114700000D01*
X108064352Y-114700000D01*
X108026873Y-114543889D01*
X107930466Y-114311141D01*
X107930466Y-114311140D01*
X107798839Y-114096346D01*
X107798838Y-114096343D01*
X107635224Y-113904776D01*
X107587819Y-113864289D01*
X107549627Y-113805784D01*
X107549128Y-113735916D01*
X107586482Y-113676870D01*
X107587756Y-113675764D01*
X107635224Y-113635224D01*
X107750716Y-113500000D01*
X145414095Y-113500000D01*
X145434599Y-113668869D01*
X145434600Y-113668874D01*
X145494922Y-113827931D01*
X145520020Y-113864291D01*
X145591557Y-113967929D01*
X145673146Y-114040210D01*
X145718890Y-114080736D01*
X145869513Y-114159789D01*
X145869515Y-114159790D01*
X146034684Y-114200500D01*
X146204796Y-114200500D01*
X146369965Y-114159790D01*
X146449432Y-114118081D01*
X146520589Y-114080736D01*
X146520590Y-114080734D01*
X146520592Y-114080734D01*
X146647923Y-113967929D01*
X146744558Y-113827930D01*
X146804880Y-113668872D01*
X146825385Y-113500000D01*
X146811140Y-113382684D01*
X147329790Y-113382684D01*
X147350294Y-113551553D01*
X147350295Y-113551558D01*
X147410617Y-113710615D01*
X147451608Y-113770000D01*
X147507252Y-113850613D01*
X147568390Y-113904776D01*
X147634585Y-113963420D01*
X147780896Y-114040210D01*
X147785210Y-114042474D01*
X147950379Y-114083184D01*
X148120491Y-114083184D01*
X148285660Y-114042474D01*
X148367539Y-113999500D01*
X148436284Y-113963420D01*
X148436285Y-113963418D01*
X148436287Y-113963418D01*
X148563618Y-113850613D01*
X148660253Y-113710614D01*
X148720575Y-113551556D01*
X148741080Y-113382684D01*
X148720575Y-113213812D01*
X148718899Y-113209394D01*
X148685676Y-113121789D01*
X148660253Y-113054754D01*
X148563618Y-112914755D01*
X148436287Y-112801950D01*
X148436284Y-112801947D01*
X148285661Y-112722894D01*
X148120491Y-112682184D01*
X147950379Y-112682184D01*
X147785208Y-112722894D01*
X147634585Y-112801947D01*
X147507251Y-112914756D01*
X147410617Y-113054752D01*
X147350295Y-113213809D01*
X147350294Y-113213814D01*
X147329790Y-113382684D01*
X146811140Y-113382684D01*
X146804880Y-113331128D01*
X146793264Y-113300500D01*
X146744557Y-113172068D01*
X146663580Y-113054754D01*
X146647923Y-113032071D01*
X146520592Y-112919266D01*
X146520589Y-112919263D01*
X146369966Y-112840210D01*
X146204796Y-112799500D01*
X146034684Y-112799500D01*
X145869513Y-112840210D01*
X145718890Y-112919263D01*
X145591556Y-113032072D01*
X145494922Y-113172068D01*
X145434600Y-113331125D01*
X145434599Y-113331130D01*
X145414095Y-113500000D01*
X107750716Y-113500000D01*
X107798836Y-113443659D01*
X107930466Y-113228859D01*
X108026873Y-112996111D01*
X108085683Y-112751148D01*
X108105449Y-112500000D01*
X108085683Y-112248852D01*
X108026873Y-112003889D01*
X107930466Y-111771141D01*
X107930466Y-111771140D01*
X107849217Y-111638555D01*
X107830972Y-111571110D01*
X107852088Y-111504507D01*
X107856375Y-111500000D01*
X137914095Y-111500000D01*
X137934599Y-111668869D01*
X137934600Y-111668874D01*
X137994922Y-111827931D01*
X138029630Y-111878213D01*
X138091557Y-111967929D01*
X138132148Y-112003889D01*
X138218890Y-112080736D01*
X138369513Y-112159789D01*
X138369515Y-112159790D01*
X138534684Y-112200500D01*
X138704796Y-112200500D01*
X138869965Y-112159790D01*
X138949432Y-112118081D01*
X139020589Y-112080736D01*
X139020590Y-112080734D01*
X139020592Y-112080734D01*
X139147923Y-111967929D01*
X139244558Y-111827930D01*
X139304880Y-111668872D01*
X139325385Y-111500000D01*
X157794355Y-111500000D01*
X157814859Y-111668869D01*
X157814860Y-111668874D01*
X157875182Y-111827931D01*
X157909890Y-111878213D01*
X157971817Y-111967929D01*
X158012408Y-112003889D01*
X158099150Y-112080736D01*
X158249773Y-112159789D01*
X158249775Y-112159790D01*
X158414944Y-112200500D01*
X158585056Y-112200500D01*
X158750225Y-112159790D01*
X158829692Y-112118081D01*
X158900849Y-112080736D01*
X158900850Y-112080734D01*
X158900852Y-112080734D01*
X159028183Y-111967929D01*
X159124818Y-111827930D01*
X159185140Y-111668872D01*
X159205645Y-111500000D01*
X159185140Y-111331128D01*
X159124818Y-111172070D01*
X159121575Y-111167372D01*
X159054042Y-111069534D01*
X159028183Y-111032071D01*
X158900852Y-110919266D01*
X158900849Y-110919263D01*
X158750226Y-110840210D01*
X158585056Y-110799500D01*
X158414944Y-110799500D01*
X158249773Y-110840210D01*
X158099150Y-110919263D01*
X157971816Y-111032072D01*
X157875182Y-111172068D01*
X157814860Y-111331125D01*
X157814859Y-111331130D01*
X157794355Y-111500000D01*
X139325385Y-111500000D01*
X139304880Y-111331128D01*
X139244558Y-111172070D01*
X139241315Y-111167372D01*
X139173782Y-111069534D01*
X139147923Y-111032071D01*
X139020592Y-110919266D01*
X139020589Y-110919263D01*
X138869966Y-110840210D01*
X138704796Y-110799500D01*
X138534684Y-110799500D01*
X138369513Y-110840210D01*
X138218890Y-110919263D01*
X138091556Y-111032072D01*
X137994922Y-111172068D01*
X137934600Y-111331125D01*
X137934599Y-111331130D01*
X137914095Y-111500000D01*
X107856375Y-111500000D01*
X107880633Y-111474498D01*
X107957190Y-111417186D01*
X108043350Y-111302093D01*
X108043354Y-111302086D01*
X108093596Y-111167379D01*
X108093598Y-111167372D01*
X108099999Y-111107844D01*
X108100000Y-111107827D01*
X108100000Y-110210000D01*
X106990748Y-110210000D01*
X107012518Y-110172292D01*
X107050000Y-110032409D01*
X107050000Y-109887591D01*
X107012518Y-109747708D01*
X106990748Y-109710000D01*
X108100000Y-109710000D01*
X108100000Y-108812172D01*
X108099999Y-108812155D01*
X108093598Y-108752627D01*
X108093596Y-108752620D01*
X108043354Y-108617913D01*
X108043350Y-108617906D01*
X107957190Y-108502812D01*
X107957187Y-108502809D01*
X107842093Y-108416649D01*
X107842086Y-108416645D01*
X107707379Y-108366403D01*
X107707372Y-108366401D01*
X107647844Y-108360000D01*
X106750000Y-108360000D01*
X106750000Y-109469252D01*
X106712292Y-109447482D01*
X106572409Y-109410000D01*
X106427591Y-109410000D01*
X106287708Y-109447482D01*
X106250000Y-109469252D01*
X106250000Y-108360000D01*
X105352155Y-108360000D01*
X105292627Y-108366401D01*
X105292620Y-108366403D01*
X105157913Y-108416645D01*
X105157906Y-108416649D01*
X105042812Y-108502809D01*
X105042809Y-108502812D01*
X104956649Y-108617906D01*
X104956645Y-108617913D01*
X104906403Y-108752620D01*
X104906401Y-108752627D01*
X104900000Y-108812155D01*
X104900000Y-109517217D01*
X104880315Y-109584256D01*
X104827511Y-109630011D01*
X104758353Y-109639955D01*
X104694797Y-109610930D01*
X104674079Y-109585016D01*
X104672779Y-109585886D01*
X104581789Y-109449711D01*
X104581786Y-109449707D01*
X104470292Y-109338213D01*
X104470288Y-109338210D01*
X104339185Y-109250609D01*
X104339172Y-109250602D01*
X104193501Y-109190264D01*
X104193489Y-109190261D01*
X104038845Y-109159500D01*
X104038842Y-109159500D01*
X103881158Y-109159500D01*
X103881155Y-109159500D01*
X103726510Y-109190261D01*
X103726498Y-109190264D01*
X103580827Y-109250602D01*
X103580814Y-109250609D01*
X103449711Y-109338210D01*
X103449707Y-109338213D01*
X103338213Y-109449707D01*
X103338210Y-109449711D01*
X103250609Y-109580814D01*
X103250602Y-109580827D01*
X103190264Y-109726498D01*
X103190261Y-109726510D01*
X103159500Y-109881153D01*
X102500000Y-109881153D01*
X102500000Y-108300000D01*
X154914095Y-108300000D01*
X154934599Y-108468869D01*
X154934600Y-108468874D01*
X154994922Y-108627931D01*
X155057215Y-108718177D01*
X155091557Y-108767929D01*
X155197245Y-108861560D01*
X155218890Y-108880736D01*
X155369513Y-108959789D01*
X155369515Y-108959790D01*
X155534684Y-109000500D01*
X155704796Y-109000500D01*
X155869965Y-108959790D01*
X155949432Y-108918081D01*
X156020589Y-108880736D01*
X156020590Y-108880734D01*
X156020592Y-108880734D01*
X156147923Y-108767929D01*
X156244558Y-108627930D01*
X156304880Y-108468872D01*
X156325385Y-108300000D01*
X156304880Y-108131128D01*
X156244558Y-107972070D01*
X156147923Y-107832071D01*
X156020592Y-107719266D01*
X156020589Y-107719263D01*
X155869966Y-107640210D01*
X155704796Y-107599500D01*
X155534684Y-107599500D01*
X155369513Y-107640210D01*
X155218890Y-107719263D01*
X155091556Y-107832072D01*
X154994922Y-107972068D01*
X154934600Y-108131125D01*
X154934599Y-108131130D01*
X154914095Y-108300000D01*
X102500000Y-108300000D01*
X102500000Y-107000000D01*
X152294355Y-107000000D01*
X152314859Y-107168869D01*
X152314860Y-107168874D01*
X152375182Y-107327931D01*
X152428413Y-107405048D01*
X152471817Y-107467929D01*
X152577505Y-107561560D01*
X152599150Y-107580736D01*
X152749773Y-107659789D01*
X152749775Y-107659790D01*
X152914944Y-107700500D01*
X153085056Y-107700500D01*
X153250225Y-107659790D01*
X153329692Y-107618081D01*
X153400849Y-107580736D01*
X153400850Y-107580734D01*
X153400852Y-107580734D01*
X153528183Y-107467929D01*
X153624818Y-107327930D01*
X153685140Y-107168872D01*
X153705645Y-107000000D01*
X161414095Y-107000000D01*
X161434599Y-107168869D01*
X161434600Y-107168874D01*
X161494922Y-107327931D01*
X161548153Y-107405048D01*
X161591557Y-107467929D01*
X161697245Y-107561560D01*
X161718890Y-107580736D01*
X161869513Y-107659789D01*
X161869515Y-107659790D01*
X162034684Y-107700500D01*
X162204796Y-107700500D01*
X162369965Y-107659790D01*
X162449432Y-107618081D01*
X162520589Y-107580736D01*
X162520590Y-107580734D01*
X162520592Y-107580734D01*
X162647923Y-107467929D01*
X162744558Y-107327930D01*
X162804880Y-107168872D01*
X162825385Y-107000000D01*
X162804880Y-106831128D01*
X162744558Y-106672070D01*
X162647923Y-106532071D01*
X162520592Y-106419266D01*
X162520589Y-106419263D01*
X162369966Y-106340210D01*
X162204796Y-106299500D01*
X162034684Y-106299500D01*
X161869513Y-106340210D01*
X161718890Y-106419263D01*
X161591556Y-106532072D01*
X161494922Y-106672068D01*
X161434600Y-106831125D01*
X161434599Y-106831130D01*
X161414095Y-107000000D01*
X153705645Y-107000000D01*
X153685140Y-106831128D01*
X153624818Y-106672070D01*
X153528183Y-106532071D01*
X153400852Y-106419266D01*
X153400849Y-106419263D01*
X153250226Y-106340210D01*
X153085056Y-106299500D01*
X152914944Y-106299500D01*
X152749773Y-106340210D01*
X152599150Y-106419263D01*
X152471816Y-106532072D01*
X152375182Y-106672068D01*
X152314860Y-106831125D01*
X152314859Y-106831130D01*
X152294355Y-107000000D01*
X102500000Y-107000000D01*
X102500000Y-99205000D01*
X112294355Y-99205000D01*
X112314859Y-99373869D01*
X112314860Y-99373874D01*
X112375182Y-99532931D01*
X112414289Y-99589586D01*
X112471817Y-99672929D01*
X112577505Y-99766560D01*
X112599150Y-99785736D01*
X112749773Y-99864789D01*
X112749775Y-99864790D01*
X112914944Y-99905500D01*
X113085056Y-99905500D01*
X113250225Y-99864790D01*
X113338125Y-99818656D01*
X113400849Y-99785736D01*
X113400850Y-99785734D01*
X113400852Y-99785734D01*
X113528183Y-99672929D01*
X113624818Y-99532930D01*
X113685140Y-99373872D01*
X113705645Y-99205000D01*
X113685140Y-99036128D01*
X113624818Y-98877070D01*
X113528183Y-98737071D01*
X113430989Y-98650965D01*
X113400849Y-98624263D01*
X113250226Y-98545210D01*
X113085056Y-98504500D01*
X112914944Y-98504500D01*
X112749773Y-98545210D01*
X112599150Y-98624263D01*
X112471816Y-98737072D01*
X112375182Y-98877068D01*
X112314860Y-99036125D01*
X112314859Y-99036130D01*
X112294355Y-99205000D01*
X102500000Y-99205000D01*
X102500000Y-91205000D01*
X110294355Y-91205000D01*
X110314859Y-91373869D01*
X110314860Y-91373874D01*
X110375182Y-91532931D01*
X110408179Y-91580734D01*
X110471817Y-91672929D01*
X110549032Y-91741335D01*
X110599150Y-91785736D01*
X110749773Y-91864789D01*
X110749775Y-91864790D01*
X110914944Y-91905500D01*
X111085056Y-91905500D01*
X111250225Y-91864790D01*
X111329692Y-91823081D01*
X111400849Y-91785736D01*
X111400850Y-91785734D01*
X111400852Y-91785734D01*
X111528183Y-91672929D01*
X111624818Y-91532930D01*
X111685140Y-91373872D01*
X111705645Y-91205000D01*
X111685140Y-91036128D01*
X111624818Y-90877070D01*
X111528183Y-90737071D01*
X111400852Y-90624266D01*
X111400849Y-90624263D01*
X111250226Y-90545210D01*
X111085056Y-90504500D01*
X110914944Y-90504500D01*
X110749773Y-90545210D01*
X110599150Y-90624263D01*
X110471816Y-90737072D01*
X110375182Y-90877068D01*
X110314860Y-91036125D01*
X110314859Y-91036130D01*
X110294355Y-91205000D01*
X102500000Y-91205000D01*
X102500000Y-89664999D01*
X115644341Y-89664999D01*
X115644341Y-89665000D01*
X115664936Y-89900403D01*
X115664938Y-89900413D01*
X115726094Y-90128655D01*
X115726096Y-90128659D01*
X115726097Y-90128663D01*
X115779705Y-90243625D01*
X115825965Y-90342830D01*
X115825967Y-90342834D01*
X115961501Y-90536395D01*
X115961506Y-90536402D01*
X116128597Y-90703493D01*
X116128603Y-90703498D01*
X116314158Y-90833425D01*
X116357783Y-90888002D01*
X116364977Y-90957500D01*
X116333454Y-91019855D01*
X116314158Y-91036575D01*
X116128597Y-91166505D01*
X115961505Y-91333597D01*
X115825965Y-91527169D01*
X115825964Y-91527171D01*
X115726098Y-91741335D01*
X115726094Y-91741344D01*
X115664938Y-91969586D01*
X115664936Y-91969596D01*
X115644341Y-92204999D01*
X115644341Y-92205000D01*
X115664936Y-92440403D01*
X115664938Y-92440413D01*
X115726094Y-92668655D01*
X115726096Y-92668659D01*
X115726097Y-92668663D01*
X115825965Y-92882830D01*
X115825967Y-92882834D01*
X115961501Y-93076395D01*
X115961506Y-93076402D01*
X116128597Y-93243493D01*
X116128603Y-93243498D01*
X116314158Y-93373425D01*
X116357783Y-93428002D01*
X116364977Y-93497500D01*
X116333454Y-93559855D01*
X116314158Y-93576575D01*
X116128597Y-93706505D01*
X115961505Y-93873597D01*
X115825965Y-94067169D01*
X115825964Y-94067171D01*
X115726098Y-94281335D01*
X115726094Y-94281344D01*
X115664938Y-94509586D01*
X115664936Y-94509596D01*
X115644341Y-94744999D01*
X115644341Y-94745000D01*
X115664936Y-94980403D01*
X115664938Y-94980413D01*
X115726094Y-95208655D01*
X115726096Y-95208659D01*
X115726097Y-95208663D01*
X115825965Y-95422830D01*
X115825967Y-95422834D01*
X115961501Y-95616395D01*
X115961506Y-95616402D01*
X116128597Y-95783493D01*
X116128603Y-95783498D01*
X116314158Y-95913425D01*
X116357783Y-95968002D01*
X116364977Y-96037500D01*
X116333454Y-96099855D01*
X116314158Y-96116575D01*
X116128597Y-96246505D01*
X115961505Y-96413597D01*
X115825965Y-96607169D01*
X115825964Y-96607171D01*
X115726098Y-96821335D01*
X115726094Y-96821344D01*
X115664938Y-97049586D01*
X115664936Y-97049596D01*
X115644341Y-97284999D01*
X115644341Y-97285000D01*
X115664936Y-97520403D01*
X115664938Y-97520413D01*
X115726094Y-97748655D01*
X115726096Y-97748659D01*
X115726097Y-97748663D01*
X115764336Y-97830666D01*
X115825965Y-97962830D01*
X115825967Y-97962834D01*
X115961501Y-98156395D01*
X115961506Y-98156402D01*
X116128597Y-98323493D01*
X116128603Y-98323498D01*
X116314158Y-98453425D01*
X116357783Y-98508002D01*
X116364977Y-98577500D01*
X116333454Y-98639855D01*
X116314158Y-98656575D01*
X116128597Y-98786505D01*
X115961505Y-98953597D01*
X115825965Y-99147169D01*
X115825964Y-99147171D01*
X115726098Y-99361335D01*
X115726094Y-99361344D01*
X115664938Y-99589586D01*
X115664936Y-99589596D01*
X115644341Y-99824999D01*
X115644341Y-99825000D01*
X115664936Y-100060403D01*
X115664938Y-100060413D01*
X115726094Y-100288655D01*
X115726096Y-100288659D01*
X115726097Y-100288663D01*
X115809690Y-100467929D01*
X115825965Y-100502830D01*
X115825967Y-100502834D01*
X115961501Y-100696395D01*
X115961506Y-100696402D01*
X116128597Y-100863493D01*
X116128603Y-100863498D01*
X116314158Y-100993425D01*
X116357783Y-101048002D01*
X116364977Y-101117500D01*
X116333454Y-101179855D01*
X116314158Y-101196575D01*
X116128597Y-101326505D01*
X115961505Y-101493597D01*
X115825965Y-101687169D01*
X115825964Y-101687171D01*
X115726098Y-101901335D01*
X115726094Y-101901344D01*
X115664938Y-102129586D01*
X115664936Y-102129596D01*
X115644341Y-102364999D01*
X115644341Y-102365000D01*
X115664936Y-102600403D01*
X115664938Y-102600413D01*
X115726094Y-102828655D01*
X115726096Y-102828659D01*
X115726097Y-102828663D01*
X115825661Y-103042179D01*
X115825965Y-103042830D01*
X115825967Y-103042834D01*
X115961501Y-103236395D01*
X115961506Y-103236402D01*
X116128597Y-103403493D01*
X116128603Y-103403498D01*
X116314158Y-103533425D01*
X116357783Y-103588002D01*
X116364977Y-103657500D01*
X116333454Y-103719855D01*
X116314158Y-103736575D01*
X116128597Y-103866505D01*
X115961505Y-104033597D01*
X115825965Y-104227169D01*
X115825964Y-104227171D01*
X115726098Y-104441335D01*
X115726094Y-104441344D01*
X115664938Y-104669586D01*
X115664936Y-104669596D01*
X115644341Y-104904999D01*
X115644341Y-104905000D01*
X115664936Y-105140403D01*
X115664938Y-105140413D01*
X115726094Y-105368655D01*
X115726096Y-105368659D01*
X115726097Y-105368663D01*
X115824988Y-105580734D01*
X115825965Y-105582830D01*
X115825967Y-105582834D01*
X115908358Y-105700500D01*
X115961505Y-105776401D01*
X116128599Y-105943495D01*
X116225384Y-106011265D01*
X116322165Y-106079032D01*
X116322167Y-106079033D01*
X116322170Y-106079035D01*
X116536337Y-106178903D01*
X116764592Y-106240063D01*
X116952918Y-106256539D01*
X116999999Y-106260659D01*
X117000000Y-106260659D01*
X117000001Y-106260659D01*
X117039234Y-106257226D01*
X117235408Y-106240063D01*
X117463663Y-106178903D01*
X117677830Y-106079035D01*
X117790704Y-106000000D01*
X140914095Y-106000000D01*
X140934599Y-106168869D01*
X140934600Y-106168874D01*
X140994922Y-106327931D01*
X141057215Y-106418177D01*
X141091557Y-106467929D01*
X141163959Y-106532071D01*
X141218890Y-106580736D01*
X141369513Y-106659789D01*
X141369515Y-106659790D01*
X141534684Y-106700500D01*
X141704796Y-106700500D01*
X141869965Y-106659790D01*
X141949432Y-106618081D01*
X142020589Y-106580736D01*
X142020590Y-106580734D01*
X142020592Y-106580734D01*
X142147923Y-106467929D01*
X142244558Y-106327930D01*
X142304880Y-106168872D01*
X142325385Y-106000000D01*
X150044355Y-106000000D01*
X150064859Y-106168869D01*
X150064860Y-106168874D01*
X150125182Y-106327931D01*
X150187475Y-106418177D01*
X150221817Y-106467929D01*
X150294219Y-106532071D01*
X150349150Y-106580736D01*
X150499773Y-106659789D01*
X150499775Y-106659790D01*
X150664944Y-106700500D01*
X150835056Y-106700500D01*
X151000225Y-106659790D01*
X151079692Y-106618081D01*
X151150849Y-106580736D01*
X151150850Y-106580734D01*
X151150852Y-106580734D01*
X151278183Y-106467929D01*
X151374818Y-106327930D01*
X151435140Y-106168872D01*
X151455645Y-106000000D01*
X151435140Y-105831128D01*
X151374818Y-105672070D01*
X151372608Y-105668869D01*
X151313222Y-105582834D01*
X151278183Y-105532071D01*
X151241982Y-105500000D01*
X163794355Y-105500000D01*
X163814859Y-105668869D01*
X163814860Y-105668874D01*
X163875182Y-105827931D01*
X163937475Y-105918177D01*
X163971817Y-105967929D01*
X164077505Y-106061560D01*
X164099150Y-106080736D01*
X164219143Y-106143713D01*
X164249775Y-106159790D01*
X164414944Y-106200500D01*
X164585056Y-106200500D01*
X164750225Y-106159790D01*
X164829692Y-106118081D01*
X164900849Y-106080736D01*
X164900850Y-106080734D01*
X164900852Y-106080734D01*
X165028183Y-105967929D01*
X165124818Y-105827930D01*
X165185140Y-105668872D01*
X165205645Y-105500000D01*
X165185140Y-105331128D01*
X165124818Y-105172070D01*
X165122608Y-105168869D01*
X165090476Y-105122318D01*
X165028183Y-105032071D01*
X164900852Y-104919266D01*
X164900849Y-104919263D01*
X164750226Y-104840210D01*
X164585056Y-104799500D01*
X164414944Y-104799500D01*
X164249773Y-104840210D01*
X164099150Y-104919263D01*
X163971816Y-105032072D01*
X163875182Y-105172068D01*
X163814860Y-105331125D01*
X163814859Y-105331130D01*
X163794355Y-105500000D01*
X151241982Y-105500000D01*
X151150852Y-105419266D01*
X151150849Y-105419263D01*
X151000226Y-105340210D01*
X150835056Y-105299500D01*
X150664944Y-105299500D01*
X150499773Y-105340210D01*
X150349150Y-105419263D01*
X150221816Y-105532072D01*
X150125182Y-105672068D01*
X150064860Y-105831125D01*
X150064859Y-105831130D01*
X150044355Y-106000000D01*
X142325385Y-106000000D01*
X142304880Y-105831128D01*
X142244558Y-105672070D01*
X142242348Y-105668869D01*
X142182962Y-105582834D01*
X142147923Y-105532071D01*
X142020592Y-105419266D01*
X142020589Y-105419263D01*
X141869966Y-105340210D01*
X141704796Y-105299500D01*
X141534684Y-105299500D01*
X141369513Y-105340210D01*
X141218890Y-105419263D01*
X141091556Y-105532072D01*
X140994922Y-105672068D01*
X140934600Y-105831125D01*
X140934599Y-105831130D01*
X140914095Y-106000000D01*
X117790704Y-106000000D01*
X117871401Y-105943495D01*
X118038495Y-105776401D01*
X118174035Y-105582830D01*
X118273903Y-105368663D01*
X118335063Y-105140408D01*
X118347347Y-105000000D01*
X143914095Y-105000000D01*
X143934599Y-105168869D01*
X143934600Y-105168874D01*
X143994922Y-105327931D01*
X144024108Y-105370213D01*
X144091557Y-105467929D01*
X144163959Y-105532071D01*
X144218890Y-105580736D01*
X144369513Y-105659789D01*
X144369515Y-105659790D01*
X144534684Y-105700500D01*
X144704796Y-105700500D01*
X144869965Y-105659790D01*
X144949432Y-105618081D01*
X145020589Y-105580736D01*
X145020590Y-105580734D01*
X145020592Y-105580734D01*
X145147923Y-105467929D01*
X145244558Y-105327930D01*
X145304880Y-105168872D01*
X145325385Y-105000000D01*
X146414095Y-105000000D01*
X146434599Y-105168869D01*
X146434600Y-105168874D01*
X146494922Y-105327931D01*
X146524108Y-105370213D01*
X146591557Y-105467929D01*
X146663959Y-105532071D01*
X146718890Y-105580736D01*
X146869513Y-105659789D01*
X146869515Y-105659790D01*
X147034684Y-105700500D01*
X147204796Y-105700500D01*
X147369965Y-105659790D01*
X147449432Y-105618081D01*
X147520589Y-105580736D01*
X147520590Y-105580734D01*
X147520592Y-105580734D01*
X147647923Y-105467929D01*
X147744558Y-105327930D01*
X147804880Y-105168872D01*
X147825385Y-105000000D01*
X147804880Y-104831128D01*
X147744558Y-104672070D01*
X147742850Y-104669596D01*
X147710216Y-104622318D01*
X147647923Y-104532071D01*
X147611722Y-104500000D01*
X148914095Y-104500000D01*
X148934599Y-104668869D01*
X148934600Y-104668874D01*
X148994922Y-104827931D01*
X149003398Y-104840210D01*
X149091557Y-104967929D01*
X149155554Y-105024625D01*
X149218890Y-105080736D01*
X149369513Y-105159789D01*
X149369515Y-105159790D01*
X149534684Y-105200500D01*
X149704796Y-105200500D01*
X149869965Y-105159790D01*
X149949432Y-105118081D01*
X150020589Y-105080736D01*
X150020590Y-105080734D01*
X150020592Y-105080734D01*
X150147923Y-104967929D01*
X150244558Y-104827930D01*
X150304880Y-104668872D01*
X150325385Y-104500000D01*
X150304880Y-104331128D01*
X150244558Y-104172070D01*
X150147923Y-104032071D01*
X150020592Y-103919266D01*
X150020589Y-103919263D01*
X149869966Y-103840210D01*
X149704796Y-103799500D01*
X149534684Y-103799500D01*
X149369513Y-103840210D01*
X149218890Y-103919263D01*
X149091556Y-104032072D01*
X148994922Y-104172068D01*
X148934600Y-104331125D01*
X148934599Y-104331130D01*
X148914095Y-104500000D01*
X147611722Y-104500000D01*
X147520592Y-104419266D01*
X147520589Y-104419263D01*
X147369966Y-104340210D01*
X147204796Y-104299500D01*
X147034684Y-104299500D01*
X146869513Y-104340210D01*
X146718890Y-104419263D01*
X146591556Y-104532072D01*
X146494922Y-104672068D01*
X146434600Y-104831125D01*
X146434599Y-104831130D01*
X146414095Y-105000000D01*
X145325385Y-105000000D01*
X145304880Y-104831128D01*
X145244558Y-104672070D01*
X145242850Y-104669596D01*
X145210216Y-104622318D01*
X145147923Y-104532071D01*
X145020592Y-104419266D01*
X145020589Y-104419263D01*
X144869966Y-104340210D01*
X144704796Y-104299500D01*
X144534684Y-104299500D01*
X144369513Y-104340210D01*
X144218890Y-104419263D01*
X144091556Y-104532072D01*
X143994922Y-104672068D01*
X143934600Y-104831125D01*
X143934599Y-104831130D01*
X143914095Y-105000000D01*
X118347347Y-105000000D01*
X118355659Y-104905000D01*
X118335063Y-104669592D01*
X118278320Y-104457820D01*
X118273905Y-104441344D01*
X118273904Y-104441343D01*
X118273903Y-104441337D01*
X118174035Y-104227171D01*
X118061353Y-104066243D01*
X118038494Y-104033597D01*
X117871402Y-103866506D01*
X117871396Y-103866501D01*
X117685842Y-103736575D01*
X117642217Y-103681998D01*
X117635023Y-103612500D01*
X117666546Y-103550145D01*
X117685842Y-103533425D01*
X117828182Y-103433757D01*
X117871401Y-103403495D01*
X118038495Y-103236401D01*
X118174035Y-103042830D01*
X118273903Y-102828663D01*
X118335063Y-102600408D01*
X118355659Y-102365000D01*
X118335063Y-102129592D01*
X118300339Y-102000000D01*
X140414095Y-102000000D01*
X140434599Y-102168869D01*
X140434600Y-102168874D01*
X140494922Y-102327931D01*
X140544448Y-102399681D01*
X140591557Y-102467929D01*
X140655554Y-102524625D01*
X140718890Y-102580736D01*
X140869513Y-102659789D01*
X140869515Y-102659790D01*
X141034684Y-102700500D01*
X141204796Y-102700500D01*
X141369965Y-102659790D01*
X141449432Y-102618081D01*
X141520589Y-102580736D01*
X141520590Y-102580734D01*
X141520592Y-102580734D01*
X141647923Y-102467929D01*
X141744558Y-102327930D01*
X141804880Y-102168872D01*
X141825385Y-102000000D01*
X141804880Y-101831128D01*
X141744558Y-101672070D01*
X141647923Y-101532071D01*
X141520592Y-101419266D01*
X141520589Y-101419263D01*
X141369966Y-101340210D01*
X141204796Y-101299500D01*
X141034684Y-101299500D01*
X140869513Y-101340210D01*
X140718890Y-101419263D01*
X140591556Y-101532072D01*
X140494922Y-101672068D01*
X140434600Y-101831125D01*
X140434599Y-101831130D01*
X140414095Y-102000000D01*
X118300339Y-102000000D01*
X118273903Y-101901337D01*
X118174035Y-101687171D01*
X118163462Y-101672070D01*
X118038494Y-101493597D01*
X117871402Y-101326506D01*
X117871396Y-101326501D01*
X117685842Y-101196575D01*
X117642217Y-101141998D01*
X117635023Y-101072500D01*
X117666546Y-101010145D01*
X117685842Y-100993425D01*
X117771052Y-100933760D01*
X117871401Y-100863495D01*
X118038495Y-100696401D01*
X118174035Y-100502830D01*
X118273903Y-100288663D01*
X118335063Y-100060408D01*
X118340348Y-100000000D01*
X155914095Y-100000000D01*
X155934599Y-100168869D01*
X155934600Y-100168874D01*
X155994922Y-100327931D01*
X156024108Y-100370213D01*
X156091557Y-100467929D01*
X156175368Y-100542179D01*
X156218890Y-100580736D01*
X156369513Y-100659789D01*
X156369515Y-100659790D01*
X156534684Y-100700500D01*
X156704796Y-100700500D01*
X156869965Y-100659790D01*
X156949432Y-100618081D01*
X157020589Y-100580736D01*
X157020590Y-100580734D01*
X157020592Y-100580734D01*
X157147923Y-100467929D01*
X157244558Y-100327930D01*
X157304880Y-100168872D01*
X157325385Y-100000000D01*
X163294355Y-100000000D01*
X163314859Y-100168869D01*
X163314860Y-100168874D01*
X163375182Y-100327931D01*
X163404368Y-100370213D01*
X163471817Y-100467929D01*
X163555628Y-100542179D01*
X163599150Y-100580736D01*
X163749773Y-100659789D01*
X163749775Y-100659790D01*
X163914944Y-100700500D01*
X164085056Y-100700500D01*
X164250225Y-100659790D01*
X164329692Y-100618081D01*
X164400849Y-100580736D01*
X164400850Y-100580734D01*
X164400852Y-100580734D01*
X164528183Y-100467929D01*
X164624818Y-100327930D01*
X164685140Y-100168872D01*
X164705645Y-100000000D01*
X164685140Y-99831128D01*
X164680410Y-99818657D01*
X164624817Y-99672068D01*
X164567883Y-99589586D01*
X164528183Y-99532071D01*
X164400852Y-99419266D01*
X164400849Y-99419263D01*
X164250226Y-99340210D01*
X164085056Y-99299500D01*
X163914944Y-99299500D01*
X163749773Y-99340210D01*
X163599150Y-99419263D01*
X163471816Y-99532072D01*
X163375182Y-99672068D01*
X163314860Y-99831125D01*
X163314859Y-99831130D01*
X163294355Y-100000000D01*
X157325385Y-100000000D01*
X157304880Y-99831128D01*
X157300150Y-99818657D01*
X157244557Y-99672068D01*
X157187623Y-99589586D01*
X157147923Y-99532071D01*
X157020592Y-99419266D01*
X157020589Y-99419263D01*
X156869966Y-99340210D01*
X156704796Y-99299500D01*
X156534684Y-99299500D01*
X156369513Y-99340210D01*
X156218890Y-99419263D01*
X156091556Y-99532072D01*
X155994922Y-99672068D01*
X155934600Y-99831125D01*
X155934599Y-99831130D01*
X155914095Y-100000000D01*
X118340348Y-100000000D01*
X118355659Y-99825000D01*
X118335063Y-99589592D01*
X118273903Y-99361337D01*
X118174035Y-99147171D01*
X118146718Y-99108157D01*
X118038494Y-98953597D01*
X117871402Y-98786506D01*
X117871396Y-98786501D01*
X117685842Y-98656575D01*
X117672775Y-98640228D01*
X173074335Y-98640228D01*
X173094839Y-98809097D01*
X173094840Y-98809102D01*
X173155162Y-98968159D01*
X173202080Y-99036130D01*
X173251797Y-99108157D01*
X173357485Y-99201788D01*
X173379130Y-99220964D01*
X173528768Y-99299500D01*
X173529755Y-99300018D01*
X173694924Y-99340728D01*
X173865036Y-99340728D01*
X174030205Y-99300018D01*
X174109672Y-99258309D01*
X174180829Y-99220964D01*
X174180830Y-99220962D01*
X174180832Y-99220962D01*
X174308163Y-99108157D01*
X174404798Y-98968158D01*
X174465120Y-98809100D01*
X174485625Y-98640228D01*
X174465120Y-98471356D01*
X174404798Y-98312298D01*
X174308163Y-98172299D01*
X174226535Y-98099983D01*
X194492000Y-98099983D01*
X194492000Y-99400001D01*
X194492001Y-99400018D01*
X194502500Y-99502796D01*
X194502501Y-99502799D01*
X194557685Y-99669331D01*
X194557687Y-99669336D01*
X194649789Y-99818657D01*
X194773844Y-99942712D01*
X194928620Y-100038178D01*
X194975345Y-100090126D01*
X194986568Y-100159088D01*
X194958724Y-100223171D01*
X194951206Y-100231398D01*
X194812389Y-100370215D01*
X194687451Y-100542179D01*
X194590944Y-100731585D01*
X194525253Y-100933760D01*
X194492000Y-101143713D01*
X194492000Y-101356286D01*
X194519841Y-101532071D01*
X194525254Y-101566243D01*
X194564545Y-101687169D01*
X194590944Y-101768414D01*
X194687451Y-101957820D01*
X194812390Y-102129786D01*
X194962709Y-102280105D01*
X194962714Y-102280109D01*
X195127293Y-102399682D01*
X195169959Y-102455011D01*
X195175938Y-102524625D01*
X195143333Y-102586420D01*
X195127293Y-102600318D01*
X194962714Y-102719890D01*
X194962709Y-102719894D01*
X194812390Y-102870213D01*
X194687451Y-103042179D01*
X194590944Y-103231585D01*
X194525253Y-103433760D01*
X194509468Y-103533425D01*
X194492000Y-103643713D01*
X194492000Y-103856287D01*
X194493619Y-103866506D01*
X194520083Y-104033599D01*
X194525254Y-104066243D01*
X194577542Y-104227169D01*
X194590944Y-104268414D01*
X194687451Y-104457820D01*
X194812390Y-104629786D01*
X194962709Y-104780105D01*
X194962714Y-104780109D01*
X195127293Y-104899682D01*
X195169959Y-104955011D01*
X195175938Y-105024625D01*
X195143333Y-105086420D01*
X195127293Y-105100318D01*
X194962714Y-105219890D01*
X194962709Y-105219894D01*
X194812390Y-105370213D01*
X194687451Y-105542179D01*
X194590944Y-105731585D01*
X194525253Y-105933760D01*
X194492000Y-106143713D01*
X194492000Y-106356286D01*
X194519841Y-106532071D01*
X194525254Y-106566243D01*
X194559639Y-106672070D01*
X194590944Y-106768414D01*
X194687451Y-106957820D01*
X194812390Y-107129786D01*
X194962713Y-107280109D01*
X195134679Y-107405048D01*
X195134681Y-107405049D01*
X195134684Y-107405051D01*
X195324088Y-107501557D01*
X195526257Y-107567246D01*
X195736213Y-107600500D01*
X195736214Y-107600500D01*
X196198786Y-107600500D01*
X196198787Y-107600500D01*
X196408743Y-107567246D01*
X196610912Y-107501557D01*
X196800316Y-107405051D01*
X196822289Y-107389086D01*
X196972286Y-107280109D01*
X196972288Y-107280106D01*
X196972292Y-107280104D01*
X197122604Y-107129792D01*
X197122606Y-107129788D01*
X197122609Y-107129786D01*
X197247548Y-106957820D01*
X197247547Y-106957820D01*
X197247551Y-106957816D01*
X197344057Y-106768412D01*
X197409746Y-106566243D01*
X197443000Y-106356287D01*
X197443000Y-106143713D01*
X197409746Y-105933757D01*
X197344057Y-105731588D01*
X197247551Y-105542184D01*
X197247549Y-105542181D01*
X197247548Y-105542179D01*
X197122609Y-105370213D01*
X196972292Y-105219896D01*
X196972284Y-105219890D01*
X196807704Y-105100316D01*
X196765040Y-105044989D01*
X196759061Y-104975376D01*
X196791666Y-104913580D01*
X196807699Y-104899686D01*
X196972292Y-104780104D01*
X197122604Y-104629792D01*
X197122606Y-104629788D01*
X197122609Y-104629786D01*
X197247548Y-104457820D01*
X197247547Y-104457820D01*
X197247551Y-104457816D01*
X197344057Y-104268412D01*
X197409746Y-104066243D01*
X197443000Y-103856287D01*
X197443000Y-103643713D01*
X197409746Y-103433757D01*
X197344057Y-103231588D01*
X197247551Y-103042184D01*
X197247549Y-103042181D01*
X197247548Y-103042179D01*
X197122609Y-102870213D01*
X196972292Y-102719896D01*
X196972284Y-102719890D01*
X196807704Y-102600316D01*
X196765040Y-102544989D01*
X196759061Y-102475376D01*
X196791666Y-102413580D01*
X196807699Y-102399686D01*
X196972292Y-102280104D01*
X197122604Y-102129792D01*
X197122606Y-102129788D01*
X197122609Y-102129786D01*
X197247548Y-101957820D01*
X197247547Y-101957820D01*
X197247551Y-101957816D01*
X197344057Y-101768412D01*
X197409746Y-101566243D01*
X197443000Y-101356287D01*
X197443000Y-101143713D01*
X197409746Y-100933757D01*
X197344057Y-100731588D01*
X197247551Y-100542184D01*
X197247549Y-100542181D01*
X197247548Y-100542179D01*
X197122609Y-100370213D01*
X196983794Y-100231398D01*
X196950309Y-100170075D01*
X196955293Y-100100383D01*
X196997165Y-100044450D01*
X197006379Y-100038178D01*
X197011831Y-100034814D01*
X197011834Y-100034814D01*
X197161156Y-99942712D01*
X197285212Y-99818656D01*
X197377314Y-99669334D01*
X197432499Y-99502797D01*
X197443000Y-99400009D01*
X197442999Y-98099992D01*
X197432499Y-97997203D01*
X197377314Y-97830666D01*
X197285212Y-97681344D01*
X197161156Y-97557288D01*
X197011834Y-97465186D01*
X196845297Y-97410001D01*
X196845295Y-97410000D01*
X196742510Y-97399500D01*
X195192498Y-97399500D01*
X195192481Y-97399501D01*
X195089703Y-97410000D01*
X195089700Y-97410001D01*
X194923168Y-97465185D01*
X194923163Y-97465187D01*
X194773842Y-97557289D01*
X194649789Y-97681342D01*
X194557687Y-97830663D01*
X194557686Y-97830666D01*
X194502501Y-97997203D01*
X194502501Y-97997204D01*
X194502500Y-97997204D01*
X194492000Y-98099983D01*
X174226535Y-98099983D01*
X174180832Y-98059494D01*
X174180829Y-98059491D01*
X174030206Y-97980438D01*
X173865036Y-97939728D01*
X173694924Y-97939728D01*
X173529753Y-97980438D01*
X173379130Y-98059491D01*
X173251796Y-98172300D01*
X173155162Y-98312296D01*
X173094840Y-98471353D01*
X173094839Y-98471358D01*
X173074335Y-98640228D01*
X117672775Y-98640228D01*
X117642217Y-98601998D01*
X117635023Y-98532500D01*
X117666546Y-98470145D01*
X117685842Y-98453425D01*
X117708026Y-98437891D01*
X117871401Y-98323495D01*
X118038495Y-98156401D01*
X118174035Y-97962830D01*
X118273903Y-97748663D01*
X118335063Y-97520408D01*
X118355659Y-97285000D01*
X118335063Y-97049592D01*
X118321775Y-97000000D01*
X150914095Y-97000000D01*
X150934599Y-97168869D01*
X150934600Y-97168874D01*
X150994922Y-97327931D01*
X151044324Y-97399501D01*
X151091557Y-97467929D01*
X151192423Y-97557288D01*
X151218890Y-97580736D01*
X151369513Y-97659789D01*
X151369515Y-97659790D01*
X151534684Y-97700500D01*
X151704796Y-97700500D01*
X151869965Y-97659790D01*
X151949432Y-97618081D01*
X152020589Y-97580736D01*
X152020590Y-97580734D01*
X152020592Y-97580734D01*
X152147923Y-97467929D01*
X152244558Y-97327930D01*
X152304880Y-97168872D01*
X152325385Y-97000000D01*
X152304880Y-96831128D01*
X152301169Y-96821344D01*
X152244557Y-96672068D01*
X152199760Y-96607169D01*
X152147923Y-96532071D01*
X152020592Y-96419266D01*
X152020589Y-96419263D01*
X151869966Y-96340210D01*
X151704796Y-96299500D01*
X151534684Y-96299500D01*
X151369513Y-96340210D01*
X151218890Y-96419263D01*
X151091556Y-96532072D01*
X150994922Y-96672068D01*
X150934600Y-96831125D01*
X150934599Y-96831130D01*
X150914095Y-97000000D01*
X118321775Y-97000000D01*
X118276527Y-96831130D01*
X118273905Y-96821344D01*
X118273904Y-96821343D01*
X118273903Y-96821337D01*
X118174035Y-96607171D01*
X118121451Y-96532072D01*
X118038494Y-96413597D01*
X117871402Y-96246506D01*
X117871396Y-96246501D01*
X117685842Y-96116575D01*
X117642217Y-96061998D01*
X117635023Y-95992500D01*
X117666546Y-95930145D01*
X117685842Y-95913425D01*
X117708026Y-95897891D01*
X117871401Y-95783495D01*
X118038495Y-95616401D01*
X118174035Y-95422830D01*
X118273903Y-95208663D01*
X118335063Y-94980408D01*
X118355659Y-94745000D01*
X118335063Y-94509592D01*
X118287244Y-94331128D01*
X118273905Y-94281344D01*
X118273904Y-94281343D01*
X118273903Y-94281337D01*
X118174035Y-94067171D01*
X118127002Y-94000000D01*
X165544355Y-94000000D01*
X165564859Y-94168869D01*
X165564860Y-94168874D01*
X165625182Y-94327931D01*
X165687475Y-94418177D01*
X165721817Y-94467929D01*
X165827505Y-94561560D01*
X165849150Y-94580736D01*
X165999773Y-94659789D01*
X165999775Y-94659790D01*
X166164944Y-94700500D01*
X166335056Y-94700500D01*
X166500225Y-94659790D01*
X166579692Y-94618081D01*
X166650849Y-94580736D01*
X166650850Y-94580734D01*
X166650852Y-94580734D01*
X166741982Y-94500000D01*
X173544355Y-94500000D01*
X173564859Y-94668869D01*
X173564860Y-94668874D01*
X173625182Y-94827931D01*
X173687475Y-94918177D01*
X173721817Y-94967929D01*
X173827505Y-95061560D01*
X173849150Y-95080736D01*
X173999773Y-95159789D01*
X173999775Y-95159790D01*
X174164944Y-95200500D01*
X174335056Y-95200500D01*
X174500225Y-95159790D01*
X174579692Y-95118081D01*
X174650849Y-95080736D01*
X174650850Y-95080734D01*
X174650852Y-95080734D01*
X174778183Y-94967929D01*
X174874818Y-94827930D01*
X174935140Y-94668872D01*
X174955645Y-94500000D01*
X174935140Y-94331128D01*
X174874818Y-94172070D01*
X174872608Y-94168869D01*
X174802411Y-94067171D01*
X174778183Y-94032071D01*
X174741982Y-94000000D01*
X190294355Y-94000000D01*
X190314859Y-94168869D01*
X190314860Y-94168874D01*
X190375182Y-94327931D01*
X190437475Y-94418177D01*
X190471817Y-94467929D01*
X190577505Y-94561560D01*
X190599150Y-94580736D01*
X190749773Y-94659789D01*
X190749775Y-94659790D01*
X190914944Y-94700500D01*
X191085056Y-94700500D01*
X191250225Y-94659790D01*
X191329692Y-94618081D01*
X191400849Y-94580736D01*
X191400850Y-94580734D01*
X191400852Y-94580734D01*
X191528183Y-94467929D01*
X191624818Y-94327930D01*
X191685140Y-94168872D01*
X191705645Y-94000000D01*
X191685140Y-93831128D01*
X191624818Y-93672070D01*
X191528183Y-93532071D01*
X191400852Y-93419266D01*
X191400849Y-93419263D01*
X191250226Y-93340210D01*
X191085056Y-93299500D01*
X190914944Y-93299500D01*
X190749773Y-93340210D01*
X190599150Y-93419263D01*
X190471816Y-93532072D01*
X190375182Y-93672068D01*
X190314860Y-93831125D01*
X190314859Y-93831130D01*
X190294355Y-94000000D01*
X174741982Y-94000000D01*
X174650852Y-93919266D01*
X174650849Y-93919263D01*
X174500226Y-93840210D01*
X174335056Y-93799500D01*
X174164944Y-93799500D01*
X173999773Y-93840210D01*
X173849150Y-93919263D01*
X173721816Y-94032072D01*
X173625182Y-94172068D01*
X173564860Y-94331125D01*
X173564859Y-94331130D01*
X173544355Y-94500000D01*
X166741982Y-94500000D01*
X166778183Y-94467929D01*
X166874818Y-94327930D01*
X166935140Y-94168872D01*
X166955645Y-94000000D01*
X166935140Y-93831128D01*
X166874818Y-93672070D01*
X166778183Y-93532071D01*
X166650852Y-93419266D01*
X166650849Y-93419263D01*
X166500226Y-93340210D01*
X166335056Y-93299500D01*
X166164944Y-93299500D01*
X165999773Y-93340210D01*
X165849150Y-93419263D01*
X165721816Y-93532072D01*
X165625182Y-93672068D01*
X165564860Y-93831125D01*
X165564859Y-93831130D01*
X165544355Y-94000000D01*
X118127002Y-94000000D01*
X118070472Y-93919266D01*
X118038494Y-93873597D01*
X117871402Y-93706506D01*
X117871396Y-93706501D01*
X117685842Y-93576575D01*
X117642217Y-93521998D01*
X117635023Y-93452500D01*
X117666546Y-93390145D01*
X117685842Y-93373425D01*
X117733278Y-93340210D01*
X117871401Y-93243495D01*
X118038495Y-93076401D01*
X118174035Y-92882830D01*
X118273903Y-92668663D01*
X118335063Y-92440408D01*
X118355659Y-92205000D01*
X118335063Y-91969592D01*
X118273903Y-91741337D01*
X118174035Y-91527171D01*
X118132554Y-91467929D01*
X118038494Y-91333597D01*
X117871402Y-91166506D01*
X117871396Y-91166501D01*
X117685842Y-91036575D01*
X117656607Y-91000000D01*
X170794355Y-91000000D01*
X170814859Y-91168869D01*
X170814860Y-91168874D01*
X170875182Y-91327931D01*
X170906895Y-91373874D01*
X170971817Y-91467929D01*
X171077505Y-91561560D01*
X171099150Y-91580736D01*
X171249773Y-91659789D01*
X171249775Y-91659790D01*
X171414944Y-91700500D01*
X171585056Y-91700500D01*
X171750225Y-91659790D01*
X171829692Y-91618081D01*
X171900849Y-91580736D01*
X171900850Y-91580734D01*
X171900852Y-91580734D01*
X172028183Y-91467929D01*
X172124818Y-91327930D01*
X172185140Y-91168872D01*
X172205645Y-91000000D01*
X172185140Y-90831128D01*
X172124818Y-90672070D01*
X172028183Y-90532071D01*
X171900852Y-90419266D01*
X171900849Y-90419263D01*
X171887963Y-90412500D01*
X184994355Y-90412500D01*
X185014859Y-90581369D01*
X185014860Y-90581374D01*
X185075182Y-90740431D01*
X185137475Y-90830677D01*
X185171817Y-90880429D01*
X185258813Y-90957500D01*
X185299150Y-90993236D01*
X185381726Y-91036575D01*
X185449775Y-91072290D01*
X185614944Y-91113000D01*
X185785056Y-91113000D01*
X185950225Y-91072290D01*
X186029692Y-91030581D01*
X186100849Y-90993236D01*
X186100850Y-90993234D01*
X186100852Y-90993234D01*
X186228183Y-90880429D01*
X186324818Y-90740430D01*
X186385140Y-90581372D01*
X186405645Y-90412500D01*
X186385140Y-90243628D01*
X186324818Y-90084570D01*
X186228183Y-89944571D01*
X186100852Y-89831766D01*
X186100849Y-89831763D01*
X185950226Y-89752710D01*
X185785056Y-89712000D01*
X185614944Y-89712000D01*
X185449773Y-89752710D01*
X185299150Y-89831763D01*
X185171816Y-89944572D01*
X185075182Y-90084568D01*
X185014860Y-90243625D01*
X185014859Y-90243630D01*
X184994355Y-90412500D01*
X171887963Y-90412500D01*
X171750226Y-90340210D01*
X171585056Y-90299500D01*
X171414944Y-90299500D01*
X171249773Y-90340210D01*
X171099150Y-90419263D01*
X170971816Y-90532072D01*
X170875182Y-90672068D01*
X170814860Y-90831125D01*
X170814859Y-90831130D01*
X170794355Y-91000000D01*
X117656607Y-91000000D01*
X117642217Y-90981998D01*
X117635023Y-90912500D01*
X117666546Y-90850145D01*
X117685842Y-90833425D01*
X117708026Y-90817891D01*
X117871401Y-90703495D01*
X118038495Y-90536401D01*
X118174035Y-90342830D01*
X118273903Y-90128663D01*
X118335063Y-89900408D01*
X118355659Y-89665000D01*
X118335063Y-89429592D01*
X118273903Y-89201337D01*
X118174035Y-88987171D01*
X118038495Y-88793599D01*
X117916179Y-88671283D01*
X117882696Y-88609963D01*
X117887680Y-88540271D01*
X117929551Y-88484337D01*
X117960529Y-88467422D01*
X118092086Y-88418354D01*
X118092093Y-88418350D01*
X118207187Y-88332190D01*
X118207190Y-88332187D01*
X118293350Y-88217093D01*
X118293354Y-88217086D01*
X118343596Y-88082379D01*
X118343598Y-88082372D01*
X118349999Y-88022844D01*
X118350000Y-88022827D01*
X118350000Y-88000000D01*
X135294355Y-88000000D01*
X135314859Y-88168869D01*
X135314860Y-88168874D01*
X135375182Y-88327931D01*
X135376567Y-88329937D01*
X135471817Y-88467929D01*
X135553475Y-88540271D01*
X135599150Y-88580736D01*
X135749773Y-88659789D01*
X135749775Y-88659790D01*
X135914944Y-88700500D01*
X136085056Y-88700500D01*
X136250225Y-88659790D01*
X136329692Y-88618081D01*
X136400849Y-88580736D01*
X136400850Y-88580734D01*
X136400852Y-88580734D01*
X136528183Y-88467929D01*
X136624818Y-88327930D01*
X136685140Y-88168872D01*
X136705645Y-88000000D01*
X136685140Y-87831128D01*
X136624818Y-87672070D01*
X136528183Y-87532071D01*
X136400852Y-87419266D01*
X136400849Y-87419263D01*
X136250226Y-87340210D01*
X136085056Y-87299500D01*
X135914944Y-87299500D01*
X135749773Y-87340210D01*
X135599150Y-87419263D01*
X135471816Y-87532072D01*
X135375182Y-87672068D01*
X135314860Y-87831125D01*
X135314859Y-87831130D01*
X135294355Y-88000000D01*
X118350000Y-88000000D01*
X118350000Y-87375000D01*
X117433012Y-87375000D01*
X117465925Y-87317993D01*
X117484144Y-87250000D01*
X171794355Y-87250000D01*
X171814859Y-87418869D01*
X171814860Y-87418874D01*
X171875182Y-87577931D01*
X171907672Y-87625000D01*
X171971817Y-87717929D01*
X172077505Y-87811560D01*
X172099150Y-87830736D01*
X172219143Y-87893713D01*
X172249775Y-87909790D01*
X172414944Y-87950500D01*
X172585056Y-87950500D01*
X172750225Y-87909790D01*
X172829692Y-87868081D01*
X172900849Y-87830736D01*
X172900850Y-87830734D01*
X172900852Y-87830734D01*
X173028183Y-87717929D01*
X173124818Y-87577930D01*
X173185140Y-87418872D01*
X173205645Y-87250000D01*
X173185140Y-87081128D01*
X173124818Y-86922070D01*
X173028183Y-86782071D01*
X172900852Y-86669266D01*
X172900849Y-86669263D01*
X172750226Y-86590210D01*
X172585056Y-86549500D01*
X172414944Y-86549500D01*
X172249773Y-86590210D01*
X172099150Y-86669263D01*
X171971816Y-86782072D01*
X171875182Y-86922068D01*
X171814860Y-87081125D01*
X171814859Y-87081130D01*
X171794355Y-87250000D01*
X117484144Y-87250000D01*
X117500000Y-87190826D01*
X117500000Y-87059174D01*
X117465925Y-86932007D01*
X117433012Y-86875000D01*
X118350000Y-86875000D01*
X118350000Y-86227172D01*
X118349999Y-86227155D01*
X118343598Y-86167627D01*
X118343596Y-86167620D01*
X118293354Y-86032913D01*
X118293350Y-86032906D01*
X118207190Y-85917812D01*
X118207187Y-85917809D01*
X118092093Y-85831649D01*
X118092086Y-85831645D01*
X117957379Y-85781403D01*
X117957372Y-85781401D01*
X117897844Y-85775000D01*
X117250000Y-85775000D01*
X117250000Y-86691988D01*
X117192993Y-86659075D01*
X117065826Y-86625000D01*
X116934174Y-86625000D01*
X116807007Y-86659075D01*
X116750000Y-86691988D01*
X116750000Y-85775000D01*
X116102155Y-85775000D01*
X116042627Y-85781401D01*
X116042620Y-85781403D01*
X115907913Y-85831645D01*
X115907906Y-85831649D01*
X115792812Y-85917809D01*
X115792809Y-85917812D01*
X115706649Y-86032906D01*
X115706645Y-86032913D01*
X115656403Y-86167620D01*
X115656401Y-86167627D01*
X115650000Y-86227155D01*
X115650000Y-86875000D01*
X116566988Y-86875000D01*
X116534075Y-86932007D01*
X116500000Y-87059174D01*
X116500000Y-87190826D01*
X116534075Y-87317993D01*
X116566988Y-87375000D01*
X115650000Y-87375000D01*
X115650000Y-88022844D01*
X115656401Y-88082372D01*
X115656403Y-88082379D01*
X115706645Y-88217086D01*
X115706649Y-88217093D01*
X115792809Y-88332187D01*
X115792812Y-88332190D01*
X115907906Y-88418350D01*
X115907913Y-88418354D01*
X116039470Y-88467421D01*
X116095403Y-88509292D01*
X116119821Y-88574756D01*
X116104970Y-88643029D01*
X116083819Y-88671284D01*
X115961503Y-88793600D01*
X115825965Y-88987169D01*
X115825964Y-88987171D01*
X115726098Y-89201335D01*
X115726094Y-89201344D01*
X115664938Y-89429586D01*
X115664936Y-89429596D01*
X115644341Y-89664999D01*
X102500000Y-89664999D01*
X102500000Y-84750000D01*
X150344540Y-84750000D01*
X150364326Y-84938256D01*
X150364327Y-84938259D01*
X150422818Y-85118277D01*
X150422821Y-85118284D01*
X150517467Y-85282216D01*
X150617860Y-85393713D01*
X150644129Y-85422888D01*
X150797265Y-85534148D01*
X150797270Y-85534151D01*
X150970192Y-85611142D01*
X150970197Y-85611144D01*
X151155354Y-85650500D01*
X151155355Y-85650500D01*
X151344644Y-85650500D01*
X151344646Y-85650500D01*
X151529803Y-85611144D01*
X151702730Y-85534151D01*
X151855871Y-85422888D01*
X151982533Y-85282216D01*
X152077179Y-85118284D01*
X152135674Y-84938256D01*
X152155460Y-84750000D01*
X152135674Y-84561744D01*
X152077179Y-84381716D01*
X151982533Y-84217784D01*
X151855871Y-84077112D01*
X151791177Y-84030109D01*
X151702734Y-83965851D01*
X151702729Y-83965848D01*
X151529807Y-83888857D01*
X151529802Y-83888855D01*
X151384001Y-83857865D01*
X151344646Y-83849500D01*
X151155354Y-83849500D01*
X151122897Y-83856398D01*
X150970197Y-83888855D01*
X150970192Y-83888857D01*
X150797270Y-83965848D01*
X150797265Y-83965851D01*
X150644129Y-84077111D01*
X150517466Y-84217785D01*
X150422821Y-84381715D01*
X150422818Y-84381722D01*
X150394169Y-84469896D01*
X150364326Y-84561744D01*
X150344540Y-84750000D01*
X102500000Y-84750000D01*
X102500000Y-82500000D01*
X156794355Y-82500000D01*
X156814859Y-82668869D01*
X156814860Y-82668874D01*
X156875182Y-82827931D01*
X156920589Y-82893713D01*
X156971817Y-82967929D01*
X157077505Y-83061560D01*
X157099150Y-83080736D01*
X157249773Y-83159789D01*
X157249775Y-83159790D01*
X157414944Y-83200500D01*
X157585056Y-83200500D01*
X157750225Y-83159790D01*
X157829692Y-83118081D01*
X157900849Y-83080736D01*
X157900850Y-83080734D01*
X157900852Y-83080734D01*
X158028183Y-82967929D01*
X158124818Y-82827930D01*
X158185140Y-82668872D01*
X158205645Y-82500000D01*
X158185140Y-82331128D01*
X158124818Y-82172070D01*
X158028183Y-82032071D01*
X157933316Y-81948026D01*
X157900849Y-81919263D01*
X157750226Y-81840210D01*
X157585056Y-81799500D01*
X157414944Y-81799500D01*
X157249773Y-81840210D01*
X157099150Y-81919263D01*
X156971816Y-82032072D01*
X156875182Y-82172068D01*
X156814860Y-82331125D01*
X156814859Y-82331130D01*
X156794355Y-82500000D01*
X102500000Y-82500000D01*
X102500000Y-79642500D01*
X112656855Y-79642500D01*
X112677359Y-79811369D01*
X112677360Y-79811374D01*
X112737682Y-79970431D01*
X112799975Y-80060677D01*
X112834317Y-80110429D01*
X112900286Y-80168872D01*
X112961650Y-80223236D01*
X113112273Y-80302289D01*
X113112275Y-80302290D01*
X113277444Y-80343000D01*
X113447556Y-80343000D01*
X113612725Y-80302290D01*
X113692192Y-80260581D01*
X113763349Y-80223236D01*
X113763350Y-80223234D01*
X113763352Y-80223234D01*
X113890683Y-80110429D01*
X113966907Y-80000000D01*
X141294355Y-80000000D01*
X141314859Y-80168869D01*
X141314860Y-80168874D01*
X141375182Y-80327931D01*
X141385584Y-80343000D01*
X141471817Y-80467929D01*
X141577505Y-80561560D01*
X141599150Y-80580736D01*
X141749773Y-80659789D01*
X141749775Y-80659790D01*
X141914944Y-80700500D01*
X142085056Y-80700500D01*
X142250225Y-80659790D01*
X142329692Y-80618081D01*
X142400849Y-80580736D01*
X142400850Y-80580734D01*
X142400852Y-80580734D01*
X142528183Y-80467929D01*
X142624818Y-80327930D01*
X142685140Y-80168872D01*
X142705645Y-80000000D01*
X142687429Y-79849983D01*
X194492000Y-79849983D01*
X194492000Y-81150001D01*
X194492001Y-81150018D01*
X194502500Y-81252796D01*
X194502501Y-81252799D01*
X194557685Y-81419331D01*
X194557687Y-81419336D01*
X194649789Y-81568657D01*
X194773844Y-81692712D01*
X194928620Y-81788178D01*
X194975345Y-81840126D01*
X194986568Y-81909088D01*
X194958724Y-81973171D01*
X194951206Y-81981398D01*
X194812389Y-82120215D01*
X194687451Y-82292179D01*
X194590944Y-82481585D01*
X194525253Y-82683760D01*
X194492000Y-82893713D01*
X194492000Y-83106286D01*
X194525253Y-83316239D01*
X194590944Y-83518414D01*
X194687451Y-83707820D01*
X194812390Y-83879786D01*
X194962709Y-84030105D01*
X194962714Y-84030109D01*
X195127293Y-84149682D01*
X195169959Y-84205011D01*
X195175938Y-84274625D01*
X195143333Y-84336420D01*
X195127293Y-84350318D01*
X194962714Y-84469890D01*
X194962709Y-84469894D01*
X194812390Y-84620213D01*
X194687451Y-84792179D01*
X194590944Y-84981585D01*
X194525253Y-85183760D01*
X194492000Y-85393713D01*
X194492000Y-85606286D01*
X194519735Y-85781401D01*
X194525254Y-85816243D01*
X194530258Y-85831645D01*
X194590944Y-86018414D01*
X194687451Y-86207820D01*
X194812390Y-86379786D01*
X194962709Y-86530105D01*
X194962714Y-86530109D01*
X195127293Y-86649682D01*
X195169959Y-86705011D01*
X195175938Y-86774625D01*
X195143333Y-86836420D01*
X195127293Y-86850318D01*
X194962714Y-86969890D01*
X194962709Y-86969894D01*
X194812390Y-87120213D01*
X194687451Y-87292179D01*
X194590944Y-87481585D01*
X194525253Y-87683760D01*
X194492000Y-87893713D01*
X194492000Y-88106286D01*
X194524160Y-88309341D01*
X194525254Y-88316243D01*
X194579871Y-88484337D01*
X194590944Y-88518414D01*
X194687451Y-88707820D01*
X194812390Y-88879786D01*
X194962713Y-89030109D01*
X195134679Y-89155048D01*
X195134681Y-89155049D01*
X195134684Y-89155051D01*
X195324088Y-89251557D01*
X195526257Y-89317246D01*
X195736213Y-89350500D01*
X195736214Y-89350500D01*
X196198786Y-89350500D01*
X196198787Y-89350500D01*
X196408743Y-89317246D01*
X196610912Y-89251557D01*
X196800316Y-89155051D01*
X196822289Y-89139086D01*
X196972286Y-89030109D01*
X196972288Y-89030106D01*
X196972292Y-89030104D01*
X197122604Y-88879792D01*
X197122606Y-88879788D01*
X197122609Y-88879786D01*
X197247548Y-88707820D01*
X197247547Y-88707820D01*
X197247551Y-88707816D01*
X197344057Y-88518412D01*
X197409746Y-88316243D01*
X197443000Y-88106287D01*
X197443000Y-87893713D01*
X197409746Y-87683757D01*
X197344057Y-87481588D01*
X197247551Y-87292184D01*
X197247549Y-87292181D01*
X197247548Y-87292179D01*
X197122609Y-87120213D01*
X196972292Y-86969896D01*
X196920142Y-86932007D01*
X196807704Y-86850316D01*
X196765040Y-86794989D01*
X196759061Y-86725376D01*
X196791666Y-86663580D01*
X196807699Y-86649686D01*
X196972292Y-86530104D01*
X197122604Y-86379792D01*
X197122606Y-86379788D01*
X197122609Y-86379786D01*
X197247548Y-86207820D01*
X197247547Y-86207820D01*
X197247551Y-86207816D01*
X197344057Y-86018412D01*
X197409746Y-85816243D01*
X197443000Y-85606287D01*
X197443000Y-85393713D01*
X197409746Y-85183757D01*
X197344057Y-84981588D01*
X197247551Y-84792184D01*
X197247549Y-84792181D01*
X197247548Y-84792179D01*
X197122609Y-84620213D01*
X196972292Y-84469896D01*
X196972284Y-84469890D01*
X196807704Y-84350316D01*
X196765040Y-84294989D01*
X196759061Y-84225376D01*
X196791666Y-84163580D01*
X196807699Y-84149686D01*
X196972292Y-84030104D01*
X197122604Y-83879792D01*
X197122606Y-83879788D01*
X197122609Y-83879786D01*
X197247548Y-83707820D01*
X197247547Y-83707820D01*
X197247551Y-83707816D01*
X197344057Y-83518412D01*
X197409746Y-83316243D01*
X197443000Y-83106287D01*
X197443000Y-82893713D01*
X197409746Y-82683757D01*
X197344057Y-82481588D01*
X197247551Y-82292184D01*
X197247549Y-82292181D01*
X197247548Y-82292179D01*
X197122609Y-82120213D01*
X196983794Y-81981398D01*
X196950309Y-81920075D01*
X196955293Y-81850383D01*
X196997165Y-81794450D01*
X197006379Y-81788178D01*
X197011831Y-81784814D01*
X197011834Y-81784814D01*
X197161156Y-81692712D01*
X197285212Y-81568656D01*
X197377314Y-81419334D01*
X197432499Y-81252797D01*
X197443000Y-81150009D01*
X197442999Y-79849992D01*
X197432499Y-79747203D01*
X197377314Y-79580666D01*
X197285212Y-79431344D01*
X197161156Y-79307288D01*
X197011834Y-79215186D01*
X196845297Y-79160001D01*
X196845295Y-79160000D01*
X196742510Y-79149500D01*
X195192498Y-79149500D01*
X195192481Y-79149501D01*
X195089703Y-79160000D01*
X195089700Y-79160001D01*
X194923168Y-79215185D01*
X194923163Y-79215187D01*
X194773842Y-79307289D01*
X194649789Y-79431342D01*
X194557687Y-79580663D01*
X194557686Y-79580666D01*
X194502501Y-79747203D01*
X194502501Y-79747204D01*
X194502500Y-79747204D01*
X194492000Y-79849983D01*
X142687429Y-79849983D01*
X142685140Y-79831128D01*
X142677646Y-79811369D01*
X142624817Y-79672068D01*
X142561724Y-79580663D01*
X142528183Y-79532071D01*
X142433316Y-79448026D01*
X142400849Y-79419263D01*
X142250226Y-79340210D01*
X142085056Y-79299500D01*
X141914944Y-79299500D01*
X141749773Y-79340210D01*
X141599150Y-79419263D01*
X141471816Y-79532072D01*
X141375182Y-79672068D01*
X141314860Y-79831125D01*
X141314859Y-79831130D01*
X141294355Y-80000000D01*
X113966907Y-80000000D01*
X113987318Y-79970430D01*
X114047640Y-79811372D01*
X114068145Y-79642500D01*
X114047640Y-79473628D01*
X113987318Y-79314570D01*
X113982292Y-79307289D01*
X113918718Y-79215187D01*
X113890683Y-79174571D01*
X113763352Y-79061766D01*
X113763349Y-79061763D01*
X113612726Y-78982710D01*
X113447556Y-78942000D01*
X113277444Y-78942000D01*
X113112273Y-78982710D01*
X112961650Y-79061763D01*
X112834316Y-79174572D01*
X112737682Y-79314568D01*
X112677360Y-79473625D01*
X112677359Y-79473630D01*
X112656855Y-79642500D01*
X102500000Y-79642500D01*
X102500000Y-78000000D01*
X135294355Y-78000000D01*
X135314859Y-78168869D01*
X135314860Y-78168874D01*
X135375182Y-78327931D01*
X135437475Y-78418177D01*
X135471817Y-78467929D01*
X135577505Y-78561560D01*
X135599150Y-78580736D01*
X135749773Y-78659789D01*
X135749775Y-78659790D01*
X135914944Y-78700500D01*
X136085056Y-78700500D01*
X136250225Y-78659790D01*
X136329692Y-78618081D01*
X136400849Y-78580736D01*
X136400850Y-78580734D01*
X136400852Y-78580734D01*
X136528183Y-78467929D01*
X136624818Y-78327930D01*
X136685140Y-78168872D01*
X136705645Y-78000000D01*
X136685140Y-77831128D01*
X136624818Y-77672070D01*
X136528183Y-77532071D01*
X136400852Y-77419266D01*
X136400849Y-77419263D01*
X136250226Y-77340210D01*
X136087085Y-77300000D01*
X154794355Y-77300000D01*
X154814859Y-77468869D01*
X154814860Y-77468874D01*
X154875182Y-77627931D01*
X154937475Y-77718177D01*
X154971817Y-77767929D01*
X155077505Y-77861560D01*
X155099150Y-77880736D01*
X155249773Y-77959789D01*
X155249775Y-77959790D01*
X155414944Y-78000500D01*
X155585056Y-78000500D01*
X155750225Y-77959790D01*
X155829692Y-77918081D01*
X155900849Y-77880736D01*
X155900850Y-77880734D01*
X155900852Y-77880734D01*
X156028183Y-77767929D01*
X156124818Y-77627930D01*
X156185140Y-77468872D01*
X156205645Y-77300000D01*
X156185140Y-77131128D01*
X156124818Y-76972070D01*
X156028183Y-76832071D01*
X155900852Y-76719266D01*
X155900849Y-76719263D01*
X155750226Y-76640210D01*
X155585056Y-76599500D01*
X155414944Y-76599500D01*
X155249773Y-76640210D01*
X155099150Y-76719263D01*
X154971816Y-76832072D01*
X154875182Y-76972068D01*
X154814860Y-77131125D01*
X154814859Y-77131130D01*
X154794355Y-77300000D01*
X136087085Y-77300000D01*
X136085056Y-77299500D01*
X135914944Y-77299500D01*
X135749773Y-77340210D01*
X135599150Y-77419263D01*
X135471816Y-77532072D01*
X135375182Y-77672068D01*
X135314860Y-77831125D01*
X135314859Y-77831130D01*
X135294355Y-78000000D01*
X102500000Y-78000000D01*
X102500000Y-68393713D01*
X104024500Y-68393713D01*
X104024500Y-68606286D01*
X104057753Y-68816239D01*
X104123444Y-69018414D01*
X104219951Y-69207820D01*
X104344890Y-69379786D01*
X104495209Y-69530105D01*
X104495214Y-69530109D01*
X104659793Y-69649682D01*
X104702459Y-69705011D01*
X104708438Y-69774625D01*
X104675833Y-69836420D01*
X104659793Y-69850318D01*
X104495214Y-69969890D01*
X104495209Y-69969894D01*
X104344890Y-70120213D01*
X104219951Y-70292179D01*
X104123444Y-70481585D01*
X104057753Y-70683760D01*
X104032974Y-70840210D01*
X104024500Y-70893713D01*
X104024500Y-71106287D01*
X104057754Y-71316243D01*
X104062590Y-71331128D01*
X104123444Y-71518414D01*
X104219951Y-71707820D01*
X104344890Y-71879786D01*
X104495209Y-72030105D01*
X104495214Y-72030109D01*
X104659793Y-72149682D01*
X104702459Y-72205011D01*
X104708438Y-72274625D01*
X104675833Y-72336420D01*
X104659793Y-72350318D01*
X104495214Y-72469890D01*
X104495209Y-72469894D01*
X104344890Y-72620213D01*
X104219951Y-72792179D01*
X104123444Y-72981585D01*
X104057753Y-73183760D01*
X104034412Y-73331130D01*
X104024500Y-73393713D01*
X104024500Y-73606287D01*
X104057754Y-73816243D01*
X104107039Y-73967927D01*
X104123444Y-74018414D01*
X104219951Y-74207820D01*
X104344890Y-74379786D01*
X104483705Y-74518601D01*
X104517190Y-74579924D01*
X104512206Y-74649616D01*
X104470334Y-74705549D01*
X104461121Y-74711821D01*
X104306342Y-74807289D01*
X104182289Y-74931342D01*
X104090187Y-75080663D01*
X104090185Y-75080668D01*
X104073152Y-75132071D01*
X104035001Y-75247203D01*
X104035001Y-75247204D01*
X104035000Y-75247204D01*
X104024500Y-75349983D01*
X104024500Y-76650001D01*
X104024501Y-76650018D01*
X104035000Y-76752796D01*
X104035001Y-76752799D01*
X104061270Y-76832071D01*
X104090186Y-76919334D01*
X104182288Y-77068656D01*
X104306344Y-77192712D01*
X104455666Y-77284814D01*
X104622203Y-77339999D01*
X104724991Y-77350500D01*
X106275008Y-77350499D01*
X106377797Y-77339999D01*
X106544334Y-77284814D01*
X106693656Y-77192712D01*
X106817712Y-77068656D01*
X106909814Y-76919334D01*
X106964999Y-76752797D01*
X106975500Y-76650009D01*
X106975499Y-75600000D01*
X151894355Y-75600000D01*
X151914859Y-75768869D01*
X151914860Y-75768874D01*
X151975182Y-75927931D01*
X152037475Y-76018177D01*
X152071817Y-76067929D01*
X152177505Y-76161560D01*
X152199150Y-76180736D01*
X152349773Y-76259789D01*
X152349775Y-76259790D01*
X152514944Y-76300500D01*
X152685056Y-76300500D01*
X152850225Y-76259790D01*
X152929692Y-76218081D01*
X153000849Y-76180736D01*
X153000850Y-76180734D01*
X153000852Y-76180734D01*
X153128183Y-76067929D01*
X153224818Y-75927930D01*
X153285140Y-75768872D01*
X153305645Y-75600000D01*
X153285140Y-75431128D01*
X153224818Y-75272070D01*
X153207653Y-75247203D01*
X153147315Y-75159789D01*
X153128183Y-75132071D01*
X153000852Y-75019266D01*
X153000849Y-75019263D01*
X152850226Y-74940210D01*
X152685056Y-74899500D01*
X152514944Y-74899500D01*
X152349773Y-74940210D01*
X152199150Y-75019263D01*
X152071816Y-75132072D01*
X151975182Y-75272068D01*
X151914860Y-75431125D01*
X151914859Y-75431130D01*
X151894355Y-75600000D01*
X106975499Y-75600000D01*
X106975499Y-75349992D01*
X106964999Y-75247203D01*
X106909814Y-75080666D01*
X106817712Y-74931344D01*
X106693656Y-74807288D01*
X106544334Y-74715186D01*
X106544333Y-74715185D01*
X106538878Y-74711821D01*
X106492154Y-74659873D01*
X106480931Y-74590910D01*
X106508775Y-74526828D01*
X106516272Y-74518623D01*
X106534895Y-74500000D01*
X144794355Y-74500000D01*
X144814859Y-74668869D01*
X144814860Y-74668874D01*
X144875182Y-74827931D01*
X144937475Y-74918177D01*
X144971817Y-74967929D01*
X145029765Y-75019266D01*
X145099150Y-75080736D01*
X145196961Y-75132071D01*
X145249775Y-75159790D01*
X145414944Y-75200500D01*
X145585056Y-75200500D01*
X145750225Y-75159790D01*
X145829692Y-75118081D01*
X145900849Y-75080736D01*
X145900850Y-75080734D01*
X145900852Y-75080734D01*
X146028183Y-74967929D01*
X146124818Y-74827930D01*
X146185140Y-74668872D01*
X146205645Y-74500000D01*
X146185140Y-74331128D01*
X146124818Y-74172070D01*
X146028183Y-74032071D01*
X145900852Y-73919266D01*
X145900849Y-73919263D01*
X145750226Y-73840210D01*
X145585056Y-73799500D01*
X145414944Y-73799500D01*
X145249773Y-73840210D01*
X145099150Y-73919263D01*
X144971816Y-74032072D01*
X144875182Y-74172068D01*
X144814860Y-74331125D01*
X144814859Y-74331130D01*
X144794355Y-74500000D01*
X106534895Y-74500000D01*
X106655104Y-74379792D01*
X106690463Y-74331125D01*
X106780048Y-74207820D01*
X106780047Y-74207820D01*
X106780051Y-74207816D01*
X106876557Y-74018412D01*
X106942246Y-73816243D01*
X106975500Y-73606287D01*
X106975500Y-73500000D01*
X115794355Y-73500000D01*
X115814859Y-73668869D01*
X115814860Y-73668874D01*
X115875182Y-73827931D01*
X115883658Y-73840210D01*
X115971817Y-73967929D01*
X116044219Y-74032071D01*
X116099150Y-74080736D01*
X116249773Y-74159789D01*
X116249775Y-74159790D01*
X116414944Y-74200500D01*
X116585056Y-74200500D01*
X116750225Y-74159790D01*
X116829692Y-74118081D01*
X116900849Y-74080736D01*
X116900850Y-74080734D01*
X116900852Y-74080734D01*
X117028183Y-73967929D01*
X117124818Y-73827930D01*
X117185140Y-73668872D01*
X117205645Y-73500000D01*
X117185140Y-73331128D01*
X117124818Y-73172070D01*
X117028183Y-73032071D01*
X116900852Y-72919266D01*
X116900849Y-72919263D01*
X116750226Y-72840210D01*
X116585056Y-72799500D01*
X116414944Y-72799500D01*
X116249773Y-72840210D01*
X116099150Y-72919263D01*
X115971816Y-73032072D01*
X115875182Y-73172068D01*
X115814860Y-73331125D01*
X115814859Y-73331130D01*
X115794355Y-73500000D01*
X106975500Y-73500000D01*
X106975500Y-73393713D01*
X106942246Y-73183757D01*
X106876557Y-72981588D01*
X106780051Y-72792184D01*
X106780049Y-72792181D01*
X106780048Y-72792179D01*
X106655109Y-72620213D01*
X106504792Y-72469896D01*
X106504784Y-72469890D01*
X106340204Y-72350316D01*
X106297540Y-72294989D01*
X106291561Y-72225376D01*
X106324166Y-72163580D01*
X106340199Y-72149686D01*
X106504792Y-72030104D01*
X106655104Y-71879792D01*
X106655106Y-71879788D01*
X106655109Y-71879786D01*
X106780048Y-71707820D01*
X106780047Y-71707820D01*
X106780051Y-71707816D01*
X106876557Y-71518412D01*
X106908533Y-71420000D01*
X144374355Y-71420000D01*
X144394859Y-71588869D01*
X144394860Y-71588874D01*
X144455182Y-71747931D01*
X144510402Y-71827930D01*
X144551817Y-71887929D01*
X144642119Y-71967929D01*
X144679150Y-72000736D01*
X144829773Y-72079789D01*
X144829775Y-72079790D01*
X144994944Y-72120500D01*
X145165056Y-72120500D01*
X145330225Y-72079790D01*
X145424895Y-72030103D01*
X145480849Y-72000736D01*
X145480850Y-72000734D01*
X145480852Y-72000734D01*
X145608183Y-71887929D01*
X145704818Y-71747930D01*
X145765140Y-71588872D01*
X145775931Y-71500000D01*
X158294355Y-71500000D01*
X158314859Y-71668869D01*
X158314860Y-71668874D01*
X158375182Y-71827931D01*
X158437475Y-71918177D01*
X158471817Y-71967929D01*
X158542004Y-72030109D01*
X158599150Y-72080736D01*
X158749773Y-72159789D01*
X158749775Y-72159790D01*
X158914944Y-72200500D01*
X159085056Y-72200500D01*
X159250225Y-72159790D01*
X159329692Y-72118081D01*
X159400849Y-72080736D01*
X159400850Y-72080734D01*
X159400852Y-72080734D01*
X159528183Y-71967929D01*
X159624818Y-71827930D01*
X159685140Y-71668872D01*
X159705645Y-71500000D01*
X159685140Y-71331128D01*
X159679493Y-71316239D01*
X159624817Y-71172068D01*
X159579410Y-71106286D01*
X159528183Y-71032071D01*
X159400852Y-70919266D01*
X159400849Y-70919263D01*
X159250226Y-70840210D01*
X159085056Y-70799500D01*
X158914944Y-70799500D01*
X158749773Y-70840210D01*
X158599150Y-70919263D01*
X158471816Y-71032072D01*
X158375182Y-71172068D01*
X158314860Y-71331125D01*
X158314859Y-71331130D01*
X158294355Y-71500000D01*
X145775931Y-71500000D01*
X145785645Y-71420000D01*
X145765140Y-71251128D01*
X145704818Y-71092070D01*
X145608183Y-70952071D01*
X145480852Y-70839266D01*
X145480849Y-70839263D01*
X145330226Y-70760210D01*
X145165056Y-70719500D01*
X144994944Y-70719500D01*
X144829773Y-70760210D01*
X144679150Y-70839263D01*
X144551816Y-70952072D01*
X144455182Y-71092068D01*
X144394860Y-71251125D01*
X144394859Y-71251130D01*
X144374355Y-71420000D01*
X106908533Y-71420000D01*
X106942246Y-71316243D01*
X106975500Y-71106287D01*
X106975500Y-70893713D01*
X106942246Y-70683757D01*
X106876557Y-70481588D01*
X106780051Y-70292184D01*
X106780049Y-70292181D01*
X106780048Y-70292179D01*
X106655109Y-70120213D01*
X106504792Y-69969896D01*
X106504784Y-69969890D01*
X106340204Y-69850316D01*
X106297540Y-69794989D01*
X106291561Y-69725376D01*
X106324166Y-69663580D01*
X106340199Y-69649686D01*
X106504792Y-69530104D01*
X106655104Y-69379792D01*
X106655106Y-69379788D01*
X106655109Y-69379786D01*
X106780048Y-69207820D01*
X106780047Y-69207820D01*
X106780051Y-69207816D01*
X106876557Y-69018412D01*
X106942246Y-68816243D01*
X106975500Y-68606287D01*
X106975500Y-68393713D01*
X106942246Y-68183757D01*
X106876557Y-67981588D01*
X106780051Y-67792184D01*
X106780049Y-67792181D01*
X106780048Y-67792179D01*
X106655109Y-67620213D01*
X106504786Y-67469890D01*
X106332820Y-67344951D01*
X106143414Y-67248444D01*
X106143413Y-67248443D01*
X106143412Y-67248443D01*
X105941243Y-67182754D01*
X105941241Y-67182753D01*
X105941240Y-67182753D01*
X105779957Y-67157208D01*
X105731287Y-67149500D01*
X105268713Y-67149500D01*
X105220042Y-67157208D01*
X105058760Y-67182753D01*
X104856585Y-67248444D01*
X104667179Y-67344951D01*
X104495213Y-67469890D01*
X104344890Y-67620213D01*
X104219951Y-67792179D01*
X104123444Y-67981585D01*
X104057753Y-68183760D01*
X104024500Y-68393713D01*
X102500000Y-68393713D01*
X102500000Y-65500000D01*
X117794355Y-65500000D01*
X117814859Y-65668869D01*
X117814860Y-65668874D01*
X117875182Y-65827931D01*
X117937475Y-65918177D01*
X117971817Y-65967929D01*
X118037127Y-66025788D01*
X118099150Y-66080736D01*
X118249773Y-66159789D01*
X118249775Y-66159790D01*
X118414944Y-66200500D01*
X118585056Y-66200500D01*
X118750225Y-66159790D01*
X118853541Y-66105565D01*
X118900849Y-66080736D01*
X118900850Y-66080734D01*
X118900852Y-66080734D01*
X118991982Y-66000000D01*
X123094540Y-66000000D01*
X123114326Y-66188256D01*
X123114327Y-66188259D01*
X123172818Y-66368277D01*
X123172821Y-66368284D01*
X123267467Y-66532216D01*
X123394129Y-66672888D01*
X123547265Y-66784148D01*
X123547270Y-66784151D01*
X123720192Y-66861142D01*
X123720197Y-66861144D01*
X123905354Y-66900500D01*
X123905355Y-66900500D01*
X124094644Y-66900500D01*
X124094646Y-66900500D01*
X124279803Y-66861144D01*
X124452730Y-66784151D01*
X124605871Y-66672888D01*
X124732533Y-66532216D01*
X124827179Y-66368284D01*
X124885674Y-66188256D01*
X124905460Y-66000000D01*
X124885674Y-65811744D01*
X124827179Y-65631716D01*
X124732533Y-65467784D01*
X124605871Y-65327112D01*
X124604049Y-65325788D01*
X124452734Y-65215851D01*
X124452729Y-65215848D01*
X124279807Y-65138857D01*
X124279802Y-65138855D01*
X124107640Y-65102262D01*
X124094646Y-65099500D01*
X123905354Y-65099500D01*
X123892360Y-65102262D01*
X123720197Y-65138855D01*
X123720192Y-65138857D01*
X123547270Y-65215848D01*
X123547265Y-65215851D01*
X123394129Y-65327111D01*
X123267466Y-65467785D01*
X123172821Y-65631715D01*
X123172818Y-65631722D01*
X123120982Y-65791258D01*
X123114326Y-65811744D01*
X123094540Y-66000000D01*
X118991982Y-66000000D01*
X119028183Y-65967929D01*
X119124818Y-65827930D01*
X119185140Y-65668872D01*
X119205645Y-65500000D01*
X119185140Y-65331128D01*
X119124818Y-65172070D01*
X119028183Y-65032071D01*
X118900852Y-64919266D01*
X118900849Y-64919263D01*
X118750226Y-64840210D01*
X118585056Y-64799500D01*
X118414944Y-64799500D01*
X118249773Y-64840210D01*
X118099150Y-64919263D01*
X117971816Y-65032072D01*
X117875182Y-65172068D01*
X117814860Y-65331125D01*
X117814859Y-65331130D01*
X117794355Y-65500000D01*
X102500000Y-65500000D01*
X102500000Y-62967500D01*
X107456855Y-62967500D01*
X107477359Y-63136369D01*
X107477360Y-63136374D01*
X107537682Y-63295431D01*
X107595538Y-63379249D01*
X107634317Y-63435429D01*
X107740005Y-63529060D01*
X107761650Y-63548236D01*
X107912273Y-63627289D01*
X107912275Y-63627290D01*
X108077444Y-63668000D01*
X108247556Y-63668000D01*
X108412725Y-63627290D01*
X108492192Y-63585581D01*
X108563349Y-63548236D01*
X108563350Y-63548234D01*
X108563352Y-63548234D01*
X108690683Y-63435429D01*
X108787318Y-63295430D01*
X108823511Y-63199996D01*
X160294435Y-63199996D01*
X160294435Y-63200003D01*
X160314630Y-63379249D01*
X160314631Y-63379254D01*
X160374211Y-63549523D01*
X160470184Y-63702262D01*
X160580241Y-63812319D01*
X160613726Y-63873642D01*
X160608742Y-63943334D01*
X160580241Y-63987681D01*
X160470184Y-64097737D01*
X160374211Y-64250476D01*
X160314631Y-64420745D01*
X160314630Y-64420750D01*
X160294435Y-64599996D01*
X160294435Y-64600003D01*
X160314630Y-64779249D01*
X160314631Y-64779254D01*
X160374211Y-64949523D01*
X160468449Y-65099500D01*
X160470184Y-65102262D01*
X160597738Y-65229816D01*
X160750478Y-65325789D01*
X160920745Y-65385368D01*
X160920754Y-65385369D01*
X160921207Y-65385473D01*
X160921477Y-65385624D01*
X160927318Y-65387668D01*
X160926960Y-65388690D01*
X160982191Y-65419573D01*
X161011377Y-65473017D01*
X161012333Y-65472683D01*
X161014362Y-65478483D01*
X161014523Y-65478777D01*
X161014631Y-65479250D01*
X161014632Y-65479255D01*
X161046538Y-65570437D01*
X161074210Y-65649521D01*
X161099999Y-65690564D01*
X161170184Y-65802262D01*
X161297738Y-65929816D01*
X161450478Y-66025789D01*
X161607502Y-66080734D01*
X161620745Y-66085368D01*
X161620750Y-66085369D01*
X161799996Y-66105565D01*
X161800000Y-66105565D01*
X161800004Y-66105565D01*
X161979249Y-66085369D01*
X161979252Y-66085368D01*
X161979255Y-66085368D01*
X162149522Y-66025789D01*
X162302262Y-65929816D01*
X162412319Y-65819759D01*
X162473642Y-65786274D01*
X162543334Y-65791258D01*
X162587681Y-65819759D01*
X162697738Y-65929816D01*
X162850478Y-66025789D01*
X163007502Y-66080734D01*
X163020745Y-66085368D01*
X163020750Y-66085369D01*
X163199996Y-66105565D01*
X163200000Y-66105565D01*
X163200004Y-66105565D01*
X163379249Y-66085369D01*
X163379252Y-66085368D01*
X163379255Y-66085368D01*
X163549522Y-66025789D01*
X163702262Y-65929816D01*
X163829816Y-65802262D01*
X163925789Y-65649522D01*
X163985368Y-65479255D01*
X163985369Y-65479243D01*
X163985473Y-65478793D01*
X163985624Y-65478522D01*
X163987668Y-65472682D01*
X163988690Y-65473039D01*
X164019573Y-65417809D01*
X164073017Y-65388626D01*
X164072682Y-65387668D01*
X164078504Y-65385630D01*
X164078793Y-65385473D01*
X164079243Y-65385369D01*
X164079255Y-65385368D01*
X164249522Y-65325789D01*
X164402262Y-65229816D01*
X164529816Y-65102262D01*
X164625789Y-64949522D01*
X164685368Y-64779255D01*
X164705565Y-64600000D01*
X164685368Y-64420745D01*
X164625789Y-64250478D01*
X164529816Y-64097738D01*
X164419759Y-63987681D01*
X164386274Y-63926358D01*
X164391258Y-63856666D01*
X164419759Y-63812319D01*
X164529816Y-63702262D01*
X164625789Y-63549522D01*
X164685368Y-63379255D01*
X164705565Y-63200000D01*
X164698396Y-63136374D01*
X164685369Y-63020750D01*
X164685368Y-63020745D01*
X164625788Y-62850476D01*
X164542503Y-62717929D01*
X164529816Y-62697738D01*
X164402262Y-62570184D01*
X164289884Y-62499572D01*
X164249521Y-62474210D01*
X164170437Y-62446538D01*
X164079255Y-62414632D01*
X164079251Y-62414631D01*
X164079250Y-62414631D01*
X164078777Y-62414523D01*
X164078501Y-62414369D01*
X164072683Y-62412333D01*
X164073039Y-62411313D01*
X164017798Y-62380416D01*
X163988626Y-62326982D01*
X163987668Y-62327318D01*
X163985630Y-62321496D01*
X163985473Y-62321207D01*
X163985369Y-62320754D01*
X163985368Y-62320745D01*
X163925789Y-62150478D01*
X163829816Y-61997738D01*
X163702262Y-61870184D01*
X163635017Y-61827931D01*
X163549523Y-61774211D01*
X163379254Y-61714631D01*
X163379249Y-61714630D01*
X163200004Y-61694435D01*
X163199996Y-61694435D01*
X163020750Y-61714630D01*
X163020745Y-61714631D01*
X162850476Y-61774211D01*
X162697737Y-61870184D01*
X162587681Y-61980241D01*
X162526358Y-62013726D01*
X162456666Y-62008742D01*
X162412319Y-61980241D01*
X162302262Y-61870184D01*
X162149523Y-61774211D01*
X161979254Y-61714631D01*
X161979249Y-61714630D01*
X161800004Y-61694435D01*
X161799996Y-61694435D01*
X161620750Y-61714630D01*
X161620745Y-61714631D01*
X161450476Y-61774211D01*
X161297737Y-61870184D01*
X161170184Y-61997737D01*
X161074210Y-62150478D01*
X161014628Y-62320755D01*
X161014518Y-62321241D01*
X161014360Y-62321522D01*
X161012333Y-62327317D01*
X161011317Y-62326961D01*
X160980400Y-62382215D01*
X160926984Y-62411381D01*
X160927317Y-62412333D01*
X160921541Y-62414353D01*
X160921241Y-62414518D01*
X160920755Y-62414628D01*
X160750478Y-62474210D01*
X160597737Y-62570184D01*
X160470184Y-62697737D01*
X160374211Y-62850476D01*
X160314631Y-63020745D01*
X160314630Y-63020750D01*
X160294435Y-63199996D01*
X108823511Y-63199996D01*
X108847640Y-63136372D01*
X108868145Y-62967500D01*
X108847640Y-62798628D01*
X108787318Y-62639570D01*
X108690683Y-62499571D01*
X108563352Y-62386766D01*
X108563349Y-62386763D01*
X108412726Y-62307710D01*
X108247556Y-62267000D01*
X108077444Y-62267000D01*
X107912273Y-62307710D01*
X107761650Y-62386763D01*
X107634316Y-62499572D01*
X107537682Y-62639568D01*
X107477360Y-62798625D01*
X107477359Y-62798630D01*
X107456855Y-62967500D01*
X102500000Y-62967500D01*
X102500000Y-62250000D01*
X126794355Y-62250000D01*
X126814859Y-62418869D01*
X126814860Y-62418874D01*
X126875182Y-62577931D01*
X126917728Y-62639568D01*
X126971817Y-62717929D01*
X127062904Y-62798625D01*
X127099150Y-62830736D01*
X127249773Y-62909789D01*
X127249775Y-62909790D01*
X127414944Y-62950500D01*
X127585056Y-62950500D01*
X127750225Y-62909790D01*
X127829692Y-62868081D01*
X127900849Y-62830736D01*
X127900850Y-62830734D01*
X127900852Y-62830734D01*
X128028183Y-62717929D01*
X128124818Y-62577930D01*
X128185140Y-62418872D01*
X128205645Y-62250000D01*
X128185140Y-62081128D01*
X128124818Y-61922070D01*
X128028183Y-61782071D01*
X127900852Y-61669266D01*
X127900849Y-61669263D01*
X127750226Y-61590210D01*
X127585056Y-61549500D01*
X127414944Y-61549500D01*
X127249773Y-61590210D01*
X127099150Y-61669263D01*
X126971816Y-61782072D01*
X126875182Y-61922068D01*
X126814860Y-62081125D01*
X126814859Y-62081130D01*
X126794355Y-62250000D01*
X102500000Y-62250000D01*
X102500000Y-61500000D01*
X113044355Y-61500000D01*
X113064859Y-61668869D01*
X113064860Y-61668874D01*
X113125182Y-61827931D01*
X113154348Y-61870184D01*
X113221817Y-61967929D01*
X113327505Y-62061560D01*
X113349150Y-62080736D01*
X113499773Y-62159789D01*
X113499775Y-62159790D01*
X113664944Y-62200500D01*
X113835056Y-62200500D01*
X114000225Y-62159790D01*
X114079692Y-62118081D01*
X114150849Y-62080736D01*
X114150850Y-62080734D01*
X114150852Y-62080734D01*
X114278183Y-61967929D01*
X114374818Y-61827930D01*
X114435140Y-61668872D01*
X114455645Y-61500000D01*
X114435140Y-61331128D01*
X114374818Y-61172070D01*
X114278183Y-61032071D01*
X114150852Y-60919266D01*
X114150849Y-60919263D01*
X114000226Y-60840210D01*
X113835056Y-60799500D01*
X113664944Y-60799500D01*
X113499773Y-60840210D01*
X113349150Y-60919263D01*
X113221816Y-61032072D01*
X113125182Y-61172068D01*
X113064860Y-61331125D01*
X113064859Y-61331130D01*
X113044355Y-61500000D01*
X102500000Y-61500000D01*
X102500000Y-60000000D01*
X127044355Y-60000000D01*
X127064859Y-60168869D01*
X127064860Y-60168874D01*
X127125182Y-60327931D01*
X127187475Y-60418177D01*
X127221817Y-60467929D01*
X127327505Y-60561560D01*
X127349150Y-60580736D01*
X127499773Y-60659789D01*
X127499775Y-60659790D01*
X127664944Y-60700500D01*
X127835056Y-60700500D01*
X128000225Y-60659790D01*
X128079692Y-60618081D01*
X128150849Y-60580736D01*
X128150850Y-60580734D01*
X128150852Y-60580734D01*
X128278183Y-60467929D01*
X128374818Y-60327930D01*
X128435140Y-60168872D01*
X128455645Y-60000000D01*
X128435140Y-59831128D01*
X128374818Y-59672070D01*
X128278183Y-59532071D01*
X128150852Y-59419266D01*
X128150849Y-59419263D01*
X128000226Y-59340210D01*
X127835056Y-59299500D01*
X127664944Y-59299500D01*
X127499773Y-59340210D01*
X127349150Y-59419263D01*
X127221816Y-59532072D01*
X127125182Y-59672068D01*
X127064860Y-59831125D01*
X127064859Y-59831130D01*
X127044355Y-60000000D01*
X102500000Y-60000000D01*
X102500000Y-57099499D01*
X102519685Y-57032460D01*
X102572489Y-56986705D01*
X102623996Y-56975499D01*
X103650008Y-56975499D01*
X103752797Y-56964999D01*
X103919334Y-56909814D01*
X104068656Y-56817712D01*
X104192712Y-56693656D01*
X104284814Y-56544334D01*
X104284814Y-56544331D01*
X104288178Y-56538879D01*
X104340126Y-56492154D01*
X104409088Y-56480931D01*
X104473170Y-56508774D01*
X104481398Y-56516294D01*
X104620213Y-56655109D01*
X104792179Y-56780048D01*
X104792181Y-56780049D01*
X104792184Y-56780051D01*
X104981588Y-56876557D01*
X105183757Y-56942246D01*
X105393713Y-56975500D01*
X105393714Y-56975500D01*
X105606286Y-56975500D01*
X105606287Y-56975500D01*
X105816243Y-56942246D01*
X106018412Y-56876557D01*
X106207816Y-56780051D01*
X106305532Y-56709057D01*
X106379786Y-56655109D01*
X106379788Y-56655106D01*
X106379792Y-56655104D01*
X106530104Y-56504792D01*
X106649683Y-56340204D01*
X106705011Y-56297540D01*
X106774624Y-56291561D01*
X106836420Y-56324166D01*
X106850313Y-56340199D01*
X106952560Y-56480931D01*
X106969896Y-56504792D01*
X107120213Y-56655109D01*
X107292179Y-56780048D01*
X107292181Y-56780049D01*
X107292184Y-56780051D01*
X107481588Y-56876557D01*
X107683757Y-56942246D01*
X107893713Y-56975500D01*
X107893714Y-56975500D01*
X108106286Y-56975500D01*
X108106287Y-56975500D01*
X108316243Y-56942246D01*
X108518412Y-56876557D01*
X108707816Y-56780051D01*
X108805532Y-56709057D01*
X108879786Y-56655109D01*
X108879788Y-56655106D01*
X108879792Y-56655104D01*
X109030104Y-56504792D01*
X109149683Y-56340204D01*
X109205011Y-56297540D01*
X109274624Y-56291561D01*
X109336420Y-56324166D01*
X109350313Y-56340199D01*
X109452560Y-56480931D01*
X109469896Y-56504792D01*
X109620213Y-56655109D01*
X109792179Y-56780048D01*
X109792181Y-56780049D01*
X109792184Y-56780051D01*
X109981588Y-56876557D01*
X110183757Y-56942246D01*
X110393713Y-56975500D01*
X110393714Y-56975500D01*
X110606286Y-56975500D01*
X110606287Y-56975500D01*
X110816243Y-56942246D01*
X111018412Y-56876557D01*
X111207816Y-56780051D01*
X111305532Y-56709057D01*
X111379786Y-56655109D01*
X111379788Y-56655106D01*
X111379792Y-56655104D01*
X111530104Y-56504792D01*
X111530106Y-56504788D01*
X111530109Y-56504786D01*
X111655048Y-56332820D01*
X111655047Y-56332820D01*
X111655051Y-56332816D01*
X111751557Y-56143412D01*
X111817246Y-55941243D01*
X111850500Y-55731287D01*
X111850500Y-55268713D01*
X111817246Y-55058757D01*
X111751557Y-54856588D01*
X111655051Y-54667184D01*
X111655049Y-54667181D01*
X111655048Y-54667179D01*
X111575350Y-54557483D01*
X118599500Y-54557483D01*
X118599500Y-56107501D01*
X118599501Y-56107518D01*
X118610000Y-56210296D01*
X118610001Y-56210299D01*
X118655894Y-56348794D01*
X118665186Y-56376834D01*
X118757288Y-56526156D01*
X118881344Y-56650212D01*
X119030666Y-56742314D01*
X119197203Y-56797499D01*
X119299991Y-56808000D01*
X120600008Y-56807999D01*
X120702797Y-56797499D01*
X120869334Y-56742314D01*
X121018656Y-56650212D01*
X121142712Y-56526156D01*
X121234814Y-56376834D01*
X121234814Y-56376831D01*
X121238178Y-56371379D01*
X121290126Y-56324654D01*
X121359088Y-56313431D01*
X121423170Y-56341274D01*
X121431398Y-56348794D01*
X121570213Y-56487609D01*
X121742179Y-56612548D01*
X121742181Y-56612549D01*
X121742184Y-56612551D01*
X121931588Y-56709057D01*
X122133757Y-56774746D01*
X122343713Y-56808000D01*
X122343714Y-56808000D01*
X122556286Y-56808000D01*
X122556287Y-56808000D01*
X122766243Y-56774746D01*
X122968412Y-56709057D01*
X123157816Y-56612551D01*
X123179789Y-56596586D01*
X123329786Y-56487609D01*
X123329788Y-56487606D01*
X123329792Y-56487604D01*
X123480104Y-56337292D01*
X123599683Y-56172704D01*
X123655011Y-56130040D01*
X123724624Y-56124061D01*
X123786420Y-56156666D01*
X123800313Y-56172699D01*
X123910714Y-56324654D01*
X123919896Y-56337292D01*
X124070213Y-56487609D01*
X124242179Y-56612548D01*
X124242181Y-56612549D01*
X124242184Y-56612551D01*
X124431588Y-56709057D01*
X124633757Y-56774746D01*
X124843713Y-56808000D01*
X124843714Y-56808000D01*
X125056286Y-56808000D01*
X125056287Y-56808000D01*
X125266243Y-56774746D01*
X125468412Y-56709057D01*
X125657816Y-56612551D01*
X125679789Y-56596586D01*
X125829786Y-56487609D01*
X125829788Y-56487606D01*
X125829792Y-56487604D01*
X125980104Y-56337292D01*
X126099683Y-56172704D01*
X126155011Y-56130040D01*
X126224624Y-56124061D01*
X126286420Y-56156666D01*
X126300313Y-56172699D01*
X126410714Y-56324654D01*
X126419896Y-56337292D01*
X126570213Y-56487609D01*
X126742179Y-56612548D01*
X126742181Y-56612549D01*
X126742184Y-56612551D01*
X126931588Y-56709057D01*
X127133757Y-56774746D01*
X127343713Y-56808000D01*
X127343714Y-56808000D01*
X127556286Y-56808000D01*
X127556287Y-56808000D01*
X127766243Y-56774746D01*
X127968412Y-56709057D01*
X128157816Y-56612551D01*
X128179789Y-56596586D01*
X128329786Y-56487609D01*
X128329788Y-56487606D01*
X128329792Y-56487604D01*
X128480104Y-56337292D01*
X128599683Y-56172704D01*
X128655011Y-56130040D01*
X128724624Y-56124061D01*
X128786420Y-56156666D01*
X128800313Y-56172699D01*
X128910714Y-56324654D01*
X128919896Y-56337292D01*
X129070213Y-56487609D01*
X129242179Y-56612548D01*
X129242181Y-56612549D01*
X129242184Y-56612551D01*
X129431588Y-56709057D01*
X129633757Y-56774746D01*
X129843713Y-56808000D01*
X129843714Y-56808000D01*
X130056286Y-56808000D01*
X130056287Y-56808000D01*
X130266243Y-56774746D01*
X130468412Y-56709057D01*
X130657816Y-56612551D01*
X130679789Y-56596586D01*
X130829786Y-56487609D01*
X130829788Y-56487606D01*
X130829792Y-56487604D01*
X130980104Y-56337292D01*
X131099683Y-56172704D01*
X131155011Y-56130040D01*
X131224624Y-56124061D01*
X131286420Y-56156666D01*
X131300313Y-56172699D01*
X131410714Y-56324654D01*
X131419896Y-56337292D01*
X131570213Y-56487609D01*
X131742179Y-56612548D01*
X131742181Y-56612549D01*
X131742184Y-56612551D01*
X131931588Y-56709057D01*
X132133757Y-56774746D01*
X132343713Y-56808000D01*
X132343714Y-56808000D01*
X132556286Y-56808000D01*
X132556287Y-56808000D01*
X132766243Y-56774746D01*
X132968412Y-56709057D01*
X133157816Y-56612551D01*
X133179789Y-56596586D01*
X133329786Y-56487609D01*
X133329788Y-56487606D01*
X133329792Y-56487604D01*
X133480104Y-56337292D01*
X133480106Y-56337288D01*
X133480109Y-56337286D01*
X133605048Y-56165320D01*
X133605047Y-56165320D01*
X133605051Y-56165316D01*
X133701557Y-55975912D01*
X133767246Y-55773743D01*
X133800500Y-55563787D01*
X133800500Y-55101213D01*
X133767246Y-54891257D01*
X133701557Y-54689088D01*
X133605051Y-54499684D01*
X133605049Y-54499681D01*
X133605048Y-54499679D01*
X133480109Y-54327713D01*
X133329786Y-54177390D01*
X133157820Y-54052451D01*
X132968414Y-53955944D01*
X132968413Y-53955943D01*
X132968412Y-53955943D01*
X132766243Y-53890254D01*
X132766241Y-53890253D01*
X132766240Y-53890253D01*
X132604957Y-53864708D01*
X132556287Y-53857000D01*
X132343713Y-53857000D01*
X132295042Y-53864708D01*
X132133760Y-53890253D01*
X131931585Y-53955944D01*
X131742179Y-54052451D01*
X131570213Y-54177390D01*
X131419894Y-54327709D01*
X131419890Y-54327714D01*
X131300318Y-54492293D01*
X131244989Y-54534959D01*
X131175375Y-54540938D01*
X131113580Y-54508333D01*
X131099682Y-54492293D01*
X130980109Y-54327714D01*
X130980105Y-54327709D01*
X130829786Y-54177390D01*
X130657820Y-54052451D01*
X130468414Y-53955944D01*
X130468413Y-53955943D01*
X130468412Y-53955943D01*
X130266243Y-53890254D01*
X130266241Y-53890253D01*
X130266240Y-53890253D01*
X130104957Y-53864708D01*
X130056287Y-53857000D01*
X129843713Y-53857000D01*
X129795042Y-53864708D01*
X129633760Y-53890253D01*
X129431585Y-53955944D01*
X129242179Y-54052451D01*
X129070213Y-54177390D01*
X128919894Y-54327709D01*
X128919890Y-54327714D01*
X128800318Y-54492293D01*
X128744989Y-54534959D01*
X128675375Y-54540938D01*
X128613580Y-54508333D01*
X128599682Y-54492293D01*
X128480109Y-54327714D01*
X128480105Y-54327709D01*
X128329786Y-54177390D01*
X128157820Y-54052451D01*
X127968414Y-53955944D01*
X127968413Y-53955943D01*
X127968412Y-53955943D01*
X127766243Y-53890254D01*
X127766241Y-53890253D01*
X127766240Y-53890253D01*
X127604957Y-53864708D01*
X127556287Y-53857000D01*
X127343713Y-53857000D01*
X127295042Y-53864708D01*
X127133760Y-53890253D01*
X126931585Y-53955944D01*
X126742179Y-54052451D01*
X126570213Y-54177390D01*
X126419894Y-54327709D01*
X126419890Y-54327714D01*
X126300318Y-54492293D01*
X126244989Y-54534959D01*
X126175375Y-54540938D01*
X126113580Y-54508333D01*
X126099682Y-54492293D01*
X125980109Y-54327714D01*
X125980105Y-54327709D01*
X125829786Y-54177390D01*
X125657820Y-54052451D01*
X125468414Y-53955944D01*
X125468413Y-53955943D01*
X125468412Y-53955943D01*
X125266243Y-53890254D01*
X125266241Y-53890253D01*
X125266240Y-53890253D01*
X125104957Y-53864708D01*
X125056287Y-53857000D01*
X124843713Y-53857000D01*
X124795042Y-53864708D01*
X124633760Y-53890253D01*
X124431585Y-53955944D01*
X124242179Y-54052451D01*
X124070213Y-54177390D01*
X123919894Y-54327709D01*
X123919890Y-54327714D01*
X123800318Y-54492293D01*
X123744989Y-54534959D01*
X123675375Y-54540938D01*
X123613580Y-54508333D01*
X123599682Y-54492293D01*
X123480109Y-54327714D01*
X123480105Y-54327709D01*
X123329786Y-54177390D01*
X123157820Y-54052451D01*
X122968414Y-53955944D01*
X122968413Y-53955943D01*
X122968412Y-53955943D01*
X122766243Y-53890254D01*
X122766241Y-53890253D01*
X122766240Y-53890253D01*
X122604957Y-53864708D01*
X122556287Y-53857000D01*
X122343713Y-53857000D01*
X122295042Y-53864708D01*
X122133760Y-53890253D01*
X121931585Y-53955944D01*
X121742179Y-54052451D01*
X121570215Y-54177389D01*
X121431398Y-54316206D01*
X121370075Y-54349690D01*
X121300383Y-54344706D01*
X121244450Y-54302834D01*
X121238178Y-54293620D01*
X121142712Y-54138844D01*
X121018657Y-54014789D01*
X121018656Y-54014788D01*
X120869334Y-53922686D01*
X120702797Y-53867501D01*
X120702795Y-53867500D01*
X120600010Y-53857000D01*
X119299998Y-53857000D01*
X119299981Y-53857001D01*
X119197203Y-53867500D01*
X119197200Y-53867501D01*
X119030668Y-53922685D01*
X119030663Y-53922687D01*
X118881342Y-54014789D01*
X118757289Y-54138842D01*
X118665187Y-54288163D01*
X118665185Y-54288168D01*
X118644799Y-54349690D01*
X118610001Y-54454703D01*
X118610001Y-54454704D01*
X118610000Y-54454704D01*
X118599500Y-54557483D01*
X111575350Y-54557483D01*
X111530109Y-54495213D01*
X111379786Y-54344890D01*
X111207820Y-54219951D01*
X111018414Y-54123444D01*
X111018413Y-54123443D01*
X111018412Y-54123443D01*
X110816243Y-54057754D01*
X110816241Y-54057753D01*
X110816240Y-54057753D01*
X110654957Y-54032208D01*
X110606287Y-54024500D01*
X110393713Y-54024500D01*
X110345042Y-54032208D01*
X110183760Y-54057753D01*
X109981585Y-54123444D01*
X109792179Y-54219951D01*
X109620213Y-54344890D01*
X109469894Y-54495209D01*
X109469890Y-54495214D01*
X109350318Y-54659793D01*
X109294989Y-54702459D01*
X109225375Y-54708438D01*
X109163580Y-54675833D01*
X109149682Y-54659793D01*
X109030109Y-54495214D01*
X109030105Y-54495209D01*
X108879786Y-54344890D01*
X108707820Y-54219951D01*
X108518414Y-54123444D01*
X108518413Y-54123443D01*
X108518412Y-54123443D01*
X108316243Y-54057754D01*
X108316241Y-54057753D01*
X108316240Y-54057753D01*
X108154957Y-54032208D01*
X108106287Y-54024500D01*
X107893713Y-54024500D01*
X107845042Y-54032208D01*
X107683760Y-54057753D01*
X107481585Y-54123444D01*
X107292179Y-54219951D01*
X107120213Y-54344890D01*
X106969894Y-54495209D01*
X106969890Y-54495214D01*
X106850318Y-54659793D01*
X106794989Y-54702459D01*
X106725375Y-54708438D01*
X106663580Y-54675833D01*
X106649682Y-54659793D01*
X106530109Y-54495214D01*
X106530105Y-54495209D01*
X106379786Y-54344890D01*
X106207820Y-54219951D01*
X106018414Y-54123444D01*
X106018413Y-54123443D01*
X106018412Y-54123443D01*
X105816243Y-54057754D01*
X105816241Y-54057753D01*
X105816240Y-54057753D01*
X105654957Y-54032208D01*
X105606287Y-54024500D01*
X105393713Y-54024500D01*
X105345042Y-54032208D01*
X105183760Y-54057753D01*
X104981585Y-54123444D01*
X104792179Y-54219951D01*
X104620215Y-54344889D01*
X104481398Y-54483706D01*
X104420075Y-54517190D01*
X104350383Y-54512206D01*
X104294450Y-54470334D01*
X104288178Y-54461120D01*
X104192712Y-54306344D01*
X104068657Y-54182289D01*
X104068656Y-54182288D01*
X103919334Y-54090186D01*
X103752797Y-54035001D01*
X103752795Y-54035000D01*
X103650016Y-54024500D01*
X102624000Y-54024500D01*
X102556961Y-54004815D01*
X102511206Y-53952011D01*
X102500000Y-53900500D01*
X102500000Y-50624000D01*
X102519685Y-50556961D01*
X102572489Y-50511206D01*
X102624000Y-50500000D01*
X139876000Y-50500000D01*
X139943039Y-50519685D01*
G37*
G04 #@! TD.AperFunction*
M02*
