G04 #@! TF.GenerationSoftware,KiCad,Pcbnew,8.0.8*
G04 #@! TF.CreationDate,2025-01-30T15:17:17-05:00*
G04 #@! TF.ProjectId,FORWARD-PCB,464f5257-4152-4442-9d50-43422e6b6963,rev?*
G04 #@! TF.SameCoordinates,Original*
G04 #@! TF.FileFunction,Legend,Bot*
G04 #@! TF.FilePolarity,Positive*
%FSLAX46Y46*%
G04 Gerber Fmt 4.6, Leading zero omitted, Abs format (unit mm)*
G04 Created by KiCad (PCBNEW 8.0.8) date 2025-01-30 15:17:17*
%MOMM*%
%LPD*%
G01*
G04 APERTURE LIST*
G04 Aperture macros list*
%AMRoundRect*
0 Rectangle with rounded corners*
0 $1 Rounding radius*
0 $2 $3 $4 $5 $6 $7 $8 $9 X,Y pos of 4 corners*
0 Add a 4 corners polygon primitive as box body*
4,1,4,$2,$3,$4,$5,$6,$7,$8,$9,$2,$3,0*
0 Add four circle primitives for the rounded corners*
1,1,$1+$1,$2,$3*
1,1,$1+$1,$4,$5*
1,1,$1+$1,$6,$7*
1,1,$1+$1,$8,$9*
0 Add four rect primitives between the rounded corners*
20,1,$1+$1,$2,$3,$4,$5,0*
20,1,$1+$1,$4,$5,$6,$7,0*
20,1,$1+$1,$6,$7,$8,$9,0*
20,1,$1+$1,$8,$9,$2,$3,0*%
G04 Aperture macros list end*
%ADD10RoundRect,0.250000X0.725000X-0.600000X0.725000X0.600000X-0.725000X0.600000X-0.725000X-0.600000X0*%
%ADD11O,1.950000X1.700000*%
%ADD12O,1.800000X1.100000*%
%ADD13O,2.200000X1.100000*%
%ADD14RoundRect,0.250000X-0.600000X-0.725000X0.600000X-0.725000X0.600000X0.725000X-0.600000X0.725000X0*%
%ADD15O,1.700000X1.950000*%
%ADD16R,1.700000X1.700000*%
%ADD17O,1.700000X1.700000*%
%ADD18RoundRect,0.250000X-0.725000X0.600000X-0.725000X-0.600000X0.725000X-0.600000X0.725000X0.600000X0*%
%ADD19RoundRect,0.250000X-0.650000X-1.550000X0.650000X-1.550000X0.650000X1.550000X-0.650000X1.550000X0*%
%ADD20O,1.800000X3.600000*%
%ADD21C,1.100000*%
%ADD22R,2.200000X2.200000*%
%ADD23C,2.200000*%
G04 APERTURE END LIST*
%LPC*%
D10*
X105500000Y-76000000D03*
D11*
X105500000Y-73500000D03*
X105500000Y-71000000D03*
X105500000Y-68500000D03*
D12*
X177150000Y-141750000D03*
D13*
X179950000Y-143900000D03*
D12*
X182750000Y-141750000D03*
D14*
X119950000Y-55332500D03*
D15*
X122450000Y-55332500D03*
X124950000Y-55332500D03*
X127450000Y-55332500D03*
X129950000Y-55332500D03*
X132450000Y-55332500D03*
D16*
X117000000Y-87125000D03*
D17*
X117000000Y-89665000D03*
X117000000Y-92205000D03*
X117000000Y-94745000D03*
X117000000Y-97285000D03*
X117000000Y-99825000D03*
X117000000Y-102365000D03*
X117000000Y-104905000D03*
D18*
X195967500Y-80500000D03*
D11*
X195967500Y-83000000D03*
X195967500Y-85500000D03*
X195967500Y-88000000D03*
D19*
X106020000Y-138500000D03*
D20*
X109830000Y-138500000D03*
X113640000Y-138500000D03*
X117450000Y-138500000D03*
X121260000Y-138500000D03*
X125070000Y-138500000D03*
X128880000Y-138500000D03*
X132690000Y-138500000D03*
X136500000Y-138500000D03*
X140310000Y-138500000D03*
X144120000Y-138500000D03*
X147930000Y-138500000D03*
X151740000Y-138500000D03*
D21*
X103960000Y-109960000D03*
X103960000Y-112500000D03*
X103960000Y-115040000D03*
D22*
X106500000Y-109960000D03*
D23*
X106500000Y-112500000D03*
X106500000Y-115040000D03*
D14*
X103000000Y-55500000D03*
D15*
X105500000Y-55500000D03*
X108000000Y-55500000D03*
X110500000Y-55500000D03*
D18*
X195967500Y-98750000D03*
D11*
X195967500Y-101250000D03*
X195967500Y-103750000D03*
X195967500Y-106250000D03*
%LPD*%
M02*
