G04 #@! TF.GenerationSoftware,KiCad,Pcbnew,8.0.8*
G04 #@! TF.CreationDate,2025-01-30T15:17:17-05:00*
G04 #@! TF.ProjectId,FORWARD-PCB,464f5257-4152-4442-9d50-43422e6b6963,rev?*
G04 #@! TF.SameCoordinates,Original*
G04 #@! TF.FileFunction,Soldermask,Top*
G04 #@! TF.FilePolarity,Negative*
%FSLAX46Y46*%
G04 Gerber Fmt 4.6, Leading zero omitted, Abs format (unit mm)*
G04 Created by KiCad (PCBNEW 8.0.8) date 2025-01-30 15:17:17*
%MOMM*%
%LPD*%
G01*
G04 APERTURE LIST*
G04 Aperture macros list*
%AMRoundRect*
0 Rectangle with rounded corners*
0 $1 Rounding radius*
0 $2 $3 $4 $5 $6 $7 $8 $9 X,Y pos of 4 corners*
0 Add a 4 corners polygon primitive as box body*
4,1,4,$2,$3,$4,$5,$6,$7,$8,$9,$2,$3,0*
0 Add four circle primitives for the rounded corners*
1,1,$1+$1,$2,$3*
1,1,$1+$1,$4,$5*
1,1,$1+$1,$6,$7*
1,1,$1+$1,$8,$9*
0 Add four rect primitives between the rounded corners*
20,1,$1+$1,$2,$3,$4,$5,0*
20,1,$1+$1,$4,$5,$6,$7,0*
20,1,$1+$1,$6,$7,$8,$9,0*
20,1,$1+$1,$8,$9,$2,$3,0*%
G04 Aperture macros list end*
%ADD10RoundRect,0.250000X0.725000X-0.600000X0.725000X0.600000X-0.725000X0.600000X-0.725000X-0.600000X0*%
%ADD11O,1.950000X1.700000*%
%ADD12R,0.450000X1.500000*%
%ADD13O,1.800000X1.100000*%
%ADD14O,2.200000X1.100000*%
%ADD15RoundRect,0.250000X0.262500X0.450000X-0.262500X0.450000X-0.262500X-0.450000X0.262500X-0.450000X0*%
%ADD16RoundRect,0.250000X-0.450000X0.262500X-0.450000X-0.262500X0.450000X-0.262500X0.450000X0.262500X0*%
%ADD17R,1.000000X1.000000*%
%ADD18RoundRect,0.250000X-0.600000X-0.725000X0.600000X-0.725000X0.600000X0.725000X-0.600000X0.725000X0*%
%ADD19O,1.700000X1.950000*%
%ADD20RoundRect,0.102000X-0.300000X0.400000X-0.300000X-0.400000X0.300000X-0.400000X0.300000X0.400000X0*%
%ADD21RoundRect,0.250000X-0.250000X-0.475000X0.250000X-0.475000X0.250000X0.475000X-0.250000X0.475000X0*%
%ADD22RoundRect,0.250000X-0.475000X0.250000X-0.475000X-0.250000X0.475000X-0.250000X0.475000X0.250000X0*%
%ADD23R,1.250000X1.000000*%
%ADD24R,1.700000X1.700000*%
%ADD25O,1.700000X1.700000*%
%ADD26RoundRect,0.243750X-0.456250X0.243750X-0.456250X-0.243750X0.456250X-0.243750X0.456250X0.243750X0*%
%ADD27RoundRect,0.250000X-0.262500X-0.450000X0.262500X-0.450000X0.262500X0.450000X-0.262500X0.450000X0*%
%ADD28RoundRect,0.250000X-0.725000X0.600000X-0.725000X-0.600000X0.725000X-0.600000X0.725000X0.600000X0*%
%ADD29RoundRect,0.102000X-0.400000X-0.300000X0.400000X-0.300000X0.400000X0.300000X-0.400000X0.300000X0*%
%ADD30RoundRect,0.250000X-0.650000X-1.550000X0.650000X-1.550000X0.650000X1.550000X-0.650000X1.550000X0*%
%ADD31O,1.800000X3.600000*%
%ADD32C,1.100000*%
%ADD33R,2.200000X2.200000*%
%ADD34C,2.200000*%
%ADD35RoundRect,0.250000X0.250000X0.475000X-0.250000X0.475000X-0.250000X-0.475000X0.250000X-0.475000X0*%
%ADD36RoundRect,0.102000X0.240000X0.200000X-0.240000X0.200000X-0.240000X-0.200000X0.240000X-0.200000X0*%
%ADD37R,1.500000X0.900000*%
%ADD38R,0.900000X1.500000*%
%ADD39C,0.600000*%
%ADD40R,3.800000X3.800000*%
%ADD41RoundRect,0.102000X-0.230000X0.520000X-0.230000X-0.520000X0.230000X-0.520000X0.230000X0.520000X0*%
%ADD42RoundRect,0.102000X-0.200000X0.240000X-0.200000X-0.240000X0.200000X-0.240000X0.200000X0.240000X0*%
%ADD43RoundRect,0.062500X-0.337500X-0.062500X0.337500X-0.062500X0.337500X0.062500X-0.337500X0.062500X0*%
%ADD44RoundRect,0.062500X-0.062500X-0.337500X0.062500X-0.337500X0.062500X0.337500X-0.062500X0.337500X0*%
%ADD45R,3.350000X3.350000*%
%ADD46RoundRect,0.250000X0.450000X-0.262500X0.450000X0.262500X-0.450000X0.262500X-0.450000X-0.262500X0*%
G04 APERTURE END LIST*
D10*
X105500000Y-76000000D03*
D11*
X105500000Y-73500000D03*
X105500000Y-71000000D03*
X105500000Y-68500000D03*
D12*
X178650000Y-142000000D03*
X179300000Y-142000000D03*
X179950000Y-142000000D03*
X180600000Y-142000000D03*
X181250000Y-142000000D03*
D13*
X177150000Y-141750000D03*
D14*
X179950000Y-143900000D03*
D13*
X182750000Y-141750000D03*
D15*
X107912500Y-91205000D03*
X106087500Y-91205000D03*
D16*
X187600000Y-76675000D03*
X187600000Y-78500000D03*
D17*
X146750000Y-101250000D03*
D18*
X119950000Y-55332500D03*
D19*
X122450000Y-55332500D03*
X124950000Y-55332500D03*
X127450000Y-55332500D03*
X129950000Y-55332500D03*
X132450000Y-55332500D03*
D20*
X167619740Y-106490000D03*
X165719740Y-106490000D03*
X166669740Y-108510000D03*
D21*
X172050000Y-120500000D03*
X173950000Y-120500000D03*
D22*
X166619740Y-113600000D03*
X166619740Y-115500000D03*
D23*
X186875000Y-141250000D03*
X194625000Y-141250000D03*
D24*
X117000000Y-87125000D03*
D25*
X117000000Y-89665000D03*
X117000000Y-92205000D03*
X117000000Y-94745000D03*
X117000000Y-97285000D03*
X117000000Y-99825000D03*
X117000000Y-102365000D03*
X117000000Y-104905000D03*
D16*
X153750000Y-121087500D03*
X153750000Y-122912500D03*
D26*
X174250000Y-100312500D03*
X174250000Y-102187500D03*
D16*
X117062500Y-77175000D03*
X117062500Y-79000000D03*
D21*
X141719740Y-108000000D03*
X143619740Y-108000000D03*
D27*
X152837500Y-86750000D03*
X154662500Y-86750000D03*
D16*
X162119740Y-103587500D03*
X162119740Y-105412500D03*
D27*
X146675000Y-122000000D03*
X148500000Y-122000000D03*
D28*
X195967500Y-80500000D03*
D11*
X195967500Y-83000000D03*
X195967500Y-85500000D03*
X195967500Y-88000000D03*
D21*
X146119740Y-108000000D03*
X148019740Y-108000000D03*
D29*
X167599740Y-101560000D03*
X167599740Y-103460000D03*
X169619740Y-102510000D03*
D27*
X165707240Y-97000000D03*
X167532240Y-97000000D03*
D23*
X160625000Y-141250000D03*
X168375000Y-141250000D03*
D15*
X188412500Y-72000000D03*
X186587500Y-72000000D03*
D30*
X106020000Y-138500000D03*
D31*
X109830000Y-138500000D03*
X113640000Y-138500000D03*
X117450000Y-138500000D03*
X121260000Y-138500000D03*
X125070000Y-138500000D03*
X128880000Y-138500000D03*
X132690000Y-138500000D03*
X136500000Y-138500000D03*
X140310000Y-138500000D03*
X144120000Y-138500000D03*
X147930000Y-138500000D03*
X151740000Y-138500000D03*
D27*
X104587500Y-61000000D03*
X106412500Y-61000000D03*
D15*
X172532240Y-113500000D03*
X170707240Y-113500000D03*
D21*
X150050000Y-77500000D03*
X151950000Y-77500000D03*
D32*
X103960000Y-109960000D03*
X103960000Y-112500000D03*
X103960000Y-115040000D03*
D33*
X106500000Y-109960000D03*
D34*
X106500000Y-112500000D03*
X106500000Y-115040000D03*
D16*
X169000000Y-84087500D03*
X169000000Y-85912500D03*
X172500000Y-80087500D03*
X172500000Y-81912500D03*
D35*
X143700000Y-123500000D03*
X141800000Y-123500000D03*
D36*
X161119740Y-122500000D03*
X159799740Y-122500000D03*
D37*
X155250000Y-56180000D03*
X155250000Y-57450000D03*
X155250000Y-58720000D03*
X155250000Y-59990000D03*
X155250000Y-61260000D03*
X155250000Y-62530000D03*
X155250000Y-63800000D03*
X155250000Y-65070000D03*
X155250000Y-66340000D03*
X155250000Y-67610000D03*
X155250000Y-68880000D03*
X155250000Y-70150000D03*
X155250000Y-71420000D03*
X155250000Y-72690000D03*
D38*
X158290000Y-73940000D03*
X159560000Y-73940000D03*
X160830000Y-73940000D03*
X162100000Y-73940000D03*
X163370000Y-73940000D03*
X164640000Y-73940000D03*
X165910000Y-73940000D03*
X167180000Y-73940000D03*
X168450000Y-73940000D03*
X169720000Y-73940000D03*
D37*
X172750000Y-72690000D03*
X172750000Y-71420000D03*
X172750000Y-70150000D03*
X172750000Y-68880000D03*
X172750000Y-67610000D03*
X172750000Y-66340000D03*
X172750000Y-65070000D03*
X172750000Y-63800000D03*
X172750000Y-62530000D03*
X172750000Y-61260000D03*
X172750000Y-59990000D03*
X172750000Y-58720000D03*
X172750000Y-57450000D03*
X172750000Y-56180000D03*
D39*
X161100000Y-63200000D03*
X161100000Y-64600000D03*
X161800000Y-62500000D03*
X161800000Y-63900000D03*
X161800000Y-65300000D03*
X162475000Y-63200000D03*
X162475000Y-64600000D03*
D40*
X162500000Y-63900000D03*
D39*
X163200000Y-62500000D03*
X163200000Y-63900000D03*
X163200000Y-65300000D03*
X163900000Y-63200000D03*
X163900000Y-64600000D03*
D15*
X154532240Y-103500000D03*
X152707240Y-103500000D03*
D16*
X110412500Y-61087500D03*
X110412500Y-62912500D03*
D41*
X143750000Y-88690000D03*
X143750000Y-86310000D03*
D42*
X173250000Y-138590000D03*
X173250000Y-139910000D03*
D36*
X140939740Y-112500000D03*
X139619740Y-112500000D03*
D27*
X111087500Y-76500000D03*
X112912500Y-76500000D03*
D18*
X103000000Y-55500000D03*
D19*
X105500000Y-55500000D03*
X108000000Y-55500000D03*
X110500000Y-55500000D03*
D35*
X145950000Y-77500000D03*
X144050000Y-77500000D03*
D16*
X183700000Y-88587500D03*
X183700000Y-90412500D03*
D43*
X151049740Y-111000000D03*
X151049740Y-111500000D03*
X151049740Y-112000000D03*
X151049740Y-112500000D03*
X151049740Y-113000000D03*
X151049740Y-113500000D03*
X151049740Y-114000000D03*
D44*
X151999740Y-114950000D03*
X152499740Y-114950000D03*
X152999740Y-114950000D03*
X153499740Y-114950000D03*
X153999740Y-114950000D03*
X154499740Y-114950000D03*
X154999740Y-114950000D03*
D43*
X155949740Y-114000000D03*
X155949740Y-113500000D03*
X155949740Y-113000000D03*
X155949740Y-112500000D03*
X155949740Y-112000000D03*
X155949740Y-111500000D03*
X155949740Y-111000000D03*
D44*
X154999740Y-110050000D03*
X154499740Y-110050000D03*
X153999740Y-110050000D03*
X153499740Y-110050000D03*
X152999740Y-110050000D03*
X152499740Y-110050000D03*
X151999740Y-110050000D03*
D45*
X153499740Y-112500000D03*
D46*
X145619740Y-117412500D03*
X145619740Y-115587500D03*
D16*
X110500000Y-98292500D03*
X110500000Y-100117500D03*
D28*
X195967500Y-98750000D03*
D11*
X195967500Y-101250000D03*
X195967500Y-103750000D03*
X195967500Y-106250000D03*
D21*
X148050000Y-86500000D03*
X149950000Y-86500000D03*
D15*
X187412500Y-87500000D03*
X185587500Y-87500000D03*
M02*
