%TF.GenerationSoftware,KiCad,Pcbnew,8.0.8*%
%TF.CreationDate,2025-01-30T15:17:23-05:00*%
%TF.ProjectId,FORWARD-PCB,464f5257-4152-4442-9d50-43422e6b6963,rev?*%
%TF.SameCoordinates,Original*%
%TF.FileFunction,Drillmap*%
%TF.FilePolarity,Positive*%
%FSLAX45Y45*%
G04 Gerber Fmt 4.5, Leading zero omitted, Abs format (unit mm)*
G04 Created by KiCad (PCBNEW 8.0.8) date 2025-01-30 15:17:23*
%MOMM*%
%LPD*%
G01*
G04 APERTURE LIST*
%ADD10C,0.100000*%
%ADD11C,0.200000*%
%ADD12C,0.110000*%
G04 APERTURE END LIST*
D10*
X10150000Y-4850000D02*
X19950000Y-4850000D01*
X19950000Y-14600000D01*
X10150000Y-14600000D01*
X10150000Y-4850000D01*
D11*
D12*
X10341000Y-10941000D02*
X10451000Y-11051000D01*
X10451000Y-10941000D02*
X10341000Y-11051000D01*
X10341000Y-11195000D02*
X10451000Y-11305000D01*
X10451000Y-11195000D02*
X10341000Y-11305000D01*
X10341000Y-11449000D02*
X10451000Y-11559000D01*
X10451000Y-11449000D02*
X10341000Y-11559000D01*
D11*
X10405777Y-14916484D02*
X10405777Y-14716484D01*
X10405777Y-14716484D02*
X10453396Y-14716484D01*
X10453396Y-14716484D02*
X10481967Y-14726008D01*
X10481967Y-14726008D02*
X10501015Y-14745055D01*
X10501015Y-14745055D02*
X10510539Y-14764103D01*
X10510539Y-14764103D02*
X10520063Y-14802198D01*
X10520063Y-14802198D02*
X10520063Y-14830769D01*
X10520063Y-14830769D02*
X10510539Y-14868865D01*
X10510539Y-14868865D02*
X10501015Y-14887912D01*
X10501015Y-14887912D02*
X10481967Y-14906960D01*
X10481967Y-14906960D02*
X10453396Y-14916484D01*
X10453396Y-14916484D02*
X10405777Y-14916484D01*
X10605777Y-14916484D02*
X10605777Y-14783150D01*
X10605777Y-14821246D02*
X10615301Y-14802198D01*
X10615301Y-14802198D02*
X10624824Y-14792674D01*
X10624824Y-14792674D02*
X10643872Y-14783150D01*
X10643872Y-14783150D02*
X10662920Y-14783150D01*
X10729586Y-14916484D02*
X10729586Y-14783150D01*
X10729586Y-14716484D02*
X10720063Y-14726008D01*
X10720063Y-14726008D02*
X10729586Y-14735531D01*
X10729586Y-14735531D02*
X10739110Y-14726008D01*
X10739110Y-14726008D02*
X10729586Y-14716484D01*
X10729586Y-14716484D02*
X10729586Y-14735531D01*
X10853396Y-14916484D02*
X10834348Y-14906960D01*
X10834348Y-14906960D02*
X10824824Y-14887912D01*
X10824824Y-14887912D02*
X10824824Y-14716484D01*
X10958158Y-14916484D02*
X10939110Y-14906960D01*
X10939110Y-14906960D02*
X10929586Y-14887912D01*
X10929586Y-14887912D02*
X10929586Y-14716484D01*
X11186729Y-14916484D02*
X11186729Y-14716484D01*
X11186729Y-14716484D02*
X11253396Y-14859341D01*
X11253396Y-14859341D02*
X11320062Y-14716484D01*
X11320062Y-14716484D02*
X11320062Y-14916484D01*
X11501015Y-14916484D02*
X11501015Y-14811722D01*
X11501015Y-14811722D02*
X11491491Y-14792674D01*
X11491491Y-14792674D02*
X11472443Y-14783150D01*
X11472443Y-14783150D02*
X11434348Y-14783150D01*
X11434348Y-14783150D02*
X11415301Y-14792674D01*
X11501015Y-14906960D02*
X11481967Y-14916484D01*
X11481967Y-14916484D02*
X11434348Y-14916484D01*
X11434348Y-14916484D02*
X11415301Y-14906960D01*
X11415301Y-14906960D02*
X11405777Y-14887912D01*
X11405777Y-14887912D02*
X11405777Y-14868865D01*
X11405777Y-14868865D02*
X11415301Y-14849817D01*
X11415301Y-14849817D02*
X11434348Y-14840293D01*
X11434348Y-14840293D02*
X11481967Y-14840293D01*
X11481967Y-14840293D02*
X11501015Y-14830769D01*
X11596253Y-14783150D02*
X11596253Y-14983150D01*
X11596253Y-14792674D02*
X11615301Y-14783150D01*
X11615301Y-14783150D02*
X11653396Y-14783150D01*
X11653396Y-14783150D02*
X11672443Y-14792674D01*
X11672443Y-14792674D02*
X11681967Y-14802198D01*
X11681967Y-14802198D02*
X11691491Y-14821246D01*
X11691491Y-14821246D02*
X11691491Y-14878388D01*
X11691491Y-14878388D02*
X11681967Y-14897436D01*
X11681967Y-14897436D02*
X11672443Y-14906960D01*
X11672443Y-14906960D02*
X11653396Y-14916484D01*
X11653396Y-14916484D02*
X11615301Y-14916484D01*
X11615301Y-14916484D02*
X11596253Y-14906960D01*
X11777205Y-14897436D02*
X11786729Y-14906960D01*
X11786729Y-14906960D02*
X11777205Y-14916484D01*
X11777205Y-14916484D02*
X11767682Y-14906960D01*
X11767682Y-14906960D02*
X11777205Y-14897436D01*
X11777205Y-14897436D02*
X11777205Y-14916484D01*
X11777205Y-14792674D02*
X11786729Y-14802198D01*
X11786729Y-14802198D02*
X11777205Y-14811722D01*
X11777205Y-14811722D02*
X11767682Y-14802198D01*
X11767682Y-14802198D02*
X11777205Y-14792674D01*
X11777205Y-14792674D02*
X11777205Y-14811722D01*
D12*
X10035000Y-15190000D02*
X10145000Y-15300000D01*
X10145000Y-15190000D02*
X10035000Y-15300000D01*
D11*
X10510539Y-15336484D02*
X10396253Y-15336484D01*
X10453396Y-15336484D02*
X10453396Y-15136484D01*
X10453396Y-15136484D02*
X10434348Y-15165055D01*
X10434348Y-15165055D02*
X10415301Y-15184103D01*
X10415301Y-15184103D02*
X10396253Y-15193627D01*
X10596253Y-15317436D02*
X10605777Y-15326960D01*
X10605777Y-15326960D02*
X10596253Y-15336484D01*
X10596253Y-15336484D02*
X10586729Y-15326960D01*
X10586729Y-15326960D02*
X10596253Y-15317436D01*
X10596253Y-15317436D02*
X10596253Y-15336484D01*
X10796253Y-15336484D02*
X10681967Y-15336484D01*
X10739110Y-15336484D02*
X10739110Y-15136484D01*
X10739110Y-15136484D02*
X10720063Y-15165055D01*
X10720063Y-15165055D02*
X10701015Y-15184103D01*
X10701015Y-15184103D02*
X10681967Y-15193627D01*
X10920063Y-15136484D02*
X10939110Y-15136484D01*
X10939110Y-15136484D02*
X10958158Y-15146008D01*
X10958158Y-15146008D02*
X10967682Y-15155531D01*
X10967682Y-15155531D02*
X10977205Y-15174579D01*
X10977205Y-15174579D02*
X10986729Y-15212674D01*
X10986729Y-15212674D02*
X10986729Y-15260293D01*
X10986729Y-15260293D02*
X10977205Y-15298388D01*
X10977205Y-15298388D02*
X10967682Y-15317436D01*
X10967682Y-15317436D02*
X10958158Y-15326960D01*
X10958158Y-15326960D02*
X10939110Y-15336484D01*
X10939110Y-15336484D02*
X10920063Y-15336484D01*
X10920063Y-15336484D02*
X10901015Y-15326960D01*
X10901015Y-15326960D02*
X10891491Y-15317436D01*
X10891491Y-15317436D02*
X10881967Y-15298388D01*
X10881967Y-15298388D02*
X10872444Y-15260293D01*
X10872444Y-15260293D02*
X10872444Y-15212674D01*
X10872444Y-15212674D02*
X10881967Y-15174579D01*
X10881967Y-15174579D02*
X10891491Y-15155531D01*
X10891491Y-15155531D02*
X10901015Y-15146008D01*
X10901015Y-15146008D02*
X10920063Y-15136484D01*
X11110539Y-15136484D02*
X11129586Y-15136484D01*
X11129586Y-15136484D02*
X11148634Y-15146008D01*
X11148634Y-15146008D02*
X11158158Y-15155531D01*
X11158158Y-15155531D02*
X11167682Y-15174579D01*
X11167682Y-15174579D02*
X11177205Y-15212674D01*
X11177205Y-15212674D02*
X11177205Y-15260293D01*
X11177205Y-15260293D02*
X11167682Y-15298388D01*
X11167682Y-15298388D02*
X11158158Y-15317436D01*
X11158158Y-15317436D02*
X11148634Y-15326960D01*
X11148634Y-15326960D02*
X11129586Y-15336484D01*
X11129586Y-15336484D02*
X11110539Y-15336484D01*
X11110539Y-15336484D02*
X11091491Y-15326960D01*
X11091491Y-15326960D02*
X11081967Y-15317436D01*
X11081967Y-15317436D02*
X11072444Y-15298388D01*
X11072444Y-15298388D02*
X11062920Y-15260293D01*
X11062920Y-15260293D02*
X11062920Y-15212674D01*
X11062920Y-15212674D02*
X11072444Y-15174579D01*
X11072444Y-15174579D02*
X11081967Y-15155531D01*
X11081967Y-15155531D02*
X11091491Y-15146008D01*
X11091491Y-15146008D02*
X11110539Y-15136484D01*
X11262920Y-15336484D02*
X11262920Y-15203150D01*
X11262920Y-15222198D02*
X11272443Y-15212674D01*
X11272443Y-15212674D02*
X11291491Y-15203150D01*
X11291491Y-15203150D02*
X11320063Y-15203150D01*
X11320063Y-15203150D02*
X11339110Y-15212674D01*
X11339110Y-15212674D02*
X11348634Y-15231722D01*
X11348634Y-15231722D02*
X11348634Y-15336484D01*
X11348634Y-15231722D02*
X11358158Y-15212674D01*
X11358158Y-15212674D02*
X11377205Y-15203150D01*
X11377205Y-15203150D02*
X11405777Y-15203150D01*
X11405777Y-15203150D02*
X11424824Y-15212674D01*
X11424824Y-15212674D02*
X11434348Y-15231722D01*
X11434348Y-15231722D02*
X11434348Y-15336484D01*
X11529586Y-15336484D02*
X11529586Y-15203150D01*
X11529586Y-15222198D02*
X11539110Y-15212674D01*
X11539110Y-15212674D02*
X11558158Y-15203150D01*
X11558158Y-15203150D02*
X11586729Y-15203150D01*
X11586729Y-15203150D02*
X11605777Y-15212674D01*
X11605777Y-15212674D02*
X11615301Y-15231722D01*
X11615301Y-15231722D02*
X11615301Y-15336484D01*
X11615301Y-15231722D02*
X11624824Y-15212674D01*
X11624824Y-15212674D02*
X11643872Y-15203150D01*
X11643872Y-15203150D02*
X11672443Y-15203150D01*
X11672443Y-15203150D02*
X11691491Y-15212674D01*
X11691491Y-15212674D02*
X11701015Y-15231722D01*
X11701015Y-15231722D02*
X11701015Y-15336484D01*
X12091491Y-15126960D02*
X11920063Y-15384103D01*
X12348634Y-15136484D02*
X12367682Y-15136484D01*
X12367682Y-15136484D02*
X12386729Y-15146008D01*
X12386729Y-15146008D02*
X12396253Y-15155531D01*
X12396253Y-15155531D02*
X12405777Y-15174579D01*
X12405777Y-15174579D02*
X12415301Y-15212674D01*
X12415301Y-15212674D02*
X12415301Y-15260293D01*
X12415301Y-15260293D02*
X12405777Y-15298388D01*
X12405777Y-15298388D02*
X12396253Y-15317436D01*
X12396253Y-15317436D02*
X12386729Y-15326960D01*
X12386729Y-15326960D02*
X12367682Y-15336484D01*
X12367682Y-15336484D02*
X12348634Y-15336484D01*
X12348634Y-15336484D02*
X12329586Y-15326960D01*
X12329586Y-15326960D02*
X12320063Y-15317436D01*
X12320063Y-15317436D02*
X12310539Y-15298388D01*
X12310539Y-15298388D02*
X12301015Y-15260293D01*
X12301015Y-15260293D02*
X12301015Y-15212674D01*
X12301015Y-15212674D02*
X12310539Y-15174579D01*
X12310539Y-15174579D02*
X12320063Y-15155531D01*
X12320063Y-15155531D02*
X12329586Y-15146008D01*
X12329586Y-15146008D02*
X12348634Y-15136484D01*
X12501015Y-15317436D02*
X12510539Y-15326960D01*
X12510539Y-15326960D02*
X12501015Y-15336484D01*
X12501015Y-15336484D02*
X12491491Y-15326960D01*
X12491491Y-15326960D02*
X12501015Y-15317436D01*
X12501015Y-15317436D02*
X12501015Y-15336484D01*
X12634348Y-15136484D02*
X12653396Y-15136484D01*
X12653396Y-15136484D02*
X12672444Y-15146008D01*
X12672444Y-15146008D02*
X12681967Y-15155531D01*
X12681967Y-15155531D02*
X12691491Y-15174579D01*
X12691491Y-15174579D02*
X12701015Y-15212674D01*
X12701015Y-15212674D02*
X12701015Y-15260293D01*
X12701015Y-15260293D02*
X12691491Y-15298388D01*
X12691491Y-15298388D02*
X12681967Y-15317436D01*
X12681967Y-15317436D02*
X12672444Y-15326960D01*
X12672444Y-15326960D02*
X12653396Y-15336484D01*
X12653396Y-15336484D02*
X12634348Y-15336484D01*
X12634348Y-15336484D02*
X12615301Y-15326960D01*
X12615301Y-15326960D02*
X12605777Y-15317436D01*
X12605777Y-15317436D02*
X12596253Y-15298388D01*
X12596253Y-15298388D02*
X12586729Y-15260293D01*
X12586729Y-15260293D02*
X12586729Y-15212674D01*
X12586729Y-15212674D02*
X12596253Y-15174579D01*
X12596253Y-15174579D02*
X12605777Y-15155531D01*
X12605777Y-15155531D02*
X12615301Y-15146008D01*
X12615301Y-15146008D02*
X12634348Y-15136484D01*
X12872444Y-15203150D02*
X12872444Y-15336484D01*
X12824825Y-15126960D02*
X12777206Y-15269817D01*
X12777206Y-15269817D02*
X12901015Y-15269817D01*
X12958158Y-15136484D02*
X13081967Y-15136484D01*
X13081967Y-15136484D02*
X13015301Y-15212674D01*
X13015301Y-15212674D02*
X13043872Y-15212674D01*
X13043872Y-15212674D02*
X13062920Y-15222198D01*
X13062920Y-15222198D02*
X13072444Y-15231722D01*
X13072444Y-15231722D02*
X13081967Y-15250769D01*
X13081967Y-15250769D02*
X13081967Y-15298388D01*
X13081967Y-15298388D02*
X13072444Y-15317436D01*
X13072444Y-15317436D02*
X13062920Y-15326960D01*
X13062920Y-15326960D02*
X13043872Y-15336484D01*
X13043872Y-15336484D02*
X12986729Y-15336484D01*
X12986729Y-15336484D02*
X12967682Y-15326960D01*
X12967682Y-15326960D02*
X12958158Y-15317436D01*
X13148634Y-15136484D02*
X13272444Y-15136484D01*
X13272444Y-15136484D02*
X13205777Y-15212674D01*
X13205777Y-15212674D02*
X13234348Y-15212674D01*
X13234348Y-15212674D02*
X13253396Y-15222198D01*
X13253396Y-15222198D02*
X13262920Y-15231722D01*
X13262920Y-15231722D02*
X13272444Y-15250769D01*
X13272444Y-15250769D02*
X13272444Y-15298388D01*
X13272444Y-15298388D02*
X13262920Y-15317436D01*
X13262920Y-15317436D02*
X13253396Y-15326960D01*
X13253396Y-15326960D02*
X13234348Y-15336484D01*
X13234348Y-15336484D02*
X13177206Y-15336484D01*
X13177206Y-15336484D02*
X13158158Y-15326960D01*
X13158158Y-15326960D02*
X13148634Y-15317436D01*
X13348634Y-15136484D02*
X13348634Y-15174579D01*
X13424825Y-15136484D02*
X13424825Y-15174579D01*
X13720063Y-15412674D02*
X13710539Y-15403150D01*
X13710539Y-15403150D02*
X13691491Y-15374579D01*
X13691491Y-15374579D02*
X13681968Y-15355531D01*
X13681968Y-15355531D02*
X13672444Y-15326960D01*
X13672444Y-15326960D02*
X13662920Y-15279341D01*
X13662920Y-15279341D02*
X13662920Y-15241246D01*
X13662920Y-15241246D02*
X13672444Y-15193627D01*
X13672444Y-15193627D02*
X13681968Y-15165055D01*
X13681968Y-15165055D02*
X13691491Y-15146008D01*
X13691491Y-15146008D02*
X13710539Y-15117436D01*
X13710539Y-15117436D02*
X13720063Y-15107912D01*
X13777206Y-15136484D02*
X13901015Y-15136484D01*
X13901015Y-15136484D02*
X13834348Y-15212674D01*
X13834348Y-15212674D02*
X13862920Y-15212674D01*
X13862920Y-15212674D02*
X13881968Y-15222198D01*
X13881968Y-15222198D02*
X13891491Y-15231722D01*
X13891491Y-15231722D02*
X13901015Y-15250769D01*
X13901015Y-15250769D02*
X13901015Y-15298388D01*
X13901015Y-15298388D02*
X13891491Y-15317436D01*
X13891491Y-15317436D02*
X13881968Y-15326960D01*
X13881968Y-15326960D02*
X13862920Y-15336484D01*
X13862920Y-15336484D02*
X13805777Y-15336484D01*
X13805777Y-15336484D02*
X13786729Y-15326960D01*
X13786729Y-15326960D02*
X13777206Y-15317436D01*
X14139110Y-15336484D02*
X14139110Y-15136484D01*
X14224825Y-15336484D02*
X14224825Y-15231722D01*
X14224825Y-15231722D02*
X14215301Y-15212674D01*
X14215301Y-15212674D02*
X14196253Y-15203150D01*
X14196253Y-15203150D02*
X14167682Y-15203150D01*
X14167682Y-15203150D02*
X14148634Y-15212674D01*
X14148634Y-15212674D02*
X14139110Y-15222198D01*
X14348634Y-15336484D02*
X14329587Y-15326960D01*
X14329587Y-15326960D02*
X14320063Y-15317436D01*
X14320063Y-15317436D02*
X14310539Y-15298388D01*
X14310539Y-15298388D02*
X14310539Y-15241246D01*
X14310539Y-15241246D02*
X14320063Y-15222198D01*
X14320063Y-15222198D02*
X14329587Y-15212674D01*
X14329587Y-15212674D02*
X14348634Y-15203150D01*
X14348634Y-15203150D02*
X14377206Y-15203150D01*
X14377206Y-15203150D02*
X14396253Y-15212674D01*
X14396253Y-15212674D02*
X14405777Y-15222198D01*
X14405777Y-15222198D02*
X14415301Y-15241246D01*
X14415301Y-15241246D02*
X14415301Y-15298388D01*
X14415301Y-15298388D02*
X14405777Y-15317436D01*
X14405777Y-15317436D02*
X14396253Y-15326960D01*
X14396253Y-15326960D02*
X14377206Y-15336484D01*
X14377206Y-15336484D02*
X14348634Y-15336484D01*
X14529587Y-15336484D02*
X14510539Y-15326960D01*
X14510539Y-15326960D02*
X14501015Y-15307912D01*
X14501015Y-15307912D02*
X14501015Y-15136484D01*
X14681968Y-15326960D02*
X14662920Y-15336484D01*
X14662920Y-15336484D02*
X14624825Y-15336484D01*
X14624825Y-15336484D02*
X14605777Y-15326960D01*
X14605777Y-15326960D02*
X14596253Y-15307912D01*
X14596253Y-15307912D02*
X14596253Y-15231722D01*
X14596253Y-15231722D02*
X14605777Y-15212674D01*
X14605777Y-15212674D02*
X14624825Y-15203150D01*
X14624825Y-15203150D02*
X14662920Y-15203150D01*
X14662920Y-15203150D02*
X14681968Y-15212674D01*
X14681968Y-15212674D02*
X14691491Y-15231722D01*
X14691491Y-15231722D02*
X14691491Y-15250769D01*
X14691491Y-15250769D02*
X14596253Y-15269817D01*
X14767682Y-15326960D02*
X14786730Y-15336484D01*
X14786730Y-15336484D02*
X14824825Y-15336484D01*
X14824825Y-15336484D02*
X14843872Y-15326960D01*
X14843872Y-15326960D02*
X14853396Y-15307912D01*
X14853396Y-15307912D02*
X14853396Y-15298388D01*
X14853396Y-15298388D02*
X14843872Y-15279341D01*
X14843872Y-15279341D02*
X14824825Y-15269817D01*
X14824825Y-15269817D02*
X14796253Y-15269817D01*
X14796253Y-15269817D02*
X14777206Y-15260293D01*
X14777206Y-15260293D02*
X14767682Y-15241246D01*
X14767682Y-15241246D02*
X14767682Y-15231722D01*
X14767682Y-15231722D02*
X14777206Y-15212674D01*
X14777206Y-15212674D02*
X14796253Y-15203150D01*
X14796253Y-15203150D02*
X14824825Y-15203150D01*
X14824825Y-15203150D02*
X14843872Y-15212674D01*
X14920063Y-15412674D02*
X14929587Y-15403150D01*
X14929587Y-15403150D02*
X14948634Y-15374579D01*
X14948634Y-15374579D02*
X14958158Y-15355531D01*
X14958158Y-15355531D02*
X14967682Y-15326960D01*
X14967682Y-15326960D02*
X14977206Y-15279341D01*
X14977206Y-15279341D02*
X14977206Y-15241246D01*
X14977206Y-15241246D02*
X14967682Y-15193627D01*
X14967682Y-15193627D02*
X14958158Y-15165055D01*
X14958158Y-15165055D02*
X14948634Y-15146008D01*
X14948634Y-15146008D02*
X14929587Y-15117436D01*
X14929587Y-15117436D02*
X14920063Y-15107912D01*
X15281968Y-15412674D02*
X15272444Y-15403150D01*
X15272444Y-15403150D02*
X15253396Y-15374579D01*
X15253396Y-15374579D02*
X15243872Y-15355531D01*
X15243872Y-15355531D02*
X15234349Y-15326960D01*
X15234349Y-15326960D02*
X15224825Y-15279341D01*
X15224825Y-15279341D02*
X15224825Y-15241246D01*
X15224825Y-15241246D02*
X15234349Y-15193627D01*
X15234349Y-15193627D02*
X15243872Y-15165055D01*
X15243872Y-15165055D02*
X15253396Y-15146008D01*
X15253396Y-15146008D02*
X15272444Y-15117436D01*
X15272444Y-15117436D02*
X15281968Y-15107912D01*
X15358158Y-15203150D02*
X15358158Y-15336484D01*
X15358158Y-15222198D02*
X15367682Y-15212674D01*
X15367682Y-15212674D02*
X15386730Y-15203150D01*
X15386730Y-15203150D02*
X15415301Y-15203150D01*
X15415301Y-15203150D02*
X15434349Y-15212674D01*
X15434349Y-15212674D02*
X15443872Y-15231722D01*
X15443872Y-15231722D02*
X15443872Y-15336484D01*
X15567682Y-15336484D02*
X15548634Y-15326960D01*
X15548634Y-15326960D02*
X15539111Y-15317436D01*
X15539111Y-15317436D02*
X15529587Y-15298388D01*
X15529587Y-15298388D02*
X15529587Y-15241246D01*
X15529587Y-15241246D02*
X15539111Y-15222198D01*
X15539111Y-15222198D02*
X15548634Y-15212674D01*
X15548634Y-15212674D02*
X15567682Y-15203150D01*
X15567682Y-15203150D02*
X15596253Y-15203150D01*
X15596253Y-15203150D02*
X15615301Y-15212674D01*
X15615301Y-15212674D02*
X15624825Y-15222198D01*
X15624825Y-15222198D02*
X15634349Y-15241246D01*
X15634349Y-15241246D02*
X15634349Y-15298388D01*
X15634349Y-15298388D02*
X15624825Y-15317436D01*
X15624825Y-15317436D02*
X15615301Y-15326960D01*
X15615301Y-15326960D02*
X15596253Y-15336484D01*
X15596253Y-15336484D02*
X15567682Y-15336484D01*
X15691492Y-15203150D02*
X15767682Y-15203150D01*
X15720063Y-15136484D02*
X15720063Y-15307912D01*
X15720063Y-15307912D02*
X15729587Y-15326960D01*
X15729587Y-15326960D02*
X15748634Y-15336484D01*
X15748634Y-15336484D02*
X15767682Y-15336484D01*
X15986730Y-15203150D02*
X15986730Y-15403150D01*
X15986730Y-15212674D02*
X16005777Y-15203150D01*
X16005777Y-15203150D02*
X16043873Y-15203150D01*
X16043873Y-15203150D02*
X16062920Y-15212674D01*
X16062920Y-15212674D02*
X16072444Y-15222198D01*
X16072444Y-15222198D02*
X16081968Y-15241246D01*
X16081968Y-15241246D02*
X16081968Y-15298388D01*
X16081968Y-15298388D02*
X16072444Y-15317436D01*
X16072444Y-15317436D02*
X16062920Y-15326960D01*
X16062920Y-15326960D02*
X16043873Y-15336484D01*
X16043873Y-15336484D02*
X16005777Y-15336484D01*
X16005777Y-15336484D02*
X15986730Y-15326960D01*
X16196253Y-15336484D02*
X16177206Y-15326960D01*
X16177206Y-15326960D02*
X16167682Y-15307912D01*
X16167682Y-15307912D02*
X16167682Y-15136484D01*
X16358158Y-15336484D02*
X16358158Y-15231722D01*
X16358158Y-15231722D02*
X16348634Y-15212674D01*
X16348634Y-15212674D02*
X16329587Y-15203150D01*
X16329587Y-15203150D02*
X16291492Y-15203150D01*
X16291492Y-15203150D02*
X16272444Y-15212674D01*
X16358158Y-15326960D02*
X16339111Y-15336484D01*
X16339111Y-15336484D02*
X16291492Y-15336484D01*
X16291492Y-15336484D02*
X16272444Y-15326960D01*
X16272444Y-15326960D02*
X16262920Y-15307912D01*
X16262920Y-15307912D02*
X16262920Y-15288865D01*
X16262920Y-15288865D02*
X16272444Y-15269817D01*
X16272444Y-15269817D02*
X16291492Y-15260293D01*
X16291492Y-15260293D02*
X16339111Y-15260293D01*
X16339111Y-15260293D02*
X16358158Y-15250769D01*
X16424825Y-15203150D02*
X16501015Y-15203150D01*
X16453396Y-15136484D02*
X16453396Y-15307912D01*
X16453396Y-15307912D02*
X16462920Y-15326960D01*
X16462920Y-15326960D02*
X16481968Y-15336484D01*
X16481968Y-15336484D02*
X16501015Y-15336484D01*
X16643873Y-15326960D02*
X16624825Y-15336484D01*
X16624825Y-15336484D02*
X16586730Y-15336484D01*
X16586730Y-15336484D02*
X16567682Y-15326960D01*
X16567682Y-15326960D02*
X16558158Y-15307912D01*
X16558158Y-15307912D02*
X16558158Y-15231722D01*
X16558158Y-15231722D02*
X16567682Y-15212674D01*
X16567682Y-15212674D02*
X16586730Y-15203150D01*
X16586730Y-15203150D02*
X16624825Y-15203150D01*
X16624825Y-15203150D02*
X16643873Y-15212674D01*
X16643873Y-15212674D02*
X16653396Y-15231722D01*
X16653396Y-15231722D02*
X16653396Y-15250769D01*
X16653396Y-15250769D02*
X16558158Y-15269817D01*
X16824825Y-15336484D02*
X16824825Y-15136484D01*
X16824825Y-15326960D02*
X16805777Y-15336484D01*
X16805777Y-15336484D02*
X16767682Y-15336484D01*
X16767682Y-15336484D02*
X16748634Y-15326960D01*
X16748634Y-15326960D02*
X16739111Y-15317436D01*
X16739111Y-15317436D02*
X16729587Y-15298388D01*
X16729587Y-15298388D02*
X16729587Y-15241246D01*
X16729587Y-15241246D02*
X16739111Y-15222198D01*
X16739111Y-15222198D02*
X16748634Y-15212674D01*
X16748634Y-15212674D02*
X16767682Y-15203150D01*
X16767682Y-15203150D02*
X16805777Y-15203150D01*
X16805777Y-15203150D02*
X16824825Y-15212674D01*
X16901016Y-15412674D02*
X16910539Y-15403150D01*
X16910539Y-15403150D02*
X16929587Y-15374579D01*
X16929587Y-15374579D02*
X16939111Y-15355531D01*
X16939111Y-15355531D02*
X16948635Y-15326960D01*
X16948635Y-15326960D02*
X16958158Y-15279341D01*
X16958158Y-15279341D02*
X16958158Y-15241246D01*
X16958158Y-15241246D02*
X16948635Y-15193627D01*
X16948635Y-15193627D02*
X16939111Y-15165055D01*
X16939111Y-15165055D02*
X16929587Y-15146008D01*
X16929587Y-15146008D02*
X16910539Y-15117436D01*
X16910539Y-15117436D02*
X16901016Y-15107912D01*
M02*
