%TF.GenerationSoftware,KiCad,Pcbnew,8.0.8*%
%TF.CreationDate,2025-01-30T15:17:23-05:00*%
%TF.ProjectId,FORWARD-PCB,464f5257-4152-4442-9d50-43422e6b6963,rev?*%
%TF.SameCoordinates,Original*%
%TF.FileFunction,Drillmap*%
%TF.FilePolarity,Positive*%
%FSLAX45Y45*%
G04 Gerber Fmt 4.5, Leading zero omitted, Abs format (unit mm)*
G04 Created by KiCad (PCBNEW 8.0.8) date 2025-01-30 15:17:23*
%MOMM*%
%LPD*%
G01*
G04 APERTURE LIST*
%ADD10C,0.100000*%
%ADD11C,0.200000*%
%ADD12C,0.110000*%
%ADD13C,0.120000*%
G04 APERTURE END LIST*
D10*
X10150000Y-4850000D02*
X19950000Y-4850000D01*
X19950000Y-14600000D01*
X10150000Y-14600000D01*
X10150000Y-4850000D01*
D11*
D10*
X15751974Y-12240000D02*
X15771974Y-12260000D01*
X15771974Y-12240000D02*
X15751974Y-12260000D01*
X16120000Y-6320000D02*
G75*
G02*
X16100000Y-6320000I-10000J0D01*
G01*
X16100000Y-6320000D02*
G75*
G02*
X16120000Y-6320000I10000J0D01*
G01*
X16120000Y-6460000D02*
G75*
G02*
X16100000Y-6460000I-10000J0D01*
G01*
X16100000Y-6460000D02*
G75*
G02*
X16120000Y-6460000I10000J0D01*
G01*
X16190000Y-6250000D02*
G75*
G02*
X16170000Y-6250000I-10000J0D01*
G01*
X16170000Y-6250000D02*
G75*
G02*
X16190000Y-6250000I10000J0D01*
G01*
X16190000Y-6390000D02*
G75*
G02*
X16170000Y-6390000I-10000J0D01*
G01*
X16170000Y-6390000D02*
G75*
G02*
X16190000Y-6390000I10000J0D01*
G01*
X16190000Y-6530000D02*
G75*
G02*
X16170000Y-6530000I-10000J0D01*
G01*
X16170000Y-6530000D02*
G75*
G02*
X16190000Y-6530000I10000J0D01*
G01*
X16257500Y-6320000D02*
G75*
G02*
X16237500Y-6320000I-10000J0D01*
G01*
X16237500Y-6320000D02*
G75*
G02*
X16257500Y-6320000I10000J0D01*
G01*
X16257500Y-6460000D02*
G75*
G02*
X16237500Y-6460000I-10000J0D01*
G01*
X16237500Y-6460000D02*
G75*
G02*
X16257500Y-6460000I10000J0D01*
G01*
X16330000Y-6250000D02*
G75*
G02*
X16310000Y-6250000I-10000J0D01*
G01*
X16310000Y-6250000D02*
G75*
G02*
X16330000Y-6250000I10000J0D01*
G01*
X16330000Y-6390000D02*
G75*
G02*
X16310000Y-6390000I-10000J0D01*
G01*
X16310000Y-6390000D02*
G75*
G02*
X16330000Y-6390000I10000J0D01*
G01*
X16330000Y-6530000D02*
G75*
G02*
X16310000Y-6530000I-10000J0D01*
G01*
X16310000Y-6530000D02*
G75*
G02*
X16330000Y-6530000I10000J0D01*
G01*
X16400000Y-6320000D02*
G75*
G02*
X16380000Y-6320000I-10000J0D01*
G01*
X16380000Y-6320000D02*
G75*
G02*
X16400000Y-6320000I10000J0D01*
G01*
X16400000Y-6460000D02*
G75*
G02*
X16380000Y-6460000I-10000J0D01*
G01*
X16380000Y-6460000D02*
G75*
G02*
X16400000Y-6460000I10000J0D01*
G01*
X10400000Y-9230000D02*
X10400000Y-9270000D01*
X10380000Y-9250000D02*
X10420000Y-9250000D01*
X10750000Y-9980000D02*
X10750000Y-10020000D01*
X10730000Y-10000000D02*
X10770000Y-10000000D01*
X10816250Y-6276750D02*
X10816250Y-6316750D01*
X10796250Y-6296750D02*
X10836250Y-6296750D01*
X11100000Y-9100500D02*
X11100000Y-9140500D01*
X11080000Y-9120500D02*
X11120000Y-9120500D01*
X11300000Y-9900500D02*
X11300000Y-9940500D01*
X11280000Y-9920500D02*
X11320000Y-9920500D01*
X11336250Y-7944250D02*
X11336250Y-7984250D01*
X11316250Y-7964250D02*
X11356250Y-7964250D01*
X11375000Y-6130000D02*
X11375000Y-6170000D01*
X11355000Y-6150000D02*
X11395000Y-6150000D01*
X11650000Y-7330000D02*
X11650000Y-7370000D01*
X11630000Y-7350000D02*
X11670000Y-7350000D01*
X11850000Y-6530000D02*
X11850000Y-6570000D01*
X11830000Y-6550000D02*
X11870000Y-6550000D01*
X12400000Y-6580000D02*
X12400000Y-6620000D01*
X12380000Y-6600000D02*
X12420000Y-6600000D01*
X12750000Y-6205000D02*
X12750000Y-6245000D01*
X12730000Y-6225000D02*
X12770000Y-6225000D01*
X12775000Y-5980000D02*
X12775000Y-6020000D01*
X12755000Y-6000000D02*
X12795000Y-6000000D01*
X13600000Y-7780000D02*
X13600000Y-7820000D01*
X13580000Y-7800000D02*
X13620000Y-7800000D01*
X13600000Y-8780000D02*
X13600000Y-8820000D01*
X13580000Y-8800000D02*
X13620000Y-8800000D01*
X13605987Y-12185987D02*
X13605987Y-12225987D01*
X13585987Y-12205987D02*
X13625987Y-12205987D01*
X13861974Y-11130000D02*
X13861974Y-11170000D01*
X13841974Y-11150000D02*
X13881974Y-11150000D01*
X14000000Y-12530000D02*
X14000000Y-12570000D01*
X13980000Y-12550000D02*
X14020000Y-12550000D01*
X14061974Y-11450000D02*
X14061974Y-11490000D01*
X14041974Y-11470000D02*
X14081974Y-11470000D01*
X14111974Y-10180000D02*
X14111974Y-10220000D01*
X14091974Y-10200000D02*
X14131974Y-10200000D01*
X14161974Y-10580000D02*
X14161974Y-10620000D01*
X14141974Y-10600000D02*
X14181974Y-10600000D01*
X14200000Y-7980000D02*
X14200000Y-8020000D01*
X14180000Y-8000000D02*
X14220000Y-8000000D01*
X14361974Y-12050000D02*
X14361974Y-12090000D01*
X14341974Y-12070000D02*
X14381974Y-12070000D01*
X14461974Y-10480000D02*
X14461974Y-10520000D01*
X14441974Y-10500000D02*
X14481974Y-10500000D01*
X14508000Y-7122000D02*
X14508000Y-7162000D01*
X14488000Y-7142000D02*
X14528000Y-7142000D01*
X14550000Y-7430000D02*
X14550000Y-7470000D01*
X14530000Y-7450000D02*
X14570000Y-7450000D01*
X14611974Y-11330000D02*
X14611974Y-11370000D01*
X14591974Y-11350000D02*
X14631974Y-11350000D01*
X14650000Y-7980000D02*
X14650000Y-8020000D01*
X14630000Y-8000000D02*
X14670000Y-8000000D01*
X14711974Y-10480000D02*
X14711974Y-10520000D01*
X14691974Y-10500000D02*
X14731974Y-10500000D01*
X14800000Y-12480000D02*
X14800000Y-12520000D01*
X14780000Y-12500000D02*
X14820000Y-12500000D01*
X14803543Y-11318268D02*
X14803543Y-11358268D01*
X14783543Y-11338268D02*
X14823543Y-11338268D01*
X14950000Y-7530000D02*
X14950000Y-7570000D01*
X14930000Y-7550000D02*
X14970000Y-7550000D01*
X14961974Y-10430000D02*
X14961974Y-10470000D01*
X14941974Y-10450000D02*
X14981974Y-10450000D01*
X15075000Y-10580000D02*
X15075000Y-10620000D01*
X15055000Y-10600000D02*
X15095000Y-10600000D01*
X15125000Y-8455000D02*
X15125000Y-8495000D01*
X15105000Y-8475000D02*
X15145000Y-8475000D01*
X15125000Y-11930000D02*
X15125000Y-11970000D01*
X15105000Y-11950000D02*
X15145000Y-11950000D01*
X15161974Y-9680000D02*
X15161974Y-9720000D01*
X15141974Y-9700000D02*
X15181974Y-9700000D01*
X15210000Y-5790000D02*
X15210000Y-5830000D01*
X15190000Y-5810000D02*
X15230000Y-5810000D01*
X15260000Y-7540000D02*
X15260000Y-7580000D01*
X15240000Y-7560000D02*
X15280000Y-7560000D01*
X15300000Y-10680000D02*
X15300000Y-10720000D01*
X15280000Y-10700000D02*
X15320000Y-10700000D01*
X15425000Y-8380000D02*
X15425000Y-8420000D01*
X15405000Y-8400000D02*
X15445000Y-8400000D01*
X15550000Y-7710000D02*
X15550000Y-7750000D01*
X15530000Y-7730000D02*
X15570000Y-7730000D01*
X15561974Y-10810000D02*
X15561974Y-10850000D01*
X15541974Y-10830000D02*
X15581974Y-10830000D01*
X15661974Y-9980000D02*
X15661974Y-10020000D01*
X15641974Y-10000000D02*
X15681974Y-10000000D01*
X15750000Y-8230000D02*
X15750000Y-8270000D01*
X15730000Y-8250000D02*
X15770000Y-8250000D01*
X15850000Y-11130000D02*
X15850000Y-11170000D01*
X15830000Y-11150000D02*
X15870000Y-11150000D01*
X15850000Y-14105000D02*
X15850000Y-14145000D01*
X15830000Y-14125000D02*
X15870000Y-14125000D01*
X15900000Y-7130000D02*
X15900000Y-7170000D01*
X15880000Y-7150000D02*
X15920000Y-7150000D01*
X16211974Y-10680000D02*
X16211974Y-10720000D01*
X16191974Y-10700000D02*
X16231974Y-10700000D01*
X16325000Y-12355000D02*
X16325000Y-12395000D01*
X16305000Y-12375000D02*
X16345000Y-12375000D01*
X16350000Y-13455000D02*
X16350000Y-13495000D01*
X16330000Y-13475000D02*
X16370000Y-13475000D01*
X16400000Y-9980000D02*
X16400000Y-10020000D01*
X16380000Y-10000000D02*
X16420000Y-10000000D01*
X16450000Y-10530000D02*
X16450000Y-10570000D01*
X16430000Y-10550000D02*
X16470000Y-10550000D01*
X16625000Y-9380000D02*
X16625000Y-9420000D01*
X16605000Y-9400000D02*
X16645000Y-9400000D01*
X16661974Y-11690000D02*
X16661974Y-11730000D01*
X16641974Y-11710000D02*
X16681974Y-11710000D01*
X17150000Y-9080000D02*
X17150000Y-9120000D01*
X17130000Y-9100000D02*
X17170000Y-9100000D01*
X17175000Y-13380000D02*
X17175000Y-13420000D01*
X17155000Y-13400000D02*
X17195000Y-13400000D01*
X17250000Y-8705000D02*
X17250000Y-8745000D01*
X17230000Y-8725000D02*
X17270000Y-8725000D01*
X17325000Y-14130000D02*
X17325000Y-14170000D01*
X17305000Y-14150000D02*
X17345000Y-14150000D01*
X17377998Y-9844023D02*
X17377998Y-9884023D01*
X17357998Y-9864023D02*
X17397998Y-9864023D01*
X17425000Y-9430000D02*
X17425000Y-9470000D01*
X17405000Y-9450000D02*
X17445000Y-9450000D01*
X17450000Y-12305000D02*
X17450000Y-12345000D01*
X17430000Y-12325000D02*
X17470000Y-12325000D01*
X17460246Y-11074843D02*
X17460246Y-11114843D01*
X17440246Y-11094843D02*
X17480246Y-11094843D01*
X17550000Y-12030000D02*
X17550000Y-12070000D01*
X17530000Y-12050000D02*
X17570000Y-12050000D01*
X17725000Y-13480000D02*
X17725000Y-13520000D01*
X17705000Y-13500000D02*
X17745000Y-13500000D01*
X17725000Y-13755000D02*
X17725000Y-13795000D01*
X17705000Y-13775000D02*
X17745000Y-13775000D01*
X17925000Y-13805000D02*
X17925000Y-13845000D01*
X17905000Y-13825000D02*
X17945000Y-13825000D01*
X18550000Y-14355000D02*
X18550000Y-14395000D01*
X18530000Y-14375000D02*
X18570000Y-14375000D01*
X18570000Y-9021250D02*
X18570000Y-9061250D01*
X18550000Y-9041250D02*
X18590000Y-9041250D01*
X18575000Y-13905000D02*
X18575000Y-13945000D01*
X18555000Y-13925000D02*
X18595000Y-13925000D01*
X19100000Y-9380000D02*
X19100000Y-9420000D01*
X19080000Y-9400000D02*
X19120000Y-9400000D01*
X17732678Y-14192678D02*
X17732678Y-14157322D01*
X17697322Y-14157322D01*
X17697322Y-14192678D01*
X17732678Y-14192678D01*
X17680000Y-14200000D02*
X17750000Y-14200000D01*
X17750000Y-14150000D02*
G75*
G02*
X17750000Y-14200000I0J-25000D01*
G01*
X17750000Y-14150000D02*
X17680000Y-14150000D01*
X17680000Y-14150000D02*
G75*
G03*
X17680000Y-14200000I0J-25000D01*
G01*
X18012678Y-14407678D02*
X18012678Y-14372322D01*
X17977322Y-14372322D01*
X17977322Y-14407678D01*
X18012678Y-14407678D01*
X17940000Y-14415000D02*
X18050000Y-14415000D01*
X18050000Y-14365000D02*
G75*
G02*
X18050000Y-14415000I0J-25000D01*
G01*
X18050000Y-14365000D02*
X17940000Y-14365000D01*
X17940000Y-14365000D02*
G75*
G03*
X17940000Y-14415000I0J-25000D01*
G01*
X18292678Y-14192678D02*
X18292678Y-14157322D01*
X18257322Y-14157322D01*
X18257322Y-14192678D01*
X18292678Y-14192678D01*
X18240000Y-14200000D02*
X18310000Y-14200000D01*
X18310000Y-14150000D02*
G75*
G02*
X18310000Y-14200000I0J-25000D01*
G01*
X18310000Y-14150000D02*
X18240000Y-14150000D01*
X18240000Y-14150000D02*
G75*
G03*
X18240000Y-14200000I0J-25000D01*
G01*
X10300000Y-5597500D02*
X10347500Y-5550000D01*
X10300000Y-5502500D01*
X10252500Y-5550000D01*
X10300000Y-5597500D01*
X10550000Y-5597500D02*
X10597500Y-5550000D01*
X10550000Y-5502500D01*
X10502500Y-5550000D01*
X10550000Y-5597500D01*
X10550000Y-6897500D02*
X10597500Y-6850000D01*
X10550000Y-6802500D01*
X10502500Y-6850000D01*
X10550000Y-6897500D01*
X10550000Y-7147500D02*
X10597500Y-7100000D01*
X10550000Y-7052500D01*
X10502500Y-7100000D01*
X10550000Y-7147500D01*
X10550000Y-7397500D02*
X10597500Y-7350000D01*
X10550000Y-7302500D01*
X10502500Y-7350000D01*
X10550000Y-7397500D01*
X10550000Y-7647500D02*
X10597500Y-7600000D01*
X10550000Y-7552500D01*
X10502500Y-7600000D01*
X10550000Y-7647500D01*
X10800000Y-5597500D02*
X10847500Y-5550000D01*
X10800000Y-5502500D01*
X10752500Y-5550000D01*
X10800000Y-5597500D01*
X11050000Y-5597500D02*
X11097500Y-5550000D01*
X11050000Y-5502500D01*
X11002500Y-5550000D01*
X11050000Y-5597500D01*
X11995000Y-5580750D02*
X12042500Y-5533250D01*
X11995000Y-5485750D01*
X11947500Y-5533250D01*
X11995000Y-5580750D01*
X12245000Y-5580750D02*
X12292500Y-5533250D01*
X12245000Y-5485750D01*
X12197500Y-5533250D01*
X12245000Y-5580750D01*
X12495000Y-5580750D02*
X12542500Y-5533250D01*
X12495000Y-5485750D01*
X12447500Y-5533250D01*
X12495000Y-5580750D01*
X12745000Y-5580750D02*
X12792500Y-5533250D01*
X12745000Y-5485750D01*
X12697500Y-5533250D01*
X12745000Y-5580750D01*
X12995000Y-5580750D02*
X13042500Y-5533250D01*
X12995000Y-5485750D01*
X12947500Y-5533250D01*
X12995000Y-5580750D01*
X13245000Y-5580750D02*
X13292500Y-5533250D01*
X13245000Y-5485750D01*
X13197500Y-5533250D01*
X13245000Y-5580750D01*
X19596750Y-8097500D02*
X19644250Y-8050000D01*
X19596750Y-8002500D01*
X19549250Y-8050000D01*
X19596750Y-8097500D01*
X19596750Y-8347500D02*
X19644250Y-8300000D01*
X19596750Y-8252500D01*
X19549250Y-8300000D01*
X19596750Y-8347500D01*
X19596750Y-8597500D02*
X19644250Y-8550000D01*
X19596750Y-8502500D01*
X19549250Y-8550000D01*
X19596750Y-8597500D01*
X19596750Y-8847500D02*
X19644250Y-8800000D01*
X19596750Y-8752500D01*
X19549250Y-8800000D01*
X19596750Y-8847500D01*
X19596750Y-9922500D02*
X19644250Y-9875000D01*
X19596750Y-9827500D01*
X19549250Y-9875000D01*
X19596750Y-9922500D01*
X19596750Y-10172500D02*
X19644250Y-10125000D01*
X19596750Y-10077500D01*
X19549250Y-10125000D01*
X19596750Y-10172500D01*
X19596750Y-10422500D02*
X19644250Y-10375000D01*
X19596750Y-10327500D01*
X19549250Y-10375000D01*
X19596750Y-10422500D01*
X19596750Y-10672500D02*
X19644250Y-10625000D01*
X19596750Y-10577500D01*
X19549250Y-10625000D01*
X19596750Y-10672500D01*
X11650000Y-8662500D02*
X11750000Y-8762500D01*
X11750000Y-8662500D02*
X11650000Y-8762500D01*
X11750000Y-8712500D02*
G75*
G02*
X11650000Y-8712500I-50000J0D01*
G01*
X11650000Y-8712500D02*
G75*
G02*
X11750000Y-8712500I50000J0D01*
G01*
X11650000Y-8916500D02*
X11750000Y-9016500D01*
X11750000Y-8916500D02*
X11650000Y-9016500D01*
X11750000Y-8966500D02*
G75*
G02*
X11650000Y-8966500I-50000J0D01*
G01*
X11650000Y-8966500D02*
G75*
G02*
X11750000Y-8966500I50000J0D01*
G01*
X11650000Y-9170500D02*
X11750000Y-9270500D01*
X11750000Y-9170500D02*
X11650000Y-9270500D01*
X11750000Y-9220500D02*
G75*
G02*
X11650000Y-9220500I-50000J0D01*
G01*
X11650000Y-9220500D02*
G75*
G02*
X11750000Y-9220500I50000J0D01*
G01*
X11650000Y-9424500D02*
X11750000Y-9524500D01*
X11750000Y-9424500D02*
X11650000Y-9524500D01*
X11750000Y-9474500D02*
G75*
G02*
X11650000Y-9474500I-50000J0D01*
G01*
X11650000Y-9474500D02*
G75*
G02*
X11750000Y-9474500I50000J0D01*
G01*
X11650000Y-9678500D02*
X11750000Y-9778500D01*
X11750000Y-9678500D02*
X11650000Y-9778500D01*
X11750000Y-9728500D02*
G75*
G02*
X11650000Y-9728500I-50000J0D01*
G01*
X11650000Y-9728500D02*
G75*
G02*
X11750000Y-9728500I50000J0D01*
G01*
X11650000Y-9932500D02*
X11750000Y-10032500D01*
X11750000Y-9932500D02*
X11650000Y-10032500D01*
X11750000Y-9982500D02*
G75*
G02*
X11650000Y-9982500I-50000J0D01*
G01*
X11650000Y-9982500D02*
G75*
G02*
X11750000Y-9982500I50000J0D01*
G01*
X11650000Y-10186500D02*
X11750000Y-10286500D01*
X11750000Y-10186500D02*
X11650000Y-10286500D01*
X11750000Y-10236500D02*
G75*
G02*
X11650000Y-10236500I-50000J0D01*
G01*
X11650000Y-10236500D02*
G75*
G02*
X11750000Y-10236500I50000J0D01*
G01*
X11650000Y-10440500D02*
X11750000Y-10540500D01*
X11750000Y-10440500D02*
X11650000Y-10540500D01*
X11750000Y-10490500D02*
G75*
G02*
X11650000Y-10490500I-50000J0D01*
G01*
X11650000Y-10490500D02*
G75*
G02*
X11750000Y-10490500I50000J0D01*
G01*
D12*
X10595000Y-10941000D02*
X10705000Y-11051000D01*
X10705000Y-10941000D02*
X10595000Y-11051000D01*
X10650000Y-10941000D02*
X10650000Y-11051000D01*
X10595000Y-10996000D02*
X10705000Y-10996000D01*
X10595000Y-11195000D02*
X10705000Y-11305000D01*
X10705000Y-11195000D02*
X10595000Y-11305000D01*
X10650000Y-11195000D02*
X10650000Y-11305000D01*
X10595000Y-11250000D02*
X10705000Y-11250000D01*
X10595000Y-11449000D02*
X10705000Y-11559000D01*
X10705000Y-11449000D02*
X10595000Y-11559000D01*
X10650000Y-11449000D02*
X10650000Y-11559000D01*
X10595000Y-11504000D02*
X10705000Y-11504000D01*
D13*
X10542000Y-13790000D02*
X10662000Y-13910000D01*
X10662000Y-13790000D02*
X10542000Y-13910000D01*
X10644427Y-13892427D02*
X10644427Y-13807573D01*
X10559573Y-13807573D01*
X10559573Y-13892427D01*
X10644427Y-13892427D01*
X10923000Y-13790000D02*
X11043000Y-13910000D01*
X11043000Y-13790000D02*
X10923000Y-13910000D01*
X11025427Y-13892427D02*
X11025427Y-13807573D01*
X10940573Y-13807573D01*
X10940573Y-13892427D01*
X11025427Y-13892427D01*
X11304000Y-13790000D02*
X11424000Y-13910000D01*
X11424000Y-13790000D02*
X11304000Y-13910000D01*
X11406427Y-13892427D02*
X11406427Y-13807573D01*
X11321573Y-13807573D01*
X11321573Y-13892427D01*
X11406427Y-13892427D01*
X11685000Y-13790000D02*
X11805000Y-13910000D01*
X11805000Y-13790000D02*
X11685000Y-13910000D01*
X11787427Y-13892427D02*
X11787427Y-13807573D01*
X11702573Y-13807573D01*
X11702573Y-13892427D01*
X11787427Y-13892427D01*
X12066000Y-13790000D02*
X12186000Y-13910000D01*
X12186000Y-13790000D02*
X12066000Y-13910000D01*
X12168427Y-13892427D02*
X12168427Y-13807573D01*
X12083573Y-13807573D01*
X12083573Y-13892427D01*
X12168427Y-13892427D01*
X12447000Y-13790000D02*
X12567000Y-13910000D01*
X12567000Y-13790000D02*
X12447000Y-13910000D01*
X12549427Y-13892427D02*
X12549427Y-13807573D01*
X12464573Y-13807573D01*
X12464573Y-13892427D01*
X12549427Y-13892427D01*
X12828000Y-13790000D02*
X12948000Y-13910000D01*
X12948000Y-13790000D02*
X12828000Y-13910000D01*
X12930427Y-13892427D02*
X12930427Y-13807573D01*
X12845573Y-13807573D01*
X12845573Y-13892427D01*
X12930427Y-13892427D01*
X13209000Y-13790000D02*
X13329000Y-13910000D01*
X13329000Y-13790000D02*
X13209000Y-13910000D01*
X13311427Y-13892427D02*
X13311427Y-13807573D01*
X13226573Y-13807573D01*
X13226573Y-13892427D01*
X13311427Y-13892427D01*
X13590000Y-13790000D02*
X13710000Y-13910000D01*
X13710000Y-13790000D02*
X13590000Y-13910000D01*
X13692427Y-13892427D02*
X13692427Y-13807573D01*
X13607573Y-13807573D01*
X13607573Y-13892427D01*
X13692427Y-13892427D01*
X13971000Y-13790000D02*
X14091000Y-13910000D01*
X14091000Y-13790000D02*
X13971000Y-13910000D01*
X14073427Y-13892427D02*
X14073427Y-13807573D01*
X13988573Y-13807573D01*
X13988573Y-13892427D01*
X14073427Y-13892427D01*
X14352000Y-13790000D02*
X14472000Y-13910000D01*
X14472000Y-13790000D02*
X14352000Y-13910000D01*
X14454427Y-13892427D02*
X14454427Y-13807573D01*
X14369573Y-13807573D01*
X14369573Y-13892427D01*
X14454427Y-13892427D01*
X14733000Y-13790000D02*
X14853000Y-13910000D01*
X14853000Y-13790000D02*
X14733000Y-13910000D01*
X14835427Y-13892427D02*
X14835427Y-13807573D01*
X14750573Y-13807573D01*
X14750573Y-13892427D01*
X14835427Y-13892427D01*
X15114000Y-13790000D02*
X15234000Y-13910000D01*
X15234000Y-13790000D02*
X15114000Y-13910000D01*
X15216427Y-13892427D02*
X15216427Y-13807573D01*
X15131573Y-13807573D01*
X15131573Y-13892427D01*
X15216427Y-13892427D01*
D11*
X10405777Y-14916484D02*
X10405777Y-14716484D01*
X10405777Y-14716484D02*
X10453396Y-14716484D01*
X10453396Y-14716484D02*
X10481967Y-14726008D01*
X10481967Y-14726008D02*
X10501015Y-14745055D01*
X10501015Y-14745055D02*
X10510539Y-14764103D01*
X10510539Y-14764103D02*
X10520063Y-14802198D01*
X10520063Y-14802198D02*
X10520063Y-14830769D01*
X10520063Y-14830769D02*
X10510539Y-14868865D01*
X10510539Y-14868865D02*
X10501015Y-14887912D01*
X10501015Y-14887912D02*
X10481967Y-14906960D01*
X10481967Y-14906960D02*
X10453396Y-14916484D01*
X10453396Y-14916484D02*
X10405777Y-14916484D01*
X10605777Y-14916484D02*
X10605777Y-14783150D01*
X10605777Y-14821246D02*
X10615301Y-14802198D01*
X10615301Y-14802198D02*
X10624824Y-14792674D01*
X10624824Y-14792674D02*
X10643872Y-14783150D01*
X10643872Y-14783150D02*
X10662920Y-14783150D01*
X10729586Y-14916484D02*
X10729586Y-14783150D01*
X10729586Y-14716484D02*
X10720063Y-14726008D01*
X10720063Y-14726008D02*
X10729586Y-14735531D01*
X10729586Y-14735531D02*
X10739110Y-14726008D01*
X10739110Y-14726008D02*
X10729586Y-14716484D01*
X10729586Y-14716484D02*
X10729586Y-14735531D01*
X10853396Y-14916484D02*
X10834348Y-14906960D01*
X10834348Y-14906960D02*
X10824824Y-14887912D01*
X10824824Y-14887912D02*
X10824824Y-14716484D01*
X10958158Y-14916484D02*
X10939110Y-14906960D01*
X10939110Y-14906960D02*
X10929586Y-14887912D01*
X10929586Y-14887912D02*
X10929586Y-14716484D01*
X11186729Y-14916484D02*
X11186729Y-14716484D01*
X11186729Y-14716484D02*
X11253396Y-14859341D01*
X11253396Y-14859341D02*
X11320062Y-14716484D01*
X11320062Y-14716484D02*
X11320062Y-14916484D01*
X11501015Y-14916484D02*
X11501015Y-14811722D01*
X11501015Y-14811722D02*
X11491491Y-14792674D01*
X11491491Y-14792674D02*
X11472443Y-14783150D01*
X11472443Y-14783150D02*
X11434348Y-14783150D01*
X11434348Y-14783150D02*
X11415301Y-14792674D01*
X11501015Y-14906960D02*
X11481967Y-14916484D01*
X11481967Y-14916484D02*
X11434348Y-14916484D01*
X11434348Y-14916484D02*
X11415301Y-14906960D01*
X11415301Y-14906960D02*
X11405777Y-14887912D01*
X11405777Y-14887912D02*
X11405777Y-14868865D01*
X11405777Y-14868865D02*
X11415301Y-14849817D01*
X11415301Y-14849817D02*
X11434348Y-14840293D01*
X11434348Y-14840293D02*
X11481967Y-14840293D01*
X11481967Y-14840293D02*
X11501015Y-14830769D01*
X11596253Y-14783150D02*
X11596253Y-14983150D01*
X11596253Y-14792674D02*
X11615301Y-14783150D01*
X11615301Y-14783150D02*
X11653396Y-14783150D01*
X11653396Y-14783150D02*
X11672443Y-14792674D01*
X11672443Y-14792674D02*
X11681967Y-14802198D01*
X11681967Y-14802198D02*
X11691491Y-14821246D01*
X11691491Y-14821246D02*
X11691491Y-14878388D01*
X11691491Y-14878388D02*
X11681967Y-14897436D01*
X11681967Y-14897436D02*
X11672443Y-14906960D01*
X11672443Y-14906960D02*
X11653396Y-14916484D01*
X11653396Y-14916484D02*
X11615301Y-14916484D01*
X11615301Y-14916484D02*
X11596253Y-14906960D01*
X11777205Y-14897436D02*
X11786729Y-14906960D01*
X11786729Y-14906960D02*
X11777205Y-14916484D01*
X11777205Y-14916484D02*
X11767682Y-14906960D01*
X11767682Y-14906960D02*
X11777205Y-14897436D01*
X11777205Y-14897436D02*
X11777205Y-14916484D01*
X11777205Y-14792674D02*
X11786729Y-14802198D01*
X11786729Y-14802198D02*
X11777205Y-14811722D01*
X11777205Y-14811722D02*
X11767682Y-14802198D01*
X11767682Y-14802198D02*
X11777205Y-14792674D01*
X11777205Y-14792674D02*
X11777205Y-14811722D01*
D10*
X10125000Y-15235000D02*
X10145000Y-15255000D01*
X10145000Y-15235000D02*
X10125000Y-15255000D01*
D11*
X10443872Y-15136484D02*
X10462920Y-15136484D01*
X10462920Y-15136484D02*
X10481967Y-15146008D01*
X10481967Y-15146008D02*
X10491491Y-15155531D01*
X10491491Y-15155531D02*
X10501015Y-15174579D01*
X10501015Y-15174579D02*
X10510539Y-15212674D01*
X10510539Y-15212674D02*
X10510539Y-15260293D01*
X10510539Y-15260293D02*
X10501015Y-15298388D01*
X10501015Y-15298388D02*
X10491491Y-15317436D01*
X10491491Y-15317436D02*
X10481967Y-15326960D01*
X10481967Y-15326960D02*
X10462920Y-15336484D01*
X10462920Y-15336484D02*
X10443872Y-15336484D01*
X10443872Y-15336484D02*
X10424824Y-15326960D01*
X10424824Y-15326960D02*
X10415301Y-15317436D01*
X10415301Y-15317436D02*
X10405777Y-15298388D01*
X10405777Y-15298388D02*
X10396253Y-15260293D01*
X10396253Y-15260293D02*
X10396253Y-15212674D01*
X10396253Y-15212674D02*
X10405777Y-15174579D01*
X10405777Y-15174579D02*
X10415301Y-15155531D01*
X10415301Y-15155531D02*
X10424824Y-15146008D01*
X10424824Y-15146008D02*
X10443872Y-15136484D01*
X10596253Y-15317436D02*
X10605777Y-15326960D01*
X10605777Y-15326960D02*
X10596253Y-15336484D01*
X10596253Y-15336484D02*
X10586729Y-15326960D01*
X10586729Y-15326960D02*
X10596253Y-15317436D01*
X10596253Y-15317436D02*
X10596253Y-15336484D01*
X10681967Y-15155531D02*
X10691491Y-15146008D01*
X10691491Y-15146008D02*
X10710539Y-15136484D01*
X10710539Y-15136484D02*
X10758158Y-15136484D01*
X10758158Y-15136484D02*
X10777205Y-15146008D01*
X10777205Y-15146008D02*
X10786729Y-15155531D01*
X10786729Y-15155531D02*
X10796253Y-15174579D01*
X10796253Y-15174579D02*
X10796253Y-15193627D01*
X10796253Y-15193627D02*
X10786729Y-15222198D01*
X10786729Y-15222198D02*
X10672444Y-15336484D01*
X10672444Y-15336484D02*
X10796253Y-15336484D01*
X10920063Y-15136484D02*
X10939110Y-15136484D01*
X10939110Y-15136484D02*
X10958158Y-15146008D01*
X10958158Y-15146008D02*
X10967682Y-15155531D01*
X10967682Y-15155531D02*
X10977205Y-15174579D01*
X10977205Y-15174579D02*
X10986729Y-15212674D01*
X10986729Y-15212674D02*
X10986729Y-15260293D01*
X10986729Y-15260293D02*
X10977205Y-15298388D01*
X10977205Y-15298388D02*
X10967682Y-15317436D01*
X10967682Y-15317436D02*
X10958158Y-15326960D01*
X10958158Y-15326960D02*
X10939110Y-15336484D01*
X10939110Y-15336484D02*
X10920063Y-15336484D01*
X10920063Y-15336484D02*
X10901015Y-15326960D01*
X10901015Y-15326960D02*
X10891491Y-15317436D01*
X10891491Y-15317436D02*
X10881967Y-15298388D01*
X10881967Y-15298388D02*
X10872444Y-15260293D01*
X10872444Y-15260293D02*
X10872444Y-15212674D01*
X10872444Y-15212674D02*
X10881967Y-15174579D01*
X10881967Y-15174579D02*
X10891491Y-15155531D01*
X10891491Y-15155531D02*
X10901015Y-15146008D01*
X10901015Y-15146008D02*
X10920063Y-15136484D01*
X11110539Y-15136484D02*
X11129586Y-15136484D01*
X11129586Y-15136484D02*
X11148634Y-15146008D01*
X11148634Y-15146008D02*
X11158158Y-15155531D01*
X11158158Y-15155531D02*
X11167682Y-15174579D01*
X11167682Y-15174579D02*
X11177205Y-15212674D01*
X11177205Y-15212674D02*
X11177205Y-15260293D01*
X11177205Y-15260293D02*
X11167682Y-15298388D01*
X11167682Y-15298388D02*
X11158158Y-15317436D01*
X11158158Y-15317436D02*
X11148634Y-15326960D01*
X11148634Y-15326960D02*
X11129586Y-15336484D01*
X11129586Y-15336484D02*
X11110539Y-15336484D01*
X11110539Y-15336484D02*
X11091491Y-15326960D01*
X11091491Y-15326960D02*
X11081967Y-15317436D01*
X11081967Y-15317436D02*
X11072444Y-15298388D01*
X11072444Y-15298388D02*
X11062920Y-15260293D01*
X11062920Y-15260293D02*
X11062920Y-15212674D01*
X11062920Y-15212674D02*
X11072444Y-15174579D01*
X11072444Y-15174579D02*
X11081967Y-15155531D01*
X11081967Y-15155531D02*
X11091491Y-15146008D01*
X11091491Y-15146008D02*
X11110539Y-15136484D01*
X11262920Y-15336484D02*
X11262920Y-15203150D01*
X11262920Y-15222198D02*
X11272443Y-15212674D01*
X11272443Y-15212674D02*
X11291491Y-15203150D01*
X11291491Y-15203150D02*
X11320063Y-15203150D01*
X11320063Y-15203150D02*
X11339110Y-15212674D01*
X11339110Y-15212674D02*
X11348634Y-15231722D01*
X11348634Y-15231722D02*
X11348634Y-15336484D01*
X11348634Y-15231722D02*
X11358158Y-15212674D01*
X11358158Y-15212674D02*
X11377205Y-15203150D01*
X11377205Y-15203150D02*
X11405777Y-15203150D01*
X11405777Y-15203150D02*
X11424824Y-15212674D01*
X11424824Y-15212674D02*
X11434348Y-15231722D01*
X11434348Y-15231722D02*
X11434348Y-15336484D01*
X11529586Y-15336484D02*
X11529586Y-15203150D01*
X11529586Y-15222198D02*
X11539110Y-15212674D01*
X11539110Y-15212674D02*
X11558158Y-15203150D01*
X11558158Y-15203150D02*
X11586729Y-15203150D01*
X11586729Y-15203150D02*
X11605777Y-15212674D01*
X11605777Y-15212674D02*
X11615301Y-15231722D01*
X11615301Y-15231722D02*
X11615301Y-15336484D01*
X11615301Y-15231722D02*
X11624824Y-15212674D01*
X11624824Y-15212674D02*
X11643872Y-15203150D01*
X11643872Y-15203150D02*
X11672443Y-15203150D01*
X11672443Y-15203150D02*
X11691491Y-15212674D01*
X11691491Y-15212674D02*
X11701015Y-15231722D01*
X11701015Y-15231722D02*
X11701015Y-15336484D01*
X12091491Y-15126960D02*
X11920063Y-15384103D01*
X12348634Y-15136484D02*
X12367682Y-15136484D01*
X12367682Y-15136484D02*
X12386729Y-15146008D01*
X12386729Y-15146008D02*
X12396253Y-15155531D01*
X12396253Y-15155531D02*
X12405777Y-15174579D01*
X12405777Y-15174579D02*
X12415301Y-15212674D01*
X12415301Y-15212674D02*
X12415301Y-15260293D01*
X12415301Y-15260293D02*
X12405777Y-15298388D01*
X12405777Y-15298388D02*
X12396253Y-15317436D01*
X12396253Y-15317436D02*
X12386729Y-15326960D01*
X12386729Y-15326960D02*
X12367682Y-15336484D01*
X12367682Y-15336484D02*
X12348634Y-15336484D01*
X12348634Y-15336484D02*
X12329586Y-15326960D01*
X12329586Y-15326960D02*
X12320063Y-15317436D01*
X12320063Y-15317436D02*
X12310539Y-15298388D01*
X12310539Y-15298388D02*
X12301015Y-15260293D01*
X12301015Y-15260293D02*
X12301015Y-15212674D01*
X12301015Y-15212674D02*
X12310539Y-15174579D01*
X12310539Y-15174579D02*
X12320063Y-15155531D01*
X12320063Y-15155531D02*
X12329586Y-15146008D01*
X12329586Y-15146008D02*
X12348634Y-15136484D01*
X12501015Y-15317436D02*
X12510539Y-15326960D01*
X12510539Y-15326960D02*
X12501015Y-15336484D01*
X12501015Y-15336484D02*
X12491491Y-15326960D01*
X12491491Y-15326960D02*
X12501015Y-15317436D01*
X12501015Y-15317436D02*
X12501015Y-15336484D01*
X12634348Y-15136484D02*
X12653396Y-15136484D01*
X12653396Y-15136484D02*
X12672444Y-15146008D01*
X12672444Y-15146008D02*
X12681967Y-15155531D01*
X12681967Y-15155531D02*
X12691491Y-15174579D01*
X12691491Y-15174579D02*
X12701015Y-15212674D01*
X12701015Y-15212674D02*
X12701015Y-15260293D01*
X12701015Y-15260293D02*
X12691491Y-15298388D01*
X12691491Y-15298388D02*
X12681967Y-15317436D01*
X12681967Y-15317436D02*
X12672444Y-15326960D01*
X12672444Y-15326960D02*
X12653396Y-15336484D01*
X12653396Y-15336484D02*
X12634348Y-15336484D01*
X12634348Y-15336484D02*
X12615301Y-15326960D01*
X12615301Y-15326960D02*
X12605777Y-15317436D01*
X12605777Y-15317436D02*
X12596253Y-15298388D01*
X12596253Y-15298388D02*
X12586729Y-15260293D01*
X12586729Y-15260293D02*
X12586729Y-15212674D01*
X12586729Y-15212674D02*
X12596253Y-15174579D01*
X12596253Y-15174579D02*
X12605777Y-15155531D01*
X12605777Y-15155531D02*
X12615301Y-15146008D01*
X12615301Y-15146008D02*
X12634348Y-15136484D01*
X12824825Y-15136484D02*
X12843872Y-15136484D01*
X12843872Y-15136484D02*
X12862920Y-15146008D01*
X12862920Y-15146008D02*
X12872444Y-15155531D01*
X12872444Y-15155531D02*
X12881967Y-15174579D01*
X12881967Y-15174579D02*
X12891491Y-15212674D01*
X12891491Y-15212674D02*
X12891491Y-15260293D01*
X12891491Y-15260293D02*
X12881967Y-15298388D01*
X12881967Y-15298388D02*
X12872444Y-15317436D01*
X12872444Y-15317436D02*
X12862920Y-15326960D01*
X12862920Y-15326960D02*
X12843872Y-15336484D01*
X12843872Y-15336484D02*
X12824825Y-15336484D01*
X12824825Y-15336484D02*
X12805777Y-15326960D01*
X12805777Y-15326960D02*
X12796253Y-15317436D01*
X12796253Y-15317436D02*
X12786729Y-15298388D01*
X12786729Y-15298388D02*
X12777206Y-15260293D01*
X12777206Y-15260293D02*
X12777206Y-15212674D01*
X12777206Y-15212674D02*
X12786729Y-15174579D01*
X12786729Y-15174579D02*
X12796253Y-15155531D01*
X12796253Y-15155531D02*
X12805777Y-15146008D01*
X12805777Y-15146008D02*
X12824825Y-15136484D01*
X12958158Y-15136484D02*
X13091491Y-15136484D01*
X13091491Y-15136484D02*
X13005777Y-15336484D01*
X13177206Y-15336484D02*
X13215301Y-15336484D01*
X13215301Y-15336484D02*
X13234348Y-15326960D01*
X13234348Y-15326960D02*
X13243872Y-15317436D01*
X13243872Y-15317436D02*
X13262920Y-15288865D01*
X13262920Y-15288865D02*
X13272444Y-15250769D01*
X13272444Y-15250769D02*
X13272444Y-15174579D01*
X13272444Y-15174579D02*
X13262920Y-15155531D01*
X13262920Y-15155531D02*
X13253396Y-15146008D01*
X13253396Y-15146008D02*
X13234348Y-15136484D01*
X13234348Y-15136484D02*
X13196253Y-15136484D01*
X13196253Y-15136484D02*
X13177206Y-15146008D01*
X13177206Y-15146008D02*
X13167682Y-15155531D01*
X13167682Y-15155531D02*
X13158158Y-15174579D01*
X13158158Y-15174579D02*
X13158158Y-15222198D01*
X13158158Y-15222198D02*
X13167682Y-15241246D01*
X13167682Y-15241246D02*
X13177206Y-15250769D01*
X13177206Y-15250769D02*
X13196253Y-15260293D01*
X13196253Y-15260293D02*
X13234348Y-15260293D01*
X13234348Y-15260293D02*
X13253396Y-15250769D01*
X13253396Y-15250769D02*
X13262920Y-15241246D01*
X13262920Y-15241246D02*
X13272444Y-15222198D01*
X13348634Y-15136484D02*
X13348634Y-15174579D01*
X13424825Y-15136484D02*
X13424825Y-15174579D01*
X13720063Y-15412674D02*
X13710539Y-15403150D01*
X13710539Y-15403150D02*
X13691491Y-15374579D01*
X13691491Y-15374579D02*
X13681968Y-15355531D01*
X13681968Y-15355531D02*
X13672444Y-15326960D01*
X13672444Y-15326960D02*
X13662920Y-15279341D01*
X13662920Y-15279341D02*
X13662920Y-15241246D01*
X13662920Y-15241246D02*
X13672444Y-15193627D01*
X13672444Y-15193627D02*
X13681968Y-15165055D01*
X13681968Y-15165055D02*
X13691491Y-15146008D01*
X13691491Y-15146008D02*
X13710539Y-15117436D01*
X13710539Y-15117436D02*
X13720063Y-15107912D01*
X13901015Y-15336484D02*
X13786729Y-15336484D01*
X13843872Y-15336484D02*
X13843872Y-15136484D01*
X13843872Y-15136484D02*
X13824825Y-15165055D01*
X13824825Y-15165055D02*
X13805777Y-15184103D01*
X13805777Y-15184103D02*
X13786729Y-15193627D01*
X14139110Y-15336484D02*
X14139110Y-15136484D01*
X14224825Y-15336484D02*
X14224825Y-15231722D01*
X14224825Y-15231722D02*
X14215301Y-15212674D01*
X14215301Y-15212674D02*
X14196253Y-15203150D01*
X14196253Y-15203150D02*
X14167682Y-15203150D01*
X14167682Y-15203150D02*
X14148634Y-15212674D01*
X14148634Y-15212674D02*
X14139110Y-15222198D01*
X14348634Y-15336484D02*
X14329587Y-15326960D01*
X14329587Y-15326960D02*
X14320063Y-15317436D01*
X14320063Y-15317436D02*
X14310539Y-15298388D01*
X14310539Y-15298388D02*
X14310539Y-15241246D01*
X14310539Y-15241246D02*
X14320063Y-15222198D01*
X14320063Y-15222198D02*
X14329587Y-15212674D01*
X14329587Y-15212674D02*
X14348634Y-15203150D01*
X14348634Y-15203150D02*
X14377206Y-15203150D01*
X14377206Y-15203150D02*
X14396253Y-15212674D01*
X14396253Y-15212674D02*
X14405777Y-15222198D01*
X14405777Y-15222198D02*
X14415301Y-15241246D01*
X14415301Y-15241246D02*
X14415301Y-15298388D01*
X14415301Y-15298388D02*
X14405777Y-15317436D01*
X14405777Y-15317436D02*
X14396253Y-15326960D01*
X14396253Y-15326960D02*
X14377206Y-15336484D01*
X14377206Y-15336484D02*
X14348634Y-15336484D01*
X14529587Y-15336484D02*
X14510539Y-15326960D01*
X14510539Y-15326960D02*
X14501015Y-15307912D01*
X14501015Y-15307912D02*
X14501015Y-15136484D01*
X14681968Y-15326960D02*
X14662920Y-15336484D01*
X14662920Y-15336484D02*
X14624825Y-15336484D01*
X14624825Y-15336484D02*
X14605777Y-15326960D01*
X14605777Y-15326960D02*
X14596253Y-15307912D01*
X14596253Y-15307912D02*
X14596253Y-15231722D01*
X14596253Y-15231722D02*
X14605777Y-15212674D01*
X14605777Y-15212674D02*
X14624825Y-15203150D01*
X14624825Y-15203150D02*
X14662920Y-15203150D01*
X14662920Y-15203150D02*
X14681968Y-15212674D01*
X14681968Y-15212674D02*
X14691491Y-15231722D01*
X14691491Y-15231722D02*
X14691491Y-15250769D01*
X14691491Y-15250769D02*
X14596253Y-15269817D01*
X14758158Y-15412674D02*
X14767682Y-15403150D01*
X14767682Y-15403150D02*
X14786730Y-15374579D01*
X14786730Y-15374579D02*
X14796253Y-15355531D01*
X14796253Y-15355531D02*
X14805777Y-15326960D01*
X14805777Y-15326960D02*
X14815301Y-15279341D01*
X14815301Y-15279341D02*
X14815301Y-15241246D01*
X14815301Y-15241246D02*
X14805777Y-15193627D01*
X14805777Y-15193627D02*
X14796253Y-15165055D01*
X14796253Y-15165055D02*
X14786730Y-15146008D01*
X14786730Y-15146008D02*
X14767682Y-15117436D01*
X14767682Y-15117436D02*
X14758158Y-15107912D01*
D10*
X10145000Y-15509000D02*
G75*
G02*
X10125000Y-15509000I-10000J0D01*
G01*
X10125000Y-15509000D02*
G75*
G02*
X10145000Y-15509000I10000J0D01*
G01*
D11*
X10443872Y-15400484D02*
X10462920Y-15400484D01*
X10462920Y-15400484D02*
X10481967Y-15410008D01*
X10481967Y-15410008D02*
X10491491Y-15419531D01*
X10491491Y-15419531D02*
X10501015Y-15438579D01*
X10501015Y-15438579D02*
X10510539Y-15476674D01*
X10510539Y-15476674D02*
X10510539Y-15524293D01*
X10510539Y-15524293D02*
X10501015Y-15562388D01*
X10501015Y-15562388D02*
X10491491Y-15581436D01*
X10491491Y-15581436D02*
X10481967Y-15590960D01*
X10481967Y-15590960D02*
X10462920Y-15600484D01*
X10462920Y-15600484D02*
X10443872Y-15600484D01*
X10443872Y-15600484D02*
X10424824Y-15590960D01*
X10424824Y-15590960D02*
X10415301Y-15581436D01*
X10415301Y-15581436D02*
X10405777Y-15562388D01*
X10405777Y-15562388D02*
X10396253Y-15524293D01*
X10396253Y-15524293D02*
X10396253Y-15476674D01*
X10396253Y-15476674D02*
X10405777Y-15438579D01*
X10405777Y-15438579D02*
X10415301Y-15419531D01*
X10415301Y-15419531D02*
X10424824Y-15410008D01*
X10424824Y-15410008D02*
X10443872Y-15400484D01*
X10596253Y-15581436D02*
X10605777Y-15590960D01*
X10605777Y-15590960D02*
X10596253Y-15600484D01*
X10596253Y-15600484D02*
X10586729Y-15590960D01*
X10586729Y-15590960D02*
X10596253Y-15581436D01*
X10596253Y-15581436D02*
X10596253Y-15600484D01*
X10681967Y-15419531D02*
X10691491Y-15410008D01*
X10691491Y-15410008D02*
X10710539Y-15400484D01*
X10710539Y-15400484D02*
X10758158Y-15400484D01*
X10758158Y-15400484D02*
X10777205Y-15410008D01*
X10777205Y-15410008D02*
X10786729Y-15419531D01*
X10786729Y-15419531D02*
X10796253Y-15438579D01*
X10796253Y-15438579D02*
X10796253Y-15457627D01*
X10796253Y-15457627D02*
X10786729Y-15486198D01*
X10786729Y-15486198D02*
X10672444Y-15600484D01*
X10672444Y-15600484D02*
X10796253Y-15600484D01*
X10920063Y-15400484D02*
X10939110Y-15400484D01*
X10939110Y-15400484D02*
X10958158Y-15410008D01*
X10958158Y-15410008D02*
X10967682Y-15419531D01*
X10967682Y-15419531D02*
X10977205Y-15438579D01*
X10977205Y-15438579D02*
X10986729Y-15476674D01*
X10986729Y-15476674D02*
X10986729Y-15524293D01*
X10986729Y-15524293D02*
X10977205Y-15562388D01*
X10977205Y-15562388D02*
X10967682Y-15581436D01*
X10967682Y-15581436D02*
X10958158Y-15590960D01*
X10958158Y-15590960D02*
X10939110Y-15600484D01*
X10939110Y-15600484D02*
X10920063Y-15600484D01*
X10920063Y-15600484D02*
X10901015Y-15590960D01*
X10901015Y-15590960D02*
X10891491Y-15581436D01*
X10891491Y-15581436D02*
X10881967Y-15562388D01*
X10881967Y-15562388D02*
X10872444Y-15524293D01*
X10872444Y-15524293D02*
X10872444Y-15476674D01*
X10872444Y-15476674D02*
X10881967Y-15438579D01*
X10881967Y-15438579D02*
X10891491Y-15419531D01*
X10891491Y-15419531D02*
X10901015Y-15410008D01*
X10901015Y-15410008D02*
X10920063Y-15400484D01*
X11110539Y-15400484D02*
X11129586Y-15400484D01*
X11129586Y-15400484D02*
X11148634Y-15410008D01*
X11148634Y-15410008D02*
X11158158Y-15419531D01*
X11158158Y-15419531D02*
X11167682Y-15438579D01*
X11167682Y-15438579D02*
X11177205Y-15476674D01*
X11177205Y-15476674D02*
X11177205Y-15524293D01*
X11177205Y-15524293D02*
X11167682Y-15562388D01*
X11167682Y-15562388D02*
X11158158Y-15581436D01*
X11158158Y-15581436D02*
X11148634Y-15590960D01*
X11148634Y-15590960D02*
X11129586Y-15600484D01*
X11129586Y-15600484D02*
X11110539Y-15600484D01*
X11110539Y-15600484D02*
X11091491Y-15590960D01*
X11091491Y-15590960D02*
X11081967Y-15581436D01*
X11081967Y-15581436D02*
X11072444Y-15562388D01*
X11072444Y-15562388D02*
X11062920Y-15524293D01*
X11062920Y-15524293D02*
X11062920Y-15476674D01*
X11062920Y-15476674D02*
X11072444Y-15438579D01*
X11072444Y-15438579D02*
X11081967Y-15419531D01*
X11081967Y-15419531D02*
X11091491Y-15410008D01*
X11091491Y-15410008D02*
X11110539Y-15400484D01*
X11262920Y-15600484D02*
X11262920Y-15467150D01*
X11262920Y-15486198D02*
X11272443Y-15476674D01*
X11272443Y-15476674D02*
X11291491Y-15467150D01*
X11291491Y-15467150D02*
X11320063Y-15467150D01*
X11320063Y-15467150D02*
X11339110Y-15476674D01*
X11339110Y-15476674D02*
X11348634Y-15495722D01*
X11348634Y-15495722D02*
X11348634Y-15600484D01*
X11348634Y-15495722D02*
X11358158Y-15476674D01*
X11358158Y-15476674D02*
X11377205Y-15467150D01*
X11377205Y-15467150D02*
X11405777Y-15467150D01*
X11405777Y-15467150D02*
X11424824Y-15476674D01*
X11424824Y-15476674D02*
X11434348Y-15495722D01*
X11434348Y-15495722D02*
X11434348Y-15600484D01*
X11529586Y-15600484D02*
X11529586Y-15467150D01*
X11529586Y-15486198D02*
X11539110Y-15476674D01*
X11539110Y-15476674D02*
X11558158Y-15467150D01*
X11558158Y-15467150D02*
X11586729Y-15467150D01*
X11586729Y-15467150D02*
X11605777Y-15476674D01*
X11605777Y-15476674D02*
X11615301Y-15495722D01*
X11615301Y-15495722D02*
X11615301Y-15600484D01*
X11615301Y-15495722D02*
X11624824Y-15476674D01*
X11624824Y-15476674D02*
X11643872Y-15467150D01*
X11643872Y-15467150D02*
X11672443Y-15467150D01*
X11672443Y-15467150D02*
X11691491Y-15476674D01*
X11691491Y-15476674D02*
X11701015Y-15495722D01*
X11701015Y-15495722D02*
X11701015Y-15600484D01*
X12091491Y-15390960D02*
X11920063Y-15648103D01*
X12348634Y-15400484D02*
X12367682Y-15400484D01*
X12367682Y-15400484D02*
X12386729Y-15410008D01*
X12386729Y-15410008D02*
X12396253Y-15419531D01*
X12396253Y-15419531D02*
X12405777Y-15438579D01*
X12405777Y-15438579D02*
X12415301Y-15476674D01*
X12415301Y-15476674D02*
X12415301Y-15524293D01*
X12415301Y-15524293D02*
X12405777Y-15562388D01*
X12405777Y-15562388D02*
X12396253Y-15581436D01*
X12396253Y-15581436D02*
X12386729Y-15590960D01*
X12386729Y-15590960D02*
X12367682Y-15600484D01*
X12367682Y-15600484D02*
X12348634Y-15600484D01*
X12348634Y-15600484D02*
X12329586Y-15590960D01*
X12329586Y-15590960D02*
X12320063Y-15581436D01*
X12320063Y-15581436D02*
X12310539Y-15562388D01*
X12310539Y-15562388D02*
X12301015Y-15524293D01*
X12301015Y-15524293D02*
X12301015Y-15476674D01*
X12301015Y-15476674D02*
X12310539Y-15438579D01*
X12310539Y-15438579D02*
X12320063Y-15419531D01*
X12320063Y-15419531D02*
X12329586Y-15410008D01*
X12329586Y-15410008D02*
X12348634Y-15400484D01*
X12501015Y-15581436D02*
X12510539Y-15590960D01*
X12510539Y-15590960D02*
X12501015Y-15600484D01*
X12501015Y-15600484D02*
X12491491Y-15590960D01*
X12491491Y-15590960D02*
X12501015Y-15581436D01*
X12501015Y-15581436D02*
X12501015Y-15600484D01*
X12634348Y-15400484D02*
X12653396Y-15400484D01*
X12653396Y-15400484D02*
X12672444Y-15410008D01*
X12672444Y-15410008D02*
X12681967Y-15419531D01*
X12681967Y-15419531D02*
X12691491Y-15438579D01*
X12691491Y-15438579D02*
X12701015Y-15476674D01*
X12701015Y-15476674D02*
X12701015Y-15524293D01*
X12701015Y-15524293D02*
X12691491Y-15562388D01*
X12691491Y-15562388D02*
X12681967Y-15581436D01*
X12681967Y-15581436D02*
X12672444Y-15590960D01*
X12672444Y-15590960D02*
X12653396Y-15600484D01*
X12653396Y-15600484D02*
X12634348Y-15600484D01*
X12634348Y-15600484D02*
X12615301Y-15590960D01*
X12615301Y-15590960D02*
X12605777Y-15581436D01*
X12605777Y-15581436D02*
X12596253Y-15562388D01*
X12596253Y-15562388D02*
X12586729Y-15524293D01*
X12586729Y-15524293D02*
X12586729Y-15476674D01*
X12586729Y-15476674D02*
X12596253Y-15438579D01*
X12596253Y-15438579D02*
X12605777Y-15419531D01*
X12605777Y-15419531D02*
X12615301Y-15410008D01*
X12615301Y-15410008D02*
X12634348Y-15400484D01*
X12824825Y-15400484D02*
X12843872Y-15400484D01*
X12843872Y-15400484D02*
X12862920Y-15410008D01*
X12862920Y-15410008D02*
X12872444Y-15419531D01*
X12872444Y-15419531D02*
X12881967Y-15438579D01*
X12881967Y-15438579D02*
X12891491Y-15476674D01*
X12891491Y-15476674D02*
X12891491Y-15524293D01*
X12891491Y-15524293D02*
X12881967Y-15562388D01*
X12881967Y-15562388D02*
X12872444Y-15581436D01*
X12872444Y-15581436D02*
X12862920Y-15590960D01*
X12862920Y-15590960D02*
X12843872Y-15600484D01*
X12843872Y-15600484D02*
X12824825Y-15600484D01*
X12824825Y-15600484D02*
X12805777Y-15590960D01*
X12805777Y-15590960D02*
X12796253Y-15581436D01*
X12796253Y-15581436D02*
X12786729Y-15562388D01*
X12786729Y-15562388D02*
X12777206Y-15524293D01*
X12777206Y-15524293D02*
X12777206Y-15476674D01*
X12777206Y-15476674D02*
X12786729Y-15438579D01*
X12786729Y-15438579D02*
X12796253Y-15419531D01*
X12796253Y-15419531D02*
X12805777Y-15410008D01*
X12805777Y-15410008D02*
X12824825Y-15400484D01*
X12958158Y-15400484D02*
X13091491Y-15400484D01*
X13091491Y-15400484D02*
X13005777Y-15600484D01*
X13177206Y-15600484D02*
X13215301Y-15600484D01*
X13215301Y-15600484D02*
X13234348Y-15590960D01*
X13234348Y-15590960D02*
X13243872Y-15581436D01*
X13243872Y-15581436D02*
X13262920Y-15552865D01*
X13262920Y-15552865D02*
X13272444Y-15514769D01*
X13272444Y-15514769D02*
X13272444Y-15438579D01*
X13272444Y-15438579D02*
X13262920Y-15419531D01*
X13262920Y-15419531D02*
X13253396Y-15410008D01*
X13253396Y-15410008D02*
X13234348Y-15400484D01*
X13234348Y-15400484D02*
X13196253Y-15400484D01*
X13196253Y-15400484D02*
X13177206Y-15410008D01*
X13177206Y-15410008D02*
X13167682Y-15419531D01*
X13167682Y-15419531D02*
X13158158Y-15438579D01*
X13158158Y-15438579D02*
X13158158Y-15486198D01*
X13158158Y-15486198D02*
X13167682Y-15505246D01*
X13167682Y-15505246D02*
X13177206Y-15514769D01*
X13177206Y-15514769D02*
X13196253Y-15524293D01*
X13196253Y-15524293D02*
X13234348Y-15524293D01*
X13234348Y-15524293D02*
X13253396Y-15514769D01*
X13253396Y-15514769D02*
X13262920Y-15505246D01*
X13262920Y-15505246D02*
X13272444Y-15486198D01*
X13348634Y-15400484D02*
X13348634Y-15438579D01*
X13424825Y-15400484D02*
X13424825Y-15438579D01*
X13720063Y-15676674D02*
X13710539Y-15667150D01*
X13710539Y-15667150D02*
X13691491Y-15638579D01*
X13691491Y-15638579D02*
X13681968Y-15619531D01*
X13681968Y-15619531D02*
X13672444Y-15590960D01*
X13672444Y-15590960D02*
X13662920Y-15543341D01*
X13662920Y-15543341D02*
X13662920Y-15505246D01*
X13662920Y-15505246D02*
X13672444Y-15457627D01*
X13672444Y-15457627D02*
X13681968Y-15429055D01*
X13681968Y-15429055D02*
X13691491Y-15410008D01*
X13691491Y-15410008D02*
X13710539Y-15381436D01*
X13710539Y-15381436D02*
X13720063Y-15371912D01*
X13901015Y-15600484D02*
X13786729Y-15600484D01*
X13843872Y-15600484D02*
X13843872Y-15400484D01*
X13843872Y-15400484D02*
X13824825Y-15429055D01*
X13824825Y-15429055D02*
X13805777Y-15448103D01*
X13805777Y-15448103D02*
X13786729Y-15457627D01*
X13977206Y-15419531D02*
X13986729Y-15410008D01*
X13986729Y-15410008D02*
X14005777Y-15400484D01*
X14005777Y-15400484D02*
X14053396Y-15400484D01*
X14053396Y-15400484D02*
X14072444Y-15410008D01*
X14072444Y-15410008D02*
X14081968Y-15419531D01*
X14081968Y-15419531D02*
X14091491Y-15438579D01*
X14091491Y-15438579D02*
X14091491Y-15457627D01*
X14091491Y-15457627D02*
X14081968Y-15486198D01*
X14081968Y-15486198D02*
X13967682Y-15600484D01*
X13967682Y-15600484D02*
X14091491Y-15600484D01*
X14329587Y-15600484D02*
X14329587Y-15400484D01*
X14415301Y-15600484D02*
X14415301Y-15495722D01*
X14415301Y-15495722D02*
X14405777Y-15476674D01*
X14405777Y-15476674D02*
X14386730Y-15467150D01*
X14386730Y-15467150D02*
X14358158Y-15467150D01*
X14358158Y-15467150D02*
X14339110Y-15476674D01*
X14339110Y-15476674D02*
X14329587Y-15486198D01*
X14539110Y-15600484D02*
X14520063Y-15590960D01*
X14520063Y-15590960D02*
X14510539Y-15581436D01*
X14510539Y-15581436D02*
X14501015Y-15562388D01*
X14501015Y-15562388D02*
X14501015Y-15505246D01*
X14501015Y-15505246D02*
X14510539Y-15486198D01*
X14510539Y-15486198D02*
X14520063Y-15476674D01*
X14520063Y-15476674D02*
X14539110Y-15467150D01*
X14539110Y-15467150D02*
X14567682Y-15467150D01*
X14567682Y-15467150D02*
X14586730Y-15476674D01*
X14586730Y-15476674D02*
X14596253Y-15486198D01*
X14596253Y-15486198D02*
X14605777Y-15505246D01*
X14605777Y-15505246D02*
X14605777Y-15562388D01*
X14605777Y-15562388D02*
X14596253Y-15581436D01*
X14596253Y-15581436D02*
X14586730Y-15590960D01*
X14586730Y-15590960D02*
X14567682Y-15600484D01*
X14567682Y-15600484D02*
X14539110Y-15600484D01*
X14720063Y-15600484D02*
X14701015Y-15590960D01*
X14701015Y-15590960D02*
X14691491Y-15571912D01*
X14691491Y-15571912D02*
X14691491Y-15400484D01*
X14872444Y-15590960D02*
X14853396Y-15600484D01*
X14853396Y-15600484D02*
X14815301Y-15600484D01*
X14815301Y-15600484D02*
X14796253Y-15590960D01*
X14796253Y-15590960D02*
X14786730Y-15571912D01*
X14786730Y-15571912D02*
X14786730Y-15495722D01*
X14786730Y-15495722D02*
X14796253Y-15476674D01*
X14796253Y-15476674D02*
X14815301Y-15467150D01*
X14815301Y-15467150D02*
X14853396Y-15467150D01*
X14853396Y-15467150D02*
X14872444Y-15476674D01*
X14872444Y-15476674D02*
X14881968Y-15495722D01*
X14881968Y-15495722D02*
X14881968Y-15514769D01*
X14881968Y-15514769D02*
X14786730Y-15533817D01*
X14958158Y-15590960D02*
X14977206Y-15600484D01*
X14977206Y-15600484D02*
X15015301Y-15600484D01*
X15015301Y-15600484D02*
X15034349Y-15590960D01*
X15034349Y-15590960D02*
X15043872Y-15571912D01*
X15043872Y-15571912D02*
X15043872Y-15562388D01*
X15043872Y-15562388D02*
X15034349Y-15543341D01*
X15034349Y-15543341D02*
X15015301Y-15533817D01*
X15015301Y-15533817D02*
X14986730Y-15533817D01*
X14986730Y-15533817D02*
X14967682Y-15524293D01*
X14967682Y-15524293D02*
X14958158Y-15505246D01*
X14958158Y-15505246D02*
X14958158Y-15495722D01*
X14958158Y-15495722D02*
X14967682Y-15476674D01*
X14967682Y-15476674D02*
X14986730Y-15467150D01*
X14986730Y-15467150D02*
X15015301Y-15467150D01*
X15015301Y-15467150D02*
X15034349Y-15476674D01*
X15110539Y-15676674D02*
X15120063Y-15667150D01*
X15120063Y-15667150D02*
X15139111Y-15638579D01*
X15139111Y-15638579D02*
X15148634Y-15619531D01*
X15148634Y-15619531D02*
X15158158Y-15590960D01*
X15158158Y-15590960D02*
X15167682Y-15543341D01*
X15167682Y-15543341D02*
X15167682Y-15505246D01*
X15167682Y-15505246D02*
X15158158Y-15457627D01*
X15158158Y-15457627D02*
X15148634Y-15429055D01*
X15148634Y-15429055D02*
X15139111Y-15410008D01*
X15139111Y-15410008D02*
X15120063Y-15381436D01*
X15120063Y-15381436D02*
X15110539Y-15371912D01*
D10*
X10125000Y-15753000D02*
X10125000Y-15793000D01*
X10105000Y-15773000D02*
X10145000Y-15773000D01*
D11*
X10443872Y-15664484D02*
X10462920Y-15664484D01*
X10462920Y-15664484D02*
X10481967Y-15674008D01*
X10481967Y-15674008D02*
X10491491Y-15683531D01*
X10491491Y-15683531D02*
X10501015Y-15702579D01*
X10501015Y-15702579D02*
X10510539Y-15740674D01*
X10510539Y-15740674D02*
X10510539Y-15788293D01*
X10510539Y-15788293D02*
X10501015Y-15826388D01*
X10501015Y-15826388D02*
X10491491Y-15845436D01*
X10491491Y-15845436D02*
X10481967Y-15854960D01*
X10481967Y-15854960D02*
X10462920Y-15864484D01*
X10462920Y-15864484D02*
X10443872Y-15864484D01*
X10443872Y-15864484D02*
X10424824Y-15854960D01*
X10424824Y-15854960D02*
X10415301Y-15845436D01*
X10415301Y-15845436D02*
X10405777Y-15826388D01*
X10405777Y-15826388D02*
X10396253Y-15788293D01*
X10396253Y-15788293D02*
X10396253Y-15740674D01*
X10396253Y-15740674D02*
X10405777Y-15702579D01*
X10405777Y-15702579D02*
X10415301Y-15683531D01*
X10415301Y-15683531D02*
X10424824Y-15674008D01*
X10424824Y-15674008D02*
X10443872Y-15664484D01*
X10596253Y-15845436D02*
X10605777Y-15854960D01*
X10605777Y-15854960D02*
X10596253Y-15864484D01*
X10596253Y-15864484D02*
X10586729Y-15854960D01*
X10586729Y-15854960D02*
X10596253Y-15845436D01*
X10596253Y-15845436D02*
X10596253Y-15864484D01*
X10777205Y-15731150D02*
X10777205Y-15864484D01*
X10729586Y-15654960D02*
X10681967Y-15797817D01*
X10681967Y-15797817D02*
X10805777Y-15797817D01*
X10920063Y-15664484D02*
X10939110Y-15664484D01*
X10939110Y-15664484D02*
X10958158Y-15674008D01*
X10958158Y-15674008D02*
X10967682Y-15683531D01*
X10967682Y-15683531D02*
X10977205Y-15702579D01*
X10977205Y-15702579D02*
X10986729Y-15740674D01*
X10986729Y-15740674D02*
X10986729Y-15788293D01*
X10986729Y-15788293D02*
X10977205Y-15826388D01*
X10977205Y-15826388D02*
X10967682Y-15845436D01*
X10967682Y-15845436D02*
X10958158Y-15854960D01*
X10958158Y-15854960D02*
X10939110Y-15864484D01*
X10939110Y-15864484D02*
X10920063Y-15864484D01*
X10920063Y-15864484D02*
X10901015Y-15854960D01*
X10901015Y-15854960D02*
X10891491Y-15845436D01*
X10891491Y-15845436D02*
X10881967Y-15826388D01*
X10881967Y-15826388D02*
X10872444Y-15788293D01*
X10872444Y-15788293D02*
X10872444Y-15740674D01*
X10872444Y-15740674D02*
X10881967Y-15702579D01*
X10881967Y-15702579D02*
X10891491Y-15683531D01*
X10891491Y-15683531D02*
X10901015Y-15674008D01*
X10901015Y-15674008D02*
X10920063Y-15664484D01*
X11110539Y-15664484D02*
X11129586Y-15664484D01*
X11129586Y-15664484D02*
X11148634Y-15674008D01*
X11148634Y-15674008D02*
X11158158Y-15683531D01*
X11158158Y-15683531D02*
X11167682Y-15702579D01*
X11167682Y-15702579D02*
X11177205Y-15740674D01*
X11177205Y-15740674D02*
X11177205Y-15788293D01*
X11177205Y-15788293D02*
X11167682Y-15826388D01*
X11167682Y-15826388D02*
X11158158Y-15845436D01*
X11158158Y-15845436D02*
X11148634Y-15854960D01*
X11148634Y-15854960D02*
X11129586Y-15864484D01*
X11129586Y-15864484D02*
X11110539Y-15864484D01*
X11110539Y-15864484D02*
X11091491Y-15854960D01*
X11091491Y-15854960D02*
X11081967Y-15845436D01*
X11081967Y-15845436D02*
X11072444Y-15826388D01*
X11072444Y-15826388D02*
X11062920Y-15788293D01*
X11062920Y-15788293D02*
X11062920Y-15740674D01*
X11062920Y-15740674D02*
X11072444Y-15702579D01*
X11072444Y-15702579D02*
X11081967Y-15683531D01*
X11081967Y-15683531D02*
X11091491Y-15674008D01*
X11091491Y-15674008D02*
X11110539Y-15664484D01*
X11262920Y-15864484D02*
X11262920Y-15731150D01*
X11262920Y-15750198D02*
X11272443Y-15740674D01*
X11272443Y-15740674D02*
X11291491Y-15731150D01*
X11291491Y-15731150D02*
X11320063Y-15731150D01*
X11320063Y-15731150D02*
X11339110Y-15740674D01*
X11339110Y-15740674D02*
X11348634Y-15759722D01*
X11348634Y-15759722D02*
X11348634Y-15864484D01*
X11348634Y-15759722D02*
X11358158Y-15740674D01*
X11358158Y-15740674D02*
X11377205Y-15731150D01*
X11377205Y-15731150D02*
X11405777Y-15731150D01*
X11405777Y-15731150D02*
X11424824Y-15740674D01*
X11424824Y-15740674D02*
X11434348Y-15759722D01*
X11434348Y-15759722D02*
X11434348Y-15864484D01*
X11529586Y-15864484D02*
X11529586Y-15731150D01*
X11529586Y-15750198D02*
X11539110Y-15740674D01*
X11539110Y-15740674D02*
X11558158Y-15731150D01*
X11558158Y-15731150D02*
X11586729Y-15731150D01*
X11586729Y-15731150D02*
X11605777Y-15740674D01*
X11605777Y-15740674D02*
X11615301Y-15759722D01*
X11615301Y-15759722D02*
X11615301Y-15864484D01*
X11615301Y-15759722D02*
X11624824Y-15740674D01*
X11624824Y-15740674D02*
X11643872Y-15731150D01*
X11643872Y-15731150D02*
X11672443Y-15731150D01*
X11672443Y-15731150D02*
X11691491Y-15740674D01*
X11691491Y-15740674D02*
X11701015Y-15759722D01*
X11701015Y-15759722D02*
X11701015Y-15864484D01*
X12091491Y-15654960D02*
X11920063Y-15912103D01*
X12348634Y-15664484D02*
X12367682Y-15664484D01*
X12367682Y-15664484D02*
X12386729Y-15674008D01*
X12386729Y-15674008D02*
X12396253Y-15683531D01*
X12396253Y-15683531D02*
X12405777Y-15702579D01*
X12405777Y-15702579D02*
X12415301Y-15740674D01*
X12415301Y-15740674D02*
X12415301Y-15788293D01*
X12415301Y-15788293D02*
X12405777Y-15826388D01*
X12405777Y-15826388D02*
X12396253Y-15845436D01*
X12396253Y-15845436D02*
X12386729Y-15854960D01*
X12386729Y-15854960D02*
X12367682Y-15864484D01*
X12367682Y-15864484D02*
X12348634Y-15864484D01*
X12348634Y-15864484D02*
X12329586Y-15854960D01*
X12329586Y-15854960D02*
X12320063Y-15845436D01*
X12320063Y-15845436D02*
X12310539Y-15826388D01*
X12310539Y-15826388D02*
X12301015Y-15788293D01*
X12301015Y-15788293D02*
X12301015Y-15740674D01*
X12301015Y-15740674D02*
X12310539Y-15702579D01*
X12310539Y-15702579D02*
X12320063Y-15683531D01*
X12320063Y-15683531D02*
X12329586Y-15674008D01*
X12329586Y-15674008D02*
X12348634Y-15664484D01*
X12501015Y-15845436D02*
X12510539Y-15854960D01*
X12510539Y-15854960D02*
X12501015Y-15864484D01*
X12501015Y-15864484D02*
X12491491Y-15854960D01*
X12491491Y-15854960D02*
X12501015Y-15845436D01*
X12501015Y-15845436D02*
X12501015Y-15864484D01*
X12634348Y-15664484D02*
X12653396Y-15664484D01*
X12653396Y-15664484D02*
X12672444Y-15674008D01*
X12672444Y-15674008D02*
X12681967Y-15683531D01*
X12681967Y-15683531D02*
X12691491Y-15702579D01*
X12691491Y-15702579D02*
X12701015Y-15740674D01*
X12701015Y-15740674D02*
X12701015Y-15788293D01*
X12701015Y-15788293D02*
X12691491Y-15826388D01*
X12691491Y-15826388D02*
X12681967Y-15845436D01*
X12681967Y-15845436D02*
X12672444Y-15854960D01*
X12672444Y-15854960D02*
X12653396Y-15864484D01*
X12653396Y-15864484D02*
X12634348Y-15864484D01*
X12634348Y-15864484D02*
X12615301Y-15854960D01*
X12615301Y-15854960D02*
X12605777Y-15845436D01*
X12605777Y-15845436D02*
X12596253Y-15826388D01*
X12596253Y-15826388D02*
X12586729Y-15788293D01*
X12586729Y-15788293D02*
X12586729Y-15740674D01*
X12586729Y-15740674D02*
X12596253Y-15702579D01*
X12596253Y-15702579D02*
X12605777Y-15683531D01*
X12605777Y-15683531D02*
X12615301Y-15674008D01*
X12615301Y-15674008D02*
X12634348Y-15664484D01*
X12891491Y-15864484D02*
X12777206Y-15864484D01*
X12834348Y-15864484D02*
X12834348Y-15664484D01*
X12834348Y-15664484D02*
X12815301Y-15693055D01*
X12815301Y-15693055D02*
X12796253Y-15712103D01*
X12796253Y-15712103D02*
X12777206Y-15721627D01*
X13072444Y-15664484D02*
X12977206Y-15664484D01*
X12977206Y-15664484D02*
X12967682Y-15759722D01*
X12967682Y-15759722D02*
X12977206Y-15750198D01*
X12977206Y-15750198D02*
X12996253Y-15740674D01*
X12996253Y-15740674D02*
X13043872Y-15740674D01*
X13043872Y-15740674D02*
X13062920Y-15750198D01*
X13062920Y-15750198D02*
X13072444Y-15759722D01*
X13072444Y-15759722D02*
X13081967Y-15778769D01*
X13081967Y-15778769D02*
X13081967Y-15826388D01*
X13081967Y-15826388D02*
X13072444Y-15845436D01*
X13072444Y-15845436D02*
X13062920Y-15854960D01*
X13062920Y-15854960D02*
X13043872Y-15864484D01*
X13043872Y-15864484D02*
X12996253Y-15864484D01*
X12996253Y-15864484D02*
X12977206Y-15854960D01*
X12977206Y-15854960D02*
X12967682Y-15845436D01*
X13148634Y-15664484D02*
X13281967Y-15664484D01*
X13281967Y-15664484D02*
X13196253Y-15864484D01*
X13348634Y-15664484D02*
X13348634Y-15702579D01*
X13424825Y-15664484D02*
X13424825Y-15702579D01*
X13720063Y-15940674D02*
X13710539Y-15931150D01*
X13710539Y-15931150D02*
X13691491Y-15902579D01*
X13691491Y-15902579D02*
X13681968Y-15883531D01*
X13681968Y-15883531D02*
X13672444Y-15854960D01*
X13672444Y-15854960D02*
X13662920Y-15807341D01*
X13662920Y-15807341D02*
X13662920Y-15769246D01*
X13662920Y-15769246D02*
X13672444Y-15721627D01*
X13672444Y-15721627D02*
X13681968Y-15693055D01*
X13681968Y-15693055D02*
X13691491Y-15674008D01*
X13691491Y-15674008D02*
X13710539Y-15645436D01*
X13710539Y-15645436D02*
X13720063Y-15635912D01*
X13777206Y-15664484D02*
X13910539Y-15664484D01*
X13910539Y-15664484D02*
X13824825Y-15864484D01*
X14024825Y-15664484D02*
X14043872Y-15664484D01*
X14043872Y-15664484D02*
X14062920Y-15674008D01*
X14062920Y-15674008D02*
X14072444Y-15683531D01*
X14072444Y-15683531D02*
X14081968Y-15702579D01*
X14081968Y-15702579D02*
X14091491Y-15740674D01*
X14091491Y-15740674D02*
X14091491Y-15788293D01*
X14091491Y-15788293D02*
X14081968Y-15826388D01*
X14081968Y-15826388D02*
X14072444Y-15845436D01*
X14072444Y-15845436D02*
X14062920Y-15854960D01*
X14062920Y-15854960D02*
X14043872Y-15864484D01*
X14043872Y-15864484D02*
X14024825Y-15864484D01*
X14024825Y-15864484D02*
X14005777Y-15854960D01*
X14005777Y-15854960D02*
X13996253Y-15845436D01*
X13996253Y-15845436D02*
X13986729Y-15826388D01*
X13986729Y-15826388D02*
X13977206Y-15788293D01*
X13977206Y-15788293D02*
X13977206Y-15740674D01*
X13977206Y-15740674D02*
X13986729Y-15702579D01*
X13986729Y-15702579D02*
X13996253Y-15683531D01*
X13996253Y-15683531D02*
X14005777Y-15674008D01*
X14005777Y-15674008D02*
X14024825Y-15664484D01*
X14329587Y-15864484D02*
X14329587Y-15664484D01*
X14415301Y-15864484D02*
X14415301Y-15759722D01*
X14415301Y-15759722D02*
X14405777Y-15740674D01*
X14405777Y-15740674D02*
X14386730Y-15731150D01*
X14386730Y-15731150D02*
X14358158Y-15731150D01*
X14358158Y-15731150D02*
X14339110Y-15740674D01*
X14339110Y-15740674D02*
X14329587Y-15750198D01*
X14539110Y-15864484D02*
X14520063Y-15854960D01*
X14520063Y-15854960D02*
X14510539Y-15845436D01*
X14510539Y-15845436D02*
X14501015Y-15826388D01*
X14501015Y-15826388D02*
X14501015Y-15769246D01*
X14501015Y-15769246D02*
X14510539Y-15750198D01*
X14510539Y-15750198D02*
X14520063Y-15740674D01*
X14520063Y-15740674D02*
X14539110Y-15731150D01*
X14539110Y-15731150D02*
X14567682Y-15731150D01*
X14567682Y-15731150D02*
X14586730Y-15740674D01*
X14586730Y-15740674D02*
X14596253Y-15750198D01*
X14596253Y-15750198D02*
X14605777Y-15769246D01*
X14605777Y-15769246D02*
X14605777Y-15826388D01*
X14605777Y-15826388D02*
X14596253Y-15845436D01*
X14596253Y-15845436D02*
X14586730Y-15854960D01*
X14586730Y-15854960D02*
X14567682Y-15864484D01*
X14567682Y-15864484D02*
X14539110Y-15864484D01*
X14720063Y-15864484D02*
X14701015Y-15854960D01*
X14701015Y-15854960D02*
X14691491Y-15835912D01*
X14691491Y-15835912D02*
X14691491Y-15664484D01*
X14872444Y-15854960D02*
X14853396Y-15864484D01*
X14853396Y-15864484D02*
X14815301Y-15864484D01*
X14815301Y-15864484D02*
X14796253Y-15854960D01*
X14796253Y-15854960D02*
X14786730Y-15835912D01*
X14786730Y-15835912D02*
X14786730Y-15759722D01*
X14786730Y-15759722D02*
X14796253Y-15740674D01*
X14796253Y-15740674D02*
X14815301Y-15731150D01*
X14815301Y-15731150D02*
X14853396Y-15731150D01*
X14853396Y-15731150D02*
X14872444Y-15740674D01*
X14872444Y-15740674D02*
X14881968Y-15759722D01*
X14881968Y-15759722D02*
X14881968Y-15778769D01*
X14881968Y-15778769D02*
X14786730Y-15797817D01*
X14958158Y-15854960D02*
X14977206Y-15864484D01*
X14977206Y-15864484D02*
X15015301Y-15864484D01*
X15015301Y-15864484D02*
X15034349Y-15854960D01*
X15034349Y-15854960D02*
X15043872Y-15835912D01*
X15043872Y-15835912D02*
X15043872Y-15826388D01*
X15043872Y-15826388D02*
X15034349Y-15807341D01*
X15034349Y-15807341D02*
X15015301Y-15797817D01*
X15015301Y-15797817D02*
X14986730Y-15797817D01*
X14986730Y-15797817D02*
X14967682Y-15788293D01*
X14967682Y-15788293D02*
X14958158Y-15769246D01*
X14958158Y-15769246D02*
X14958158Y-15759722D01*
X14958158Y-15759722D02*
X14967682Y-15740674D01*
X14967682Y-15740674D02*
X14986730Y-15731150D01*
X14986730Y-15731150D02*
X15015301Y-15731150D01*
X15015301Y-15731150D02*
X15034349Y-15740674D01*
X15110539Y-15940674D02*
X15120063Y-15931150D01*
X15120063Y-15931150D02*
X15139111Y-15902579D01*
X15139111Y-15902579D02*
X15148634Y-15883531D01*
X15148634Y-15883531D02*
X15158158Y-15854960D01*
X15158158Y-15854960D02*
X15167682Y-15807341D01*
X15167682Y-15807341D02*
X15167682Y-15769246D01*
X15167682Y-15769246D02*
X15158158Y-15721627D01*
X15158158Y-15721627D02*
X15148634Y-15693055D01*
X15148634Y-15693055D02*
X15139111Y-15674008D01*
X15139111Y-15674008D02*
X15120063Y-15645436D01*
X15120063Y-15645436D02*
X15110539Y-15635912D01*
D10*
X10137678Y-16054678D02*
X10137678Y-16019322D01*
X10102322Y-16019322D01*
X10102322Y-16054678D01*
X10137678Y-16054678D01*
D11*
X10443872Y-15928484D02*
X10462920Y-15928484D01*
X10462920Y-15928484D02*
X10481967Y-15938008D01*
X10481967Y-15938008D02*
X10491491Y-15947531D01*
X10491491Y-15947531D02*
X10501015Y-15966579D01*
X10501015Y-15966579D02*
X10510539Y-16004674D01*
X10510539Y-16004674D02*
X10510539Y-16052293D01*
X10510539Y-16052293D02*
X10501015Y-16090388D01*
X10501015Y-16090388D02*
X10491491Y-16109436D01*
X10491491Y-16109436D02*
X10481967Y-16118960D01*
X10481967Y-16118960D02*
X10462920Y-16128484D01*
X10462920Y-16128484D02*
X10443872Y-16128484D01*
X10443872Y-16128484D02*
X10424824Y-16118960D01*
X10424824Y-16118960D02*
X10415301Y-16109436D01*
X10415301Y-16109436D02*
X10405777Y-16090388D01*
X10405777Y-16090388D02*
X10396253Y-16052293D01*
X10396253Y-16052293D02*
X10396253Y-16004674D01*
X10396253Y-16004674D02*
X10405777Y-15966579D01*
X10405777Y-15966579D02*
X10415301Y-15947531D01*
X10415301Y-15947531D02*
X10424824Y-15938008D01*
X10424824Y-15938008D02*
X10443872Y-15928484D01*
X10596253Y-16109436D02*
X10605777Y-16118960D01*
X10605777Y-16118960D02*
X10596253Y-16128484D01*
X10596253Y-16128484D02*
X10586729Y-16118960D01*
X10586729Y-16118960D02*
X10596253Y-16109436D01*
X10596253Y-16109436D02*
X10596253Y-16128484D01*
X10786729Y-15928484D02*
X10691491Y-15928484D01*
X10691491Y-15928484D02*
X10681967Y-16023722D01*
X10681967Y-16023722D02*
X10691491Y-16014198D01*
X10691491Y-16014198D02*
X10710539Y-16004674D01*
X10710539Y-16004674D02*
X10758158Y-16004674D01*
X10758158Y-16004674D02*
X10777205Y-16014198D01*
X10777205Y-16014198D02*
X10786729Y-16023722D01*
X10786729Y-16023722D02*
X10796253Y-16042769D01*
X10796253Y-16042769D02*
X10796253Y-16090388D01*
X10796253Y-16090388D02*
X10786729Y-16109436D01*
X10786729Y-16109436D02*
X10777205Y-16118960D01*
X10777205Y-16118960D02*
X10758158Y-16128484D01*
X10758158Y-16128484D02*
X10710539Y-16128484D01*
X10710539Y-16128484D02*
X10691491Y-16118960D01*
X10691491Y-16118960D02*
X10681967Y-16109436D01*
X10920063Y-15928484D02*
X10939110Y-15928484D01*
X10939110Y-15928484D02*
X10958158Y-15938008D01*
X10958158Y-15938008D02*
X10967682Y-15947531D01*
X10967682Y-15947531D02*
X10977205Y-15966579D01*
X10977205Y-15966579D02*
X10986729Y-16004674D01*
X10986729Y-16004674D02*
X10986729Y-16052293D01*
X10986729Y-16052293D02*
X10977205Y-16090388D01*
X10977205Y-16090388D02*
X10967682Y-16109436D01*
X10967682Y-16109436D02*
X10958158Y-16118960D01*
X10958158Y-16118960D02*
X10939110Y-16128484D01*
X10939110Y-16128484D02*
X10920063Y-16128484D01*
X10920063Y-16128484D02*
X10901015Y-16118960D01*
X10901015Y-16118960D02*
X10891491Y-16109436D01*
X10891491Y-16109436D02*
X10881967Y-16090388D01*
X10881967Y-16090388D02*
X10872444Y-16052293D01*
X10872444Y-16052293D02*
X10872444Y-16004674D01*
X10872444Y-16004674D02*
X10881967Y-15966579D01*
X10881967Y-15966579D02*
X10891491Y-15947531D01*
X10891491Y-15947531D02*
X10901015Y-15938008D01*
X10901015Y-15938008D02*
X10920063Y-15928484D01*
X11110539Y-15928484D02*
X11129586Y-15928484D01*
X11129586Y-15928484D02*
X11148634Y-15938008D01*
X11148634Y-15938008D02*
X11158158Y-15947531D01*
X11158158Y-15947531D02*
X11167682Y-15966579D01*
X11167682Y-15966579D02*
X11177205Y-16004674D01*
X11177205Y-16004674D02*
X11177205Y-16052293D01*
X11177205Y-16052293D02*
X11167682Y-16090388D01*
X11167682Y-16090388D02*
X11158158Y-16109436D01*
X11158158Y-16109436D02*
X11148634Y-16118960D01*
X11148634Y-16118960D02*
X11129586Y-16128484D01*
X11129586Y-16128484D02*
X11110539Y-16128484D01*
X11110539Y-16128484D02*
X11091491Y-16118960D01*
X11091491Y-16118960D02*
X11081967Y-16109436D01*
X11081967Y-16109436D02*
X11072444Y-16090388D01*
X11072444Y-16090388D02*
X11062920Y-16052293D01*
X11062920Y-16052293D02*
X11062920Y-16004674D01*
X11062920Y-16004674D02*
X11072444Y-15966579D01*
X11072444Y-15966579D02*
X11081967Y-15947531D01*
X11081967Y-15947531D02*
X11091491Y-15938008D01*
X11091491Y-15938008D02*
X11110539Y-15928484D01*
X11262920Y-16128484D02*
X11262920Y-15995150D01*
X11262920Y-16014198D02*
X11272443Y-16004674D01*
X11272443Y-16004674D02*
X11291491Y-15995150D01*
X11291491Y-15995150D02*
X11320063Y-15995150D01*
X11320063Y-15995150D02*
X11339110Y-16004674D01*
X11339110Y-16004674D02*
X11348634Y-16023722D01*
X11348634Y-16023722D02*
X11348634Y-16128484D01*
X11348634Y-16023722D02*
X11358158Y-16004674D01*
X11358158Y-16004674D02*
X11377205Y-15995150D01*
X11377205Y-15995150D02*
X11405777Y-15995150D01*
X11405777Y-15995150D02*
X11424824Y-16004674D01*
X11424824Y-16004674D02*
X11434348Y-16023722D01*
X11434348Y-16023722D02*
X11434348Y-16128484D01*
X11529586Y-16128484D02*
X11529586Y-15995150D01*
X11529586Y-16014198D02*
X11539110Y-16004674D01*
X11539110Y-16004674D02*
X11558158Y-15995150D01*
X11558158Y-15995150D02*
X11586729Y-15995150D01*
X11586729Y-15995150D02*
X11605777Y-16004674D01*
X11605777Y-16004674D02*
X11615301Y-16023722D01*
X11615301Y-16023722D02*
X11615301Y-16128484D01*
X11615301Y-16023722D02*
X11624824Y-16004674D01*
X11624824Y-16004674D02*
X11643872Y-15995150D01*
X11643872Y-15995150D02*
X11672443Y-15995150D01*
X11672443Y-15995150D02*
X11691491Y-16004674D01*
X11691491Y-16004674D02*
X11701015Y-16023722D01*
X11701015Y-16023722D02*
X11701015Y-16128484D01*
X12091491Y-15918960D02*
X11920063Y-16176103D01*
X12348634Y-15928484D02*
X12367682Y-15928484D01*
X12367682Y-15928484D02*
X12386729Y-15938008D01*
X12386729Y-15938008D02*
X12396253Y-15947531D01*
X12396253Y-15947531D02*
X12405777Y-15966579D01*
X12405777Y-15966579D02*
X12415301Y-16004674D01*
X12415301Y-16004674D02*
X12415301Y-16052293D01*
X12415301Y-16052293D02*
X12405777Y-16090388D01*
X12405777Y-16090388D02*
X12396253Y-16109436D01*
X12396253Y-16109436D02*
X12386729Y-16118960D01*
X12386729Y-16118960D02*
X12367682Y-16128484D01*
X12367682Y-16128484D02*
X12348634Y-16128484D01*
X12348634Y-16128484D02*
X12329586Y-16118960D01*
X12329586Y-16118960D02*
X12320063Y-16109436D01*
X12320063Y-16109436D02*
X12310539Y-16090388D01*
X12310539Y-16090388D02*
X12301015Y-16052293D01*
X12301015Y-16052293D02*
X12301015Y-16004674D01*
X12301015Y-16004674D02*
X12310539Y-15966579D01*
X12310539Y-15966579D02*
X12320063Y-15947531D01*
X12320063Y-15947531D02*
X12329586Y-15938008D01*
X12329586Y-15938008D02*
X12348634Y-15928484D01*
X12501015Y-16109436D02*
X12510539Y-16118960D01*
X12510539Y-16118960D02*
X12501015Y-16128484D01*
X12501015Y-16128484D02*
X12491491Y-16118960D01*
X12491491Y-16118960D02*
X12501015Y-16109436D01*
X12501015Y-16109436D02*
X12501015Y-16128484D01*
X12634348Y-15928484D02*
X12653396Y-15928484D01*
X12653396Y-15928484D02*
X12672444Y-15938008D01*
X12672444Y-15938008D02*
X12681967Y-15947531D01*
X12681967Y-15947531D02*
X12691491Y-15966579D01*
X12691491Y-15966579D02*
X12701015Y-16004674D01*
X12701015Y-16004674D02*
X12701015Y-16052293D01*
X12701015Y-16052293D02*
X12691491Y-16090388D01*
X12691491Y-16090388D02*
X12681967Y-16109436D01*
X12681967Y-16109436D02*
X12672444Y-16118960D01*
X12672444Y-16118960D02*
X12653396Y-16128484D01*
X12653396Y-16128484D02*
X12634348Y-16128484D01*
X12634348Y-16128484D02*
X12615301Y-16118960D01*
X12615301Y-16118960D02*
X12605777Y-16109436D01*
X12605777Y-16109436D02*
X12596253Y-16090388D01*
X12596253Y-16090388D02*
X12586729Y-16052293D01*
X12586729Y-16052293D02*
X12586729Y-16004674D01*
X12586729Y-16004674D02*
X12596253Y-15966579D01*
X12596253Y-15966579D02*
X12605777Y-15947531D01*
X12605777Y-15947531D02*
X12615301Y-15938008D01*
X12615301Y-15938008D02*
X12634348Y-15928484D01*
X12891491Y-16128484D02*
X12777206Y-16128484D01*
X12834348Y-16128484D02*
X12834348Y-15928484D01*
X12834348Y-15928484D02*
X12815301Y-15957055D01*
X12815301Y-15957055D02*
X12796253Y-15976103D01*
X12796253Y-15976103D02*
X12777206Y-15985627D01*
X12986729Y-16128484D02*
X13024825Y-16128484D01*
X13024825Y-16128484D02*
X13043872Y-16118960D01*
X13043872Y-16118960D02*
X13053396Y-16109436D01*
X13053396Y-16109436D02*
X13072444Y-16080865D01*
X13072444Y-16080865D02*
X13081967Y-16042769D01*
X13081967Y-16042769D02*
X13081967Y-15966579D01*
X13081967Y-15966579D02*
X13072444Y-15947531D01*
X13072444Y-15947531D02*
X13062920Y-15938008D01*
X13062920Y-15938008D02*
X13043872Y-15928484D01*
X13043872Y-15928484D02*
X13005777Y-15928484D01*
X13005777Y-15928484D02*
X12986729Y-15938008D01*
X12986729Y-15938008D02*
X12977206Y-15947531D01*
X12977206Y-15947531D02*
X12967682Y-15966579D01*
X12967682Y-15966579D02*
X12967682Y-16014198D01*
X12967682Y-16014198D02*
X12977206Y-16033246D01*
X12977206Y-16033246D02*
X12986729Y-16042769D01*
X12986729Y-16042769D02*
X13005777Y-16052293D01*
X13005777Y-16052293D02*
X13043872Y-16052293D01*
X13043872Y-16052293D02*
X13062920Y-16042769D01*
X13062920Y-16042769D02*
X13072444Y-16033246D01*
X13072444Y-16033246D02*
X13081967Y-16014198D01*
X13148634Y-15928484D02*
X13281967Y-15928484D01*
X13281967Y-15928484D02*
X13196253Y-16128484D01*
X13348634Y-15928484D02*
X13348634Y-15966579D01*
X13424825Y-15928484D02*
X13424825Y-15966579D01*
X13720063Y-16204674D02*
X13710539Y-16195150D01*
X13710539Y-16195150D02*
X13691491Y-16166579D01*
X13691491Y-16166579D02*
X13681968Y-16147531D01*
X13681968Y-16147531D02*
X13672444Y-16118960D01*
X13672444Y-16118960D02*
X13662920Y-16071341D01*
X13662920Y-16071341D02*
X13662920Y-16033246D01*
X13662920Y-16033246D02*
X13672444Y-15985627D01*
X13672444Y-15985627D02*
X13681968Y-15957055D01*
X13681968Y-15957055D02*
X13691491Y-15938008D01*
X13691491Y-15938008D02*
X13710539Y-15909436D01*
X13710539Y-15909436D02*
X13720063Y-15899912D01*
X13834348Y-15928484D02*
X13853396Y-15928484D01*
X13853396Y-15928484D02*
X13872444Y-15938008D01*
X13872444Y-15938008D02*
X13881968Y-15947531D01*
X13881968Y-15947531D02*
X13891491Y-15966579D01*
X13891491Y-15966579D02*
X13901015Y-16004674D01*
X13901015Y-16004674D02*
X13901015Y-16052293D01*
X13901015Y-16052293D02*
X13891491Y-16090388D01*
X13891491Y-16090388D02*
X13881968Y-16109436D01*
X13881968Y-16109436D02*
X13872444Y-16118960D01*
X13872444Y-16118960D02*
X13853396Y-16128484D01*
X13853396Y-16128484D02*
X13834348Y-16128484D01*
X13834348Y-16128484D02*
X13815301Y-16118960D01*
X13815301Y-16118960D02*
X13805777Y-16109436D01*
X13805777Y-16109436D02*
X13796253Y-16090388D01*
X13796253Y-16090388D02*
X13786729Y-16052293D01*
X13786729Y-16052293D02*
X13786729Y-16004674D01*
X13786729Y-16004674D02*
X13796253Y-15966579D01*
X13796253Y-15966579D02*
X13805777Y-15947531D01*
X13805777Y-15947531D02*
X13815301Y-15938008D01*
X13815301Y-15938008D02*
X13834348Y-15928484D01*
X14139110Y-16128484D02*
X14139110Y-15928484D01*
X14224825Y-16128484D02*
X14224825Y-16023722D01*
X14224825Y-16023722D02*
X14215301Y-16004674D01*
X14215301Y-16004674D02*
X14196253Y-15995150D01*
X14196253Y-15995150D02*
X14167682Y-15995150D01*
X14167682Y-15995150D02*
X14148634Y-16004674D01*
X14148634Y-16004674D02*
X14139110Y-16014198D01*
X14348634Y-16128484D02*
X14329587Y-16118960D01*
X14329587Y-16118960D02*
X14320063Y-16109436D01*
X14320063Y-16109436D02*
X14310539Y-16090388D01*
X14310539Y-16090388D02*
X14310539Y-16033246D01*
X14310539Y-16033246D02*
X14320063Y-16014198D01*
X14320063Y-16014198D02*
X14329587Y-16004674D01*
X14329587Y-16004674D02*
X14348634Y-15995150D01*
X14348634Y-15995150D02*
X14377206Y-15995150D01*
X14377206Y-15995150D02*
X14396253Y-16004674D01*
X14396253Y-16004674D02*
X14405777Y-16014198D01*
X14405777Y-16014198D02*
X14415301Y-16033246D01*
X14415301Y-16033246D02*
X14415301Y-16090388D01*
X14415301Y-16090388D02*
X14405777Y-16109436D01*
X14405777Y-16109436D02*
X14396253Y-16118960D01*
X14396253Y-16118960D02*
X14377206Y-16128484D01*
X14377206Y-16128484D02*
X14348634Y-16128484D01*
X14529587Y-16128484D02*
X14510539Y-16118960D01*
X14510539Y-16118960D02*
X14501015Y-16099912D01*
X14501015Y-16099912D02*
X14501015Y-15928484D01*
X14681968Y-16118960D02*
X14662920Y-16128484D01*
X14662920Y-16128484D02*
X14624825Y-16128484D01*
X14624825Y-16128484D02*
X14605777Y-16118960D01*
X14605777Y-16118960D02*
X14596253Y-16099912D01*
X14596253Y-16099912D02*
X14596253Y-16023722D01*
X14596253Y-16023722D02*
X14605777Y-16004674D01*
X14605777Y-16004674D02*
X14624825Y-15995150D01*
X14624825Y-15995150D02*
X14662920Y-15995150D01*
X14662920Y-15995150D02*
X14681968Y-16004674D01*
X14681968Y-16004674D02*
X14691491Y-16023722D01*
X14691491Y-16023722D02*
X14691491Y-16042769D01*
X14691491Y-16042769D02*
X14596253Y-16061817D01*
X14767682Y-16118960D02*
X14786730Y-16128484D01*
X14786730Y-16128484D02*
X14824825Y-16128484D01*
X14824825Y-16128484D02*
X14843872Y-16118960D01*
X14843872Y-16118960D02*
X14853396Y-16099912D01*
X14853396Y-16099912D02*
X14853396Y-16090388D01*
X14853396Y-16090388D02*
X14843872Y-16071341D01*
X14843872Y-16071341D02*
X14824825Y-16061817D01*
X14824825Y-16061817D02*
X14796253Y-16061817D01*
X14796253Y-16061817D02*
X14777206Y-16052293D01*
X14777206Y-16052293D02*
X14767682Y-16033246D01*
X14767682Y-16033246D02*
X14767682Y-16023722D01*
X14767682Y-16023722D02*
X14777206Y-16004674D01*
X14777206Y-16004674D02*
X14796253Y-15995150D01*
X14796253Y-15995150D02*
X14824825Y-15995150D01*
X14824825Y-15995150D02*
X14843872Y-16004674D01*
X15091492Y-16052293D02*
X15243873Y-16052293D01*
X15167682Y-16128484D02*
X15167682Y-15976103D01*
X15472444Y-15928484D02*
X15596253Y-15928484D01*
X15596253Y-15928484D02*
X15529587Y-16004674D01*
X15529587Y-16004674D02*
X15558158Y-16004674D01*
X15558158Y-16004674D02*
X15577206Y-16014198D01*
X15577206Y-16014198D02*
X15586730Y-16023722D01*
X15586730Y-16023722D02*
X15596253Y-16042769D01*
X15596253Y-16042769D02*
X15596253Y-16090388D01*
X15596253Y-16090388D02*
X15586730Y-16109436D01*
X15586730Y-16109436D02*
X15577206Y-16118960D01*
X15577206Y-16118960D02*
X15558158Y-16128484D01*
X15558158Y-16128484D02*
X15501015Y-16128484D01*
X15501015Y-16128484D02*
X15481968Y-16118960D01*
X15481968Y-16118960D02*
X15472444Y-16109436D01*
X15824825Y-16118960D02*
X15843873Y-16128484D01*
X15843873Y-16128484D02*
X15881968Y-16128484D01*
X15881968Y-16128484D02*
X15901015Y-16118960D01*
X15901015Y-16118960D02*
X15910539Y-16099912D01*
X15910539Y-16099912D02*
X15910539Y-16090388D01*
X15910539Y-16090388D02*
X15901015Y-16071341D01*
X15901015Y-16071341D02*
X15881968Y-16061817D01*
X15881968Y-16061817D02*
X15853396Y-16061817D01*
X15853396Y-16061817D02*
X15834349Y-16052293D01*
X15834349Y-16052293D02*
X15824825Y-16033246D01*
X15824825Y-16033246D02*
X15824825Y-16023722D01*
X15824825Y-16023722D02*
X15834349Y-16004674D01*
X15834349Y-16004674D02*
X15853396Y-15995150D01*
X15853396Y-15995150D02*
X15881968Y-15995150D01*
X15881968Y-15995150D02*
X15901015Y-16004674D01*
X16024825Y-16128484D02*
X16005777Y-16118960D01*
X16005777Y-16118960D02*
X15996254Y-16099912D01*
X15996254Y-16099912D02*
X15996254Y-15928484D01*
X16129587Y-16128484D02*
X16110539Y-16118960D01*
X16110539Y-16118960D02*
X16101015Y-16109436D01*
X16101015Y-16109436D02*
X16091492Y-16090388D01*
X16091492Y-16090388D02*
X16091492Y-16033246D01*
X16091492Y-16033246D02*
X16101015Y-16014198D01*
X16101015Y-16014198D02*
X16110539Y-16004674D01*
X16110539Y-16004674D02*
X16129587Y-15995150D01*
X16129587Y-15995150D02*
X16158158Y-15995150D01*
X16158158Y-15995150D02*
X16177206Y-16004674D01*
X16177206Y-16004674D02*
X16186730Y-16014198D01*
X16186730Y-16014198D02*
X16196254Y-16033246D01*
X16196254Y-16033246D02*
X16196254Y-16090388D01*
X16196254Y-16090388D02*
X16186730Y-16109436D01*
X16186730Y-16109436D02*
X16177206Y-16118960D01*
X16177206Y-16118960D02*
X16158158Y-16128484D01*
X16158158Y-16128484D02*
X16129587Y-16128484D01*
X16253396Y-15995150D02*
X16329587Y-15995150D01*
X16281968Y-15928484D02*
X16281968Y-16099912D01*
X16281968Y-16099912D02*
X16291492Y-16118960D01*
X16291492Y-16118960D02*
X16310539Y-16128484D01*
X16310539Y-16128484D02*
X16329587Y-16128484D01*
X16386730Y-16118960D02*
X16405777Y-16128484D01*
X16405777Y-16128484D02*
X16443873Y-16128484D01*
X16443873Y-16128484D02*
X16462920Y-16118960D01*
X16462920Y-16118960D02*
X16472444Y-16099912D01*
X16472444Y-16099912D02*
X16472444Y-16090388D01*
X16472444Y-16090388D02*
X16462920Y-16071341D01*
X16462920Y-16071341D02*
X16443873Y-16061817D01*
X16443873Y-16061817D02*
X16415301Y-16061817D01*
X16415301Y-16061817D02*
X16396254Y-16052293D01*
X16396254Y-16052293D02*
X16386730Y-16033246D01*
X16386730Y-16033246D02*
X16386730Y-16023722D01*
X16386730Y-16023722D02*
X16396254Y-16004674D01*
X16396254Y-16004674D02*
X16415301Y-15995150D01*
X16415301Y-15995150D02*
X16443873Y-15995150D01*
X16443873Y-15995150D02*
X16462920Y-16004674D01*
X16539111Y-16204674D02*
X16548635Y-16195150D01*
X16548635Y-16195150D02*
X16567682Y-16166579D01*
X16567682Y-16166579D02*
X16577206Y-16147531D01*
X16577206Y-16147531D02*
X16586730Y-16118960D01*
X16586730Y-16118960D02*
X16596254Y-16071341D01*
X16596254Y-16071341D02*
X16596254Y-16033246D01*
X16596254Y-16033246D02*
X16586730Y-15985627D01*
X16586730Y-15985627D02*
X16577206Y-15957055D01*
X16577206Y-15957055D02*
X16567682Y-15938008D01*
X16567682Y-15938008D02*
X16548635Y-15909436D01*
X16548635Y-15909436D02*
X16539111Y-15899912D01*
D10*
X10097500Y-16348500D02*
X10145000Y-16301000D01*
X10097500Y-16253500D01*
X10050000Y-16301000D01*
X10097500Y-16348500D01*
D11*
X10443872Y-16192484D02*
X10462920Y-16192484D01*
X10462920Y-16192484D02*
X10481967Y-16202008D01*
X10481967Y-16202008D02*
X10491491Y-16211531D01*
X10491491Y-16211531D02*
X10501015Y-16230579D01*
X10501015Y-16230579D02*
X10510539Y-16268674D01*
X10510539Y-16268674D02*
X10510539Y-16316293D01*
X10510539Y-16316293D02*
X10501015Y-16354388D01*
X10501015Y-16354388D02*
X10491491Y-16373436D01*
X10491491Y-16373436D02*
X10481967Y-16382960D01*
X10481967Y-16382960D02*
X10462920Y-16392484D01*
X10462920Y-16392484D02*
X10443872Y-16392484D01*
X10443872Y-16392484D02*
X10424824Y-16382960D01*
X10424824Y-16382960D02*
X10415301Y-16373436D01*
X10415301Y-16373436D02*
X10405777Y-16354388D01*
X10405777Y-16354388D02*
X10396253Y-16316293D01*
X10396253Y-16316293D02*
X10396253Y-16268674D01*
X10396253Y-16268674D02*
X10405777Y-16230579D01*
X10405777Y-16230579D02*
X10415301Y-16211531D01*
X10415301Y-16211531D02*
X10424824Y-16202008D01*
X10424824Y-16202008D02*
X10443872Y-16192484D01*
X10596253Y-16373436D02*
X10605777Y-16382960D01*
X10605777Y-16382960D02*
X10596253Y-16392484D01*
X10596253Y-16392484D02*
X10586729Y-16382960D01*
X10586729Y-16382960D02*
X10596253Y-16373436D01*
X10596253Y-16373436D02*
X10596253Y-16392484D01*
X10701015Y-16392484D02*
X10739110Y-16392484D01*
X10739110Y-16392484D02*
X10758158Y-16382960D01*
X10758158Y-16382960D02*
X10767682Y-16373436D01*
X10767682Y-16373436D02*
X10786729Y-16344865D01*
X10786729Y-16344865D02*
X10796253Y-16306769D01*
X10796253Y-16306769D02*
X10796253Y-16230579D01*
X10796253Y-16230579D02*
X10786729Y-16211531D01*
X10786729Y-16211531D02*
X10777205Y-16202008D01*
X10777205Y-16202008D02*
X10758158Y-16192484D01*
X10758158Y-16192484D02*
X10720063Y-16192484D01*
X10720063Y-16192484D02*
X10701015Y-16202008D01*
X10701015Y-16202008D02*
X10691491Y-16211531D01*
X10691491Y-16211531D02*
X10681967Y-16230579D01*
X10681967Y-16230579D02*
X10681967Y-16278198D01*
X10681967Y-16278198D02*
X10691491Y-16297246D01*
X10691491Y-16297246D02*
X10701015Y-16306769D01*
X10701015Y-16306769D02*
X10720063Y-16316293D01*
X10720063Y-16316293D02*
X10758158Y-16316293D01*
X10758158Y-16316293D02*
X10777205Y-16306769D01*
X10777205Y-16306769D02*
X10786729Y-16297246D01*
X10786729Y-16297246D02*
X10796253Y-16278198D01*
X10977205Y-16192484D02*
X10881967Y-16192484D01*
X10881967Y-16192484D02*
X10872444Y-16287722D01*
X10872444Y-16287722D02*
X10881967Y-16278198D01*
X10881967Y-16278198D02*
X10901015Y-16268674D01*
X10901015Y-16268674D02*
X10948634Y-16268674D01*
X10948634Y-16268674D02*
X10967682Y-16278198D01*
X10967682Y-16278198D02*
X10977205Y-16287722D01*
X10977205Y-16287722D02*
X10986729Y-16306769D01*
X10986729Y-16306769D02*
X10986729Y-16354388D01*
X10986729Y-16354388D02*
X10977205Y-16373436D01*
X10977205Y-16373436D02*
X10967682Y-16382960D01*
X10967682Y-16382960D02*
X10948634Y-16392484D01*
X10948634Y-16392484D02*
X10901015Y-16392484D01*
X10901015Y-16392484D02*
X10881967Y-16382960D01*
X10881967Y-16382960D02*
X10872444Y-16373436D01*
X11110539Y-16192484D02*
X11129586Y-16192484D01*
X11129586Y-16192484D02*
X11148634Y-16202008D01*
X11148634Y-16202008D02*
X11158158Y-16211531D01*
X11158158Y-16211531D02*
X11167682Y-16230579D01*
X11167682Y-16230579D02*
X11177205Y-16268674D01*
X11177205Y-16268674D02*
X11177205Y-16316293D01*
X11177205Y-16316293D02*
X11167682Y-16354388D01*
X11167682Y-16354388D02*
X11158158Y-16373436D01*
X11158158Y-16373436D02*
X11148634Y-16382960D01*
X11148634Y-16382960D02*
X11129586Y-16392484D01*
X11129586Y-16392484D02*
X11110539Y-16392484D01*
X11110539Y-16392484D02*
X11091491Y-16382960D01*
X11091491Y-16382960D02*
X11081967Y-16373436D01*
X11081967Y-16373436D02*
X11072444Y-16354388D01*
X11072444Y-16354388D02*
X11062920Y-16316293D01*
X11062920Y-16316293D02*
X11062920Y-16268674D01*
X11062920Y-16268674D02*
X11072444Y-16230579D01*
X11072444Y-16230579D02*
X11081967Y-16211531D01*
X11081967Y-16211531D02*
X11091491Y-16202008D01*
X11091491Y-16202008D02*
X11110539Y-16192484D01*
X11262920Y-16392484D02*
X11262920Y-16259150D01*
X11262920Y-16278198D02*
X11272443Y-16268674D01*
X11272443Y-16268674D02*
X11291491Y-16259150D01*
X11291491Y-16259150D02*
X11320063Y-16259150D01*
X11320063Y-16259150D02*
X11339110Y-16268674D01*
X11339110Y-16268674D02*
X11348634Y-16287722D01*
X11348634Y-16287722D02*
X11348634Y-16392484D01*
X11348634Y-16287722D02*
X11358158Y-16268674D01*
X11358158Y-16268674D02*
X11377205Y-16259150D01*
X11377205Y-16259150D02*
X11405777Y-16259150D01*
X11405777Y-16259150D02*
X11424824Y-16268674D01*
X11424824Y-16268674D02*
X11434348Y-16287722D01*
X11434348Y-16287722D02*
X11434348Y-16392484D01*
X11529586Y-16392484D02*
X11529586Y-16259150D01*
X11529586Y-16278198D02*
X11539110Y-16268674D01*
X11539110Y-16268674D02*
X11558158Y-16259150D01*
X11558158Y-16259150D02*
X11586729Y-16259150D01*
X11586729Y-16259150D02*
X11605777Y-16268674D01*
X11605777Y-16268674D02*
X11615301Y-16287722D01*
X11615301Y-16287722D02*
X11615301Y-16392484D01*
X11615301Y-16287722D02*
X11624824Y-16268674D01*
X11624824Y-16268674D02*
X11643872Y-16259150D01*
X11643872Y-16259150D02*
X11672443Y-16259150D01*
X11672443Y-16259150D02*
X11691491Y-16268674D01*
X11691491Y-16268674D02*
X11701015Y-16287722D01*
X11701015Y-16287722D02*
X11701015Y-16392484D01*
X12091491Y-16182960D02*
X11920063Y-16440103D01*
X12348634Y-16192484D02*
X12367682Y-16192484D01*
X12367682Y-16192484D02*
X12386729Y-16202008D01*
X12386729Y-16202008D02*
X12396253Y-16211531D01*
X12396253Y-16211531D02*
X12405777Y-16230579D01*
X12405777Y-16230579D02*
X12415301Y-16268674D01*
X12415301Y-16268674D02*
X12415301Y-16316293D01*
X12415301Y-16316293D02*
X12405777Y-16354388D01*
X12405777Y-16354388D02*
X12396253Y-16373436D01*
X12396253Y-16373436D02*
X12386729Y-16382960D01*
X12386729Y-16382960D02*
X12367682Y-16392484D01*
X12367682Y-16392484D02*
X12348634Y-16392484D01*
X12348634Y-16392484D02*
X12329586Y-16382960D01*
X12329586Y-16382960D02*
X12320063Y-16373436D01*
X12320063Y-16373436D02*
X12310539Y-16354388D01*
X12310539Y-16354388D02*
X12301015Y-16316293D01*
X12301015Y-16316293D02*
X12301015Y-16268674D01*
X12301015Y-16268674D02*
X12310539Y-16230579D01*
X12310539Y-16230579D02*
X12320063Y-16211531D01*
X12320063Y-16211531D02*
X12329586Y-16202008D01*
X12329586Y-16202008D02*
X12348634Y-16192484D01*
X12501015Y-16373436D02*
X12510539Y-16382960D01*
X12510539Y-16382960D02*
X12501015Y-16392484D01*
X12501015Y-16392484D02*
X12491491Y-16382960D01*
X12491491Y-16382960D02*
X12501015Y-16373436D01*
X12501015Y-16373436D02*
X12501015Y-16392484D01*
X12634348Y-16192484D02*
X12653396Y-16192484D01*
X12653396Y-16192484D02*
X12672444Y-16202008D01*
X12672444Y-16202008D02*
X12681967Y-16211531D01*
X12681967Y-16211531D02*
X12691491Y-16230579D01*
X12691491Y-16230579D02*
X12701015Y-16268674D01*
X12701015Y-16268674D02*
X12701015Y-16316293D01*
X12701015Y-16316293D02*
X12691491Y-16354388D01*
X12691491Y-16354388D02*
X12681967Y-16373436D01*
X12681967Y-16373436D02*
X12672444Y-16382960D01*
X12672444Y-16382960D02*
X12653396Y-16392484D01*
X12653396Y-16392484D02*
X12634348Y-16392484D01*
X12634348Y-16392484D02*
X12615301Y-16382960D01*
X12615301Y-16382960D02*
X12605777Y-16373436D01*
X12605777Y-16373436D02*
X12596253Y-16354388D01*
X12596253Y-16354388D02*
X12586729Y-16316293D01*
X12586729Y-16316293D02*
X12586729Y-16268674D01*
X12586729Y-16268674D02*
X12596253Y-16230579D01*
X12596253Y-16230579D02*
X12605777Y-16211531D01*
X12605777Y-16211531D02*
X12615301Y-16202008D01*
X12615301Y-16202008D02*
X12634348Y-16192484D01*
X12767682Y-16192484D02*
X12891491Y-16192484D01*
X12891491Y-16192484D02*
X12824825Y-16268674D01*
X12824825Y-16268674D02*
X12853396Y-16268674D01*
X12853396Y-16268674D02*
X12872444Y-16278198D01*
X12872444Y-16278198D02*
X12881967Y-16287722D01*
X12881967Y-16287722D02*
X12891491Y-16306769D01*
X12891491Y-16306769D02*
X12891491Y-16354388D01*
X12891491Y-16354388D02*
X12881967Y-16373436D01*
X12881967Y-16373436D02*
X12872444Y-16382960D01*
X12872444Y-16382960D02*
X12853396Y-16392484D01*
X12853396Y-16392484D02*
X12796253Y-16392484D01*
X12796253Y-16392484D02*
X12777206Y-16382960D01*
X12777206Y-16382960D02*
X12767682Y-16373436D01*
X12958158Y-16192484D02*
X13091491Y-16192484D01*
X13091491Y-16192484D02*
X13005777Y-16392484D01*
X13253396Y-16259150D02*
X13253396Y-16392484D01*
X13205777Y-16182960D02*
X13158158Y-16325817D01*
X13158158Y-16325817D02*
X13281967Y-16325817D01*
X13348634Y-16192484D02*
X13348634Y-16230579D01*
X13424825Y-16192484D02*
X13424825Y-16230579D01*
X13720063Y-16468674D02*
X13710539Y-16459150D01*
X13710539Y-16459150D02*
X13691491Y-16430579D01*
X13691491Y-16430579D02*
X13681968Y-16411531D01*
X13681968Y-16411531D02*
X13672444Y-16382960D01*
X13672444Y-16382960D02*
X13662920Y-16335341D01*
X13662920Y-16335341D02*
X13662920Y-16297246D01*
X13662920Y-16297246D02*
X13672444Y-16249627D01*
X13672444Y-16249627D02*
X13681968Y-16221055D01*
X13681968Y-16221055D02*
X13691491Y-16202008D01*
X13691491Y-16202008D02*
X13710539Y-16173436D01*
X13710539Y-16173436D02*
X13720063Y-16163912D01*
X13786729Y-16211531D02*
X13796253Y-16202008D01*
X13796253Y-16202008D02*
X13815301Y-16192484D01*
X13815301Y-16192484D02*
X13862920Y-16192484D01*
X13862920Y-16192484D02*
X13881968Y-16202008D01*
X13881968Y-16202008D02*
X13891491Y-16211531D01*
X13891491Y-16211531D02*
X13901015Y-16230579D01*
X13901015Y-16230579D02*
X13901015Y-16249627D01*
X13901015Y-16249627D02*
X13891491Y-16278198D01*
X13891491Y-16278198D02*
X13777206Y-16392484D01*
X13777206Y-16392484D02*
X13901015Y-16392484D01*
X13977206Y-16211531D02*
X13986729Y-16202008D01*
X13986729Y-16202008D02*
X14005777Y-16192484D01*
X14005777Y-16192484D02*
X14053396Y-16192484D01*
X14053396Y-16192484D02*
X14072444Y-16202008D01*
X14072444Y-16202008D02*
X14081968Y-16211531D01*
X14081968Y-16211531D02*
X14091491Y-16230579D01*
X14091491Y-16230579D02*
X14091491Y-16249627D01*
X14091491Y-16249627D02*
X14081968Y-16278198D01*
X14081968Y-16278198D02*
X13967682Y-16392484D01*
X13967682Y-16392484D02*
X14091491Y-16392484D01*
X14329587Y-16392484D02*
X14329587Y-16192484D01*
X14415301Y-16392484D02*
X14415301Y-16287722D01*
X14415301Y-16287722D02*
X14405777Y-16268674D01*
X14405777Y-16268674D02*
X14386730Y-16259150D01*
X14386730Y-16259150D02*
X14358158Y-16259150D01*
X14358158Y-16259150D02*
X14339110Y-16268674D01*
X14339110Y-16268674D02*
X14329587Y-16278198D01*
X14539110Y-16392484D02*
X14520063Y-16382960D01*
X14520063Y-16382960D02*
X14510539Y-16373436D01*
X14510539Y-16373436D02*
X14501015Y-16354388D01*
X14501015Y-16354388D02*
X14501015Y-16297246D01*
X14501015Y-16297246D02*
X14510539Y-16278198D01*
X14510539Y-16278198D02*
X14520063Y-16268674D01*
X14520063Y-16268674D02*
X14539110Y-16259150D01*
X14539110Y-16259150D02*
X14567682Y-16259150D01*
X14567682Y-16259150D02*
X14586730Y-16268674D01*
X14586730Y-16268674D02*
X14596253Y-16278198D01*
X14596253Y-16278198D02*
X14605777Y-16297246D01*
X14605777Y-16297246D02*
X14605777Y-16354388D01*
X14605777Y-16354388D02*
X14596253Y-16373436D01*
X14596253Y-16373436D02*
X14586730Y-16382960D01*
X14586730Y-16382960D02*
X14567682Y-16392484D01*
X14567682Y-16392484D02*
X14539110Y-16392484D01*
X14720063Y-16392484D02*
X14701015Y-16382960D01*
X14701015Y-16382960D02*
X14691491Y-16363912D01*
X14691491Y-16363912D02*
X14691491Y-16192484D01*
X14872444Y-16382960D02*
X14853396Y-16392484D01*
X14853396Y-16392484D02*
X14815301Y-16392484D01*
X14815301Y-16392484D02*
X14796253Y-16382960D01*
X14796253Y-16382960D02*
X14786730Y-16363912D01*
X14786730Y-16363912D02*
X14786730Y-16287722D01*
X14786730Y-16287722D02*
X14796253Y-16268674D01*
X14796253Y-16268674D02*
X14815301Y-16259150D01*
X14815301Y-16259150D02*
X14853396Y-16259150D01*
X14853396Y-16259150D02*
X14872444Y-16268674D01*
X14872444Y-16268674D02*
X14881968Y-16287722D01*
X14881968Y-16287722D02*
X14881968Y-16306769D01*
X14881968Y-16306769D02*
X14786730Y-16325817D01*
X14958158Y-16382960D02*
X14977206Y-16392484D01*
X14977206Y-16392484D02*
X15015301Y-16392484D01*
X15015301Y-16392484D02*
X15034349Y-16382960D01*
X15034349Y-16382960D02*
X15043872Y-16363912D01*
X15043872Y-16363912D02*
X15043872Y-16354388D01*
X15043872Y-16354388D02*
X15034349Y-16335341D01*
X15034349Y-16335341D02*
X15015301Y-16325817D01*
X15015301Y-16325817D02*
X14986730Y-16325817D01*
X14986730Y-16325817D02*
X14967682Y-16316293D01*
X14967682Y-16316293D02*
X14958158Y-16297246D01*
X14958158Y-16297246D02*
X14958158Y-16287722D01*
X14958158Y-16287722D02*
X14967682Y-16268674D01*
X14967682Y-16268674D02*
X14986730Y-16259150D01*
X14986730Y-16259150D02*
X15015301Y-16259150D01*
X15015301Y-16259150D02*
X15034349Y-16268674D01*
X15110539Y-16468674D02*
X15120063Y-16459150D01*
X15120063Y-16459150D02*
X15139111Y-16430579D01*
X15139111Y-16430579D02*
X15148634Y-16411531D01*
X15148634Y-16411531D02*
X15158158Y-16382960D01*
X15158158Y-16382960D02*
X15167682Y-16335341D01*
X15167682Y-16335341D02*
X15167682Y-16297246D01*
X15167682Y-16297246D02*
X15158158Y-16249627D01*
X15158158Y-16249627D02*
X15148634Y-16221055D01*
X15148634Y-16221055D02*
X15139111Y-16202008D01*
X15139111Y-16202008D02*
X15120063Y-16173436D01*
X15120063Y-16173436D02*
X15110539Y-16163912D01*
D10*
X10045000Y-16515000D02*
X10145000Y-16615000D01*
X10145000Y-16515000D02*
X10045000Y-16615000D01*
X10145000Y-16565000D02*
G75*
G02*
X10045000Y-16565000I-50000J0D01*
G01*
X10045000Y-16565000D02*
G75*
G02*
X10145000Y-16565000I50000J0D01*
G01*
D11*
X10510539Y-16656484D02*
X10396253Y-16656484D01*
X10453396Y-16656484D02*
X10453396Y-16456484D01*
X10453396Y-16456484D02*
X10434348Y-16485055D01*
X10434348Y-16485055D02*
X10415301Y-16504103D01*
X10415301Y-16504103D02*
X10396253Y-16513627D01*
X10596253Y-16637436D02*
X10605777Y-16646960D01*
X10605777Y-16646960D02*
X10596253Y-16656484D01*
X10596253Y-16656484D02*
X10586729Y-16646960D01*
X10586729Y-16646960D02*
X10596253Y-16637436D01*
X10596253Y-16637436D02*
X10596253Y-16656484D01*
X10729586Y-16456484D02*
X10748634Y-16456484D01*
X10748634Y-16456484D02*
X10767682Y-16466008D01*
X10767682Y-16466008D02*
X10777205Y-16475531D01*
X10777205Y-16475531D02*
X10786729Y-16494579D01*
X10786729Y-16494579D02*
X10796253Y-16532674D01*
X10796253Y-16532674D02*
X10796253Y-16580293D01*
X10796253Y-16580293D02*
X10786729Y-16618388D01*
X10786729Y-16618388D02*
X10777205Y-16637436D01*
X10777205Y-16637436D02*
X10767682Y-16646960D01*
X10767682Y-16646960D02*
X10748634Y-16656484D01*
X10748634Y-16656484D02*
X10729586Y-16656484D01*
X10729586Y-16656484D02*
X10710539Y-16646960D01*
X10710539Y-16646960D02*
X10701015Y-16637436D01*
X10701015Y-16637436D02*
X10691491Y-16618388D01*
X10691491Y-16618388D02*
X10681967Y-16580293D01*
X10681967Y-16580293D02*
X10681967Y-16532674D01*
X10681967Y-16532674D02*
X10691491Y-16494579D01*
X10691491Y-16494579D02*
X10701015Y-16475531D01*
X10701015Y-16475531D02*
X10710539Y-16466008D01*
X10710539Y-16466008D02*
X10729586Y-16456484D01*
X10920063Y-16456484D02*
X10939110Y-16456484D01*
X10939110Y-16456484D02*
X10958158Y-16466008D01*
X10958158Y-16466008D02*
X10967682Y-16475531D01*
X10967682Y-16475531D02*
X10977205Y-16494579D01*
X10977205Y-16494579D02*
X10986729Y-16532674D01*
X10986729Y-16532674D02*
X10986729Y-16580293D01*
X10986729Y-16580293D02*
X10977205Y-16618388D01*
X10977205Y-16618388D02*
X10967682Y-16637436D01*
X10967682Y-16637436D02*
X10958158Y-16646960D01*
X10958158Y-16646960D02*
X10939110Y-16656484D01*
X10939110Y-16656484D02*
X10920063Y-16656484D01*
X10920063Y-16656484D02*
X10901015Y-16646960D01*
X10901015Y-16646960D02*
X10891491Y-16637436D01*
X10891491Y-16637436D02*
X10881967Y-16618388D01*
X10881967Y-16618388D02*
X10872444Y-16580293D01*
X10872444Y-16580293D02*
X10872444Y-16532674D01*
X10872444Y-16532674D02*
X10881967Y-16494579D01*
X10881967Y-16494579D02*
X10891491Y-16475531D01*
X10891491Y-16475531D02*
X10901015Y-16466008D01*
X10901015Y-16466008D02*
X10920063Y-16456484D01*
X11110539Y-16456484D02*
X11129586Y-16456484D01*
X11129586Y-16456484D02*
X11148634Y-16466008D01*
X11148634Y-16466008D02*
X11158158Y-16475531D01*
X11158158Y-16475531D02*
X11167682Y-16494579D01*
X11167682Y-16494579D02*
X11177205Y-16532674D01*
X11177205Y-16532674D02*
X11177205Y-16580293D01*
X11177205Y-16580293D02*
X11167682Y-16618388D01*
X11167682Y-16618388D02*
X11158158Y-16637436D01*
X11158158Y-16637436D02*
X11148634Y-16646960D01*
X11148634Y-16646960D02*
X11129586Y-16656484D01*
X11129586Y-16656484D02*
X11110539Y-16656484D01*
X11110539Y-16656484D02*
X11091491Y-16646960D01*
X11091491Y-16646960D02*
X11081967Y-16637436D01*
X11081967Y-16637436D02*
X11072444Y-16618388D01*
X11072444Y-16618388D02*
X11062920Y-16580293D01*
X11062920Y-16580293D02*
X11062920Y-16532674D01*
X11062920Y-16532674D02*
X11072444Y-16494579D01*
X11072444Y-16494579D02*
X11081967Y-16475531D01*
X11081967Y-16475531D02*
X11091491Y-16466008D01*
X11091491Y-16466008D02*
X11110539Y-16456484D01*
X11262920Y-16656484D02*
X11262920Y-16523150D01*
X11262920Y-16542198D02*
X11272443Y-16532674D01*
X11272443Y-16532674D02*
X11291491Y-16523150D01*
X11291491Y-16523150D02*
X11320063Y-16523150D01*
X11320063Y-16523150D02*
X11339110Y-16532674D01*
X11339110Y-16532674D02*
X11348634Y-16551722D01*
X11348634Y-16551722D02*
X11348634Y-16656484D01*
X11348634Y-16551722D02*
X11358158Y-16532674D01*
X11358158Y-16532674D02*
X11377205Y-16523150D01*
X11377205Y-16523150D02*
X11405777Y-16523150D01*
X11405777Y-16523150D02*
X11424824Y-16532674D01*
X11424824Y-16532674D02*
X11434348Y-16551722D01*
X11434348Y-16551722D02*
X11434348Y-16656484D01*
X11529586Y-16656484D02*
X11529586Y-16523150D01*
X11529586Y-16542198D02*
X11539110Y-16532674D01*
X11539110Y-16532674D02*
X11558158Y-16523150D01*
X11558158Y-16523150D02*
X11586729Y-16523150D01*
X11586729Y-16523150D02*
X11605777Y-16532674D01*
X11605777Y-16532674D02*
X11615301Y-16551722D01*
X11615301Y-16551722D02*
X11615301Y-16656484D01*
X11615301Y-16551722D02*
X11624824Y-16532674D01*
X11624824Y-16532674D02*
X11643872Y-16523150D01*
X11643872Y-16523150D02*
X11672443Y-16523150D01*
X11672443Y-16523150D02*
X11691491Y-16532674D01*
X11691491Y-16532674D02*
X11701015Y-16551722D01*
X11701015Y-16551722D02*
X11701015Y-16656484D01*
X12091491Y-16446960D02*
X11920063Y-16704103D01*
X12348634Y-16456484D02*
X12367682Y-16456484D01*
X12367682Y-16456484D02*
X12386729Y-16466008D01*
X12386729Y-16466008D02*
X12396253Y-16475531D01*
X12396253Y-16475531D02*
X12405777Y-16494579D01*
X12405777Y-16494579D02*
X12415301Y-16532674D01*
X12415301Y-16532674D02*
X12415301Y-16580293D01*
X12415301Y-16580293D02*
X12405777Y-16618388D01*
X12405777Y-16618388D02*
X12396253Y-16637436D01*
X12396253Y-16637436D02*
X12386729Y-16646960D01*
X12386729Y-16646960D02*
X12367682Y-16656484D01*
X12367682Y-16656484D02*
X12348634Y-16656484D01*
X12348634Y-16656484D02*
X12329586Y-16646960D01*
X12329586Y-16646960D02*
X12320063Y-16637436D01*
X12320063Y-16637436D02*
X12310539Y-16618388D01*
X12310539Y-16618388D02*
X12301015Y-16580293D01*
X12301015Y-16580293D02*
X12301015Y-16532674D01*
X12301015Y-16532674D02*
X12310539Y-16494579D01*
X12310539Y-16494579D02*
X12320063Y-16475531D01*
X12320063Y-16475531D02*
X12329586Y-16466008D01*
X12329586Y-16466008D02*
X12348634Y-16456484D01*
X12501015Y-16637436D02*
X12510539Y-16646960D01*
X12510539Y-16646960D02*
X12501015Y-16656484D01*
X12501015Y-16656484D02*
X12491491Y-16646960D01*
X12491491Y-16646960D02*
X12501015Y-16637436D01*
X12501015Y-16637436D02*
X12501015Y-16656484D01*
X12634348Y-16456484D02*
X12653396Y-16456484D01*
X12653396Y-16456484D02*
X12672444Y-16466008D01*
X12672444Y-16466008D02*
X12681967Y-16475531D01*
X12681967Y-16475531D02*
X12691491Y-16494579D01*
X12691491Y-16494579D02*
X12701015Y-16532674D01*
X12701015Y-16532674D02*
X12701015Y-16580293D01*
X12701015Y-16580293D02*
X12691491Y-16618388D01*
X12691491Y-16618388D02*
X12681967Y-16637436D01*
X12681967Y-16637436D02*
X12672444Y-16646960D01*
X12672444Y-16646960D02*
X12653396Y-16656484D01*
X12653396Y-16656484D02*
X12634348Y-16656484D01*
X12634348Y-16656484D02*
X12615301Y-16646960D01*
X12615301Y-16646960D02*
X12605777Y-16637436D01*
X12605777Y-16637436D02*
X12596253Y-16618388D01*
X12596253Y-16618388D02*
X12586729Y-16580293D01*
X12586729Y-16580293D02*
X12586729Y-16532674D01*
X12586729Y-16532674D02*
X12596253Y-16494579D01*
X12596253Y-16494579D02*
X12605777Y-16475531D01*
X12605777Y-16475531D02*
X12615301Y-16466008D01*
X12615301Y-16466008D02*
X12634348Y-16456484D01*
X12767682Y-16456484D02*
X12891491Y-16456484D01*
X12891491Y-16456484D02*
X12824825Y-16532674D01*
X12824825Y-16532674D02*
X12853396Y-16532674D01*
X12853396Y-16532674D02*
X12872444Y-16542198D01*
X12872444Y-16542198D02*
X12881967Y-16551722D01*
X12881967Y-16551722D02*
X12891491Y-16570769D01*
X12891491Y-16570769D02*
X12891491Y-16618388D01*
X12891491Y-16618388D02*
X12881967Y-16637436D01*
X12881967Y-16637436D02*
X12872444Y-16646960D01*
X12872444Y-16646960D02*
X12853396Y-16656484D01*
X12853396Y-16656484D02*
X12796253Y-16656484D01*
X12796253Y-16656484D02*
X12777206Y-16646960D01*
X12777206Y-16646960D02*
X12767682Y-16637436D01*
X12986729Y-16656484D02*
X13024825Y-16656484D01*
X13024825Y-16656484D02*
X13043872Y-16646960D01*
X13043872Y-16646960D02*
X13053396Y-16637436D01*
X13053396Y-16637436D02*
X13072444Y-16608865D01*
X13072444Y-16608865D02*
X13081967Y-16570769D01*
X13081967Y-16570769D02*
X13081967Y-16494579D01*
X13081967Y-16494579D02*
X13072444Y-16475531D01*
X13072444Y-16475531D02*
X13062920Y-16466008D01*
X13062920Y-16466008D02*
X13043872Y-16456484D01*
X13043872Y-16456484D02*
X13005777Y-16456484D01*
X13005777Y-16456484D02*
X12986729Y-16466008D01*
X12986729Y-16466008D02*
X12977206Y-16475531D01*
X12977206Y-16475531D02*
X12967682Y-16494579D01*
X12967682Y-16494579D02*
X12967682Y-16542198D01*
X12967682Y-16542198D02*
X12977206Y-16561246D01*
X12977206Y-16561246D02*
X12986729Y-16570769D01*
X12986729Y-16570769D02*
X13005777Y-16580293D01*
X13005777Y-16580293D02*
X13043872Y-16580293D01*
X13043872Y-16580293D02*
X13062920Y-16570769D01*
X13062920Y-16570769D02*
X13072444Y-16561246D01*
X13072444Y-16561246D02*
X13081967Y-16542198D01*
X13253396Y-16523150D02*
X13253396Y-16656484D01*
X13205777Y-16446960D02*
X13158158Y-16589817D01*
X13158158Y-16589817D02*
X13281967Y-16589817D01*
X13348634Y-16456484D02*
X13348634Y-16494579D01*
X13424825Y-16456484D02*
X13424825Y-16494579D01*
X13720063Y-16732674D02*
X13710539Y-16723150D01*
X13710539Y-16723150D02*
X13691491Y-16694579D01*
X13691491Y-16694579D02*
X13681968Y-16675531D01*
X13681968Y-16675531D02*
X13672444Y-16646960D01*
X13672444Y-16646960D02*
X13662920Y-16599341D01*
X13662920Y-16599341D02*
X13662920Y-16561246D01*
X13662920Y-16561246D02*
X13672444Y-16513627D01*
X13672444Y-16513627D02*
X13681968Y-16485055D01*
X13681968Y-16485055D02*
X13691491Y-16466008D01*
X13691491Y-16466008D02*
X13710539Y-16437436D01*
X13710539Y-16437436D02*
X13720063Y-16427912D01*
X13824825Y-16542198D02*
X13805777Y-16532674D01*
X13805777Y-16532674D02*
X13796253Y-16523150D01*
X13796253Y-16523150D02*
X13786729Y-16504103D01*
X13786729Y-16504103D02*
X13786729Y-16494579D01*
X13786729Y-16494579D02*
X13796253Y-16475531D01*
X13796253Y-16475531D02*
X13805777Y-16466008D01*
X13805777Y-16466008D02*
X13824825Y-16456484D01*
X13824825Y-16456484D02*
X13862920Y-16456484D01*
X13862920Y-16456484D02*
X13881968Y-16466008D01*
X13881968Y-16466008D02*
X13891491Y-16475531D01*
X13891491Y-16475531D02*
X13901015Y-16494579D01*
X13901015Y-16494579D02*
X13901015Y-16504103D01*
X13901015Y-16504103D02*
X13891491Y-16523150D01*
X13891491Y-16523150D02*
X13881968Y-16532674D01*
X13881968Y-16532674D02*
X13862920Y-16542198D01*
X13862920Y-16542198D02*
X13824825Y-16542198D01*
X13824825Y-16542198D02*
X13805777Y-16551722D01*
X13805777Y-16551722D02*
X13796253Y-16561246D01*
X13796253Y-16561246D02*
X13786729Y-16580293D01*
X13786729Y-16580293D02*
X13786729Y-16618388D01*
X13786729Y-16618388D02*
X13796253Y-16637436D01*
X13796253Y-16637436D02*
X13805777Y-16646960D01*
X13805777Y-16646960D02*
X13824825Y-16656484D01*
X13824825Y-16656484D02*
X13862920Y-16656484D01*
X13862920Y-16656484D02*
X13881968Y-16646960D01*
X13881968Y-16646960D02*
X13891491Y-16637436D01*
X13891491Y-16637436D02*
X13901015Y-16618388D01*
X13901015Y-16618388D02*
X13901015Y-16580293D01*
X13901015Y-16580293D02*
X13891491Y-16561246D01*
X13891491Y-16561246D02*
X13881968Y-16551722D01*
X13881968Y-16551722D02*
X13862920Y-16542198D01*
X14139110Y-16656484D02*
X14139110Y-16456484D01*
X14224825Y-16656484D02*
X14224825Y-16551722D01*
X14224825Y-16551722D02*
X14215301Y-16532674D01*
X14215301Y-16532674D02*
X14196253Y-16523150D01*
X14196253Y-16523150D02*
X14167682Y-16523150D01*
X14167682Y-16523150D02*
X14148634Y-16532674D01*
X14148634Y-16532674D02*
X14139110Y-16542198D01*
X14348634Y-16656484D02*
X14329587Y-16646960D01*
X14329587Y-16646960D02*
X14320063Y-16637436D01*
X14320063Y-16637436D02*
X14310539Y-16618388D01*
X14310539Y-16618388D02*
X14310539Y-16561246D01*
X14310539Y-16561246D02*
X14320063Y-16542198D01*
X14320063Y-16542198D02*
X14329587Y-16532674D01*
X14329587Y-16532674D02*
X14348634Y-16523150D01*
X14348634Y-16523150D02*
X14377206Y-16523150D01*
X14377206Y-16523150D02*
X14396253Y-16532674D01*
X14396253Y-16532674D02*
X14405777Y-16542198D01*
X14405777Y-16542198D02*
X14415301Y-16561246D01*
X14415301Y-16561246D02*
X14415301Y-16618388D01*
X14415301Y-16618388D02*
X14405777Y-16637436D01*
X14405777Y-16637436D02*
X14396253Y-16646960D01*
X14396253Y-16646960D02*
X14377206Y-16656484D01*
X14377206Y-16656484D02*
X14348634Y-16656484D01*
X14529587Y-16656484D02*
X14510539Y-16646960D01*
X14510539Y-16646960D02*
X14501015Y-16627912D01*
X14501015Y-16627912D02*
X14501015Y-16456484D01*
X14681968Y-16646960D02*
X14662920Y-16656484D01*
X14662920Y-16656484D02*
X14624825Y-16656484D01*
X14624825Y-16656484D02*
X14605777Y-16646960D01*
X14605777Y-16646960D02*
X14596253Y-16627912D01*
X14596253Y-16627912D02*
X14596253Y-16551722D01*
X14596253Y-16551722D02*
X14605777Y-16532674D01*
X14605777Y-16532674D02*
X14624825Y-16523150D01*
X14624825Y-16523150D02*
X14662920Y-16523150D01*
X14662920Y-16523150D02*
X14681968Y-16532674D01*
X14681968Y-16532674D02*
X14691491Y-16551722D01*
X14691491Y-16551722D02*
X14691491Y-16570769D01*
X14691491Y-16570769D02*
X14596253Y-16589817D01*
X14767682Y-16646960D02*
X14786730Y-16656484D01*
X14786730Y-16656484D02*
X14824825Y-16656484D01*
X14824825Y-16656484D02*
X14843872Y-16646960D01*
X14843872Y-16646960D02*
X14853396Y-16627912D01*
X14853396Y-16627912D02*
X14853396Y-16618388D01*
X14853396Y-16618388D02*
X14843872Y-16599341D01*
X14843872Y-16599341D02*
X14824825Y-16589817D01*
X14824825Y-16589817D02*
X14796253Y-16589817D01*
X14796253Y-16589817D02*
X14777206Y-16580293D01*
X14777206Y-16580293D02*
X14767682Y-16561246D01*
X14767682Y-16561246D02*
X14767682Y-16551722D01*
X14767682Y-16551722D02*
X14777206Y-16532674D01*
X14777206Y-16532674D02*
X14796253Y-16523150D01*
X14796253Y-16523150D02*
X14824825Y-16523150D01*
X14824825Y-16523150D02*
X14843872Y-16532674D01*
X14920063Y-16732674D02*
X14929587Y-16723150D01*
X14929587Y-16723150D02*
X14948634Y-16694579D01*
X14948634Y-16694579D02*
X14958158Y-16675531D01*
X14958158Y-16675531D02*
X14967682Y-16646960D01*
X14967682Y-16646960D02*
X14977206Y-16599341D01*
X14977206Y-16599341D02*
X14977206Y-16561246D01*
X14977206Y-16561246D02*
X14967682Y-16513627D01*
X14967682Y-16513627D02*
X14958158Y-16485055D01*
X14958158Y-16485055D02*
X14948634Y-16466008D01*
X14948634Y-16466008D02*
X14929587Y-16437436D01*
X14929587Y-16437436D02*
X14920063Y-16427912D01*
D12*
X10035000Y-16774000D02*
X10145000Y-16884000D01*
X10145000Y-16774000D02*
X10035000Y-16884000D01*
X10090000Y-16774000D02*
X10090000Y-16884000D01*
X10035000Y-16829000D02*
X10145000Y-16829000D01*
D11*
X10510539Y-16920484D02*
X10396253Y-16920484D01*
X10453396Y-16920484D02*
X10453396Y-16720484D01*
X10453396Y-16720484D02*
X10434348Y-16749055D01*
X10434348Y-16749055D02*
X10415301Y-16768103D01*
X10415301Y-16768103D02*
X10396253Y-16777627D01*
X10596253Y-16901436D02*
X10605777Y-16910960D01*
X10605777Y-16910960D02*
X10596253Y-16920484D01*
X10596253Y-16920484D02*
X10586729Y-16910960D01*
X10586729Y-16910960D02*
X10596253Y-16901436D01*
X10596253Y-16901436D02*
X10596253Y-16920484D01*
X10796253Y-16920484D02*
X10681967Y-16920484D01*
X10739110Y-16920484D02*
X10739110Y-16720484D01*
X10739110Y-16720484D02*
X10720063Y-16749055D01*
X10720063Y-16749055D02*
X10701015Y-16768103D01*
X10701015Y-16768103D02*
X10681967Y-16777627D01*
X10920063Y-16720484D02*
X10939110Y-16720484D01*
X10939110Y-16720484D02*
X10958158Y-16730008D01*
X10958158Y-16730008D02*
X10967682Y-16739531D01*
X10967682Y-16739531D02*
X10977205Y-16758579D01*
X10977205Y-16758579D02*
X10986729Y-16796674D01*
X10986729Y-16796674D02*
X10986729Y-16844293D01*
X10986729Y-16844293D02*
X10977205Y-16882389D01*
X10977205Y-16882389D02*
X10967682Y-16901436D01*
X10967682Y-16901436D02*
X10958158Y-16910960D01*
X10958158Y-16910960D02*
X10939110Y-16920484D01*
X10939110Y-16920484D02*
X10920063Y-16920484D01*
X10920063Y-16920484D02*
X10901015Y-16910960D01*
X10901015Y-16910960D02*
X10891491Y-16901436D01*
X10891491Y-16901436D02*
X10881967Y-16882389D01*
X10881967Y-16882389D02*
X10872444Y-16844293D01*
X10872444Y-16844293D02*
X10872444Y-16796674D01*
X10872444Y-16796674D02*
X10881967Y-16758579D01*
X10881967Y-16758579D02*
X10891491Y-16739531D01*
X10891491Y-16739531D02*
X10901015Y-16730008D01*
X10901015Y-16730008D02*
X10920063Y-16720484D01*
X11110539Y-16720484D02*
X11129586Y-16720484D01*
X11129586Y-16720484D02*
X11148634Y-16730008D01*
X11148634Y-16730008D02*
X11158158Y-16739531D01*
X11158158Y-16739531D02*
X11167682Y-16758579D01*
X11167682Y-16758579D02*
X11177205Y-16796674D01*
X11177205Y-16796674D02*
X11177205Y-16844293D01*
X11177205Y-16844293D02*
X11167682Y-16882389D01*
X11167682Y-16882389D02*
X11158158Y-16901436D01*
X11158158Y-16901436D02*
X11148634Y-16910960D01*
X11148634Y-16910960D02*
X11129586Y-16920484D01*
X11129586Y-16920484D02*
X11110539Y-16920484D01*
X11110539Y-16920484D02*
X11091491Y-16910960D01*
X11091491Y-16910960D02*
X11081967Y-16901436D01*
X11081967Y-16901436D02*
X11072444Y-16882389D01*
X11072444Y-16882389D02*
X11062920Y-16844293D01*
X11062920Y-16844293D02*
X11062920Y-16796674D01*
X11062920Y-16796674D02*
X11072444Y-16758579D01*
X11072444Y-16758579D02*
X11081967Y-16739531D01*
X11081967Y-16739531D02*
X11091491Y-16730008D01*
X11091491Y-16730008D02*
X11110539Y-16720484D01*
X11262920Y-16920484D02*
X11262920Y-16787150D01*
X11262920Y-16806198D02*
X11272443Y-16796674D01*
X11272443Y-16796674D02*
X11291491Y-16787150D01*
X11291491Y-16787150D02*
X11320063Y-16787150D01*
X11320063Y-16787150D02*
X11339110Y-16796674D01*
X11339110Y-16796674D02*
X11348634Y-16815722D01*
X11348634Y-16815722D02*
X11348634Y-16920484D01*
X11348634Y-16815722D02*
X11358158Y-16796674D01*
X11358158Y-16796674D02*
X11377205Y-16787150D01*
X11377205Y-16787150D02*
X11405777Y-16787150D01*
X11405777Y-16787150D02*
X11424824Y-16796674D01*
X11424824Y-16796674D02*
X11434348Y-16815722D01*
X11434348Y-16815722D02*
X11434348Y-16920484D01*
X11529586Y-16920484D02*
X11529586Y-16787150D01*
X11529586Y-16806198D02*
X11539110Y-16796674D01*
X11539110Y-16796674D02*
X11558158Y-16787150D01*
X11558158Y-16787150D02*
X11586729Y-16787150D01*
X11586729Y-16787150D02*
X11605777Y-16796674D01*
X11605777Y-16796674D02*
X11615301Y-16815722D01*
X11615301Y-16815722D02*
X11615301Y-16920484D01*
X11615301Y-16815722D02*
X11624824Y-16796674D01*
X11624824Y-16796674D02*
X11643872Y-16787150D01*
X11643872Y-16787150D02*
X11672443Y-16787150D01*
X11672443Y-16787150D02*
X11691491Y-16796674D01*
X11691491Y-16796674D02*
X11701015Y-16815722D01*
X11701015Y-16815722D02*
X11701015Y-16920484D01*
X12091491Y-16710960D02*
X11920063Y-16968103D01*
X12348634Y-16720484D02*
X12367682Y-16720484D01*
X12367682Y-16720484D02*
X12386729Y-16730008D01*
X12386729Y-16730008D02*
X12396253Y-16739531D01*
X12396253Y-16739531D02*
X12405777Y-16758579D01*
X12405777Y-16758579D02*
X12415301Y-16796674D01*
X12415301Y-16796674D02*
X12415301Y-16844293D01*
X12415301Y-16844293D02*
X12405777Y-16882389D01*
X12405777Y-16882389D02*
X12396253Y-16901436D01*
X12396253Y-16901436D02*
X12386729Y-16910960D01*
X12386729Y-16910960D02*
X12367682Y-16920484D01*
X12367682Y-16920484D02*
X12348634Y-16920484D01*
X12348634Y-16920484D02*
X12329586Y-16910960D01*
X12329586Y-16910960D02*
X12320063Y-16901436D01*
X12320063Y-16901436D02*
X12310539Y-16882389D01*
X12310539Y-16882389D02*
X12301015Y-16844293D01*
X12301015Y-16844293D02*
X12301015Y-16796674D01*
X12301015Y-16796674D02*
X12310539Y-16758579D01*
X12310539Y-16758579D02*
X12320063Y-16739531D01*
X12320063Y-16739531D02*
X12329586Y-16730008D01*
X12329586Y-16730008D02*
X12348634Y-16720484D01*
X12501015Y-16901436D02*
X12510539Y-16910960D01*
X12510539Y-16910960D02*
X12501015Y-16920484D01*
X12501015Y-16920484D02*
X12491491Y-16910960D01*
X12491491Y-16910960D02*
X12501015Y-16901436D01*
X12501015Y-16901436D02*
X12501015Y-16920484D01*
X12634348Y-16720484D02*
X12653396Y-16720484D01*
X12653396Y-16720484D02*
X12672444Y-16730008D01*
X12672444Y-16730008D02*
X12681967Y-16739531D01*
X12681967Y-16739531D02*
X12691491Y-16758579D01*
X12691491Y-16758579D02*
X12701015Y-16796674D01*
X12701015Y-16796674D02*
X12701015Y-16844293D01*
X12701015Y-16844293D02*
X12691491Y-16882389D01*
X12691491Y-16882389D02*
X12681967Y-16901436D01*
X12681967Y-16901436D02*
X12672444Y-16910960D01*
X12672444Y-16910960D02*
X12653396Y-16920484D01*
X12653396Y-16920484D02*
X12634348Y-16920484D01*
X12634348Y-16920484D02*
X12615301Y-16910960D01*
X12615301Y-16910960D02*
X12605777Y-16901436D01*
X12605777Y-16901436D02*
X12596253Y-16882389D01*
X12596253Y-16882389D02*
X12586729Y-16844293D01*
X12586729Y-16844293D02*
X12586729Y-16796674D01*
X12586729Y-16796674D02*
X12596253Y-16758579D01*
X12596253Y-16758579D02*
X12605777Y-16739531D01*
X12605777Y-16739531D02*
X12615301Y-16730008D01*
X12615301Y-16730008D02*
X12634348Y-16720484D01*
X12872444Y-16787150D02*
X12872444Y-16920484D01*
X12824825Y-16710960D02*
X12777206Y-16853817D01*
X12777206Y-16853817D02*
X12901015Y-16853817D01*
X12958158Y-16720484D02*
X13081967Y-16720484D01*
X13081967Y-16720484D02*
X13015301Y-16796674D01*
X13015301Y-16796674D02*
X13043872Y-16796674D01*
X13043872Y-16796674D02*
X13062920Y-16806198D01*
X13062920Y-16806198D02*
X13072444Y-16815722D01*
X13072444Y-16815722D02*
X13081967Y-16834770D01*
X13081967Y-16834770D02*
X13081967Y-16882389D01*
X13081967Y-16882389D02*
X13072444Y-16901436D01*
X13072444Y-16901436D02*
X13062920Y-16910960D01*
X13062920Y-16910960D02*
X13043872Y-16920484D01*
X13043872Y-16920484D02*
X12986729Y-16920484D01*
X12986729Y-16920484D02*
X12967682Y-16910960D01*
X12967682Y-16910960D02*
X12958158Y-16901436D01*
X13148634Y-16720484D02*
X13272444Y-16720484D01*
X13272444Y-16720484D02*
X13205777Y-16796674D01*
X13205777Y-16796674D02*
X13234348Y-16796674D01*
X13234348Y-16796674D02*
X13253396Y-16806198D01*
X13253396Y-16806198D02*
X13262920Y-16815722D01*
X13262920Y-16815722D02*
X13272444Y-16834770D01*
X13272444Y-16834770D02*
X13272444Y-16882389D01*
X13272444Y-16882389D02*
X13262920Y-16901436D01*
X13262920Y-16901436D02*
X13253396Y-16910960D01*
X13253396Y-16910960D02*
X13234348Y-16920484D01*
X13234348Y-16920484D02*
X13177206Y-16920484D01*
X13177206Y-16920484D02*
X13158158Y-16910960D01*
X13158158Y-16910960D02*
X13148634Y-16901436D01*
X13348634Y-16720484D02*
X13348634Y-16758579D01*
X13424825Y-16720484D02*
X13424825Y-16758579D01*
X13720063Y-16996674D02*
X13710539Y-16987150D01*
X13710539Y-16987150D02*
X13691491Y-16958579D01*
X13691491Y-16958579D02*
X13681968Y-16939531D01*
X13681968Y-16939531D02*
X13672444Y-16910960D01*
X13672444Y-16910960D02*
X13662920Y-16863341D01*
X13662920Y-16863341D02*
X13662920Y-16825246D01*
X13662920Y-16825246D02*
X13672444Y-16777627D01*
X13672444Y-16777627D02*
X13681968Y-16749055D01*
X13681968Y-16749055D02*
X13691491Y-16730008D01*
X13691491Y-16730008D02*
X13710539Y-16701436D01*
X13710539Y-16701436D02*
X13720063Y-16691912D01*
X13777206Y-16720484D02*
X13901015Y-16720484D01*
X13901015Y-16720484D02*
X13834348Y-16796674D01*
X13834348Y-16796674D02*
X13862920Y-16796674D01*
X13862920Y-16796674D02*
X13881968Y-16806198D01*
X13881968Y-16806198D02*
X13891491Y-16815722D01*
X13891491Y-16815722D02*
X13901015Y-16834770D01*
X13901015Y-16834770D02*
X13901015Y-16882389D01*
X13901015Y-16882389D02*
X13891491Y-16901436D01*
X13891491Y-16901436D02*
X13881968Y-16910960D01*
X13881968Y-16910960D02*
X13862920Y-16920484D01*
X13862920Y-16920484D02*
X13805777Y-16920484D01*
X13805777Y-16920484D02*
X13786729Y-16910960D01*
X13786729Y-16910960D02*
X13777206Y-16901436D01*
X14139110Y-16920484D02*
X14139110Y-16720484D01*
X14224825Y-16920484D02*
X14224825Y-16815722D01*
X14224825Y-16815722D02*
X14215301Y-16796674D01*
X14215301Y-16796674D02*
X14196253Y-16787150D01*
X14196253Y-16787150D02*
X14167682Y-16787150D01*
X14167682Y-16787150D02*
X14148634Y-16796674D01*
X14148634Y-16796674D02*
X14139110Y-16806198D01*
X14348634Y-16920484D02*
X14329587Y-16910960D01*
X14329587Y-16910960D02*
X14320063Y-16901436D01*
X14320063Y-16901436D02*
X14310539Y-16882389D01*
X14310539Y-16882389D02*
X14310539Y-16825246D01*
X14310539Y-16825246D02*
X14320063Y-16806198D01*
X14320063Y-16806198D02*
X14329587Y-16796674D01*
X14329587Y-16796674D02*
X14348634Y-16787150D01*
X14348634Y-16787150D02*
X14377206Y-16787150D01*
X14377206Y-16787150D02*
X14396253Y-16796674D01*
X14396253Y-16796674D02*
X14405777Y-16806198D01*
X14405777Y-16806198D02*
X14415301Y-16825246D01*
X14415301Y-16825246D02*
X14415301Y-16882389D01*
X14415301Y-16882389D02*
X14405777Y-16901436D01*
X14405777Y-16901436D02*
X14396253Y-16910960D01*
X14396253Y-16910960D02*
X14377206Y-16920484D01*
X14377206Y-16920484D02*
X14348634Y-16920484D01*
X14529587Y-16920484D02*
X14510539Y-16910960D01*
X14510539Y-16910960D02*
X14501015Y-16891912D01*
X14501015Y-16891912D02*
X14501015Y-16720484D01*
X14681968Y-16910960D02*
X14662920Y-16920484D01*
X14662920Y-16920484D02*
X14624825Y-16920484D01*
X14624825Y-16920484D02*
X14605777Y-16910960D01*
X14605777Y-16910960D02*
X14596253Y-16891912D01*
X14596253Y-16891912D02*
X14596253Y-16815722D01*
X14596253Y-16815722D02*
X14605777Y-16796674D01*
X14605777Y-16796674D02*
X14624825Y-16787150D01*
X14624825Y-16787150D02*
X14662920Y-16787150D01*
X14662920Y-16787150D02*
X14681968Y-16796674D01*
X14681968Y-16796674D02*
X14691491Y-16815722D01*
X14691491Y-16815722D02*
X14691491Y-16834770D01*
X14691491Y-16834770D02*
X14596253Y-16853817D01*
X14767682Y-16910960D02*
X14786730Y-16920484D01*
X14786730Y-16920484D02*
X14824825Y-16920484D01*
X14824825Y-16920484D02*
X14843872Y-16910960D01*
X14843872Y-16910960D02*
X14853396Y-16891912D01*
X14853396Y-16891912D02*
X14853396Y-16882389D01*
X14853396Y-16882389D02*
X14843872Y-16863341D01*
X14843872Y-16863341D02*
X14824825Y-16853817D01*
X14824825Y-16853817D02*
X14796253Y-16853817D01*
X14796253Y-16853817D02*
X14777206Y-16844293D01*
X14777206Y-16844293D02*
X14767682Y-16825246D01*
X14767682Y-16825246D02*
X14767682Y-16815722D01*
X14767682Y-16815722D02*
X14777206Y-16796674D01*
X14777206Y-16796674D02*
X14796253Y-16787150D01*
X14796253Y-16787150D02*
X14824825Y-16787150D01*
X14824825Y-16787150D02*
X14843872Y-16796674D01*
X14920063Y-16996674D02*
X14929587Y-16987150D01*
X14929587Y-16987150D02*
X14948634Y-16958579D01*
X14948634Y-16958579D02*
X14958158Y-16939531D01*
X14958158Y-16939531D02*
X14967682Y-16910960D01*
X14967682Y-16910960D02*
X14977206Y-16863341D01*
X14977206Y-16863341D02*
X14977206Y-16825246D01*
X14977206Y-16825246D02*
X14967682Y-16777627D01*
X14967682Y-16777627D02*
X14958158Y-16749055D01*
X14958158Y-16749055D02*
X14948634Y-16730008D01*
X14948634Y-16730008D02*
X14929587Y-16701436D01*
X14929587Y-16701436D02*
X14920063Y-16691912D01*
D13*
X10025000Y-17033000D02*
X10145000Y-17153000D01*
X10145000Y-17033000D02*
X10025000Y-17153000D01*
X10127427Y-17135427D02*
X10127427Y-17050573D01*
X10042573Y-17050573D01*
X10042573Y-17135427D01*
X10127427Y-17135427D01*
D11*
X10510539Y-17184484D02*
X10396253Y-17184484D01*
X10453396Y-17184484D02*
X10453396Y-16984484D01*
X10453396Y-16984484D02*
X10434348Y-17013055D01*
X10434348Y-17013055D02*
X10415301Y-17032103D01*
X10415301Y-17032103D02*
X10396253Y-17041627D01*
X10596253Y-17165436D02*
X10605777Y-17174960D01*
X10605777Y-17174960D02*
X10596253Y-17184484D01*
X10596253Y-17184484D02*
X10586729Y-17174960D01*
X10586729Y-17174960D02*
X10596253Y-17165436D01*
X10596253Y-17165436D02*
X10596253Y-17184484D01*
X10681967Y-17003531D02*
X10691491Y-16994008D01*
X10691491Y-16994008D02*
X10710539Y-16984484D01*
X10710539Y-16984484D02*
X10758158Y-16984484D01*
X10758158Y-16984484D02*
X10777205Y-16994008D01*
X10777205Y-16994008D02*
X10786729Y-17003531D01*
X10786729Y-17003531D02*
X10796253Y-17022579D01*
X10796253Y-17022579D02*
X10796253Y-17041627D01*
X10796253Y-17041627D02*
X10786729Y-17070198D01*
X10786729Y-17070198D02*
X10672444Y-17184484D01*
X10672444Y-17184484D02*
X10796253Y-17184484D01*
X10920063Y-16984484D02*
X10939110Y-16984484D01*
X10939110Y-16984484D02*
X10958158Y-16994008D01*
X10958158Y-16994008D02*
X10967682Y-17003531D01*
X10967682Y-17003531D02*
X10977205Y-17022579D01*
X10977205Y-17022579D02*
X10986729Y-17060674D01*
X10986729Y-17060674D02*
X10986729Y-17108293D01*
X10986729Y-17108293D02*
X10977205Y-17146389D01*
X10977205Y-17146389D02*
X10967682Y-17165436D01*
X10967682Y-17165436D02*
X10958158Y-17174960D01*
X10958158Y-17174960D02*
X10939110Y-17184484D01*
X10939110Y-17184484D02*
X10920063Y-17184484D01*
X10920063Y-17184484D02*
X10901015Y-17174960D01*
X10901015Y-17174960D02*
X10891491Y-17165436D01*
X10891491Y-17165436D02*
X10881967Y-17146389D01*
X10881967Y-17146389D02*
X10872444Y-17108293D01*
X10872444Y-17108293D02*
X10872444Y-17060674D01*
X10872444Y-17060674D02*
X10881967Y-17022579D01*
X10881967Y-17022579D02*
X10891491Y-17003531D01*
X10891491Y-17003531D02*
X10901015Y-16994008D01*
X10901015Y-16994008D02*
X10920063Y-16984484D01*
X11110539Y-16984484D02*
X11129586Y-16984484D01*
X11129586Y-16984484D02*
X11148634Y-16994008D01*
X11148634Y-16994008D02*
X11158158Y-17003531D01*
X11158158Y-17003531D02*
X11167682Y-17022579D01*
X11167682Y-17022579D02*
X11177205Y-17060674D01*
X11177205Y-17060674D02*
X11177205Y-17108293D01*
X11177205Y-17108293D02*
X11167682Y-17146389D01*
X11167682Y-17146389D02*
X11158158Y-17165436D01*
X11158158Y-17165436D02*
X11148634Y-17174960D01*
X11148634Y-17174960D02*
X11129586Y-17184484D01*
X11129586Y-17184484D02*
X11110539Y-17184484D01*
X11110539Y-17184484D02*
X11091491Y-17174960D01*
X11091491Y-17174960D02*
X11081967Y-17165436D01*
X11081967Y-17165436D02*
X11072444Y-17146389D01*
X11072444Y-17146389D02*
X11062920Y-17108293D01*
X11062920Y-17108293D02*
X11062920Y-17060674D01*
X11062920Y-17060674D02*
X11072444Y-17022579D01*
X11072444Y-17022579D02*
X11081967Y-17003531D01*
X11081967Y-17003531D02*
X11091491Y-16994008D01*
X11091491Y-16994008D02*
X11110539Y-16984484D01*
X11262920Y-17184484D02*
X11262920Y-17051150D01*
X11262920Y-17070198D02*
X11272443Y-17060674D01*
X11272443Y-17060674D02*
X11291491Y-17051150D01*
X11291491Y-17051150D02*
X11320063Y-17051150D01*
X11320063Y-17051150D02*
X11339110Y-17060674D01*
X11339110Y-17060674D02*
X11348634Y-17079722D01*
X11348634Y-17079722D02*
X11348634Y-17184484D01*
X11348634Y-17079722D02*
X11358158Y-17060674D01*
X11358158Y-17060674D02*
X11377205Y-17051150D01*
X11377205Y-17051150D02*
X11405777Y-17051150D01*
X11405777Y-17051150D02*
X11424824Y-17060674D01*
X11424824Y-17060674D02*
X11434348Y-17079722D01*
X11434348Y-17079722D02*
X11434348Y-17184484D01*
X11529586Y-17184484D02*
X11529586Y-17051150D01*
X11529586Y-17070198D02*
X11539110Y-17060674D01*
X11539110Y-17060674D02*
X11558158Y-17051150D01*
X11558158Y-17051150D02*
X11586729Y-17051150D01*
X11586729Y-17051150D02*
X11605777Y-17060674D01*
X11605777Y-17060674D02*
X11615301Y-17079722D01*
X11615301Y-17079722D02*
X11615301Y-17184484D01*
X11615301Y-17079722D02*
X11624824Y-17060674D01*
X11624824Y-17060674D02*
X11643872Y-17051150D01*
X11643872Y-17051150D02*
X11672443Y-17051150D01*
X11672443Y-17051150D02*
X11691491Y-17060674D01*
X11691491Y-17060674D02*
X11701015Y-17079722D01*
X11701015Y-17079722D02*
X11701015Y-17184484D01*
X12091491Y-16974960D02*
X11920063Y-17232103D01*
X12348634Y-16984484D02*
X12367682Y-16984484D01*
X12367682Y-16984484D02*
X12386729Y-16994008D01*
X12386729Y-16994008D02*
X12396253Y-17003531D01*
X12396253Y-17003531D02*
X12405777Y-17022579D01*
X12405777Y-17022579D02*
X12415301Y-17060674D01*
X12415301Y-17060674D02*
X12415301Y-17108293D01*
X12415301Y-17108293D02*
X12405777Y-17146389D01*
X12405777Y-17146389D02*
X12396253Y-17165436D01*
X12396253Y-17165436D02*
X12386729Y-17174960D01*
X12386729Y-17174960D02*
X12367682Y-17184484D01*
X12367682Y-17184484D02*
X12348634Y-17184484D01*
X12348634Y-17184484D02*
X12329586Y-17174960D01*
X12329586Y-17174960D02*
X12320063Y-17165436D01*
X12320063Y-17165436D02*
X12310539Y-17146389D01*
X12310539Y-17146389D02*
X12301015Y-17108293D01*
X12301015Y-17108293D02*
X12301015Y-17060674D01*
X12301015Y-17060674D02*
X12310539Y-17022579D01*
X12310539Y-17022579D02*
X12320063Y-17003531D01*
X12320063Y-17003531D02*
X12329586Y-16994008D01*
X12329586Y-16994008D02*
X12348634Y-16984484D01*
X12501015Y-17165436D02*
X12510539Y-17174960D01*
X12510539Y-17174960D02*
X12501015Y-17184484D01*
X12501015Y-17184484D02*
X12491491Y-17174960D01*
X12491491Y-17174960D02*
X12501015Y-17165436D01*
X12501015Y-17165436D02*
X12501015Y-17184484D01*
X12634348Y-16984484D02*
X12653396Y-16984484D01*
X12653396Y-16984484D02*
X12672444Y-16994008D01*
X12672444Y-16994008D02*
X12681967Y-17003531D01*
X12681967Y-17003531D02*
X12691491Y-17022579D01*
X12691491Y-17022579D02*
X12701015Y-17060674D01*
X12701015Y-17060674D02*
X12701015Y-17108293D01*
X12701015Y-17108293D02*
X12691491Y-17146389D01*
X12691491Y-17146389D02*
X12681967Y-17165436D01*
X12681967Y-17165436D02*
X12672444Y-17174960D01*
X12672444Y-17174960D02*
X12653396Y-17184484D01*
X12653396Y-17184484D02*
X12634348Y-17184484D01*
X12634348Y-17184484D02*
X12615301Y-17174960D01*
X12615301Y-17174960D02*
X12605777Y-17165436D01*
X12605777Y-17165436D02*
X12596253Y-17146389D01*
X12596253Y-17146389D02*
X12586729Y-17108293D01*
X12586729Y-17108293D02*
X12586729Y-17060674D01*
X12586729Y-17060674D02*
X12596253Y-17022579D01*
X12596253Y-17022579D02*
X12605777Y-17003531D01*
X12605777Y-17003531D02*
X12615301Y-16994008D01*
X12615301Y-16994008D02*
X12634348Y-16984484D01*
X12872444Y-17051150D02*
X12872444Y-17184484D01*
X12824825Y-16974960D02*
X12777206Y-17117817D01*
X12777206Y-17117817D02*
X12901015Y-17117817D01*
X12958158Y-16984484D02*
X13091491Y-16984484D01*
X13091491Y-16984484D02*
X13005777Y-17184484D01*
X13158158Y-17003531D02*
X13167682Y-16994008D01*
X13167682Y-16994008D02*
X13186729Y-16984484D01*
X13186729Y-16984484D02*
X13234348Y-16984484D01*
X13234348Y-16984484D02*
X13253396Y-16994008D01*
X13253396Y-16994008D02*
X13262920Y-17003531D01*
X13262920Y-17003531D02*
X13272444Y-17022579D01*
X13272444Y-17022579D02*
X13272444Y-17041627D01*
X13272444Y-17041627D02*
X13262920Y-17070198D01*
X13262920Y-17070198D02*
X13148634Y-17184484D01*
X13148634Y-17184484D02*
X13272444Y-17184484D01*
X13348634Y-16984484D02*
X13348634Y-17022579D01*
X13424825Y-16984484D02*
X13424825Y-17022579D01*
X13720063Y-17260674D02*
X13710539Y-17251150D01*
X13710539Y-17251150D02*
X13691491Y-17222579D01*
X13691491Y-17222579D02*
X13681968Y-17203531D01*
X13681968Y-17203531D02*
X13672444Y-17174960D01*
X13672444Y-17174960D02*
X13662920Y-17127341D01*
X13662920Y-17127341D02*
X13662920Y-17089246D01*
X13662920Y-17089246D02*
X13672444Y-17041627D01*
X13672444Y-17041627D02*
X13681968Y-17013055D01*
X13681968Y-17013055D02*
X13691491Y-16994008D01*
X13691491Y-16994008D02*
X13710539Y-16965436D01*
X13710539Y-16965436D02*
X13720063Y-16955912D01*
X13901015Y-17184484D02*
X13786729Y-17184484D01*
X13843872Y-17184484D02*
X13843872Y-16984484D01*
X13843872Y-16984484D02*
X13824825Y-17013055D01*
X13824825Y-17013055D02*
X13805777Y-17032103D01*
X13805777Y-17032103D02*
X13786729Y-17041627D01*
X13967682Y-16984484D02*
X14091491Y-16984484D01*
X14091491Y-16984484D02*
X14024825Y-17060674D01*
X14024825Y-17060674D02*
X14053396Y-17060674D01*
X14053396Y-17060674D02*
X14072444Y-17070198D01*
X14072444Y-17070198D02*
X14081968Y-17079722D01*
X14081968Y-17079722D02*
X14091491Y-17098770D01*
X14091491Y-17098770D02*
X14091491Y-17146389D01*
X14091491Y-17146389D02*
X14081968Y-17165436D01*
X14081968Y-17165436D02*
X14072444Y-17174960D01*
X14072444Y-17174960D02*
X14053396Y-17184484D01*
X14053396Y-17184484D02*
X13996253Y-17184484D01*
X13996253Y-17184484D02*
X13977206Y-17174960D01*
X13977206Y-17174960D02*
X13967682Y-17165436D01*
X14329587Y-17184484D02*
X14329587Y-16984484D01*
X14415301Y-17184484D02*
X14415301Y-17079722D01*
X14415301Y-17079722D02*
X14405777Y-17060674D01*
X14405777Y-17060674D02*
X14386730Y-17051150D01*
X14386730Y-17051150D02*
X14358158Y-17051150D01*
X14358158Y-17051150D02*
X14339110Y-17060674D01*
X14339110Y-17060674D02*
X14329587Y-17070198D01*
X14539110Y-17184484D02*
X14520063Y-17174960D01*
X14520063Y-17174960D02*
X14510539Y-17165436D01*
X14510539Y-17165436D02*
X14501015Y-17146389D01*
X14501015Y-17146389D02*
X14501015Y-17089246D01*
X14501015Y-17089246D02*
X14510539Y-17070198D01*
X14510539Y-17070198D02*
X14520063Y-17060674D01*
X14520063Y-17060674D02*
X14539110Y-17051150D01*
X14539110Y-17051150D02*
X14567682Y-17051150D01*
X14567682Y-17051150D02*
X14586730Y-17060674D01*
X14586730Y-17060674D02*
X14596253Y-17070198D01*
X14596253Y-17070198D02*
X14605777Y-17089246D01*
X14605777Y-17089246D02*
X14605777Y-17146389D01*
X14605777Y-17146389D02*
X14596253Y-17165436D01*
X14596253Y-17165436D02*
X14586730Y-17174960D01*
X14586730Y-17174960D02*
X14567682Y-17184484D01*
X14567682Y-17184484D02*
X14539110Y-17184484D01*
X14720063Y-17184484D02*
X14701015Y-17174960D01*
X14701015Y-17174960D02*
X14691491Y-17155912D01*
X14691491Y-17155912D02*
X14691491Y-16984484D01*
X14872444Y-17174960D02*
X14853396Y-17184484D01*
X14853396Y-17184484D02*
X14815301Y-17184484D01*
X14815301Y-17184484D02*
X14796253Y-17174960D01*
X14796253Y-17174960D02*
X14786730Y-17155912D01*
X14786730Y-17155912D02*
X14786730Y-17079722D01*
X14786730Y-17079722D02*
X14796253Y-17060674D01*
X14796253Y-17060674D02*
X14815301Y-17051150D01*
X14815301Y-17051150D02*
X14853396Y-17051150D01*
X14853396Y-17051150D02*
X14872444Y-17060674D01*
X14872444Y-17060674D02*
X14881968Y-17079722D01*
X14881968Y-17079722D02*
X14881968Y-17098770D01*
X14881968Y-17098770D02*
X14786730Y-17117817D01*
X14958158Y-17174960D02*
X14977206Y-17184484D01*
X14977206Y-17184484D02*
X15015301Y-17184484D01*
X15015301Y-17184484D02*
X15034349Y-17174960D01*
X15034349Y-17174960D02*
X15043872Y-17155912D01*
X15043872Y-17155912D02*
X15043872Y-17146389D01*
X15043872Y-17146389D02*
X15034349Y-17127341D01*
X15034349Y-17127341D02*
X15015301Y-17117817D01*
X15015301Y-17117817D02*
X14986730Y-17117817D01*
X14986730Y-17117817D02*
X14967682Y-17108293D01*
X14967682Y-17108293D02*
X14958158Y-17089246D01*
X14958158Y-17089246D02*
X14958158Y-17079722D01*
X14958158Y-17079722D02*
X14967682Y-17060674D01*
X14967682Y-17060674D02*
X14986730Y-17051150D01*
X14986730Y-17051150D02*
X15015301Y-17051150D01*
X15015301Y-17051150D02*
X15034349Y-17060674D01*
X15110539Y-17260674D02*
X15120063Y-17251150D01*
X15120063Y-17251150D02*
X15139111Y-17222579D01*
X15139111Y-17222579D02*
X15148634Y-17203531D01*
X15148634Y-17203531D02*
X15158158Y-17174960D01*
X15158158Y-17174960D02*
X15167682Y-17127341D01*
X15167682Y-17127341D02*
X15167682Y-17089246D01*
X15167682Y-17089246D02*
X15158158Y-17041627D01*
X15158158Y-17041627D02*
X15148634Y-17013055D01*
X15148634Y-17013055D02*
X15139111Y-16994008D01*
X15139111Y-16994008D02*
X15120063Y-16965436D01*
X15120063Y-16965436D02*
X15110539Y-16955912D01*
M02*
