G04 #@! TF.GenerationSoftware,KiCad,Pcbnew,8.0.8*
G04 #@! TF.CreationDate,2025-01-30T15:17:16-05:00*
G04 #@! TF.ProjectId,FORWARD-PCB,464f5257-4152-4442-9d50-43422e6b6963,rev?*
G04 #@! TF.SameCoordinates,Original*
G04 #@! TF.FileFunction,Copper,L4,Bot*
G04 #@! TF.FilePolarity,Positive*
%FSLAX46Y46*%
G04 Gerber Fmt 4.6, Leading zero omitted, Abs format (unit mm)*
G04 Created by KiCad (PCBNEW 8.0.8) date 2025-01-30 15:17:16*
%MOMM*%
%LPD*%
G01*
G04 APERTURE LIST*
G04 Aperture macros list*
%AMRoundRect*
0 Rectangle with rounded corners*
0 $1 Rounding radius*
0 $2 $3 $4 $5 $6 $7 $8 $9 X,Y pos of 4 corners*
0 Add a 4 corners polygon primitive as box body*
4,1,4,$2,$3,$4,$5,$6,$7,$8,$9,$2,$3,0*
0 Add four circle primitives for the rounded corners*
1,1,$1+$1,$2,$3*
1,1,$1+$1,$4,$5*
1,1,$1+$1,$6,$7*
1,1,$1+$1,$8,$9*
0 Add four rect primitives between the rounded corners*
20,1,$1+$1,$2,$3,$4,$5,0*
20,1,$1+$1,$4,$5,$6,$7,0*
20,1,$1+$1,$6,$7,$8,$9,0*
20,1,$1+$1,$8,$9,$2,$3,0*%
G04 Aperture macros list end*
G04 #@! TA.AperFunction,ComponentPad*
%ADD10RoundRect,0.250000X0.725000X-0.600000X0.725000X0.600000X-0.725000X0.600000X-0.725000X-0.600000X0*%
G04 #@! TD*
G04 #@! TA.AperFunction,ComponentPad*
%ADD11O,1.950000X1.700000*%
G04 #@! TD*
G04 #@! TA.AperFunction,HeatsinkPad*
%ADD12O,1.800000X1.100000*%
G04 #@! TD*
G04 #@! TA.AperFunction,HeatsinkPad*
%ADD13O,2.200000X1.100000*%
G04 #@! TD*
G04 #@! TA.AperFunction,ComponentPad*
%ADD14RoundRect,0.250000X-0.600000X-0.725000X0.600000X-0.725000X0.600000X0.725000X-0.600000X0.725000X0*%
G04 #@! TD*
G04 #@! TA.AperFunction,ComponentPad*
%ADD15O,1.700000X1.950000*%
G04 #@! TD*
G04 #@! TA.AperFunction,ComponentPad*
%ADD16R,1.700000X1.700000*%
G04 #@! TD*
G04 #@! TA.AperFunction,ComponentPad*
%ADD17O,1.700000X1.700000*%
G04 #@! TD*
G04 #@! TA.AperFunction,ComponentPad*
%ADD18RoundRect,0.250000X-0.725000X0.600000X-0.725000X-0.600000X0.725000X-0.600000X0.725000X0.600000X0*%
G04 #@! TD*
G04 #@! TA.AperFunction,ComponentPad*
%ADD19RoundRect,0.250000X-0.650000X-1.550000X0.650000X-1.550000X0.650000X1.550000X-0.650000X1.550000X0*%
G04 #@! TD*
G04 #@! TA.AperFunction,ComponentPad*
%ADD20O,1.800000X3.600000*%
G04 #@! TD*
G04 #@! TA.AperFunction,ComponentPad*
%ADD21R,2.200000X2.200000*%
G04 #@! TD*
G04 #@! TA.AperFunction,ComponentPad*
%ADD22C,2.200000*%
G04 #@! TD*
G04 #@! TA.AperFunction,HeatsinkPad*
%ADD23C,0.600000*%
G04 #@! TD*
G04 #@! TA.AperFunction,ViaPad*
%ADD24C,0.800000*%
G04 #@! TD*
G04 #@! TA.AperFunction,Conductor*
%ADD25C,0.838200*%
G04 #@! TD*
G04 #@! TA.AperFunction,Conductor*
%ADD26C,0.250000*%
G04 #@! TD*
G04 APERTURE END LIST*
D10*
X105500000Y-76000000D03*
D11*
X105500000Y-73500000D03*
X105500000Y-71000000D03*
X105500000Y-68500000D03*
D12*
X177150000Y-141750000D03*
D13*
X179950000Y-143900000D03*
D12*
X182750000Y-141750000D03*
D14*
X119950000Y-55332500D03*
D15*
X122450000Y-55332500D03*
X124950000Y-55332500D03*
X127450000Y-55332500D03*
X129950000Y-55332500D03*
X132450000Y-55332500D03*
D16*
X117000000Y-87125000D03*
D17*
X117000000Y-89665000D03*
X117000000Y-92205000D03*
X117000000Y-94745000D03*
X117000000Y-97285000D03*
X117000000Y-99825000D03*
X117000000Y-102365000D03*
X117000000Y-104905000D03*
D18*
X195967500Y-80500000D03*
D11*
X195967500Y-83000000D03*
X195967500Y-85500000D03*
X195967500Y-88000000D03*
D19*
X106020000Y-138500000D03*
D20*
X109830000Y-138500000D03*
X113640000Y-138500000D03*
X117450000Y-138500000D03*
X121260000Y-138500000D03*
X125070000Y-138500000D03*
X128880000Y-138500000D03*
X132690000Y-138500000D03*
X136500000Y-138500000D03*
X140310000Y-138500000D03*
X144120000Y-138500000D03*
X147930000Y-138500000D03*
X151740000Y-138500000D03*
D21*
X106500000Y-109960000D03*
D22*
X106500000Y-112500000D03*
X106500000Y-115040000D03*
D23*
X161100000Y-63200000D03*
X161100000Y-64600000D03*
X161800000Y-62500000D03*
X161800000Y-63900000D03*
X161800000Y-65300000D03*
X162475000Y-63200000D03*
X162475000Y-64600000D03*
X163200000Y-62500000D03*
X163200000Y-63900000D03*
X163200000Y-65300000D03*
X163900000Y-63200000D03*
X163900000Y-64600000D03*
D14*
X103000000Y-55500000D03*
D15*
X105500000Y-55500000D03*
X108000000Y-55500000D03*
X110500000Y-55500000D03*
D18*
X195967500Y-98750000D03*
D11*
X195967500Y-101250000D03*
X195967500Y-103750000D03*
X195967500Y-106250000D03*
D24*
X151250000Y-84750000D03*
X174500000Y-123250000D03*
X156619740Y-100000000D03*
X155500000Y-77300000D03*
X177250000Y-135000000D03*
X154250000Y-84000000D03*
X141619740Y-106000000D03*
X191000000Y-94000000D03*
X140619740Y-114700000D03*
X166250000Y-94000000D03*
X136059870Y-122059870D03*
X141119740Y-102000000D03*
X163250000Y-123750000D03*
X171750000Y-134000000D03*
X148035435Y-113382684D03*
X177250000Y-137750000D03*
X179250000Y-138250000D03*
X146119740Y-113500000D03*
X136000000Y-78000000D03*
X113000000Y-99205000D03*
X124000000Y-66000000D03*
X145500000Y-74500000D03*
X136000000Y-88000000D03*
X111000000Y-91205000D03*
X145080000Y-71420000D03*
X164500000Y-105500000D03*
X155619740Y-108300000D03*
X162119740Y-107000000D03*
X164000000Y-100000000D03*
X149619740Y-104500000D03*
X151619740Y-97000000D03*
X113750000Y-61500000D03*
X127750000Y-60000000D03*
X171500000Y-91000000D03*
X153000000Y-107000000D03*
X172500000Y-87250000D03*
X150750000Y-106000000D03*
X163500000Y-134750000D03*
X148000000Y-125000000D03*
X127500000Y-62250000D03*
X118500000Y-65500000D03*
X116500000Y-73500000D03*
X157500000Y-82500000D03*
X173779980Y-98640228D03*
X174250000Y-94500000D03*
D25*
X159250000Y-92250000D02*
X159250000Y-97369740D01*
X160500000Y-79500000D02*
X165000000Y-84000000D01*
X155500000Y-77300000D02*
X157700000Y-79500000D01*
X165000000Y-84000000D02*
X165000000Y-86500000D01*
X177250000Y-135000000D02*
X177250000Y-126000000D01*
X157700000Y-79500000D02*
X160500000Y-79500000D01*
X177250000Y-126000000D02*
X174500000Y-123250000D01*
X165000000Y-86500000D02*
X159250000Y-92250000D01*
X159250000Y-97369740D02*
X156619740Y-100000000D01*
X110750000Y-102740894D02*
X110750000Y-111000000D01*
X105500000Y-76000000D02*
X108369100Y-78869100D01*
X104500000Y-76000000D02*
X105500000Y-76000000D01*
X135119740Y-123000000D02*
X119750000Y-123000000D01*
X103000000Y-55500000D02*
X103000000Y-74500000D01*
X110750000Y-111000000D02*
X109250000Y-112500000D01*
X167250000Y-93000000D02*
X190000000Y-93000000D01*
X103000000Y-74500000D02*
X104500000Y-76000000D01*
X166250000Y-94000000D02*
X167250000Y-93000000D01*
X190000000Y-93000000D02*
X191000000Y-94000000D01*
X108369100Y-100359994D02*
X110750000Y-102740894D01*
X141619740Y-102500000D02*
X141619740Y-106000000D01*
X140619740Y-114700000D02*
X140619740Y-117500000D01*
X166200000Y-94000000D02*
X166250000Y-94000000D01*
X140619740Y-117500000D02*
X135119740Y-123000000D01*
X109250000Y-112500000D02*
X106500000Y-112500000D01*
X108369100Y-78869100D02*
X108369100Y-100359994D01*
X141119740Y-102000000D02*
X141619740Y-102500000D01*
X119750000Y-123000000D02*
X109250000Y-112500000D01*
X171750000Y-132250000D02*
X171750000Y-134000000D01*
X163250000Y-123750000D02*
X171750000Y-132250000D01*
X145030900Y-124280900D02*
X145030900Y-116387219D01*
X145030900Y-116387219D02*
X148035435Y-113382684D01*
X177250000Y-137750000D02*
X158500000Y-137750000D01*
X158500000Y-137750000D02*
X145030900Y-124280900D01*
X178000000Y-139500000D02*
X158000000Y-139500000D01*
X179250000Y-138250000D02*
X178000000Y-139500000D01*
X142250000Y-123750000D02*
X142250000Y-117369740D01*
X142250000Y-117369740D02*
X146119740Y-113500000D01*
X158000000Y-139500000D02*
X142250000Y-123750000D01*
X134795000Y-89205000D02*
X136000000Y-88000000D01*
X129690000Y-72690000D02*
X141310000Y-72690000D01*
X124000000Y-67000000D02*
X129690000Y-72690000D01*
X120000000Y-89205000D02*
X117000000Y-92205000D01*
X113000000Y-99205000D02*
X113000000Y-105700000D01*
X136000000Y-78000000D02*
X141310000Y-72690000D01*
X141310000Y-72690000D02*
X142690000Y-72690000D01*
X123500000Y-103700000D02*
X123500000Y-95205000D01*
X144500000Y-74500000D02*
X145500000Y-74500000D01*
X123500000Y-95205000D02*
X129500000Y-89205000D01*
X124000000Y-89205000D02*
X134795000Y-89205000D01*
X119500000Y-107700000D02*
X123500000Y-103700000D01*
X115000000Y-107700000D02*
X119500000Y-107700000D01*
X113000000Y-105700000D02*
X115000000Y-107700000D01*
X124000000Y-66000000D02*
X124000000Y-67000000D01*
X142690000Y-72690000D02*
X144500000Y-74500000D01*
X124000000Y-89205000D02*
X120000000Y-89205000D01*
X126750000Y-64250000D02*
X123000000Y-64250000D01*
X129950000Y-55332500D02*
X129950000Y-57050000D01*
X111000000Y-76250000D02*
X111000000Y-91205000D01*
X129950000Y-67450000D02*
X126750000Y-64250000D01*
X133920000Y-71420000D02*
X129950000Y-67450000D01*
X145080000Y-71420000D02*
X133920000Y-71420000D01*
X114540000Y-94745000D02*
X117000000Y-94745000D01*
X129950000Y-67450000D02*
X129950000Y-57050000D01*
X111000000Y-91205000D02*
X114540000Y-94745000D01*
X123000000Y-64250000D02*
X111000000Y-76250000D01*
D26*
X158819740Y-108300000D02*
X155619740Y-108300000D01*
X160119740Y-107000000D02*
X158819740Y-108300000D01*
D25*
X164000000Y-105000000D02*
X164000000Y-102750000D01*
D26*
X162119740Y-107000000D02*
X160119740Y-107000000D01*
D25*
X164500000Y-105500000D02*
X164000000Y-105000000D01*
X164000000Y-102750000D02*
X164000000Y-100000000D01*
X149619740Y-99000000D02*
X151619740Y-97000000D01*
X149619740Y-104500000D02*
X149619740Y-99000000D01*
X127750000Y-60000000D02*
X126719100Y-60000000D01*
X125219100Y-61500000D02*
X113750000Y-61500000D01*
X126719100Y-60000000D02*
X125219100Y-61500000D01*
X162000000Y-99250000D02*
X162000000Y-94250000D01*
X171000000Y-91500000D02*
X171500000Y-91000000D01*
X162000000Y-94250000D02*
X164750000Y-91500000D01*
X164750000Y-91500000D02*
X171000000Y-91500000D01*
X154250000Y-107000000D02*
X162000000Y-99250000D01*
X153000000Y-107000000D02*
X154250000Y-107000000D01*
X150750000Y-106000000D02*
X151500000Y-105250000D01*
X151500000Y-105250000D02*
X153793989Y-105250000D01*
X160288200Y-98755789D02*
X160288200Y-93461800D01*
X163750000Y-90000000D02*
X169750000Y-90000000D01*
X169750000Y-90000000D02*
X172500000Y-87250000D01*
X160288200Y-93461800D02*
X163750000Y-90000000D01*
X153793989Y-105250000D02*
X160288200Y-98755789D01*
X148000000Y-125000000D02*
X157750000Y-134750000D01*
X157750000Y-134750000D02*
X163500000Y-134750000D01*
X148000000Y-125000000D02*
X148019100Y-125019100D01*
X118500000Y-65500000D02*
X121250000Y-62750000D01*
X127000000Y-62750000D02*
X127500000Y-62250000D01*
X121250000Y-62750000D02*
X127000000Y-62750000D01*
X120500000Y-73500000D02*
X129500000Y-82500000D01*
X116500000Y-73500000D02*
X120500000Y-73500000D01*
X129500000Y-82500000D02*
X157500000Y-82500000D01*
X173779980Y-98640228D02*
X173779980Y-94970020D01*
X173779980Y-94970020D02*
X174250000Y-94500000D01*
M02*
